%TF.GenerationSoftware,Altium Limited,Altium Designer,20.2.5 (213)*%
G04 Layer_Color=255*
%FSLAX45Y45*%
%MOMM*%
%TF.SameCoordinates,662F433C-BD6F-4083-8A0F-E7C0AAC1164F*%
%TF.FilePolarity,Positive*%
%TF.FileFunction,Pads,Bot*%
%TF.Part,Single*%
G01*
G75*
%TA.AperFunction,ComponentPad*%
%ADD21C,2.50000*%
%ADD22C,1.50000*%
%ADD23R,1.50000X1.50000*%
%ADD24C,1.52400*%
%ADD25R,1.50000X1.50000*%
%ADD26C,2.00000*%
%TA.AperFunction,ViaPad*%
%ADD27C,7.00000*%
D21*
X15410001Y20450000D02*
D03*
X15789999D02*
D03*
X18810001Y13700000D02*
D03*
X19189999D02*
D03*
X4400008Y4435000D02*
D03*
Y4815000D02*
D03*
X18810001Y15950000D02*
D03*
X19189999D02*
D03*
X18810001Y18200000D02*
D03*
X19189999D02*
D03*
X18810001Y20450000D02*
D03*
X19189999D02*
D03*
X17110001Y13700000D02*
D03*
X17489999D02*
D03*
X17110001Y15950000D02*
D03*
X17489999D02*
D03*
X17110001Y18200000D02*
D03*
X17489999D02*
D03*
X17110001Y20450000D02*
D03*
X17489999D02*
D03*
X15410001Y13700000D02*
D03*
X15789999D02*
D03*
X15410001Y15950000D02*
D03*
X15789999D02*
D03*
X15410001Y18200000D02*
D03*
X15789999D02*
D03*
X13210001Y13700000D02*
D03*
X13589999D02*
D03*
X11510000D02*
D03*
X11890000D02*
D03*
X9810000D02*
D03*
X10190000D02*
D03*
X8110000D02*
D03*
X8490000D02*
D03*
X13210001Y15950000D02*
D03*
X13589999D02*
D03*
X11510000D02*
D03*
X11890000D02*
D03*
X9810000D02*
D03*
X10190000D02*
D03*
X8110000D02*
D03*
X8490000D02*
D03*
X13210001Y18200000D02*
D03*
X13589999D02*
D03*
X11510000D02*
D03*
X11890000D02*
D03*
X9810000D02*
D03*
X10190000D02*
D03*
X8110000D02*
D03*
X8490000D02*
D03*
X13210001Y20450000D02*
D03*
X13589999D02*
D03*
X11510000D02*
D03*
X11890000D02*
D03*
X9810000D02*
D03*
X10190000D02*
D03*
X8110000D02*
D03*
X8490000D02*
D03*
X13210001Y10250000D02*
D03*
X13589999D02*
D03*
X13210001Y8000000D02*
D03*
X13589999D02*
D03*
X13210001Y5750000D02*
D03*
X13589999D02*
D03*
X13210001Y3500000D02*
D03*
X13589999D02*
D03*
X11510000D02*
D03*
X11890000D02*
D03*
X9810000D02*
D03*
X10190000D02*
D03*
X11510000Y10250000D02*
D03*
X11890000D02*
D03*
X9810000D02*
D03*
X10190000D02*
D03*
X8110000D02*
D03*
X8490000D02*
D03*
X11510000Y8000000D02*
D03*
X11890000D02*
D03*
X9810000D02*
D03*
X10190000D02*
D03*
X8110000D02*
D03*
X8490000D02*
D03*
X11510000Y5750000D02*
D03*
X11890000D02*
D03*
X9810000D02*
D03*
X10190000D02*
D03*
X8110000D02*
D03*
X8490000D02*
D03*
X8110000Y3500000D02*
D03*
X8490000D02*
D03*
X4400000Y3235000D02*
D03*
Y3615000D02*
D03*
Y5635000D02*
D03*
Y6015000D02*
D03*
X5910000Y4625000D02*
D03*
X6290000D02*
D03*
X2510000D02*
D03*
X2890000D02*
D03*
X810000Y10250000D02*
D03*
X1190000D02*
D03*
X5910000Y13700000D02*
D03*
X6290000D02*
D03*
X4210000D02*
D03*
X4590000D02*
D03*
X2510000D02*
D03*
X2890000D02*
D03*
X810000D02*
D03*
X1190000D02*
D03*
X5910000Y15950000D02*
D03*
X6290000D02*
D03*
X4210000D02*
D03*
X4590000D02*
D03*
X2510000D02*
D03*
X2890000D02*
D03*
X810000D02*
D03*
X1190000D02*
D03*
X5910000Y18200000D02*
D03*
X6290000D02*
D03*
X4210000D02*
D03*
X4590000D02*
D03*
X2510000D02*
D03*
X2890000D02*
D03*
X810000D02*
D03*
X1190000D02*
D03*
X5910000Y20450000D02*
D03*
X6290000D02*
D03*
X4210000D02*
D03*
X4590000D02*
D03*
X2510000D02*
D03*
X2890000D02*
D03*
X810000D02*
D03*
X1190000D02*
D03*
D22*
X2827000Y15100000D02*
D03*
X9416000Y1904000D02*
D03*
X9162000Y1650000D02*
D03*
Y1904000D02*
D03*
X8908000Y1650000D02*
D03*
Y1904000D02*
D03*
X8654000Y1650000D02*
D03*
Y1904000D02*
D03*
X8400000Y1650000D02*
D03*
Y1904000D02*
D03*
X8146000Y1650000D02*
D03*
Y1904000D02*
D03*
X7892000Y1650000D02*
D03*
Y1904000D02*
D03*
X7638000Y1650000D02*
D03*
Y1904000D02*
D03*
X550000Y6658000D02*
D03*
Y6404000D02*
D03*
Y6150000D02*
D03*
Y5896000D02*
D03*
Y5642000D02*
D03*
Y5388000D02*
D03*
Y5134000D02*
D03*
X10977000Y11600000D02*
D03*
X4527000D02*
D03*
X1127000D02*
D03*
X18527000Y14700000D02*
D03*
X11827000Y19200000D02*
D03*
X10127000D02*
D03*
X8427000D02*
D03*
X15127000Y21450000D02*
D03*
X11827000D02*
D03*
X10127000D02*
D03*
X8427000D02*
D03*
D23*
X2573000Y15100000D02*
D03*
X9416000Y1650000D02*
D03*
X10723000Y11600000D02*
D03*
X4273000D02*
D03*
X873000D02*
D03*
X18273000Y14700000D02*
D03*
X11573000Y19200000D02*
D03*
X9873000D02*
D03*
X8173000D02*
D03*
X14873000Y21450000D02*
D03*
X11573000D02*
D03*
X9873000D02*
D03*
X8173000D02*
D03*
D24*
X19967999Y17656000D02*
D03*
X19714000D02*
D03*
X19967999Y17402000D02*
D03*
X19714000D02*
D03*
X19967999Y17148000D02*
D03*
X19714000D02*
D03*
X19967999Y16894000D02*
D03*
X19714000D02*
D03*
X19967999Y16639999D02*
D03*
X19714000D02*
D03*
X19967999Y16386000D02*
D03*
X19714000D02*
D03*
X19967999Y16132001D02*
D03*
X19714000D02*
D03*
X19967999Y15878000D02*
D03*
X19714000D02*
D03*
X19967999Y15624001D02*
D03*
X19714000D02*
D03*
X19967999Y15370000D02*
D03*
X19714000D02*
D03*
X19967999Y15116000D02*
D03*
X19714000D02*
D03*
X19967999Y14862000D02*
D03*
X19714000D02*
D03*
X19967999Y14608000D02*
D03*
X19714000D02*
D03*
X19967999Y14353999D02*
D03*
X19714000D02*
D03*
X19967999Y14100000D02*
D03*
X19714000D02*
D03*
X19967999Y13846001D02*
D03*
X19714000D02*
D03*
X19967999Y13592000D02*
D03*
X19714000D02*
D03*
X19967999Y13338000D02*
D03*
X19714000D02*
D03*
X19967999Y13084000D02*
D03*
X19714000D02*
D03*
X19967999Y12830000D02*
D03*
X19714000D02*
D03*
X19967999Y12576000D02*
D03*
X19714000D02*
D03*
X19967999Y12322000D02*
D03*
X19714000D02*
D03*
X19967999Y12068000D02*
D03*
X19714000D02*
D03*
X19967999Y11814000D02*
D03*
X19714000D02*
D03*
X19967999Y11560000D02*
D03*
X19714000D02*
D03*
X14888000Y17656000D02*
D03*
X14634000D02*
D03*
X14888000Y17402000D02*
D03*
X14634000D02*
D03*
X14888000Y17148000D02*
D03*
X14634000D02*
D03*
X14888000Y16894000D02*
D03*
X14634000D02*
D03*
X14888000Y16639999D02*
D03*
X14634000D02*
D03*
X14888000Y16386000D02*
D03*
X14634000D02*
D03*
X14888000Y16132001D02*
D03*
X14634000D02*
D03*
X14888000Y15878000D02*
D03*
X14634000D02*
D03*
X14888000Y15624001D02*
D03*
X14634000D02*
D03*
X14888000Y15370000D02*
D03*
X14634000D02*
D03*
X14888000Y15116000D02*
D03*
X14634000D02*
D03*
X14888000Y14862000D02*
D03*
X14634000D02*
D03*
X14888000Y14608000D02*
D03*
X14634000D02*
D03*
X14888000Y14353999D02*
D03*
X14634000D02*
D03*
X14888000Y14100000D02*
D03*
X14634000D02*
D03*
X14888000Y13846001D02*
D03*
X14634000D02*
D03*
X14888000Y13592000D02*
D03*
X14634000D02*
D03*
X14888000Y13338000D02*
D03*
X14634000D02*
D03*
X14888000Y13084000D02*
D03*
X14634000D02*
D03*
X14888000Y12830000D02*
D03*
X14634000D02*
D03*
X14888000Y12576000D02*
D03*
X14634000D02*
D03*
X14888000Y12322000D02*
D03*
X14634000D02*
D03*
X14888000Y12068000D02*
D03*
X14634000D02*
D03*
X14888000Y11814000D02*
D03*
X14634000D02*
D03*
X14888000Y11560000D02*
D03*
X14634000D02*
D03*
D25*
X550000Y6912000D02*
D03*
D26*
X4800000Y8125000D02*
D03*
X4000000D02*
D03*
X4800000Y10125000D02*
D03*
X4000000D02*
D03*
X4400000Y8100000D02*
D03*
Y10150000D02*
D03*
X5400000Y10375000D02*
D03*
X3400000D02*
D03*
X5400000Y7875000D02*
D03*
X3400000D02*
D03*
D27*
X900000Y22800000D02*
D03*
Y12300000D02*
D03*
Y500000D02*
D03*
X10900000Y22800000D02*
D03*
Y12300000D02*
D03*
Y1500000D02*
D03*
X20900000Y500000D02*
D03*
Y12300000D02*
D03*
Y22800000D02*
D03*
%TF.MD5,8184d2989963817e4a8b8628d2d66f3b*%
M02*
