%TF.GenerationSoftware,Altium Limited,Altium Designer,20.2.5 (213)*%
G04 Layer_Color=8388736*
%FSLAX45Y45*%
%MOMM*%
%TF.SameCoordinates,662F433C-BD6F-4083-8A0F-E7C0AAC1164F*%
%TF.FilePolarity,Negative*%
%TF.FileFunction,Soldermask,Top*%
%TF.Part,Single*%
G01*
G75*
%TA.AperFunction,ComponentPad*%
%ADD33C,2.70320*%
%ADD34C,1.70320*%
%ADD35R,1.70320X1.70320*%
%ADD36C,1.72720*%
%ADD37R,1.70320X1.70320*%
%ADD38C,0.20320*%
%ADD39C,2.20320*%
%TA.AperFunction,ViaPad*%
%ADD40C,7.20320*%
%ADD41C,1.00320*%
%ADD42C,1.70320*%
%TA.AperFunction,SMDPad,CuDef*%
%ADD45R,1.25320X0.85320*%
%ADD46R,0.85320X1.25320*%
%ADD47R,1.15320X1.60320*%
%ADD48R,1.60320X1.15320*%
%ADD49O,1.65320X0.80320*%
D33*
X15410001Y20450000D02*
D03*
X15789999D02*
D03*
X18810001Y13700000D02*
D03*
X19189999D02*
D03*
X4400008Y4435000D02*
D03*
Y4815000D02*
D03*
X18810001Y15950000D02*
D03*
X19189999D02*
D03*
X18810001Y18200000D02*
D03*
X19189999D02*
D03*
X18810001Y20450000D02*
D03*
X19189999D02*
D03*
X17110001Y13700000D02*
D03*
X17489999D02*
D03*
X17110001Y15950000D02*
D03*
X17489999D02*
D03*
X17110001Y18200000D02*
D03*
X17489999D02*
D03*
X17110001Y20450000D02*
D03*
X17489999D02*
D03*
X15410001Y13700000D02*
D03*
X15789999D02*
D03*
X15410001Y15950000D02*
D03*
X15789999D02*
D03*
X15410001Y18200000D02*
D03*
X15789999D02*
D03*
X13210001Y13700000D02*
D03*
X13589999D02*
D03*
X11510000D02*
D03*
X11890000D02*
D03*
X9810000D02*
D03*
X10190000D02*
D03*
X8110000D02*
D03*
X8490000D02*
D03*
X13210001Y15950000D02*
D03*
X13589999D02*
D03*
X11510000D02*
D03*
X11890000D02*
D03*
X9810000D02*
D03*
X10190000D02*
D03*
X8110000D02*
D03*
X8490000D02*
D03*
X13210001Y18200000D02*
D03*
X13589999D02*
D03*
X11510000D02*
D03*
X11890000D02*
D03*
X9810000D02*
D03*
X10190000D02*
D03*
X8110000D02*
D03*
X8490000D02*
D03*
X13210001Y20450000D02*
D03*
X13589999D02*
D03*
X11510000D02*
D03*
X11890000D02*
D03*
X9810000D02*
D03*
X10190000D02*
D03*
X8110000D02*
D03*
X8490000D02*
D03*
X13210001Y10250000D02*
D03*
X13589999D02*
D03*
X13210001Y8000000D02*
D03*
X13589999D02*
D03*
X13210001Y5750000D02*
D03*
X13589999D02*
D03*
X13210001Y3500000D02*
D03*
X13589999D02*
D03*
X11510000D02*
D03*
X11890000D02*
D03*
X9810000D02*
D03*
X10190000D02*
D03*
X11510000Y10250000D02*
D03*
X11890000D02*
D03*
X9810000D02*
D03*
X10190000D02*
D03*
X8110000D02*
D03*
X8490000D02*
D03*
X11510000Y8000000D02*
D03*
X11890000D02*
D03*
X9810000D02*
D03*
X10190000D02*
D03*
X8110000D02*
D03*
X8490000D02*
D03*
X11510000Y5750000D02*
D03*
X11890000D02*
D03*
X9810000D02*
D03*
X10190000D02*
D03*
X8110000D02*
D03*
X8490000D02*
D03*
X8110000Y3500000D02*
D03*
X8490000D02*
D03*
X4400000Y3235000D02*
D03*
Y3615000D02*
D03*
Y5635000D02*
D03*
Y6015000D02*
D03*
X5910000Y4625000D02*
D03*
X6290000D02*
D03*
X2510000D02*
D03*
X2890000D02*
D03*
X810000Y10250000D02*
D03*
X1190000D02*
D03*
X5910000Y13700000D02*
D03*
X6290000D02*
D03*
X4210000D02*
D03*
X4590000D02*
D03*
X2510000D02*
D03*
X2890000D02*
D03*
X810000D02*
D03*
X1190000D02*
D03*
X5910000Y15950000D02*
D03*
X6290000D02*
D03*
X4210000D02*
D03*
X4590000D02*
D03*
X2510000D02*
D03*
X2890000D02*
D03*
X810000D02*
D03*
X1190000D02*
D03*
X5910000Y18200000D02*
D03*
X6290000D02*
D03*
X4210000D02*
D03*
X4590000D02*
D03*
X2510000D02*
D03*
X2890000D02*
D03*
X810000D02*
D03*
X1190000D02*
D03*
X5910000Y20450000D02*
D03*
X6290000D02*
D03*
X4210000D02*
D03*
X4590000D02*
D03*
X2510000D02*
D03*
X2890000D02*
D03*
X810000D02*
D03*
X1190000D02*
D03*
D34*
X2827000Y15100000D02*
D03*
X9416000Y1904000D02*
D03*
X9162000Y1650000D02*
D03*
Y1904000D02*
D03*
X8908000Y1650000D02*
D03*
Y1904000D02*
D03*
X8654000Y1650000D02*
D03*
Y1904000D02*
D03*
X8400000Y1650000D02*
D03*
Y1904000D02*
D03*
X8146000Y1650000D02*
D03*
Y1904000D02*
D03*
X7892000Y1650000D02*
D03*
Y1904000D02*
D03*
X7638000Y1650000D02*
D03*
Y1904000D02*
D03*
X550000Y6658000D02*
D03*
Y6404000D02*
D03*
Y6150000D02*
D03*
Y5896000D02*
D03*
Y5642000D02*
D03*
Y5388000D02*
D03*
Y5134000D02*
D03*
X10977000Y11600000D02*
D03*
X4527000D02*
D03*
X1127000D02*
D03*
X18527000Y14700000D02*
D03*
X11827000Y19200000D02*
D03*
X10127000D02*
D03*
X8427000D02*
D03*
X15127000Y21450000D02*
D03*
X11827000D02*
D03*
X10127000D02*
D03*
X8427000D02*
D03*
D35*
X2573000Y15100000D02*
D03*
X9416000Y1650000D02*
D03*
X10723000Y11600000D02*
D03*
X4273000D02*
D03*
X873000D02*
D03*
X18273000Y14700000D02*
D03*
X11573000Y19200000D02*
D03*
X9873000D02*
D03*
X8173000D02*
D03*
X14873000Y21450000D02*
D03*
X11573000D02*
D03*
X9873000D02*
D03*
X8173000D02*
D03*
D36*
X19967999Y17656000D02*
D03*
X19714000D02*
D03*
X19967999Y17402000D02*
D03*
X19714000D02*
D03*
X19967999Y17148000D02*
D03*
X19714000D02*
D03*
X19967999Y16894000D02*
D03*
X19714000D02*
D03*
X19967999Y16639999D02*
D03*
X19714000D02*
D03*
X19967999Y16386000D02*
D03*
X19714000D02*
D03*
X19967999Y16132001D02*
D03*
X19714000D02*
D03*
X19967999Y15878000D02*
D03*
X19714000D02*
D03*
X19967999Y15624001D02*
D03*
X19714000D02*
D03*
X19967999Y15370000D02*
D03*
X19714000D02*
D03*
X19967999Y15116000D02*
D03*
X19714000D02*
D03*
X19967999Y14862000D02*
D03*
X19714000D02*
D03*
X19967999Y14608000D02*
D03*
X19714000D02*
D03*
X19967999Y14353999D02*
D03*
X19714000D02*
D03*
X19967999Y14100000D02*
D03*
X19714000D02*
D03*
X19967999Y13846001D02*
D03*
X19714000D02*
D03*
X19967999Y13592000D02*
D03*
X19714000D02*
D03*
X19967999Y13338000D02*
D03*
X19714000D02*
D03*
X19967999Y13084000D02*
D03*
X19714000D02*
D03*
X19967999Y12830000D02*
D03*
X19714000D02*
D03*
X19967999Y12576000D02*
D03*
X19714000D02*
D03*
X19967999Y12322000D02*
D03*
X19714000D02*
D03*
X19967999Y12068000D02*
D03*
X19714000D02*
D03*
X19967999Y11814000D02*
D03*
X19714000D02*
D03*
X19967999Y11560000D02*
D03*
X19714000D02*
D03*
X14888000Y17656000D02*
D03*
X14634000D02*
D03*
X14888000Y17402000D02*
D03*
X14634000D02*
D03*
X14888000Y17148000D02*
D03*
X14634000D02*
D03*
X14888000Y16894000D02*
D03*
X14634000D02*
D03*
X14888000Y16639999D02*
D03*
X14634000D02*
D03*
X14888000Y16386000D02*
D03*
X14634000D02*
D03*
X14888000Y16132001D02*
D03*
X14634000D02*
D03*
X14888000Y15878000D02*
D03*
X14634000D02*
D03*
X14888000Y15624001D02*
D03*
X14634000D02*
D03*
X14888000Y15370000D02*
D03*
X14634000D02*
D03*
X14888000Y15116000D02*
D03*
X14634000D02*
D03*
X14888000Y14862000D02*
D03*
X14634000D02*
D03*
X14888000Y14608000D02*
D03*
X14634000D02*
D03*
X14888000Y14353999D02*
D03*
X14634000D02*
D03*
X14888000Y14100000D02*
D03*
X14634000D02*
D03*
X14888000Y13846001D02*
D03*
X14634000D02*
D03*
X14888000Y13592000D02*
D03*
X14634000D02*
D03*
X14888000Y13338000D02*
D03*
X14634000D02*
D03*
X14888000Y13084000D02*
D03*
X14634000D02*
D03*
X14888000Y12830000D02*
D03*
X14634000D02*
D03*
X14888000Y12576000D02*
D03*
X14634000D02*
D03*
X14888000Y12322000D02*
D03*
X14634000D02*
D03*
X14888000Y12068000D02*
D03*
X14634000D02*
D03*
X14888000Y11814000D02*
D03*
X14634000D02*
D03*
X14888000Y11560000D02*
D03*
X14634000D02*
D03*
D37*
X550000Y6912000D02*
D03*
D38*
X4400000Y9125000D02*
D03*
D39*
X4800000Y8125000D02*
D03*
X4000000D02*
D03*
X4800000Y10125000D02*
D03*
X4000000D02*
D03*
X4400000Y8100000D02*
D03*
Y10150000D02*
D03*
X5400000Y10375000D02*
D03*
X3400000D02*
D03*
X5400000Y7875000D02*
D03*
X3400000D02*
D03*
D40*
X900000Y22800000D02*
D03*
Y12300000D02*
D03*
Y500000D02*
D03*
X10900000Y22800000D02*
D03*
Y12300000D02*
D03*
Y1500000D02*
D03*
X20900000Y500000D02*
D03*
Y12300000D02*
D03*
Y22800000D02*
D03*
D41*
X19450000Y15050000D02*
D03*
X16500000Y21400000D02*
D03*
X16600000Y17150000D02*
D03*
X7000000Y13350000D02*
D03*
X15600000Y13200000D02*
D03*
X12900000Y21800000D02*
D03*
X7950000Y21550000D02*
D03*
X7449985Y19599960D02*
D03*
X7450000Y19450000D02*
D03*
Y19300000D02*
D03*
X14400000Y12250000D02*
D03*
X14300000Y12100000D02*
D03*
X14450000Y10100000D02*
D03*
X14350000Y10400000D02*
D03*
X6850000Y8050000D02*
D03*
X20700000Y11700000D02*
D03*
X7750000Y7850000D02*
D03*
X7900000Y12000000D02*
D03*
X20450000Y14550000D02*
D03*
X9000000Y6700000D02*
D03*
X9550000Y11550000D02*
D03*
X8100000Y9000000D02*
D03*
X8300000Y11200000D02*
D03*
X7450000Y13700000D02*
D03*
X7750000Y20350000D02*
D03*
X7800000Y14550000D02*
D03*
X20250000Y14500000D02*
D03*
X20950000Y11600000D02*
D03*
X20700000Y11400000D02*
D03*
X6800000Y18000000D02*
D03*
Y15500000D02*
D03*
Y12000000D02*
D03*
X5300000Y1500000D02*
D03*
X6850000Y20050000D02*
D03*
X7195250Y15895250D02*
D03*
X7500000Y15200000D02*
D03*
X7250000D02*
D03*
X7000000Y18800000D02*
D03*
X7190128Y18105206D02*
D03*
X7200000Y18300000D02*
D03*
X7597289Y15902711D02*
D03*
X7600000Y18400000D02*
D03*
Y12400000D02*
D03*
X6200000Y2100000D02*
D03*
X7600000Y20900000D02*
D03*
X6500000Y2300000D02*
D03*
X7500000Y11800000D02*
D03*
X7120000Y21075497D02*
D03*
X7200000Y21000000D02*
D03*
X7300000Y20900000D02*
D03*
D42*
X7350000Y13100000D02*
D03*
D45*
X435000Y7895000D02*
D03*
Y7705000D02*
D03*
X665000Y7800000D02*
D03*
X13914999Y4405000D02*
D03*
Y4595000D02*
D03*
X13685001Y4500000D02*
D03*
X12200000Y4410000D02*
D03*
Y4600000D02*
D03*
X11970000Y4505000D02*
D03*
X10500000Y4410000D02*
D03*
Y4600000D02*
D03*
X10270000Y4505000D02*
D03*
X8815000Y4405000D02*
D03*
Y4595000D02*
D03*
X8585000Y4500000D02*
D03*
X5285000Y3095000D02*
D03*
Y2905000D02*
D03*
X5515000Y3000000D02*
D03*
X13914999Y6605000D02*
D03*
Y6795000D02*
D03*
X13685001Y6700000D02*
D03*
X12200000Y6610000D02*
D03*
Y6800000D02*
D03*
X11970000Y6705000D02*
D03*
X10515000Y6605000D02*
D03*
Y6795000D02*
D03*
X10285000Y6700000D02*
D03*
X8815000Y6605000D02*
D03*
Y6795000D02*
D03*
X8585000Y6700000D02*
D03*
X6615000Y5505000D02*
D03*
Y5695000D02*
D03*
X6385000Y5600000D02*
D03*
X5515000Y5505000D02*
D03*
Y5695000D02*
D03*
X5285000Y5600000D02*
D03*
X3200000Y5510000D02*
D03*
Y5700000D02*
D03*
X2970000Y5605000D02*
D03*
X13914999Y8905000D02*
D03*
Y9095000D02*
D03*
X13685001Y9000000D02*
D03*
X12200000Y8910000D02*
D03*
Y9100000D02*
D03*
X11970000Y9005000D02*
D03*
X10500000Y8900000D02*
D03*
Y9090000D02*
D03*
X10270000Y8995000D02*
D03*
X8815000Y8905000D02*
D03*
Y9095000D02*
D03*
X8585000Y9000000D02*
D03*
X5015000Y6605000D02*
D03*
Y6795000D02*
D03*
X4785000Y6700000D02*
D03*
X13914999Y11105000D02*
D03*
Y11295000D02*
D03*
X13685001Y11200000D02*
D03*
X12215000Y11105000D02*
D03*
Y11295000D02*
D03*
X11985000Y11200000D02*
D03*
X10215000Y11105000D02*
D03*
Y11295000D02*
D03*
X9985000Y11200000D02*
D03*
X8815000Y11105000D02*
D03*
Y11295000D02*
D03*
X8585000Y11200000D02*
D03*
X1615000Y11105000D02*
D03*
Y11295000D02*
D03*
X1385000Y11200000D02*
D03*
X19514999Y14605000D02*
D03*
Y14795000D02*
D03*
X19285001Y14700000D02*
D03*
X17814999Y14605000D02*
D03*
Y14795000D02*
D03*
X17585001Y14700000D02*
D03*
X16114999Y14605000D02*
D03*
Y14795000D02*
D03*
X15885001Y14700000D02*
D03*
X13914999Y14605000D02*
D03*
Y14795000D02*
D03*
X13685001Y14700000D02*
D03*
X12200000Y14610001D02*
D03*
Y14800000D02*
D03*
X11970000Y14705000D02*
D03*
X10615000Y14605000D02*
D03*
Y14795000D02*
D03*
X10385000Y14700000D02*
D03*
X8815000Y14605000D02*
D03*
Y14795000D02*
D03*
X8585000Y14700000D02*
D03*
X6615000Y14605000D02*
D03*
Y14795000D02*
D03*
X6385000Y14700000D02*
D03*
X4900000Y14610001D02*
D03*
Y14800000D02*
D03*
X4670000Y14705000D02*
D03*
X3315000Y14605000D02*
D03*
Y14795000D02*
D03*
X3085000Y14700000D02*
D03*
X1515000Y14605000D02*
D03*
Y14795000D02*
D03*
X1285000Y14700000D02*
D03*
X19514999Y16805000D02*
D03*
Y16995000D02*
D03*
X19285001Y16900000D02*
D03*
X17814999Y16805000D02*
D03*
Y16995000D02*
D03*
X17585001Y16900000D02*
D03*
X16114999Y16805000D02*
D03*
Y16995000D02*
D03*
X15885001Y16900000D02*
D03*
X13914999Y16805000D02*
D03*
Y16995000D02*
D03*
X13685001Y16900000D02*
D03*
X12215000Y16805000D02*
D03*
Y16995000D02*
D03*
X11985000Y16900000D02*
D03*
X10500000Y16810001D02*
D03*
Y17000000D02*
D03*
X10270000Y16905000D02*
D03*
X8815000Y16805000D02*
D03*
Y16995000D02*
D03*
X8585000Y16900000D02*
D03*
X6315000Y16805000D02*
D03*
Y16995000D02*
D03*
X6085000Y16900000D02*
D03*
X4615000Y16805000D02*
D03*
Y16995000D02*
D03*
X4385000Y16900000D02*
D03*
X2915000Y16805000D02*
D03*
Y16995000D02*
D03*
X2685000Y16900000D02*
D03*
X1215000Y16805000D02*
D03*
Y16995000D02*
D03*
X985000Y16900000D02*
D03*
X19214999Y19105000D02*
D03*
Y19295000D02*
D03*
X18985001Y19200000D02*
D03*
X17630000Y19105000D02*
D03*
Y19295000D02*
D03*
X17400000Y19200000D02*
D03*
X15814999Y19105000D02*
D03*
Y19295000D02*
D03*
X15585001Y19200000D02*
D03*
X13614999Y19105000D02*
D03*
Y19295000D02*
D03*
X13385001Y19200000D02*
D03*
X12330000Y19105000D02*
D03*
Y19295000D02*
D03*
X12100000Y19200000D02*
D03*
X10630000Y19105000D02*
D03*
Y19295000D02*
D03*
X10400000Y19200000D02*
D03*
X9015000Y19105000D02*
D03*
Y19295000D02*
D03*
X8785000Y19200000D02*
D03*
X6215000Y19105000D02*
D03*
Y19295000D02*
D03*
X5985000Y19200000D02*
D03*
X4515000Y19105000D02*
D03*
Y19295000D02*
D03*
X4285000Y19200000D02*
D03*
X2930000Y19105000D02*
D03*
Y19295000D02*
D03*
X2700000Y19200000D02*
D03*
X1115000Y19105000D02*
D03*
Y19295000D02*
D03*
X885000Y19200000D02*
D03*
X19214999Y21305000D02*
D03*
Y21495000D02*
D03*
X18985001Y21400000D02*
D03*
X17514999Y21305000D02*
D03*
Y21495000D02*
D03*
X17285001Y21400000D02*
D03*
X16214999Y21305000D02*
D03*
Y21495000D02*
D03*
X15985001Y21400000D02*
D03*
X13530000Y21305000D02*
D03*
Y21495000D02*
D03*
X13300000Y21400000D02*
D03*
X12315000Y21305000D02*
D03*
Y21495000D02*
D03*
X12085000Y21400000D02*
D03*
X10615000Y21305000D02*
D03*
Y21495000D02*
D03*
X10385000Y21400000D02*
D03*
X8915000Y21305000D02*
D03*
Y21495000D02*
D03*
X8685000Y21400000D02*
D03*
X6230000Y21305000D02*
D03*
Y21495000D02*
D03*
X6000000Y21400000D02*
D03*
X4630000Y21305000D02*
D03*
Y21495000D02*
D03*
X4400000Y21400000D02*
D03*
X2915000Y21305000D02*
D03*
Y21495000D02*
D03*
X2685000Y21400000D02*
D03*
X1115000Y21305000D02*
D03*
Y21495000D02*
D03*
X885000Y21400000D02*
D03*
D46*
X1455000Y6335000D02*
D03*
X1645000D02*
D03*
X1550000Y6565000D02*
D03*
D47*
X3650000Y10800000D02*
D03*
X3850000D02*
D03*
D48*
X5950000Y9650000D02*
D03*
Y9850000D02*
D03*
Y8200000D02*
D03*
Y8000000D02*
D03*
X6500000Y1900000D02*
D03*
Y1700000D02*
D03*
X7400000Y14800000D02*
D03*
Y14600000D02*
D03*
Y17000000D02*
D03*
Y16800000D02*
D03*
X7200000Y19300000D02*
D03*
Y19100000D02*
D03*
X7600000Y21500000D02*
D03*
Y21300000D02*
D03*
X8200000Y12600000D02*
D03*
Y12800000D02*
D03*
D49*
X6172500Y1509500D02*
D03*
Y1636500D02*
D03*
Y1763500D02*
D03*
Y1890500D02*
D03*
X5627500Y1509500D02*
D03*
Y1636500D02*
D03*
Y1763500D02*
D03*
Y1890500D02*
D03*
X7472500Y12009500D02*
D03*
Y12136500D02*
D03*
Y12263500D02*
D03*
Y12390500D02*
D03*
X6927500Y12009500D02*
D03*
Y12136500D02*
D03*
Y12263500D02*
D03*
Y12390500D02*
D03*
X7472500Y15509500D02*
D03*
Y15636501D02*
D03*
Y15763499D02*
D03*
Y15890500D02*
D03*
X6927500Y15509500D02*
D03*
Y15636501D02*
D03*
Y15763499D02*
D03*
Y15890500D02*
D03*
X7472500Y18009500D02*
D03*
Y18136501D02*
D03*
Y18263499D02*
D03*
Y18390500D02*
D03*
X6927500Y18009500D02*
D03*
Y18136501D02*
D03*
Y18263499D02*
D03*
Y18390500D02*
D03*
X7472500Y20209500D02*
D03*
Y20336501D02*
D03*
Y20463499D02*
D03*
Y20590500D02*
D03*
X6927500Y20209500D02*
D03*
Y20336501D02*
D03*
Y20463499D02*
D03*
Y20590500D02*
D03*
%TF.MD5,84b1a0afb737a798383083ef0da7368e*%
M02*
