%TF.GenerationSoftware,Altium Limited,Altium Designer,20.2.5 (213)*%
G04 Layer_Color=8388736*
%FSLAX45Y45*%
%MOMM*%
%TF.SameCoordinates,662F433C-BD6F-4083-8A0F-E7C0AAC1164F*%
%TF.FilePolarity,Positive*%
%TF.FileFunction,Other,Mechanical_14*%
%TF.Part,Single*%
G01*
G75*
%TA.AperFunction,NonConductor*%
%ADD50C,0.10000*%
D50*
X2860000Y15100000D02*
G03*
X2860000Y15100000I-160000J0D01*
G01*
X2870000D02*
G03*
X2870000Y15100000I-170000J0D01*
G01*
X11010000Y11600000D02*
G03*
X11010000Y11600000I-160000J0D01*
G01*
X11020000D02*
G03*
X11020000Y11600000I-170000J0D01*
G01*
X4560000D02*
G03*
X4560000Y11600000I-160000J0D01*
G01*
X4570000D02*
G03*
X4570000Y11600000I-170000J0D01*
G01*
X1160000D02*
G03*
X1160000Y11600000I-160000J0D01*
G01*
X1170000D02*
G03*
X1170000Y11600000I-170000J0D01*
G01*
X18560001Y14700000D02*
G03*
X18560001Y14700000I-160000J0D01*
G01*
X18570000D02*
G03*
X18570000Y14700000I-170000J0D01*
G01*
X11860000Y19200000D02*
G03*
X11860000Y19200000I-160000J0D01*
G01*
X11870000D02*
G03*
X11870000Y19200000I-170000J0D01*
G01*
X10160000D02*
G03*
X10160000Y19200000I-160000J0D01*
G01*
X10170000D02*
G03*
X10170000Y19200000I-170000J0D01*
G01*
X8460000D02*
G03*
X8460000Y19200000I-160000J0D01*
G01*
X8470000D02*
G03*
X8470000Y19200000I-170000J0D01*
G01*
X15160001Y21450000D02*
G03*
X15160001Y21450000I-160000J0D01*
G01*
X15170000D02*
G03*
X15170000Y21450000I-170000J0D01*
G01*
X11860000D02*
G03*
X11860000Y21450000I-160000J0D01*
G01*
X11870000D02*
G03*
X11870000Y21450000I-170000J0D01*
G01*
X10160000D02*
G03*
X10160000Y21450000I-160000J0D01*
G01*
X10170000D02*
G03*
X10170000Y21450000I-170000J0D01*
G01*
X8460000D02*
G03*
X8460000Y21450000I-160000J0D01*
G01*
X8470000D02*
G03*
X8470000Y21450000I-170000J0D01*
G01*
X2730000Y15039999D02*
Y15160001D01*
X2670000Y15100000D02*
X2730000Y15160001D01*
X2670000Y15100000D02*
X2730000Y15039999D01*
X2670000D02*
Y15160001D01*
X485000Y7655000D02*
Y7945000D01*
X615000D01*
Y7655000D02*
Y7945000D01*
X485000Y7655000D02*
X615000D01*
X485000Y7845000D02*
X585000Y7945000D01*
X485000Y7855000D02*
X575000Y7945000D01*
X485000Y7865000D02*
X565000Y7945000D01*
X485000Y7875000D02*
X555000Y7945000D01*
X485000Y7885000D02*
X545000Y7945000D01*
X485000Y7895000D02*
X535000Y7945000D01*
X485000Y7905000D02*
X525000Y7945000D01*
X485000Y7915000D02*
X515000Y7945000D01*
X485000Y7925000D02*
X505000Y7945000D01*
X485000Y7935000D02*
X495000Y7945000D01*
X1405000Y6385000D02*
X1695000D01*
X1405000D02*
Y6515000D01*
X1695000D01*
Y6385000D02*
Y6515000D01*
X1405000Y6485000D02*
X1505000Y6385000D01*
X1405000Y6475000D02*
X1495000Y6385000D01*
X1405000Y6465000D02*
X1485000Y6385000D01*
X1405000Y6455000D02*
X1475000Y6385000D01*
X1405000Y6445000D02*
X1465000Y6385000D01*
X1405000Y6435000D02*
X1455000Y6385000D01*
X1405000Y6425000D02*
X1445000Y6385000D01*
X1405000Y6415000D02*
X1435000Y6385000D01*
X1405000Y6405000D02*
X1425000Y6385000D01*
X1405000Y6395000D02*
X1415000Y6385000D01*
X3860000Y10732500D02*
Y10867500D01*
X3640000Y10732500D02*
Y10867500D01*
X3639994Y10732493D02*
X3859994D01*
X3639994Y10867493D02*
X3859994D01*
X5882500Y9860000D02*
X6017500D01*
X5882500Y9640000D02*
X6017500D01*
X6017507Y9639994D02*
Y9859994D01*
X5882507Y9639994D02*
Y9859994D01*
X5882500Y7990000D02*
X6017500D01*
X5882500Y8210000D02*
X6017500D01*
X5882493Y7990006D02*
Y8210006D01*
X6017493Y7990006D02*
Y8210006D01*
X6432500Y1690000D02*
X6567500D01*
X6432500Y1910000D02*
X6567500D01*
X6432493Y1690006D02*
Y1910006D01*
X6567493Y1690006D02*
Y1910006D01*
X7332500Y14589999D02*
X7467500D01*
X7332500Y14810001D02*
X7467500D01*
X7332493Y14590005D02*
Y14810007D01*
X7467493Y14590005D02*
Y14810007D01*
X7332500Y16789999D02*
X7467500D01*
X7332500Y17010001D02*
X7467500D01*
X7332493Y16790005D02*
Y17010007D01*
X7467493Y16790005D02*
Y17010007D01*
X7132500Y19089999D02*
X7267500D01*
X7132500Y19310001D02*
X7267500D01*
X7132493Y19090005D02*
Y19310007D01*
X7267493Y19090005D02*
Y19310007D01*
X7532500Y21289999D02*
X7667500D01*
X7532500Y21510001D02*
X7667500D01*
X7532493Y21290005D02*
Y21510007D01*
X7667493Y21290005D02*
Y21510007D01*
X8132500Y12810001D02*
X8267500D01*
X8132500Y12590000D02*
X8267500D01*
X8267507Y12589994D02*
Y12809995D01*
X8132507Y12589994D02*
Y12809995D01*
X10880000Y11540000D02*
Y11660000D01*
X10820000Y11600000D02*
X10880000Y11660000D01*
X10820000Y11600000D02*
X10880000Y11540000D01*
X10820000D02*
Y11660000D01*
X4430000Y11540000D02*
Y11660000D01*
X4370000Y11600000D02*
X4430000Y11660000D01*
X4370000Y11600000D02*
X4430000Y11540000D01*
X4370000D02*
Y11660000D01*
X1030000Y11540000D02*
Y11660000D01*
X970000Y11600000D02*
X1030000Y11660000D01*
X970000Y11600000D02*
X1030000Y11540000D01*
X970000D02*
Y11660000D01*
X18430000Y14639999D02*
Y14760001D01*
X18370000Y14700000D02*
X18430000Y14760001D01*
X18370000Y14700000D02*
X18430000Y14639999D01*
X18370000D02*
Y14760001D01*
X11730000Y19139999D02*
Y19260001D01*
X11670000Y19200000D02*
X11730000Y19260001D01*
X11670000Y19200000D02*
X11730000Y19139999D01*
X11670000D02*
Y19260001D01*
X10030000Y19139999D02*
Y19260001D01*
X9970000Y19200000D02*
X10030000Y19260001D01*
X9970000Y19200000D02*
X10030000Y19139999D01*
X9970000D02*
Y19260001D01*
X8330000Y19139999D02*
Y19260001D01*
X8270000Y19200000D02*
X8330000Y19260001D01*
X8270000Y19200000D02*
X8330000Y19139999D01*
X8270000D02*
Y19260001D01*
X15030000Y21389999D02*
Y21510001D01*
X14970000Y21450000D02*
X15030000Y21510001D01*
X14970000Y21450000D02*
X15030000Y21389999D01*
X14970000D02*
Y21510001D01*
X11730000Y21389999D02*
Y21510001D01*
X11670000Y21450000D02*
X11730000Y21510001D01*
X11670000Y21450000D02*
X11730000Y21389999D01*
X11670000D02*
Y21510001D01*
X10030000Y21389999D02*
Y21510001D01*
X9970000Y21450000D02*
X10030000Y21510001D01*
X9970000Y21450000D02*
X10030000Y21389999D01*
X9970000D02*
Y21510001D01*
X8330000Y21389999D02*
Y21510001D01*
X8270000Y21450000D02*
X8330000Y21510001D01*
X8270000Y21450000D02*
X8330000Y21389999D01*
X8270000D02*
Y21510001D01*
X13864999Y4355000D02*
Y4645000D01*
X13735001Y4355000D02*
X13864999D01*
X13735001D02*
Y4645000D01*
X13864999D01*
X13764999Y4355000D02*
X13864999Y4455000D01*
X13775000Y4355000D02*
X13864999Y4445000D01*
X13785001Y4355000D02*
X13864999Y4435000D01*
X13795000Y4355000D02*
X13864999Y4425000D01*
X13805000Y4355000D02*
X13864999Y4415000D01*
X13814999Y4355000D02*
X13864999Y4405000D01*
X13825000Y4355000D02*
X13864999Y4395000D01*
X13835001Y4355000D02*
X13864999Y4385000D01*
X13845000Y4355000D02*
X13864999Y4375000D01*
X13855000Y4355000D02*
X13864999Y4365000D01*
X12150000Y4360000D02*
Y4650000D01*
X12020000Y4360000D02*
X12150000D01*
X12020000D02*
Y4650000D01*
X12150000D01*
X12050000Y4360000D02*
X12150000Y4460000D01*
X12060000Y4360000D02*
X12150000Y4450000D01*
X12070000Y4360000D02*
X12150000Y4440000D01*
X12080000Y4360000D02*
X12150000Y4430000D01*
X12090000Y4360000D02*
X12150000Y4420000D01*
X12100000Y4360000D02*
X12150000Y4410000D01*
X12110000Y4360000D02*
X12150000Y4400000D01*
X12120000Y4360000D02*
X12150000Y4390000D01*
X12130000Y4360000D02*
X12150000Y4380000D01*
X12140000Y4360000D02*
X12150000Y4370000D01*
X10450000Y4360000D02*
Y4650000D01*
X10320000Y4360000D02*
X10450000D01*
X10320000D02*
Y4650000D01*
X10450000D01*
X10350000Y4360000D02*
X10450000Y4460000D01*
X10360000Y4360000D02*
X10450000Y4450000D01*
X10370000Y4360000D02*
X10450000Y4440000D01*
X10380000Y4360000D02*
X10450000Y4430000D01*
X10390000Y4360000D02*
X10450000Y4420000D01*
X10400000Y4360000D02*
X10450000Y4410000D01*
X10410000Y4360000D02*
X10450000Y4400000D01*
X10420000Y4360000D02*
X10450000Y4390000D01*
X10430000Y4360000D02*
X10450000Y4380000D01*
X10440000Y4360000D02*
X10450000Y4370000D01*
X8765000Y4355000D02*
Y4645000D01*
X8635000Y4355000D02*
X8765000D01*
X8635000D02*
Y4645000D01*
X8765000D01*
X8665000Y4355000D02*
X8765000Y4455000D01*
X8675000Y4355000D02*
X8765000Y4445000D01*
X8685000Y4355000D02*
X8765000Y4435000D01*
X8695000Y4355000D02*
X8765000Y4425000D01*
X8705000Y4355000D02*
X8765000Y4415000D01*
X8715000Y4355000D02*
X8765000Y4405000D01*
X8725000Y4355000D02*
X8765000Y4395000D01*
X8735000Y4355000D02*
X8765000Y4385000D01*
X8745000Y4355000D02*
X8765000Y4375000D01*
X8755000Y4355000D02*
X8765000Y4365000D01*
X5335000Y2855000D02*
Y3145000D01*
X5465000D01*
Y2855000D02*
Y3145000D01*
X5335000Y2855000D02*
X5465000D01*
X5335000Y3045000D02*
X5435000Y3145000D01*
X5335000Y3055000D02*
X5425000Y3145000D01*
X5335000Y3065000D02*
X5415000Y3145000D01*
X5335000Y3075000D02*
X5405000Y3145000D01*
X5335000Y3085000D02*
X5395000Y3145000D01*
X5335000Y3095000D02*
X5385000Y3145000D01*
X5335000Y3105000D02*
X5375000Y3145000D01*
X5335000Y3115000D02*
X5365000Y3145000D01*
X5335000Y3125000D02*
X5355000Y3145000D01*
X5335000Y3135000D02*
X5345000Y3145000D01*
X13864999Y6555000D02*
Y6845000D01*
X13735001Y6555000D02*
X13864999D01*
X13735001D02*
Y6845000D01*
X13864999D01*
X13764999Y6555000D02*
X13864999Y6655000D01*
X13775000Y6555000D02*
X13864999Y6645000D01*
X13785001Y6555000D02*
X13864999Y6635000D01*
X13795000Y6555000D02*
X13864999Y6625000D01*
X13805000Y6555000D02*
X13864999Y6615000D01*
X13814999Y6555000D02*
X13864999Y6605000D01*
X13825000Y6555000D02*
X13864999Y6595000D01*
X13835001Y6555000D02*
X13864999Y6585000D01*
X13845000Y6555000D02*
X13864999Y6575000D01*
X13855000Y6555000D02*
X13864999Y6565000D01*
X12150000Y6560000D02*
Y6850000D01*
X12020000Y6560000D02*
X12150000D01*
X12020000D02*
Y6850000D01*
X12150000D01*
X12050000Y6560000D02*
X12150000Y6660000D01*
X12060000Y6560000D02*
X12150000Y6650000D01*
X12070000Y6560000D02*
X12150000Y6640000D01*
X12080000Y6560000D02*
X12150000Y6630000D01*
X12090000Y6560000D02*
X12150000Y6620000D01*
X12100000Y6560000D02*
X12150000Y6610000D01*
X12110000Y6560000D02*
X12150000Y6600000D01*
X12120000Y6560000D02*
X12150000Y6590000D01*
X12130000Y6560000D02*
X12150000Y6580000D01*
X12140000Y6560000D02*
X12150000Y6570000D01*
X10465000Y6555000D02*
Y6845000D01*
X10335000Y6555000D02*
X10465000D01*
X10335000D02*
Y6845000D01*
X10465000D01*
X10365000Y6555000D02*
X10465000Y6655000D01*
X10375000Y6555000D02*
X10465000Y6645000D01*
X10385000Y6555000D02*
X10465000Y6635000D01*
X10395000Y6555000D02*
X10465000Y6625000D01*
X10405000Y6555000D02*
X10465000Y6615000D01*
X10415000Y6555000D02*
X10465000Y6605000D01*
X10425000Y6555000D02*
X10465000Y6595000D01*
X10435000Y6555000D02*
X10465000Y6585000D01*
X10445000Y6555000D02*
X10465000Y6575000D01*
X10455000Y6555000D02*
X10465000Y6565000D01*
X8765000Y6555000D02*
Y6845000D01*
X8635000Y6555000D02*
X8765000D01*
X8635000D02*
Y6845000D01*
X8765000D01*
X8665000Y6555000D02*
X8765000Y6655000D01*
X8675000Y6555000D02*
X8765000Y6645000D01*
X8685000Y6555000D02*
X8765000Y6635000D01*
X8695000Y6555000D02*
X8765000Y6625000D01*
X8705000Y6555000D02*
X8765000Y6615000D01*
X8715000Y6555000D02*
X8765000Y6605000D01*
X8725000Y6555000D02*
X8765000Y6595000D01*
X8735000Y6555000D02*
X8765000Y6585000D01*
X8745000Y6555000D02*
X8765000Y6575000D01*
X8755000Y6555000D02*
X8765000Y6565000D01*
X6565000Y5455000D02*
Y5745000D01*
X6435000Y5455000D02*
X6565000D01*
X6435000D02*
Y5745000D01*
X6565000D01*
X6465000Y5455000D02*
X6565000Y5555000D01*
X6475000Y5455000D02*
X6565000Y5545000D01*
X6485000Y5455000D02*
X6565000Y5535000D01*
X6495000Y5455000D02*
X6565000Y5525000D01*
X6505000Y5455000D02*
X6565000Y5515000D01*
X6515000Y5455000D02*
X6565000Y5505000D01*
X6525000Y5455000D02*
X6565000Y5495000D01*
X6535000Y5455000D02*
X6565000Y5485000D01*
X6545000Y5455000D02*
X6565000Y5475000D01*
X6555000Y5455000D02*
X6565000Y5465000D01*
X5465000Y5455000D02*
Y5745000D01*
X5335000Y5455000D02*
X5465000D01*
X5335000D02*
Y5745000D01*
X5465000D01*
X5365000Y5455000D02*
X5465000Y5555000D01*
X5375000Y5455000D02*
X5465000Y5545000D01*
X5385000Y5455000D02*
X5465000Y5535000D01*
X5395000Y5455000D02*
X5465000Y5525000D01*
X5405000Y5455000D02*
X5465000Y5515000D01*
X5415000Y5455000D02*
X5465000Y5505000D01*
X5425000Y5455000D02*
X5465000Y5495000D01*
X5435000Y5455000D02*
X5465000Y5485000D01*
X5445000Y5455000D02*
X5465000Y5475000D01*
X5455000Y5455000D02*
X5465000Y5465000D01*
X3150000Y5460000D02*
Y5750000D01*
X3020000Y5460000D02*
X3150000D01*
X3020000D02*
Y5750000D01*
X3150000D01*
X3050000Y5460000D02*
X3150000Y5560000D01*
X3060000Y5460000D02*
X3150000Y5550000D01*
X3070000Y5460000D02*
X3150000Y5540000D01*
X3080000Y5460000D02*
X3150000Y5530000D01*
X3090000Y5460000D02*
X3150000Y5520000D01*
X3100000Y5460000D02*
X3150000Y5510000D01*
X3110000Y5460000D02*
X3150000Y5500000D01*
X3120000Y5460000D02*
X3150000Y5490000D01*
X3130000Y5460000D02*
X3150000Y5480000D01*
X3140000Y5460000D02*
X3150000Y5470000D01*
X13864999Y8855000D02*
Y9145000D01*
X13735001Y8855000D02*
X13864999D01*
X13735001D02*
Y9145000D01*
X13864999D01*
X13764999Y8855000D02*
X13864999Y8955000D01*
X13775000Y8855000D02*
X13864999Y8945000D01*
X13785001Y8855000D02*
X13864999Y8935000D01*
X13795000Y8855000D02*
X13864999Y8925000D01*
X13805000Y8855000D02*
X13864999Y8915000D01*
X13814999Y8855000D02*
X13864999Y8905000D01*
X13825000Y8855000D02*
X13864999Y8895000D01*
X13835001Y8855000D02*
X13864999Y8885000D01*
X13845000Y8855000D02*
X13864999Y8875000D01*
X13855000Y8855000D02*
X13864999Y8865000D01*
X12150000Y8860000D02*
Y9150000D01*
X12020000Y8860000D02*
X12150000D01*
X12020000D02*
Y9150000D01*
X12150000D01*
X12050000Y8860000D02*
X12150000Y8960000D01*
X12060000Y8860000D02*
X12150000Y8950000D01*
X12070000Y8860000D02*
X12150000Y8940000D01*
X12080000Y8860000D02*
X12150000Y8930000D01*
X12090000Y8860000D02*
X12150000Y8920000D01*
X12100000Y8860000D02*
X12150000Y8910000D01*
X12110000Y8860000D02*
X12150000Y8900000D01*
X12120000Y8860000D02*
X12150000Y8890000D01*
X12130000Y8860000D02*
X12150000Y8880000D01*
X12140000Y8860000D02*
X12150000Y8870000D01*
X10450000Y8850000D02*
Y9140000D01*
X10320000Y8850000D02*
X10450000D01*
X10320000D02*
Y9140000D01*
X10450000D01*
X10350000Y8850000D02*
X10450000Y8950000D01*
X10360000Y8850000D02*
X10450000Y8940000D01*
X10370000Y8850000D02*
X10450000Y8930000D01*
X10380000Y8850000D02*
X10450000Y8920000D01*
X10390000Y8850000D02*
X10450000Y8910000D01*
X10400000Y8850000D02*
X10450000Y8900000D01*
X10410000Y8850000D02*
X10450000Y8890000D01*
X10420000Y8850000D02*
X10450000Y8880000D01*
X10430000Y8850000D02*
X10450000Y8870000D01*
X10440000Y8850000D02*
X10450000Y8860000D01*
X8765000Y8855000D02*
Y9145000D01*
X8635000Y8855000D02*
X8765000D01*
X8635000D02*
Y9145000D01*
X8765000D01*
X8665000Y8855000D02*
X8765000Y8955000D01*
X8675000Y8855000D02*
X8765000Y8945000D01*
X8685000Y8855000D02*
X8765000Y8935000D01*
X8695000Y8855000D02*
X8765000Y8925000D01*
X8705000Y8855000D02*
X8765000Y8915000D01*
X8715000Y8855000D02*
X8765000Y8905000D01*
X8725000Y8855000D02*
X8765000Y8895000D01*
X8735000Y8855000D02*
X8765000Y8885000D01*
X8745000Y8855000D02*
X8765000Y8875000D01*
X8755000Y8855000D02*
X8765000Y8865000D01*
X4965000Y6555000D02*
Y6845000D01*
X4835000Y6555000D02*
X4965000D01*
X4835000D02*
Y6845000D01*
X4965000D01*
X4865000Y6555000D02*
X4965000Y6655000D01*
X4875000Y6555000D02*
X4965000Y6645000D01*
X4885000Y6555000D02*
X4965000Y6635000D01*
X4895000Y6555000D02*
X4965000Y6625000D01*
X4905000Y6555000D02*
X4965000Y6615000D01*
X4915000Y6555000D02*
X4965000Y6605000D01*
X4925000Y6555000D02*
X4965000Y6595000D01*
X4935000Y6555000D02*
X4965000Y6585000D01*
X4945000Y6555000D02*
X4965000Y6575000D01*
X4955000Y6555000D02*
X4965000Y6565000D01*
X13864999Y11055000D02*
Y11345000D01*
X13735001Y11055000D02*
X13864999D01*
X13735001D02*
Y11345000D01*
X13864999D01*
X13764999Y11055000D02*
X13864999Y11155000D01*
X13775000Y11055000D02*
X13864999Y11145000D01*
X13785001Y11055000D02*
X13864999Y11135000D01*
X13795000Y11055000D02*
X13864999Y11125000D01*
X13805000Y11055000D02*
X13864999Y11115000D01*
X13814999Y11055000D02*
X13864999Y11105000D01*
X13825000Y11055000D02*
X13864999Y11095000D01*
X13835001Y11055000D02*
X13864999Y11085000D01*
X13845000Y11055000D02*
X13864999Y11075000D01*
X13855000Y11055000D02*
X13864999Y11065000D01*
X12165000Y11055000D02*
Y11345000D01*
X12035000Y11055000D02*
X12165000D01*
X12035000D02*
Y11345000D01*
X12165000D01*
X12065000Y11055000D02*
X12165000Y11155000D01*
X12075000Y11055000D02*
X12165000Y11145000D01*
X12085000Y11055000D02*
X12165000Y11135000D01*
X12095000Y11055000D02*
X12165000Y11125000D01*
X12105000Y11055000D02*
X12165000Y11115000D01*
X12115000Y11055000D02*
X12165000Y11105000D01*
X12125000Y11055000D02*
X12165000Y11095000D01*
X12135000Y11055000D02*
X12165000Y11085000D01*
X12145000Y11055000D02*
X12165000Y11075000D01*
X12155000Y11055000D02*
X12165000Y11065000D01*
X10165000Y11055000D02*
Y11345000D01*
X10035000Y11055000D02*
X10165000D01*
X10035000D02*
Y11345000D01*
X10165000D01*
X10065000Y11055000D02*
X10165000Y11155000D01*
X10075000Y11055000D02*
X10165000Y11145000D01*
X10085000Y11055000D02*
X10165000Y11135000D01*
X10095000Y11055000D02*
X10165000Y11125000D01*
X10105000Y11055000D02*
X10165000Y11115000D01*
X10115000Y11055000D02*
X10165000Y11105000D01*
X10125000Y11055000D02*
X10165000Y11095000D01*
X10135000Y11055000D02*
X10165000Y11085000D01*
X10145000Y11055000D02*
X10165000Y11075000D01*
X10155000Y11055000D02*
X10165000Y11065000D01*
X8765000Y11055000D02*
Y11345000D01*
X8635000Y11055000D02*
X8765000D01*
X8635000D02*
Y11345000D01*
X8765000D01*
X8665000Y11055000D02*
X8765000Y11155000D01*
X8675000Y11055000D02*
X8765000Y11145000D01*
X8685000Y11055000D02*
X8765000Y11135000D01*
X8695000Y11055000D02*
X8765000Y11125000D01*
X8705000Y11055000D02*
X8765000Y11115000D01*
X8715000Y11055000D02*
X8765000Y11105000D01*
X8725000Y11055000D02*
X8765000Y11095000D01*
X8735000Y11055000D02*
X8765000Y11085000D01*
X8745000Y11055000D02*
X8765000Y11075000D01*
X8755000Y11055000D02*
X8765000Y11065000D01*
X1565000Y11055000D02*
Y11345000D01*
X1435000Y11055000D02*
X1565000D01*
X1435000D02*
Y11345000D01*
X1565000D01*
X1465000Y11055000D02*
X1565000Y11155000D01*
X1475000Y11055000D02*
X1565000Y11145000D01*
X1485000Y11055000D02*
X1565000Y11135000D01*
X1495000Y11055000D02*
X1565000Y11125000D01*
X1505000Y11055000D02*
X1565000Y11115000D01*
X1515000Y11055000D02*
X1565000Y11105000D01*
X1525000Y11055000D02*
X1565000Y11095000D01*
X1535000Y11055000D02*
X1565000Y11085000D01*
X1545000Y11055000D02*
X1565000Y11075000D01*
X1555000Y11055000D02*
X1565000Y11065000D01*
X19464999Y14555000D02*
Y14845000D01*
X19335001Y14555000D02*
X19464999D01*
X19335001D02*
Y14845000D01*
X19464999D01*
X19364999Y14555000D02*
X19464999Y14655000D01*
X19375000Y14555000D02*
X19464999Y14645000D01*
X19385001Y14555000D02*
X19464999Y14635001D01*
X19395000Y14555000D02*
X19464999Y14625000D01*
X19405000Y14555000D02*
X19464999Y14614999D01*
X19414999Y14555000D02*
X19464999Y14605000D01*
X19425000Y14555000D02*
X19464999Y14595000D01*
X19435001Y14555000D02*
X19464999Y14585001D01*
X19445000Y14555000D02*
X19464999Y14575000D01*
X19455000Y14555000D02*
X19464999Y14564999D01*
X17764999Y14555000D02*
Y14845000D01*
X17635001Y14555000D02*
X17764999D01*
X17635001D02*
Y14845000D01*
X17764999D01*
X17664999Y14555000D02*
X17764999Y14655000D01*
X17675000Y14555000D02*
X17764999Y14645000D01*
X17685001Y14555000D02*
X17764999Y14635001D01*
X17695000Y14555000D02*
X17764999Y14625000D01*
X17705000Y14555000D02*
X17764999Y14614999D01*
X17714999Y14555000D02*
X17764999Y14605000D01*
X17725000Y14555000D02*
X17764999Y14595000D01*
X17735001Y14555000D02*
X17764999Y14585001D01*
X17745000Y14555000D02*
X17764999Y14575000D01*
X17755000Y14555000D02*
X17764999Y14564999D01*
X16064999Y14555000D02*
Y14845000D01*
X15935001Y14555000D02*
X16064999D01*
X15935001D02*
Y14845000D01*
X16064999D01*
X15964999Y14555000D02*
X16064999Y14655000D01*
X15975000Y14555000D02*
X16064999Y14645000D01*
X15985001Y14555000D02*
X16064999Y14635001D01*
X15995000Y14555000D02*
X16064999Y14625000D01*
X16005000Y14555000D02*
X16064999Y14614999D01*
X16014999Y14555000D02*
X16064999Y14605000D01*
X16025000Y14555000D02*
X16064999Y14595000D01*
X16035001Y14555000D02*
X16064999Y14585001D01*
X16045000Y14555000D02*
X16064999Y14575000D01*
X16055000Y14555000D02*
X16064999Y14564999D01*
X13864999Y14555000D02*
Y14845000D01*
X13735001Y14555000D02*
X13864999D01*
X13735001D02*
Y14845000D01*
X13864999D01*
X13764999Y14555000D02*
X13864999Y14655000D01*
X13775000Y14555000D02*
X13864999Y14645000D01*
X13785001Y14555000D02*
X13864999Y14635001D01*
X13795000Y14555000D02*
X13864999Y14625000D01*
X13805000Y14555000D02*
X13864999Y14614999D01*
X13814999Y14555000D02*
X13864999Y14605000D01*
X13825000Y14555000D02*
X13864999Y14595000D01*
X13835001Y14555000D02*
X13864999Y14585001D01*
X13845000Y14555000D02*
X13864999Y14575000D01*
X13855000Y14555000D02*
X13864999Y14564999D01*
X12150000Y14560001D02*
Y14850000D01*
X12020000Y14560001D02*
X12150000D01*
X12020000D02*
Y14850000D01*
X12150000D01*
X12050000Y14560001D02*
X12150000Y14660001D01*
X12060000Y14560001D02*
X12150000Y14650000D01*
X12070000Y14560001D02*
X12150000Y14639999D01*
X12080000Y14560001D02*
X12150000Y14630000D01*
X12090000Y14560001D02*
X12150000Y14620000D01*
X12100000Y14560001D02*
X12150000Y14610001D01*
X12110000Y14560001D02*
X12150000Y14600000D01*
X12120000Y14560001D02*
X12150000Y14589999D01*
X12130000Y14560001D02*
X12150000Y14580000D01*
X12140000Y14560001D02*
X12150000Y14570000D01*
X10565000Y14555000D02*
Y14845000D01*
X10435000Y14555000D02*
X10565000D01*
X10435000D02*
Y14845000D01*
X10565000D01*
X10465000Y14555000D02*
X10565000Y14655000D01*
X10475000Y14555000D02*
X10565000Y14645000D01*
X10485000Y14555000D02*
X10565000Y14635001D01*
X10495000Y14555000D02*
X10565000Y14625000D01*
X10505000Y14555000D02*
X10565000Y14614999D01*
X10515000Y14555000D02*
X10565000Y14605000D01*
X10525000Y14555000D02*
X10565000Y14595000D01*
X10535000Y14555000D02*
X10565000Y14585001D01*
X10545000Y14555000D02*
X10565000Y14575000D01*
X10555000Y14555000D02*
X10565000Y14564999D01*
X8765000Y14555000D02*
Y14845000D01*
X8635000Y14555000D02*
X8765000D01*
X8635000D02*
Y14845000D01*
X8765000D01*
X8665000Y14555000D02*
X8765000Y14655000D01*
X8675000Y14555000D02*
X8765000Y14645000D01*
X8685000Y14555000D02*
X8765000Y14635001D01*
X8695000Y14555000D02*
X8765000Y14625000D01*
X8705000Y14555000D02*
X8765000Y14614999D01*
X8715000Y14555000D02*
X8765000Y14605000D01*
X8725000Y14555000D02*
X8765000Y14595000D01*
X8735000Y14555000D02*
X8765000Y14585001D01*
X8745000Y14555000D02*
X8765000Y14575000D01*
X8755000Y14555000D02*
X8765000Y14564999D01*
X6565000Y14555000D02*
Y14845000D01*
X6435000Y14555000D02*
X6565000D01*
X6435000D02*
Y14845000D01*
X6565000D01*
X6465000Y14555000D02*
X6565000Y14655000D01*
X6475000Y14555000D02*
X6565000Y14645000D01*
X6485000Y14555000D02*
X6565000Y14635001D01*
X6495000Y14555000D02*
X6565000Y14625000D01*
X6505000Y14555000D02*
X6565000Y14614999D01*
X6515000Y14555000D02*
X6565000Y14605000D01*
X6525000Y14555000D02*
X6565000Y14595000D01*
X6535000Y14555000D02*
X6565000Y14585001D01*
X6545000Y14555000D02*
X6565000Y14575000D01*
X6555000Y14555000D02*
X6565000Y14564999D01*
X4850000Y14560001D02*
Y14850000D01*
X4720000Y14560001D02*
X4850000D01*
X4720000D02*
Y14850000D01*
X4850000D01*
X4750000Y14560001D02*
X4850000Y14660001D01*
X4760000Y14560001D02*
X4850000Y14650000D01*
X4770000Y14560001D02*
X4850000Y14639999D01*
X4780000Y14560001D02*
X4850000Y14630000D01*
X4790000Y14560001D02*
X4850000Y14620000D01*
X4800000Y14560001D02*
X4850000Y14610001D01*
X4810000Y14560001D02*
X4850000Y14600000D01*
X4820000Y14560001D02*
X4850000Y14589999D01*
X4830000Y14560001D02*
X4850000Y14580000D01*
X4840000Y14560001D02*
X4850000Y14570000D01*
X3265000Y14555000D02*
Y14845000D01*
X3135000Y14555000D02*
X3265000D01*
X3135000D02*
Y14845000D01*
X3265000D01*
X3165000Y14555000D02*
X3265000Y14655000D01*
X3175000Y14555000D02*
X3265000Y14645000D01*
X3185000Y14555000D02*
X3265000Y14635001D01*
X3195000Y14555000D02*
X3265000Y14625000D01*
X3205000Y14555000D02*
X3265000Y14614999D01*
X3215000Y14555000D02*
X3265000Y14605000D01*
X3225000Y14555000D02*
X3265000Y14595000D01*
X3235000Y14555000D02*
X3265000Y14585001D01*
X3245000Y14555000D02*
X3265000Y14575000D01*
X3255000Y14555000D02*
X3265000Y14564999D01*
X1465000Y14555000D02*
Y14845000D01*
X1335000Y14555000D02*
X1465000D01*
X1335000D02*
Y14845000D01*
X1465000D01*
X1365000Y14555000D02*
X1465000Y14655000D01*
X1375000Y14555000D02*
X1465000Y14645000D01*
X1385000Y14555000D02*
X1465000Y14635001D01*
X1395000Y14555000D02*
X1465000Y14625000D01*
X1405000Y14555000D02*
X1465000Y14614999D01*
X1415000Y14555000D02*
X1465000Y14605000D01*
X1425000Y14555000D02*
X1465000Y14595000D01*
X1435000Y14555000D02*
X1465000Y14585001D01*
X1445000Y14555000D02*
X1465000Y14575000D01*
X1455000Y14555000D02*
X1465000Y14564999D01*
X19464999Y16755000D02*
Y17045000D01*
X19335001Y16755000D02*
X19464999D01*
X19335001D02*
Y17045000D01*
X19464999D01*
X19364999Y16755000D02*
X19464999Y16855000D01*
X19375000Y16755000D02*
X19464999Y16845000D01*
X19385001Y16755000D02*
X19464999Y16835001D01*
X19395000Y16755000D02*
X19464999Y16825000D01*
X19405000Y16755000D02*
X19464999Y16814999D01*
X19414999Y16755000D02*
X19464999Y16805000D01*
X19425000Y16755000D02*
X19464999Y16795000D01*
X19435001Y16755000D02*
X19464999Y16785001D01*
X19445000Y16755000D02*
X19464999Y16775000D01*
X19455000Y16755000D02*
X19464999Y16764999D01*
X17764999Y16755000D02*
Y17045000D01*
X17635001Y16755000D02*
X17764999D01*
X17635001D02*
Y17045000D01*
X17764999D01*
X17664999Y16755000D02*
X17764999Y16855000D01*
X17675000Y16755000D02*
X17764999Y16845000D01*
X17685001Y16755000D02*
X17764999Y16835001D01*
X17695000Y16755000D02*
X17764999Y16825000D01*
X17705000Y16755000D02*
X17764999Y16814999D01*
X17714999Y16755000D02*
X17764999Y16805000D01*
X17725000Y16755000D02*
X17764999Y16795000D01*
X17735001Y16755000D02*
X17764999Y16785001D01*
X17745000Y16755000D02*
X17764999Y16775000D01*
X17755000Y16755000D02*
X17764999Y16764999D01*
X16064999Y16755000D02*
Y17045000D01*
X15935001Y16755000D02*
X16064999D01*
X15935001D02*
Y17045000D01*
X16064999D01*
X15964999Y16755000D02*
X16064999Y16855000D01*
X15975000Y16755000D02*
X16064999Y16845000D01*
X15985001Y16755000D02*
X16064999Y16835001D01*
X15995000Y16755000D02*
X16064999Y16825000D01*
X16005000Y16755000D02*
X16064999Y16814999D01*
X16014999Y16755000D02*
X16064999Y16805000D01*
X16025000Y16755000D02*
X16064999Y16795000D01*
X16035001Y16755000D02*
X16064999Y16785001D01*
X16045000Y16755000D02*
X16064999Y16775000D01*
X16055000Y16755000D02*
X16064999Y16764999D01*
X13864999Y16755000D02*
Y17045000D01*
X13735001Y16755000D02*
X13864999D01*
X13735001D02*
Y17045000D01*
X13864999D01*
X13764999Y16755000D02*
X13864999Y16855000D01*
X13775000Y16755000D02*
X13864999Y16845000D01*
X13785001Y16755000D02*
X13864999Y16835001D01*
X13795000Y16755000D02*
X13864999Y16825000D01*
X13805000Y16755000D02*
X13864999Y16814999D01*
X13814999Y16755000D02*
X13864999Y16805000D01*
X13825000Y16755000D02*
X13864999Y16795000D01*
X13835001Y16755000D02*
X13864999Y16785001D01*
X13845000Y16755000D02*
X13864999Y16775000D01*
X13855000Y16755000D02*
X13864999Y16764999D01*
X12165000Y16755000D02*
Y17045000D01*
X12035000Y16755000D02*
X12165000D01*
X12035000D02*
Y17045000D01*
X12165000D01*
X12065000Y16755000D02*
X12165000Y16855000D01*
X12075000Y16755000D02*
X12165000Y16845000D01*
X12085000Y16755000D02*
X12165000Y16835001D01*
X12095000Y16755000D02*
X12165000Y16825000D01*
X12105000Y16755000D02*
X12165000Y16814999D01*
X12115000Y16755000D02*
X12165000Y16805000D01*
X12125000Y16755000D02*
X12165000Y16795000D01*
X12135000Y16755000D02*
X12165000Y16785001D01*
X12145000Y16755000D02*
X12165000Y16775000D01*
X12155000Y16755000D02*
X12165000Y16764999D01*
X10450000Y16760001D02*
Y17050000D01*
X10320000Y16760001D02*
X10450000D01*
X10320000D02*
Y17050000D01*
X10450000D01*
X10350000Y16760001D02*
X10450000Y16860001D01*
X10360000Y16760001D02*
X10450000Y16850000D01*
X10370000Y16760001D02*
X10450000Y16839999D01*
X10380000Y16760001D02*
X10450000Y16830000D01*
X10390000Y16760001D02*
X10450000Y16820000D01*
X10400000Y16760001D02*
X10450000Y16810001D01*
X10410000Y16760001D02*
X10450000Y16800000D01*
X10420000Y16760001D02*
X10450000Y16789999D01*
X10430000Y16760001D02*
X10450000Y16780000D01*
X10440000Y16760001D02*
X10450000Y16770000D01*
X8765000Y16755000D02*
Y17045000D01*
X8635000Y16755000D02*
X8765000D01*
X8635000D02*
Y17045000D01*
X8765000D01*
X8665000Y16755000D02*
X8765000Y16855000D01*
X8675000Y16755000D02*
X8765000Y16845000D01*
X8685000Y16755000D02*
X8765000Y16835001D01*
X8695000Y16755000D02*
X8765000Y16825000D01*
X8705000Y16755000D02*
X8765000Y16814999D01*
X8715000Y16755000D02*
X8765000Y16805000D01*
X8725000Y16755000D02*
X8765000Y16795000D01*
X8735000Y16755000D02*
X8765000Y16785001D01*
X8745000Y16755000D02*
X8765000Y16775000D01*
X8755000Y16755000D02*
X8765000Y16764999D01*
X6265000Y16755000D02*
Y17045000D01*
X6135000Y16755000D02*
X6265000D01*
X6135000D02*
Y17045000D01*
X6265000D01*
X6165000Y16755000D02*
X6265000Y16855000D01*
X6175000Y16755000D02*
X6265000Y16845000D01*
X6185000Y16755000D02*
X6265000Y16835001D01*
X6195000Y16755000D02*
X6265000Y16825000D01*
X6205000Y16755000D02*
X6265000Y16814999D01*
X6215000Y16755000D02*
X6265000Y16805000D01*
X6225000Y16755000D02*
X6265000Y16795000D01*
X6235000Y16755000D02*
X6265000Y16785001D01*
X6245000Y16755000D02*
X6265000Y16775000D01*
X6255000Y16755000D02*
X6265000Y16764999D01*
X4565000Y16755000D02*
Y17045000D01*
X4435000Y16755000D02*
X4565000D01*
X4435000D02*
Y17045000D01*
X4565000D01*
X4465000Y16755000D02*
X4565000Y16855000D01*
X4475000Y16755000D02*
X4565000Y16845000D01*
X4485000Y16755000D02*
X4565000Y16835001D01*
X4495000Y16755000D02*
X4565000Y16825000D01*
X4505000Y16755000D02*
X4565000Y16814999D01*
X4515000Y16755000D02*
X4565000Y16805000D01*
X4525000Y16755000D02*
X4565000Y16795000D01*
X4535000Y16755000D02*
X4565000Y16785001D01*
X4545000Y16755000D02*
X4565000Y16775000D01*
X4555000Y16755000D02*
X4565000Y16764999D01*
X2865000Y16755000D02*
Y17045000D01*
X2735000Y16755000D02*
X2865000D01*
X2735000D02*
Y17045000D01*
X2865000D01*
X2765000Y16755000D02*
X2865000Y16855000D01*
X2775000Y16755000D02*
X2865000Y16845000D01*
X2785000Y16755000D02*
X2865000Y16835001D01*
X2795000Y16755000D02*
X2865000Y16825000D01*
X2805000Y16755000D02*
X2865000Y16814999D01*
X2815000Y16755000D02*
X2865000Y16805000D01*
X2825000Y16755000D02*
X2865000Y16795000D01*
X2835000Y16755000D02*
X2865000Y16785001D01*
X2845000Y16755000D02*
X2865000Y16775000D01*
X2855000Y16755000D02*
X2865000Y16764999D01*
X1165000Y16755000D02*
Y17045000D01*
X1035000Y16755000D02*
X1165000D01*
X1035000D02*
Y17045000D01*
X1165000D01*
X1065000Y16755000D02*
X1165000Y16855000D01*
X1075000Y16755000D02*
X1165000Y16845000D01*
X1085000Y16755000D02*
X1165000Y16835001D01*
X1095000Y16755000D02*
X1165000Y16825000D01*
X1105000Y16755000D02*
X1165000Y16814999D01*
X1115000Y16755000D02*
X1165000Y16805000D01*
X1125000Y16755000D02*
X1165000Y16795000D01*
X1135000Y16755000D02*
X1165000Y16785001D01*
X1145000Y16755000D02*
X1165000Y16775000D01*
X1155000Y16755000D02*
X1165000Y16764999D01*
X19164999Y19055000D02*
Y19345000D01*
X19035001Y19055000D02*
X19164999D01*
X19035001D02*
Y19345000D01*
X19164999D01*
X19064999Y19055000D02*
X19164999Y19155000D01*
X19075000Y19055000D02*
X19164999Y19145000D01*
X19085001Y19055000D02*
X19164999Y19135001D01*
X19095000Y19055000D02*
X19164999Y19125000D01*
X19105000Y19055000D02*
X19164999Y19114999D01*
X19114999Y19055000D02*
X19164999Y19105000D01*
X19125000Y19055000D02*
X19164999Y19095000D01*
X19135001Y19055000D02*
X19164999Y19085001D01*
X19145000Y19055000D02*
X19164999Y19075000D01*
X19155000Y19055000D02*
X19164999Y19064999D01*
X17580000Y19055000D02*
Y19345000D01*
X17450000Y19055000D02*
X17580000D01*
X17450000D02*
Y19345000D01*
X17580000D01*
X17480000Y19055000D02*
X17580000Y19155000D01*
X17489999Y19055000D02*
X17580000Y19145000D01*
X17500000Y19055000D02*
X17580000Y19135001D01*
X17510001Y19055000D02*
X17580000Y19125000D01*
X17520000Y19055000D02*
X17580000Y19114999D01*
X17530000Y19055000D02*
X17580000Y19105000D01*
X17539999Y19055000D02*
X17580000Y19095000D01*
X17550000Y19055000D02*
X17580000Y19085001D01*
X17560001Y19055000D02*
X17580000Y19075000D01*
X17570000Y19055000D02*
X17580000Y19064999D01*
X15764999Y19055000D02*
Y19345000D01*
X15635001Y19055000D02*
X15764999D01*
X15635001D02*
Y19345000D01*
X15764999D01*
X15664999Y19055000D02*
X15764999Y19155000D01*
X15675000Y19055000D02*
X15764999Y19145000D01*
X15685001Y19055000D02*
X15764999Y19135001D01*
X15695000Y19055000D02*
X15764999Y19125000D01*
X15705000Y19055000D02*
X15764999Y19114999D01*
X15714999Y19055000D02*
X15764999Y19105000D01*
X15725000Y19055000D02*
X15764999Y19095000D01*
X15735001Y19055000D02*
X15764999Y19085001D01*
X15745000Y19055000D02*
X15764999Y19075000D01*
X15755000Y19055000D02*
X15764999Y19064999D01*
X13564999Y19055000D02*
Y19345000D01*
X13435001Y19055000D02*
X13564999D01*
X13435001D02*
Y19345000D01*
X13564999D01*
X13464999Y19055000D02*
X13564999Y19155000D01*
X13475000Y19055000D02*
X13564999Y19145000D01*
X13485001Y19055000D02*
X13564999Y19135001D01*
X13495000Y19055000D02*
X13564999Y19125000D01*
X13505000Y19055000D02*
X13564999Y19114999D01*
X13514999Y19055000D02*
X13564999Y19105000D01*
X13525000Y19055000D02*
X13564999Y19095000D01*
X13535001Y19055000D02*
X13564999Y19085001D01*
X13545000Y19055000D02*
X13564999Y19075000D01*
X13555000Y19055000D02*
X13564999Y19064999D01*
X12280000Y19055000D02*
Y19345000D01*
X12150000Y19055000D02*
X12280000D01*
X12150000D02*
Y19345000D01*
X12280000D01*
X12180000Y19055000D02*
X12280000Y19155000D01*
X12190000Y19055000D02*
X12280000Y19145000D01*
X12200000Y19055000D02*
X12280000Y19135001D01*
X12210000Y19055000D02*
X12280000Y19125000D01*
X12220000Y19055000D02*
X12280000Y19114999D01*
X12230000Y19055000D02*
X12280000Y19105000D01*
X12240000Y19055000D02*
X12280000Y19095000D01*
X12250000Y19055000D02*
X12280000Y19085001D01*
X12260000Y19055000D02*
X12280000Y19075000D01*
X12270000Y19055000D02*
X12280000Y19064999D01*
X10580000Y19055000D02*
Y19345000D01*
X10450000Y19055000D02*
X10580000D01*
X10450000D02*
Y19345000D01*
X10580000D01*
X10480000Y19055000D02*
X10580000Y19155000D01*
X10490000Y19055000D02*
X10580000Y19145000D01*
X10500000Y19055000D02*
X10580000Y19135001D01*
X10510000Y19055000D02*
X10580000Y19125000D01*
X10520000Y19055000D02*
X10580000Y19114999D01*
X10530000Y19055000D02*
X10580000Y19105000D01*
X10540000Y19055000D02*
X10580000Y19095000D01*
X10550000Y19055000D02*
X10580000Y19085001D01*
X10560000Y19055000D02*
X10580000Y19075000D01*
X10570000Y19055000D02*
X10580000Y19064999D01*
X8965000Y19055000D02*
Y19345000D01*
X8835000Y19055000D02*
X8965000D01*
X8835000D02*
Y19345000D01*
X8965000D01*
X8865000Y19055000D02*
X8965000Y19155000D01*
X8875000Y19055000D02*
X8965000Y19145000D01*
X8885000Y19055000D02*
X8965000Y19135001D01*
X8895000Y19055000D02*
X8965000Y19125000D01*
X8905000Y19055000D02*
X8965000Y19114999D01*
X8915000Y19055000D02*
X8965000Y19105000D01*
X8925000Y19055000D02*
X8965000Y19095000D01*
X8935000Y19055000D02*
X8965000Y19085001D01*
X8945000Y19055000D02*
X8965000Y19075000D01*
X8955000Y19055000D02*
X8965000Y19064999D01*
X6165000Y19055000D02*
Y19345000D01*
X6035000Y19055000D02*
X6165000D01*
X6035000D02*
Y19345000D01*
X6165000D01*
X6065000Y19055000D02*
X6165000Y19155000D01*
X6075000Y19055000D02*
X6165000Y19145000D01*
X6085000Y19055000D02*
X6165000Y19135001D01*
X6095000Y19055000D02*
X6165000Y19125000D01*
X6105000Y19055000D02*
X6165000Y19114999D01*
X6115000Y19055000D02*
X6165000Y19105000D01*
X6125000Y19055000D02*
X6165000Y19095000D01*
X6135000Y19055000D02*
X6165000Y19085001D01*
X6145000Y19055000D02*
X6165000Y19075000D01*
X6155000Y19055000D02*
X6165000Y19064999D01*
X4465000Y19055000D02*
Y19345000D01*
X4335000Y19055000D02*
X4465000D01*
X4335000D02*
Y19345000D01*
X4465000D01*
X4365000Y19055000D02*
X4465000Y19155000D01*
X4375000Y19055000D02*
X4465000Y19145000D01*
X4385000Y19055000D02*
X4465000Y19135001D01*
X4395000Y19055000D02*
X4465000Y19125000D01*
X4405000Y19055000D02*
X4465000Y19114999D01*
X4415000Y19055000D02*
X4465000Y19105000D01*
X4425000Y19055000D02*
X4465000Y19095000D01*
X4435000Y19055000D02*
X4465000Y19085001D01*
X4445000Y19055000D02*
X4465000Y19075000D01*
X4455000Y19055000D02*
X4465000Y19064999D01*
X2880000Y19055000D02*
Y19345000D01*
X2750000Y19055000D02*
X2880000D01*
X2750000D02*
Y19345000D01*
X2880000D01*
X2780000Y19055000D02*
X2880000Y19155000D01*
X2790000Y19055000D02*
X2880000Y19145000D01*
X2800000Y19055000D02*
X2880000Y19135001D01*
X2810000Y19055000D02*
X2880000Y19125000D01*
X2820000Y19055000D02*
X2880000Y19114999D01*
X2830000Y19055000D02*
X2880000Y19105000D01*
X2840000Y19055000D02*
X2880000Y19095000D01*
X2850000Y19055000D02*
X2880000Y19085001D01*
X2860000Y19055000D02*
X2880000Y19075000D01*
X2870000Y19055000D02*
X2880000Y19064999D01*
X1065000Y19055000D02*
Y19345000D01*
X935000Y19055000D02*
X1065000D01*
X935000D02*
Y19345000D01*
X1065000D01*
X965000Y19055000D02*
X1065000Y19155000D01*
X975000Y19055000D02*
X1065000Y19145000D01*
X985000Y19055000D02*
X1065000Y19135001D01*
X995000Y19055000D02*
X1065000Y19125000D01*
X1005000Y19055000D02*
X1065000Y19114999D01*
X1015000Y19055000D02*
X1065000Y19105000D01*
X1025000Y19055000D02*
X1065000Y19095000D01*
X1035000Y19055000D02*
X1065000Y19085001D01*
X1045000Y19055000D02*
X1065000Y19075000D01*
X1055000Y19055000D02*
X1065000Y19064999D01*
X19164999Y21255000D02*
Y21545000D01*
X19035001Y21255000D02*
X19164999D01*
X19035001D02*
Y21545000D01*
X19164999D01*
X19064999Y21255000D02*
X19164999Y21355000D01*
X19075000Y21255000D02*
X19164999Y21345000D01*
X19085001Y21255000D02*
X19164999Y21335001D01*
X19095000Y21255000D02*
X19164999Y21325000D01*
X19105000Y21255000D02*
X19164999Y21314999D01*
X19114999Y21255000D02*
X19164999Y21305000D01*
X19125000Y21255000D02*
X19164999Y21295000D01*
X19135001Y21255000D02*
X19164999Y21285001D01*
X19145000Y21255000D02*
X19164999Y21275000D01*
X19155000Y21255000D02*
X19164999Y21264999D01*
X17464999Y21255000D02*
Y21545000D01*
X17335001Y21255000D02*
X17464999D01*
X17335001D02*
Y21545000D01*
X17464999D01*
X17364999Y21255000D02*
X17464999Y21355000D01*
X17375000Y21255000D02*
X17464999Y21345000D01*
X17385001Y21255000D02*
X17464999Y21335001D01*
X17395000Y21255000D02*
X17464999Y21325000D01*
X17405000Y21255000D02*
X17464999Y21314999D01*
X17414999Y21255000D02*
X17464999Y21305000D01*
X17425000Y21255000D02*
X17464999Y21295000D01*
X17435001Y21255000D02*
X17464999Y21285001D01*
X17445000Y21255000D02*
X17464999Y21275000D01*
X17455000Y21255000D02*
X17464999Y21264999D01*
X16164999Y21255000D02*
Y21545000D01*
X16035001Y21255000D02*
X16164999D01*
X16035001D02*
Y21545000D01*
X16164999D01*
X16064999Y21255000D02*
X16164999Y21355000D01*
X16075000Y21255000D02*
X16164999Y21345000D01*
X16085001Y21255000D02*
X16164999Y21335001D01*
X16095000Y21255000D02*
X16164999Y21325000D01*
X16105000Y21255000D02*
X16164999Y21314999D01*
X16114999Y21255000D02*
X16164999Y21305000D01*
X16125000Y21255000D02*
X16164999Y21295000D01*
X16135001Y21255000D02*
X16164999Y21285001D01*
X16145000Y21255000D02*
X16164999Y21275000D01*
X16155000Y21255000D02*
X16164999Y21264999D01*
X13480000Y21255000D02*
Y21545000D01*
X13350000Y21255000D02*
X13480000D01*
X13350000D02*
Y21545000D01*
X13480000D01*
X13380000Y21255000D02*
X13480000Y21355000D01*
X13389999Y21255000D02*
X13480000Y21345000D01*
X13400000Y21255000D02*
X13480000Y21335001D01*
X13410001Y21255000D02*
X13480000Y21325000D01*
X13420000Y21255000D02*
X13480000Y21314999D01*
X13430000Y21255000D02*
X13480000Y21305000D01*
X13439999Y21255000D02*
X13480000Y21295000D01*
X13450000Y21255000D02*
X13480000Y21285001D01*
X13460001Y21255000D02*
X13480000Y21275000D01*
X13470000Y21255000D02*
X13480000Y21264999D01*
X12265000Y21255000D02*
Y21545000D01*
X12135000Y21255000D02*
X12265000D01*
X12135000D02*
Y21545000D01*
X12265000D01*
X12165000Y21255000D02*
X12265000Y21355000D01*
X12175000Y21255000D02*
X12265000Y21345000D01*
X12185000Y21255000D02*
X12265000Y21335001D01*
X12195000Y21255000D02*
X12265000Y21325000D01*
X12205000Y21255000D02*
X12265000Y21314999D01*
X12215000Y21255000D02*
X12265000Y21305000D01*
X12225000Y21255000D02*
X12265000Y21295000D01*
X12235000Y21255000D02*
X12265000Y21285001D01*
X12245000Y21255000D02*
X12265000Y21275000D01*
X12255000Y21255000D02*
X12265000Y21264999D01*
X10565000Y21255000D02*
Y21545000D01*
X10435000Y21255000D02*
X10565000D01*
X10435000D02*
Y21545000D01*
X10565000D01*
X10465000Y21255000D02*
X10565000Y21355000D01*
X10475000Y21255000D02*
X10565000Y21345000D01*
X10485000Y21255000D02*
X10565000Y21335001D01*
X10495000Y21255000D02*
X10565000Y21325000D01*
X10505000Y21255000D02*
X10565000Y21314999D01*
X10515000Y21255000D02*
X10565000Y21305000D01*
X10525000Y21255000D02*
X10565000Y21295000D01*
X10535000Y21255000D02*
X10565000Y21285001D01*
X10545000Y21255000D02*
X10565000Y21275000D01*
X10555000Y21255000D02*
X10565000Y21264999D01*
X8865000Y21255000D02*
Y21545000D01*
X8735000Y21255000D02*
X8865000D01*
X8735000D02*
Y21545000D01*
X8865000D01*
X8765000Y21255000D02*
X8865000Y21355000D01*
X8775000Y21255000D02*
X8865000Y21345000D01*
X8785000Y21255000D02*
X8865000Y21335001D01*
X8795000Y21255000D02*
X8865000Y21325000D01*
X8805000Y21255000D02*
X8865000Y21314999D01*
X8815000Y21255000D02*
X8865000Y21305000D01*
X8825000Y21255000D02*
X8865000Y21295000D01*
X8835000Y21255000D02*
X8865000Y21285001D01*
X8845000Y21255000D02*
X8865000Y21275000D01*
X8855000Y21255000D02*
X8865000Y21264999D01*
X6180000Y21255000D02*
Y21545000D01*
X6050000Y21255000D02*
X6180000D01*
X6050000D02*
Y21545000D01*
X6180000D01*
X6080000Y21255000D02*
X6180000Y21355000D01*
X6090000Y21255000D02*
X6180000Y21345000D01*
X6100000Y21255000D02*
X6180000Y21335001D01*
X6110000Y21255000D02*
X6180000Y21325000D01*
X6120000Y21255000D02*
X6180000Y21314999D01*
X6130000Y21255000D02*
X6180000Y21305000D01*
X6140000Y21255000D02*
X6180000Y21295000D01*
X6150000Y21255000D02*
X6180000Y21285001D01*
X6160000Y21255000D02*
X6180000Y21275000D01*
X6170000Y21255000D02*
X6180000Y21264999D01*
X4580000Y21255000D02*
Y21545000D01*
X4450000Y21255000D02*
X4580000D01*
X4450000D02*
Y21545000D01*
X4580000D01*
X4480000Y21255000D02*
X4580000Y21355000D01*
X4490000Y21255000D02*
X4580000Y21345000D01*
X4500000Y21255000D02*
X4580000Y21335001D01*
X4510000Y21255000D02*
X4580000Y21325000D01*
X4520000Y21255000D02*
X4580000Y21314999D01*
X4530000Y21255000D02*
X4580000Y21305000D01*
X4540000Y21255000D02*
X4580000Y21295000D01*
X4550000Y21255000D02*
X4580000Y21285001D01*
X4560000Y21255000D02*
X4580000Y21275000D01*
X4570000Y21255000D02*
X4580000Y21264999D01*
X2865000Y21255000D02*
Y21545000D01*
X2735000Y21255000D02*
X2865000D01*
X2735000D02*
Y21545000D01*
X2865000D01*
X2765000Y21255000D02*
X2865000Y21355000D01*
X2775000Y21255000D02*
X2865000Y21345000D01*
X2785000Y21255000D02*
X2865000Y21335001D01*
X2795000Y21255000D02*
X2865000Y21325000D01*
X2805000Y21255000D02*
X2865000Y21314999D01*
X2815000Y21255000D02*
X2865000Y21305000D01*
X2825000Y21255000D02*
X2865000Y21295000D01*
X2835000Y21255000D02*
X2865000Y21285001D01*
X2845000Y21255000D02*
X2865000Y21275000D01*
X2855000Y21255000D02*
X2865000Y21264999D01*
X1065000Y21255000D02*
Y21545000D01*
X935000Y21255000D02*
X1065000D01*
X935000D02*
Y21545000D01*
X1065000D01*
X965000Y21255000D02*
X1065000Y21355000D01*
X975000Y21255000D02*
X1065000Y21345000D01*
X985000Y21255000D02*
X1065000Y21335001D01*
X995000Y21255000D02*
X1065000Y21325000D01*
X1005000Y21255000D02*
X1065000Y21314999D01*
X1015000Y21255000D02*
X1065000Y21305000D01*
X1025000Y21255000D02*
X1065000Y21295000D01*
X1035000Y21255000D02*
X1065000Y21285001D01*
X1045000Y21255000D02*
X1065000Y21275000D01*
X1055000Y21255000D02*
X1065000Y21264999D01*
%TF.MD5,363e79f46f68150101696cd210ae7b98*%
M02*
