%TF.GenerationSoftware,Altium Limited,Altium Designer,20.2.5 (213)*%
G04 Layer_Color=65535*
%FSLAX45Y45*%
%MOMM*%
%TF.SameCoordinates,662F433C-BD6F-4083-8A0F-E7C0AAC1164F*%
%TF.FilePolarity,Positive*%
%TF.FileFunction,Legend,Top*%
%TF.Part,Single*%
G01*
G75*
%TA.AperFunction,NonConductor*%
%ADD30C,0.20000*%
%ADD31C,0.25400*%
%ADD43C,0.25000*%
%ADD44C,0.60000*%
G36*
X16794418Y3641656D02*
X16676364D01*
Y3776377D01*
X16794418D01*
Y3641656D01*
D02*
G37*
G36*
X15748598D02*
X15630544D01*
Y3776377D01*
X15748598D01*
Y3641656D01*
D02*
G37*
G36*
X17080527Y3615268D02*
X17048582Y3436103D01*
X16974973D01*
X16945805Y3615268D01*
Y3776377D01*
X17080527D01*
Y3615268D01*
D02*
G37*
G36*
X16277757Y3526380D02*
X16293034Y3524991D01*
X16311092Y3522213D01*
X16330534Y3518047D01*
X16351369Y3512491D01*
X16370811Y3504158D01*
X16373590Y3502769D01*
X16379146Y3499991D01*
X16388869Y3495825D01*
X16399979Y3488880D01*
X16413867Y3480547D01*
X16426367Y3469436D01*
X16438867Y3458325D01*
X16449979Y3444437D01*
X16451367Y3443048D01*
X16454144Y3437492D01*
X16458311Y3430548D01*
X16465256Y3420826D01*
X16470811Y3406937D01*
X16476367Y3393048D01*
X16483311Y3376382D01*
X16487479Y3358327D01*
Y3356938D01*
X16488866Y3351382D01*
X16490256Y3343049D01*
X16491644Y3331938D01*
Y3315271D01*
X16493033Y3295827D01*
X16494421Y3272216D01*
Y3243050D01*
Y2815278D01*
X16376369D01*
Y3237495D01*
Y3238884D01*
Y3240272D01*
Y3249995D01*
Y3262494D01*
X16374979Y3277772D01*
X16373590Y3295827D01*
X16370811Y3313883D01*
X16366646Y3330549D01*
X16362479Y3345827D01*
Y3347216D01*
X16359702Y3351382D01*
X16355534Y3358327D01*
X16351369Y3366660D01*
X16344424Y3374993D01*
X16336092Y3384715D01*
X16324980Y3394437D01*
X16312480Y3402770D01*
X16311092Y3404159D01*
X16306924Y3406937D01*
X16298592Y3409715D01*
X16288869Y3413881D01*
X16277757Y3418048D01*
X16263869Y3422215D01*
X16247203Y3423604D01*
X16230536Y3424992D01*
X16223592D01*
X16218036Y3423604D01*
X16204147Y3422215D01*
X16186092Y3419437D01*
X16166647Y3412493D01*
X16144426Y3404159D01*
X16122205Y3393048D01*
X16101370Y3376382D01*
X16098593Y3373604D01*
X16093037Y3366660D01*
X16088870Y3361104D01*
X16084705Y3354160D01*
X16079149Y3345827D01*
X16074983Y3336105D01*
X16069427Y3324994D01*
X16063872Y3311105D01*
X16059705Y3295827D01*
X16055537Y3279161D01*
X16052760Y3261105D01*
X16049983Y3241661D01*
X16047205Y3218050D01*
Y3194440D01*
Y2815278D01*
X15929150D01*
Y3512491D01*
X16034705D01*
Y3412493D01*
X16036095Y3413881D01*
X16038872Y3418048D01*
X16043039Y3423604D01*
X16048595Y3430548D01*
X16056927Y3438881D01*
X16066649Y3448603D01*
X16077760Y3459714D01*
X16091649Y3470825D01*
X16105537Y3480547D01*
X16122205Y3491658D01*
X16140260Y3501380D01*
X16159705Y3509714D01*
X16181926Y3516658D01*
X16204147Y3522213D01*
X16229147Y3526380D01*
X16255536Y3527769D01*
X16266647D01*
X16277757Y3526380D01*
D02*
G37*
G36*
X17488853D02*
X17509686Y3524991D01*
X17531909Y3522213D01*
X17555521Y3516658D01*
X17580521Y3511102D01*
X17604131Y3502769D01*
X17605521D01*
X17606908Y3501380D01*
X17613853Y3498603D01*
X17624963Y3493047D01*
X17638852Y3486103D01*
X17654131Y3476381D01*
X17669408Y3465270D01*
X17683296Y3452770D01*
X17695796Y3438881D01*
X17697185Y3437492D01*
X17699963Y3431937D01*
X17705518Y3422215D01*
X17712463Y3411104D01*
X17719408Y3394437D01*
X17726350Y3376382D01*
X17731908Y3355549D01*
X17737462Y3331938D01*
X17622186Y3316660D01*
Y3319438D01*
X17620798Y3324994D01*
X17618019Y3334716D01*
X17613853Y3347216D01*
X17606908Y3359715D01*
X17598575Y3373604D01*
X17588853Y3387493D01*
X17574963Y3399993D01*
X17573575Y3401382D01*
X17568021Y3404159D01*
X17559686Y3409715D01*
X17547186Y3415270D01*
X17533298Y3420826D01*
X17515244Y3426381D01*
X17493021Y3429159D01*
X17469411Y3430548D01*
X17455521D01*
X17441634Y3429159D01*
X17423576Y3427770D01*
X17405522Y3423604D01*
X17386078Y3419437D01*
X17368022Y3412493D01*
X17352745Y3402770D01*
X17351357Y3401382D01*
X17347189Y3398604D01*
X17341634Y3393048D01*
X17336078Y3384715D01*
X17329134Y3376382D01*
X17323579Y3365271D01*
X17319412Y3352771D01*
X17318024Y3340271D01*
Y3338882D01*
Y3336105D01*
X17319412Y3331938D01*
Y3326382D01*
X17323579Y3312494D01*
X17331912Y3298605D01*
X17333301Y3297216D01*
X17334689Y3295827D01*
X17337466Y3291661D01*
X17343024Y3287494D01*
X17348578Y3283327D01*
X17356911Y3277772D01*
X17366634Y3273605D01*
X17377745Y3268050D01*
X17379134D01*
X17381911Y3266661D01*
X17387466Y3265272D01*
X17397189Y3261105D01*
X17411076Y3256939D01*
X17429134Y3252772D01*
X17440244Y3248606D01*
X17452744Y3245828D01*
X17466632Y3241661D01*
X17481911Y3237495D01*
X17483299D01*
X17487465Y3236106D01*
X17494411Y3234717D01*
X17502744Y3231939D01*
X17512465Y3229161D01*
X17524965Y3226384D01*
X17551353Y3218050D01*
X17580521Y3209717D01*
X17609686Y3199995D01*
X17636075Y3190273D01*
X17647186Y3186106D01*
X17656908Y3181940D01*
X17659686Y3180551D01*
X17665240Y3177773D01*
X17673573Y3173607D01*
X17686073Y3166662D01*
X17698573Y3158329D01*
X17711073Y3147218D01*
X17723573Y3134718D01*
X17734685Y3120829D01*
X17736073Y3119441D01*
X17738850Y3113885D01*
X17744408Y3105552D01*
X17749962Y3093052D01*
X17754129Y3077774D01*
X17759685Y3061108D01*
X17762462Y3041664D01*
X17763850Y3019442D01*
Y3016664D01*
Y3009720D01*
X17762462Y2998609D01*
X17759685Y2983331D01*
X17755518Y2966665D01*
X17748573Y2948609D01*
X17740240Y2927776D01*
X17729129Y2908332D01*
X17727740Y2905554D01*
X17722185Y2899999D01*
X17715240Y2890277D01*
X17704129Y2879166D01*
X17688852Y2866666D01*
X17672185Y2852777D01*
X17652740Y2840277D01*
X17629131Y2827777D01*
X17627740D01*
X17626353Y2826389D01*
X17618019Y2823611D01*
X17604131Y2819444D01*
X17586075Y2813889D01*
X17563853Y2808333D01*
X17538853Y2804167D01*
X17512465Y2801389D01*
X17481911Y2800000D01*
X17469411D01*
X17459688Y2801389D01*
X17448576D01*
X17434688Y2802778D01*
X17420799Y2804167D01*
X17405522Y2806944D01*
X17372189Y2813889D01*
X17337466Y2823611D01*
X17304134Y2837500D01*
X17288857Y2845833D01*
X17274968Y2855555D01*
X17273579Y2856944D01*
X17272189Y2858333D01*
X17263857Y2866666D01*
X17251357Y2879166D01*
X17237468Y2898610D01*
X17222191Y2922221D01*
X17206914Y2949998D01*
X17194414Y2984720D01*
X17184691Y3023608D01*
X17301357Y3041664D01*
Y3040275D01*
Y3038886D01*
X17304134Y3030553D01*
X17306912Y3016664D01*
X17312468Y3001386D01*
X17319412Y2984720D01*
X17327745Y2966665D01*
X17340245Y2948609D01*
X17355524Y2933332D01*
X17358299Y2931943D01*
X17363857Y2927776D01*
X17374966Y2922221D01*
X17388855Y2915276D01*
X17406911Y2908332D01*
X17427744Y2902777D01*
X17452744Y2898610D01*
X17481911Y2897221D01*
X17495799D01*
X17509686Y2898610D01*
X17527744Y2901388D01*
X17547186Y2905554D01*
X17568021Y2911110D01*
X17586075Y2918054D01*
X17602742Y2929165D01*
X17604131Y2930554D01*
X17609686Y2934721D01*
X17615242Y2941665D01*
X17623575Y2951387D01*
X17630519Y2962498D01*
X17637463Y2976387D01*
X17641631Y2990275D01*
X17643019Y3006942D01*
Y3008331D01*
Y3013886D01*
X17641631Y3020831D01*
X17638852Y3030553D01*
X17634686Y3040275D01*
X17627740Y3049997D01*
X17619408Y3061108D01*
X17606908Y3069441D01*
X17605521Y3070830D01*
X17601353Y3072219D01*
X17594409Y3076386D01*
X17583298Y3080552D01*
X17566631Y3086108D01*
X17556909Y3090274D01*
X17545798Y3093052D01*
X17533298Y3097219D01*
X17519409Y3101385D01*
X17504132Y3105552D01*
X17486076Y3109718D01*
X17484688D01*
X17480521Y3111107D01*
X17473576Y3112496D01*
X17465244Y3115274D01*
X17454132Y3118052D01*
X17441634Y3122218D01*
X17415244Y3129163D01*
X17384689Y3138885D01*
X17355524Y3147218D01*
X17327745Y3156940D01*
X17315245Y3162496D01*
X17305524Y3166662D01*
X17302745Y3168051D01*
X17297189Y3170829D01*
X17288857Y3176384D01*
X17277747Y3183329D01*
X17265247Y3193051D01*
X17252747Y3204162D01*
X17240247Y3216662D01*
X17229135Y3231939D01*
X17227747Y3233328D01*
X17224969Y3238884D01*
X17220802Y3248606D01*
X17216635Y3259717D01*
X17212469Y3273605D01*
X17208302Y3290272D01*
X17205524Y3306938D01*
X17204137Y3326382D01*
Y3329160D01*
Y3334716D01*
X17205524Y3343049D01*
X17206914Y3355549D01*
X17209691Y3368049D01*
X17212469Y3383326D01*
X17218024Y3397215D01*
X17224969Y3412493D01*
X17226357Y3413881D01*
X17229135Y3419437D01*
X17233302Y3426381D01*
X17240247Y3436103D01*
X17248579Y3445825D01*
X17258302Y3458325D01*
X17269414Y3469436D01*
X17283301Y3479158D01*
X17284689Y3480547D01*
X17288857Y3481936D01*
X17294412Y3486103D01*
X17302745Y3490269D01*
X17313857Y3495825D01*
X17326357Y3501380D01*
X17341634Y3506936D01*
X17358299Y3512491D01*
X17361078Y3513880D01*
X17366634Y3515269D01*
X17376357Y3518047D01*
X17388855Y3520825D01*
X17404134Y3523602D01*
X17420799Y3524991D01*
X17440244Y3527769D01*
X17473576D01*
X17488853Y3526380D01*
D02*
G37*
G36*
X15155550Y2815278D02*
X15022218D01*
X14650000Y3776377D01*
X14788887D01*
X15038884Y3077774D01*
Y3076386D01*
X15040273Y3073608D01*
X15041663Y3069441D01*
X15044440Y3063886D01*
X15045828Y3055552D01*
X15048605Y3047219D01*
X15055551Y3026386D01*
X15063884Y3002775D01*
X15072217Y2976387D01*
X15088882Y2920832D01*
Y2922221D01*
X15090273Y2924998D01*
X15091661Y2929165D01*
X15093050Y2934721D01*
X15097217Y2949998D01*
X15104161Y2970831D01*
X15111105Y2994442D01*
X15119440Y3020831D01*
X15129161Y3048608D01*
X15140273Y3077774D01*
X15401379Y3776377D01*
X15530545D01*
X15155550Y2815278D01*
D02*
G37*
G36*
X19349944Y3526380D02*
X19370776Y3524991D01*
X19394386Y3522213D01*
X19417998Y3518047D01*
X19441608Y3512491D01*
X19463831Y3505547D01*
X19466608Y3504158D01*
X19473552Y3501380D01*
X19483273Y3497214D01*
X19495773Y3491658D01*
X19509663Y3483325D01*
X19523552Y3474992D01*
X19536052Y3463881D01*
X19547163Y3452770D01*
X19548550Y3451381D01*
X19551329Y3447214D01*
X19555496Y3440270D01*
X19561050Y3431937D01*
X19567996Y3419437D01*
X19573550Y3406937D01*
X19579108Y3391659D01*
X19583273Y3373604D01*
Y3372215D01*
X19584662Y3368049D01*
X19586050Y3359715D01*
X19587440Y3348604D01*
Y3333327D01*
X19588829Y3315271D01*
X19590218Y3291661D01*
Y3265272D01*
Y3106941D01*
Y3105552D01*
Y3099996D01*
Y3091663D01*
Y3080552D01*
Y3068052D01*
Y3052775D01*
X19591606Y3019442D01*
Y2984720D01*
X19592995Y2949998D01*
X19594383Y2934721D01*
Y2920832D01*
X19595773Y2908332D01*
X19597162Y2898610D01*
Y2897221D01*
X19598550Y2891666D01*
X19599940Y2883332D01*
X19604106Y2872221D01*
X19606883Y2859721D01*
X19612440Y2845833D01*
X19619383Y2830555D01*
X19626328Y2815278D01*
X19502719D01*
X19501331Y2816666D01*
X19499940Y2822222D01*
X19497163Y2829166D01*
X19492998Y2840277D01*
X19488831Y2852777D01*
X19486052Y2868055D01*
X19483273Y2884721D01*
X19480498Y2902777D01*
X19479108D01*
X19477719Y2899999D01*
X19469386Y2893054D01*
X19456886Y2883332D01*
X19440219Y2870832D01*
X19419386Y2858333D01*
X19398553Y2844444D01*
X19376331Y2831944D01*
X19352721Y2822222D01*
X19349944Y2820833D01*
X19341611Y2819444D01*
X19329111Y2815278D01*
X19313832Y2811111D01*
X19294388Y2806944D01*
X19272166Y2804167D01*
X19247166Y2801389D01*
X19222166Y2800000D01*
X19211057D01*
X19202722Y2801389D01*
X19192999D01*
X19181889Y2802778D01*
X19156889Y2806944D01*
X19129112Y2813889D01*
X19098557Y2823611D01*
X19070779Y2837500D01*
X19045779Y2855555D01*
X19043002Y2858333D01*
X19036058Y2865277D01*
X19026337Y2877777D01*
X19015225Y2894443D01*
X19004114Y2915276D01*
X18994392Y2938887D01*
X18987447Y2968053D01*
X18986058Y2981942D01*
X18984669Y2998609D01*
Y3001386D01*
Y3006942D01*
X18986058Y3016664D01*
X18987447Y3029164D01*
X18990225Y3044441D01*
X18994392Y3059719D01*
X18999947Y3076386D01*
X19006891Y3091663D01*
X19008279Y3093052D01*
X19011058Y3098607D01*
X19016612Y3106941D01*
X19023558Y3116663D01*
X19031891Y3127774D01*
X19043002Y3138885D01*
X19054112Y3149996D01*
X19068002Y3159718D01*
X19069391Y3161107D01*
X19074947Y3163884D01*
X19081889Y3169440D01*
X19093001Y3174995D01*
X19105501Y3180551D01*
X19120779Y3187495D01*
X19136057Y3193051D01*
X19154112Y3198606D01*
X19155501D01*
X19161057Y3199995D01*
X19169389Y3202773D01*
X19180499Y3204162D01*
X19194389Y3206939D01*
X19212444Y3209717D01*
X19233278Y3213884D01*
X19258276Y3216662D01*
X19259666D01*
X19265222Y3218050D01*
X19272166D01*
X19281888Y3219439D01*
X19292999Y3220828D01*
X19306888Y3223606D01*
X19322165Y3224995D01*
X19338832Y3227773D01*
X19372165Y3234717D01*
X19408275Y3241661D01*
X19440219Y3249995D01*
X19455498Y3254161D01*
X19469386Y3258328D01*
Y3259717D01*
Y3262494D01*
X19470775Y3270828D01*
Y3280550D01*
Y3286105D01*
Y3288883D01*
Y3290272D01*
Y3291661D01*
Y3299994D01*
X19469386Y3313883D01*
X19466608Y3329160D01*
X19462440Y3345827D01*
X19455498Y3362493D01*
X19447163Y3377771D01*
X19436053Y3390271D01*
X19434663Y3391659D01*
X19427721Y3397215D01*
X19416609Y3402770D01*
X19402721Y3411104D01*
X19383276Y3418048D01*
X19361053Y3424992D01*
X19333276Y3429159D01*
X19301332Y3430548D01*
X19287444D01*
X19273555Y3429159D01*
X19254111Y3426381D01*
X19234666Y3423604D01*
X19213834Y3418048D01*
X19194389Y3411104D01*
X19177724Y3401382D01*
X19176334Y3399993D01*
X19170778Y3395826D01*
X19163834Y3388882D01*
X19155501Y3377771D01*
X19147166Y3363882D01*
X19137445Y3345827D01*
X19129112Y3323605D01*
X19120779Y3298605D01*
X19005502Y3313883D01*
Y3315271D01*
X19006891Y3316660D01*
Y3320827D01*
X19008279Y3326382D01*
X19012447Y3338882D01*
X19018002Y3356938D01*
X19024947Y3374993D01*
X19033279Y3394437D01*
X19044391Y3413881D01*
X19056891Y3431937D01*
X19058279Y3433326D01*
X19063835Y3438881D01*
X19072168Y3447214D01*
X19083279Y3458325D01*
X19098557Y3469436D01*
X19116612Y3480547D01*
X19137445Y3493047D01*
X19161057Y3502769D01*
X19162445D01*
X19163834Y3504158D01*
X19168001Y3505547D01*
X19173557Y3506936D01*
X19187445Y3511102D01*
X19206889Y3515269D01*
X19229111Y3519436D01*
X19256888Y3523602D01*
X19286055Y3526380D01*
X19319388Y3527769D01*
X19334665D01*
X19349944Y3526380D01*
D02*
G37*
G36*
X18415231Y2929165D02*
X18888837D01*
Y2815278D01*
X18287456D01*
Y3776377D01*
X18415231D01*
Y2929165D01*
D02*
G37*
G36*
X16794418Y2815278D02*
X16676364D01*
Y3512491D01*
X16794418D01*
Y2815278D01*
D02*
G37*
G36*
X15748598D02*
X15630544D01*
Y3512491D01*
X15748598D01*
Y2815278D01*
D02*
G37*
G36*
X19887436Y3433326D02*
X19888824Y3434714D01*
X19890215Y3437492D01*
X19894382Y3441659D01*
X19901324Y3448603D01*
X19908269Y3455548D01*
X19916603Y3463881D01*
X19927715Y3472214D01*
X19938824Y3480547D01*
X19966602Y3498603D01*
X19998546Y3512491D01*
X20016602Y3519436D01*
X20036046Y3523602D01*
X20056879Y3526380D01*
X20077711Y3527769D01*
X20088823D01*
X20101323Y3526380D01*
X20116600Y3524991D01*
X20134656Y3520825D01*
X20155489Y3516658D01*
X20177710Y3509714D01*
X20198544Y3501380D01*
X20201321Y3499991D01*
X20208266Y3497214D01*
X20219377Y3490269D01*
X20231876Y3481936D01*
X20247154Y3472214D01*
X20262431Y3459714D01*
X20279099Y3444437D01*
X20292987Y3427770D01*
X20294376Y3426381D01*
X20298541Y3419437D01*
X20305487Y3409715D01*
X20313820Y3397215D01*
X20323541Y3380548D01*
X20333264Y3361104D01*
X20342986Y3338882D01*
X20351318Y3315271D01*
Y3313883D01*
X20352708Y3312494D01*
X20354097Y3308327D01*
X20355486Y3304161D01*
X20358264Y3290272D01*
X20362430Y3272216D01*
X20366597Y3251383D01*
X20370764Y3227773D01*
X20372153Y3201384D01*
X20373541Y3173607D01*
Y3172218D01*
Y3165273D01*
Y3156940D01*
X20372153Y3144440D01*
X20370764Y3129163D01*
X20369376Y3112496D01*
X20366597Y3093052D01*
X20362430Y3072219D01*
X20351318Y3027775D01*
X20344376Y3004164D01*
X20336041Y2981942D01*
X20326320Y2958331D01*
X20313820Y2937498D01*
X20299931Y2916665D01*
X20284654Y2897221D01*
X20283266Y2895832D01*
X20280487Y2893054D01*
X20276320Y2888888D01*
X20269376Y2881943D01*
X20259654Y2874999D01*
X20249931Y2866666D01*
X20238821Y2858333D01*
X20224931Y2848611D01*
X20209656Y2840277D01*
X20194377Y2830555D01*
X20156877Y2815278D01*
X20137433Y2808333D01*
X20116600Y2804167D01*
X20094379Y2801389D01*
X20072156Y2800000D01*
X20066602D01*
X20059656Y2801389D01*
X20051323D01*
X20041602Y2802778D01*
X20029102Y2805555D01*
X20001324Y2812500D01*
X19986046Y2818055D01*
X19970769Y2825000D01*
X19954102Y2833333D01*
X19938824Y2843055D01*
X19922157Y2855555D01*
X19906880Y2869444D01*
X19892992Y2884721D01*
X19879103Y2902777D01*
Y2815278D01*
X19769382D01*
Y3776377D01*
X19887436D01*
Y3433326D01*
D02*
G37*
%LPC*%
G36*
X19470775Y3165273D02*
X19469386D01*
X19467998Y3163884D01*
X19463831Y3162496D01*
X19458275Y3161107D01*
X19451331Y3158329D01*
X19442998Y3155551D01*
X19433275Y3152773D01*
X19422163Y3149996D01*
X19409663Y3145829D01*
X19394386Y3143051D01*
X19379109Y3138885D01*
X19361053Y3134718D01*
X19341611Y3130552D01*
X19322165Y3126385D01*
X19299944Y3123607D01*
X19276334Y3119441D01*
X19273555D01*
X19265222Y3118052D01*
X19251334Y3115274D01*
X19236055Y3112496D01*
X19219389Y3109718D01*
X19202722Y3105552D01*
X19187445Y3101385D01*
X19173557Y3095830D01*
X19172166D01*
X19168001Y3093052D01*
X19162445Y3090274D01*
X19156889Y3086108D01*
X19140224Y3074997D01*
X19126334Y3058330D01*
Y3056941D01*
X19123557Y3054164D01*
X19122168Y3048608D01*
X19119389Y3041664D01*
X19116612Y3033330D01*
X19113835Y3024997D01*
X19112447Y3013886D01*
X19111057Y3002775D01*
Y3001386D01*
Y2994442D01*
X19112447Y2986109D01*
X19115224Y2974998D01*
X19119389Y2962498D01*
X19126334Y2949998D01*
X19134668Y2936109D01*
X19145779Y2923610D01*
X19147166Y2922221D01*
X19152724Y2919443D01*
X19161057Y2913887D01*
X19172166Y2908332D01*
X19187445Y2902777D01*
X19205499Y2897221D01*
X19226334Y2894443D01*
X19251334Y2893054D01*
X19262444D01*
X19276334Y2894443D01*
X19291611Y2897221D01*
X19311053Y2899999D01*
X19330499Y2905554D01*
X19351332Y2912499D01*
X19372165Y2922221D01*
X19374942Y2923610D01*
X19380498Y2927776D01*
X19390221Y2934721D01*
X19401331Y2944443D01*
X19413831Y2955554D01*
X19427721Y2969442D01*
X19438831Y2986109D01*
X19449942Y3004164D01*
X19451331Y3005553D01*
X19452719Y3011109D01*
X19455498Y3020831D01*
X19459663Y3033330D01*
X19463831Y3049997D01*
X19466608Y3069441D01*
X19467998Y3093052D01*
X19469386Y3120829D01*
X19470775Y3165273D01*
D02*
G37*
G36*
X20080489Y3430548D02*
X20059656D01*
X20054102Y3429159D01*
X20038823Y3426381D01*
X20020769Y3422215D01*
X19999934Y3413881D01*
X19977713Y3401382D01*
X19966602Y3394437D01*
X19955492Y3384715D01*
X19944380Y3374993D01*
X19933269Y3362493D01*
Y3361104D01*
X19930492Y3359715D01*
X19927715Y3355549D01*
X19924936Y3349993D01*
X19920769Y3343049D01*
X19915215Y3334716D01*
X19911047Y3324994D01*
X19905492Y3313883D01*
X19899936Y3299994D01*
X19895769Y3286105D01*
X19890215Y3269439D01*
X19886047Y3252772D01*
X19883270Y3233328D01*
X19880492Y3212495D01*
X19877715Y3191662D01*
Y3168051D01*
Y3166662D01*
Y3162496D01*
Y3155551D01*
Y3147218D01*
X19879103Y3137496D01*
Y3124996D01*
X19881882Y3098607D01*
X19886047Y3069441D01*
X19891603Y3038886D01*
X19899936Y3011109D01*
X19905492Y2998609D01*
X19911047Y2987498D01*
Y2986109D01*
X19913824Y2983331D01*
X19916603Y2979164D01*
X19920769Y2973609D01*
X19933269Y2958331D01*
X19951324Y2943054D01*
X19972157Y2926387D01*
X19998546Y2911110D01*
X20012434Y2905554D01*
X20029102Y2901388D01*
X20044379Y2898610D01*
X20062434Y2897221D01*
X20069379D01*
X20074934Y2898610D01*
X20090211Y2901388D01*
X20108267Y2905554D01*
X20129100Y2913887D01*
X20151321Y2924998D01*
X20173544Y2941665D01*
X20184656Y2952776D01*
X20195766Y2963887D01*
Y2965276D01*
X20198544Y2966665D01*
X20201321Y2970831D01*
X20204099Y2976387D01*
X20209656Y2983331D01*
X20213821Y2991664D01*
X20219377Y3002775D01*
X20224931Y3013886D01*
X20229099Y3027775D01*
X20234654Y3041664D01*
X20240210Y3058330D01*
X20244376Y3076386D01*
X20247154Y3095830D01*
X20249931Y3116663D01*
X20252710Y3140274D01*
Y3163884D01*
Y3165273D01*
Y3169440D01*
Y3176384D01*
X20251321Y3186106D01*
Y3197217D01*
X20249931Y3211106D01*
X20245766Y3240272D01*
X20240210Y3272216D01*
X20230489Y3306938D01*
X20216599Y3337493D01*
X20208266Y3352771D01*
X20198544Y3365271D01*
Y3366660D01*
X20195766Y3368049D01*
X20188821Y3374993D01*
X20177710Y3386104D01*
X20162433Y3398604D01*
X20142989Y3409715D01*
X20120767Y3420826D01*
X20094379Y3427770D01*
X20080489Y3430548D01*
D02*
G37*
%LPD*%
D30*
X2829642Y15209969D02*
G03*
X2570358Y15209969I-129642J-109968D01*
G01*
Y14990031D02*
G03*
X2829642Y14990031I129642J109968D01*
G01*
X10979641Y11709968D02*
G03*
X10720358Y11709968I-129642J-109968D01*
G01*
Y11490032D02*
G03*
X10979641Y11490032I129642J109968D01*
G01*
X4529642Y11709968D02*
G03*
X4270358Y11709968I-129642J-109968D01*
G01*
Y11490032D02*
G03*
X4529642Y11490032I129642J109968D01*
G01*
X1129642Y11709968D02*
G03*
X870358Y11709968I-129642J-109968D01*
G01*
Y11490032D02*
G03*
X1129642Y11490032I129642J109968D01*
G01*
X18529642Y14809969D02*
G03*
X18270358Y14809969I-129642J-109968D01*
G01*
Y14590031D02*
G03*
X18529642Y14590031I129642J109968D01*
G01*
X11829642Y19309969D02*
G03*
X11570358Y19309969I-129642J-109968D01*
G01*
Y19090031D02*
G03*
X11829642Y19090031I129642J109968D01*
G01*
X10129642Y19309969D02*
G03*
X9870358Y19309969I-129642J-109968D01*
G01*
Y19090031D02*
G03*
X10129642Y19090031I129642J109968D01*
G01*
X8429642Y19309969D02*
G03*
X8170358Y19309969I-129642J-109968D01*
G01*
Y19090031D02*
G03*
X8429642Y19090031I129642J109968D01*
G01*
X15129642Y21559969D02*
G03*
X14870358Y21559969I-129642J-109968D01*
G01*
Y21340031D02*
G03*
X15129642Y21340031I129642J109968D01*
G01*
X11829642Y21559969D02*
G03*
X11570358Y21559969I-129642J-109968D01*
G01*
Y21340031D02*
G03*
X11829642Y21340031I129642J109968D01*
G01*
X10129642Y21559969D02*
G03*
X9870358Y21559969I-129642J-109968D01*
G01*
Y21340031D02*
G03*
X10129642Y21340031I129642J109968D01*
G01*
X8429642Y21559969D02*
G03*
X8170358Y21559969I-129642J-109968D01*
G01*
Y21340031D02*
G03*
X8429642Y21340031I129642J109968D01*
G01*
X14990401Y19789600D02*
Y21110400D01*
X16209599D01*
Y19789600D02*
Y21110400D01*
X14990401Y19789600D02*
X16209599D01*
X18390401Y13039600D02*
Y14360400D01*
X19609599D01*
Y13039600D02*
Y14360400D01*
X18390401Y13039600D02*
X19609599D01*
X2717000Y15050000D02*
Y15100000D01*
X2683000D02*
X2717000D01*
X2683000D02*
X2717000Y15075000D01*
X2683000Y15100000D02*
X2717000Y15125000D01*
Y15100000D02*
Y15150000D01*
X2683000Y15100000D02*
X2717000Y15050000D01*
X2683000Y15100000D02*
X2717000Y15150000D01*
X2683000Y15050000D02*
Y15150000D01*
X520000Y7655000D02*
X580000D01*
Y7945000D01*
X520000D02*
X580000D01*
X520000Y7655000D02*
Y7945000D01*
X1695000Y6420000D02*
Y6480000D01*
X1405000D02*
X1695000D01*
X1405000Y6420000D02*
Y6480000D01*
Y6420000D02*
X1695000D01*
X3750000Y10745000D02*
Y10855000D01*
X5895000Y9750000D02*
X6005000D01*
X5895000Y8100000D02*
X6005000D01*
X5740000Y1445000D02*
X6060000D01*
X5740000Y1955000D02*
X6060000D01*
Y1445000D02*
Y1955000D01*
X5740000Y1445000D02*
Y1955000D01*
X7040000Y11945000D02*
X7360000D01*
X7040000Y12455000D02*
X7360000D01*
Y11945000D02*
Y12455000D01*
X7040000Y11945000D02*
Y12455000D01*
Y15445000D02*
X7360000D01*
X7040000Y15955000D02*
X7360000D01*
Y15445000D02*
Y15955000D01*
X7040000Y15445000D02*
Y15955000D01*
Y17945000D02*
X7360000D01*
X7040000Y18455000D02*
X7360000D01*
Y17945000D02*
Y18455000D01*
X7040000Y17945000D02*
Y18455000D01*
Y20145000D02*
X7360000D01*
X7040000Y20655000D02*
X7360000D01*
Y20145000D02*
Y20655000D01*
X7040000Y20145000D02*
Y20655000D01*
X3739608Y4015400D02*
X5060408D01*
X3739608D02*
Y5234600D01*
X5060408D01*
Y4015400D02*
Y5234600D01*
X18390401Y15289600D02*
Y16610400D01*
X19609599D01*
Y15289600D02*
Y16610400D01*
X18390401Y15289600D02*
X19609599D01*
X18390401Y17539600D02*
Y18860400D01*
X19609599D01*
Y17539600D02*
Y18860400D01*
X18390401Y17539600D02*
X19609599D01*
X18390401Y19789600D02*
Y21110400D01*
X19609599D01*
Y19789600D02*
Y21110400D01*
X18390401Y19789600D02*
X19609599D01*
X16690401Y13039600D02*
Y14360400D01*
X17909599D01*
Y13039600D02*
Y14360400D01*
X16690401Y13039600D02*
X17909599D01*
X16690401Y15289600D02*
Y16610400D01*
X17909599D01*
Y15289600D02*
Y16610400D01*
X16690401Y15289600D02*
X17909599D01*
X16690401Y17539600D02*
Y18860400D01*
X17909599D01*
Y17539600D02*
Y18860400D01*
X16690401Y17539600D02*
X17909599D01*
X16690401Y19789600D02*
Y21110400D01*
X17909599D01*
Y19789600D02*
Y21110400D01*
X16690401Y19789600D02*
X17909599D01*
X14990401Y13039600D02*
Y14360400D01*
X16209599D01*
Y13039600D02*
Y14360400D01*
X14990401Y13039600D02*
X16209599D01*
X14990401Y15289600D02*
Y16610400D01*
X16209599D01*
Y15289600D02*
Y16610400D01*
X14990401Y15289600D02*
X16209599D01*
X14990401Y17539600D02*
Y18860400D01*
X16209599D01*
Y17539600D02*
Y18860400D01*
X14990401Y17539600D02*
X16209599D01*
X12790400Y13039600D02*
Y14360400D01*
X14009599D01*
Y13039600D02*
Y14360400D01*
X12790400Y13039600D02*
X14009599D01*
X11090400D02*
Y14360400D01*
X12309600D01*
Y13039600D02*
Y14360400D01*
X11090400Y13039600D02*
X12309600D01*
X9390400D02*
Y14360400D01*
X10609600D01*
Y13039600D02*
Y14360400D01*
X9390400Y13039600D02*
X10609600D01*
X7690400D02*
Y14360400D01*
X8909600D01*
Y13039600D02*
Y14360400D01*
X7690400Y13039600D02*
X8909600D01*
X12790400Y15289600D02*
Y16610400D01*
X14009599D01*
Y15289600D02*
Y16610400D01*
X12790400Y15289600D02*
X14009599D01*
X11090400D02*
Y16610400D01*
X12309600D01*
Y15289600D02*
Y16610400D01*
X11090400Y15289600D02*
X12309600D01*
X9390400D02*
Y16610400D01*
X10609600D01*
Y15289600D02*
Y16610400D01*
X9390400Y15289600D02*
X10609600D01*
X7690400D02*
Y16610400D01*
X8909600D01*
Y15289600D02*
Y16610400D01*
X7690400Y15289600D02*
X8909600D01*
X12790400Y17539600D02*
Y18860400D01*
X14009599D01*
Y17539600D02*
Y18860400D01*
X12790400Y17539600D02*
X14009599D01*
X11090400D02*
Y18860400D01*
X12309600D01*
Y17539600D02*
Y18860400D01*
X11090400Y17539600D02*
X12309600D01*
X9390400D02*
Y18860400D01*
X10609600D01*
Y17539600D02*
Y18860400D01*
X9390400Y17539600D02*
X10609600D01*
X7690400D02*
Y18860400D01*
X8909600D01*
Y17539600D02*
Y18860400D01*
X7690400Y17539600D02*
X8909600D01*
X12790400Y19789600D02*
Y21110400D01*
X14009599D01*
Y19789600D02*
Y21110400D01*
X12790400Y19789600D02*
X14009599D01*
X11090400D02*
Y21110400D01*
X12309600D01*
Y19789600D02*
Y21110400D01*
X11090400Y19789600D02*
X12309600D01*
X9390400D02*
Y21110400D01*
X10609600D01*
Y19789600D02*
Y21110400D01*
X9390400Y19789600D02*
X10609600D01*
X7690400D02*
Y21110400D01*
X8909600D01*
Y19789600D02*
Y21110400D01*
X7690400Y19789600D02*
X8909600D01*
X12790400Y9589600D02*
Y10910400D01*
X14009599D01*
Y9589600D02*
Y10910400D01*
X12790400Y9589600D02*
X14009599D01*
X12790400Y7339600D02*
Y8660400D01*
X14009599D01*
Y7339600D02*
Y8660400D01*
X12790400Y7339600D02*
X14009599D01*
X12790400Y5089600D02*
Y6410400D01*
X14009599D01*
Y5089600D02*
Y6410400D01*
X12790400Y5089600D02*
X14009599D01*
X12790400Y2839600D02*
Y4160400D01*
X14009599D01*
Y2839600D02*
Y4160400D01*
X12790400Y2839600D02*
X14009599D01*
X11090400D02*
Y4160400D01*
X12309600D01*
Y2839600D02*
Y4160400D01*
X11090400Y2839600D02*
X12309600D01*
X9390400D02*
Y4160400D01*
X10609600D01*
Y2839600D02*
Y4160400D01*
X9390400Y2839600D02*
X10609600D01*
X11090400Y9589600D02*
Y10910400D01*
X12309600D01*
Y9589600D02*
Y10910400D01*
X11090400Y9589600D02*
X12309600D01*
X9390400D02*
Y10910400D01*
X10609600D01*
Y9589600D02*
Y10910400D01*
X9390400Y9589600D02*
X10609600D01*
X7690400D02*
Y10910400D01*
X8909600D01*
Y9589600D02*
Y10910400D01*
X7690400Y9589600D02*
X8909600D01*
X11090400Y7339600D02*
Y8660400D01*
X12309600D01*
Y7339600D02*
Y8660400D01*
X11090400Y7339600D02*
X12309600D01*
X9390400D02*
Y8660400D01*
X10609600D01*
Y7339600D02*
Y8660400D01*
X9390400Y7339600D02*
X10609600D01*
X7690400D02*
Y8660400D01*
X8909600D01*
Y7339600D02*
Y8660400D01*
X7690400Y7339600D02*
X8909600D01*
X11090400Y5089600D02*
Y6410400D01*
X12309600D01*
Y5089600D02*
Y6410400D01*
X11090400Y5089600D02*
X12309600D01*
X9390400D02*
Y6410400D01*
X10609600D01*
Y5089600D02*
Y6410400D01*
X9390400Y5089600D02*
X10609600D01*
X7690400D02*
Y6410400D01*
X8909600D01*
Y5089600D02*
Y6410400D01*
X7690400Y5089600D02*
X8909600D01*
X7690400Y2839600D02*
Y4160400D01*
X8909600D01*
Y2839600D02*
Y4160400D01*
X7690400Y2839600D02*
X8909600D01*
X3739600Y2815400D02*
X5060400D01*
X3739600D02*
Y4034600D01*
X5060400D01*
Y2815400D02*
Y4034600D01*
X3739600Y5215400D02*
X5060400D01*
X3739600D02*
Y6434600D01*
X5060400D01*
Y5215400D02*
Y6434600D01*
X5490400Y3964600D02*
Y5285400D01*
X6709600D01*
Y3964600D02*
Y5285400D01*
X5490400Y3964600D02*
X6709600D01*
X2090400D02*
Y5285400D01*
X3309600D01*
Y3964600D02*
Y5285400D01*
X2090400Y3964600D02*
X3309600D01*
X390400Y9589600D02*
Y10910400D01*
X1609600D01*
Y9589600D02*
Y10910400D01*
X390400Y9589600D02*
X1609600D01*
X5490400Y13039600D02*
Y14360400D01*
X6709600D01*
Y13039600D02*
Y14360400D01*
X5490400Y13039600D02*
X6709600D01*
X3790400D02*
Y14360400D01*
X5009600D01*
Y13039600D02*
Y14360400D01*
X3790400Y13039600D02*
X5009600D01*
X2090400D02*
Y14360400D01*
X3309600D01*
Y13039600D02*
Y14360400D01*
X2090400Y13039600D02*
X3309600D01*
X390400D02*
Y14360400D01*
X1609600D01*
Y13039600D02*
Y14360400D01*
X390400Y13039600D02*
X1609600D01*
X5490400Y15289600D02*
Y16610400D01*
X6709600D01*
Y15289600D02*
Y16610400D01*
X5490400Y15289600D02*
X6709600D01*
X3790400D02*
Y16610400D01*
X5009600D01*
Y15289600D02*
Y16610400D01*
X3790400Y15289600D02*
X5009600D01*
X2090400D02*
Y16610400D01*
X3309600D01*
Y15289600D02*
Y16610400D01*
X2090400Y15289600D02*
X3309600D01*
X390400D02*
Y16610400D01*
X1609600D01*
Y15289600D02*
Y16610400D01*
X390400Y15289600D02*
X1609600D01*
X5490400Y17539600D02*
Y18860400D01*
X6709600D01*
Y17539600D02*
Y18860400D01*
X5490400Y17539600D02*
X6709600D01*
X3790400D02*
Y18860400D01*
X5009600D01*
Y17539600D02*
Y18860400D01*
X3790400Y17539600D02*
X5009600D01*
X2090400D02*
Y18860400D01*
X3309600D01*
Y17539600D02*
Y18860400D01*
X2090400Y17539600D02*
X3309600D01*
X390400D02*
Y18860400D01*
X1609600D01*
Y17539600D02*
Y18860400D01*
X390400Y17539600D02*
X1609600D01*
X5490400Y19789600D02*
Y21110400D01*
X6709600D01*
Y19789600D02*
Y21110400D01*
X5490400Y19789600D02*
X6709600D01*
X3790400D02*
Y21110400D01*
X5009600D01*
Y19789600D02*
Y21110400D01*
X3790400Y19789600D02*
X5009600D01*
X2090400D02*
Y21110400D01*
X3309600D01*
Y19789600D02*
Y21110400D01*
X2090400Y19789600D02*
X3309600D01*
X390400D02*
Y21110400D01*
X1609600D01*
Y19789600D02*
Y21110400D01*
X390400Y19789600D02*
X1609600D01*
X6445000Y1800000D02*
X6555000D01*
X7345000Y14700000D02*
X7455000D01*
X7345000Y16900000D02*
X7455000D01*
X7145000Y19200000D02*
X7255000D01*
X7545000Y21400000D02*
X7655000D01*
X8145000Y12700000D02*
X8255000D01*
X10867000Y11550000D02*
Y11600000D01*
X10833000D02*
X10867000D01*
X10833000D02*
X10867000Y11575000D01*
X10833000Y11600000D02*
X10867000Y11625000D01*
Y11600000D02*
Y11650000D01*
X10833000Y11600000D02*
X10867000Y11550000D01*
X10833000Y11600000D02*
X10867000Y11650000D01*
X10833000Y11550000D02*
Y11650000D01*
X4417000Y11550000D02*
Y11600000D01*
X4383000D02*
X4417000D01*
X4383000D02*
X4417000Y11575000D01*
X4383000Y11600000D02*
X4417000Y11625000D01*
Y11600000D02*
Y11650000D01*
X4383000Y11600000D02*
X4417000Y11550000D01*
X4383000Y11600000D02*
X4417000Y11650000D01*
X4383000Y11550000D02*
Y11650000D01*
X1017000Y11550000D02*
Y11600000D01*
X983000D02*
X1017000D01*
X983000D02*
X1017000Y11575000D01*
X983000Y11600000D02*
X1017000Y11625000D01*
Y11600000D02*
Y11650000D01*
X983000Y11600000D02*
X1017000Y11550000D01*
X983000Y11600000D02*
X1017000Y11650000D01*
X983000Y11550000D02*
Y11650000D01*
X18417000Y14650000D02*
Y14700000D01*
X18383000D02*
X18417000D01*
X18383000D02*
X18417000Y14675000D01*
X18383000Y14700000D02*
X18417000Y14725000D01*
Y14700000D02*
Y14750000D01*
X18383000Y14700000D02*
X18417000Y14650000D01*
X18383000Y14700000D02*
X18417000Y14750000D01*
X18383000Y14650000D02*
Y14750000D01*
X11717000Y19150000D02*
Y19200000D01*
X11683000D02*
X11717000D01*
X11683000D02*
X11717000Y19175000D01*
X11683000Y19200000D02*
X11717000Y19225000D01*
Y19200000D02*
Y19250000D01*
X11683000Y19200000D02*
X11717000Y19150000D01*
X11683000Y19200000D02*
X11717000Y19250000D01*
X11683000Y19150000D02*
Y19250000D01*
X10017000Y19150000D02*
Y19200000D01*
X9983000D02*
X10017000D01*
X9983000D02*
X10017000Y19175000D01*
X9983000Y19200000D02*
X10017000Y19225000D01*
Y19200000D02*
Y19250000D01*
X9983000Y19200000D02*
X10017000Y19150000D01*
X9983000Y19200000D02*
X10017000Y19250000D01*
X9983000Y19150000D02*
Y19250000D01*
X8317000Y19150000D02*
Y19200000D01*
X8283000D02*
X8317000D01*
X8283000D02*
X8317000Y19175000D01*
X8283000Y19200000D02*
X8317000Y19225000D01*
Y19200000D02*
Y19250000D01*
X8283000Y19200000D02*
X8317000Y19150000D01*
X8283000Y19200000D02*
X8317000Y19250000D01*
X8283000Y19150000D02*
Y19250000D01*
X15017000Y21400000D02*
Y21450000D01*
X14983000D02*
X15017000D01*
X14983000D02*
X15017000Y21425000D01*
X14983000Y21450000D02*
X15017000Y21475000D01*
Y21450000D02*
Y21500000D01*
X14983000Y21450000D02*
X15017000Y21400000D01*
X14983000Y21450000D02*
X15017000Y21500000D01*
X14983000Y21400000D02*
Y21500000D01*
X11717000Y21400000D02*
Y21450000D01*
X11683000D02*
X11717000D01*
X11683000D02*
X11717000Y21425000D01*
X11683000Y21450000D02*
X11717000Y21475000D01*
Y21450000D02*
Y21500000D01*
X11683000Y21450000D02*
X11717000Y21400000D01*
X11683000Y21450000D02*
X11717000Y21500000D01*
X11683000Y21400000D02*
Y21500000D01*
X10017000Y21400000D02*
Y21450000D01*
X9983000D02*
X10017000D01*
X9983000D02*
X10017000Y21425000D01*
X9983000Y21450000D02*
X10017000Y21475000D01*
Y21450000D02*
Y21500000D01*
X9983000Y21450000D02*
X10017000Y21400000D01*
X9983000Y21450000D02*
X10017000Y21500000D01*
X9983000Y21400000D02*
Y21500000D01*
X8317000Y21400000D02*
Y21450000D01*
X8283000D02*
X8317000D01*
X8283000D02*
X8317000Y21425000D01*
X8283000Y21450000D02*
X8317000Y21475000D01*
Y21450000D02*
Y21500000D01*
X8283000Y21450000D02*
X8317000Y21400000D01*
X8283000Y21450000D02*
X8317000Y21500000D01*
X8283000Y21400000D02*
Y21500000D01*
X13770000Y4645000D02*
X13830000D01*
X13770000Y4355000D02*
Y4645000D01*
Y4355000D02*
X13830000D01*
Y4645000D01*
X12055000Y4650000D02*
X12115000D01*
X12055000Y4360000D02*
Y4650000D01*
Y4360000D02*
X12115000D01*
Y4650000D01*
X10355000D02*
X10415000D01*
X10355000Y4360000D02*
Y4650000D01*
Y4360000D02*
X10415000D01*
Y4650000D01*
X8670000Y4645000D02*
X8730000D01*
X8670000Y4355000D02*
Y4645000D01*
Y4355000D02*
X8730000D01*
Y4645000D01*
X5370000Y2855000D02*
X5430000D01*
Y3145000D01*
X5370000D02*
X5430000D01*
X5370000Y2855000D02*
Y3145000D01*
X13770000Y6845000D02*
X13830000D01*
X13770000Y6555000D02*
Y6845000D01*
Y6555000D02*
X13830000D01*
Y6845000D01*
X12055000Y6850000D02*
X12115000D01*
X12055000Y6560000D02*
Y6850000D01*
Y6560000D02*
X12115000D01*
Y6850000D01*
X10370000Y6845000D02*
X10430000D01*
X10370000Y6555000D02*
Y6845000D01*
Y6555000D02*
X10430000D01*
Y6845000D01*
X8670000D02*
X8730000D01*
X8670000Y6555000D02*
Y6845000D01*
Y6555000D02*
X8730000D01*
Y6845000D01*
X6470000Y5745000D02*
X6530000D01*
X6470000Y5455000D02*
Y5745000D01*
Y5455000D02*
X6530000D01*
Y5745000D01*
X5370000D02*
X5430000D01*
X5370000Y5455000D02*
Y5745000D01*
Y5455000D02*
X5430000D01*
Y5745000D01*
X3055000Y5750000D02*
X3115000D01*
X3055000Y5460000D02*
Y5750000D01*
Y5460000D02*
X3115000D01*
Y5750000D01*
X13770000Y9145000D02*
X13830000D01*
X13770000Y8855000D02*
Y9145000D01*
Y8855000D02*
X13830000D01*
Y9145000D01*
X12055000Y9150000D02*
X12115000D01*
X12055000Y8860000D02*
Y9150000D01*
Y8860000D02*
X12115000D01*
Y9150000D01*
X10355000Y9140000D02*
X10415000D01*
X10355000Y8850000D02*
Y9140000D01*
Y8850000D02*
X10415000D01*
Y9140000D01*
X8670000Y9145000D02*
X8730000D01*
X8670000Y8855000D02*
Y9145000D01*
Y8855000D02*
X8730000D01*
Y9145000D01*
X4870000Y6845000D02*
X4930000D01*
X4870000Y6555000D02*
Y6845000D01*
Y6555000D02*
X4930000D01*
Y6845000D01*
X13770000Y11345000D02*
X13830000D01*
X13770000Y11055000D02*
Y11345000D01*
Y11055000D02*
X13830000D01*
Y11345000D01*
X12070000D02*
X12130000D01*
X12070000Y11055000D02*
Y11345000D01*
Y11055000D02*
X12130000D01*
Y11345000D01*
X10070000D02*
X10130000D01*
X10070000Y11055000D02*
Y11345000D01*
Y11055000D02*
X10130000D01*
Y11345000D01*
X8670000D02*
X8730000D01*
X8670000Y11055000D02*
Y11345000D01*
Y11055000D02*
X8730000D01*
Y11345000D01*
X1470000D02*
X1530000D01*
X1470000Y11055000D02*
Y11345000D01*
Y11055000D02*
X1530000D01*
Y11345000D01*
X19370000Y14845000D02*
X19430000D01*
X19370000Y14555000D02*
Y14845000D01*
Y14555000D02*
X19430000D01*
Y14845000D01*
X17670000D02*
X17730000D01*
X17670000Y14555000D02*
Y14845000D01*
Y14555000D02*
X17730000D01*
Y14845000D01*
X15970000D02*
X16030000D01*
X15970000Y14555000D02*
Y14845000D01*
Y14555000D02*
X16030000D01*
Y14845000D01*
X13770000D02*
X13830000D01*
X13770000Y14555000D02*
Y14845000D01*
Y14555000D02*
X13830000D01*
Y14845000D01*
X12055000Y14850000D02*
X12115000D01*
X12055000Y14560001D02*
Y14850000D01*
Y14560001D02*
X12115000D01*
Y14850000D01*
X10470000Y14845000D02*
X10530000D01*
X10470000Y14555000D02*
Y14845000D01*
Y14555000D02*
X10530000D01*
Y14845000D01*
X8670000D02*
X8730000D01*
X8670000Y14555000D02*
Y14845000D01*
Y14555000D02*
X8730000D01*
Y14845000D01*
X6470000D02*
X6530000D01*
X6470000Y14555000D02*
Y14845000D01*
Y14555000D02*
X6530000D01*
Y14845000D01*
X4755000Y14850000D02*
X4815000D01*
X4755000Y14560001D02*
Y14850000D01*
Y14560001D02*
X4815000D01*
Y14850000D01*
X3170000Y14845000D02*
X3230000D01*
X3170000Y14555000D02*
Y14845000D01*
Y14555000D02*
X3230000D01*
Y14845000D01*
X1370000D02*
X1430000D01*
X1370000Y14555000D02*
Y14845000D01*
Y14555000D02*
X1430000D01*
Y14845000D01*
X19370000Y17045000D02*
X19430000D01*
X19370000Y16755000D02*
Y17045000D01*
Y16755000D02*
X19430000D01*
Y17045000D01*
X17670000D02*
X17730000D01*
X17670000Y16755000D02*
Y17045000D01*
Y16755000D02*
X17730000D01*
Y17045000D01*
X15970000D02*
X16030000D01*
X15970000Y16755000D02*
Y17045000D01*
Y16755000D02*
X16030000D01*
Y17045000D01*
X13770000D02*
X13830000D01*
X13770000Y16755000D02*
Y17045000D01*
Y16755000D02*
X13830000D01*
Y17045000D01*
X12070000D02*
X12130000D01*
X12070000Y16755000D02*
Y17045000D01*
Y16755000D02*
X12130000D01*
Y17045000D01*
X10355000Y17050000D02*
X10415000D01*
X10355000Y16760001D02*
Y17050000D01*
Y16760001D02*
X10415000D01*
Y17050000D01*
X8670000Y17045000D02*
X8730000D01*
X8670000Y16755000D02*
Y17045000D01*
Y16755000D02*
X8730000D01*
Y17045000D01*
X6170000D02*
X6230000D01*
X6170000Y16755000D02*
Y17045000D01*
Y16755000D02*
X6230000D01*
Y17045000D01*
X4470000D02*
X4530000D01*
X4470000Y16755000D02*
Y17045000D01*
Y16755000D02*
X4530000D01*
Y17045000D01*
X2770000D02*
X2830000D01*
X2770000Y16755000D02*
Y17045000D01*
Y16755000D02*
X2830000D01*
Y17045000D01*
X1070000D02*
X1130000D01*
X1070000Y16755000D02*
Y17045000D01*
Y16755000D02*
X1130000D01*
Y17045000D01*
X19070000Y19345000D02*
X19130000D01*
X19070000Y19055000D02*
Y19345000D01*
Y19055000D02*
X19130000D01*
Y19345000D01*
X17485001D02*
X17545000D01*
X17485001Y19055000D02*
Y19345000D01*
Y19055000D02*
X17545000D01*
Y19345000D01*
X15670000D02*
X15730000D01*
X15670000Y19055000D02*
Y19345000D01*
Y19055000D02*
X15730000D01*
Y19345000D01*
X13470000D02*
X13530000D01*
X13470000Y19055000D02*
Y19345000D01*
Y19055000D02*
X13530000D01*
Y19345000D01*
X12185000D02*
X12245000D01*
X12185000Y19055000D02*
Y19345000D01*
Y19055000D02*
X12245000D01*
Y19345000D01*
X10485000D02*
X10545000D01*
X10485000Y19055000D02*
Y19345000D01*
Y19055000D02*
X10545000D01*
Y19345000D01*
X8870000D02*
X8930000D01*
X8870000Y19055000D02*
Y19345000D01*
Y19055000D02*
X8930000D01*
Y19345000D01*
X6070000D02*
X6130000D01*
X6070000Y19055000D02*
Y19345000D01*
Y19055000D02*
X6130000D01*
Y19345000D01*
X4370000D02*
X4430000D01*
X4370000Y19055000D02*
Y19345000D01*
Y19055000D02*
X4430000D01*
Y19345000D01*
X2785000D02*
X2845000D01*
X2785000Y19055000D02*
Y19345000D01*
Y19055000D02*
X2845000D01*
Y19345000D01*
X970000D02*
X1030000D01*
X970000Y19055000D02*
Y19345000D01*
Y19055000D02*
X1030000D01*
Y19345000D01*
X19070000Y21545000D02*
X19130000D01*
X19070000Y21255000D02*
Y21545000D01*
Y21255000D02*
X19130000D01*
Y21545000D01*
X17370000D02*
X17430000D01*
X17370000Y21255000D02*
Y21545000D01*
Y21255000D02*
X17430000D01*
Y21545000D01*
X16070000D02*
X16130000D01*
X16070000Y21255000D02*
Y21545000D01*
Y21255000D02*
X16130000D01*
Y21545000D01*
X13385001D02*
X13445000D01*
X13385001Y21255000D02*
Y21545000D01*
Y21255000D02*
X13445000D01*
Y21545000D01*
X12170000D02*
X12230000D01*
X12170000Y21255000D02*
Y21545000D01*
Y21255000D02*
X12230000D01*
Y21545000D01*
X10470000D02*
X10530000D01*
X10470000Y21255000D02*
Y21545000D01*
Y21255000D02*
X10530000D01*
Y21545000D01*
X8770000D02*
X8830000D01*
X8770000Y21255000D02*
Y21545000D01*
Y21255000D02*
X8830000D01*
Y21545000D01*
X6085000D02*
X6145000D01*
X6085000Y21255000D02*
Y21545000D01*
Y21255000D02*
X6145000D01*
Y21545000D01*
X4485000D02*
X4545000D01*
X4485000Y21255000D02*
Y21545000D01*
Y21255000D02*
X4545000D01*
Y21545000D01*
X2770000D02*
X2830000D01*
X2770000Y21255000D02*
Y21545000D01*
Y21255000D02*
X2830000D01*
Y21545000D01*
X970000D02*
X1030000D01*
X970000Y21255000D02*
Y21545000D01*
Y21255000D02*
X1030000D01*
Y21545000D01*
D31*
X15398433Y21350784D02*
X15373041Y21376175D01*
X15322258D01*
X15296866Y21350784D01*
Y21325392D01*
X15322258Y21300000D01*
X15373041D01*
X15398433Y21274608D01*
Y21249217D01*
X15373041Y21223825D01*
X15322258D01*
X15296866Y21249217D01*
X15550784Y21376175D02*
X15449216D01*
Y21300000D01*
X15500000Y21325392D01*
X15525392D01*
X15550784Y21300000D01*
Y21249217D01*
X15525392Y21223825D01*
X15474608D01*
X15449216Y21249217D01*
X15677744Y21223825D02*
Y21376175D01*
X15601567Y21300000D01*
X15703134D01*
X18798433Y14600784D02*
X18773041Y14626175D01*
X18722258D01*
X18696866Y14600784D01*
Y14575392D01*
X18722258Y14550000D01*
X18773041D01*
X18798433Y14524608D01*
Y14499217D01*
X18773041Y14473825D01*
X18722258D01*
X18696866Y14499217D01*
X18950784Y14626175D02*
X18900000Y14600784D01*
X18849217Y14550000D01*
Y14499217D01*
X18874608Y14473825D01*
X18925392D01*
X18950784Y14499217D01*
Y14524608D01*
X18925392Y14550000D01*
X18849217D01*
X19103136Y14626175D02*
X19001567D01*
Y14550000D01*
X19052351Y14575392D01*
X19077744D01*
X19103136Y14550000D01*
Y14499217D01*
X19077744Y14473825D01*
X19026959D01*
X19001567Y14499217D01*
X2496866Y14876175D02*
Y14723825D01*
X2598433D01*
X2649216Y14876175D02*
Y14723825D01*
X2725392D01*
X2750784Y14749217D01*
Y14850784D01*
X2725392Y14876175D01*
X2649216D01*
X2801567Y14850784D02*
X2826959Y14876175D01*
X2877743D01*
X2903134Y14850784D01*
Y14825392D01*
X2877743Y14800000D01*
X2903134Y14774608D01*
Y14749217D01*
X2877743Y14723825D01*
X2826959D01*
X2801567Y14749217D01*
Y14774608D01*
X2826959Y14800000D01*
X2801567Y14825392D01*
Y14850784D01*
X2826959Y14800000D02*
X2877743D01*
X378550Y8233021D02*
Y8080670D01*
X454725D01*
X480117Y8106062D01*
Y8207629D01*
X454725Y8233021D01*
X378550D01*
X632468D02*
X581684Y8207629D01*
X530901Y8156845D01*
Y8106062D01*
X556293Y8080670D01*
X607076D01*
X632468Y8106062D01*
Y8131453D01*
X607076Y8156845D01*
X530901D01*
X683251Y8207629D02*
X708643Y8233021D01*
X759427D01*
X784819Y8207629D01*
Y8182237D01*
X759427Y8156845D01*
X784819Y8131453D01*
Y8106062D01*
X759427Y8080670D01*
X708643D01*
X683251Y8106062D01*
Y8131453D01*
X708643Y8156845D01*
X683251Y8182237D01*
Y8207629D01*
X708643Y8156845D02*
X759427D01*
X1370480Y6875211D02*
Y6722860D01*
X1446655D01*
X1472047Y6748252D01*
Y6849819D01*
X1446655Y6875211D01*
X1370480D01*
X1624398D02*
X1573614Y6849819D01*
X1522831Y6799035D01*
Y6748252D01*
X1548222Y6722860D01*
X1599006D01*
X1624398Y6748252D01*
Y6773644D01*
X1599006Y6799035D01*
X1522831D01*
X1675181Y6875211D02*
X1776749D01*
Y6849819D01*
X1675181Y6748252D01*
Y6722860D01*
X3623041Y10923825D02*
Y11076175D01*
X3699217D01*
X3724609Y11050784D01*
Y11000000D01*
X3699217Y10974608D01*
X3623041D01*
X3673825D02*
X3724609Y10923825D01*
X3775392Y11050784D02*
X3800784Y11076175D01*
X3851567D01*
X3876959Y11050784D01*
Y11025392D01*
X3851567Y11000000D01*
X3876959Y10974608D01*
Y10949217D01*
X3851567Y10923825D01*
X3800784D01*
X3775392Y10949217D01*
Y10974608D01*
X3800784Y11000000D01*
X3775392Y11025392D01*
Y11050784D01*
X3800784Y11000000D02*
X3851567D01*
X5878040Y10003500D02*
Y10155851D01*
X5954215D01*
X5979607Y10130459D01*
Y10079676D01*
X5954215Y10054284D01*
X5878040D01*
X5928824D02*
X5979607Y10003500D01*
X6030391Y10155851D02*
X6131958D01*
Y10130459D01*
X6030391Y10028892D01*
Y10003500D01*
X5878180Y8353540D02*
Y8505891D01*
X5954355D01*
X5979747Y8480499D01*
Y8429715D01*
X5954355Y8404324D01*
X5878180D01*
X5928964D02*
X5979747Y8353540D01*
X6030531Y8378932D02*
X6055923Y8353540D01*
X6106706D01*
X6132098Y8378932D01*
Y8480499D01*
X6106706Y8505891D01*
X6055923D01*
X6030531Y8480499D01*
Y8455107D01*
X6055923Y8429715D01*
X6132098D01*
X6853290Y20929541D02*
Y20802582D01*
X6878682Y20777190D01*
X6929465D01*
X6954857Y20802582D01*
Y20929541D01*
X7005641Y20777190D02*
X7056424D01*
X7031033D01*
Y20929541D01*
X7005641Y20904149D01*
X6853290Y18729541D02*
Y18602582D01*
X6878682Y18577190D01*
X6929465D01*
X6954857Y18602582D01*
Y18729541D01*
X7107208Y18577190D02*
X7005641D01*
X7107208Y18678757D01*
Y18704149D01*
X7081816Y18729541D01*
X7031033D01*
X7005641Y18704149D01*
X6853290Y16229541D02*
Y16102582D01*
X6878682Y16077190D01*
X6929465D01*
X6954857Y16102582D01*
Y16229541D01*
X7005641Y16204149D02*
X7031033Y16229541D01*
X7081816D01*
X7107208Y16204149D01*
Y16178757D01*
X7081816Y16153365D01*
X7056424D01*
X7081816D01*
X7107208Y16127974D01*
Y16102582D01*
X7081816Y16077190D01*
X7031033D01*
X7005641Y16102582D01*
X6853290Y12729541D02*
Y12602582D01*
X6878682Y12577190D01*
X6929465D01*
X6954857Y12602582D01*
Y12729541D01*
X7081816Y12577190D02*
Y12729541D01*
X7005641Y12653365D01*
X7107208D01*
X5553290Y2229541D02*
Y2102582D01*
X5578682Y2077190D01*
X5629465D01*
X5654857Y2102582D01*
Y2229541D01*
X5807208D02*
X5705641D01*
Y2153365D01*
X5756424Y2178757D01*
X5781816D01*
X5807208Y2153365D01*
Y2102582D01*
X5781816Y2077190D01*
X5731032D01*
X5705641Y2102582D01*
X4131778Y12076175D02*
Y11923825D01*
X4233345D01*
X4284129Y12076175D02*
Y11923825D01*
X4360304D01*
X4385696Y11949216D01*
Y12050783D01*
X4360304Y12076175D01*
X4284129D01*
X4436480Y11923825D02*
X4487263D01*
X4461871D01*
Y12076175D01*
X4436480Y12050783D01*
X4563438Y11923825D02*
X4614222D01*
X4588830D01*
Y12076175D01*
X4563438Y12050783D01*
X18928700Y21805331D02*
Y21652980D01*
X19004875D01*
X19030267Y21678372D01*
Y21779939D01*
X19004875Y21805331D01*
X18928700D01*
X19081052Y21652980D02*
X19131834D01*
X19106442D01*
Y21805331D01*
X19081052Y21779939D01*
X19208009Y21652980D02*
X19258794D01*
X19233401D01*
Y21805331D01*
X19208009Y21779939D01*
X17228500Y21805331D02*
Y21652980D01*
X17304675D01*
X17330067Y21678372D01*
Y21779939D01*
X17304675Y21805331D01*
X17228500D01*
X17380852Y21652980D02*
X17431635D01*
X17406242D01*
Y21805331D01*
X17380852Y21779939D01*
X17507809D02*
X17533202Y21805331D01*
X17583984D01*
X17609377Y21779939D01*
Y21678372D01*
X17583984Y21652980D01*
X17533202D01*
X17507809Y21678372D01*
Y21779939D01*
X15928780Y21805331D02*
Y21652980D01*
X16004955D01*
X16030347Y21678372D01*
Y21779939D01*
X16004955Y21805331D01*
X15928780D01*
X16081131Y21678372D02*
X16106523Y21652980D01*
X16157306D01*
X16182698Y21678372D01*
Y21779939D01*
X16157306Y21805331D01*
X16106523D01*
X16081131Y21779939D01*
Y21754547D01*
X16106523Y21729155D01*
X16182698D01*
X13242101Y21805911D02*
Y21653560D01*
X13318275D01*
X13343668Y21678952D01*
Y21780519D01*
X13318275Y21805911D01*
X13242101D01*
X13394450Y21780519D02*
X13419843Y21805911D01*
X13470625D01*
X13496017Y21780519D01*
Y21755127D01*
X13470625Y21729736D01*
X13496017Y21704344D01*
Y21678952D01*
X13470625Y21653560D01*
X13419843D01*
X13394450Y21678952D01*
Y21704344D01*
X13419843Y21729736D01*
X13394450Y21755127D01*
Y21780519D01*
X13419843Y21729736D02*
X13470625D01*
X12028740Y21805331D02*
Y21652980D01*
X12104915D01*
X12130307Y21678372D01*
Y21779939D01*
X12104915Y21805331D01*
X12028740D01*
X12181091D02*
X12282658D01*
Y21779939D01*
X12181091Y21678372D01*
Y21652980D01*
X10327194Y21805331D02*
Y21652980D01*
X10403369D01*
X10428761Y21678372D01*
Y21779939D01*
X10403369Y21805331D01*
X10327194D01*
X10581112D02*
X10530328Y21779939D01*
X10479544Y21729155D01*
Y21678372D01*
X10504936Y21652980D01*
X10555720D01*
X10581112Y21678372D01*
Y21703764D01*
X10555720Y21729155D01*
X10479544D01*
X8627680Y21805331D02*
Y21652980D01*
X8703855D01*
X8729247Y21678372D01*
Y21779939D01*
X8703855Y21805331D01*
X8627680D01*
X8881598D02*
X8780031D01*
Y21729155D01*
X8830814Y21754547D01*
X8856206D01*
X8881598Y21729155D01*
Y21678372D01*
X8856206Y21652980D01*
X8805423D01*
X8780031Y21678372D01*
X5942580Y21805331D02*
Y21652980D01*
X6018755D01*
X6044147Y21678372D01*
Y21779939D01*
X6018755Y21805331D01*
X5942580D01*
X6171106Y21652980D02*
Y21805331D01*
X6094931Y21729155D01*
X6196498D01*
X4342380Y21805331D02*
Y21652980D01*
X4418556D01*
X4443947Y21678372D01*
Y21779939D01*
X4418556Y21805331D01*
X4342380D01*
X4494731Y21779939D02*
X4520123Y21805331D01*
X4570906D01*
X4596298Y21779939D01*
Y21754547D01*
X4570906Y21729155D01*
X4545514D01*
X4570906D01*
X4596298Y21703764D01*
Y21678372D01*
X4570906Y21652980D01*
X4520123D01*
X4494731Y21678372D01*
X2626980Y21805331D02*
Y21652980D01*
X2703155D01*
X2728547Y21678372D01*
Y21779939D01*
X2703155Y21805331D01*
X2626980D01*
X2880898Y21652980D02*
X2779331D01*
X2880898Y21754547D01*
Y21779939D01*
X2855506Y21805331D01*
X2804723D01*
X2779331Y21779939D01*
X827060Y21805331D02*
Y21652980D01*
X903235D01*
X928627Y21678372D01*
Y21779939D01*
X903235Y21805331D01*
X827060D01*
X979411Y21652980D02*
X1030194D01*
X1004803D01*
Y21805331D01*
X979411Y21779939D01*
X18927760Y19605692D02*
Y19453340D01*
X19003935D01*
X19029327Y19478732D01*
Y19580299D01*
X19003935Y19605692D01*
X18927760D01*
X19181677Y19453340D02*
X19080112D01*
X19181677Y19554907D01*
Y19580299D01*
X19156287Y19605692D01*
X19105502D01*
X19080112Y19580299D01*
X19334029Y19453340D02*
X19232462D01*
X19334029Y19554907D01*
Y19580299D01*
X19308636Y19605692D01*
X19257854D01*
X19232462Y19580299D01*
X17341859Y19605692D02*
Y19453340D01*
X17418034D01*
X17443427Y19478732D01*
Y19580299D01*
X17418034Y19605692D01*
X17341859D01*
X17595778Y19453340D02*
X17494211D01*
X17595778Y19554907D01*
Y19580299D01*
X17570386Y19605692D01*
X17519603D01*
X17494211Y19580299D01*
X17646561Y19453340D02*
X17697345D01*
X17671953D01*
Y19605692D01*
X17646561Y19580299D01*
X15527640Y19605031D02*
Y19452679D01*
X15603815D01*
X15629207Y19478072D01*
Y19579639D01*
X15603815Y19605031D01*
X15527640D01*
X15781558Y19452679D02*
X15679991D01*
X15781558Y19554247D01*
Y19579639D01*
X15756166Y19605031D01*
X15705383D01*
X15679991Y19579639D01*
X15832341D02*
X15857733Y19605031D01*
X15908517D01*
X15933910Y19579639D01*
Y19478072D01*
X15908517Y19452679D01*
X15857733D01*
X15832341Y19478072D01*
Y19579639D01*
X13328000Y19606631D02*
Y19454280D01*
X13404175D01*
X13429567Y19479672D01*
Y19581239D01*
X13404175Y19606631D01*
X13328000D01*
X13480351Y19454280D02*
X13531134D01*
X13505743D01*
Y19606631D01*
X13480351Y19581239D01*
X13607310Y19479672D02*
X13632701Y19454280D01*
X13683485D01*
X13708878Y19479672D01*
Y19581239D01*
X13683485Y19606631D01*
X13632701D01*
X13607310Y19581239D01*
Y19555847D01*
X13632701Y19530455D01*
X13708878D01*
X12041820Y19605692D02*
Y19453340D01*
X12117995D01*
X12143387Y19478732D01*
Y19580299D01*
X12117995Y19605692D01*
X12041820D01*
X12194171Y19453340D02*
X12244954D01*
X12219563D01*
Y19605692D01*
X12194171Y19580299D01*
X12321130D02*
X12346521Y19605692D01*
X12397305D01*
X12422697Y19580299D01*
Y19554907D01*
X12397305Y19529515D01*
X12422697Y19504124D01*
Y19478732D01*
X12397305Y19453340D01*
X12346521D01*
X12321130Y19478732D01*
Y19504124D01*
X12346521Y19529515D01*
X12321130Y19554907D01*
Y19580299D01*
X12346521Y19529515D02*
X12397305D01*
X10343500Y19605692D02*
Y19453340D01*
X10419675D01*
X10445067Y19478732D01*
Y19580299D01*
X10419675Y19605692D01*
X10343500D01*
X10495851Y19453340D02*
X10546634D01*
X10521243D01*
Y19605692D01*
X10495851Y19580299D01*
X10622810Y19605692D02*
X10724377D01*
Y19580299D01*
X10622810Y19478732D01*
Y19453340D01*
X8728300Y19605692D02*
Y19453340D01*
X8804475D01*
X8829867Y19478732D01*
Y19580299D01*
X8804475Y19605692D01*
X8728300D01*
X8880651Y19453340D02*
X8931434D01*
X8906043D01*
Y19605692D01*
X8880651Y19580299D01*
X9109177Y19605692D02*
X9058393Y19580299D01*
X9007610Y19529515D01*
Y19478732D01*
X9033001Y19453340D01*
X9083785D01*
X9109177Y19478732D01*
Y19504124D01*
X9083785Y19529515D01*
X9007610D01*
X5928980Y19605692D02*
Y19453340D01*
X6005155D01*
X6030547Y19478732D01*
Y19580299D01*
X6005155Y19605692D01*
X5928980D01*
X6081331Y19453340D02*
X6132114D01*
X6106723D01*
Y19605692D01*
X6081331Y19580299D01*
X6309857Y19605692D02*
X6208290D01*
Y19529515D01*
X6259073Y19554907D01*
X6284465D01*
X6309857Y19529515D01*
Y19478732D01*
X6284465Y19453340D01*
X6233681D01*
X6208290Y19478732D01*
X4227180Y19605692D02*
Y19453340D01*
X4303355D01*
X4328747Y19478732D01*
Y19580299D01*
X4303355Y19605692D01*
X4227180D01*
X4379531Y19453340D02*
X4430314D01*
X4404923D01*
Y19605692D01*
X4379531Y19580299D01*
X4582665Y19453340D02*
Y19605692D01*
X4506490Y19529515D01*
X4608057D01*
X2641940Y19605692D02*
Y19453340D01*
X2718115D01*
X2743507Y19478732D01*
Y19580299D01*
X2718115Y19605692D01*
X2641940D01*
X2794291Y19453340D02*
X2845074D01*
X2819682D01*
Y19605692D01*
X2794291Y19580299D01*
X2921249D02*
X2946641Y19605692D01*
X2997425D01*
X3022817Y19580299D01*
Y19554907D01*
X2997425Y19529515D01*
X2972033D01*
X2997425D01*
X3022817Y19504124D01*
Y19478732D01*
X2997425Y19453340D01*
X2946641D01*
X2921249Y19478732D01*
X827060Y19605692D02*
Y19453340D01*
X903235D01*
X928627Y19478732D01*
Y19580299D01*
X903235Y19605692D01*
X827060D01*
X979411Y19453340D02*
X1030194D01*
X1004803D01*
Y19605692D01*
X979411Y19580299D01*
X1207937Y19453340D02*
X1106370D01*
X1207937Y19554907D01*
Y19580299D01*
X1182545Y19605692D01*
X1131762D01*
X1106370Y19580299D01*
X19229080Y17305112D02*
Y17152760D01*
X19305257D01*
X19330647Y17178152D01*
Y17279720D01*
X19305257Y17305112D01*
X19229080D01*
X19381432Y17279720D02*
X19406824Y17305112D01*
X19457607D01*
X19482999Y17279720D01*
Y17254327D01*
X19457607Y17228935D01*
X19432214D01*
X19457607D01*
X19482999Y17203543D01*
Y17178152D01*
X19457607Y17152760D01*
X19406824D01*
X19381432Y17178152D01*
X19533781Y17279720D02*
X19559174Y17305112D01*
X19609956D01*
X19635349Y17279720D01*
Y17254327D01*
X19609956Y17228935D01*
X19584566D01*
X19609956D01*
X19635349Y17203543D01*
Y17178152D01*
X19609956Y17152760D01*
X19559174D01*
X19533781Y17178152D01*
X17527560Y17306052D02*
Y17153700D01*
X17603735D01*
X17629128Y17179092D01*
Y17280659D01*
X17603735Y17306052D01*
X17527560D01*
X17679910Y17280659D02*
X17705302Y17306052D01*
X17756087D01*
X17781477Y17280659D01*
Y17255267D01*
X17756087Y17229875D01*
X17730695D01*
X17756087D01*
X17781477Y17204483D01*
Y17179092D01*
X17756087Y17153700D01*
X17705302D01*
X17679910Y17179092D01*
X17933829Y17153700D02*
X17832262D01*
X17933829Y17255267D01*
Y17280659D01*
X17908437Y17306052D01*
X17857652D01*
X17832262Y17280659D01*
X15827361Y17306992D02*
Y17154640D01*
X15903535D01*
X15928928Y17180032D01*
Y17281599D01*
X15903535Y17306992D01*
X15827361D01*
X15979710Y17281599D02*
X16005103Y17306992D01*
X16055885D01*
X16081277Y17281599D01*
Y17256207D01*
X16055885Y17230815D01*
X16030495D01*
X16055885D01*
X16081277Y17205424D01*
Y17180032D01*
X16055885Y17154640D01*
X16005103D01*
X15979710Y17180032D01*
X16132060Y17154640D02*
X16182845D01*
X16157452D01*
Y17306992D01*
X16132060Y17281599D01*
X13626781Y17306052D02*
Y17153700D01*
X13702956D01*
X13728346Y17179092D01*
Y17280659D01*
X13702956Y17306052D01*
X13626781D01*
X13779131Y17280659D02*
X13804523Y17306052D01*
X13855305D01*
X13880698Y17280659D01*
Y17255267D01*
X13855305Y17229875D01*
X13829913D01*
X13855305D01*
X13880698Y17204483D01*
Y17179092D01*
X13855305Y17153700D01*
X13804523D01*
X13779131Y17179092D01*
X13931482Y17280659D02*
X13956874Y17306052D01*
X14007657D01*
X14033049Y17280659D01*
Y17179092D01*
X14007657Y17153700D01*
X13956874D01*
X13931482Y17179092D01*
Y17280659D01*
X11928460Y17306992D02*
Y17154640D01*
X12004635D01*
X12030027Y17180032D01*
Y17281599D01*
X12004635Y17306992D01*
X11928460D01*
X12182378Y17154640D02*
X12080811D01*
X12182378Y17256207D01*
Y17281599D01*
X12156986Y17306992D01*
X12106203D01*
X12080811Y17281599D01*
X12233161Y17180032D02*
X12258553Y17154640D01*
X12309337D01*
X12334729Y17180032D01*
Y17281599D01*
X12309337Y17306992D01*
X12258553D01*
X12233161Y17281599D01*
Y17256207D01*
X12258553Y17230815D01*
X12334729D01*
X10212360Y17311411D02*
Y17159061D01*
X10288535D01*
X10313927Y17184451D01*
Y17286018D01*
X10288535Y17311411D01*
X10212360D01*
X10466278Y17159061D02*
X10364711D01*
X10466278Y17260628D01*
Y17286018D01*
X10440886Y17311411D01*
X10390103D01*
X10364711Y17286018D01*
X10517062D02*
X10542453Y17311411D01*
X10593237D01*
X10618629Y17286018D01*
Y17260628D01*
X10593237Y17235236D01*
X10618629Y17209843D01*
Y17184451D01*
X10593237Y17159061D01*
X10542453D01*
X10517062Y17184451D01*
Y17209843D01*
X10542453Y17235236D01*
X10517062Y17260628D01*
Y17286018D01*
X10542453Y17235236D02*
X10593237D01*
X8527120Y17306992D02*
Y17154640D01*
X8603295D01*
X8628687Y17180032D01*
Y17281599D01*
X8603295Y17306992D01*
X8527120D01*
X8781038Y17154640D02*
X8679471D01*
X8781038Y17256207D01*
Y17281599D01*
X8755646Y17306992D01*
X8704863D01*
X8679471Y17281599D01*
X8831822Y17306992D02*
X8933389D01*
Y17281599D01*
X8831822Y17180032D01*
Y17154640D01*
X6028420Y17305112D02*
Y17152760D01*
X6104595D01*
X6129987Y17178152D01*
Y17279720D01*
X6104595Y17305112D01*
X6028420D01*
X6282338Y17152760D02*
X6180771D01*
X6282338Y17254327D01*
Y17279720D01*
X6256946Y17305112D01*
X6206163D01*
X6180771Y17279720D01*
X6434689Y17305112D02*
X6383905Y17279720D01*
X6333121Y17228935D01*
Y17178152D01*
X6358513Y17152760D01*
X6409297D01*
X6434689Y17178152D01*
Y17203543D01*
X6409297Y17228935D01*
X6333121D01*
X4328780Y17306992D02*
Y17154640D01*
X4404955D01*
X4430347Y17180032D01*
Y17281599D01*
X4404955Y17306992D01*
X4328780D01*
X4582698Y17154640D02*
X4481131D01*
X4582698Y17256207D01*
Y17281599D01*
X4557306Y17306992D01*
X4506523D01*
X4481131Y17281599D01*
X4735049Y17306992D02*
X4633481D01*
Y17230815D01*
X4684265Y17256207D01*
X4709657D01*
X4735049Y17230815D01*
Y17180032D01*
X4709657Y17154640D01*
X4658873D01*
X4633481Y17180032D01*
X2627640Y17306992D02*
Y17154640D01*
X2703815D01*
X2729207Y17180032D01*
Y17281599D01*
X2703815Y17306992D01*
X2627640D01*
X2881558Y17154640D02*
X2779991D01*
X2881558Y17256207D01*
Y17281599D01*
X2856166Y17306992D01*
X2805383D01*
X2779991Y17281599D01*
X3008517Y17154640D02*
Y17306992D01*
X2932341Y17230815D01*
X3033909D01*
X928380Y17306992D02*
Y17154640D01*
X1004556D01*
X1029947Y17180032D01*
Y17281599D01*
X1004556Y17306992D01*
X928380D01*
X1182298Y17154640D02*
X1080731D01*
X1182298Y17256207D01*
Y17281599D01*
X1156906Y17306992D01*
X1106123D01*
X1080731Y17281599D01*
X1233082D02*
X1258473Y17306992D01*
X1309257D01*
X1334649Y17281599D01*
Y17256207D01*
X1309257Y17230815D01*
X1283865D01*
X1309257D01*
X1334649Y17205424D01*
Y17180032D01*
X1309257Y17154640D01*
X1258473D01*
X1233082Y17180032D01*
X19228140Y15104811D02*
Y14952460D01*
X19304315D01*
X19329707Y14977852D01*
Y15079419D01*
X19304315Y15104811D01*
X19228140D01*
X19456667Y14952460D02*
Y15104811D01*
X19380492Y15028635D01*
X19482059D01*
X19609016Y14952460D02*
Y15104811D01*
X19532841Y15028635D01*
X19634409D01*
X17529160Y15104811D02*
Y14952460D01*
X17605334D01*
X17630727Y14977852D01*
Y15079419D01*
X17605334Y15104811D01*
X17529160D01*
X17757686Y14952460D02*
Y15104811D01*
X17681511Y15028635D01*
X17783078D01*
X17833861Y15079419D02*
X17859253Y15104811D01*
X17910037D01*
X17935429Y15079419D01*
Y15054027D01*
X17910037Y15028635D01*
X17884645D01*
X17910037D01*
X17935429Y15003244D01*
Y14977852D01*
X17910037Y14952460D01*
X17859253D01*
X17833861Y14977852D01*
X15828680Y15106691D02*
Y14954340D01*
X15904855D01*
X15930247Y14979732D01*
Y15081299D01*
X15904855Y15106691D01*
X15828680D01*
X16057207Y14954340D02*
Y15106691D01*
X15981030Y15030516D01*
X16082597D01*
X16234949Y14954340D02*
X16133382D01*
X16234949Y15055907D01*
Y15081299D01*
X16209557Y15106691D01*
X16158772D01*
X16133382Y15081299D01*
X13629041Y15106691D02*
Y14954340D01*
X13705215D01*
X13730608Y14979732D01*
Y15081299D01*
X13705215Y15106691D01*
X13629041D01*
X13857565Y14954340D02*
Y15106691D01*
X13781390Y15030516D01*
X13882957D01*
X13933742Y14954340D02*
X13984525D01*
X13959132D01*
Y15106691D01*
X13933742Y15081299D01*
X11913400Y15110732D02*
Y14958380D01*
X11989575D01*
X12014967Y14983772D01*
Y15085339D01*
X11989575Y15110732D01*
X11913400D01*
X12141926Y14958380D02*
Y15110732D01*
X12065751Y15034557D01*
X12167318D01*
X12218102Y15085339D02*
X12243493Y15110732D01*
X12294277D01*
X12319669Y15085339D01*
Y14983772D01*
X12294277Y14958380D01*
X12243493D01*
X12218102Y14983772D01*
Y15085339D01*
X10326660Y15106691D02*
Y14954340D01*
X10402835D01*
X10428227Y14979732D01*
Y15081299D01*
X10402835Y15106691D01*
X10326660D01*
X10479011Y15081299D02*
X10504403Y15106691D01*
X10555186D01*
X10580578Y15081299D01*
Y15055907D01*
X10555186Y15030516D01*
X10529794D01*
X10555186D01*
X10580578Y15005124D01*
Y14979732D01*
X10555186Y14954340D01*
X10504403D01*
X10479011Y14979732D01*
X10631362D02*
X10656753Y14954340D01*
X10707537D01*
X10732929Y14979732D01*
Y15081299D01*
X10707537Y15106691D01*
X10656753D01*
X10631362Y15081299D01*
Y15055907D01*
X10656753Y15030516D01*
X10732929D01*
X8529000Y15105470D02*
Y14953120D01*
X8605176D01*
X8630567Y14978513D01*
Y15080080D01*
X8605176Y15105470D01*
X8529000D01*
X8681351Y15080080D02*
X8706743Y15105470D01*
X8757526D01*
X8782918Y15080080D01*
Y15054688D01*
X8757526Y15029295D01*
X8732134D01*
X8757526D01*
X8782918Y15003905D01*
Y14978513D01*
X8757526Y14953120D01*
X8706743D01*
X8681351Y14978513D01*
X8833702Y15080080D02*
X8859094Y15105470D01*
X8909877D01*
X8935269Y15080080D01*
Y15054688D01*
X8909877Y15029295D01*
X8935269Y15003905D01*
Y14978513D01*
X8909877Y14953120D01*
X8859094D01*
X8833702Y14978513D01*
Y15003905D01*
X8859094Y15029295D01*
X8833702Y15054688D01*
Y15080080D01*
X8859094Y15029295D02*
X8909877D01*
X6328420Y15104811D02*
Y14952460D01*
X6404595D01*
X6429987Y14977852D01*
Y15079419D01*
X6404595Y15104811D01*
X6328420D01*
X6480771Y15079419D02*
X6506163Y15104811D01*
X6556946D01*
X6582338Y15079419D01*
Y15054027D01*
X6556946Y15028635D01*
X6531554D01*
X6556946D01*
X6582338Y15003244D01*
Y14977852D01*
X6556946Y14952460D01*
X6506163D01*
X6480771Y14977852D01*
X6633121Y15104811D02*
X6734689D01*
Y15079419D01*
X6633121Y14977852D01*
Y14952460D01*
X4613540Y15112051D02*
Y14959700D01*
X4689716D01*
X4715107Y14985092D01*
Y15086659D01*
X4689716Y15112051D01*
X4613540D01*
X4765891Y15086659D02*
X4791283Y15112051D01*
X4842066D01*
X4867458Y15086659D01*
Y15061267D01*
X4842066Y15035875D01*
X4816674D01*
X4842066D01*
X4867458Y15010484D01*
Y14985092D01*
X4842066Y14959700D01*
X4791283D01*
X4765891Y14985092D01*
X5019809Y15112051D02*
X4969025Y15086659D01*
X4918242Y15035875D01*
Y14985092D01*
X4943633Y14959700D01*
X4994417D01*
X5019809Y14985092D01*
Y15010484D01*
X4994417Y15035875D01*
X4918242D01*
X3026700Y15106691D02*
Y14954340D01*
X3102875D01*
X3128267Y14979732D01*
Y15081299D01*
X3102875Y15106691D01*
X3026700D01*
X3179051Y15081299D02*
X3204443Y15106691D01*
X3255226D01*
X3280618Y15081299D01*
Y15055907D01*
X3255226Y15030516D01*
X3229834D01*
X3255226D01*
X3280618Y15005124D01*
Y14979732D01*
X3255226Y14954340D01*
X3204443D01*
X3179051Y14979732D01*
X3432969Y15106691D02*
X3331402D01*
Y15030516D01*
X3382185Y15055907D01*
X3407577D01*
X3432969Y15030516D01*
Y14979732D01*
X3407577Y14954340D01*
X3356793D01*
X3331402Y14979732D01*
X1227440Y15104811D02*
Y14952460D01*
X1303615D01*
X1329007Y14977852D01*
Y15079419D01*
X1303615Y15104811D01*
X1227440D01*
X1379791Y15079419D02*
X1405183Y15104811D01*
X1455966D01*
X1481358Y15079419D01*
Y15054027D01*
X1455966Y15028635D01*
X1430574D01*
X1455966D01*
X1481358Y15003244D01*
Y14977852D01*
X1455966Y14952460D01*
X1405183D01*
X1379791Y14977852D01*
X1608317Y14952460D02*
Y15104811D01*
X1532141Y15028635D01*
X1633709D01*
X7527860Y21653059D02*
Y21805411D01*
X7604035D01*
X7629427Y21780019D01*
Y21729234D01*
X7604035Y21703844D01*
X7527860D01*
X7578643D02*
X7629427Y21653059D01*
X7781778D02*
X7680211D01*
X7781778Y21754626D01*
Y21780019D01*
X7756386Y21805411D01*
X7705603D01*
X7680211Y21780019D01*
X8126880Y12953340D02*
Y13105692D01*
X8203055D01*
X8228447Y13080299D01*
Y13029515D01*
X8203055Y13004124D01*
X8126880D01*
X8177664D02*
X8228447Y12953340D01*
X8279231D02*
X8330014D01*
X8304623D01*
Y13105692D01*
X8279231Y13080299D01*
X8113380Y21858672D02*
Y21706320D01*
X8214947D01*
X8265731Y21858672D02*
Y21706320D01*
X8341906D01*
X8367298Y21731712D01*
Y21833279D01*
X8341906Y21858672D01*
X8265731D01*
X8418081Y21706320D02*
X8468865D01*
X8443473D01*
Y21858672D01*
X8418081Y21833279D01*
X9812640Y21858672D02*
Y21706320D01*
X9914207D01*
X9964991Y21858672D02*
Y21706320D01*
X10041166D01*
X10066558Y21731712D01*
Y21833279D01*
X10041166Y21858672D01*
X9964991D01*
X10218909Y21706320D02*
X10117341D01*
X10218909Y21807887D01*
Y21833279D01*
X10193517Y21858672D01*
X10142733D01*
X10117341Y21833279D01*
X11514440Y21858672D02*
Y21706320D01*
X11616007D01*
X11666791Y21858672D02*
Y21706320D01*
X11742966D01*
X11768358Y21731712D01*
Y21833279D01*
X11742966Y21858672D01*
X11666791D01*
X11819141Y21833279D02*
X11844533Y21858672D01*
X11895317D01*
X11920709Y21833279D01*
Y21807887D01*
X11895317Y21782495D01*
X11869925D01*
X11895317D01*
X11920709Y21757104D01*
Y21731712D01*
X11895317Y21706320D01*
X11844533D01*
X11819141Y21731712D01*
X7126920Y19453619D02*
Y19605971D01*
X7203096D01*
X7228487Y19580579D01*
Y19529794D01*
X7203096Y19504404D01*
X7126920D01*
X7177704D02*
X7228487Y19453619D01*
X7279271Y19580579D02*
X7304663Y19605971D01*
X7355446D01*
X7380838Y19580579D01*
Y19555186D01*
X7355446Y19529794D01*
X7330054D01*
X7355446D01*
X7380838Y19504404D01*
Y19479012D01*
X7355446Y19453619D01*
X7304663D01*
X7279271Y19479012D01*
X13627721Y11606291D02*
Y11453940D01*
X13703896D01*
X13729288Y11479332D01*
Y11580899D01*
X13703896Y11606291D01*
X13627721D01*
X13856245Y11453940D02*
Y11606291D01*
X13780070Y11530115D01*
X13881638D01*
X13932420Y11479332D02*
X13957812Y11453940D01*
X14008597D01*
X14033989Y11479332D01*
Y11580899D01*
X14008597Y11606291D01*
X13957812D01*
X13932420Y11580899D01*
Y11555507D01*
X13957812Y11530115D01*
X14033989D01*
X11928180Y11605351D02*
Y11453000D01*
X12004355D01*
X12029747Y11478392D01*
Y11579959D01*
X12004355Y11605351D01*
X11928180D01*
X12156706Y11453000D02*
Y11605351D01*
X12080531Y11529175D01*
X12182098D01*
X12232881Y11579959D02*
X12258273Y11605351D01*
X12309057D01*
X12334449Y11579959D01*
Y11554567D01*
X12309057Y11529175D01*
X12334449Y11503783D01*
Y11478392D01*
X12309057Y11453000D01*
X12258273D01*
X12232881Y11478392D01*
Y11503783D01*
X12258273Y11529175D01*
X12232881Y11554567D01*
Y11579959D01*
X12258273Y11529175D02*
X12309057D01*
X9926660Y11606291D02*
Y11453940D01*
X10002835D01*
X10028227Y11479332D01*
Y11580899D01*
X10002835Y11606291D01*
X9926660D01*
X10155186Y11453940D02*
Y11606291D01*
X10079011Y11530115D01*
X10180578D01*
X10231362Y11606291D02*
X10332929D01*
Y11580899D01*
X10231362Y11479332D01*
Y11453940D01*
X8528340Y11605351D02*
Y11453000D01*
X8604515D01*
X8629907Y11478392D01*
Y11579959D01*
X8604515Y11605351D01*
X8528340D01*
X8756866Y11453000D02*
Y11605351D01*
X8680691Y11529175D01*
X8782258D01*
X8934609Y11605351D02*
X8883825Y11579959D01*
X8833042Y11529175D01*
Y11478392D01*
X8858433Y11453000D01*
X8909217D01*
X8934609Y11478392D01*
Y11503783D01*
X8909217Y11529175D01*
X8833042D01*
X1329040Y11606291D02*
Y11453940D01*
X1405215D01*
X1430607Y11479332D01*
Y11580899D01*
X1405215Y11606291D01*
X1329040D01*
X1557566Y11453940D02*
Y11606291D01*
X1481391Y11530115D01*
X1582958D01*
X1735309Y11606291D02*
X1633741D01*
Y11530115D01*
X1684525Y11555507D01*
X1709917D01*
X1735309Y11530115D01*
Y11479332D01*
X1709917Y11453940D01*
X1659133D01*
X1633741Y11479332D01*
X14813341Y21858672D02*
Y21706320D01*
X14914906D01*
X14965691Y21858672D02*
Y21706320D01*
X15041866D01*
X15067258Y21731712D01*
Y21833279D01*
X15041866Y21858672D01*
X14965691D01*
X15194217Y21706320D02*
Y21858672D01*
X15118040Y21782495D01*
X15219609D01*
X8113380Y19608231D02*
Y19455881D01*
X8214947D01*
X8265731Y19608231D02*
Y19455881D01*
X8341906D01*
X8367298Y19481271D01*
Y19582838D01*
X8341906Y19608231D01*
X8265731D01*
X8519649D02*
X8418081D01*
Y19532056D01*
X8468865Y19557446D01*
X8494257D01*
X8519649Y19532056D01*
Y19481271D01*
X8494257Y19455881D01*
X8443473D01*
X8418081Y19481271D01*
X9812640Y19608231D02*
Y19455881D01*
X9914207D01*
X9964991Y19608231D02*
Y19455881D01*
X10041166D01*
X10066558Y19481271D01*
Y19582838D01*
X10041166Y19608231D01*
X9964991D01*
X10218909D02*
X10168125Y19582838D01*
X10117341Y19532056D01*
Y19481271D01*
X10142733Y19455881D01*
X10193517D01*
X10218909Y19481271D01*
Y19506664D01*
X10193517Y19532056D01*
X10117341D01*
X7328520Y17154919D02*
Y17307271D01*
X7404695D01*
X7430087Y17281879D01*
Y17231094D01*
X7404695Y17205704D01*
X7328520D01*
X7379304D02*
X7430087Y17154919D01*
X7557046D02*
Y17307271D01*
X7480871Y17231094D01*
X7582438D01*
X11514440Y19608231D02*
Y19455881D01*
X11616007D01*
X11666791Y19608231D02*
Y19455881D01*
X11742966D01*
X11768358Y19481271D01*
Y19582838D01*
X11742966Y19608231D01*
X11666791D01*
X11819141D02*
X11920709D01*
Y19582838D01*
X11819141Y19481271D01*
Y19455881D01*
X13627440Y9405051D02*
Y9252700D01*
X13703615D01*
X13729007Y9278092D01*
Y9379659D01*
X13703615Y9405051D01*
X13627440D01*
X13881358D02*
X13779791D01*
Y9328875D01*
X13830574Y9354267D01*
X13855966D01*
X13881358Y9328875D01*
Y9278092D01*
X13855966Y9252700D01*
X13805183D01*
X13779791Y9278092D01*
X14008318Y9252700D02*
Y9405051D01*
X13932143Y9328875D01*
X14033710D01*
X11912560Y9411071D02*
Y9258720D01*
X11988735D01*
X12014127Y9284112D01*
Y9385679D01*
X11988735Y9411071D01*
X11912560D01*
X12166478D02*
X12064911D01*
Y9334895D01*
X12115694Y9360287D01*
X12141086D01*
X12166478Y9334895D01*
Y9284112D01*
X12141086Y9258720D01*
X12090303D01*
X12064911Y9284112D01*
X12217262Y9385679D02*
X12242653Y9411071D01*
X12293437D01*
X12318829Y9385679D01*
Y9360287D01*
X12293437Y9334895D01*
X12268045D01*
X12293437D01*
X12318829Y9309504D01*
Y9284112D01*
X12293437Y9258720D01*
X12242653D01*
X12217262Y9284112D01*
X10212360Y9400631D02*
Y9248280D01*
X10288535D01*
X10313927Y9273672D01*
Y9375239D01*
X10288535Y9400631D01*
X10212360D01*
X10466278D02*
X10364711D01*
Y9324455D01*
X10415494Y9349847D01*
X10440886D01*
X10466278Y9324455D01*
Y9273672D01*
X10440886Y9248280D01*
X10390103D01*
X10364711Y9273672D01*
X10618629Y9248280D02*
X10517062D01*
X10618629Y9349847D01*
Y9375239D01*
X10593237Y9400631D01*
X10542453D01*
X10517062Y9375239D01*
X8529000Y9405991D02*
Y9253640D01*
X8605176D01*
X8630567Y9279032D01*
Y9380599D01*
X8605176Y9405991D01*
X8529000D01*
X8782918D02*
X8681351D01*
Y9329815D01*
X8732134Y9355207D01*
X8757526D01*
X8782918Y9329815D01*
Y9279032D01*
X8757526Y9253640D01*
X8706743D01*
X8681351Y9279032D01*
X8833702Y9253640D02*
X8884485D01*
X8859094D01*
Y9405991D01*
X8833702Y9380599D01*
X4729160Y7106351D02*
Y6954000D01*
X4805336D01*
X4830727Y6979392D01*
Y7080959D01*
X4805336Y7106351D01*
X4729160D01*
X4983078D02*
X4881511D01*
Y7030175D01*
X4932294Y7055567D01*
X4957686D01*
X4983078Y7030175D01*
Y6979392D01*
X4957686Y6954000D01*
X4906903D01*
X4881511Y6979392D01*
X5033862Y7080959D02*
X5059254Y7106351D01*
X5110037D01*
X5135429Y7080959D01*
Y6979392D01*
X5110037Y6954000D01*
X5059254D01*
X5033862Y6979392D01*
Y7080959D01*
X18214400Y15107352D02*
Y14955000D01*
X18315967D01*
X18366751Y15107352D02*
Y14955000D01*
X18442926D01*
X18468318Y14980392D01*
Y15081960D01*
X18442926Y15107352D01*
X18366751D01*
X18519101Y14980392D02*
X18544493Y14955000D01*
X18595277D01*
X18620670Y14980392D01*
Y15081960D01*
X18595277Y15107352D01*
X18544493D01*
X18519101Y15081960D01*
Y15056567D01*
X18544493Y15031175D01*
X18620670D01*
X7328520Y14954060D02*
Y15106412D01*
X7404695D01*
X7430087Y15081020D01*
Y15030235D01*
X7404695Y15004843D01*
X7328520D01*
X7379304D02*
X7430087Y14954060D01*
X7582438Y15106412D02*
X7480871D01*
Y15030235D01*
X7531654Y15055627D01*
X7557046D01*
X7582438Y15030235D01*
Y14979453D01*
X7557046Y14954060D01*
X7506263D01*
X7480871Y14979453D01*
X813420Y12008551D02*
Y11856200D01*
X914987D01*
X965771Y12008551D02*
Y11856200D01*
X1041946D01*
X1067338Y11881592D01*
Y11983159D01*
X1041946Y12008551D01*
X965771D01*
X1118121Y11856200D02*
X1168905D01*
X1143513D01*
Y12008551D01*
X1118121Y11983159D01*
X1245080D02*
X1270472Y12008551D01*
X1321256D01*
X1346648Y11983159D01*
Y11881592D01*
X1321256Y11856200D01*
X1270472D01*
X1245080Y11881592D01*
Y11983159D01*
X13628101Y7105411D02*
Y6953060D01*
X13704276D01*
X13729668Y6978452D01*
Y7080019D01*
X13704276Y7105411D01*
X13628101D01*
X13882018D02*
X13831235Y7080019D01*
X13780450Y7029235D01*
Y6978452D01*
X13805843Y6953060D01*
X13856625D01*
X13882018Y6978452D01*
Y7003843D01*
X13856625Y7029235D01*
X13780450D01*
X13932800Y6953060D02*
X13983585D01*
X13958192D01*
Y7105411D01*
X13932800Y7080019D01*
X11912280Y7111711D02*
Y6959360D01*
X11988455D01*
X12013847Y6984752D01*
Y7086319D01*
X11988455Y7111711D01*
X11912280D01*
X12166198D02*
X12115414Y7086319D01*
X12064631Y7035536D01*
Y6984752D01*
X12090023Y6959360D01*
X12140806D01*
X12166198Y6984752D01*
Y7010144D01*
X12140806Y7035536D01*
X12064631D01*
X12216981Y7086319D02*
X12242373Y7111711D01*
X12293157D01*
X12318549Y7086319D01*
Y6984752D01*
X12293157Y6959360D01*
X12242373D01*
X12216981Y6984752D01*
Y7086319D01*
X10228260Y7106351D02*
Y6954000D01*
X10304435D01*
X10329827Y6979392D01*
Y7080959D01*
X10304435Y7106351D01*
X10228260D01*
X10482178D02*
X10380611D01*
Y7030175D01*
X10431394Y7055567D01*
X10456786D01*
X10482178Y7030175D01*
Y6979392D01*
X10456786Y6954000D01*
X10406003D01*
X10380611Y6979392D01*
X10532961D02*
X10558353Y6954000D01*
X10609137D01*
X10634529Y6979392D01*
Y7080959D01*
X10609137Y7106351D01*
X10558353D01*
X10532961Y7080959D01*
Y7055567D01*
X10558353Y7030175D01*
X10634529D01*
X8528340Y7105411D02*
Y6953060D01*
X8604515D01*
X8629907Y6978452D01*
Y7080019D01*
X8604515Y7105411D01*
X8528340D01*
X8782258D02*
X8680691D01*
Y7029235D01*
X8731474Y7054627D01*
X8756866D01*
X8782258Y7029235D01*
Y6978452D01*
X8756866Y6953060D01*
X8706083D01*
X8680691Y6978452D01*
X8833042Y7080019D02*
X8858433Y7105411D01*
X8909217D01*
X8934609Y7080019D01*
Y7054627D01*
X8909217Y7029235D01*
X8934609Y7003843D01*
Y6978452D01*
X8909217Y6953060D01*
X8858433D01*
X8833042Y6978452D01*
Y7003843D01*
X8858433Y7029235D01*
X8833042Y7054627D01*
Y7080019D01*
X8858433Y7029235D02*
X8909217D01*
X6326820Y6006531D02*
Y5854180D01*
X6402995D01*
X6428387Y5879572D01*
Y5981139D01*
X6402995Y6006531D01*
X6326820D01*
X6580738D02*
X6479171D01*
Y5930355D01*
X6529954Y5955747D01*
X6555346D01*
X6580738Y5930355D01*
Y5879572D01*
X6555346Y5854180D01*
X6504563D01*
X6479171Y5879572D01*
X6631521Y6006531D02*
X6733089D01*
Y5981139D01*
X6631521Y5879572D01*
Y5854180D01*
X5228600Y6006531D02*
Y5854180D01*
X5304776D01*
X5330167Y5879572D01*
Y5981139D01*
X5304776Y6006531D01*
X5228600D01*
X5482518D02*
X5380951D01*
Y5930355D01*
X5431734Y5955747D01*
X5457126D01*
X5482518Y5930355D01*
Y5879572D01*
X5457126Y5854180D01*
X5406343D01*
X5380951Y5879572D01*
X5634869Y6006531D02*
X5584085Y5981139D01*
X5533302Y5930355D01*
Y5879572D01*
X5558693Y5854180D01*
X5609477D01*
X5634869Y5879572D01*
Y5904964D01*
X5609477Y5930355D01*
X5533302D01*
X2913340Y6010951D02*
Y5858600D01*
X2989515D01*
X3014907Y5883992D01*
Y5985559D01*
X2989515Y6010951D01*
X2913340D01*
X3167258D02*
X3065691D01*
Y5934776D01*
X3116474Y5960167D01*
X3141866D01*
X3167258Y5934776D01*
Y5883992D01*
X3141866Y5858600D01*
X3091082D01*
X3065691Y5883992D01*
X3319609Y6010951D02*
X3218041D01*
Y5934776D01*
X3268825Y5960167D01*
X3294217D01*
X3319609Y5934776D01*
Y5883992D01*
X3294217Y5858600D01*
X3243433D01*
X3218041Y5883992D01*
X10663540Y12007491D02*
Y11855140D01*
X10765107D01*
X10815891Y12007491D02*
Y11855140D01*
X10892066D01*
X10917458Y11880532D01*
Y11982099D01*
X10892066Y12007491D01*
X10815891D01*
X10968241Y11855140D02*
X11019025D01*
X10993633D01*
Y12007491D01*
X10968241Y11982099D01*
X11196768Y11855140D02*
X11095200D01*
X11196768Y11956707D01*
Y11982099D01*
X11171376Y12007491D01*
X11120592D01*
X11095200Y11982099D01*
X6429080Y2053780D02*
Y2206131D01*
X6505255D01*
X6530647Y2180739D01*
Y2129955D01*
X6505255Y2104563D01*
X6429080D01*
X6479863D02*
X6530647Y2053780D01*
X6682998Y2206131D02*
X6632214Y2180739D01*
X6581431Y2129955D01*
Y2079172D01*
X6606822Y2053780D01*
X6657606D01*
X6682998Y2079172D01*
Y2104563D01*
X6657606Y2129955D01*
X6581431D01*
X13628101Y4905771D02*
Y4753420D01*
X13704276D01*
X13729668Y4778812D01*
Y4880379D01*
X13704276Y4905771D01*
X13628101D01*
X13882018D02*
X13831235Y4880379D01*
X13780450Y4829595D01*
Y4778812D01*
X13805843Y4753420D01*
X13856625D01*
X13882018Y4778812D01*
Y4804203D01*
X13856625Y4829595D01*
X13780450D01*
X14034369Y4905771D02*
X13983585Y4880379D01*
X13932800Y4829595D01*
Y4778812D01*
X13958192Y4753420D01*
X14008977D01*
X14034369Y4778812D01*
Y4804203D01*
X14008977Y4829595D01*
X13932800D01*
X11912560Y4911131D02*
Y4758780D01*
X11988735D01*
X12014127Y4784172D01*
Y4885739D01*
X11988735Y4911131D01*
X11912560D01*
X12166478D02*
X12115694Y4885739D01*
X12064911Y4834955D01*
Y4784172D01*
X12090303Y4758780D01*
X12141086D01*
X12166478Y4784172D01*
Y4809563D01*
X12141086Y4834955D01*
X12064911D01*
X12318829Y4911131D02*
X12217262D01*
Y4834955D01*
X12268045Y4860347D01*
X12293437D01*
X12318829Y4834955D01*
Y4784172D01*
X12293437Y4758780D01*
X12242653D01*
X12217262Y4784172D01*
X10213960Y4910471D02*
Y4758120D01*
X10290135D01*
X10315527Y4783512D01*
Y4885079D01*
X10290135Y4910471D01*
X10213960D01*
X10467878D02*
X10417094Y4885079D01*
X10366311Y4834295D01*
Y4783512D01*
X10391703Y4758120D01*
X10442486D01*
X10467878Y4783512D01*
Y4808904D01*
X10442486Y4834295D01*
X10366311D01*
X10594837Y4758120D02*
Y4910471D01*
X10518661Y4834295D01*
X10620229D01*
X8529000Y4906711D02*
Y4754360D01*
X8605176D01*
X8630567Y4779752D01*
Y4881319D01*
X8605176Y4906711D01*
X8529000D01*
X8782918D02*
X8732134Y4881319D01*
X8681351Y4830535D01*
Y4779752D01*
X8706743Y4754360D01*
X8757526D01*
X8782918Y4779752D01*
Y4805144D01*
X8757526Y4830535D01*
X8681351D01*
X8833702Y4881319D02*
X8859094Y4906711D01*
X8909877D01*
X8935269Y4881319D01*
Y4855927D01*
X8909877Y4830535D01*
X8884485D01*
X8909877D01*
X8935269Y4805144D01*
Y4779752D01*
X8909877Y4754360D01*
X8859094D01*
X8833702Y4779752D01*
X5228550Y3433021D02*
Y3280670D01*
X5304725D01*
X5330117Y3306062D01*
Y3407629D01*
X5304725Y3433021D01*
X5228550D01*
X5482468D02*
X5431684Y3407629D01*
X5380901Y3356845D01*
Y3306062D01*
X5406293Y3280670D01*
X5457076D01*
X5482468Y3306062D01*
Y3331454D01*
X5457076Y3356845D01*
X5380901D01*
X5634819Y3280670D02*
X5533252D01*
X5634819Y3382237D01*
Y3407629D01*
X5609427Y3433021D01*
X5558643D01*
X5533252Y3407629D01*
X3200987Y10837611D02*
X3099420D01*
Y10685260D01*
X3200987D01*
X3099420Y10761435D02*
X3150204D01*
X3251771Y10685260D02*
X3302554D01*
X3277163D01*
Y10837611D01*
X3251771Y10812219D01*
X2621129Y3875783D02*
X2595737Y3901175D01*
X2544954D01*
X2519562Y3875783D01*
Y3850392D01*
X2544954Y3825000D01*
X2595737D01*
X2621129Y3799608D01*
Y3774216D01*
X2595737Y3748824D01*
X2544954D01*
X2519562Y3774216D01*
X2671913Y3748824D02*
X2722696D01*
X2697304D01*
Y3901175D01*
X2671913Y3875783D01*
X2798871D02*
X2824263Y3901175D01*
X2875047D01*
X2900439Y3875783D01*
Y3850392D01*
X2875047Y3825000D01*
X2900439Y3799608D01*
Y3774216D01*
X2875047Y3748824D01*
X2824263D01*
X2798871Y3774216D01*
Y3799608D01*
X2824263Y3825000D01*
X2798871Y3850392D01*
Y3875783D01*
X2824263Y3825000D02*
X2875047D01*
X6011129Y3875783D02*
X5985737Y3901175D01*
X5934954D01*
X5909562Y3875783D01*
Y3850392D01*
X5934954Y3825000D01*
X5985737D01*
X6011129Y3799608D01*
Y3774216D01*
X5985737Y3748824D01*
X5934954D01*
X5909562Y3774216D01*
X6061912Y3748824D02*
X6112696D01*
X6087304D01*
Y3901175D01*
X6061912Y3875783D01*
X6188871Y3774216D02*
X6214263Y3748824D01*
X6265047D01*
X6290439Y3774216D01*
Y3875783D01*
X6265047Y3901175D01*
X6214263D01*
X6188871Y3875783D01*
Y3850392D01*
X6214263Y3825000D01*
X6290439D01*
X4298425Y6675783D02*
X4273033Y6701175D01*
X4222250D01*
X4196858Y6675783D01*
Y6650392D01*
X4222250Y6625000D01*
X4273033D01*
X4298425Y6599608D01*
Y6574216D01*
X4273033Y6548825D01*
X4222250D01*
X4196858Y6574216D01*
X4450776Y6548825D02*
X4349208D01*
X4450776Y6650392D01*
Y6675783D01*
X4425384Y6701175D01*
X4374600D01*
X4349208Y6675783D01*
X4501559D02*
X4526951Y6701175D01*
X4577735D01*
X4603126Y6675783D01*
Y6574216D01*
X4577735Y6548825D01*
X4526951D01*
X4501559Y6574216D01*
Y6675783D01*
X3549224Y4523433D02*
X3523832Y4498041D01*
Y4447257D01*
X3549224Y4421865D01*
X3574616D01*
X3600008Y4447257D01*
Y4498041D01*
X3625400Y4523433D01*
X3650791D01*
X3676183Y4498041D01*
Y4447257D01*
X3650791Y4421865D01*
X3523832Y4675783D02*
X3549224Y4625000D01*
X3600008Y4574216D01*
X3650791D01*
X3676183Y4599608D01*
Y4650392D01*
X3650791Y4675783D01*
X3625400D01*
X3600008Y4650392D01*
Y4574216D01*
X3523832Y4828134D02*
X3549224Y4777350D01*
X3600008Y4726567D01*
X3650791D01*
X3676183Y4751959D01*
Y4802742D01*
X3650791Y4828134D01*
X3625400D01*
X3600008Y4802742D01*
Y4726567D01*
X4323817Y2675784D02*
X4298425Y2701175D01*
X4247641D01*
X4222250Y2675784D01*
Y2650392D01*
X4247641Y2625000D01*
X4298425D01*
X4323817Y2599608D01*
Y2574217D01*
X4298425Y2548825D01*
X4247641D01*
X4222250Y2574217D01*
X4476168Y2548825D02*
X4374600D01*
X4476168Y2650392D01*
Y2675784D01*
X4450776Y2701175D01*
X4399992D01*
X4374600Y2675784D01*
X4526951Y2548825D02*
X4577735D01*
X4552343D01*
Y2701175D01*
X4526951Y2675784D01*
X18507027Y21353220D02*
X18481635Y21378612D01*
X18430852D01*
X18405460Y21353220D01*
Y21327827D01*
X18430852Y21302435D01*
X18481635D01*
X18507027Y21277045D01*
Y21251653D01*
X18481635Y21226260D01*
X18430852D01*
X18405460Y21251653D01*
X18659378Y21378612D02*
X18608594Y21353220D01*
X18557811Y21302435D01*
Y21251653D01*
X18583203Y21226260D01*
X18633986D01*
X18659378Y21251653D01*
Y21277045D01*
X18633986Y21302435D01*
X18557811D01*
X18811729Y21226260D02*
X18710161D01*
X18811729Y21327827D01*
Y21353220D01*
X18786337Y21378612D01*
X18735553D01*
X18710161Y21353220D01*
X16807767D02*
X16782375Y21378612D01*
X16731592D01*
X16706200Y21353220D01*
Y21327827D01*
X16731592Y21302435D01*
X16782375D01*
X16807767Y21277045D01*
Y21251653D01*
X16782375Y21226260D01*
X16731592D01*
X16706200Y21251653D01*
X16960118Y21378612D02*
X16858551D01*
Y21302435D01*
X16909334Y21327827D01*
X16934726D01*
X16960118Y21302435D01*
Y21251653D01*
X16934726Y21226260D01*
X16883943D01*
X16858551Y21251653D01*
X17010901Y21353220D02*
X17036293Y21378612D01*
X17087077D01*
X17112469Y21353220D01*
Y21327827D01*
X17087077Y21302435D01*
X17112469Y21277045D01*
Y21251653D01*
X17087077Y21226260D01*
X17036293D01*
X17010901Y21251653D01*
Y21277045D01*
X17036293Y21302435D01*
X17010901Y21327827D01*
Y21353220D01*
X17036293Y21302435D02*
X17087077D01*
X12906326Y21353220D02*
X12880936Y21378612D01*
X12830151D01*
X12804761Y21353220D01*
Y21327827D01*
X12830151Y21302435D01*
X12880936D01*
X12906326Y21277045D01*
Y21251653D01*
X12880936Y21226260D01*
X12830151D01*
X12804761Y21251653D01*
X13033286Y21226260D02*
Y21378612D01*
X12957111Y21302435D01*
X13058678D01*
X13109460Y21226260D02*
X13160245D01*
X13134853D01*
Y21378612D01*
X13109460Y21353220D01*
X11207067D02*
X11181675Y21378612D01*
X11130892D01*
X11105500Y21353220D01*
Y21327827D01*
X11130892Y21302435D01*
X11181675D01*
X11207067Y21277045D01*
Y21251653D01*
X11181675Y21226260D01*
X11130892D01*
X11105500Y21251653D01*
X11334026Y21226260D02*
Y21378612D01*
X11257851Y21302435D01*
X11359418D01*
X11410201Y21353220D02*
X11435593Y21378612D01*
X11486377D01*
X11511769Y21353220D01*
Y21251653D01*
X11486377Y21226260D01*
X11435593D01*
X11410201Y21251653D01*
Y21353220D01*
X9507807D02*
X9482415Y21378612D01*
X9431632D01*
X9406240Y21353220D01*
Y21327827D01*
X9431632Y21302435D01*
X9482415D01*
X9507807Y21277045D01*
Y21251653D01*
X9482415Y21226260D01*
X9431632D01*
X9406240Y21251653D01*
X9558591Y21353220D02*
X9583983Y21378612D01*
X9634766D01*
X9660158Y21353220D01*
Y21327827D01*
X9634766Y21302435D01*
X9609374D01*
X9634766D01*
X9660158Y21277045D01*
Y21251653D01*
X9634766Y21226260D01*
X9583983D01*
X9558591Y21251653D01*
X9710941D02*
X9736333Y21226260D01*
X9787117D01*
X9812509Y21251653D01*
Y21353220D01*
X9787117Y21378612D01*
X9736333D01*
X9710941Y21353220D01*
Y21327827D01*
X9736333Y21302435D01*
X9812509D01*
X7808547Y21353220D02*
X7783155Y21378612D01*
X7732372D01*
X7706980Y21353220D01*
Y21327827D01*
X7732372Y21302435D01*
X7783155D01*
X7808547Y21277045D01*
Y21251653D01*
X7783155Y21226260D01*
X7732372D01*
X7706980Y21251653D01*
X7859331Y21353220D02*
X7884723Y21378612D01*
X7935506D01*
X7960898Y21353220D01*
Y21327827D01*
X7935506Y21302435D01*
X7910114D01*
X7935506D01*
X7960898Y21277045D01*
Y21251653D01*
X7935506Y21226260D01*
X7884723D01*
X7859331Y21251653D01*
X8011681Y21353220D02*
X8037073Y21378612D01*
X8087857D01*
X8113249Y21353220D01*
Y21327827D01*
X8087857Y21302435D01*
X8113249Y21277045D01*
Y21251653D01*
X8087857Y21226260D01*
X8037073D01*
X8011681Y21251653D01*
Y21277045D01*
X8037073Y21302435D01*
X8011681Y21327827D01*
Y21353220D01*
X8037073Y21302435D02*
X8087857D01*
X5606367Y21353220D02*
X5580975Y21378612D01*
X5530192D01*
X5504800Y21353220D01*
Y21327827D01*
X5530192Y21302435D01*
X5580975D01*
X5606367Y21277045D01*
Y21251653D01*
X5580975Y21226260D01*
X5530192D01*
X5504800Y21251653D01*
X5733326Y21226260D02*
Y21378612D01*
X5657151Y21302435D01*
X5758718D01*
X3907107Y21353220D02*
X3881715Y21378612D01*
X3830932D01*
X3805540Y21353220D01*
Y21327827D01*
X3830932Y21302435D01*
X3881715D01*
X3907107Y21277045D01*
Y21251653D01*
X3881715Y21226260D01*
X3830932D01*
X3805540Y21251653D01*
X3957891Y21353220D02*
X3983283Y21378612D01*
X4034066D01*
X4059458Y21353220D01*
Y21327827D01*
X4034066Y21302435D01*
X4008674D01*
X4034066D01*
X4059458Y21277045D01*
Y21251653D01*
X4034066Y21226260D01*
X3983283D01*
X3957891Y21251653D01*
X2207847Y21353220D02*
X2182455Y21378612D01*
X2131672D01*
X2106280Y21353220D01*
Y21327827D01*
X2131672Y21302435D01*
X2182455D01*
X2207847Y21277045D01*
Y21251653D01*
X2182455Y21226260D01*
X2131672D01*
X2106280Y21251653D01*
X2360198Y21226260D02*
X2258631D01*
X2360198Y21327827D01*
Y21353220D01*
X2334806Y21378612D01*
X2284023D01*
X2258631Y21353220D01*
X508587D02*
X483195Y21378612D01*
X432412D01*
X407020Y21353220D01*
Y21327827D01*
X432412Y21302435D01*
X483195D01*
X508587Y21277045D01*
Y21251653D01*
X483195Y21226260D01*
X432412D01*
X407020Y21251653D01*
X559371Y21226260D02*
X610154D01*
X584763D01*
Y21378612D01*
X559371Y21353220D01*
X18508476Y19102930D02*
X18483086Y19128320D01*
X18432301D01*
X18406911Y19102930D01*
Y19077538D01*
X18432301Y19052145D01*
X18483086D01*
X18508476Y19026753D01*
Y19001363D01*
X18483086Y18975970D01*
X18432301D01*
X18406911Y19001363D01*
X18660828Y19128320D02*
X18610043Y19102930D01*
X18559261Y19052145D01*
Y19001363D01*
X18584653Y18975970D01*
X18635435D01*
X18660828Y19001363D01*
Y19026753D01*
X18635435Y19052145D01*
X18559261D01*
X18711612Y19102930D02*
X18737003Y19128320D01*
X18787787D01*
X18813179Y19102930D01*
Y19077538D01*
X18787787Y19052145D01*
X18762395D01*
X18787787D01*
X18813179Y19026753D01*
Y19001363D01*
X18787787Y18975970D01*
X18737003D01*
X18711612Y19001363D01*
X16808476Y19102930D02*
X16783086Y19128320D01*
X16732301D01*
X16706911Y19102930D01*
Y19077538D01*
X16732301Y19052145D01*
X16783086D01*
X16808476Y19026753D01*
Y19001363D01*
X16783086Y18975970D01*
X16732301D01*
X16706911Y19001363D01*
X16960828Y19128320D02*
X16859261D01*
Y19052145D01*
X16910043Y19077538D01*
X16935435D01*
X16960828Y19052145D01*
Y19001363D01*
X16935435Y18975970D01*
X16884653D01*
X16859261Y19001363D01*
X17011610D02*
X17037003Y18975970D01*
X17087787D01*
X17113179Y19001363D01*
Y19102930D01*
X17087787Y19128320D01*
X17037003D01*
X17011610Y19102930D01*
Y19077538D01*
X17037003Y19052145D01*
X17113179D01*
X15108476Y19102930D02*
X15083086Y19128320D01*
X15032301D01*
X15006911Y19102930D01*
Y19077538D01*
X15032301Y19052145D01*
X15083086D01*
X15108476Y19026753D01*
Y19001363D01*
X15083086Y18975970D01*
X15032301D01*
X15006911Y19001363D01*
X15260828Y19128320D02*
X15159261D01*
Y19052145D01*
X15210043Y19077538D01*
X15235435D01*
X15260828Y19052145D01*
Y19001363D01*
X15235435Y18975970D01*
X15184653D01*
X15159261Y19001363D01*
X15413179Y19128320D02*
X15311610D01*
Y19052145D01*
X15362395Y19077538D01*
X15387787D01*
X15413179Y19052145D01*
Y19001363D01*
X15387787Y18975970D01*
X15337003D01*
X15311610Y19001363D01*
X12908476Y19102930D02*
X12883086Y19128320D01*
X12832301D01*
X12806911Y19102930D01*
Y19077538D01*
X12832301Y19052145D01*
X12883086D01*
X12908476Y19026753D01*
Y19001363D01*
X12883086Y18975970D01*
X12832301D01*
X12806911Y19001363D01*
X13035435Y18975970D02*
Y19128320D01*
X12959261Y19052145D01*
X13060828D01*
X13213179Y19128320D02*
X13111612D01*
Y19052145D01*
X13162395Y19077538D01*
X13187787D01*
X13213179Y19052145D01*
Y19001363D01*
X13187787Y18975970D01*
X13137003D01*
X13111612Y19001363D01*
X11208477Y19102930D02*
X11183085Y19128320D01*
X11132302D01*
X11106910Y19102930D01*
Y19077538D01*
X11132302Y19052145D01*
X11183085D01*
X11208477Y19026753D01*
Y19001363D01*
X11183085Y18975970D01*
X11132302D01*
X11106910Y19001363D01*
X11335436Y18975970D02*
Y19128320D01*
X11259261Y19052145D01*
X11360828D01*
X11487787Y18975970D02*
Y19128320D01*
X11411611Y19052145D01*
X11513179D01*
X9508477Y19102930D02*
X9483085Y19128320D01*
X9432302D01*
X9406910Y19102930D01*
Y19077538D01*
X9432302Y19052145D01*
X9483085D01*
X9508477Y19026753D01*
Y19001363D01*
X9483085Y18975970D01*
X9432302D01*
X9406910Y19001363D01*
X9635436Y18975970D02*
Y19128320D01*
X9559261Y19052145D01*
X9660828D01*
X9711612Y19102930D02*
X9737003Y19128320D01*
X9787787D01*
X9813179Y19102930D01*
Y19077538D01*
X9787787Y19052145D01*
X9762395D01*
X9787787D01*
X9813179Y19026753D01*
Y19001363D01*
X9787787Y18975970D01*
X9737003D01*
X9711612Y19001363D01*
X7808477Y19102930D02*
X7783085Y19128320D01*
X7732302D01*
X7706910Y19102930D01*
Y19077538D01*
X7732302Y19052145D01*
X7783085D01*
X7808477Y19026753D01*
Y19001363D01*
X7783085Y18975970D01*
X7732302D01*
X7706910Y19001363D01*
X7935436Y18975970D02*
Y19128320D01*
X7859261Y19052145D01*
X7960828D01*
X8113179Y18975970D02*
X8011611D01*
X8113179Y19077538D01*
Y19102930D01*
X8087787Y19128320D01*
X8037003D01*
X8011611Y19102930D01*
X5608477D02*
X5583085Y19128320D01*
X5532302D01*
X5506910Y19102930D01*
Y19077538D01*
X5532302Y19052145D01*
X5583085D01*
X5608477Y19026753D01*
Y19001363D01*
X5583085Y18975970D01*
X5532302D01*
X5506910Y19001363D01*
X5659261Y19102930D02*
X5684653Y19128320D01*
X5735436D01*
X5760828Y19102930D01*
Y19077538D01*
X5735436Y19052145D01*
X5760828Y19026753D01*
Y19001363D01*
X5735436Y18975970D01*
X5684653D01*
X5659261Y19001363D01*
Y19026753D01*
X5684653Y19052145D01*
X5659261Y19077538D01*
Y19102930D01*
X5684653Y19052145D02*
X5735436D01*
X3908477Y19102930D02*
X3883085Y19128320D01*
X3832302D01*
X3806910Y19102930D01*
Y19077538D01*
X3832302Y19052145D01*
X3883085D01*
X3908477Y19026753D01*
Y19001363D01*
X3883085Y18975970D01*
X3832302D01*
X3806910Y19001363D01*
X3959261Y19128320D02*
X4060828D01*
Y19102930D01*
X3959261Y19001363D01*
Y18975970D01*
X2208477Y19102930D02*
X2183085Y19128320D01*
X2132302D01*
X2106910Y19102930D01*
Y19077538D01*
X2132302Y19052145D01*
X2183085D01*
X2208477Y19026753D01*
Y19001363D01*
X2183085Y18975970D01*
X2132302D01*
X2106910Y19001363D01*
X2360828Y19128320D02*
X2310044Y19102930D01*
X2259261Y19052145D01*
Y19001363D01*
X2284653Y18975970D01*
X2335436D01*
X2360828Y19001363D01*
Y19026753D01*
X2335436Y19052145D01*
X2259261D01*
X508587Y19102779D02*
X483195Y19128171D01*
X432412D01*
X407020Y19102779D01*
Y19077386D01*
X432412Y19051994D01*
X483195D01*
X508587Y19026604D01*
Y19001212D01*
X483195Y18975819D01*
X432412D01*
X407020Y19001212D01*
X660938Y19128171D02*
X559371D01*
Y19051994D01*
X610154Y19077386D01*
X635546D01*
X660938Y19051994D01*
Y19001212D01*
X635546Y18975819D01*
X584763D01*
X559371Y19001212D01*
X18508476Y16852930D02*
X18483086Y16878320D01*
X18432301D01*
X18406911Y16852930D01*
Y16827538D01*
X18432301Y16802145D01*
X18483086D01*
X18508476Y16776755D01*
Y16751363D01*
X18483086Y16725970D01*
X18432301D01*
X18406911Y16751363D01*
X18660828Y16878320D02*
X18610043Y16852930D01*
X18559261Y16802145D01*
Y16751363D01*
X18584653Y16725970D01*
X18635435D01*
X18660828Y16751363D01*
Y16776755D01*
X18635435Y16802145D01*
X18559261D01*
X18787787Y16725970D02*
Y16878320D01*
X18711612Y16802145D01*
X18813179D01*
X16808476Y16852930D02*
X16783086Y16878320D01*
X16732301D01*
X16706911Y16852930D01*
Y16827538D01*
X16732301Y16802145D01*
X16783086D01*
X16808476Y16776755D01*
Y16751363D01*
X16783086Y16725970D01*
X16732301D01*
X16706911Y16751363D01*
X16960828Y16878320D02*
X16910043Y16852930D01*
X16859261Y16802145D01*
Y16751363D01*
X16884653Y16725970D01*
X16935435D01*
X16960828Y16751363D01*
Y16776755D01*
X16935435Y16802145D01*
X16859261D01*
X17011610Y16852930D02*
X17037003Y16878320D01*
X17087787D01*
X17113179Y16852930D01*
Y16751363D01*
X17087787Y16725970D01*
X17037003D01*
X17011610Y16751363D01*
Y16852930D01*
X15108476D02*
X15083086Y16878320D01*
X15032301D01*
X15006911Y16852930D01*
Y16827538D01*
X15032301Y16802145D01*
X15083086D01*
X15108476Y16776755D01*
Y16751363D01*
X15083086Y16725970D01*
X15032301D01*
X15006911Y16751363D01*
X15260828Y16878320D02*
X15159261D01*
Y16802145D01*
X15210043Y16827538D01*
X15235435D01*
X15260828Y16802145D01*
Y16751363D01*
X15235435Y16725970D01*
X15184653D01*
X15159261Y16751363D01*
X15413179Y16878320D02*
X15362395Y16852930D01*
X15311610Y16802145D01*
Y16751363D01*
X15337003Y16725970D01*
X15387787D01*
X15413179Y16751363D01*
Y16776755D01*
X15387787Y16802145D01*
X15311610D01*
X12908476Y16852930D02*
X12883086Y16878320D01*
X12832301D01*
X12806911Y16852930D01*
Y16827538D01*
X12832301Y16802145D01*
X12883086D01*
X12908476Y16776755D01*
Y16751363D01*
X12883086Y16725970D01*
X12832301D01*
X12806911Y16751363D01*
X13035435Y16725970D02*
Y16878320D01*
X12959261Y16802145D01*
X13060828D01*
X13111612Y16751363D02*
X13137003Y16725970D01*
X13187787D01*
X13213179Y16751363D01*
Y16852930D01*
X13187787Y16878320D01*
X13137003D01*
X13111612Y16852930D01*
Y16827538D01*
X13137003Y16802145D01*
X13213179D01*
X11208477Y16852930D02*
X11183085Y16878320D01*
X11132302D01*
X11106910Y16852930D01*
Y16827538D01*
X11132302Y16802145D01*
X11183085D01*
X11208477Y16776755D01*
Y16751363D01*
X11183085Y16725970D01*
X11132302D01*
X11106910Y16751363D01*
X11335436Y16725970D02*
Y16878320D01*
X11259261Y16802145D01*
X11360828D01*
X11411611Y16852930D02*
X11437003Y16878320D01*
X11487787D01*
X11513179Y16852930D01*
Y16827538D01*
X11487787Y16802145D01*
X11513179Y16776755D01*
Y16751363D01*
X11487787Y16725970D01*
X11437003D01*
X11411611Y16751363D01*
Y16776755D01*
X11437003Y16802145D01*
X11411611Y16827538D01*
Y16852930D01*
X11437003Y16802145D02*
X11487787D01*
X9508477Y16852930D02*
X9483085Y16878320D01*
X9432302D01*
X9406910Y16852930D01*
Y16827538D01*
X9432302Y16802145D01*
X9483085D01*
X9508477Y16776755D01*
Y16751363D01*
X9483085Y16725970D01*
X9432302D01*
X9406910Y16751363D01*
X9635436Y16725970D02*
Y16878320D01*
X9559261Y16802145D01*
X9660828D01*
X9711612Y16878320D02*
X9813179D01*
Y16852930D01*
X9711612Y16751363D01*
Y16725970D01*
X7808477Y16852930D02*
X7783085Y16878320D01*
X7732302D01*
X7706910Y16852930D01*
Y16827538D01*
X7732302Y16802145D01*
X7783085D01*
X7808477Y16776755D01*
Y16751363D01*
X7783085Y16725970D01*
X7732302D01*
X7706910Y16751363D01*
X7935436Y16725970D02*
Y16878320D01*
X7859261Y16802145D01*
X7960828D01*
X8113179Y16878320D02*
X8062395Y16852930D01*
X8011611Y16802145D01*
Y16751363D01*
X8037003Y16725970D01*
X8087787D01*
X8113179Y16751363D01*
Y16776755D01*
X8087787Y16802145D01*
X8011611D01*
X5608477Y16852930D02*
X5583085Y16878320D01*
X5532302D01*
X5506910Y16852930D01*
Y16827538D01*
X5532302Y16802145D01*
X5583085D01*
X5608477Y16776755D01*
Y16751363D01*
X5583085Y16725970D01*
X5532302D01*
X5506910Y16751363D01*
X5659261Y16725970D02*
X5710044D01*
X5684653D01*
Y16878320D01*
X5659261Y16852930D01*
X5887787Y16725970D02*
X5786220D01*
X5887787Y16827538D01*
Y16852930D01*
X5862395Y16878320D01*
X5811611D01*
X5786220Y16852930D01*
X3908477D02*
X3883085Y16878320D01*
X3832302D01*
X3806910Y16852930D01*
Y16827538D01*
X3832302Y16802145D01*
X3883085D01*
X3908477Y16776755D01*
Y16751363D01*
X3883085Y16725970D01*
X3832302D01*
X3806910Y16751363D01*
X3959261Y16725970D02*
X4010044D01*
X3984653D01*
Y16878320D01*
X3959261Y16852930D01*
X4086220Y16725970D02*
X4137003D01*
X4111612D01*
Y16878320D01*
X4086220Y16852930D01*
X2208477D02*
X2183085Y16878320D01*
X2132302D01*
X2106910Y16852930D01*
Y16827538D01*
X2132302Y16802145D01*
X2183085D01*
X2208477Y16776755D01*
Y16751363D01*
X2183085Y16725970D01*
X2132302D01*
X2106910Y16751363D01*
X2259261Y16725970D02*
X2310044D01*
X2284653D01*
Y16878320D01*
X2259261Y16852930D01*
X2386220D02*
X2411611Y16878320D01*
X2462395D01*
X2487787Y16852930D01*
Y16751363D01*
X2462395Y16725970D01*
X2411611D01*
X2386220Y16751363D01*
Y16852930D01*
X508587Y16852339D02*
X483195Y16877731D01*
X432412D01*
X407020Y16852339D01*
Y16826947D01*
X432412Y16801555D01*
X483195D01*
X508587Y16776164D01*
Y16750772D01*
X483195Y16725380D01*
X432412D01*
X407020Y16750772D01*
X559371D02*
X584763Y16725380D01*
X635546D01*
X660938Y16750772D01*
Y16852339D01*
X635546Y16877731D01*
X584763D01*
X559371Y16852339D01*
Y16826947D01*
X584763Y16801555D01*
X660938D01*
X16808476Y14602930D02*
X16783086Y14628320D01*
X16732301D01*
X16706911Y14602930D01*
Y14577538D01*
X16732301Y14552145D01*
X16783086D01*
X16808476Y14526755D01*
Y14501363D01*
X16783086Y14475970D01*
X16732301D01*
X16706911Y14501363D01*
X16960828Y14628320D02*
X16910043Y14602930D01*
X16859261Y14552145D01*
Y14501363D01*
X16884653Y14475970D01*
X16935435D01*
X16960828Y14501363D01*
Y14526755D01*
X16935435Y14552145D01*
X16859261D01*
X17011610Y14475970D02*
X17062395D01*
X17037003D01*
Y14628320D01*
X17011610Y14602930D01*
X15108476D02*
X15083086Y14628320D01*
X15032301D01*
X15006911Y14602930D01*
Y14577538D01*
X15032301Y14552145D01*
X15083086D01*
X15108476Y14526755D01*
Y14501363D01*
X15083086Y14475970D01*
X15032301D01*
X15006911Y14501363D01*
X15260828Y14628320D02*
X15159261D01*
Y14552145D01*
X15210043Y14577538D01*
X15235435D01*
X15260828Y14552145D01*
Y14501363D01*
X15235435Y14475970D01*
X15184653D01*
X15159261Y14501363D01*
X15311610Y14628320D02*
X15413179D01*
Y14602930D01*
X15311610Y14501363D01*
Y14475970D01*
X12908476Y14602930D02*
X12883086Y14628320D01*
X12832301D01*
X12806911Y14602930D01*
Y14577538D01*
X12832301Y14552145D01*
X12883086D01*
X12908476Y14526755D01*
Y14501363D01*
X12883086Y14475970D01*
X12832301D01*
X12806911Y14501363D01*
X13060828Y14628320D02*
X12959261D01*
Y14552145D01*
X13010043Y14577538D01*
X13035435D01*
X13060828Y14552145D01*
Y14501363D01*
X13035435Y14475970D01*
X12984653D01*
X12959261Y14501363D01*
X13111612Y14602930D02*
X13137003Y14628320D01*
X13187787D01*
X13213179Y14602930D01*
Y14577538D01*
X13187787Y14552145D01*
X13162395D01*
X13187787D01*
X13213179Y14526755D01*
Y14501363D01*
X13187787Y14475970D01*
X13137003D01*
X13111612Y14501363D01*
X11208477Y14602930D02*
X11183085Y14628320D01*
X11132302D01*
X11106910Y14602930D01*
Y14577538D01*
X11132302Y14552145D01*
X11183085D01*
X11208477Y14526755D01*
Y14501363D01*
X11183085Y14475970D01*
X11132302D01*
X11106910Y14501363D01*
X11360828Y14628320D02*
X11259261D01*
Y14552145D01*
X11310044Y14577538D01*
X11335436D01*
X11360828Y14552145D01*
Y14501363D01*
X11335436Y14475970D01*
X11284653D01*
X11259261Y14501363D01*
X11513179Y14475970D02*
X11411611D01*
X11513179Y14577538D01*
Y14602930D01*
X11487787Y14628320D01*
X11437003D01*
X11411611Y14602930D01*
X9508477D02*
X9483085Y14628320D01*
X9432302D01*
X9406910Y14602930D01*
Y14577538D01*
X9432302Y14552145D01*
X9483085D01*
X9508477Y14526755D01*
Y14501363D01*
X9483085Y14475970D01*
X9432302D01*
X9406910Y14501363D01*
X9660828Y14628320D02*
X9559261D01*
Y14552145D01*
X9610044Y14577538D01*
X9635436D01*
X9660828Y14552145D01*
Y14501363D01*
X9635436Y14475970D01*
X9584653D01*
X9559261Y14501363D01*
X9711612Y14475970D02*
X9762395D01*
X9737003D01*
Y14628320D01*
X9711612Y14602930D01*
X7808477D02*
X7783085Y14628320D01*
X7732302D01*
X7706910Y14602930D01*
Y14577538D01*
X7732302Y14552145D01*
X7783085D01*
X7808477Y14526755D01*
Y14501363D01*
X7783085Y14475970D01*
X7732302D01*
X7706910Y14501363D01*
X7960828Y14628320D02*
X7859261D01*
Y14552145D01*
X7910044Y14577538D01*
X7935436D01*
X7960828Y14552145D01*
Y14501363D01*
X7935436Y14475970D01*
X7884653D01*
X7859261Y14501363D01*
X8011611Y14602930D02*
X8037003Y14628320D01*
X8087787D01*
X8113179Y14602930D01*
Y14501363D01*
X8087787Y14475970D01*
X8037003D01*
X8011611Y14501363D01*
Y14602930D01*
X5608477D02*
X5583085Y14628320D01*
X5532302D01*
X5506910Y14602930D01*
Y14577538D01*
X5532302Y14552145D01*
X5583085D01*
X5608477Y14526755D01*
Y14501363D01*
X5583085Y14475970D01*
X5532302D01*
X5506910Y14501363D01*
X5659261Y14475970D02*
X5710044D01*
X5684653D01*
Y14628320D01*
X5659261Y14602930D01*
X5887787Y14628320D02*
X5837003Y14602930D01*
X5786220Y14552145D01*
Y14501363D01*
X5811611Y14475970D01*
X5862395D01*
X5887787Y14501363D01*
Y14526755D01*
X5862395Y14552145D01*
X5786220D01*
X3908477Y14602930D02*
X3883085Y14628320D01*
X3832302D01*
X3806910Y14602930D01*
Y14577538D01*
X3832302Y14552145D01*
X3883085D01*
X3908477Y14526755D01*
Y14501363D01*
X3883085Y14475970D01*
X3832302D01*
X3806910Y14501363D01*
X3959261Y14475970D02*
X4010044D01*
X3984653D01*
Y14628320D01*
X3959261Y14602930D01*
X4187787Y14628320D02*
X4086220D01*
Y14552145D01*
X4137003Y14577538D01*
X4162395D01*
X4187787Y14552145D01*
Y14501363D01*
X4162395Y14475970D01*
X4111612D01*
X4086220Y14501363D01*
X2208477Y14602930D02*
X2183085Y14628320D01*
X2132302D01*
X2106910Y14602930D01*
Y14577538D01*
X2132302Y14552145D01*
X2183085D01*
X2208477Y14526755D01*
Y14501363D01*
X2183085Y14475970D01*
X2132302D01*
X2106910Y14501363D01*
X2259261Y14475970D02*
X2310044D01*
X2284653D01*
Y14628320D01*
X2259261Y14602930D01*
X2462395Y14475970D02*
Y14628320D01*
X2386220Y14552145D01*
X2487787D01*
X508587Y14601900D02*
X483195Y14627290D01*
X432412D01*
X407020Y14601900D01*
Y14576508D01*
X432412Y14551115D01*
X483195D01*
X508587Y14525723D01*
Y14500333D01*
X483195Y14474940D01*
X432412D01*
X407020Y14500333D01*
X559371Y14474940D02*
X610154D01*
X584763D01*
Y14627290D01*
X559371Y14601900D01*
X686330D02*
X711721Y14627290D01*
X762505D01*
X787897Y14601900D01*
Y14576508D01*
X762505Y14551115D01*
X737113D01*
X762505D01*
X787897Y14525723D01*
Y14500333D01*
X762505Y14474940D01*
X711721D01*
X686330Y14500333D01*
X12908476Y11152929D02*
X12883086Y11178321D01*
X12832301D01*
X12806911Y11152929D01*
Y11127537D01*
X12832301Y11102145D01*
X12883086D01*
X12908476Y11076754D01*
Y11051362D01*
X12883086Y11025970D01*
X12832301D01*
X12806911Y11051362D01*
X12959261Y11152929D02*
X12984653Y11178321D01*
X13035435D01*
X13060828Y11152929D01*
Y11127537D01*
X13035435Y11102145D01*
X13010043D01*
X13035435D01*
X13060828Y11076754D01*
Y11051362D01*
X13035435Y11025970D01*
X12984653D01*
X12959261Y11051362D01*
X13111612Y11178321D02*
X13213179D01*
Y11152929D01*
X13111612Y11051362D01*
Y11025970D01*
X11208477Y11152929D02*
X11183085Y11178321D01*
X11132302D01*
X11106910Y11152929D01*
Y11127537D01*
X11132302Y11102145D01*
X11183085D01*
X11208477Y11076754D01*
Y11051362D01*
X11183085Y11025970D01*
X11132302D01*
X11106910Y11051362D01*
X11259261Y11152929D02*
X11284653Y11178321D01*
X11335436D01*
X11360828Y11152929D01*
Y11127537D01*
X11335436Y11102145D01*
X11310044D01*
X11335436D01*
X11360828Y11076754D01*
Y11051362D01*
X11335436Y11025970D01*
X11284653D01*
X11259261Y11051362D01*
X11411611Y11025970D02*
X11462395D01*
X11437003D01*
Y11178321D01*
X11411611Y11152929D01*
X9508477D02*
X9483085Y11178321D01*
X9432302D01*
X9406910Y11152929D01*
Y11127537D01*
X9432302Y11102145D01*
X9483085D01*
X9508477Y11076754D01*
Y11051362D01*
X9483085Y11025970D01*
X9432302D01*
X9406910Y11051362D01*
X9559261Y11152929D02*
X9584653Y11178321D01*
X9635436D01*
X9660828Y11152929D01*
Y11127537D01*
X9635436Y11102145D01*
X9610044D01*
X9635436D01*
X9660828Y11076754D01*
Y11051362D01*
X9635436Y11025970D01*
X9584653D01*
X9559261Y11051362D01*
X9711612Y11152929D02*
X9737003Y11178321D01*
X9787787D01*
X9813179Y11152929D01*
Y11051362D01*
X9787787Y11025970D01*
X9737003D01*
X9711612Y11051362D01*
Y11152929D01*
X7808477D02*
X7783085Y11178321D01*
X7732302D01*
X7706910Y11152929D01*
Y11127537D01*
X7732302Y11102145D01*
X7783085D01*
X7808477Y11076754D01*
Y11051362D01*
X7783085Y11025970D01*
X7732302D01*
X7706910Y11051362D01*
X7960828Y11025970D02*
X7859261D01*
X7960828Y11127537D01*
Y11152929D01*
X7935436Y11178321D01*
X7884653D01*
X7859261Y11152929D01*
X8011611Y11051362D02*
X8037003Y11025970D01*
X8087787D01*
X8113179Y11051362D01*
Y11152929D01*
X8087787Y11178321D01*
X8037003D01*
X8011611Y11152929D01*
Y11127537D01*
X8037003Y11102145D01*
X8113179D01*
X508587Y11152579D02*
X483195Y11177971D01*
X432412D01*
X407020Y11152579D01*
Y11127187D01*
X432412Y11101795D01*
X483195D01*
X508587Y11076404D01*
Y11051012D01*
X483195Y11025620D01*
X432412D01*
X407020Y11051012D01*
X559371Y11025620D02*
X610154D01*
X584763D01*
Y11177971D01*
X559371Y11152579D01*
X686330Y11177971D02*
X787897D01*
Y11152579D01*
X686330Y11051012D01*
Y11025620D01*
X12908476Y8902929D02*
X12883086Y8928321D01*
X12832301D01*
X12806911Y8902929D01*
Y8877537D01*
X12832301Y8852145D01*
X12883086D01*
X12908476Y8826753D01*
Y8801362D01*
X12883086Y8775970D01*
X12832301D01*
X12806911Y8801362D01*
X12959261Y8902929D02*
X12984653Y8928321D01*
X13035435D01*
X13060828Y8902929D01*
Y8877537D01*
X13035435Y8852145D01*
X13010043D01*
X13035435D01*
X13060828Y8826753D01*
Y8801362D01*
X13035435Y8775970D01*
X12984653D01*
X12959261Y8801362D01*
X13213179Y8928321D02*
X13162395Y8902929D01*
X13111612Y8852145D01*
Y8801362D01*
X13137003Y8775970D01*
X13187787D01*
X13213179Y8801362D01*
Y8826753D01*
X13187787Y8852145D01*
X13111612D01*
X11208477Y8902929D02*
X11183085Y8928321D01*
X11132302D01*
X11106910Y8902929D01*
Y8877537D01*
X11132302Y8852145D01*
X11183085D01*
X11208477Y8826753D01*
Y8801362D01*
X11183085Y8775970D01*
X11132302D01*
X11106910Y8801362D01*
X11360828Y8775970D02*
X11259261D01*
X11360828Y8877537D01*
Y8902929D01*
X11335436Y8928321D01*
X11284653D01*
X11259261Y8902929D01*
X11411611D02*
X11437003Y8928321D01*
X11487787D01*
X11513179Y8902929D01*
Y8877537D01*
X11487787Y8852145D01*
X11513179Y8826753D01*
Y8801362D01*
X11487787Y8775970D01*
X11437003D01*
X11411611Y8801362D01*
Y8826753D01*
X11437003Y8852145D01*
X11411611Y8877537D01*
Y8902929D01*
X11437003Y8852145D02*
X11487787D01*
X9508477Y8902929D02*
X9483085Y8928321D01*
X9432302D01*
X9406910Y8902929D01*
Y8877537D01*
X9432302Y8852145D01*
X9483085D01*
X9508477Y8826753D01*
Y8801362D01*
X9483085Y8775970D01*
X9432302D01*
X9406910Y8801362D01*
X9660828Y8775970D02*
X9559261D01*
X9660828Y8877537D01*
Y8902929D01*
X9635436Y8928321D01*
X9584653D01*
X9559261Y8902929D01*
X9711612Y8928321D02*
X9813179D01*
Y8902929D01*
X9711612Y8801362D01*
Y8775970D01*
X7808547Y8902139D02*
X7783155Y8927531D01*
X7732372D01*
X7706980Y8902139D01*
Y8876747D01*
X7732372Y8851355D01*
X7783155D01*
X7808547Y8825964D01*
Y8800572D01*
X7783155Y8775180D01*
X7732372D01*
X7706980Y8800572D01*
X7960898Y8775180D02*
X7859331D01*
X7960898Y8876747D01*
Y8902139D01*
X7935506Y8927531D01*
X7884723D01*
X7859331Y8902139D01*
X8113249Y8927531D02*
X8062465Y8902139D01*
X8011681Y8851355D01*
Y8800572D01*
X8037073Y8775180D01*
X8087857D01*
X8113249Y8800572D01*
Y8825964D01*
X8087857Y8851355D01*
X8011681D01*
X12908476Y6652929D02*
X12883086Y6678321D01*
X12832301D01*
X12806911Y6652929D01*
Y6627537D01*
X12832301Y6602145D01*
X12883086D01*
X12908476Y6576753D01*
Y6551362D01*
X12883086Y6525970D01*
X12832301D01*
X12806911Y6551362D01*
X12959261Y6652929D02*
X12984653Y6678321D01*
X13035435D01*
X13060828Y6652929D01*
Y6627537D01*
X13035435Y6602145D01*
X13010043D01*
X13035435D01*
X13060828Y6576753D01*
Y6551362D01*
X13035435Y6525970D01*
X12984653D01*
X12959261Y6551362D01*
X13213179Y6678321D02*
X13111612D01*
Y6602145D01*
X13162395Y6627537D01*
X13187787D01*
X13213179Y6602145D01*
Y6551362D01*
X13187787Y6525970D01*
X13137003D01*
X13111612Y6551362D01*
X11208477Y6652929D02*
X11183085Y6678321D01*
X11132302D01*
X11106910Y6652929D01*
Y6627537D01*
X11132302Y6602145D01*
X11183085D01*
X11208477Y6576753D01*
Y6551362D01*
X11183085Y6525970D01*
X11132302D01*
X11106910Y6551362D01*
X11360828Y6525970D02*
X11259261D01*
X11360828Y6627537D01*
Y6652929D01*
X11335436Y6678321D01*
X11284653D01*
X11259261Y6652929D01*
X11513179Y6678321D02*
X11411611D01*
Y6602145D01*
X11462395Y6627537D01*
X11487787D01*
X11513179Y6602145D01*
Y6551362D01*
X11487787Y6525970D01*
X11437003D01*
X11411611Y6551362D01*
X9508477Y6652929D02*
X9483085Y6678321D01*
X9432302D01*
X9406910Y6652929D01*
Y6627537D01*
X9432302Y6602145D01*
X9483085D01*
X9508477Y6576753D01*
Y6551362D01*
X9483085Y6525970D01*
X9432302D01*
X9406910Y6551362D01*
X9660828Y6525970D02*
X9559261D01*
X9660828Y6627537D01*
Y6652929D01*
X9635436Y6678321D01*
X9584653D01*
X9559261Y6652929D01*
X9787787Y6525970D02*
Y6678321D01*
X9711612Y6602145D01*
X9813179D01*
X7808547Y6654239D02*
X7783155Y6679631D01*
X7732372D01*
X7706980Y6654239D01*
Y6628847D01*
X7732372Y6603455D01*
X7783155D01*
X7808547Y6578064D01*
Y6552672D01*
X7783155Y6527280D01*
X7732372D01*
X7706980Y6552672D01*
X7960898Y6527280D02*
X7859331D01*
X7960898Y6628847D01*
Y6654239D01*
X7935506Y6679631D01*
X7884723D01*
X7859331Y6654239D01*
X8011681D02*
X8037073Y6679631D01*
X8087857D01*
X8113249Y6654239D01*
Y6628847D01*
X8087857Y6603455D01*
X8062465D01*
X8087857D01*
X8113249Y6578064D01*
Y6552672D01*
X8087857Y6527280D01*
X8037073D01*
X8011681Y6552672D01*
X12908476Y4402929D02*
X12883086Y4428321D01*
X12832301D01*
X12806911Y4402929D01*
Y4377537D01*
X12832301Y4352145D01*
X12883086D01*
X12908476Y4326754D01*
Y4301362D01*
X12883086Y4275970D01*
X12832301D01*
X12806911Y4301362D01*
X12959261Y4402929D02*
X12984653Y4428321D01*
X13035435D01*
X13060828Y4402929D01*
Y4377537D01*
X13035435Y4352145D01*
X13010043D01*
X13035435D01*
X13060828Y4326754D01*
Y4301362D01*
X13035435Y4275970D01*
X12984653D01*
X12959261Y4301362D01*
X13187787Y4275970D02*
Y4428321D01*
X13111612Y4352145D01*
X13213179D01*
X11208477Y4402929D02*
X11183085Y4428321D01*
X11132302D01*
X11106910Y4402929D01*
Y4377537D01*
X11132302Y4352145D01*
X11183085D01*
X11208477Y4326754D01*
Y4301362D01*
X11183085Y4275970D01*
X11132302D01*
X11106910Y4301362D01*
X11259261Y4402929D02*
X11284653Y4428321D01*
X11335436D01*
X11360828Y4402929D01*
Y4377537D01*
X11335436Y4352145D01*
X11310044D01*
X11335436D01*
X11360828Y4326754D01*
Y4301362D01*
X11335436Y4275970D01*
X11284653D01*
X11259261Y4301362D01*
X11411611Y4402929D02*
X11437003Y4428321D01*
X11487787D01*
X11513179Y4402929D01*
Y4377537D01*
X11487787Y4352145D01*
X11462395D01*
X11487787D01*
X11513179Y4326754D01*
Y4301362D01*
X11487787Y4275970D01*
X11437003D01*
X11411611Y4301362D01*
X9508477Y4402929D02*
X9483085Y4428321D01*
X9432302D01*
X9406910Y4402929D01*
Y4377537D01*
X9432302Y4352145D01*
X9483085D01*
X9508477Y4326754D01*
Y4301362D01*
X9483085Y4275970D01*
X9432302D01*
X9406910Y4301362D01*
X9559261Y4402929D02*
X9584653Y4428321D01*
X9635436D01*
X9660828Y4402929D01*
Y4377537D01*
X9635436Y4352145D01*
X9610044D01*
X9635436D01*
X9660828Y4326754D01*
Y4301362D01*
X9635436Y4275970D01*
X9584653D01*
X9559261Y4301362D01*
X9813179Y4275970D02*
X9711612D01*
X9813179Y4377537D01*
Y4402929D01*
X9787787Y4428321D01*
X9737003D01*
X9711612Y4402929D01*
X7808547Y4403799D02*
X7783155Y4429191D01*
X7732372D01*
X7706980Y4403799D01*
Y4378407D01*
X7732372Y4353015D01*
X7783155D01*
X7808547Y4327624D01*
Y4302232D01*
X7783155Y4276840D01*
X7732372D01*
X7706980Y4302232D01*
X7960898Y4276840D02*
X7859331D01*
X7960898Y4378407D01*
Y4403799D01*
X7935506Y4429191D01*
X7884723D01*
X7859331Y4403799D01*
X8113249Y4276840D02*
X8011681D01*
X8113249Y4378407D01*
Y4403799D01*
X8087857Y4429191D01*
X8037073D01*
X8011681Y4403799D01*
D43*
X2540000Y15235001D02*
G03*
X2540000Y15235001I-12500J0D01*
G01*
X422500Y7980000D02*
G03*
X422500Y7980000I-12500J0D01*
G01*
X1382500Y6310000D02*
G03*
X1382500Y6310000I-12500J0D01*
G01*
X5640000Y1975500D02*
G03*
X5640000Y1975500I-12500J0D01*
G01*
X6940000Y12475500D02*
G03*
X6940000Y12475500I-12500J0D01*
G01*
Y15975500D02*
G03*
X6940000Y15975500I-12500J0D01*
G01*
Y18475500D02*
G03*
X6940000Y18475500I-12500J0D01*
G01*
Y20675500D02*
G03*
X6940000Y20675500I-12500J0D01*
G01*
X10690000Y11735000D02*
G03*
X10690000Y11735000I-12500J0D01*
G01*
X4240000D02*
G03*
X4240000Y11735000I-12500J0D01*
G01*
X840000D02*
G03*
X840000Y11735000I-12500J0D01*
G01*
X18239999Y14835001D02*
G03*
X18239999Y14835001I-12500J0D01*
G01*
X11540000Y19335001D02*
G03*
X11540000Y19335001I-12500J0D01*
G01*
X9840000D02*
G03*
X9840000Y19335001I-12500J0D01*
G01*
X8140000D02*
G03*
X8140000Y19335001I-12500J0D01*
G01*
X14839999Y21585001D02*
G03*
X14839999Y21585001I-12500J0D01*
G01*
X11540000D02*
G03*
X11540000Y21585001I-12500J0D01*
G01*
X9840000D02*
G03*
X9840000Y21585001I-12500J0D01*
G01*
X8140000D02*
G03*
X8140000Y21585001I-12500J0D01*
G01*
X13952499Y4320000D02*
G03*
X13952499Y4320000I-12500J0D01*
G01*
X12237500Y4325000D02*
G03*
X12237500Y4325000I-12500J0D01*
G01*
X10537500D02*
G03*
X10537500Y4325000I-12500J0D01*
G01*
X8852500Y4320000D02*
G03*
X8852500Y4320000I-12500J0D01*
G01*
X5272500Y3180000D02*
G03*
X5272500Y3180000I-12500J0D01*
G01*
X13952499Y6520000D02*
G03*
X13952499Y6520000I-12500J0D01*
G01*
X12237500Y6525000D02*
G03*
X12237500Y6525000I-12500J0D01*
G01*
X10552500Y6520000D02*
G03*
X10552500Y6520000I-12500J0D01*
G01*
X8852500D02*
G03*
X8852500Y6520000I-12500J0D01*
G01*
X6652500Y5420000D02*
G03*
X6652500Y5420000I-12500J0D01*
G01*
X5552500D02*
G03*
X5552500Y5420000I-12500J0D01*
G01*
X3237500Y5425000D02*
G03*
X3237500Y5425000I-12500J0D01*
G01*
X13952499Y8820000D02*
G03*
X13952499Y8820000I-12500J0D01*
G01*
X12237500Y8825000D02*
G03*
X12237500Y8825000I-12500J0D01*
G01*
X10537500Y8815000D02*
G03*
X10537500Y8815000I-12500J0D01*
G01*
X8852500Y8820000D02*
G03*
X8852500Y8820000I-12500J0D01*
G01*
X5052500Y6520000D02*
G03*
X5052500Y6520000I-12500J0D01*
G01*
X13952499Y11020000D02*
G03*
X13952499Y11020000I-12500J0D01*
G01*
X12252500D02*
G03*
X12252500Y11020000I-12500J0D01*
G01*
X10252500D02*
G03*
X10252500Y11020000I-12500J0D01*
G01*
X8852500D02*
G03*
X8852500Y11020000I-12500J0D01*
G01*
X1652500D02*
G03*
X1652500Y11020000I-12500J0D01*
G01*
X19552499Y14520000D02*
G03*
X19552499Y14520000I-12500J0D01*
G01*
X17852499D02*
G03*
X17852499Y14520000I-12500J0D01*
G01*
X16152499D02*
G03*
X16152499Y14520000I-12500J0D01*
G01*
X13952499D02*
G03*
X13952499Y14520000I-12500J0D01*
G01*
X12237500Y14525000D02*
G03*
X12237500Y14525000I-12500J0D01*
G01*
X10652500Y14520000D02*
G03*
X10652500Y14520000I-12500J0D01*
G01*
X8852500D02*
G03*
X8852500Y14520000I-12500J0D01*
G01*
X6652500D02*
G03*
X6652500Y14520000I-12500J0D01*
G01*
X4937500Y14525000D02*
G03*
X4937500Y14525000I-12500J0D01*
G01*
X3352500Y14520000D02*
G03*
X3352500Y14520000I-12500J0D01*
G01*
X1552500D02*
G03*
X1552500Y14520000I-12500J0D01*
G01*
X19552499Y16720000D02*
G03*
X19552499Y16720000I-12500J0D01*
G01*
X17852499D02*
G03*
X17852499Y16720000I-12500J0D01*
G01*
X16152499D02*
G03*
X16152499Y16720000I-12500J0D01*
G01*
X13952499D02*
G03*
X13952499Y16720000I-12500J0D01*
G01*
X12252500D02*
G03*
X12252500Y16720000I-12500J0D01*
G01*
X10537500Y16725000D02*
G03*
X10537500Y16725000I-12500J0D01*
G01*
X8852500Y16720000D02*
G03*
X8852500Y16720000I-12500J0D01*
G01*
X6352500D02*
G03*
X6352500Y16720000I-12500J0D01*
G01*
X4652500D02*
G03*
X4652500Y16720000I-12500J0D01*
G01*
X2952500D02*
G03*
X2952500Y16720000I-12500J0D01*
G01*
X1252500D02*
G03*
X1252500Y16720000I-12500J0D01*
G01*
X19252499Y19020000D02*
G03*
X19252499Y19020000I-12500J0D01*
G01*
X17667500D02*
G03*
X17667500Y19020000I-12500J0D01*
G01*
X15852499D02*
G03*
X15852499Y19020000I-12500J0D01*
G01*
X13652499D02*
G03*
X13652499Y19020000I-12500J0D01*
G01*
X12367500D02*
G03*
X12367500Y19020000I-12500J0D01*
G01*
X10667500D02*
G03*
X10667500Y19020000I-12500J0D01*
G01*
X9052500D02*
G03*
X9052500Y19020000I-12500J0D01*
G01*
X6252500D02*
G03*
X6252500Y19020000I-12500J0D01*
G01*
X4552500D02*
G03*
X4552500Y19020000I-12500J0D01*
G01*
X2967500D02*
G03*
X2967500Y19020000I-12500J0D01*
G01*
X1152500D02*
G03*
X1152500Y19020000I-12500J0D01*
G01*
X19252499Y21220000D02*
G03*
X19252499Y21220000I-12500J0D01*
G01*
X17552499D02*
G03*
X17552499Y21220000I-12500J0D01*
G01*
X16252499D02*
G03*
X16252499Y21220000I-12500J0D01*
G01*
X13567500D02*
G03*
X13567500Y21220000I-12500J0D01*
G01*
X12352500D02*
G03*
X12352500Y21220000I-12500J0D01*
G01*
X10652500D02*
G03*
X10652500Y21220000I-12500J0D01*
G01*
X8952500D02*
G03*
X8952500Y21220000I-12500J0D01*
G01*
X6267500D02*
G03*
X6267500Y21220000I-12500J0D01*
G01*
X4667500D02*
G03*
X4667500Y21220000I-12500J0D01*
G01*
X2952500D02*
G03*
X2952500Y21220000I-12500J0D01*
G01*
X1152500D02*
G03*
X1152500Y21220000I-12500J0D01*
G01*
D44*
X5870000Y1855000D02*
G03*
X5870000Y1855000I-30000J0D01*
G01*
X7170000Y12355000D02*
G03*
X7170000Y12355000I-30000J0D01*
G01*
Y15855000D02*
G03*
X7170000Y15855000I-30000J0D01*
G01*
Y18355000D02*
G03*
X7170000Y18355000I-30000J0D01*
G01*
Y20555000D02*
G03*
X7170000Y20555000I-30000J0D01*
G01*
%TF.MD5,8d146c2ca56a03527322dd25dda59bd9*%
M02*
