%TF.GenerationSoftware,Altium Limited,Altium Designer,20.2.5 (213)*%
G04 Layer_Color=8421504*
%FSLAX45Y45*%
%MOMM*%
%TF.SameCoordinates,662F433C-BD6F-4083-8A0F-E7C0AAC1164F*%
%TF.FilePolarity,Positive*%
%TF.FileFunction,Paste,Top*%
%TF.Part,Single*%
G01*
G75*
%TA.AperFunction,SMDPad,CuDef*%
%ADD10R,1.05000X0.65000*%
%ADD11R,0.65000X1.05000*%
%ADD12R,0.95000X1.40000*%
%ADD13R,1.40000X0.95000*%
%ADD14O,1.45000X0.60000*%
D10*
X435000Y7895000D02*
D03*
Y7705000D02*
D03*
X665000Y7800000D02*
D03*
X13914999Y4405000D02*
D03*
Y4595000D02*
D03*
X13685001Y4500000D02*
D03*
X12200000Y4410000D02*
D03*
Y4600000D02*
D03*
X11970000Y4505000D02*
D03*
X10500000Y4410000D02*
D03*
Y4600000D02*
D03*
X10270000Y4505000D02*
D03*
X8815000Y4405000D02*
D03*
Y4595000D02*
D03*
X8585000Y4500000D02*
D03*
X5285000Y3095000D02*
D03*
Y2905000D02*
D03*
X5515000Y3000000D02*
D03*
X13914999Y6605000D02*
D03*
Y6795000D02*
D03*
X13685001Y6700000D02*
D03*
X12200000Y6610000D02*
D03*
Y6800000D02*
D03*
X11970000Y6705000D02*
D03*
X10515000Y6605000D02*
D03*
Y6795000D02*
D03*
X10285000Y6700000D02*
D03*
X8815000Y6605000D02*
D03*
Y6795000D02*
D03*
X8585000Y6700000D02*
D03*
X6615000Y5505000D02*
D03*
Y5695000D02*
D03*
X6385000Y5600000D02*
D03*
X5515000Y5505000D02*
D03*
Y5695000D02*
D03*
X5285000Y5600000D02*
D03*
X3200000Y5510000D02*
D03*
Y5700000D02*
D03*
X2970000Y5605000D02*
D03*
X13914999Y8905000D02*
D03*
Y9095000D02*
D03*
X13685001Y9000000D02*
D03*
X12200000Y8910000D02*
D03*
Y9100000D02*
D03*
X11970000Y9005000D02*
D03*
X10500000Y8900000D02*
D03*
Y9090000D02*
D03*
X10270000Y8995000D02*
D03*
X8815000Y8905000D02*
D03*
Y9095000D02*
D03*
X8585000Y9000000D02*
D03*
X5015000Y6605000D02*
D03*
Y6795000D02*
D03*
X4785000Y6700000D02*
D03*
X13914999Y11105000D02*
D03*
Y11295000D02*
D03*
X13685001Y11200000D02*
D03*
X12215000Y11105000D02*
D03*
Y11295000D02*
D03*
X11985000Y11200000D02*
D03*
X10215000Y11105000D02*
D03*
Y11295000D02*
D03*
X9985000Y11200000D02*
D03*
X8815000Y11105000D02*
D03*
Y11295000D02*
D03*
X8585000Y11200000D02*
D03*
X1615000Y11105000D02*
D03*
Y11295000D02*
D03*
X1385000Y11200000D02*
D03*
X19514999Y14605000D02*
D03*
Y14795000D02*
D03*
X19285001Y14700000D02*
D03*
X17814999Y14605000D02*
D03*
Y14795000D02*
D03*
X17585001Y14700000D02*
D03*
X16114999Y14605000D02*
D03*
Y14795000D02*
D03*
X15885001Y14700000D02*
D03*
X13914999Y14605000D02*
D03*
Y14795000D02*
D03*
X13685001Y14700000D02*
D03*
X12200000Y14610001D02*
D03*
Y14800000D02*
D03*
X11970000Y14705000D02*
D03*
X10615000Y14605000D02*
D03*
Y14795000D02*
D03*
X10385000Y14700000D02*
D03*
X8815000Y14605000D02*
D03*
Y14795000D02*
D03*
X8585000Y14700000D02*
D03*
X6615000Y14605000D02*
D03*
Y14795000D02*
D03*
X6385000Y14700000D02*
D03*
X4900000Y14610001D02*
D03*
Y14800000D02*
D03*
X4670000Y14705000D02*
D03*
X3315000Y14605000D02*
D03*
Y14795000D02*
D03*
X3085000Y14700000D02*
D03*
X1515000Y14605000D02*
D03*
Y14795000D02*
D03*
X1285000Y14700000D02*
D03*
X19514999Y16805000D02*
D03*
Y16995000D02*
D03*
X19285001Y16900000D02*
D03*
X17814999Y16805000D02*
D03*
Y16995000D02*
D03*
X17585001Y16900000D02*
D03*
X16114999Y16805000D02*
D03*
Y16995000D02*
D03*
X15885001Y16900000D02*
D03*
X13914999Y16805000D02*
D03*
Y16995000D02*
D03*
X13685001Y16900000D02*
D03*
X12215000Y16805000D02*
D03*
Y16995000D02*
D03*
X11985000Y16900000D02*
D03*
X10500000Y16810001D02*
D03*
Y17000000D02*
D03*
X10270000Y16905000D02*
D03*
X8815000Y16805000D02*
D03*
Y16995000D02*
D03*
X8585000Y16900000D02*
D03*
X6315000Y16805000D02*
D03*
Y16995000D02*
D03*
X6085000Y16900000D02*
D03*
X4615000Y16805000D02*
D03*
Y16995000D02*
D03*
X4385000Y16900000D02*
D03*
X2915000Y16805000D02*
D03*
Y16995000D02*
D03*
X2685000Y16900000D02*
D03*
X1215000Y16805000D02*
D03*
Y16995000D02*
D03*
X985000Y16900000D02*
D03*
X19214999Y19105000D02*
D03*
Y19295000D02*
D03*
X18985001Y19200000D02*
D03*
X17630000Y19105000D02*
D03*
Y19295000D02*
D03*
X17400000Y19200000D02*
D03*
X15814999Y19105000D02*
D03*
Y19295000D02*
D03*
X15585001Y19200000D02*
D03*
X13614999Y19105000D02*
D03*
Y19295000D02*
D03*
X13385001Y19200000D02*
D03*
X12330000Y19105000D02*
D03*
Y19295000D02*
D03*
X12100000Y19200000D02*
D03*
X10630000Y19105000D02*
D03*
Y19295000D02*
D03*
X10400000Y19200000D02*
D03*
X9015000Y19105000D02*
D03*
Y19295000D02*
D03*
X8785000Y19200000D02*
D03*
X6215000Y19105000D02*
D03*
Y19295000D02*
D03*
X5985000Y19200000D02*
D03*
X4515000Y19105000D02*
D03*
Y19295000D02*
D03*
X4285000Y19200000D02*
D03*
X2930000Y19105000D02*
D03*
Y19295000D02*
D03*
X2700000Y19200000D02*
D03*
X1115000Y19105000D02*
D03*
Y19295000D02*
D03*
X885000Y19200000D02*
D03*
X19214999Y21305000D02*
D03*
Y21495000D02*
D03*
X18985001Y21400000D02*
D03*
X17514999Y21305000D02*
D03*
Y21495000D02*
D03*
X17285001Y21400000D02*
D03*
X16214999Y21305000D02*
D03*
Y21495000D02*
D03*
X15985001Y21400000D02*
D03*
X13530000Y21305000D02*
D03*
Y21495000D02*
D03*
X13300000Y21400000D02*
D03*
X12315000Y21305000D02*
D03*
Y21495000D02*
D03*
X12085000Y21400000D02*
D03*
X10615000Y21305000D02*
D03*
Y21495000D02*
D03*
X10385000Y21400000D02*
D03*
X8915000Y21305000D02*
D03*
Y21495000D02*
D03*
X8685000Y21400000D02*
D03*
X6230000Y21305000D02*
D03*
Y21495000D02*
D03*
X6000000Y21400000D02*
D03*
X4630000Y21305000D02*
D03*
Y21495000D02*
D03*
X4400000Y21400000D02*
D03*
X2915000Y21305000D02*
D03*
Y21495000D02*
D03*
X2685000Y21400000D02*
D03*
X1115000Y21305000D02*
D03*
Y21495000D02*
D03*
X885000Y21400000D02*
D03*
D11*
X1455000Y6335000D02*
D03*
X1645000D02*
D03*
X1550000Y6565000D02*
D03*
D12*
X3650000Y10800000D02*
D03*
X3850000D02*
D03*
D13*
X5950000Y9650000D02*
D03*
Y9850000D02*
D03*
Y8200000D02*
D03*
Y8000000D02*
D03*
X6500000Y1900000D02*
D03*
Y1700000D02*
D03*
X7400000Y14800000D02*
D03*
Y14600000D02*
D03*
Y17000000D02*
D03*
Y16800000D02*
D03*
X7200000Y19300000D02*
D03*
Y19100000D02*
D03*
X7600000Y21500000D02*
D03*
Y21300000D02*
D03*
X8200000Y12600000D02*
D03*
Y12800000D02*
D03*
D14*
X6172500Y1509500D02*
D03*
Y1636500D02*
D03*
Y1763500D02*
D03*
Y1890500D02*
D03*
X5627500Y1509500D02*
D03*
Y1636500D02*
D03*
Y1763500D02*
D03*
Y1890500D02*
D03*
X7472500Y12009500D02*
D03*
Y12136500D02*
D03*
Y12263500D02*
D03*
Y12390500D02*
D03*
X6927500Y12009500D02*
D03*
Y12136500D02*
D03*
Y12263500D02*
D03*
Y12390500D02*
D03*
X7472500Y15509500D02*
D03*
Y15636501D02*
D03*
Y15763499D02*
D03*
Y15890500D02*
D03*
X6927500Y15509500D02*
D03*
Y15636501D02*
D03*
Y15763499D02*
D03*
Y15890500D02*
D03*
X7472500Y18009500D02*
D03*
Y18136501D02*
D03*
Y18263499D02*
D03*
Y18390500D02*
D03*
X6927500Y18009500D02*
D03*
Y18136501D02*
D03*
Y18263499D02*
D03*
Y18390500D02*
D03*
X7472500Y20209500D02*
D03*
Y20336501D02*
D03*
Y20463499D02*
D03*
Y20590500D02*
D03*
X6927500Y20209500D02*
D03*
Y20336501D02*
D03*
Y20463499D02*
D03*
Y20590500D02*
D03*
%TF.MD5,964f34f8fe1dca4c4f568593a245eaab*%
M02*
