%TF.GenerationSoftware,Altium Limited,Altium Designer,20.2.5 (213)*%
G04 Layer_Color=16711935*
%FSLAX45Y45*%
%MOMM*%
%TF.SameCoordinates,662F433C-BD6F-4083-8A0F-E7C0AAC1164F*%
%TF.FilePolarity,Positive*%
%TF.FileFunction,Other,Mechanical_13*%
%TF.Part,Single*%
G01*
G75*
%TA.AperFunction,NonConductor*%
%ADD50C,0.10000*%
D50*
X5840000Y1865000D02*
G03*
X5840000Y1865000I-50000J0D01*
G01*
X7140000Y12365000D02*
G03*
X7140000Y12365000I-50000J0D01*
G01*
Y15864999D02*
G03*
X7140000Y15864999I-50000J0D01*
G01*
Y18364999D02*
G03*
X7140000Y18364999I-50000J0D01*
G01*
Y20564999D02*
G03*
X7140000Y20564999I-50000J0D01*
G01*
X5700000Y1445000D02*
X6100000D01*
X5700000Y1955000D02*
X6100000D01*
Y1445000D02*
Y1955000D01*
X5700000Y1445000D02*
Y1955000D01*
X7000000Y11945000D02*
X7400000D01*
X7000000Y12455000D02*
X7400000D01*
Y11945000D02*
Y12455000D01*
X7000000Y11945000D02*
Y12455000D01*
Y15445000D02*
X7400000D01*
X7000000Y15955000D02*
X7400000D01*
Y15445000D02*
Y15955000D01*
X7000000Y15445000D02*
Y15955000D01*
Y17945000D02*
X7400000D01*
X7000000Y18455000D02*
X7400000D01*
Y17945000D02*
Y18455000D01*
X7000000Y17945000D02*
Y18455000D01*
Y20145000D02*
X7400000D01*
X7000000Y20655000D02*
X7400000D01*
Y20145000D02*
Y20655000D01*
X7000000Y20145000D02*
Y20655000D01*
%TF.MD5,4085043884fa59c73a9ed38d02cc169a*%
M02*
