%TF.GenerationSoftware,Altium Limited,Altium Designer,20.2.5 (213)*%
G04 Layer_Color=32896*
%FSLAX45Y45*%
%MOMM*%
%TF.SameCoordinates,662F433C-BD6F-4083-8A0F-E7C0AAC1164F*%
%TF.FilePolarity,Positive*%
%TF.FileFunction,Other,Mechanical_8*%
%TF.Part,Single*%
G01*
G75*
%TA.AperFunction,NonConductor*%
%ADD50C,0.10000*%
D50*
X2573000Y15100000D02*
X2623000D01*
X2573000Y15050000D02*
Y15100000D01*
Y15150000D01*
X2523000Y15100000D02*
X2573000D01*
X2827000D02*
X2877000D01*
X2827000Y15050000D02*
Y15100000D01*
Y15150000D01*
X2777000Y15100000D02*
X2827000D01*
X2700000D02*
X2735355Y15135355D01*
X2700000Y15100000D02*
X2735355Y15064645D01*
X2664645Y15135355D02*
X2700000Y15100000D01*
X2664645Y15064645D02*
X2700000Y15100000D01*
X10723000Y11600000D02*
X10773000D01*
X10723000Y11550000D02*
Y11600000D01*
Y11650000D01*
X10673000Y11600000D02*
X10723000D01*
X10977000D02*
X11027000D01*
X10977000Y11550000D02*
Y11600000D01*
Y11650000D01*
X10927000Y11600000D02*
X10977000D01*
X10850000D02*
X10885355Y11635355D01*
X10850000Y11600000D02*
X10885355Y11564645D01*
X10814645Y11635355D02*
X10850000Y11600000D01*
X10814645Y11564645D02*
X10850000Y11600000D01*
X4273000D02*
X4323000D01*
X4273000Y11550000D02*
Y11600000D01*
Y11650000D01*
X4223000Y11600000D02*
X4273000D01*
X4527000D02*
X4577000D01*
X4527000Y11550000D02*
Y11600000D01*
Y11650000D01*
X4477000Y11600000D02*
X4527000D01*
X4400000D02*
X4435355Y11635355D01*
X4400000Y11600000D02*
X4435355Y11564645D01*
X4364645Y11635355D02*
X4400000Y11600000D01*
X4364645Y11564645D02*
X4400000Y11600000D01*
X873000D02*
X923000D01*
X873000Y11550000D02*
Y11600000D01*
Y11650000D01*
X823000Y11600000D02*
X873000D01*
X1127000D02*
X1177000D01*
X1127000Y11550000D02*
Y11600000D01*
Y11650000D01*
X1077000Y11600000D02*
X1127000D01*
X1000000D02*
X1035355Y11635355D01*
X1000000Y11600000D02*
X1035355Y11564645D01*
X964645Y11635355D02*
X1000000Y11600000D01*
X964645Y11564645D02*
X1000000Y11600000D01*
X18273000Y14700000D02*
X18323000D01*
X18273000Y14650000D02*
Y14700000D01*
Y14750000D01*
X18223000Y14700000D02*
X18273000D01*
X18527000D02*
X18577000D01*
X18527000Y14650000D02*
Y14700000D01*
Y14750000D01*
X18477000Y14700000D02*
X18527000D01*
X18400000D02*
X18435355Y14735355D01*
X18400000Y14700000D02*
X18435355Y14664645D01*
X18364645Y14735355D02*
X18400000Y14700000D01*
X18364645Y14664645D02*
X18400000Y14700000D01*
X11573000Y19200000D02*
X11623000D01*
X11573000Y19150000D02*
Y19200000D01*
Y19250000D01*
X11523000Y19200000D02*
X11573000D01*
X11827000D02*
X11877000D01*
X11827000Y19150000D02*
Y19200000D01*
Y19250000D01*
X11777000Y19200000D02*
X11827000D01*
X11700000D02*
X11735355Y19235355D01*
X11700000Y19200000D02*
X11735355Y19164645D01*
X11664645Y19235355D02*
X11700000Y19200000D01*
X11664645Y19164645D02*
X11700000Y19200000D01*
X9873000D02*
X9923000D01*
X9873000Y19150000D02*
Y19200000D01*
Y19250000D01*
X9823000Y19200000D02*
X9873000D01*
X10127000D02*
X10177000D01*
X10127000Y19150000D02*
Y19200000D01*
Y19250000D01*
X10077000Y19200000D02*
X10127000D01*
X10000000D02*
X10035355Y19235355D01*
X10000000Y19200000D02*
X10035355Y19164645D01*
X9964645Y19235355D02*
X10000000Y19200000D01*
X9964645Y19164645D02*
X10000000Y19200000D01*
X8173000D02*
X8223000D01*
X8173000Y19150000D02*
Y19200000D01*
Y19250000D01*
X8123000Y19200000D02*
X8173000D01*
X8427000D02*
X8477000D01*
X8427000Y19150000D02*
Y19200000D01*
Y19250000D01*
X8377000Y19200000D02*
X8427000D01*
X8300000D02*
X8335355Y19235355D01*
X8300000Y19200000D02*
X8335355Y19164645D01*
X8264645Y19235355D02*
X8300000Y19200000D01*
X8264645Y19164645D02*
X8300000Y19200000D01*
X14873000Y21450000D02*
X14923000D01*
X14873000Y21400000D02*
Y21450000D01*
Y21500000D01*
X14823000Y21450000D02*
X14873000D01*
X15127000D02*
X15177000D01*
X15127000Y21400000D02*
Y21450000D01*
Y21500000D01*
X15077000Y21450000D02*
X15127000D01*
X15000000D02*
X15035355Y21485355D01*
X15000000Y21450000D02*
X15035355Y21414645D01*
X14964645Y21485355D02*
X15000000Y21450000D01*
X14964645Y21414645D02*
X15000000Y21450000D01*
X11573000D02*
X11623000D01*
X11573000Y21400000D02*
Y21450000D01*
Y21500000D01*
X11523000Y21450000D02*
X11573000D01*
X11827000D02*
X11877000D01*
X11827000Y21400000D02*
Y21450000D01*
Y21500000D01*
X11777000Y21450000D02*
X11827000D01*
X11700000D02*
X11735355Y21485355D01*
X11700000Y21450000D02*
X11735355Y21414645D01*
X11664645Y21485355D02*
X11700000Y21450000D01*
X11664645Y21414645D02*
X11700000Y21450000D01*
X9873000D02*
X9923000D01*
X9873000Y21400000D02*
Y21450000D01*
Y21500000D01*
X9823000Y21450000D02*
X9873000D01*
X10127000D02*
X10177000D01*
X10127000Y21400000D02*
Y21450000D01*
Y21500000D01*
X10077000Y21450000D02*
X10127000D01*
X10000000D02*
X10035355Y21485355D01*
X10000000Y21450000D02*
X10035355Y21414645D01*
X9964645Y21485355D02*
X10000000Y21450000D01*
X9964645Y21414645D02*
X10000000Y21450000D01*
X8173000D02*
X8223000D01*
X8173000Y21400000D02*
Y21450000D01*
Y21500000D01*
X8123000Y21450000D02*
X8173000D01*
X8427000D02*
X8477000D01*
X8427000Y21400000D02*
Y21450000D01*
Y21500000D01*
X8377000Y21450000D02*
X8427000D01*
X8300000D02*
X8335355Y21485355D01*
X8300000Y21450000D02*
X8335355Y21414645D01*
X8264645Y21485355D02*
X8300000Y21450000D01*
X8264645Y21414645D02*
X8300000Y21450000D01*
%TF.MD5,9c76c2d88407a9c9c850895199161e4c*%
M02*
