%TF.GenerationSoftware,Altium Limited,Altium Designer,20.2.5 (213)*%
G04 Layer_Color=32768*
%FSLAX45Y45*%
%MOMM*%
%TF.SameCoordinates,662F433C-BD6F-4083-8A0F-E7C0AAC1164F*%
%TF.FilePolarity,Positive*%
%TF.FileFunction,Other,Mechanical_15*%
%TF.Part,Single*%
G01*
G75*
%TA.AperFunction,NonConductor*%
%ADD50C,0.10000*%
%ADD51C,0.05000*%
D50*
X5900000Y1650000D02*
Y1750000D01*
X5850000Y1700000D02*
X5950000D01*
X7200000Y12150000D02*
Y12250000D01*
X7150000Y12200000D02*
X7250000D01*
X7200000Y15650000D02*
Y15750000D01*
X7150000Y15700000D02*
X7250000D01*
X7200000Y18150000D02*
Y18250000D01*
X7150000Y18200000D02*
X7250000D01*
X7200000Y20350000D02*
Y20450000D01*
X7150000Y20400000D02*
X7250000D01*
D51*
X585000Y7800000D02*
G03*
X585000Y7800000I-35000J0D01*
G01*
X1585000Y6450000D02*
G03*
X1585000Y6450000I-35000J0D01*
G01*
X13835001Y4500000D02*
G03*
X13835001Y4500000I-35000J0D01*
G01*
X12120000Y4505000D02*
G03*
X12120000Y4505000I-35000J0D01*
G01*
X10420000D02*
G03*
X10420000Y4505000I-35000J0D01*
G01*
X8735000Y4500000D02*
G03*
X8735000Y4500000I-35000J0D01*
G01*
X5435000Y3000000D02*
G03*
X5435000Y3000000I-35000J0D01*
G01*
X13835001Y6700000D02*
G03*
X13835001Y6700000I-35000J0D01*
G01*
X12120000Y6705000D02*
G03*
X12120000Y6705000I-35000J0D01*
G01*
X10435000Y6700000D02*
G03*
X10435000Y6700000I-35000J0D01*
G01*
X8735000D02*
G03*
X8735000Y6700000I-35000J0D01*
G01*
X6535000Y5600000D02*
G03*
X6535000Y5600000I-35000J0D01*
G01*
X5435000D02*
G03*
X5435000Y5600000I-35000J0D01*
G01*
X3120000Y5605000D02*
G03*
X3120000Y5605000I-35000J0D01*
G01*
X13835001Y9000000D02*
G03*
X13835001Y9000000I-35000J0D01*
G01*
X12120000Y9005000D02*
G03*
X12120000Y9005000I-35000J0D01*
G01*
X10420000Y8995000D02*
G03*
X10420000Y8995000I-35000J0D01*
G01*
X8735000Y9000000D02*
G03*
X8735000Y9000000I-35000J0D01*
G01*
X4935000Y6700000D02*
G03*
X4935000Y6700000I-35000J0D01*
G01*
X13835001Y11200000D02*
G03*
X13835001Y11200000I-35000J0D01*
G01*
X12135000D02*
G03*
X12135000Y11200000I-35000J0D01*
G01*
X10135000D02*
G03*
X10135000Y11200000I-35000J0D01*
G01*
X8735000D02*
G03*
X8735000Y11200000I-35000J0D01*
G01*
X1535000D02*
G03*
X1535000Y11200000I-35000J0D01*
G01*
X19435001Y14700000D02*
G03*
X19435001Y14700000I-35000J0D01*
G01*
X17735001D02*
G03*
X17735001Y14700000I-35000J0D01*
G01*
X16035001D02*
G03*
X16035001Y14700000I-35000J0D01*
G01*
X13835001D02*
G03*
X13835001Y14700000I-35000J0D01*
G01*
X12120000Y14705000D02*
G03*
X12120000Y14705000I-35000J0D01*
G01*
X10535000Y14700000D02*
G03*
X10535000Y14700000I-35000J0D01*
G01*
X8735000D02*
G03*
X8735000Y14700000I-35000J0D01*
G01*
X6535000D02*
G03*
X6535000Y14700000I-35000J0D01*
G01*
X4820000Y14705000D02*
G03*
X4820000Y14705000I-35000J0D01*
G01*
X3235000Y14700000D02*
G03*
X3235000Y14700000I-35000J0D01*
G01*
X1435000D02*
G03*
X1435000Y14700000I-35000J0D01*
G01*
X19435001Y16900000D02*
G03*
X19435001Y16900000I-35000J0D01*
G01*
X17735001D02*
G03*
X17735001Y16900000I-35000J0D01*
G01*
X16035001D02*
G03*
X16035001Y16900000I-35000J0D01*
G01*
X13835001D02*
G03*
X13835001Y16900000I-35000J0D01*
G01*
X12135000D02*
G03*
X12135000Y16900000I-35000J0D01*
G01*
X10420000Y16905000D02*
G03*
X10420000Y16905000I-35000J0D01*
G01*
X8735000Y16900000D02*
G03*
X8735000Y16900000I-35000J0D01*
G01*
X6235000D02*
G03*
X6235000Y16900000I-35000J0D01*
G01*
X4535000D02*
G03*
X4535000Y16900000I-35000J0D01*
G01*
X2835000D02*
G03*
X2835000Y16900000I-35000J0D01*
G01*
X1135000D02*
G03*
X1135000Y16900000I-35000J0D01*
G01*
X19135001Y19200000D02*
G03*
X19135001Y19200000I-35000J0D01*
G01*
X17550000D02*
G03*
X17550000Y19200000I-35000J0D01*
G01*
X15735001D02*
G03*
X15735001Y19200000I-35000J0D01*
G01*
X13535001D02*
G03*
X13535001Y19200000I-35000J0D01*
G01*
X12250000D02*
G03*
X12250000Y19200000I-35000J0D01*
G01*
X10550000D02*
G03*
X10550000Y19200000I-35000J0D01*
G01*
X8935000D02*
G03*
X8935000Y19200000I-35000J0D01*
G01*
X6135000D02*
G03*
X6135000Y19200000I-35000J0D01*
G01*
X4435000D02*
G03*
X4435000Y19200000I-35000J0D01*
G01*
X2850000D02*
G03*
X2850000Y19200000I-35000J0D01*
G01*
X1035000D02*
G03*
X1035000Y19200000I-35000J0D01*
G01*
X19135001Y21400000D02*
G03*
X19135001Y21400000I-35000J0D01*
G01*
X17435001D02*
G03*
X17435001Y21400000I-35000J0D01*
G01*
X16135001D02*
G03*
X16135001Y21400000I-35000J0D01*
G01*
X13450000D02*
G03*
X13450000Y21400000I-35000J0D01*
G01*
X12235000D02*
G03*
X12235000Y21400000I-35000J0D01*
G01*
X10535000D02*
G03*
X10535000Y21400000I-35000J0D01*
G01*
X8835000D02*
G03*
X8835000Y21400000I-35000J0D01*
G01*
X6150000D02*
G03*
X6150000Y21400000I-35000J0D01*
G01*
X4550000D02*
G03*
X4550000Y21400000I-35000J0D01*
G01*
X2835000D02*
G03*
X2835000Y21400000I-35000J0D01*
G01*
X1035000D02*
G03*
X1035000Y21400000I-35000J0D01*
G01*
X500000Y7800000D02*
X600000D01*
X550000Y7750000D02*
Y7850000D01*
X355000Y7625000D02*
Y7975000D01*
X745000D01*
Y7625000D02*
Y7975000D01*
X355000Y7625000D02*
X745000D01*
X1550000Y6400000D02*
Y6500000D01*
X1500000Y6450000D02*
X1600000D01*
X1375000Y6255000D02*
X1725000D01*
X1375000D02*
Y6645000D01*
X1725000D01*
Y6255000D02*
Y6645000D01*
X3750000Y10770000D02*
Y10830000D01*
X3720000Y10800000D02*
X3780000D01*
X3575000Y10895000D02*
X3925000D01*
X3575000Y10705000D02*
X3925000D01*
X3575000D02*
Y10895000D01*
X3925000Y10705000D02*
Y10895000D01*
X5920000Y9750000D02*
X5980000D01*
X5950000Y9720000D02*
Y9780000D01*
X5855000Y9575000D02*
Y9925000D01*
X6045000Y9575000D02*
Y9925000D01*
X5855000Y9575000D02*
X6045000D01*
X5855000Y9925000D02*
X6045000D01*
X5920000Y8100000D02*
X5980000D01*
X5950000Y8070000D02*
Y8130000D01*
X6045000Y7925000D02*
Y8275000D01*
X5855000Y7925000D02*
Y8275000D01*
X6045000D01*
X5855000Y7925000D02*
X6045000D01*
X5530000Y1420000D02*
X6270000D01*
X5530000Y1980000D02*
X6270000D01*
Y1420000D02*
Y1980000D01*
X5530000Y1420000D02*
Y1980000D01*
X6830000Y11920000D02*
X7570000D01*
X6830000Y12480000D02*
X7570000D01*
Y11920000D02*
Y12480000D01*
X6830000Y11920000D02*
Y12480000D01*
Y15420000D02*
X7570000D01*
X6830000Y15980000D02*
X7570000D01*
Y15420000D02*
Y15980000D01*
X6830000Y15420000D02*
Y15980000D01*
Y17920000D02*
X7570000D01*
X6830000Y18480000D02*
X7570000D01*
Y17920000D02*
Y18480000D01*
X6830000Y17920000D02*
Y18480000D01*
Y20120000D02*
X7570000D01*
X6830000Y20680000D02*
X7570000D01*
Y20120000D02*
Y20680000D01*
X6830000Y20120000D02*
Y20680000D01*
X6470000Y1800000D02*
X6530000D01*
X6500000Y1770000D02*
Y1830000D01*
X6595000Y1625000D02*
Y1975000D01*
X6405000Y1625000D02*
Y1975000D01*
X6595000D01*
X6405000Y1625000D02*
X6595000D01*
X7370000Y14700000D02*
X7430000D01*
X7400000Y14670000D02*
Y14730000D01*
X7495000Y14525000D02*
Y14875000D01*
X7305000Y14525000D02*
Y14875000D01*
X7495000D01*
X7305000Y14525000D02*
X7495000D01*
X7370000Y16900000D02*
X7430000D01*
X7400000Y16870000D02*
Y16930000D01*
X7495000Y16725000D02*
Y17075000D01*
X7305000Y16725000D02*
Y17075000D01*
X7495000D01*
X7305000Y16725000D02*
X7495000D01*
X7170000Y19200000D02*
X7230000D01*
X7200000Y19170000D02*
Y19230000D01*
X7295000Y19025000D02*
Y19375000D01*
X7105000Y19025000D02*
Y19375000D01*
X7295000D01*
X7105000Y19025000D02*
X7295000D01*
X7570000Y21400000D02*
X7630000D01*
X7600000Y21370000D02*
Y21430000D01*
X7695000Y21225000D02*
Y21575000D01*
X7505000Y21225000D02*
Y21575000D01*
X7695000D01*
X7505000Y21225000D02*
X7695000D01*
X8170000Y12700000D02*
X8230000D01*
X8200000Y12670000D02*
Y12730000D01*
X8105000Y12525000D02*
Y12875000D01*
X8295000Y12525000D02*
Y12875000D01*
X8105000Y12525000D02*
X8295000D01*
X8105000Y12875000D02*
X8295000D01*
X13750000Y4500000D02*
X13850000D01*
X13800000Y4450000D02*
Y4550000D01*
X13995000Y4325000D02*
Y4675000D01*
X13605000Y4325000D02*
X13995000D01*
X13605000D02*
Y4675000D01*
X13995000D01*
X12035000Y4505000D02*
X12135000D01*
X12085000Y4455000D02*
Y4555000D01*
X12280000Y4330000D02*
Y4680000D01*
X11890000Y4330000D02*
X12280000D01*
X11890000D02*
Y4680000D01*
X12280000D01*
X10335000Y4505000D02*
X10435000D01*
X10385000Y4455000D02*
Y4555000D01*
X10580000Y4330000D02*
Y4680000D01*
X10190000Y4330000D02*
X10580000D01*
X10190000D02*
Y4680000D01*
X10580000D01*
X8650000Y4500000D02*
X8750000D01*
X8700000Y4450000D02*
Y4550000D01*
X8895000Y4325000D02*
Y4675000D01*
X8505000Y4325000D02*
X8895000D01*
X8505000D02*
Y4675000D01*
X8895000D01*
X5350000Y3000000D02*
X5450000D01*
X5400000Y2950000D02*
Y3050000D01*
X5205000Y2825000D02*
Y3175000D01*
X5595000D01*
Y2825000D02*
Y3175000D01*
X5205000Y2825000D02*
X5595000D01*
X13750000Y6700000D02*
X13850000D01*
X13800000Y6650000D02*
Y6750000D01*
X13995000Y6525000D02*
Y6875000D01*
X13605000Y6525000D02*
X13995000D01*
X13605000D02*
Y6875000D01*
X13995000D01*
X12035000Y6705000D02*
X12135000D01*
X12085000Y6655000D02*
Y6755000D01*
X12280000Y6530000D02*
Y6880000D01*
X11890000Y6530000D02*
X12280000D01*
X11890000D02*
Y6880000D01*
X12280000D01*
X10350000Y6700000D02*
X10450000D01*
X10400000Y6650000D02*
Y6750000D01*
X10595000Y6525000D02*
Y6875000D01*
X10205000Y6525000D02*
X10595000D01*
X10205000D02*
Y6875000D01*
X10595000D01*
X8650000Y6700000D02*
X8750000D01*
X8700000Y6650000D02*
Y6750000D01*
X8895000Y6525000D02*
Y6875000D01*
X8505000Y6525000D02*
X8895000D01*
X8505000D02*
Y6875000D01*
X8895000D01*
X6450000Y5600000D02*
X6550000D01*
X6500000Y5550000D02*
Y5650000D01*
X6695000Y5425000D02*
Y5775000D01*
X6305000Y5425000D02*
X6695000D01*
X6305000D02*
Y5775000D01*
X6695000D01*
X5350000Y5600000D02*
X5450000D01*
X5400000Y5550000D02*
Y5650000D01*
X5595000Y5425000D02*
Y5775000D01*
X5205000Y5425000D02*
X5595000D01*
X5205000D02*
Y5775000D01*
X5595000D01*
X3035000Y5605000D02*
X3135000D01*
X3085000Y5555000D02*
Y5655000D01*
X3280000Y5430000D02*
Y5780000D01*
X2890000Y5430000D02*
X3280000D01*
X2890000D02*
Y5780000D01*
X3280000D01*
X13750000Y9000000D02*
X13850000D01*
X13800000Y8950000D02*
Y9050000D01*
X13995000Y8825000D02*
Y9175000D01*
X13605000Y8825000D02*
X13995000D01*
X13605000D02*
Y9175000D01*
X13995000D01*
X12035000Y9005000D02*
X12135000D01*
X12085000Y8955000D02*
Y9055000D01*
X12280000Y8830000D02*
Y9180000D01*
X11890000Y8830000D02*
X12280000D01*
X11890000D02*
Y9180000D01*
X12280000D01*
X10335000Y8995000D02*
X10435000D01*
X10385000Y8945000D02*
Y9045000D01*
X10580000Y8820000D02*
Y9170000D01*
X10190000Y8820000D02*
X10580000D01*
X10190000D02*
Y9170000D01*
X10580000D01*
X8650000Y9000000D02*
X8750000D01*
X8700000Y8950000D02*
Y9050000D01*
X8895000Y8825000D02*
Y9175000D01*
X8505000Y8825000D02*
X8895000D01*
X8505000D02*
Y9175000D01*
X8895000D01*
X4850000Y6700000D02*
X4950000D01*
X4900000Y6650000D02*
Y6750000D01*
X5095000Y6525000D02*
Y6875000D01*
X4705000Y6525000D02*
X5095000D01*
X4705000D02*
Y6875000D01*
X5095000D01*
X13750000Y11200000D02*
X13850000D01*
X13800000Y11150000D02*
Y11250000D01*
X13995000Y11025000D02*
Y11375000D01*
X13605000Y11025000D02*
X13995000D01*
X13605000D02*
Y11375000D01*
X13995000D01*
X12050000Y11200000D02*
X12150000D01*
X12100000Y11150000D02*
Y11250000D01*
X12295000Y11025000D02*
Y11375000D01*
X11905000Y11025000D02*
X12295000D01*
X11905000D02*
Y11375000D01*
X12295000D01*
X10050000Y11200000D02*
X10150000D01*
X10100000Y11150000D02*
Y11250000D01*
X10295000Y11025000D02*
Y11375000D01*
X9905000Y11025000D02*
X10295000D01*
X9905000D02*
Y11375000D01*
X10295000D01*
X8650000Y11200000D02*
X8750000D01*
X8700000Y11150000D02*
Y11250000D01*
X8895000Y11025000D02*
Y11375000D01*
X8505000Y11025000D02*
X8895000D01*
X8505000D02*
Y11375000D01*
X8895000D01*
X1450000Y11200000D02*
X1550000D01*
X1500000Y11150000D02*
Y11250000D01*
X1695000Y11025000D02*
Y11375000D01*
X1305000Y11025000D02*
X1695000D01*
X1305000D02*
Y11375000D01*
X1695000D01*
X19350000Y14700000D02*
X19450000D01*
X19400000Y14650000D02*
Y14750000D01*
X19595000Y14525000D02*
Y14875000D01*
X19205000Y14525000D02*
X19595000D01*
X19205000D02*
Y14875000D01*
X19595000D01*
X17650000Y14700000D02*
X17750000D01*
X17700000Y14650000D02*
Y14750000D01*
X17895000Y14525000D02*
Y14875000D01*
X17505000Y14525000D02*
X17895000D01*
X17505000D02*
Y14875000D01*
X17895000D01*
X15950000Y14700000D02*
X16050000D01*
X16000000Y14650000D02*
Y14750000D01*
X16195000Y14525000D02*
Y14875000D01*
X15805000Y14525000D02*
X16195000D01*
X15805000D02*
Y14875000D01*
X16195000D01*
X13750000Y14700000D02*
X13850000D01*
X13800000Y14650000D02*
Y14750000D01*
X13995000Y14525000D02*
Y14875000D01*
X13605000Y14525000D02*
X13995000D01*
X13605000D02*
Y14875000D01*
X13995000D01*
X12035000Y14705000D02*
X12135000D01*
X12085000Y14655000D02*
Y14755000D01*
X12280000Y14530000D02*
Y14880000D01*
X11890000Y14530000D02*
X12280000D01*
X11890000D02*
Y14880000D01*
X12280000D01*
X10450000Y14700000D02*
X10550000D01*
X10500000Y14650000D02*
Y14750000D01*
X10695000Y14525000D02*
Y14875000D01*
X10305000Y14525000D02*
X10695000D01*
X10305000D02*
Y14875000D01*
X10695000D01*
X8650000Y14700000D02*
X8750000D01*
X8700000Y14650000D02*
Y14750000D01*
X8895000Y14525000D02*
Y14875000D01*
X8505000Y14525000D02*
X8895000D01*
X8505000D02*
Y14875000D01*
X8895000D01*
X6450000Y14700000D02*
X6550000D01*
X6500000Y14650000D02*
Y14750000D01*
X6695000Y14525000D02*
Y14875000D01*
X6305000Y14525000D02*
X6695000D01*
X6305000D02*
Y14875000D01*
X6695000D01*
X4735000Y14705000D02*
X4835000D01*
X4785000Y14655000D02*
Y14755000D01*
X4980000Y14530000D02*
Y14880000D01*
X4590000Y14530000D02*
X4980000D01*
X4590000D02*
Y14880000D01*
X4980000D01*
X3150000Y14700000D02*
X3250000D01*
X3200000Y14650000D02*
Y14750000D01*
X3395000Y14525000D02*
Y14875000D01*
X3005000Y14525000D02*
X3395000D01*
X3005000D02*
Y14875000D01*
X3395000D01*
X1350000Y14700000D02*
X1450000D01*
X1400000Y14650000D02*
Y14750000D01*
X1595000Y14525000D02*
Y14875000D01*
X1205000Y14525000D02*
X1595000D01*
X1205000D02*
Y14875000D01*
X1595000D01*
X19350000Y16900000D02*
X19450000D01*
X19400000Y16850000D02*
Y16950000D01*
X19595000Y16725000D02*
Y17075000D01*
X19205000Y16725000D02*
X19595000D01*
X19205000D02*
Y17075000D01*
X19595000D01*
X17650000Y16900000D02*
X17750000D01*
X17700000Y16850000D02*
Y16950000D01*
X17895000Y16725000D02*
Y17075000D01*
X17505000Y16725000D02*
X17895000D01*
X17505000D02*
Y17075000D01*
X17895000D01*
X15950000Y16900000D02*
X16050000D01*
X16000000Y16850000D02*
Y16950000D01*
X16195000Y16725000D02*
Y17075000D01*
X15805000Y16725000D02*
X16195000D01*
X15805000D02*
Y17075000D01*
X16195000D01*
X13750000Y16900000D02*
X13850000D01*
X13800000Y16850000D02*
Y16950000D01*
X13995000Y16725000D02*
Y17075000D01*
X13605000Y16725000D02*
X13995000D01*
X13605000D02*
Y17075000D01*
X13995000D01*
X12050000Y16900000D02*
X12150000D01*
X12100000Y16850000D02*
Y16950000D01*
X12295000Y16725000D02*
Y17075000D01*
X11905000Y16725000D02*
X12295000D01*
X11905000D02*
Y17075000D01*
X12295000D01*
X10335000Y16905000D02*
X10435000D01*
X10385000Y16855000D02*
Y16955000D01*
X10580000Y16730000D02*
Y17080000D01*
X10190000Y16730000D02*
X10580000D01*
X10190000D02*
Y17080000D01*
X10580000D01*
X8650000Y16900000D02*
X8750000D01*
X8700000Y16850000D02*
Y16950000D01*
X8895000Y16725000D02*
Y17075000D01*
X8505000Y16725000D02*
X8895000D01*
X8505000D02*
Y17075000D01*
X8895000D01*
X6150000Y16900000D02*
X6250000D01*
X6200000Y16850000D02*
Y16950000D01*
X6395000Y16725000D02*
Y17075000D01*
X6005000Y16725000D02*
X6395000D01*
X6005000D02*
Y17075000D01*
X6395000D01*
X4450000Y16900000D02*
X4550000D01*
X4500000Y16850000D02*
Y16950000D01*
X4695000Y16725000D02*
Y17075000D01*
X4305000Y16725000D02*
X4695000D01*
X4305000D02*
Y17075000D01*
X4695000D01*
X2750000Y16900000D02*
X2850000D01*
X2800000Y16850000D02*
Y16950000D01*
X2995000Y16725000D02*
Y17075000D01*
X2605000Y16725000D02*
X2995000D01*
X2605000D02*
Y17075000D01*
X2995000D01*
X1050000Y16900000D02*
X1150000D01*
X1100000Y16850000D02*
Y16950000D01*
X1295000Y16725000D02*
Y17075000D01*
X905000Y16725000D02*
X1295000D01*
X905000D02*
Y17075000D01*
X1295000D01*
X19050000Y19200000D02*
X19150000D01*
X19100000Y19150000D02*
Y19250000D01*
X19295000Y19025000D02*
Y19375000D01*
X18905000Y19025000D02*
X19295000D01*
X18905000D02*
Y19375000D01*
X19295000D01*
X17464999Y19200000D02*
X17564999D01*
X17514999Y19150000D02*
Y19250000D01*
X17710001Y19025000D02*
Y19375000D01*
X17320000Y19025000D02*
X17710001D01*
X17320000D02*
Y19375000D01*
X17710001D01*
X15650000Y19200000D02*
X15750000D01*
X15700000Y19150000D02*
Y19250000D01*
X15895000Y19025000D02*
Y19375000D01*
X15505000Y19025000D02*
X15895000D01*
X15505000D02*
Y19375000D01*
X15895000D01*
X13450000Y19200000D02*
X13550000D01*
X13500000Y19150000D02*
Y19250000D01*
X13695000Y19025000D02*
Y19375000D01*
X13305000Y19025000D02*
X13695000D01*
X13305000D02*
Y19375000D01*
X13695000D01*
X12165000Y19200000D02*
X12265000D01*
X12215000Y19150000D02*
Y19250000D01*
X12410000Y19025000D02*
Y19375000D01*
X12020000Y19025000D02*
X12410000D01*
X12020000D02*
Y19375000D01*
X12410000D01*
X10465000Y19200000D02*
X10565000D01*
X10515000Y19150000D02*
Y19250000D01*
X10710000Y19025000D02*
Y19375000D01*
X10320000Y19025000D02*
X10710000D01*
X10320000D02*
Y19375000D01*
X10710000D01*
X8850000Y19200000D02*
X8950000D01*
X8900000Y19150000D02*
Y19250000D01*
X9095000Y19025000D02*
Y19375000D01*
X8705000Y19025000D02*
X9095000D01*
X8705000D02*
Y19375000D01*
X9095000D01*
X6050000Y19200000D02*
X6150000D01*
X6100000Y19150000D02*
Y19250000D01*
X6295000Y19025000D02*
Y19375000D01*
X5905000Y19025000D02*
X6295000D01*
X5905000D02*
Y19375000D01*
X6295000D01*
X4350000Y19200000D02*
X4450000D01*
X4400000Y19150000D02*
Y19250000D01*
X4595000Y19025000D02*
Y19375000D01*
X4205000Y19025000D02*
X4595000D01*
X4205000D02*
Y19375000D01*
X4595000D01*
X2765000Y19200000D02*
X2865000D01*
X2815000Y19150000D02*
Y19250000D01*
X3010000Y19025000D02*
Y19375000D01*
X2620000Y19025000D02*
X3010000D01*
X2620000D02*
Y19375000D01*
X3010000D01*
X950000Y19200000D02*
X1050000D01*
X1000000Y19150000D02*
Y19250000D01*
X1195000Y19025000D02*
Y19375000D01*
X805000Y19025000D02*
X1195000D01*
X805000D02*
Y19375000D01*
X1195000D01*
X19050000Y21400000D02*
X19150000D01*
X19100000Y21350000D02*
Y21450000D01*
X19295000Y21225000D02*
Y21575000D01*
X18905000Y21225000D02*
X19295000D01*
X18905000D02*
Y21575000D01*
X19295000D01*
X17350000Y21400000D02*
X17450000D01*
X17400000Y21350000D02*
Y21450000D01*
X17595000Y21225000D02*
Y21575000D01*
X17205000Y21225000D02*
X17595000D01*
X17205000D02*
Y21575000D01*
X17595000D01*
X16050000Y21400000D02*
X16150000D01*
X16100000Y21350000D02*
Y21450000D01*
X16295000Y21225000D02*
Y21575000D01*
X15905000Y21225000D02*
X16295000D01*
X15905000D02*
Y21575000D01*
X16295000D01*
X13364999Y21400000D02*
X13464999D01*
X13414999Y21350000D02*
Y21450000D01*
X13610001Y21225000D02*
Y21575000D01*
X13220000Y21225000D02*
X13610001D01*
X13220000D02*
Y21575000D01*
X13610001D01*
X12150000Y21400000D02*
X12250000D01*
X12200000Y21350000D02*
Y21450000D01*
X12395000Y21225000D02*
Y21575000D01*
X12005000Y21225000D02*
X12395000D01*
X12005000D02*
Y21575000D01*
X12395000D01*
X10450000Y21400000D02*
X10550000D01*
X10500000Y21350000D02*
Y21450000D01*
X10695000Y21225000D02*
Y21575000D01*
X10305000Y21225000D02*
X10695000D01*
X10305000D02*
Y21575000D01*
X10695000D01*
X8750000Y21400000D02*
X8850000D01*
X8800000Y21350000D02*
Y21450000D01*
X8995000Y21225000D02*
Y21575000D01*
X8605000Y21225000D02*
X8995000D01*
X8605000D02*
Y21575000D01*
X8995000D01*
X6065000Y21400000D02*
X6165000D01*
X6115000Y21350000D02*
Y21450000D01*
X6310000Y21225000D02*
Y21575000D01*
X5920000Y21225000D02*
X6310000D01*
X5920000D02*
Y21575000D01*
X6310000D01*
X4465000Y21400000D02*
X4565000D01*
X4515000Y21350000D02*
Y21450000D01*
X4710000Y21225000D02*
Y21575000D01*
X4320000Y21225000D02*
X4710000D01*
X4320000D02*
Y21575000D01*
X4710000D01*
X2750000Y21400000D02*
X2850000D01*
X2800000Y21350000D02*
Y21450000D01*
X2995000Y21225000D02*
Y21575000D01*
X2605000Y21225000D02*
X2995000D01*
X2605000D02*
Y21575000D01*
X2995000D01*
X950000Y21400000D02*
X1050000D01*
X1000000Y21350000D02*
Y21450000D01*
X1195000Y21225000D02*
Y21575000D01*
X805000Y21225000D02*
X1195000D01*
X805000D02*
Y21575000D01*
X1195000D01*
%TF.MD5,94ae00574a51e1fc42c5129953def8dc*%
M02*
