%TF.GenerationSoftware,Altium Limited,Altium Designer,20.2.5 (213)*%
G04 Layer_Color=32896*
%FSLAX45Y45*%
%MOMM*%
%TF.SameCoordinates,662F433C-BD6F-4083-8A0F-E7C0AAC1164F*%
%TF.FilePolarity,Positive*%
%TF.FileFunction,Legend,Bot*%
%TF.Part,Single*%
G01*
G75*
%TA.AperFunction,NonConductor*%
%ADD30C,0.20000*%
%ADD31C,0.25400*%
%ADD32C,0.20320*%
D30*
X9543000Y1396000D02*
Y1523000D01*
X7511000Y1396000D02*
X9543000D01*
X7511000D02*
Y1523000D01*
X9479500D02*
X9543000Y1459500D01*
X9458332Y1057334D02*
Y1396000D01*
X9416000Y1015000D02*
X9458332Y1057334D01*
X9373666D02*
X9416000Y1015000D01*
X9373666Y1057334D02*
Y1396000D01*
X9204332Y1057334D02*
Y1396000D01*
X9162000Y1015000D02*
X9204332Y1057334D01*
X9119666D02*
X9162000Y1015000D01*
X9119666Y1057334D02*
Y1396000D01*
X8950332Y1057334D02*
Y1396000D01*
X8908000Y1015000D02*
X8950332Y1057334D01*
X8865666D02*
X8908000Y1015000D01*
X8865666Y1057334D02*
Y1396000D01*
X8696332Y1057334D02*
Y1396000D01*
X8654000Y1015000D02*
X8696332Y1057334D01*
X8611666D02*
X8654000Y1015000D01*
X8611666Y1057334D02*
Y1396000D01*
X8442334Y1057334D02*
Y1396000D01*
X8400000Y1015000D02*
X8442334Y1057334D01*
X8357668D02*
X8400000Y1015000D01*
X8357668Y1057334D02*
Y1396000D01*
X8188334Y1057334D02*
Y1396000D01*
X8146000Y1015000D02*
X8188334Y1057334D01*
X8103668D02*
X8146000Y1015000D01*
X8103668Y1057334D02*
Y1396000D01*
X7934334Y1057334D02*
Y1396000D01*
X7892000Y1015000D02*
X7934334Y1057334D01*
X7849668D02*
X7892000Y1015000D01*
X7849668Y1057334D02*
Y1396000D01*
X7680334Y1057334D02*
Y1396000D01*
X7638000Y1015000D02*
X7680334Y1057334D01*
X7595668D02*
X7638000Y1015000D01*
X7595668Y1057334D02*
Y1396000D01*
X7511000Y1523000D02*
X9543000D01*
X423000Y5007000D02*
X677000D01*
Y7039000D01*
X423000D02*
X677000D01*
X423000Y5007000D02*
Y7039000D01*
D31*
X8672959Y2073825D02*
Y2226175D01*
X8596783D01*
X8571392Y2200784D01*
Y2150000D01*
X8596783Y2124608D01*
X8672959D01*
X8419041Y2073825D02*
X8520608D01*
X8419041Y2175392D01*
Y2200784D01*
X8444433Y2226175D01*
X8495216D01*
X8520608Y2200784D01*
X14288120Y21106880D02*
Y21259232D01*
X14211945D01*
X14186552Y21233839D01*
Y21183055D01*
X14211945Y21157664D01*
X14288120D01*
X14135770Y21233839D02*
X14110378Y21259232D01*
X14059595D01*
X14034203Y21233839D01*
Y21208447D01*
X14059595Y21183055D01*
X14084985D01*
X14059595D01*
X14034203Y21157664D01*
Y21132272D01*
X14059595Y21106880D01*
X14110378D01*
X14135770Y21132272D01*
X642160Y7124420D02*
Y7276771D01*
X565985D01*
X540593Y7251379D01*
Y7200595D01*
X565985Y7175203D01*
X642160D01*
X489809Y7124420D02*
X439026D01*
X464417D01*
Y7276771D01*
X489809Y7251379D01*
D32*
X9585361Y1853200D02*
X9670000D01*
X9585361Y1937839D01*
Y1958999D01*
X9606521Y1980159D01*
X9648840D01*
X9670000Y1958999D01*
Y1599200D02*
X9627680D01*
X9648840D01*
Y1726159D01*
X9670000Y1704999D01*
X7509123Y1599200D02*
X7466803D01*
X7487963D01*
Y1726159D01*
X7509123Y1704999D01*
X7318684Y1726159D02*
X7403324D01*
Y1662679D01*
X7361004Y1683839D01*
X7339844D01*
X7318684Y1662679D01*
Y1620360D01*
X7339844Y1599200D01*
X7382164D01*
X7403324Y1620360D01*
X7506814Y1853200D02*
X7464494D01*
X7485654D01*
Y1980159D01*
X7506814Y1958999D01*
X7316376Y1980159D02*
X7358695Y1958999D01*
X7401015Y1916679D01*
Y1874360D01*
X7379855Y1853200D01*
X7337535D01*
X7316376Y1874360D01*
Y1895520D01*
X7337535Y1916679D01*
X7401015D01*
%TF.MD5,5091110e46e5b712d4f30e7b7cfdadc2*%
M02*
