%FSTAX23Y23*%
%MOIN*%
%SFA1B1*%

%IPPOS*%
%ADD50C,0.003937*%
%LNkeyboardmain_mechanical_13-1*%
%LPD*%
G54D50*
X02299Y00734D02*
D01*
X02299Y00735*
X02299Y00736*
X02298Y00738*
X02298Y00739*
X02298Y0074*
X02297Y00742*
X02296Y00743*
X02296Y00744*
X02295Y00745*
X02294Y00746*
X02293Y00747*
X02292Y00748*
X02291Y00749*
X0229Y0075*
X02289Y00751*
X02288Y00751*
X02286Y00752*
X02285Y00752*
X02284Y00753*
X02282Y00753*
X02281Y00753*
X0228Y00753*
X02278*
X02277Y00753*
X02276Y00753*
X02274Y00753*
X02273Y00752*
X02272Y00752*
X0227Y00751*
X02269Y00751*
X02268Y0075*
X02267Y00749*
X02266Y00748*
X02265Y00747*
X02264Y00746*
X02263Y00745*
X02262Y00744*
X02262Y00743*
X02261Y00742*
X02261Y0074*
X0226Y00739*
X0226Y00738*
X0226Y00736*
X02259Y00735*
X02259Y00734*
X02259Y00732*
X0226Y00731*
X0226Y0073*
X0226Y00728*
X02261Y00727*
X02261Y00726*
X02262Y00725*
X02262Y00723*
X02263Y00722*
X02264Y00721*
X02265Y0072*
X02266Y00719*
X02267Y00718*
X02268Y00717*
X02269Y00717*
X0227Y00716*
X02272Y00716*
X02273Y00715*
X02274Y00715*
X02276Y00714*
X02277Y00714*
X02278Y00714*
X0228*
X02281Y00714*
X02282Y00714*
X02284Y00715*
X02285Y00715*
X02286Y00716*
X02288Y00716*
X02289Y00717*
X0229Y00717*
X02291Y00718*
X02292Y00719*
X02293Y0072*
X02294Y00721*
X02295Y00722*
X02296Y00723*
X02296Y00725*
X02297Y00726*
X02298Y00727*
X02298Y00728*
X02298Y0073*
X02299Y00731*
X02299Y00732*
X02299Y00734*
X02811Y04868D02*
D01*
X0281Y04869*
X0281Y0487*
X0281Y04872*
X0281Y04873*
X02809Y04874*
X02809Y04876*
X02808Y04877*
X02808Y04878*
X02807Y04879*
X02806Y0488*
X02805Y04881*
X02804Y04882*
X02803Y04883*
X02802Y04884*
X02801Y04885*
X02799Y04885*
X02798Y04886*
X02797Y04886*
X02796Y04887*
X02794Y04887*
X02793Y04887*
X02792Y04887*
X0279*
X02789Y04887*
X02787Y04887*
X02786Y04887*
X02785Y04886*
X02783Y04886*
X02782Y04885*
X02781Y04885*
X0278Y04884*
X02779Y04883*
X02778Y04882*
X02777Y04881*
X02776Y0488*
X02775Y04879*
X02774Y04878*
X02773Y04877*
X02773Y04876*
X02772Y04874*
X02772Y04873*
X02772Y04872*
X02771Y0487*
X02771Y04869*
X02771Y04868*
X02771Y04866*
X02771Y04865*
X02772Y04864*
X02772Y04862*
X02772Y04861*
X02773Y0486*
X02773Y04858*
X02774Y04857*
X02775Y04856*
X02776Y04855*
X02777Y04854*
X02778Y04853*
X02779Y04852*
X0278Y04851*
X02781Y04851*
X02782Y0485*
X02783Y04849*
X02785Y04849*
X02786Y04849*
X02787Y04848*
X02789Y04848*
X0279Y04848*
X02792*
X02793Y04848*
X02794Y04848*
X02796Y04849*
X02797Y04849*
X02798Y04849*
X02799Y0485*
X02801Y04851*
X02802Y04851*
X02803Y04852*
X02804Y04853*
X02805Y04854*
X02806Y04855*
X02807Y04856*
X02808Y04857*
X02808Y04858*
X02809Y0486*
X02809Y04861*
X0281Y04862*
X0281Y04864*
X0281Y04865*
X0281Y04866*
X02811Y04868*
Y06246D02*
D01*
X0281Y06247*
X0281Y06248*
X0281Y0625*
X0281Y06251*
X02809Y06252*
X02809Y06254*
X02808Y06255*
X02808Y06256*
X02807Y06257*
X02806Y06258*
X02805Y06259*
X02804Y0626*
X02803Y06261*
X02802Y06262*
X02801Y06263*
X02799Y06263*
X02798Y06264*
X02797Y06264*
X02796Y06265*
X02794Y06265*
X02793Y06265*
X02792Y06265*
X0279*
X02789Y06265*
X02787Y06265*
X02786Y06265*
X02785Y06264*
X02783Y06264*
X02782Y06263*
X02781Y06263*
X0278Y06262*
X02779Y06261*
X02778Y0626*
X02777Y06259*
X02776Y06258*
X02775Y06257*
X02774Y06256*
X02773Y06255*
X02773Y06254*
X02772Y06252*
X02772Y06251*
X02772Y0625*
X02771Y06248*
X02771Y06247*
X02771Y06246*
X02771Y06244*
X02771Y06243*
X02772Y06241*
X02772Y0624*
X02772Y06239*
X02773Y06238*
X02773Y06236*
X02774Y06235*
X02775Y06234*
X02776Y06233*
X02777Y06232*
X02778Y06231*
X02779Y0623*
X0278Y06229*
X02781Y06229*
X02782Y06228*
X02783Y06227*
X02785Y06227*
X02786Y06226*
X02787Y06226*
X02789Y06226*
X0279Y06226*
X02792*
X02793Y06226*
X02794Y06226*
X02796Y06226*
X02797Y06227*
X02798Y06227*
X02799Y06228*
X02801Y06229*
X02802Y06229*
X02803Y0623*
X02804Y06231*
X02805Y06232*
X02806Y06233*
X02807Y06234*
X02808Y06235*
X02808Y06236*
X02809Y06238*
X02809Y06239*
X0281Y0624*
X0281Y06241*
X0281Y06243*
X0281Y06244*
X02811Y06246*
Y0723D02*
D01*
X0281Y07231*
X0281Y07233*
X0281Y07234*
X0281Y07235*
X02809Y07237*
X02809Y07238*
X02808Y07239*
X02808Y0724*
X02807Y07241*
X02806Y07242*
X02805Y07243*
X02804Y07244*
X02803Y07245*
X02802Y07246*
X02801Y07247*
X02799Y07248*
X02798Y07248*
X02797Y07249*
X02796Y07249*
X02794Y07249*
X02793Y07249*
X02792Y07249*
X0279*
X02789Y07249*
X02787Y07249*
X02786Y07249*
X02785Y07249*
X02783Y07248*
X02782Y07248*
X02781Y07247*
X0278Y07246*
X02779Y07245*
X02778Y07244*
X02777Y07243*
X02776Y07242*
X02775Y07241*
X02774Y0724*
X02773Y07239*
X02773Y07238*
X02772Y07237*
X02772Y07235*
X02772Y07234*
X02771Y07233*
X02771Y07231*
X02771Y0723*
X02771Y07228*
X02771Y07227*
X02772Y07226*
X02772Y07224*
X02772Y07223*
X02773Y07222*
X02773Y07221*
X02774Y07219*
X02775Y07218*
X02776Y07217*
X02777Y07216*
X02778Y07215*
X02779Y07214*
X0278Y07213*
X02781Y07213*
X02782Y07212*
X02783Y07212*
X02785Y07211*
X02786Y07211*
X02787Y0721*
X02789Y0721*
X0279Y0721*
X02792*
X02793Y0721*
X02794Y0721*
X02796Y07211*
X02797Y07211*
X02798Y07212*
X02799Y07212*
X02801Y07213*
X02802Y07213*
X02803Y07214*
X02804Y07215*
X02805Y07216*
X02806Y07217*
X02807Y07218*
X02808Y07219*
X02808Y07221*
X02809Y07222*
X02809Y07223*
X0281Y07224*
X0281Y07226*
X0281Y07227*
X0281Y07228*
X02811Y0723*
Y08096D02*
D01*
X0281Y08097*
X0281Y08099*
X0281Y081*
X0281Y08101*
X02809Y08103*
X02809Y08104*
X02808Y08105*
X02808Y08106*
X02807Y08108*
X02806Y08109*
X02805Y0811*
X02804Y08111*
X02803Y08111*
X02802Y08112*
X02801Y08113*
X02799Y08114*
X02798Y08114*
X02797Y08115*
X02796Y08115*
X02794Y08115*
X02793Y08116*
X02792Y08116*
X0279*
X02789Y08116*
X02787Y08115*
X02786Y08115*
X02785Y08115*
X02783Y08114*
X02782Y08114*
X02781Y08113*
X0278Y08112*
X02779Y08111*
X02778Y08111*
X02777Y0811*
X02776Y08109*
X02775Y08108*
X02774Y08106*
X02773Y08105*
X02773Y08104*
X02772Y08103*
X02772Y08101*
X02772Y081*
X02771Y08099*
X02771Y08097*
X02771Y08096*
X02771Y08095*
X02771Y08093*
X02772Y08092*
X02772Y08091*
X02772Y08089*
X02773Y08088*
X02773Y08087*
X02774Y08086*
X02775Y08084*
X02776Y08083*
X02777Y08082*
X02778Y08081*
X02779Y0808*
X0278Y0808*
X02781Y08079*
X02782Y08078*
X02783Y08078*
X02785Y08077*
X02786Y08077*
X02787Y08077*
X02789Y08076*
X0279Y08076*
X02792*
X02793Y08076*
X02794Y08077*
X02796Y08077*
X02797Y08077*
X02798Y08078*
X02799Y08078*
X02801Y08079*
X02802Y0808*
X02803Y0808*
X02804Y08081*
X02805Y08082*
X02806Y08083*
X02807Y08084*
X02808Y08086*
X02808Y08087*
X02809Y08088*
X02809Y08089*
X0281Y08091*
X0281Y08092*
X0281Y08093*
X0281Y08095*
X02811Y08096*
X02244Y00568D02*
X02401D01*
X02244Y00769D02*
X02401D01*
Y00568D02*
Y00769D01*
X02244Y00568D02*
Y00769D01*
X02755Y04702D02*
X02913D01*
X02755Y04903D02*
X02913D01*
Y04702D02*
Y04903D01*
X02755Y04702D02*
Y04903D01*
Y0608D02*
X02913D01*
X02755Y06281D02*
X02913D01*
Y0608D02*
Y06281D01*
X02755Y0608D02*
Y06281D01*
Y07064D02*
X02913D01*
X02755Y07265D02*
X02913D01*
Y07064D02*
Y07265D01*
X02755Y07064D02*
Y07265D01*
Y07931D02*
X02913D01*
X02755Y08131D02*
X02913D01*
Y07931D02*
Y08131D01*
X02755Y07931D02*
Y08131D01*
M02*