%FSTAX23Y23*%
%MOIN*%
%SFA1B1*%

%IPPOS*%
%ADD33C,0.106425*%
%ADD34C,0.067055*%
%ADD35R,0.067055X0.067055*%
%ADD36C,0.068000*%
%ADD37R,0.067055X0.067055*%
%ADD38C,0.008000*%
%ADD39C,0.086740*%
%ADD40C,0.283590*%
%ADD41C,0.039496*%
%ADD42C,0.067055*%
%ADD45R,0.049338X0.033590*%
%ADD46R,0.033590X0.049338*%
%ADD47R,0.045401X0.063118*%
%ADD48R,0.063118X0.045401*%
%ADD49O,0.065086X0.031622*%
%LNkeyboardmain_soldermask_top-1*%
%LPD*%
G54D33*
X06066Y08051D03*
X06216D03*
X07405Y05393D03*
X07555D03*
X01732Y01746D03*
Y01895D03*
X07405Y06279D03*
X07555D03*
X07405Y07165D03*
X07555D03*
X07405Y08051D03*
X07555D03*
X06736Y05393D03*
X06885D03*
X06736Y06279D03*
X06885D03*
X06736Y07165D03*
X06885D03*
X06736Y08051D03*
X06885D03*
X06066Y05393D03*
X06216D03*
X06066Y06279D03*
X06216D03*
X06066Y07165D03*
X06216D03*
X052Y05393D03*
X0535D03*
X04531D03*
X04681D03*
X03862D03*
X04011D03*
X03192D03*
X03342D03*
X052Y06279D03*
X0535D03*
X04531D03*
X04681D03*
X03862D03*
X04011D03*
X03192D03*
X03342D03*
X052Y07165D03*
X0535D03*
X04531D03*
X04681D03*
X03862D03*
X04011D03*
X03192D03*
X03342D03*
X052Y08051D03*
X0535D03*
X04531D03*
X04681D03*
X03862D03*
X04011D03*
X03192D03*
X03342D03*
X052Y04035D03*
X0535D03*
X052Y03149D03*
X0535D03*
X052Y02263D03*
X0535D03*
X052Y01377D03*
X0535D03*
X04531D03*
X04681D03*
X03862D03*
X04011D03*
X04531Y04035D03*
X04681D03*
X03862D03*
X04011D03*
X03192D03*
X03342D03*
X04531Y03149D03*
X04681D03*
X03862D03*
X04011D03*
X03192D03*
X03342D03*
X04531Y02263D03*
X04681D03*
X03862D03*
X04011D03*
X03192D03*
X03342D03*
X03192Y01377D03*
X03342D03*
X01732Y01273D03*
Y01423D03*
Y02218D03*
Y02368D03*
X02326Y0182D03*
X02476D03*
X00988D03*
X01137D03*
X00318Y04035D03*
X00468D03*
X02326Y05393D03*
X02476D03*
X01657D03*
X01807D03*
X00988D03*
X01137D03*
X00318D03*
X00468D03*
X02326Y06279D03*
X02476D03*
X01657D03*
X01807D03*
X00988D03*
X01137D03*
X00318D03*
X00468D03*
X02326Y07165D03*
X02476D03*
X01657D03*
X01807D03*
X00988D03*
X01137D03*
X00318D03*
X00468D03*
X02326Y08051D03*
X02476D03*
X01657D03*
X01807D03*
X00988D03*
X01137D03*
X00318D03*
X00468D03*
G54D34*
X01112Y05944D03*
X03707Y00749D03*
X03607Y00649D03*
Y00749D03*
X03507Y00649D03*
Y00749D03*
X03407Y00649D03*
Y00749D03*
X03307Y00649D03*
Y00749D03*
X03207Y00649D03*
Y00749D03*
X03107Y00649D03*
Y00749D03*
X03007Y00649D03*
Y00749D03*
X00216Y02621D03*
Y02521D03*
Y02421D03*
Y02321D03*
Y02221D03*
Y02121D03*
Y02021D03*
X04321Y04566D03*
X01782D03*
X00443D03*
X07294Y05787D03*
X04656Y07559D03*
X03987D03*
X03317D03*
X05955Y08444D03*
X04656D03*
X03987D03*
X03317D03*
G54D35*
X01012Y05944D03*
X03707Y00649D03*
X04221Y04566D03*
X01682D03*
X00343D03*
X07194Y05787D03*
X04556Y07559D03*
X03887D03*
X03217D03*
X05855Y08444D03*
X04556D03*
X03887D03*
X03217D03*
G54D36*
X07861Y06951D03*
X07761D03*
X07861Y06851D03*
X07761D03*
X07861Y06751D03*
X07761D03*
X07861Y06651D03*
X07761D03*
X07861Y06551D03*
X07761D03*
X07861Y06451D03*
X07761D03*
X07861Y06351D03*
X07761D03*
X07861Y06251D03*
X07761D03*
X07861Y06151D03*
X07761D03*
X07861Y06051D03*
X07761D03*
X07861Y05951D03*
X07761D03*
X07861Y05851D03*
X07761D03*
X07861Y05751D03*
X07761D03*
X07861Y05651D03*
X07761D03*
X07861Y05551D03*
X07761D03*
X07861Y05451D03*
X07761D03*
X07861Y05351D03*
X07761D03*
X07861Y05251D03*
X07761D03*
X07861Y05151D03*
X07761D03*
X07861Y05051D03*
X07761D03*
X07861Y04951D03*
X07761D03*
X07861Y04851D03*
X07761D03*
X07861Y04751D03*
X07761D03*
X07861Y04651D03*
X07761D03*
X07861Y04551D03*
X07761D03*
X05861Y06951D03*
X05761D03*
X05861Y06851D03*
X05761D03*
X05861Y06751D03*
X05761D03*
X05861Y06651D03*
X05761D03*
X05861Y06551D03*
X05761D03*
X05861Y06451D03*
X05761D03*
X05861Y06351D03*
X05761D03*
X05861Y06251D03*
X05761D03*
X05861Y06151D03*
X05761D03*
X05861Y06051D03*
X05761D03*
X05861Y05951D03*
X05761D03*
X05861Y05851D03*
X05761D03*
X05861Y05751D03*
X05761D03*
X05861Y05651D03*
X05761D03*
X05861Y05551D03*
X05761D03*
X05861Y05451D03*
X05761D03*
X05861Y05351D03*
X05761D03*
X05861Y05251D03*
X05761D03*
X05861Y05151D03*
X05761D03*
X05861Y05051D03*
X05761D03*
X05861Y04951D03*
X05761D03*
X05861Y04851D03*
X05761D03*
X05861Y04751D03*
X05761D03*
X05861Y04651D03*
X05761D03*
X05861Y04551D03*
X05761D03*
G54D37*
X00216Y02721D03*
G54D38*
X01732Y03592D03*
G54D39*
X01889Y03198D03*
X01574D03*
X01889Y03986D03*
X01574D03*
X01732Y03188D03*
Y03996D03*
X02125Y04084D03*
X01338D03*
X02125Y031D03*
X01338D03*
G54D40*
X00354Y08976D03*
Y04842D03*
Y00196D03*
X04291Y08976D03*
Y04842D03*
Y0059D03*
X08228Y00196D03*
Y04842D03*
Y08976D03*
G54D41*
X07657Y05925D03*
X06496Y08425D03*
X06535Y06751D03*
X02755Y05255D03*
X06141Y05196D03*
X05078Y08582D03*
X03129Y08484D03*
X02933Y07716D03*
X02933Y07657D03*
Y07598D03*
X05669Y04822D03*
X05629Y04763D03*
X05688Y03976D03*
X05649Y04094D03*
X02696Y03169D03*
X08149Y04606D03*
X03051Y0309D03*
X0311Y04724D03*
X08051Y05728D03*
X03543Y02637D03*
X03759Y04547D03*
X03188Y03543D03*
X03267Y04409D03*
X02933Y05393D03*
X03051Y08011D03*
X0307Y05728D03*
X07972Y05708D03*
X08248Y04566D03*
X08149Y04488D03*
X02677Y07086D03*
Y06102D03*
Y04724D03*
X02086Y0059D03*
X02696Y07893D03*
X02832Y06257D03*
X02952Y05984D03*
X02854D03*
X02755Y07401D03*
X0283Y07128D03*
X02834Y07204D03*
X02991Y0626D03*
X02992Y07244D03*
Y04881D03*
X0244Y00826D03*
X02992Y08228D03*
X02559Y00905D03*
X02952Y04645D03*
X02803Y08297D03*
X02834Y08267D03*
X02874Y08228D03*
G54D42*
X02893Y05157D03*
G54D45*
X00171Y03108D03*
Y03033D03*
X00261Y0307D03*
X05478Y01734D03*
Y01809D03*
X05387Y01771D03*
X04803Y01736D03*
Y01811D03*
X04712Y01773D03*
X04133Y01736D03*
Y01811D03*
X04043Y01773D03*
X0347Y01734D03*
Y01809D03*
X03379Y01771D03*
X0208Y01218D03*
Y01143D03*
X02171Y01181D03*
X05478Y026D03*
Y02675D03*
X05387Y02637D03*
X04803Y02602D03*
Y02677D03*
X04712Y02639D03*
X04139Y026D03*
Y02675D03*
X04049Y02637D03*
X0347Y026D03*
Y02675D03*
X03379Y02637D03*
X02604Y02167D03*
Y02242D03*
X02513Y02204D03*
X02171Y02167D03*
Y02242D03*
X0208Y02204D03*
X01259Y02169D03*
Y02244D03*
X01169Y02206D03*
X05478Y03505D03*
Y0358D03*
X05387Y03543D03*
X04803Y03507D03*
Y03582D03*
X04712Y03545D03*
X04133Y03503D03*
Y03578D03*
X04043Y03541D03*
X0347Y03505D03*
Y0358D03*
X03379Y03543D03*
X01974Y026D03*
Y02675D03*
X01883Y02637D03*
X05478Y04372D03*
Y04446D03*
X05387Y04409D03*
X04809Y04372D03*
Y04446D03*
X04718Y04409D03*
X04021Y04372D03*
Y04446D03*
X03931Y04409D03*
X0347Y04372D03*
Y04446D03*
X03379Y04409D03*
X00635Y04372D03*
Y04446D03*
X00545Y04409D03*
X07683Y0575D03*
Y05824D03*
X07592Y05787D03*
X07013Y0575D03*
Y05824D03*
X06923Y05787D03*
X06344Y0575D03*
Y05824D03*
X06253Y05787D03*
X05478Y0575D03*
Y05824D03*
X05387Y05787D03*
X04803Y05751D03*
Y05826D03*
X04712Y05789D03*
X04179Y0575D03*
Y05824D03*
X04088Y05787D03*
X0347Y0575D03*
Y05824D03*
X03379Y05787D03*
X02604Y0575D03*
Y05824D03*
X02513Y05787D03*
X01929Y05751D03*
Y05826D03*
X01838Y05789D03*
X01305Y0575D03*
Y05824D03*
X01214Y05787D03*
X00596Y0575D03*
Y05824D03*
X00505Y05787D03*
X07683Y06616D03*
Y0669D03*
X07592Y06653D03*
X07013Y06616D03*
Y0669D03*
X06923Y06653D03*
X06344Y06616D03*
Y0669D03*
X06253Y06653D03*
X05478Y06616D03*
Y0669D03*
X05387Y06653D03*
X04809Y06616D03*
Y0669D03*
X04718Y06653D03*
X04133Y06618D03*
Y06692D03*
X04043Y06655D03*
X0347Y06616D03*
Y0669D03*
X03379Y06653D03*
X02486Y06616D03*
Y0669D03*
X02395Y06653D03*
X01816Y06616D03*
Y0669D03*
X01726Y06653D03*
X01147Y06616D03*
Y0669D03*
X01057Y06653D03*
X00478Y06616D03*
Y0669D03*
X00387Y06653D03*
X07564Y07521D03*
Y07596D03*
X07474Y07559D03*
X0694Y07521D03*
Y07596D03*
X0685Y07559D03*
X06226Y07521D03*
Y07596D03*
X06135Y07559D03*
X0536Y07521D03*
Y07596D03*
X05269Y07559D03*
X04854Y07521D03*
Y07596D03*
X04763Y07559D03*
X04185Y07521D03*
Y07596D03*
X04094Y07559D03*
X03549Y07521D03*
Y07596D03*
X03458Y07559D03*
X02446Y07521D03*
Y07596D03*
X02356Y07559D03*
X01777Y07521D03*
Y07596D03*
X01687Y07559D03*
X01153Y07521D03*
Y07596D03*
X01062Y07559D03*
X00438Y07521D03*
Y07596D03*
X00348Y07559D03*
X07564Y08387D03*
Y08462D03*
X07474Y08425D03*
X06895Y08387D03*
Y08462D03*
X06805Y08425D03*
X06383Y08387D03*
Y08462D03*
X06293Y08425D03*
X05326Y08387D03*
Y08462D03*
X05236Y08425D03*
X04848Y08387D03*
Y08462D03*
X04757Y08425D03*
X04179Y08387D03*
Y08462D03*
X04088Y08425D03*
X03509Y08387D03*
Y08462D03*
X03419Y08425D03*
X02452Y08387D03*
Y08462D03*
X02362Y08425D03*
X01822Y08387D03*
Y08462D03*
X01732Y08425D03*
X01147Y08387D03*
Y08462D03*
X01057Y08425D03*
X00438Y08387D03*
Y08462D03*
X00348Y08425D03*
G54D46*
X00572Y02494D03*
X00647D03*
X0061Y02584D03*
G54D47*
X01437Y04251D03*
X01515D03*
G54D48*
X02342Y03799D03*
Y03877D03*
Y03228D03*
Y03149D03*
X02559Y00748D03*
Y00669D03*
X02913Y05826D03*
Y05748D03*
Y06692D03*
Y06614D03*
X02834Y07598D03*
Y07519D03*
X02992Y08464D03*
Y08385D03*
X03228Y0496D03*
Y05039D03*
G54D49*
X0243Y00594D03*
Y00644D03*
Y00694D03*
Y00744D03*
X02215Y00594D03*
Y00644D03*
Y00694D03*
Y00744D03*
X02941Y04728D03*
Y04778D03*
Y04828D03*
Y04878D03*
X02727Y04728D03*
Y04778D03*
Y04828D03*
Y04878D03*
X02941Y06106D03*
Y06156D03*
Y06206D03*
Y06256D03*
X02727Y06106D03*
Y06156D03*
Y06206D03*
Y06256D03*
X02941Y0709D03*
Y0714D03*
Y0719D03*
Y0724D03*
X02727Y0709D03*
Y0714D03*
Y0719D03*
Y0724D03*
X02941Y07956D03*
Y08006D03*
Y08056D03*
Y08106D03*
X02727Y07956D03*
Y08006D03*
Y08056D03*
Y08106D03*
M02*