%FSTAX23Y23*%
%MOIN*%
%SFA1B1*%

%IPPOS*%
%ADD10R,0.041339X0.025591*%
%ADD11R,0.025591X0.041339*%
%ADD12R,0.037401X0.055118*%
%ADD13R,0.055118X0.037401*%
%ADD14O,0.057087X0.023622*%
%LNkeyboardmain_paste_top-1*%
%LPD*%
G54D10*
X00171Y03108D03*
Y03033D03*
X00261Y0307D03*
X05478Y01734D03*
Y01809D03*
X05387Y01771D03*
X04803Y01736D03*
Y01811D03*
X04712Y01773D03*
X04133Y01736D03*
Y01811D03*
X04043Y01773D03*
X0347Y01734D03*
Y01809D03*
X03379Y01771D03*
X0208Y01218D03*
Y01143D03*
X02171Y01181D03*
X05478Y026D03*
Y02675D03*
X05387Y02637D03*
X04803Y02602D03*
Y02677D03*
X04712Y02639D03*
X04139Y026D03*
Y02675D03*
X04049Y02637D03*
X0347Y026D03*
Y02675D03*
X03379Y02637D03*
X02604Y02167D03*
Y02242D03*
X02513Y02204D03*
X02171Y02167D03*
Y02242D03*
X0208Y02204D03*
X01259Y02169D03*
Y02244D03*
X01169Y02206D03*
X05478Y03505D03*
Y0358D03*
X05387Y03543D03*
X04803Y03507D03*
Y03582D03*
X04712Y03545D03*
X04133Y03503D03*
Y03578D03*
X04043Y03541D03*
X0347Y03505D03*
Y0358D03*
X03379Y03543D03*
X01974Y026D03*
Y02675D03*
X01883Y02637D03*
X05478Y04372D03*
Y04446D03*
X05387Y04409D03*
X04809Y04372D03*
Y04446D03*
X04718Y04409D03*
X04021Y04372D03*
Y04446D03*
X03931Y04409D03*
X0347Y04372D03*
Y04446D03*
X03379Y04409D03*
X00635Y04372D03*
Y04446D03*
X00545Y04409D03*
X07683Y0575D03*
Y05824D03*
X07592Y05787D03*
X07013Y0575D03*
Y05824D03*
X06923Y05787D03*
X06344Y0575D03*
Y05824D03*
X06253Y05787D03*
X05478Y0575D03*
Y05824D03*
X05387Y05787D03*
X04803Y05751D03*
Y05826D03*
X04712Y05789D03*
X04179Y0575D03*
Y05824D03*
X04088Y05787D03*
X0347Y0575D03*
Y05824D03*
X03379Y05787D03*
X02604Y0575D03*
Y05824D03*
X02513Y05787D03*
X01929Y05751D03*
Y05826D03*
X01838Y05789D03*
X01305Y0575D03*
Y05824D03*
X01214Y05787D03*
X00596Y0575D03*
Y05824D03*
X00505Y05787D03*
X07683Y06616D03*
Y0669D03*
X07592Y06653D03*
X07013Y06616D03*
Y0669D03*
X06923Y06653D03*
X06344Y06616D03*
Y0669D03*
X06253Y06653D03*
X05478Y06616D03*
Y0669D03*
X05387Y06653D03*
X04809Y06616D03*
Y0669D03*
X04718Y06653D03*
X04133Y06618D03*
Y06692D03*
X04043Y06655D03*
X0347Y06616D03*
Y0669D03*
X03379Y06653D03*
X02486Y06616D03*
Y0669D03*
X02395Y06653D03*
X01816Y06616D03*
Y0669D03*
X01726Y06653D03*
X01147Y06616D03*
Y0669D03*
X01057Y06653D03*
X00478Y06616D03*
Y0669D03*
X00387Y06653D03*
X07564Y07521D03*
Y07596D03*
X07474Y07559D03*
X0694Y07521D03*
Y07596D03*
X0685Y07559D03*
X06226Y07521D03*
Y07596D03*
X06135Y07559D03*
X0536Y07521D03*
Y07596D03*
X05269Y07559D03*
X04854Y07521D03*
Y07596D03*
X04763Y07559D03*
X04185Y07521D03*
Y07596D03*
X04094Y07559D03*
X03549Y07521D03*
Y07596D03*
X03458Y07559D03*
X02446Y07521D03*
Y07596D03*
X02356Y07559D03*
X01777Y07521D03*
Y07596D03*
X01687Y07559D03*
X01153Y07521D03*
Y07596D03*
X01062Y07559D03*
X00438Y07521D03*
Y07596D03*
X00348Y07559D03*
X07564Y08387D03*
Y08462D03*
X07474Y08425D03*
X06895Y08387D03*
Y08462D03*
X06805Y08425D03*
X06383Y08387D03*
Y08462D03*
X06293Y08425D03*
X05326Y08387D03*
Y08462D03*
X05236Y08425D03*
X04848Y08387D03*
Y08462D03*
X04757Y08425D03*
X04179Y08387D03*
Y08462D03*
X04088Y08425D03*
X03509Y08387D03*
Y08462D03*
X03419Y08425D03*
X02452Y08387D03*
Y08462D03*
X02362Y08425D03*
X01822Y08387D03*
Y08462D03*
X01732Y08425D03*
X01147Y08387D03*
Y08462D03*
X01057Y08425D03*
X00438Y08387D03*
Y08462D03*
X00348Y08425D03*
G54D11*
X00572Y02494D03*
X00647D03*
X0061Y02584D03*
G54D12*
X01437Y04251D03*
X01515D03*
G54D13*
X02342Y03799D03*
Y03877D03*
Y03228D03*
Y03149D03*
X02559Y00748D03*
Y00669D03*
X02913Y05826D03*
Y05748D03*
Y06692D03*
Y06614D03*
X02834Y07598D03*
Y07519D03*
X02992Y08464D03*
Y08385D03*
X03228Y0496D03*
Y05039D03*
G54D14*
X0243Y00594D03*
Y00644D03*
Y00694D03*
Y00744D03*
X02215Y00594D03*
Y00644D03*
Y00694D03*
Y00744D03*
X02941Y04728D03*
Y04778D03*
Y04828D03*
Y04878D03*
X02727Y04728D03*
Y04778D03*
Y04828D03*
Y04878D03*
X02941Y06106D03*
Y06156D03*
Y06206D03*
Y06256D03*
X02727Y06106D03*
Y06156D03*
Y06206D03*
Y06256D03*
X02941Y0709D03*
Y0714D03*
Y0719D03*
Y0724D03*
X02727Y0709D03*
Y0714D03*
Y0719D03*
Y0724D03*
X02941Y07956D03*
Y08006D03*
Y08056D03*
Y08106D03*
X02727Y07956D03*
Y08006D03*
Y08056D03*
Y08106D03*
M02*