%FSTAX23Y23*%
%MOIN*%
%SFA1B1*%

%IPPOS*%
%ADD50C,0.003937*%
%LNkeyboardmain_mechanical_8-1*%
%LPD*%
G54D50*
X01012Y05944D02*
X01032D01*
X01012Y05925D02*
Y05944D01*
Y05964*
X00993Y05944D02*
X01012D01*
X01112D02*
X01132D01*
X01112Y05925D02*
Y05944D01*
Y05964*
X01093Y05944D02*
X01112D01*
X01062D02*
X01076Y05958D01*
X01062Y05944D02*
X01076Y0593D01*
X01049Y05958D02*
X01062Y05944D01*
X01049Y0593D02*
X01062Y05944D01*
X04221Y04566D02*
X04241D01*
X04221Y04547D02*
Y04566D01*
Y04586*
X04201Y04566D02*
X04221D01*
X04321D02*
X04341D01*
X04321Y04547D02*
Y04566D01*
Y04586*
X04301Y04566D02*
X04321D01*
X04271D02*
X04285Y0458D01*
X04271Y04566D02*
X04285Y04553D01*
X04257Y0458D02*
X04271Y04566D01*
X04257Y04553D02*
X04271Y04566D01*
X01682D02*
X01701D01*
X01682Y04547D02*
Y04566D01*
Y04586*
X01662Y04566D02*
X01682D01*
X01782D02*
X01801D01*
X01782Y04547D02*
Y04566D01*
Y04586*
X01762Y04566D02*
X01782D01*
X01732D02*
X01746Y0458D01*
X01732Y04566D02*
X01746Y04553D01*
X01718Y0458D02*
X01732Y04566D01*
X01718Y04553D02*
X01732Y04566D01*
X00343D02*
X00363D01*
X00343Y04547D02*
Y04566D01*
Y04586*
X00324Y04566D02*
X00343D01*
X00443D02*
X00463D01*
X00443Y04547D02*
Y04566D01*
Y04586*
X00424Y04566D02*
X00443D01*
X00393D02*
X00407Y0458D01*
X00393Y04566D02*
X00407Y04553D01*
X00379Y0458D02*
X00393Y04566D01*
X00379Y04553D02*
X00393Y04566D01*
X07194Y05787D02*
X07213D01*
X07194Y05767D02*
Y05787D01*
Y05807*
X07174Y05787D02*
X07194D01*
X07294D02*
X07313D01*
X07294Y05767D02*
Y05787D01*
Y05807*
X07274Y05787D02*
X07294D01*
X07244D02*
X07258Y05801D01*
X07244Y05787D02*
X07258Y05773D01*
X0723Y05801D02*
X07244Y05787D01*
X0723Y05773D02*
X07244Y05787D01*
X04556Y07559D02*
X04575D01*
X04556Y07539D02*
Y07559D01*
Y07578*
X04536Y07559D02*
X04556D01*
X04656D02*
X04675D01*
X04656Y07539D02*
Y07559D01*
Y07578*
X04636Y07559D02*
X04656D01*
X04606D02*
X0462Y07572D01*
X04606Y07559D02*
X0462Y07545D01*
X04592Y07572D02*
X04606Y07559D01*
X04592Y07545D02*
X04606Y07559D01*
X03887D02*
X03906D01*
X03887Y07539D02*
Y07559D01*
Y07578*
X03867Y07559D02*
X03887D01*
X03987D02*
X04006D01*
X03987Y07539D02*
Y07559D01*
Y07578*
X03967Y07559D02*
X03987D01*
X03937D02*
X0395Y07572D01*
X03937Y07559D02*
X0395Y07545D01*
X03923Y07572D02*
X03937Y07559D01*
X03923Y07545D02*
X03937Y07559D01*
X03217D02*
X03237D01*
X03217Y07539D02*
Y07559D01*
Y07578*
X03198Y07559D02*
X03217D01*
X03317D02*
X03337D01*
X03317Y07539D02*
Y07559D01*
Y07578*
X03298Y07559D02*
X03317D01*
X03267D02*
X03281Y07572D01*
X03267Y07559D02*
X03281Y07545D01*
X03253Y07572D02*
X03267Y07559D01*
X03253Y07545D02*
X03267Y07559D01*
X05855Y08444D02*
X05875D01*
X05855Y08425D02*
Y08444D01*
Y08464*
X05835Y08444D02*
X05855D01*
X05955D02*
X05975D01*
X05955Y08425D02*
Y08444D01*
Y08464*
X05935Y08444D02*
X05955D01*
X05905D02*
X05919Y08458D01*
X05905Y08444D02*
X05919Y0843D01*
X05891Y08458D02*
X05905Y08444D01*
X05891Y0843D02*
X05905Y08444D01*
X04556D02*
X04575D01*
X04556Y08425D02*
Y08444D01*
Y08464*
X04536Y08444D02*
X04556D01*
X04656D02*
X04675D01*
X04656Y08425D02*
Y08444D01*
Y08464*
X04636Y08444D02*
X04656D01*
X04606D02*
X0462Y08458D01*
X04606Y08444D02*
X0462Y0843D01*
X04592Y08458D02*
X04606Y08444D01*
X04592Y0843D02*
X04606Y08444D01*
X03887D02*
X03906D01*
X03887Y08425D02*
Y08444D01*
Y08464*
X03867Y08444D02*
X03887D01*
X03987D02*
X04006D01*
X03987Y08425D02*
Y08444D01*
Y08464*
X03967Y08444D02*
X03987D01*
X03937D02*
X0395Y08458D01*
X03937Y08444D02*
X0395Y0843D01*
X03923Y08458D02*
X03937Y08444D01*
X03923Y0843D02*
X03937Y08444D01*
X03217D02*
X03237D01*
X03217Y08425D02*
Y08444D01*
Y08464*
X03198Y08444D02*
X03217D01*
X03317D02*
X03337D01*
X03317Y08425D02*
Y08444D01*
Y08464*
X03298Y08444D02*
X03317D01*
X03267D02*
X03281Y08458D01*
X03267Y08444D02*
X03281Y0843D01*
X03253Y08458D02*
X03267Y08444D01*
X03253Y0843D02*
X03267Y08444D01*
M02*