%FSTAX23Y23*%
%MOIN*%
%SFA1B1*%

%IPPOS*%
%ADD74C,0.005000*%
%ADD75C,0.006667*%
%ADD76C,0.004000*%
%LNkeyboardmain_drawing_1-1*%
%LPD*%
G54D74*
X06046Y08031D02*
Y08071D01*
X06086*
Y08031*
X06046*
X06196D02*
Y08071D01*
X06236*
Y08031*
X06196*
X07385Y05373D02*
Y05413D01*
X07425*
Y05373*
X07385*
X07535D02*
Y05413D01*
X07575*
Y05373*
X07535*
X03707Y00629D02*
X03687Y00669D01*
X03727*
X03707Y00629*
Y00729D02*
X03687Y00769D01*
X03727*
X03707Y00729*
X03607Y00629D02*
X03587Y00669D01*
X03627*
X03607Y00629*
Y00729D02*
X03587Y00769D01*
X03627*
X03607Y00729*
X03507Y00629D02*
X03487Y00669D01*
X03527*
X03507Y00629*
Y00729D02*
X03487Y00769D01*
X03527*
X03507Y00729*
X03407Y00629D02*
X03387Y00669D01*
X03427*
X03407Y00629*
Y00729D02*
X03387Y00769D01*
X03427*
X03407Y00729*
X03307Y00629D02*
X03287Y00669D01*
X03327*
X03307Y00629*
Y00729D02*
X03287Y00769D01*
X03327*
X03307Y00729*
X03207Y00629D02*
X03187Y00669D01*
X03227*
X03207Y00629*
Y00729D02*
X03187Y00769D01*
X03227*
X03207Y00729*
X03107Y00629D02*
X03087Y00669D01*
X03127*
X03107Y00629*
Y00729D02*
X03087Y00769D01*
X03127*
X03107Y00729*
X03007Y00629D02*
X02987Y00669D01*
X03027*
X03007Y00629*
Y00729D02*
X02987Y00769D01*
X03027*
X03007Y00729*
X01712Y01726D02*
Y01766D01*
X01752*
Y01726*
X01712*
Y01875D02*
Y01915D01*
X01752*
Y01875*
X01712*
X07385Y06259D02*
Y06299D01*
X07425*
Y06259*
X07385*
X07535D02*
Y06299D01*
X07575*
Y06259*
X07535*
X07385Y07145D02*
Y07185D01*
X07425*
Y07145*
X07385*
X07535D02*
Y07185D01*
X07575*
Y07145*
X07535*
X07385Y08031D02*
Y08071D01*
X07425*
Y08031*
X07385*
X07535D02*
Y08071D01*
X07575*
Y08031*
X07535*
X06716Y05373D02*
Y05413D01*
X06756*
Y05373*
X06716*
X06865D02*
Y05413D01*
X06905*
Y05373*
X06865*
X06716Y06259D02*
Y06299D01*
X06756*
Y06259*
X06716*
X06865D02*
Y06299D01*
X06905*
Y06259*
X06865*
X06716Y07145D02*
Y07185D01*
X06756*
Y07145*
X06716*
X06865D02*
Y07185D01*
X06905*
Y07145*
X06865*
X06716Y08031D02*
Y08071D01*
X06756*
Y08031*
X06716*
X06865D02*
Y08071D01*
X06905*
Y08031*
X06865*
X06046Y05373D02*
Y05413D01*
X06086*
Y05373*
X06046*
X06196D02*
Y05413D01*
X06236*
Y05373*
X06196*
X06046Y06259D02*
Y06299D01*
X06086*
Y06259*
X06046*
X06196D02*
Y06299D01*
X06236*
Y06259*
X06196*
X06046Y07145D02*
Y07185D01*
X06086*
Y07145*
X06046*
X06196D02*
Y07185D01*
X06236*
Y07145*
X06196*
X0518Y05373D02*
Y05413D01*
X0522*
Y05373*
X0518*
X0533D02*
Y05413D01*
X0537*
Y05373*
X0533*
X04511D02*
Y05413D01*
X04551*
Y05373*
X04511*
X04661D02*
Y05413D01*
X04701*
Y05373*
X04661*
X03842D02*
Y05413D01*
X03882*
Y05373*
X03842*
X03991D02*
Y05413D01*
X04031*
Y05373*
X03991*
X03172D02*
Y05413D01*
X03212*
Y05373*
X03172*
X03322D02*
Y05413D01*
X03362*
Y05373*
X03322*
X0518Y06259D02*
Y06299D01*
X0522*
Y06259*
X0518*
X0533D02*
Y06299D01*
X0537*
Y06259*
X0533*
X04511D02*
Y06299D01*
X04551*
Y06259*
X04511*
X04661D02*
Y06299D01*
X04701*
Y06259*
X04661*
X03842D02*
Y06299D01*
X03882*
Y06259*
X03842*
X03991D02*
Y06299D01*
X04031*
Y06259*
X03991*
X03172D02*
Y06299D01*
X03212*
Y06259*
X03172*
X03322D02*
Y06299D01*
X03362*
Y06259*
X03322*
X0518Y07145D02*
Y07185D01*
X0522*
Y07145*
X0518*
X0533D02*
Y07185D01*
X0537*
Y07145*
X0533*
X04511D02*
Y07185D01*
X04551*
Y07145*
X04511*
X04661D02*
Y07185D01*
X04701*
Y07145*
X04661*
X03842D02*
Y07185D01*
X03882*
Y07145*
X03842*
X03991D02*
Y07185D01*
X04031*
Y07145*
X03991*
X03172D02*
Y07185D01*
X03212*
Y07145*
X03172*
X03322D02*
Y07185D01*
X03362*
Y07145*
X03322*
X0518Y08031D02*
Y08071D01*
X0522*
Y08031*
X0518*
X0533D02*
Y08071D01*
X0537*
Y08031*
X0533*
X04511D02*
Y08071D01*
X04551*
Y08031*
X04511*
X04661D02*
Y08071D01*
X04701*
Y08031*
X04661*
X03842D02*
Y08071D01*
X03882*
Y08031*
X03842*
X03991D02*
Y08071D01*
X04031*
Y08031*
X03991*
X03172D02*
Y08071D01*
X03212*
Y08031*
X03172*
X03322D02*
Y08071D01*
X03362*
Y08031*
X03322*
X0518Y04015D02*
Y04055D01*
X0522*
Y04015*
X0518*
X0533D02*
Y04055D01*
X0537*
Y04015*
X0533*
X0518Y03129D02*
Y03169D01*
X0522*
Y03129*
X0518*
X0533D02*
Y03169D01*
X0537*
Y03129*
X0533*
X0518Y02243D02*
Y02283D01*
X0522*
Y02243*
X0518*
X0533D02*
Y02283D01*
X0537*
Y02243*
X0533*
X0518Y01357D02*
Y01397D01*
X0522*
Y01357*
X0518*
X0533D02*
Y01397D01*
X0537*
Y01357*
X0533*
X04511D02*
Y01397D01*
X04551*
Y01357*
X04511*
X04661D02*
Y01397D01*
X04701*
Y01357*
X04661*
X03842D02*
Y01397D01*
X03882*
Y01357*
X03842*
X03991D02*
Y01397D01*
X04031*
Y01357*
X03991*
X04511Y04015D02*
Y04055D01*
X04551*
Y04015*
X04511*
X04661D02*
Y04055D01*
X04701*
Y04015*
X04661*
X03842D02*
Y04055D01*
X03882*
Y04015*
X03842*
X03991D02*
Y04055D01*
X04031*
Y04015*
X03991*
X03172D02*
Y04055D01*
X03212*
Y04015*
X03172*
X03322D02*
Y04055D01*
X03362*
Y04015*
X03322*
X04511Y03129D02*
Y03169D01*
X04551*
Y03129*
X04511*
X04661D02*
Y03169D01*
X04701*
Y03129*
X04661*
X03842D02*
Y03169D01*
X03882*
Y03129*
X03842*
X03991D02*
Y03169D01*
X04031*
Y03129*
X03991*
X03172D02*
Y03169D01*
X03212*
Y03129*
X03172*
X03322D02*
Y03169D01*
X03362*
Y03129*
X03322*
X04511Y02243D02*
Y02283D01*
X04551*
Y02243*
X04511*
X04661D02*
Y02283D01*
X04701*
Y02243*
X04661*
X03842D02*
Y02283D01*
X03882*
Y02243*
X03842*
X03991D02*
Y02283D01*
X04031*
Y02243*
X03991*
X03172D02*
Y02283D01*
X03212*
Y02243*
X03172*
X03322D02*
Y02283D01*
X03362*
Y02243*
X03322*
X03172Y01357D02*
Y01397D01*
X03212*
Y01357*
X03172*
X03322D02*
Y01397D01*
X03362*
Y01357*
X03322*
X01712Y01253D02*
Y01293D01*
X01752*
Y01253*
X01712*
Y01403D02*
Y01443D01*
X01752*
Y01403*
X01712*
Y02198D02*
Y02238D01*
X01752*
Y02198*
X01712*
Y02348D02*
Y02388D01*
X01752*
Y02348*
X01712*
X02306Y018D02*
Y0184D01*
X02346*
Y018*
X02306*
X02456D02*
Y0184D01*
X02496*
Y018*
X02456*
X00968D02*
Y0184D01*
X01008*
Y018*
X00968*
X01117D02*
Y0184D01*
X01157*
Y018*
X01117*
X00298Y04015D02*
Y04055D01*
X00338*
Y04015*
X00298*
X00448D02*
Y04055D01*
X00488*
Y04015*
X00448*
X02306Y05373D02*
Y05413D01*
X02346*
Y05373*
X02306*
X02456D02*
Y05413D01*
X02496*
Y05373*
X02456*
X01637D02*
Y05413D01*
X01677*
Y05373*
X01637*
X01787D02*
Y05413D01*
X01827*
Y05373*
X01787*
X00968D02*
Y05413D01*
X01008*
Y05373*
X00968*
X01117D02*
Y05413D01*
X01157*
Y05373*
X01117*
X00298D02*
Y05413D01*
X00338*
Y05373*
X00298*
X00448D02*
Y05413D01*
X00488*
Y05373*
X00448*
X02306Y06259D02*
Y06299D01*
X02346*
Y06259*
X02306*
X02456D02*
Y06299D01*
X02496*
Y06259*
X02456*
X01637D02*
Y06299D01*
X01677*
Y06259*
X01637*
X01787D02*
Y06299D01*
X01827*
Y06259*
X01787*
X00968D02*
Y06299D01*
X01008*
Y06259*
X00968*
X01117D02*
Y06299D01*
X01157*
Y06259*
X01117*
X00298D02*
Y06299D01*
X00338*
Y06259*
X00298*
X00448D02*
Y06299D01*
X00488*
Y06259*
X00448*
X02306Y07145D02*
Y07185D01*
X02346*
Y07145*
X02306*
X02456D02*
Y07185D01*
X02496*
Y07145*
X02456*
X01637D02*
Y07185D01*
X01677*
Y07145*
X01637*
X01787D02*
Y07185D01*
X01827*
Y07145*
X01787*
X00968D02*
Y07185D01*
X01008*
Y07145*
X00968*
X01117D02*
Y07185D01*
X01157*
Y07145*
X01117*
X00298D02*
Y07185D01*
X00338*
Y07145*
X00298*
X00448D02*
Y07185D01*
X00488*
Y07145*
X00448*
X02306Y08031D02*
Y08071D01*
X02346*
Y08031*
X02306*
X02456D02*
Y08071D01*
X02496*
Y08031*
X02456*
X01637D02*
Y08071D01*
X01677*
Y08031*
X01637*
X01787D02*
Y08071D01*
X01827*
Y08031*
X01787*
X00968D02*
Y08071D01*
X01008*
Y08031*
X00968*
X01117D02*
Y08071D01*
X01157*
Y08031*
X01117*
X00298D02*
Y08071D01*
X00338*
Y08031*
X00298*
X00448D02*
Y08071D01*
X00488*
Y08031*
X00448*
X07861Y06931D02*
X07871Y06941D01*
X07881*
X07871Y06951*
X07881Y06961*
X07871*
X07861Y06971*
X07851Y06961*
X07841*
X07851Y06951*
X07841Y06941*
X07851*
X07861Y06931*
X07761D02*
X07771Y06941D01*
X07781*
X07771Y06951*
X07781Y06961*
X07771*
X07761Y06971*
X07751Y06961*
X07741*
X07751Y06951*
X07741Y06941*
X07751*
X07761Y06931*
X07861Y06831D02*
X07871Y06841D01*
X07881*
X07871Y06851*
X07881Y06861*
X07871*
X07861Y06871*
X07851Y06861*
X07841*
X07851Y06851*
X07841Y06841*
X07851*
X07861Y06831*
X07761D02*
X07771Y06841D01*
X07781*
X07771Y06851*
X07781Y06861*
X07771*
X07761Y06871*
X07751Y06861*
X07741*
X07751Y06851*
X07741Y06841*
X07751*
X07761Y06831*
X07861Y06731D02*
X07871Y06741D01*
X07881*
X07871Y06751*
X07881Y06761*
X07871*
X07861Y06771*
X07851Y06761*
X07841*
X07851Y06751*
X07841Y06741*
X07851*
X07861Y06731*
X07761D02*
X07771Y06741D01*
X07781*
X07771Y06751*
X07781Y06761*
X07771*
X07761Y06771*
X07751Y06761*
X07741*
X07751Y06751*
X07741Y06741*
X07751*
X07761Y06731*
X07861Y06631D02*
X07871Y06641D01*
X07881*
X07871Y06651*
X07881Y06661*
X07871*
X07861Y06671*
X07851Y06661*
X07841*
X07851Y06651*
X07841Y06641*
X07851*
X07861Y06631*
X07761D02*
X07771Y06641D01*
X07781*
X07771Y06651*
X07781Y06661*
X07771*
X07761Y06671*
X07751Y06661*
X07741*
X07751Y06651*
X07741Y06641*
X07751*
X07761Y06631*
X07861Y06531D02*
X07871Y06541D01*
X07881*
X07871Y06551*
X07881Y06561*
X07871*
X07861Y06571*
X07851Y06561*
X07841*
X07851Y06551*
X07841Y06541*
X07851*
X07861Y06531*
X07761D02*
X07771Y06541D01*
X07781*
X07771Y06551*
X07781Y06561*
X07771*
X07761Y06571*
X07751Y06561*
X07741*
X07751Y06551*
X07741Y06541*
X07751*
X07761Y06531*
X07861Y06431D02*
X07871Y06441D01*
X07881*
X07871Y06451*
X07881Y06461*
X07871*
X07861Y06471*
X07851Y06461*
X07841*
X07851Y06451*
X07841Y06441*
X07851*
X07861Y06431*
X07761D02*
X07771Y06441D01*
X07781*
X07771Y06451*
X07781Y06461*
X07771*
X07761Y06471*
X07751Y06461*
X07741*
X07751Y06451*
X07741Y06441*
X07751*
X07761Y06431*
X07861Y06331D02*
X07871Y06341D01*
X07881*
X07871Y06351*
X07881Y06361*
X07871*
X07861Y06371*
X07851Y06361*
X07841*
X07851Y06351*
X07841Y06341*
X07851*
X07861Y06331*
X07761D02*
X07771Y06341D01*
X07781*
X07771Y06351*
X07781Y06361*
X07771*
X07761Y06371*
X07751Y06361*
X07741*
X07751Y06351*
X07741Y06341*
X07751*
X07761Y06331*
X07861Y06231D02*
X07871Y06241D01*
X07881*
X07871Y06251*
X07881Y06261*
X07871*
X07861Y06271*
X07851Y06261*
X07841*
X07851Y06251*
X07841Y06241*
X07851*
X07861Y06231*
X07761D02*
X07771Y06241D01*
X07781*
X07771Y06251*
X07781Y06261*
X07771*
X07761Y06271*
X07751Y06261*
X07741*
X07751Y06251*
X07741Y06241*
X07751*
X07761Y06231*
X07861Y06131D02*
X07871Y06141D01*
X07881*
X07871Y06151*
X07881Y06161*
X07871*
X07861Y06171*
X07851Y06161*
X07841*
X07851Y06151*
X07841Y06141*
X07851*
X07861Y06131*
X07761D02*
X07771Y06141D01*
X07781*
X07771Y06151*
X07781Y06161*
X07771*
X07761Y06171*
X07751Y06161*
X07741*
X07751Y06151*
X07741Y06141*
X07751*
X07761Y06131*
X07861Y06031D02*
X07871Y06041D01*
X07881*
X07871Y06051*
X07881Y06061*
X07871*
X07861Y06071*
X07851Y06061*
X07841*
X07851Y06051*
X07841Y06041*
X07851*
X07861Y06031*
X07761D02*
X07771Y06041D01*
X07781*
X07771Y06051*
X07781Y06061*
X07771*
X07761Y06071*
X07751Y06061*
X07741*
X07751Y06051*
X07741Y06041*
X07751*
X07761Y06031*
X07861Y05931D02*
X07871Y05941D01*
X07881*
X07871Y05951*
X07881Y05961*
X07871*
X07861Y05971*
X07851Y05961*
X07841*
X07851Y05951*
X07841Y05941*
X07851*
X07861Y05931*
X07761D02*
X07771Y05941D01*
X07781*
X07771Y05951*
X07781Y05961*
X07771*
X07761Y05971*
X07751Y05961*
X07741*
X07751Y05951*
X07741Y05941*
X07751*
X07761Y05931*
X07861Y05831D02*
X07871Y05841D01*
X07881*
X07871Y05851*
X07881Y05861*
X07871*
X07861Y05871*
X07851Y05861*
X07841*
X07851Y05851*
X07841Y05841*
X07851*
X07861Y05831*
X07761D02*
X07771Y05841D01*
X07781*
X07771Y05851*
X07781Y05861*
X07771*
X07761Y05871*
X07751Y05861*
X07741*
X07751Y05851*
X07741Y05841*
X07751*
X07761Y05831*
X07861Y05731D02*
X07871Y05741D01*
X07881*
X07871Y05751*
X07881Y05761*
X07871*
X07861Y05771*
X07851Y05761*
X07841*
X07851Y05751*
X07841Y05741*
X07851*
X07861Y05731*
X07761D02*
X07771Y05741D01*
X07781*
X07771Y05751*
X07781Y05761*
X07771*
X07761Y05771*
X07751Y05761*
X07741*
X07751Y05751*
X07741Y05741*
X07751*
X07761Y05731*
X07861Y05631D02*
X07871Y05641D01*
X07881*
X07871Y05651*
X07881Y05661*
X07871*
X07861Y05671*
X07851Y05661*
X07841*
X07851Y05651*
X07841Y05641*
X07851*
X07861Y05631*
X07761D02*
X07771Y05641D01*
X07781*
X07771Y05651*
X07781Y05661*
X07771*
X07761Y05671*
X07751Y05661*
X07741*
X07751Y05651*
X07741Y05641*
X07751*
X07761Y05631*
X07861Y05531D02*
X07871Y05541D01*
X07881*
X07871Y05551*
X07881Y05561*
X07871*
X07861Y05571*
X07851Y05561*
X07841*
X07851Y05551*
X07841Y05541*
X07851*
X07861Y05531*
X07761D02*
X07771Y05541D01*
X07781*
X07771Y05551*
X07781Y05561*
X07771*
X07761Y05571*
X07751Y05561*
X07741*
X07751Y05551*
X07741Y05541*
X07751*
X07761Y05531*
X07861Y05431D02*
X07871Y05441D01*
X07881*
X07871Y05451*
X07881Y05461*
X07871*
X07861Y05471*
X07851Y05461*
X07841*
X07851Y05451*
X07841Y05441*
X07851*
X07861Y05431*
X07761D02*
X07771Y05441D01*
X07781*
X07771Y05451*
X07781Y05461*
X07771*
X07761Y05471*
X07751Y05461*
X07741*
X07751Y05451*
X07741Y05441*
X07751*
X07761Y05431*
X07861Y05331D02*
X07871Y05341D01*
X07881*
X07871Y05351*
X07881Y05361*
X07871*
X07861Y05371*
X07851Y05361*
X07841*
X07851Y05351*
X07841Y05341*
X07851*
X07861Y05331*
X07761D02*
X07771Y05341D01*
X07781*
X07771Y05351*
X07781Y05361*
X07771*
X07761Y05371*
X07751Y05361*
X07741*
X07751Y05351*
X07741Y05341*
X07751*
X07761Y05331*
X07861Y05231D02*
X07871Y05241D01*
X07881*
X07871Y05251*
X07881Y05261*
X07871*
X07861Y05271*
X07851Y05261*
X07841*
X07851Y05251*
X07841Y05241*
X07851*
X07861Y05231*
X07761D02*
X07771Y05241D01*
X07781*
X07771Y05251*
X07781Y05261*
X07771*
X07761Y05271*
X07751Y05261*
X07741*
X07751Y05251*
X07741Y05241*
X07751*
X07761Y05231*
X07861Y05131D02*
X07871Y05141D01*
X07881*
X07871Y05151*
X07881Y05161*
X07871*
X07861Y05171*
X07851Y05161*
X07841*
X07851Y05151*
X07841Y05141*
X07851*
X07861Y05131*
X07761D02*
X07771Y05141D01*
X07781*
X07771Y05151*
X07781Y05161*
X07771*
X07761Y05171*
X07751Y05161*
X07741*
X07751Y05151*
X07741Y05141*
X07751*
X07761Y05131*
X07861Y05031D02*
X07871Y05041D01*
X07881*
X07871Y05051*
X07881Y05061*
X07871*
X07861Y05071*
X07851Y05061*
X07841*
X07851Y05051*
X07841Y05041*
X07851*
X07861Y05031*
X07761D02*
X07771Y05041D01*
X07781*
X07771Y05051*
X07781Y05061*
X07771*
X07761Y05071*
X07751Y05061*
X07741*
X07751Y05051*
X07741Y05041*
X07751*
X07761Y05031*
X07861Y04931D02*
X07871Y04941D01*
X07881*
X07871Y04951*
X07881Y04961*
X07871*
X07861Y04971*
X07851Y04961*
X07841*
X07851Y04951*
X07841Y04941*
X07851*
X07861Y04931*
X07761D02*
X07771Y04941D01*
X07781*
X07771Y04951*
X07781Y04961*
X07771*
X07761Y04971*
X07751Y04961*
X07741*
X07751Y04951*
X07741Y04941*
X07751*
X07761Y04931*
X07861Y04831D02*
X07871Y04841D01*
X07881*
X07871Y04851*
X07881Y04861*
X07871*
X07861Y04871*
X07851Y04861*
X07841*
X07851Y04851*
X07841Y04841*
X07851*
X07861Y04831*
X07761D02*
X07771Y04841D01*
X07781*
X07771Y04851*
X07781Y04861*
X07771*
X07761Y04871*
X07751Y04861*
X07741*
X07751Y04851*
X07741Y04841*
X07751*
X07761Y04831*
X07861Y04731D02*
X07871Y04741D01*
X07881*
X07871Y04751*
X07881Y04761*
X07871*
X07861Y04771*
X07851Y04761*
X07841*
X07851Y04751*
X07841Y04741*
X07851*
X07861Y04731*
X07761D02*
X07771Y04741D01*
X07781*
X07771Y04751*
X07781Y04761*
X07771*
X07761Y04771*
X07751Y04761*
X07741*
X07751Y04751*
X07741Y04741*
X07751*
X07761Y04731*
X07861Y04631D02*
X07871Y04641D01*
X07881*
X07871Y04651*
X07881Y04661*
X07871*
X07861Y04671*
X07851Y04661*
X07841*
X07851Y04651*
X07841Y04641*
X07851*
X07861Y04631*
X07761D02*
X07771Y04641D01*
X07781*
X07771Y04651*
X07781Y04661*
X07771*
X07761Y04671*
X07751Y04661*
X07741*
X07751Y04651*
X07741Y04641*
X07751*
X07761Y04631*
X07861Y04531D02*
X07871Y04541D01*
X07881*
X07871Y04551*
X07881Y04561*
X07871*
X07861Y04571*
X07851Y04561*
X07841*
X07851Y04551*
X07841Y04541*
X07851*
X07861Y04531*
X07761D02*
X07771Y04541D01*
X07781*
X07771Y04551*
X07781Y04561*
X07771*
X07761Y04571*
X07751Y04561*
X07741*
X07751Y04551*
X07741Y04541*
X07751*
X07761Y04531*
X05861Y06931D02*
X05871Y06941D01*
X05881*
X05871Y06951*
X05881Y06961*
X05871*
X05861Y06971*
X05851Y06961*
X05841*
X05851Y06951*
X05841Y06941*
X05851*
X05861Y06931*
X05761D02*
X05771Y06941D01*
X05781*
X05771Y06951*
X05781Y06961*
X05771*
X05761Y06971*
X05751Y06961*
X05741*
X05751Y06951*
X05741Y06941*
X05751*
X05761Y06931*
X05861Y06831D02*
X05871Y06841D01*
X05881*
X05871Y06851*
X05881Y06861*
X05871*
X05861Y06871*
X05851Y06861*
X05841*
X05851Y06851*
X05841Y06841*
X05851*
X05861Y06831*
X05761D02*
X05771Y06841D01*
X05781*
X05771Y06851*
X05781Y06861*
X05771*
X05761Y06871*
X05751Y06861*
X05741*
X05751Y06851*
X05741Y06841*
X05751*
X05761Y06831*
X05861Y06731D02*
X05871Y06741D01*
X05881*
X05871Y06751*
X05881Y06761*
X05871*
X05861Y06771*
X05851Y06761*
X05841*
X05851Y06751*
X05841Y06741*
X05851*
X05861Y06731*
X05761D02*
X05771Y06741D01*
X05781*
X05771Y06751*
X05781Y06761*
X05771*
X05761Y06771*
X05751Y06761*
X05741*
X05751Y06751*
X05741Y06741*
X05751*
X05761Y06731*
X05861Y06631D02*
X05871Y06641D01*
X05881*
X05871Y06651*
X05881Y06661*
X05871*
X05861Y06671*
X05851Y06661*
X05841*
X05851Y06651*
X05841Y06641*
X05851*
X05861Y06631*
X05761D02*
X05771Y06641D01*
X05781*
X05771Y06651*
X05781Y06661*
X05771*
X05761Y06671*
X05751Y06661*
X05741*
X05751Y06651*
X05741Y06641*
X05751*
X05761Y06631*
X05861Y06531D02*
X05871Y06541D01*
X05881*
X05871Y06551*
X05881Y06561*
X05871*
X05861Y06571*
X05851Y06561*
X05841*
X05851Y06551*
X05841Y06541*
X05851*
X05861Y06531*
X05761D02*
X05771Y06541D01*
X05781*
X05771Y06551*
X05781Y06561*
X05771*
X05761Y06571*
X05751Y06561*
X05741*
X05751Y06551*
X05741Y06541*
X05751*
X05761Y06531*
X05861Y06431D02*
X05871Y06441D01*
X05881*
X05871Y06451*
X05881Y06461*
X05871*
X05861Y06471*
X05851Y06461*
X05841*
X05851Y06451*
X05841Y06441*
X05851*
X05861Y06431*
X05761D02*
X05771Y06441D01*
X05781*
X05771Y06451*
X05781Y06461*
X05771*
X05761Y06471*
X05751Y06461*
X05741*
X05751Y06451*
X05741Y06441*
X05751*
X05761Y06431*
X05861Y06331D02*
X05871Y06341D01*
X05881*
X05871Y06351*
X05881Y06361*
X05871*
X05861Y06371*
X05851Y06361*
X05841*
X05851Y06351*
X05841Y06341*
X05851*
X05861Y06331*
X05761D02*
X05771Y06341D01*
X05781*
X05771Y06351*
X05781Y06361*
X05771*
X05761Y06371*
X05751Y06361*
X05741*
X05751Y06351*
X05741Y06341*
X05751*
X05761Y06331*
X05861Y06231D02*
X05871Y06241D01*
X05881*
X05871Y06251*
X05881Y06261*
X05871*
X05861Y06271*
X05851Y06261*
X05841*
X05851Y06251*
X05841Y06241*
X05851*
X05861Y06231*
X05761D02*
X05771Y06241D01*
X05781*
X05771Y06251*
X05781Y06261*
X05771*
X05761Y06271*
X05751Y06261*
X05741*
X05751Y06251*
X05741Y06241*
X05751*
X05761Y06231*
X05861Y06131D02*
X05871Y06141D01*
X05881*
X05871Y06151*
X05881Y06161*
X05871*
X05861Y06171*
X05851Y06161*
X05841*
X05851Y06151*
X05841Y06141*
X05851*
X05861Y06131*
X05761D02*
X05771Y06141D01*
X05781*
X05771Y06151*
X05781Y06161*
X05771*
X05761Y06171*
X05751Y06161*
X05741*
X05751Y06151*
X05741Y06141*
X05751*
X05761Y06131*
X05861Y06031D02*
X05871Y06041D01*
X05881*
X05871Y06051*
X05881Y06061*
X05871*
X05861Y06071*
X05851Y06061*
X05841*
X05851Y06051*
X05841Y06041*
X05851*
X05861Y06031*
X05761D02*
X05771Y06041D01*
X05781*
X05771Y06051*
X05781Y06061*
X05771*
X05761Y06071*
X05751Y06061*
X05741*
X05751Y06051*
X05741Y06041*
X05751*
X05761Y06031*
X05861Y05931D02*
X05871Y05941D01*
X05881*
X05871Y05951*
X05881Y05961*
X05871*
X05861Y05971*
X05851Y05961*
X05841*
X05851Y05951*
X05841Y05941*
X05851*
X05861Y05931*
X05761D02*
X05771Y05941D01*
X05781*
X05771Y05951*
X05781Y05961*
X05771*
X05761Y05971*
X05751Y05961*
X05741*
X05751Y05951*
X05741Y05941*
X05751*
X05761Y05931*
X05861Y05831D02*
X05871Y05841D01*
X05881*
X05871Y05851*
X05881Y05861*
X05871*
X05861Y05871*
X05851Y05861*
X05841*
X05851Y05851*
X05841Y05841*
X05851*
X05861Y05831*
X05761D02*
X05771Y05841D01*
X05781*
X05771Y05851*
X05781Y05861*
X05771*
X05761Y05871*
X05751Y05861*
X05741*
X05751Y05851*
X05741Y05841*
X05751*
X05761Y05831*
X05861Y05731D02*
X05871Y05741D01*
X05881*
X05871Y05751*
X05881Y05761*
X05871*
X05861Y05771*
X05851Y05761*
X05841*
X05851Y05751*
X05841Y05741*
X05851*
X05861Y05731*
X05761D02*
X05771Y05741D01*
X05781*
X05771Y05751*
X05781Y05761*
X05771*
X05761Y05771*
X05751Y05761*
X05741*
X05751Y05751*
X05741Y05741*
X05751*
X05761Y05731*
X05861Y05631D02*
X05871Y05641D01*
X05881*
X05871Y05651*
X05881Y05661*
X05871*
X05861Y05671*
X05851Y05661*
X05841*
X05851Y05651*
X05841Y05641*
X05851*
X05861Y05631*
X05761D02*
X05771Y05641D01*
X05781*
X05771Y05651*
X05781Y05661*
X05771*
X05761Y05671*
X05751Y05661*
X05741*
X05751Y05651*
X05741Y05641*
X05751*
X05761Y05631*
X05861Y05531D02*
X05871Y05541D01*
X05881*
X05871Y05551*
X05881Y05561*
X05871*
X05861Y05571*
X05851Y05561*
X05841*
X05851Y05551*
X05841Y05541*
X05851*
X05861Y05531*
X05761D02*
X05771Y05541D01*
X05781*
X05771Y05551*
X05781Y05561*
X05771*
X05761Y05571*
X05751Y05561*
X05741*
X05751Y05551*
X05741Y05541*
X05751*
X05761Y05531*
X05861Y05431D02*
X05871Y05441D01*
X05881*
X05871Y05451*
X05881Y05461*
X05871*
X05861Y05471*
X05851Y05461*
X05841*
X05851Y05451*
X05841Y05441*
X05851*
X05861Y05431*
X05761D02*
X05771Y05441D01*
X05781*
X05771Y05451*
X05781Y05461*
X05771*
X05761Y05471*
X05751Y05461*
X05741*
X05751Y05451*
X05741Y05441*
X05751*
X05761Y05431*
X05861Y05331D02*
X05871Y05341D01*
X05881*
X05871Y05351*
X05881Y05361*
X05871*
X05861Y05371*
X05851Y05361*
X05841*
X05851Y05351*
X05841Y05341*
X05851*
X05861Y05331*
X05761D02*
X05771Y05341D01*
X05781*
X05771Y05351*
X05781Y05361*
X05771*
X05761Y05371*
X05751Y05361*
X05741*
X05751Y05351*
X05741Y05341*
X05751*
X05761Y05331*
X05861Y05231D02*
X05871Y05241D01*
X05881*
X05871Y05251*
X05881Y05261*
X05871*
X05861Y05271*
X05851Y05261*
X05841*
X05851Y05251*
X05841Y05241*
X05851*
X05861Y05231*
X05761D02*
X05771Y05241D01*
X05781*
X05771Y05251*
X05781Y05261*
X05771*
X05761Y05271*
X05751Y05261*
X05741*
X05751Y05251*
X05741Y05241*
X05751*
X05761Y05231*
X05861Y05131D02*
X05871Y05141D01*
X05881*
X05871Y05151*
X05881Y05161*
X05871*
X05861Y05171*
X05851Y05161*
X05841*
X05851Y05151*
X05841Y05141*
X05851*
X05861Y05131*
X05761D02*
X05771Y05141D01*
X05781*
X05771Y05151*
X05781Y05161*
X05771*
X05761Y05171*
X05751Y05161*
X05741*
X05751Y05151*
X05741Y05141*
X05751*
X05761Y05131*
X05861Y05031D02*
X05871Y05041D01*
X05881*
X05871Y05051*
X05881Y05061*
X05871*
X05861Y05071*
X05851Y05061*
X05841*
X05851Y05051*
X05841Y05041*
X05851*
X05861Y05031*
X05761D02*
X05771Y05041D01*
X05781*
X05771Y05051*
X05781Y05061*
X05771*
X05761Y05071*
X05751Y05061*
X05741*
X05751Y05051*
X05741Y05041*
X05751*
X05761Y05031*
X05861Y04931D02*
X05871Y04941D01*
X05881*
X05871Y04951*
X05881Y04961*
X05871*
X05861Y04971*
X05851Y04961*
X05841*
X05851Y04951*
X05841Y04941*
X05851*
X05861Y04931*
X05761D02*
X05771Y04941D01*
X05781*
X05771Y04951*
X05781Y04961*
X05771*
X05761Y04971*
X05751Y04961*
X05741*
X05751Y04951*
X05741Y04941*
X05751*
X05761Y04931*
X05861Y04831D02*
X05871Y04841D01*
X05881*
X05871Y04851*
X05881Y04861*
X05871*
X05861Y04871*
X05851Y04861*
X05841*
X05851Y04851*
X05841Y04841*
X05851*
X05861Y04831*
X05761D02*
X05771Y04841D01*
X05781*
X05771Y04851*
X05781Y04861*
X05771*
X05761Y04871*
X05751Y04861*
X05741*
X05751Y04851*
X05741Y04841*
X05751*
X05761Y04831*
X05861Y04731D02*
X05871Y04741D01*
X05881*
X05871Y04751*
X05881Y04761*
X05871*
X05861Y04771*
X05851Y04761*
X05841*
X05851Y04751*
X05841Y04741*
X05851*
X05861Y04731*
X05761D02*
X05771Y04741D01*
X05781*
X05771Y04751*
X05781Y04761*
X05771*
X05761Y04771*
X05751Y04761*
X05741*
X05751Y04751*
X05741Y04741*
X05751*
X05761Y04731*
X05861Y04631D02*
X05871Y04641D01*
X05881*
X05871Y04651*
X05881Y04661*
X05871*
X05861Y04671*
X05851Y04661*
X05841*
X05851Y04651*
X05841Y04641*
X05851*
X05861Y04631*
X05761D02*
X05771Y04641D01*
X05781*
X05771Y04651*
X05781Y04661*
X05771*
X05761Y04671*
X05751Y04661*
X05741*
X05751Y04651*
X05741Y04641*
X05751*
X05761Y04631*
X05861Y04531D02*
X05871Y04541D01*
X05881*
X05871Y04551*
X05881Y04561*
X05871*
X05861Y04571*
X05851Y04561*
X05841*
X05851Y04551*
X05841Y04541*
X05851*
X05861Y04531*
X05761D02*
X05771Y04541D01*
X05781*
X05771Y04551*
X05781Y04561*
X05771*
X05761Y04571*
X05751Y04561*
X05741*
X05751Y04551*
X05741Y04541*
X05751*
X05761Y04531*
X00216Y02701D02*
X00196Y02741D01*
X00236*
X00216Y02701*
Y02601D02*
X00196Y02641D01*
X00236*
X00216Y02601*
Y02501D02*
X00196Y02541D01*
X00236*
X00216Y02501*
Y02401D02*
X00196Y02441D01*
X00236*
X00216Y02401*
Y02301D02*
X00196Y02341D01*
X00236*
X00216Y02301*
Y02201D02*
X00196Y02241D01*
X00236*
X00216Y02201*
Y02101D02*
X00196Y02141D01*
X00236*
X00216Y02101*
Y02001D02*
X00196Y02041D01*
X00236*
X00216Y02001*
X01712Y03572D02*
X01722Y03592D01*
X01712Y03612*
X01732Y03602*
X01752Y03612*
X01742Y03592*
X01752Y03572*
X01732Y03582*
X01712Y03572*
X01722Y03178D02*
Y03168D01*
X01742*
Y03178*
X01752*
Y03198*
X01742*
Y03208*
X01722*
Y03198*
X01712*
Y03178*
X01722*
Y03986D02*
Y03976D01*
X01742*
Y03986*
X01752*
Y04006*
X01742*
Y04016*
X01722*
Y04006*
X01712*
Y03986*
X01722*
X02105Y04064D02*
X02115D01*
X02125Y04074*
X02135Y04064*
X02145*
Y04074*
X02135Y04084*
X02145Y04094*
Y04104*
X02135*
X02125Y04094*
X02115Y04104*
X02105*
Y04094*
X02115Y04084*
X02105Y04074*
Y04064*
X01318D02*
X01328D01*
X01338Y04074*
X01348Y04064*
X01358*
Y04074*
X01348Y04084*
X01358Y04094*
Y04104*
X01348*
X01338Y04094*
X01328Y04104*
X01318*
Y04094*
X01328Y04084*
X01318Y04074*
Y04064*
X02105Y0308D02*
X02115D01*
X02125Y0309*
X02135Y0308*
X02145*
Y0309*
X02135Y031*
X02145Y0311*
Y0312*
X02135*
X02125Y0311*
X02115Y0312*
X02105*
Y0311*
X02115Y031*
X02105Y0309*
Y0308*
X01318D02*
X01328D01*
X01338Y0309*
X01348Y0308*
X01358*
Y0309*
X01348Y031*
X01358Y0311*
Y0312*
X01348*
X01338Y0311*
X01328Y0312*
X01318*
Y0311*
X01328Y031*
X01318Y0309*
Y0308*
X00334Y08976D02*
X00354Y08996D01*
X00374Y08976*
X00354Y08956*
X00334Y08976*
Y04842D02*
X00354Y04862D01*
X00374Y04842*
X00354Y04822*
X00334Y04842*
Y00196D02*
X00354Y00216D01*
X00374Y00196*
X00354Y00176*
X00334Y00196*
X04271Y08976D02*
X04291Y08996D01*
X04311Y08976*
X04291Y08956*
X04271Y08976*
Y04842D02*
X04291Y04862D01*
X04311Y04842*
X04291Y04822*
X04271Y04842*
Y0059D02*
X04291Y0061D01*
X04311Y0059*
X04291Y0057*
X04271Y0059*
X08208Y00196D02*
X08228Y00216D01*
X08248Y00196*
X08228Y00176*
X08208Y00196*
Y04842D02*
X08228Y04862D01*
X08248Y04842*
X08228Y04822*
X08208Y04842*
Y08976D02*
X08228Y08996D01*
X08248Y08976*
X08228Y08956*
X08208Y08976*
X07637Y05905D02*
Y05945D01*
X07677*
Y05905*
X07637*
X07645Y05913D02*
Y05937D01*
X07669*
Y05913*
X07645*
X06476Y08405D02*
Y08445D01*
X06516*
Y08405*
X06476*
X06484Y08413D02*
Y08437D01*
X06508*
Y08413*
X06484*
X06515Y06731D02*
Y06771D01*
X06555*
Y06731*
X06515*
X06523Y06739D02*
Y06763D01*
X06547*
Y06739*
X06523*
X02735Y05235D02*
Y05275D01*
X02775*
Y05235*
X02735*
X02743Y05243D02*
Y05267D01*
X02767*
Y05243*
X02743*
X06121Y05176D02*
Y05216D01*
X06161*
Y05176*
X06121*
X06129Y05184D02*
Y05208D01*
X06153*
Y05184*
X06129*
X05058Y08562D02*
Y08602D01*
X05098*
Y08562*
X05058*
X05066Y0857D02*
Y08594D01*
X0509*
Y0857*
X05066*
X03109Y08464D02*
Y08504D01*
X03149*
Y08464*
X03109*
X03117Y08472D02*
Y08496D01*
X03141*
Y08472*
X03117*
X02913Y07696D02*
Y07736D01*
X02953*
Y07696*
X02913*
X02921Y07704D02*
Y07728D01*
X02945*
Y07704*
X02921*
X02913Y07637D02*
Y07677D01*
X02953*
Y07637*
X02913*
X02921Y07645D02*
Y07669D01*
X02945*
Y07645*
X02921*
X02913Y07578D02*
Y07618D01*
X02953*
Y07578*
X02913*
X02921Y07586D02*
Y0761D01*
X02945*
Y07586*
X02921*
X05649Y04802D02*
Y04842D01*
X05689*
Y04802*
X05649*
X05657Y0481D02*
Y04834D01*
X05681*
Y0481*
X05657*
X05609Y04743D02*
Y04783D01*
X05649*
Y04743*
X05609*
X05617Y04751D02*
Y04775D01*
X05641*
Y04751*
X05617*
X05668Y03956D02*
Y03996D01*
X05708*
Y03956*
X05668*
X05676Y03964D02*
Y03988D01*
X057*
Y03964*
X05676*
X05629Y04074D02*
Y04114D01*
X05669*
Y04074*
X05629*
X05637Y04082D02*
Y04106D01*
X05661*
Y04082*
X05637*
X02676Y03149D02*
Y03189D01*
X02716*
Y03149*
X02676*
X02684Y03157D02*
Y03181D01*
X02708*
Y03157*
X02684*
X08129Y04586D02*
Y04626D01*
X08169*
Y04586*
X08129*
X08137Y04594D02*
Y04618D01*
X08161*
Y04594*
X08137*
X03031Y0307D02*
Y0311D01*
X03071*
Y0307*
X03031*
X03039Y03078D02*
Y03102D01*
X03063*
Y03078*
X03039*
X0309Y04704D02*
Y04744D01*
X0313*
Y04704*
X0309*
X03098Y04712D02*
Y04736D01*
X03122*
Y04712*
X03098*
X08031Y05708D02*
Y05748D01*
X08071*
Y05708*
X08031*
X08039Y05716D02*
Y0574D01*
X08063*
Y05716*
X08039*
X03523Y02617D02*
Y02657D01*
X03563*
Y02617*
X03523*
X03531Y02625D02*
Y02649D01*
X03555*
Y02625*
X03531*
X03739Y04527D02*
Y04567D01*
X03779*
Y04527*
X03739*
X03747Y04535D02*
Y04559D01*
X03771*
Y04535*
X03747*
X03168Y03523D02*
Y03563D01*
X03208*
Y03523*
X03168*
X03176Y03531D02*
Y03555D01*
X032*
Y03531*
X03176*
X03247Y04389D02*
Y04429D01*
X03287*
Y04389*
X03247*
X03255Y04397D02*
Y04421D01*
X03279*
Y04397*
X03255*
X02913Y05373D02*
Y05413D01*
X02953*
Y05373*
X02913*
X02921Y05381D02*
Y05405D01*
X02945*
Y05381*
X02921*
X03031Y07991D02*
Y08031D01*
X03071*
Y07991*
X03031*
X03039Y07999D02*
Y08023D01*
X03063*
Y07999*
X03039*
X0305Y05708D02*
Y05748D01*
X0309*
Y05708*
X0305*
X03058Y05716D02*
Y0574D01*
X03082*
Y05716*
X03058*
X07952Y05688D02*
Y05728D01*
X07992*
Y05688*
X07952*
X0796Y05696D02*
Y0572D01*
X07984*
Y05696*
X0796*
X08228Y04546D02*
Y04586D01*
X08268*
Y04546*
X08228*
X08236Y04554D02*
Y04578D01*
X0826*
Y04554*
X08236*
X08129Y04468D02*
Y04508D01*
X08169*
Y04468*
X08129*
X08137Y04476D02*
Y045D01*
X08161*
Y04476*
X08137*
X02657Y07066D02*
Y07106D01*
X02697*
Y07066*
X02657*
X02665Y07074D02*
Y07098D01*
X02689*
Y07074*
X02665*
X02657Y06082D02*
Y06122D01*
X02697*
Y06082*
X02657*
X02665Y0609D02*
Y06114D01*
X02689*
Y0609*
X02665*
X02657Y04704D02*
Y04744D01*
X02697*
Y04704*
X02657*
X02665Y04712D02*
Y04736D01*
X02689*
Y04712*
X02665*
X02066Y0057D02*
Y0061D01*
X02106*
Y0057*
X02066*
X02074Y00578D02*
Y00602D01*
X02098*
Y00578*
X02074*
X02676Y07873D02*
Y07913D01*
X02716*
Y07873*
X02676*
X02684Y07881D02*
Y07905D01*
X02708*
Y07881*
X02684*
X02812Y06237D02*
Y06277D01*
X02852*
Y06237*
X02812*
X0282Y06245D02*
Y06269D01*
X02844*
Y06245*
X0282*
X02932Y05964D02*
Y06004D01*
X02972*
Y05964*
X02932*
X0294Y05972D02*
Y05996D01*
X02964*
Y05972*
X0294*
X02834Y05964D02*
Y06004D01*
X02874*
Y05964*
X02834*
X02842Y05972D02*
Y05996D01*
X02866*
Y05972*
X02842*
X02735Y07381D02*
Y07421D01*
X02775*
Y07381*
X02735*
X02743Y07389D02*
Y07413D01*
X02767*
Y07389*
X02743*
X0281Y07108D02*
Y07148D01*
X0285*
Y07108*
X0281*
X02818Y07116D02*
Y0714D01*
X02842*
Y07116*
X02818*
X02814Y07184D02*
Y07224D01*
X02854*
Y07184*
X02814*
X02822Y07192D02*
Y07216D01*
X02846*
Y07192*
X02822*
X02971Y0624D02*
Y0628D01*
X03011*
Y0624*
X02971*
X02979Y06248D02*
Y06272D01*
X03003*
Y06248*
X02979*
X02972Y07224D02*
Y07264D01*
X03012*
Y07224*
X02972*
X0298Y07232D02*
Y07256D01*
X03004*
Y07232*
X0298*
X02972Y04861D02*
Y04901D01*
X03012*
Y04861*
X02972*
X0298Y04869D02*
Y04893D01*
X03004*
Y04869*
X0298*
X0242Y00806D02*
Y00846D01*
X0246*
Y00806*
X0242*
X02428Y00814D02*
Y00838D01*
X02452*
Y00814*
X02428*
X02972Y08208D02*
Y08248D01*
X03012*
Y08208*
X02972*
X0298Y08216D02*
Y0824D01*
X03004*
Y08216*
X0298*
X02539Y00885D02*
Y00925D01*
X02579*
Y00885*
X02539*
X02547Y00893D02*
Y00917D01*
X02571*
Y00893*
X02547*
X02932Y04625D02*
Y04665D01*
X02972*
Y04625*
X02932*
X0294Y04633D02*
Y04657D01*
X02964*
Y04633*
X0294*
X02783Y08277D02*
Y08317D01*
X02823*
Y08277*
X02783*
X02791Y08285D02*
Y08309D01*
X02815*
Y08285*
X02791*
X02814Y08247D02*
Y08287D01*
X02854*
Y08247*
X02814*
X02822Y08255D02*
Y08279D01*
X02846*
Y08255*
X02822*
X02854Y08208D02*
Y08248D01*
X02894*
Y08208*
X02854*
X02862Y08216D02*
Y0824D01*
X02886*
Y08216*
X02862*
G54D75*
X01132Y05944D02*
D01*
X01132Y05946*
X01132Y05947*
X01132Y05949*
X01132Y0595*
X01131Y05951*
X01131Y05953*
X0113Y05954*
X01129Y05955*
X01129Y05956*
X01128Y05957*
X01127Y05958*
X01126Y05959*
X01125Y0596*
X01124Y05961*
X01122Y05962*
X01121Y05962*
X0112Y05963*
X01119Y05963*
X01117Y05964*
X01116Y05964*
X01115Y05964*
X01113Y05964*
X01112*
X0111Y05964*
X01109Y05964*
X01108Y05964*
X01106Y05963*
X01105Y05963*
X01104Y05962*
X01102Y05962*
X01101Y05961*
X011Y0596*
X01099Y05959*
X01098Y05958*
X01097Y05957*
X01096Y05956*
X01096Y05955*
X01095Y05954*
X01094Y05953*
X01094Y05951*
X01093Y0595*
X01093Y05949*
X01093Y05947*
X01093Y05946*
X01092Y05944*
X01093Y05943*
X01093Y05942*
X01093Y0594*
X01093Y05939*
X01094Y05938*
X01094Y05936*
X01095Y05935*
X01096Y05934*
X01096Y05933*
X01097Y05932*
X01098Y0593*
X01099Y0593*
X011Y05929*
X01101Y05928*
X01102Y05927*
X01104Y05926*
X01105Y05926*
X01106Y05925*
X01108Y05925*
X01109Y05925*
X0111Y05924*
X01112Y05924*
X01113*
X01115Y05924*
X01116Y05925*
X01117Y05925*
X01119Y05925*
X0112Y05926*
X01121Y05926*
X01122Y05927*
X01124Y05928*
X01125Y05929*
X01126Y0593*
X01127Y0593*
X01128Y05932*
X01129Y05933*
X01129Y05934*
X0113Y05935*
X01131Y05936*
X01131Y05938*
X01132Y05939*
X01132Y0594*
X01132Y05942*
X01132Y05943*
X01132Y05944*
X01032D02*
D01*
X01032Y05946*
X01032Y05947*
X01032Y05949*
X01032Y0595*
X01031Y05951*
X01031Y05953*
X0103Y05954*
X01029Y05955*
X01029Y05956*
X01028Y05957*
X01027Y05958*
X01026Y05959*
X01025Y0596*
X01024Y05961*
X01022Y05962*
X01021Y05962*
X0102Y05963*
X01019Y05963*
X01017Y05964*
X01016Y05964*
X01015Y05964*
X01013Y05964*
X01012*
X0101Y05964*
X01009Y05964*
X01008Y05964*
X01006Y05963*
X01005Y05963*
X01004Y05962*
X01002Y05962*
X01001Y05961*
X01Y0596*
X00999Y05959*
X00998Y05958*
X00997Y05957*
X00996Y05956*
X00996Y05955*
X00995Y05954*
X00994Y05953*
X00994Y05951*
X00993Y0595*
X00993Y05949*
X00993Y05947*
X00993Y05946*
X00992Y05944*
X00993Y05943*
X00993Y05942*
X00993Y0594*
X00993Y05939*
X00994Y05938*
X00994Y05936*
X00995Y05935*
X00996Y05934*
X00996Y05933*
X00997Y05932*
X00998Y0593*
X00999Y0593*
X01Y05929*
X01001Y05928*
X01002Y05927*
X01004Y05926*
X01005Y05926*
X01006Y05925*
X01008Y05925*
X01009Y05925*
X0101Y05924*
X01012Y05924*
X01013*
X01015Y05924*
X01016Y05925*
X01017Y05925*
X01019Y05925*
X0102Y05926*
X01021Y05926*
X01022Y05927*
X01024Y05928*
X01025Y05929*
X01026Y0593*
X01027Y0593*
X01028Y05932*
X01029Y05933*
X01029Y05934*
X0103Y05935*
X01031Y05936*
X01031Y05938*
X01032Y05939*
X01032Y0594*
X01032Y05942*
X01032Y05943*
X01032Y05944*
X04341Y04566D02*
D01*
X04341Y04568*
X04341Y04569*
X04341Y04571*
X0434Y04572*
X0434Y04573*
X04339Y04575*
X04339Y04576*
X04338Y04577*
X04337Y04578*
X04336Y04579*
X04336Y0458*
X04335Y04581*
X04333Y04582*
X04332Y04583*
X04331Y04584*
X0433Y04584*
X04329Y04585*
X04327Y04585*
X04326Y04586*
X04325Y04586*
X04323Y04586*
X04322Y04586*
X0432*
X04319Y04586*
X04318Y04586*
X04316Y04586*
X04315Y04585*
X04314Y04585*
X04312Y04584*
X04311Y04584*
X0431Y04583*
X04309Y04582*
X04308Y04581*
X04307Y0458*
X04306Y04579*
X04305Y04578*
X04304Y04577*
X04303Y04576*
X04303Y04575*
X04302Y04573*
X04302Y04572*
X04302Y04571*
X04301Y04569*
X04301Y04568*
X04301Y04566*
X04301Y04565*
X04301Y04564*
X04302Y04562*
X04302Y04561*
X04302Y0456*
X04303Y04558*
X04303Y04557*
X04304Y04556*
X04305Y04555*
X04306Y04554*
X04307Y04553*
X04308Y04552*
X04309Y04551*
X0431Y0455*
X04311Y04549*
X04312Y04548*
X04314Y04548*
X04315Y04547*
X04316Y04547*
X04318Y04547*
X04319Y04547*
X0432Y04546*
X04322*
X04323Y04547*
X04325Y04547*
X04326Y04547*
X04327Y04547*
X04329Y04548*
X0433Y04548*
X04331Y04549*
X04332Y0455*
X04333Y04551*
X04335Y04552*
X04336Y04553*
X04336Y04554*
X04337Y04555*
X04338Y04556*
X04339Y04557*
X04339Y04558*
X0434Y0456*
X0434Y04561*
X04341Y04562*
X04341Y04564*
X04341Y04565*
X04341Y04566*
X04241D02*
D01*
X04241Y04568*
X04241Y04569*
X04241Y04571*
X0424Y04572*
X0424Y04573*
X04239Y04575*
X04239Y04576*
X04238Y04577*
X04237Y04578*
X04236Y04579*
X04236Y0458*
X04235Y04581*
X04233Y04582*
X04232Y04583*
X04231Y04584*
X0423Y04584*
X04229Y04585*
X04227Y04585*
X04226Y04586*
X04225Y04586*
X04223Y04586*
X04222Y04586*
X0422*
X04219Y04586*
X04218Y04586*
X04216Y04586*
X04215Y04585*
X04214Y04585*
X04212Y04584*
X04211Y04584*
X0421Y04583*
X04209Y04582*
X04208Y04581*
X04207Y0458*
X04206Y04579*
X04205Y04578*
X04204Y04577*
X04203Y04576*
X04203Y04575*
X04202Y04573*
X04202Y04572*
X04202Y04571*
X04201Y04569*
X04201Y04568*
X04201Y04566*
X04201Y04565*
X04201Y04564*
X04202Y04562*
X04202Y04561*
X04202Y0456*
X04203Y04558*
X04203Y04557*
X04204Y04556*
X04205Y04555*
X04206Y04554*
X04207Y04553*
X04208Y04552*
X04209Y04551*
X0421Y0455*
X04211Y04549*
X04212Y04548*
X04214Y04548*
X04215Y04547*
X04216Y04547*
X04218Y04547*
X04219Y04547*
X0422Y04546*
X04222*
X04223Y04547*
X04225Y04547*
X04226Y04547*
X04227Y04547*
X04229Y04548*
X0423Y04548*
X04231Y04549*
X04232Y0455*
X04233Y04551*
X04235Y04552*
X04236Y04553*
X04236Y04554*
X04237Y04555*
X04238Y04556*
X04239Y04557*
X04239Y04558*
X0424Y0456*
X0424Y04561*
X04241Y04562*
X04241Y04564*
X04241Y04565*
X04241Y04566*
X01802D02*
D01*
X01802Y04568*
X01802Y04569*
X01801Y04571*
X01801Y04572*
X01801Y04573*
X018Y04575*
X01799Y04576*
X01799Y04577*
X01798Y04578*
X01797Y04579*
X01796Y0458*
X01795Y04581*
X01794Y04582*
X01793Y04583*
X01792Y04584*
X01791Y04584*
X01789Y04585*
X01788Y04585*
X01787Y04586*
X01785Y04586*
X01784Y04586*
X01782Y04586*
X01781*
X0178Y04586*
X01778Y04586*
X01777Y04586*
X01776Y04585*
X01774Y04585*
X01773Y04584*
X01772Y04584*
X01771Y04583*
X01769Y04582*
X01768Y04581*
X01767Y0458*
X01766Y04579*
X01766Y04578*
X01765Y04577*
X01764Y04576*
X01764Y04575*
X01763Y04573*
X01763Y04572*
X01762Y04571*
X01762Y04569*
X01762Y04568*
X01762Y04566*
X01762Y04565*
X01762Y04564*
X01762Y04562*
X01763Y04561*
X01763Y0456*
X01764Y04558*
X01764Y04557*
X01765Y04556*
X01766Y04555*
X01766Y04554*
X01767Y04553*
X01768Y04552*
X01769Y04551*
X01771Y0455*
X01772Y04549*
X01773Y04548*
X01774Y04548*
X01776Y04547*
X01777Y04547*
X01778Y04547*
X0178Y04547*
X01781Y04546*
X01782*
X01784Y04547*
X01785Y04547*
X01787Y04547*
X01788Y04547*
X01789Y04548*
X01791Y04548*
X01792Y04549*
X01793Y0455*
X01794Y04551*
X01795Y04552*
X01796Y04553*
X01797Y04554*
X01798Y04555*
X01799Y04556*
X01799Y04557*
X018Y04558*
X01801Y0456*
X01801Y04561*
X01801Y04562*
X01802Y04564*
X01802Y04565*
X01802Y04566*
X01702D02*
D01*
X01702Y04568*
X01702Y04569*
X01701Y04571*
X01701Y04572*
X01701Y04573*
X017Y04575*
X01699Y04576*
X01699Y04577*
X01698Y04578*
X01697Y04579*
X01696Y0458*
X01695Y04581*
X01694Y04582*
X01693Y04583*
X01692Y04584*
X01691Y04584*
X01689Y04585*
X01688Y04585*
X01687Y04586*
X01685Y04586*
X01684Y04586*
X01682Y04586*
X01681*
X0168Y04586*
X01678Y04586*
X01677Y04586*
X01676Y04585*
X01674Y04585*
X01673Y04584*
X01672Y04584*
X01671Y04583*
X01669Y04582*
X01668Y04581*
X01667Y0458*
X01666Y04579*
X01666Y04578*
X01665Y04577*
X01664Y04576*
X01664Y04575*
X01663Y04573*
X01663Y04572*
X01662Y04571*
X01662Y04569*
X01662Y04568*
X01662Y04566*
X01662Y04565*
X01662Y04564*
X01662Y04562*
X01663Y04561*
X01663Y0456*
X01664Y04558*
X01664Y04557*
X01665Y04556*
X01666Y04555*
X01666Y04554*
X01667Y04553*
X01668Y04552*
X01669Y04551*
X01671Y0455*
X01672Y04549*
X01673Y04548*
X01674Y04548*
X01676Y04547*
X01677Y04547*
X01678Y04547*
X0168Y04547*
X01681Y04546*
X01682*
X01684Y04547*
X01685Y04547*
X01687Y04547*
X01688Y04547*
X01689Y04548*
X01691Y04548*
X01692Y04549*
X01693Y0455*
X01694Y04551*
X01695Y04552*
X01696Y04553*
X01697Y04554*
X01698Y04555*
X01699Y04556*
X01699Y04557*
X017Y04558*
X01701Y0456*
X01701Y04561*
X01701Y04562*
X01702Y04564*
X01702Y04565*
X01702Y04566*
X00463D02*
D01*
X00463Y04568*
X00463Y04569*
X00463Y04571*
X00462Y04572*
X00462Y04573*
X00461Y04575*
X00461Y04576*
X0046Y04577*
X00459Y04578*
X00459Y04579*
X00458Y0458*
X00457Y04581*
X00456Y04582*
X00454Y04583*
X00453Y04584*
X00452Y04584*
X00451Y04585*
X00449Y04585*
X00448Y04586*
X00447Y04586*
X00445Y04586*
X00444Y04586*
X00443*
X00441Y04586*
X0044Y04586*
X00438Y04586*
X00437Y04585*
X00436Y04585*
X00434Y04584*
X00433Y04584*
X00432Y04583*
X00431Y04582*
X0043Y04581*
X00429Y0458*
X00428Y04579*
X00427Y04578*
X00426Y04577*
X00426Y04576*
X00425Y04575*
X00424Y04573*
X00424Y04572*
X00424Y04571*
X00423Y04569*
X00423Y04568*
X00423Y04566*
X00423Y04565*
X00423Y04564*
X00424Y04562*
X00424Y04561*
X00424Y0456*
X00425Y04558*
X00426Y04557*
X00426Y04556*
X00427Y04555*
X00428Y04554*
X00429Y04553*
X0043Y04552*
X00431Y04551*
X00432Y0455*
X00433Y04549*
X00434Y04548*
X00436Y04548*
X00437Y04547*
X00438Y04547*
X0044Y04547*
X00441Y04547*
X00443Y04546*
X00444*
X00445Y04547*
X00447Y04547*
X00448Y04547*
X00449Y04547*
X00451Y04548*
X00452Y04548*
X00453Y04549*
X00454Y0455*
X00456Y04551*
X00457Y04552*
X00458Y04553*
X00459Y04554*
X00459Y04555*
X0046Y04556*
X00461Y04557*
X00461Y04558*
X00462Y0456*
X00462Y04561*
X00463Y04562*
X00463Y04564*
X00463Y04565*
X00463Y04566*
X00363D02*
D01*
X00363Y04568*
X00363Y04569*
X00363Y04571*
X00362Y04572*
X00362Y04573*
X00361Y04575*
X00361Y04576*
X0036Y04577*
X00359Y04578*
X00359Y04579*
X00358Y0458*
X00357Y04581*
X00356Y04582*
X00354Y04583*
X00353Y04584*
X00352Y04584*
X00351Y04585*
X00349Y04585*
X00348Y04586*
X00347Y04586*
X00345Y04586*
X00344Y04586*
X00343*
X00341Y04586*
X0034Y04586*
X00338Y04586*
X00337Y04585*
X00336Y04585*
X00334Y04584*
X00333Y04584*
X00332Y04583*
X00331Y04582*
X0033Y04581*
X00329Y0458*
X00328Y04579*
X00327Y04578*
X00326Y04577*
X00326Y04576*
X00325Y04575*
X00324Y04573*
X00324Y04572*
X00324Y04571*
X00323Y04569*
X00323Y04568*
X00323Y04566*
X00323Y04565*
X00323Y04564*
X00324Y04562*
X00324Y04561*
X00324Y0456*
X00325Y04558*
X00326Y04557*
X00326Y04556*
X00327Y04555*
X00328Y04554*
X00329Y04553*
X0033Y04552*
X00331Y04551*
X00332Y0455*
X00333Y04549*
X00334Y04548*
X00336Y04548*
X00337Y04547*
X00338Y04547*
X0034Y04547*
X00341Y04547*
X00343Y04546*
X00344*
X00345Y04547*
X00347Y04547*
X00348Y04547*
X00349Y04547*
X00351Y04548*
X00352Y04548*
X00353Y04549*
X00354Y0455*
X00356Y04551*
X00357Y04552*
X00358Y04553*
X00359Y04554*
X00359Y04555*
X0036Y04556*
X00361Y04557*
X00361Y04558*
X00362Y0456*
X00362Y04561*
X00363Y04562*
X00363Y04564*
X00363Y04565*
X00363Y04566*
X07314Y05787D02*
D01*
X07314Y05788*
X07313Y0579*
X07313Y05791*
X07313Y05792*
X07312Y05794*
X07312Y05795*
X07311Y05796*
X07311Y05797*
X0731Y05799*
X07309Y058*
X07308Y05801*
X07307Y05802*
X07306Y05803*
X07305Y05803*
X07304Y05804*
X07302Y05805*
X07301Y05805*
X073Y05806*
X07298Y05806*
X07297Y05807*
X07296Y05807*
X07294Y05807*
X07293*
X07292Y05807*
X0729Y05807*
X07289Y05806*
X07287Y05806*
X07286Y05805*
X07285Y05805*
X07284Y05804*
X07282Y05803*
X07281Y05803*
X0728Y05802*
X07279Y05801*
X07278Y058*
X07277Y05799*
X07277Y05797*
X07276Y05796*
X07275Y05795*
X07275Y05794*
X07274Y05792*
X07274Y05791*
X07274Y0579*
X07274Y05788*
X07274Y05787*
X07274Y05786*
X07274Y05784*
X07274Y05783*
X07274Y05781*
X07275Y0578*
X07275Y05779*
X07276Y05778*
X07277Y05776*
X07277Y05775*
X07278Y05774*
X07279Y05773*
X0728Y05772*
X07281Y05771*
X07282Y0577*
X07284Y0577*
X07285Y05769*
X07286Y05768*
X07287Y05768*
X07289Y05767*
X0729Y05767*
X07292Y05767*
X07293Y05767*
X07294*
X07296Y05767*
X07297Y05767*
X07298Y05767*
X073Y05768*
X07301Y05768*
X07302Y05769*
X07304Y0577*
X07305Y0577*
X07306Y05771*
X07307Y05772*
X07308Y05773*
X07309Y05774*
X0731Y05775*
X07311Y05776*
X07311Y05778*
X07312Y05779*
X07312Y0578*
X07313Y05781*
X07313Y05783*
X07313Y05784*
X07314Y05786*
X07314Y05787*
X07214D02*
D01*
X07214Y05788*
X07213Y0579*
X07213Y05791*
X07213Y05792*
X07212Y05794*
X07212Y05795*
X07211Y05796*
X07211Y05797*
X0721Y05799*
X07209Y058*
X07208Y05801*
X07207Y05802*
X07206Y05803*
X07205Y05803*
X07204Y05804*
X07202Y05805*
X07201Y05805*
X072Y05806*
X07198Y05806*
X07197Y05807*
X07196Y05807*
X07194Y05807*
X07193*
X07192Y05807*
X0719Y05807*
X07189Y05806*
X07187Y05806*
X07186Y05805*
X07185Y05805*
X07184Y05804*
X07182Y05803*
X07181Y05803*
X0718Y05802*
X07179Y05801*
X07178Y058*
X07177Y05799*
X07177Y05797*
X07176Y05796*
X07175Y05795*
X07175Y05794*
X07174Y05792*
X07174Y05791*
X07174Y0579*
X07174Y05788*
X07174Y05787*
X07174Y05786*
X07174Y05784*
X07174Y05783*
X07174Y05781*
X07175Y0578*
X07175Y05779*
X07176Y05778*
X07177Y05776*
X07177Y05775*
X07178Y05774*
X07179Y05773*
X0718Y05772*
X07181Y05771*
X07182Y0577*
X07184Y0577*
X07185Y05769*
X07186Y05768*
X07187Y05768*
X07189Y05767*
X0719Y05767*
X07192Y05767*
X07193Y05767*
X07194*
X07196Y05767*
X07197Y05767*
X07198Y05767*
X072Y05768*
X07201Y05768*
X07202Y05769*
X07204Y0577*
X07205Y0577*
X07206Y05771*
X07207Y05772*
X07208Y05773*
X07209Y05774*
X0721Y05775*
X07211Y05776*
X07211Y05778*
X07212Y05779*
X07212Y0578*
X07213Y05781*
X07213Y05783*
X07213Y05784*
X07214Y05786*
X07214Y05787*
X04676Y07559D02*
D01*
X04676Y0756*
X04676Y07561*
X04675Y07563*
X04675Y07564*
X04675Y07565*
X04674Y07567*
X04673Y07568*
X04673Y07569*
X04672Y0757*
X04671Y07571*
X0467Y07572*
X04669Y07573*
X04668Y07574*
X04667Y07575*
X04666Y07576*
X04665Y07577*
X04663Y07577*
X04662Y07578*
X04661Y07578*
X04659Y07578*
X04658Y07578*
X04656Y07579*
X04655*
X04654Y07578*
X04652Y07578*
X04651Y07578*
X0465Y07578*
X04648Y07577*
X04647Y07577*
X04646Y07576*
X04645Y07575*
X04643Y07574*
X04642Y07573*
X04641Y07572*
X0464Y07571*
X0464Y0757*
X04639Y07569*
X04638Y07568*
X04638Y07567*
X04637Y07565*
X04637Y07564*
X04636Y07563*
X04636Y07561*
X04636Y0756*
X04636Y07559*
X04636Y07557*
X04636Y07556*
X04636Y07554*
X04637Y07553*
X04637Y07552*
X04638Y0755*
X04638Y07549*
X04639Y07548*
X0464Y07547*
X0464Y07546*
X04641Y07545*
X04642Y07544*
X04643Y07543*
X04645Y07542*
X04646Y07541*
X04647Y07541*
X04648Y0754*
X0465Y0754*
X04651Y07539*
X04652Y07539*
X04654Y07539*
X04655Y07539*
X04656*
X04658Y07539*
X04659Y07539*
X04661Y07539*
X04662Y0754*
X04663Y0754*
X04665Y07541*
X04666Y07541*
X04667Y07542*
X04668Y07543*
X04669Y07544*
X0467Y07545*
X04671Y07546*
X04672Y07547*
X04673Y07548*
X04673Y07549*
X04674Y0755*
X04675Y07552*
X04675Y07553*
X04675Y07554*
X04676Y07556*
X04676Y07557*
X04676Y07559*
X04576D02*
D01*
X04576Y0756*
X04576Y07561*
X04575Y07563*
X04575Y07564*
X04575Y07565*
X04574Y07567*
X04573Y07568*
X04573Y07569*
X04572Y0757*
X04571Y07571*
X0457Y07572*
X04569Y07573*
X04568Y07574*
X04567Y07575*
X04566Y07576*
X04565Y07577*
X04563Y07577*
X04562Y07578*
X04561Y07578*
X04559Y07578*
X04558Y07578*
X04556Y07579*
X04555*
X04554Y07578*
X04552Y07578*
X04551Y07578*
X0455Y07578*
X04548Y07577*
X04547Y07577*
X04546Y07576*
X04545Y07575*
X04543Y07574*
X04542Y07573*
X04541Y07572*
X0454Y07571*
X0454Y0757*
X04539Y07569*
X04538Y07568*
X04538Y07567*
X04537Y07565*
X04537Y07564*
X04536Y07563*
X04536Y07561*
X04536Y0756*
X04536Y07559*
X04536Y07557*
X04536Y07556*
X04536Y07554*
X04537Y07553*
X04537Y07552*
X04538Y0755*
X04538Y07549*
X04539Y07548*
X0454Y07547*
X0454Y07546*
X04541Y07545*
X04542Y07544*
X04543Y07543*
X04545Y07542*
X04546Y07541*
X04547Y07541*
X04548Y0754*
X0455Y0754*
X04551Y07539*
X04552Y07539*
X04554Y07539*
X04555Y07539*
X04556*
X04558Y07539*
X04559Y07539*
X04561Y07539*
X04562Y0754*
X04563Y0754*
X04565Y07541*
X04566Y07541*
X04567Y07542*
X04568Y07543*
X04569Y07544*
X0457Y07545*
X04571Y07546*
X04572Y07547*
X04573Y07548*
X04573Y07549*
X04574Y0755*
X04575Y07552*
X04575Y07553*
X04575Y07554*
X04576Y07556*
X04576Y07557*
X04576Y07559*
X04007D02*
D01*
X04006Y0756*
X04006Y07561*
X04006Y07563*
X04006Y07564*
X04005Y07565*
X04005Y07567*
X04004Y07568*
X04003Y07569*
X04003Y0757*
X04002Y07571*
X04001Y07572*
X04Y07573*
X03999Y07574*
X03998Y07575*
X03997Y07576*
X03995Y07577*
X03994Y07577*
X03993Y07578*
X03991Y07578*
X0399Y07578*
X03989Y07578*
X03987Y07579*
X03986*
X03984Y07578*
X03983Y07578*
X03982Y07578*
X0398Y07578*
X03979Y07577*
X03978Y07577*
X03977Y07576*
X03975Y07575*
X03974Y07574*
X03973Y07573*
X03972Y07572*
X03971Y07571*
X0397Y0757*
X0397Y07569*
X03969Y07568*
X03968Y07567*
X03968Y07565*
X03967Y07564*
X03967Y07563*
X03967Y07561*
X03967Y0756*
X03967Y07559*
X03967Y07557*
X03967Y07556*
X03967Y07554*
X03967Y07553*
X03968Y07552*
X03968Y0755*
X03969Y07549*
X0397Y07548*
X0397Y07547*
X03971Y07546*
X03972Y07545*
X03973Y07544*
X03974Y07543*
X03975Y07542*
X03977Y07541*
X03978Y07541*
X03979Y0754*
X0398Y0754*
X03982Y07539*
X03983Y07539*
X03984Y07539*
X03986Y07539*
X03987*
X03989Y07539*
X0399Y07539*
X03991Y07539*
X03993Y0754*
X03994Y0754*
X03995Y07541*
X03997Y07541*
X03998Y07542*
X03999Y07543*
X04Y07544*
X04001Y07545*
X04002Y07546*
X04003Y07547*
X04003Y07548*
X04004Y07549*
X04005Y0755*
X04005Y07552*
X04006Y07553*
X04006Y07554*
X04006Y07556*
X04006Y07557*
X04007Y07559*
X03907D02*
D01*
X03906Y0756*
X03906Y07561*
X03906Y07563*
X03906Y07564*
X03905Y07565*
X03905Y07567*
X03904Y07568*
X03903Y07569*
X03903Y0757*
X03902Y07571*
X03901Y07572*
X039Y07573*
X03899Y07574*
X03898Y07575*
X03897Y07576*
X03895Y07577*
X03894Y07577*
X03893Y07578*
X03891Y07578*
X0389Y07578*
X03889Y07578*
X03887Y07579*
X03886*
X03884Y07578*
X03883Y07578*
X03882Y07578*
X0388Y07578*
X03879Y07577*
X03878Y07577*
X03877Y07576*
X03875Y07575*
X03874Y07574*
X03873Y07573*
X03872Y07572*
X03871Y07571*
X0387Y0757*
X0387Y07569*
X03869Y07568*
X03868Y07567*
X03868Y07565*
X03867Y07564*
X03867Y07563*
X03867Y07561*
X03867Y0756*
X03867Y07559*
X03867Y07557*
X03867Y07556*
X03867Y07554*
X03867Y07553*
X03868Y07552*
X03868Y0755*
X03869Y07549*
X0387Y07548*
X0387Y07547*
X03871Y07546*
X03872Y07545*
X03873Y07544*
X03874Y07543*
X03875Y07542*
X03877Y07541*
X03878Y07541*
X03879Y0754*
X0388Y0754*
X03882Y07539*
X03883Y07539*
X03884Y07539*
X03886Y07539*
X03887*
X03889Y07539*
X0389Y07539*
X03891Y07539*
X03893Y0754*
X03894Y0754*
X03895Y07541*
X03897Y07541*
X03898Y07542*
X03899Y07543*
X039Y07544*
X03901Y07545*
X03902Y07546*
X03903Y07547*
X03903Y07548*
X03904Y07549*
X03905Y0755*
X03905Y07552*
X03906Y07553*
X03906Y07554*
X03906Y07556*
X03906Y07557*
X03907Y07559*
X03337D02*
D01*
X03337Y0756*
X03337Y07561*
X03337Y07563*
X03336Y07564*
X03336Y07565*
X03335Y07567*
X03335Y07568*
X03334Y07569*
X03333Y0757*
X03333Y07571*
X03332Y07572*
X03331Y07573*
X0333Y07574*
X03328Y07575*
X03327Y07576*
X03326Y07577*
X03325Y07577*
X03323Y07578*
X03322Y07578*
X03321Y07578*
X03319Y07578*
X03318Y07579*
X03317*
X03315Y07578*
X03314Y07578*
X03312Y07578*
X03311Y07578*
X0331Y07577*
X03308Y07577*
X03307Y07576*
X03306Y07575*
X03305Y07574*
X03304Y07573*
X03303Y07572*
X03302Y07571*
X03301Y0757*
X033Y07569*
X033Y07568*
X03299Y07567*
X03298Y07565*
X03298Y07564*
X03298Y07563*
X03297Y07561*
X03297Y0756*
X03297Y07559*
X03297Y07557*
X03297Y07556*
X03298Y07554*
X03298Y07553*
X03298Y07552*
X03299Y0755*
X033Y07549*
X033Y07548*
X03301Y07547*
X03302Y07546*
X03303Y07545*
X03304Y07544*
X03305Y07543*
X03306Y07542*
X03307Y07541*
X03308Y07541*
X0331Y0754*
X03311Y0754*
X03312Y07539*
X03314Y07539*
X03315Y07539*
X03317Y07539*
X03318*
X03319Y07539*
X03321Y07539*
X03322Y07539*
X03323Y0754*
X03325Y0754*
X03326Y07541*
X03327Y07541*
X03328Y07542*
X0333Y07543*
X03331Y07544*
X03332Y07545*
X03333Y07546*
X03333Y07547*
X03334Y07548*
X03335Y07549*
X03335Y0755*
X03336Y07552*
X03336Y07553*
X03337Y07554*
X03337Y07556*
X03337Y07557*
X03337Y07559*
X03237D02*
D01*
X03237Y0756*
X03237Y07561*
X03237Y07563*
X03236Y07564*
X03236Y07565*
X03235Y07567*
X03235Y07568*
X03234Y07569*
X03233Y0757*
X03233Y07571*
X03232Y07572*
X03231Y07573*
X0323Y07574*
X03228Y07575*
X03227Y07576*
X03226Y07577*
X03225Y07577*
X03223Y07578*
X03222Y07578*
X03221Y07578*
X03219Y07578*
X03218Y07579*
X03217*
X03215Y07578*
X03214Y07578*
X03212Y07578*
X03211Y07578*
X0321Y07577*
X03208Y07577*
X03207Y07576*
X03206Y07575*
X03205Y07574*
X03204Y07573*
X03203Y07572*
X03202Y07571*
X03201Y0757*
X032Y07569*
X032Y07568*
X03199Y07567*
X03198Y07565*
X03198Y07564*
X03198Y07563*
X03197Y07561*
X03197Y0756*
X03197Y07559*
X03197Y07557*
X03197Y07556*
X03198Y07554*
X03198Y07553*
X03198Y07552*
X03199Y0755*
X032Y07549*
X032Y07548*
X03201Y07547*
X03202Y07546*
X03203Y07545*
X03204Y07544*
X03205Y07543*
X03206Y07542*
X03207Y07541*
X03208Y07541*
X0321Y0754*
X03211Y0754*
X03212Y07539*
X03214Y07539*
X03215Y07539*
X03217Y07539*
X03218*
X03219Y07539*
X03221Y07539*
X03222Y07539*
X03223Y0754*
X03225Y0754*
X03226Y07541*
X03227Y07541*
X03228Y07542*
X0323Y07543*
X03231Y07544*
X03232Y07545*
X03233Y07546*
X03233Y07547*
X03234Y07548*
X03235Y07549*
X03235Y0755*
X03236Y07552*
X03236Y07553*
X03237Y07554*
X03237Y07556*
X03237Y07557*
X03237Y07559*
X05975Y08444D02*
D01*
X05975Y08446*
X05975Y08447*
X05975Y08449*
X05974Y0845*
X05974Y08451*
X05973Y08453*
X05973Y08454*
X05972Y08455*
X05971Y08456*
X0597Y08457*
X05969Y08458*
X05968Y08459*
X05967Y0846*
X05966Y08461*
X05965Y08462*
X05964Y08462*
X05963Y08463*
X05961Y08463*
X0596Y08464*
X05958Y08464*
X05957Y08464*
X05956Y08464*
X05954*
X05953Y08464*
X05952Y08464*
X0595Y08464*
X05949Y08463*
X05948Y08463*
X05946Y08462*
X05945Y08462*
X05944Y08461*
X05943Y0846*
X05942Y08459*
X05941Y08458*
X0594Y08457*
X05939Y08456*
X05938Y08455*
X05937Y08454*
X05937Y08453*
X05936Y08451*
X05936Y0845*
X05935Y08449*
X05935Y08447*
X05935Y08446*
X05935Y08444*
X05935Y08443*
X05935Y08442*
X05935Y0844*
X05936Y08439*
X05936Y08438*
X05937Y08436*
X05937Y08435*
X05938Y08434*
X05939Y08433*
X0594Y08432*
X05941Y0843*
X05942Y0843*
X05943Y08429*
X05944Y08428*
X05945Y08427*
X05946Y08426*
X05948Y08426*
X05949Y08425*
X0595Y08425*
X05952Y08425*
X05953Y08424*
X05954Y08424*
X05956*
X05957Y08424*
X05958Y08425*
X0596Y08425*
X05961Y08425*
X05963Y08426*
X05964Y08426*
X05965Y08427*
X05966Y08428*
X05967Y08429*
X05968Y0843*
X05969Y0843*
X0597Y08432*
X05971Y08433*
X05972Y08434*
X05973Y08435*
X05973Y08436*
X05974Y08438*
X05974Y08439*
X05975Y0844*
X05975Y08442*
X05975Y08443*
X05975Y08444*
X05875D02*
D01*
X05875Y08446*
X05875Y08447*
X05875Y08449*
X05874Y0845*
X05874Y08451*
X05873Y08453*
X05873Y08454*
X05872Y08455*
X05871Y08456*
X0587Y08457*
X05869Y08458*
X05868Y08459*
X05867Y0846*
X05866Y08461*
X05865Y08462*
X05864Y08462*
X05863Y08463*
X05861Y08463*
X0586Y08464*
X05858Y08464*
X05857Y08464*
X05856Y08464*
X05854*
X05853Y08464*
X05852Y08464*
X0585Y08464*
X05849Y08463*
X05848Y08463*
X05846Y08462*
X05845Y08462*
X05844Y08461*
X05843Y0846*
X05842Y08459*
X05841Y08458*
X0584Y08457*
X05839Y08456*
X05838Y08455*
X05837Y08454*
X05837Y08453*
X05836Y08451*
X05836Y0845*
X05835Y08449*
X05835Y08447*
X05835Y08446*
X05835Y08444*
X05835Y08443*
X05835Y08442*
X05835Y0844*
X05836Y08439*
X05836Y08438*
X05837Y08436*
X05837Y08435*
X05838Y08434*
X05839Y08433*
X0584Y08432*
X05841Y0843*
X05842Y0843*
X05843Y08429*
X05844Y08428*
X05845Y08427*
X05846Y08426*
X05848Y08426*
X05849Y08425*
X0585Y08425*
X05852Y08425*
X05853Y08424*
X05854Y08424*
X05856*
X05857Y08424*
X05858Y08425*
X0586Y08425*
X05861Y08425*
X05863Y08426*
X05864Y08426*
X05865Y08427*
X05866Y08428*
X05867Y08429*
X05868Y0843*
X05869Y0843*
X0587Y08432*
X05871Y08433*
X05872Y08434*
X05873Y08435*
X05873Y08436*
X05874Y08438*
X05874Y08439*
X05875Y0844*
X05875Y08442*
X05875Y08443*
X05875Y08444*
X04676D02*
D01*
X04676Y08446*
X04676Y08447*
X04675Y08449*
X04675Y0845*
X04675Y08451*
X04674Y08453*
X04673Y08454*
X04673Y08455*
X04672Y08456*
X04671Y08457*
X0467Y08458*
X04669Y08459*
X04668Y0846*
X04667Y08461*
X04666Y08462*
X04665Y08462*
X04663Y08463*
X04662Y08463*
X04661Y08464*
X04659Y08464*
X04658Y08464*
X04656Y08464*
X04655*
X04654Y08464*
X04652Y08464*
X04651Y08464*
X0465Y08463*
X04648Y08463*
X04647Y08462*
X04646Y08462*
X04645Y08461*
X04643Y0846*
X04642Y08459*
X04641Y08458*
X0464Y08457*
X0464Y08456*
X04639Y08455*
X04638Y08454*
X04638Y08453*
X04637Y08451*
X04637Y0845*
X04636Y08449*
X04636Y08447*
X04636Y08446*
X04636Y08444*
X04636Y08443*
X04636Y08442*
X04636Y0844*
X04637Y08439*
X04637Y08438*
X04638Y08436*
X04638Y08435*
X04639Y08434*
X0464Y08433*
X0464Y08432*
X04641Y0843*
X04642Y0843*
X04643Y08429*
X04645Y08428*
X04646Y08427*
X04647Y08426*
X04648Y08426*
X0465Y08425*
X04651Y08425*
X04652Y08425*
X04654Y08424*
X04655Y08424*
X04656*
X04658Y08424*
X04659Y08425*
X04661Y08425*
X04662Y08425*
X04663Y08426*
X04665Y08426*
X04666Y08427*
X04667Y08428*
X04668Y08429*
X04669Y0843*
X0467Y0843*
X04671Y08432*
X04672Y08433*
X04673Y08434*
X04673Y08435*
X04674Y08436*
X04675Y08438*
X04675Y08439*
X04675Y0844*
X04676Y08442*
X04676Y08443*
X04676Y08444*
X04576D02*
D01*
X04576Y08446*
X04576Y08447*
X04575Y08449*
X04575Y0845*
X04575Y08451*
X04574Y08453*
X04573Y08454*
X04573Y08455*
X04572Y08456*
X04571Y08457*
X0457Y08458*
X04569Y08459*
X04568Y0846*
X04567Y08461*
X04566Y08462*
X04565Y08462*
X04563Y08463*
X04562Y08463*
X04561Y08464*
X04559Y08464*
X04558Y08464*
X04556Y08464*
X04555*
X04554Y08464*
X04552Y08464*
X04551Y08464*
X0455Y08463*
X04548Y08463*
X04547Y08462*
X04546Y08462*
X04545Y08461*
X04543Y0846*
X04542Y08459*
X04541Y08458*
X0454Y08457*
X0454Y08456*
X04539Y08455*
X04538Y08454*
X04538Y08453*
X04537Y08451*
X04537Y0845*
X04536Y08449*
X04536Y08447*
X04536Y08446*
X04536Y08444*
X04536Y08443*
X04536Y08442*
X04536Y0844*
X04537Y08439*
X04537Y08438*
X04538Y08436*
X04538Y08435*
X04539Y08434*
X0454Y08433*
X0454Y08432*
X04541Y0843*
X04542Y0843*
X04543Y08429*
X04545Y08428*
X04546Y08427*
X04547Y08426*
X04548Y08426*
X0455Y08425*
X04551Y08425*
X04552Y08425*
X04554Y08424*
X04555Y08424*
X04556*
X04558Y08424*
X04559Y08425*
X04561Y08425*
X04562Y08425*
X04563Y08426*
X04565Y08426*
X04566Y08427*
X04567Y08428*
X04568Y08429*
X04569Y0843*
X0457Y0843*
X04571Y08432*
X04572Y08433*
X04573Y08434*
X04573Y08435*
X04574Y08436*
X04575Y08438*
X04575Y08439*
X04575Y0844*
X04576Y08442*
X04576Y08443*
X04576Y08444*
X04007D02*
D01*
X04006Y08446*
X04006Y08447*
X04006Y08449*
X04006Y0845*
X04005Y08451*
X04005Y08453*
X04004Y08454*
X04003Y08455*
X04003Y08456*
X04002Y08457*
X04001Y08458*
X04Y08459*
X03999Y0846*
X03998Y08461*
X03997Y08462*
X03995Y08462*
X03994Y08463*
X03993Y08463*
X03991Y08464*
X0399Y08464*
X03989Y08464*
X03987Y08464*
X03986*
X03984Y08464*
X03983Y08464*
X03982Y08464*
X0398Y08463*
X03979Y08463*
X03978Y08462*
X03977Y08462*
X03975Y08461*
X03974Y0846*
X03973Y08459*
X03972Y08458*
X03971Y08457*
X0397Y08456*
X0397Y08455*
X03969Y08454*
X03968Y08453*
X03968Y08451*
X03967Y0845*
X03967Y08449*
X03967Y08447*
X03967Y08446*
X03967Y08444*
X03967Y08443*
X03967Y08442*
X03967Y0844*
X03967Y08439*
X03968Y08438*
X03968Y08436*
X03969Y08435*
X0397Y08434*
X0397Y08433*
X03971Y08432*
X03972Y0843*
X03973Y0843*
X03974Y08429*
X03975Y08428*
X03977Y08427*
X03978Y08426*
X03979Y08426*
X0398Y08425*
X03982Y08425*
X03983Y08425*
X03984Y08424*
X03986Y08424*
X03987*
X03989Y08424*
X0399Y08425*
X03991Y08425*
X03993Y08425*
X03994Y08426*
X03995Y08426*
X03997Y08427*
X03998Y08428*
X03999Y08429*
X04Y0843*
X04001Y0843*
X04002Y08432*
X04003Y08433*
X04003Y08434*
X04004Y08435*
X04005Y08436*
X04005Y08438*
X04006Y08439*
X04006Y0844*
X04006Y08442*
X04006Y08443*
X04007Y08444*
X03907D02*
D01*
X03906Y08446*
X03906Y08447*
X03906Y08449*
X03906Y0845*
X03905Y08451*
X03905Y08453*
X03904Y08454*
X03903Y08455*
X03903Y08456*
X03902Y08457*
X03901Y08458*
X039Y08459*
X03899Y0846*
X03898Y08461*
X03897Y08462*
X03895Y08462*
X03894Y08463*
X03893Y08463*
X03891Y08464*
X0389Y08464*
X03889Y08464*
X03887Y08464*
X03886*
X03884Y08464*
X03883Y08464*
X03882Y08464*
X0388Y08463*
X03879Y08463*
X03878Y08462*
X03877Y08462*
X03875Y08461*
X03874Y0846*
X03873Y08459*
X03872Y08458*
X03871Y08457*
X0387Y08456*
X0387Y08455*
X03869Y08454*
X03868Y08453*
X03868Y08451*
X03867Y0845*
X03867Y08449*
X03867Y08447*
X03867Y08446*
X03867Y08444*
X03867Y08443*
X03867Y08442*
X03867Y0844*
X03867Y08439*
X03868Y08438*
X03868Y08436*
X03869Y08435*
X0387Y08434*
X0387Y08433*
X03871Y08432*
X03872Y0843*
X03873Y0843*
X03874Y08429*
X03875Y08428*
X03877Y08427*
X03878Y08426*
X03879Y08426*
X0388Y08425*
X03882Y08425*
X03883Y08425*
X03884Y08424*
X03886Y08424*
X03887*
X03889Y08424*
X0389Y08425*
X03891Y08425*
X03893Y08425*
X03894Y08426*
X03895Y08426*
X03897Y08427*
X03898Y08428*
X03899Y08429*
X039Y0843*
X03901Y0843*
X03902Y08432*
X03903Y08433*
X03903Y08434*
X03904Y08435*
X03905Y08436*
X03905Y08438*
X03906Y08439*
X03906Y0844*
X03906Y08442*
X03906Y08443*
X03907Y08444*
X03337D02*
D01*
X03337Y08446*
X03337Y08447*
X03337Y08449*
X03336Y0845*
X03336Y08451*
X03335Y08453*
X03335Y08454*
X03334Y08455*
X03333Y08456*
X03333Y08457*
X03332Y08458*
X03331Y08459*
X0333Y0846*
X03328Y08461*
X03327Y08462*
X03326Y08462*
X03325Y08463*
X03323Y08463*
X03322Y08464*
X03321Y08464*
X03319Y08464*
X03318Y08464*
X03317*
X03315Y08464*
X03314Y08464*
X03312Y08464*
X03311Y08463*
X0331Y08463*
X03308Y08462*
X03307Y08462*
X03306Y08461*
X03305Y0846*
X03304Y08459*
X03303Y08458*
X03302Y08457*
X03301Y08456*
X033Y08455*
X033Y08454*
X03299Y08453*
X03298Y08451*
X03298Y0845*
X03298Y08449*
X03297Y08447*
X03297Y08446*
X03297Y08444*
X03297Y08443*
X03297Y08442*
X03298Y0844*
X03298Y08439*
X03298Y08438*
X03299Y08436*
X033Y08435*
X033Y08434*
X03301Y08433*
X03302Y08432*
X03303Y0843*
X03304Y0843*
X03305Y08429*
X03306Y08428*
X03307Y08427*
X03308Y08426*
X0331Y08426*
X03311Y08425*
X03312Y08425*
X03314Y08425*
X03315Y08424*
X03317Y08424*
X03318*
X03319Y08424*
X03321Y08425*
X03322Y08425*
X03323Y08425*
X03325Y08426*
X03326Y08426*
X03327Y08427*
X03328Y08428*
X0333Y08429*
X03331Y0843*
X03332Y0843*
X03333Y08432*
X03333Y08433*
X03334Y08434*
X03335Y08435*
X03335Y08436*
X03336Y08438*
X03336Y08439*
X03337Y0844*
X03337Y08442*
X03337Y08443*
X03337Y08444*
X03237D02*
D01*
X03237Y08446*
X03237Y08447*
X03237Y08449*
X03236Y0845*
X03236Y08451*
X03235Y08453*
X03235Y08454*
X03234Y08455*
X03233Y08456*
X03233Y08457*
X03232Y08458*
X03231Y08459*
X0323Y0846*
X03228Y08461*
X03227Y08462*
X03226Y08462*
X03225Y08463*
X03223Y08463*
X03222Y08464*
X03221Y08464*
X03219Y08464*
X03218Y08464*
X03217*
X03215Y08464*
X03214Y08464*
X03212Y08464*
X03211Y08463*
X0321Y08463*
X03208Y08462*
X03207Y08462*
X03206Y08461*
X03205Y0846*
X03204Y08459*
X03203Y08458*
X03202Y08457*
X03201Y08456*
X032Y08455*
X032Y08454*
X03199Y08453*
X03198Y08451*
X03198Y0845*
X03198Y08449*
X03197Y08447*
X03197Y08446*
X03197Y08444*
X03197Y08443*
X03197Y08442*
X03198Y0844*
X03198Y08439*
X03198Y08438*
X03199Y08436*
X032Y08435*
X032Y08434*
X03201Y08433*
X03202Y08432*
X03203Y0843*
X03204Y0843*
X03205Y08429*
X03206Y08428*
X03207Y08427*
X03208Y08426*
X0321Y08426*
X03211Y08425*
X03212Y08425*
X03214Y08425*
X03215Y08424*
X03217Y08424*
X03218*
X03219Y08424*
X03221Y08425*
X03222Y08425*
X03223Y08425*
X03225Y08426*
X03226Y08426*
X03227Y08427*
X03228Y08428*
X0323Y08429*
X03231Y0843*
X03232Y0843*
X03233Y08432*
X03233Y08433*
X03234Y08434*
X03235Y08435*
X03235Y08436*
X03236Y08438*
X03236Y08439*
X03237Y0844*
X03237Y08442*
X03237Y08443*
X03237Y08444*
X01909Y03198D02*
D01*
X01909Y032*
X01909Y03201*
X01909Y03202*
X01908Y03204*
X01908Y03205*
X01908Y03206*
X01907Y03208*
X01906Y03209*
X01905Y0321*
X01905Y03211*
X01904Y03212*
X01903Y03213*
X01902Y03214*
X019Y03215*
X01899Y03216*
X01898Y03216*
X01897Y03217*
X01895Y03217*
X01894Y03218*
X01893Y03218*
X01891Y03218*
X0189Y03218*
X01889*
X01887Y03218*
X01886Y03218*
X01884Y03218*
X01883Y03217*
X01882Y03217*
X0188Y03216*
X01879Y03216*
X01878Y03215*
X01877Y03214*
X01876Y03213*
X01875Y03212*
X01874Y03211*
X01873Y0321*
X01872Y03209*
X01872Y03208*
X01871Y03206*
X0187Y03205*
X0187Y03204*
X0187Y03202*
X01869Y03201*
X01869Y032*
X01869Y03198*
X01869Y03197*
X01869Y03196*
X0187Y03194*
X0187Y03193*
X0187Y03191*
X01871Y0319*
X01872Y03189*
X01872Y03188*
X01873Y03187*
X01874Y03185*
X01875Y03184*
X01876Y03183*
X01877Y03183*
X01878Y03182*
X01879Y03181*
X0188Y0318*
X01882Y0318*
X01883Y03179*
X01884Y03179*
X01886Y03179*
X01887Y03178*
X01889Y03178*
X0189*
X01891Y03178*
X01893Y03179*
X01894Y03179*
X01895Y03179*
X01897Y0318*
X01898Y0318*
X01899Y03181*
X019Y03182*
X01902Y03183*
X01903Y03183*
X01904Y03184*
X01905Y03185*
X01905Y03187*
X01906Y03188*
X01907Y03189*
X01908Y0319*
X01908Y03191*
X01908Y03193*
X01909Y03194*
X01909Y03196*
X01909Y03197*
X01909Y03198*
X01594D02*
D01*
X01594Y032*
X01594Y03201*
X01594Y03202*
X01594Y03204*
X01593Y03205*
X01593Y03206*
X01592Y03208*
X01591Y03209*
X0159Y0321*
X0159Y03211*
X01589Y03212*
X01588Y03213*
X01587Y03214*
X01585Y03215*
X01584Y03216*
X01583Y03216*
X01582Y03217*
X0158Y03217*
X01579Y03218*
X01578Y03218*
X01576Y03218*
X01575Y03218*
X01574*
X01572Y03218*
X01571Y03218*
X01569Y03218*
X01568Y03217*
X01567Y03217*
X01566Y03216*
X01564Y03216*
X01563Y03215*
X01562Y03214*
X01561Y03213*
X0156Y03212*
X01559Y03211*
X01558Y0321*
X01557Y03209*
X01557Y03208*
X01556Y03206*
X01556Y03205*
X01555Y03204*
X01555Y03202*
X01554Y03201*
X01554Y032*
X01554Y03198*
X01554Y03197*
X01554Y03196*
X01555Y03194*
X01555Y03193*
X01556Y03191*
X01556Y0319*
X01557Y03189*
X01557Y03188*
X01558Y03187*
X01559Y03185*
X0156Y03184*
X01561Y03183*
X01562Y03183*
X01563Y03182*
X01564Y03181*
X01566Y0318*
X01567Y0318*
X01568Y03179*
X01569Y03179*
X01571Y03179*
X01572Y03178*
X01574Y03178*
X01575*
X01576Y03178*
X01578Y03179*
X01579Y03179*
X0158Y03179*
X01582Y0318*
X01583Y0318*
X01584Y03181*
X01585Y03182*
X01587Y03183*
X01588Y03183*
X01589Y03184*
X0159Y03185*
X0159Y03187*
X01591Y03188*
X01592Y03189*
X01593Y0319*
X01593Y03191*
X01594Y03193*
X01594Y03194*
X01594Y03196*
X01594Y03197*
X01594Y03198*
X01909Y03986D02*
D01*
X01909Y03987*
X01909Y03989*
X01909Y0399*
X01908Y03991*
X01908Y03993*
X01908Y03994*
X01907Y03995*
X01906Y03996*
X01905Y03997*
X01905Y03999*
X01904Y04*
X01903Y04001*
X01902Y04001*
X019Y04002*
X01899Y04003*
X01898Y04004*
X01897Y04004*
X01895Y04005*
X01894Y04005*
X01893Y04005*
X01891Y04006*
X0189Y04006*
X01889*
X01887Y04006*
X01886Y04005*
X01884Y04005*
X01883Y04005*
X01882Y04004*
X0188Y04004*
X01879Y04003*
X01878Y04002*
X01877Y04001*
X01876Y04001*
X01875Y04*
X01874Y03999*
X01873Y03997*
X01872Y03996*
X01872Y03995*
X01871Y03994*
X0187Y03993*
X0187Y03991*
X0187Y0399*
X01869Y03989*
X01869Y03987*
X01869Y03986*
X01869Y03984*
X01869Y03983*
X0187Y03982*
X0187Y0398*
X0187Y03979*
X01871Y03978*
X01872Y03976*
X01872Y03975*
X01873Y03974*
X01874Y03973*
X01875Y03972*
X01876Y03971*
X01877Y0397*
X01878Y03969*
X01879Y03968*
X0188Y03968*
X01882Y03967*
X01883Y03967*
X01884Y03966*
X01886Y03966*
X01887Y03966*
X01889Y03966*
X0189*
X01891Y03966*
X01893Y03966*
X01894Y03966*
X01895Y03967*
X01897Y03967*
X01898Y03968*
X01899Y03968*
X019Y03969*
X01902Y0397*
X01903Y03971*
X01904Y03972*
X01905Y03973*
X01905Y03974*
X01906Y03975*
X01907Y03976*
X01908Y03978*
X01908Y03979*
X01908Y0398*
X01909Y03982*
X01909Y03983*
X01909Y03984*
X01909Y03986*
X01594D02*
D01*
X01594Y03987*
X01594Y03989*
X01594Y0399*
X01594Y03991*
X01593Y03993*
X01593Y03994*
X01592Y03995*
X01591Y03996*
X0159Y03997*
X0159Y03999*
X01589Y04*
X01588Y04001*
X01587Y04001*
X01585Y04002*
X01584Y04003*
X01583Y04004*
X01582Y04004*
X0158Y04005*
X01579Y04005*
X01578Y04005*
X01576Y04006*
X01575Y04006*
X01574*
X01572Y04006*
X01571Y04005*
X01569Y04005*
X01568Y04005*
X01567Y04004*
X01566Y04004*
X01564Y04003*
X01563Y04002*
X01562Y04001*
X01561Y04001*
X0156Y04*
X01559Y03999*
X01558Y03997*
X01557Y03996*
X01557Y03995*
X01556Y03994*
X01556Y03993*
X01555Y03991*
X01555Y0399*
X01554Y03989*
X01554Y03987*
X01554Y03986*
X01554Y03984*
X01554Y03983*
X01555Y03982*
X01555Y0398*
X01556Y03979*
X01556Y03978*
X01557Y03976*
X01557Y03975*
X01558Y03974*
X01559Y03973*
X0156Y03972*
X01561Y03971*
X01562Y0397*
X01563Y03969*
X01564Y03968*
X01566Y03968*
X01567Y03967*
X01568Y03967*
X01569Y03966*
X01571Y03966*
X01572Y03966*
X01574Y03966*
X01575*
X01576Y03966*
X01578Y03966*
X01579Y03966*
X0158Y03967*
X01582Y03967*
X01583Y03968*
X01584Y03968*
X01585Y03969*
X01587Y0397*
X01588Y03971*
X01589Y03972*
X0159Y03973*
X0159Y03974*
X01591Y03975*
X01592Y03976*
X01593Y03978*
X01593Y03979*
X01594Y0398*
X01594Y03982*
X01594Y03983*
X01594Y03984*
X01594Y03986*
X02913Y05157D02*
D01*
X02913Y05158*
X02913Y0516*
X02913Y05161*
X02912Y05162*
X02912Y05164*
X02911Y05165*
X02911Y05166*
X0291Y05168*
X02909Y05169*
X02909Y0517*
X02908Y05171*
X02907Y05172*
X02906Y05173*
X02904Y05174*
X02903Y05174*
X02902Y05175*
X02901Y05176*
X02899Y05176*
X02898Y05176*
X02897Y05177*
X02895Y05177*
X02894Y05177*
X02893*
X02891Y05177*
X0289Y05177*
X02888Y05176*
X02887Y05176*
X02886Y05176*
X02884Y05175*
X02883Y05174*
X02882Y05174*
X02881Y05173*
X0288Y05172*
X02879Y05171*
X02878Y0517*
X02877Y05169*
X02876Y05168*
X02876Y05166*
X02875Y05165*
X02874Y05164*
X02874Y05162*
X02874Y05161*
X02873Y0516*
X02873Y05158*
X02873Y05157*
X02873Y05156*
X02873Y05154*
X02874Y05153*
X02874Y05151*
X02874Y0515*
X02875Y05149*
X02876Y05148*
X02876Y05146*
X02877Y05145*
X02878Y05144*
X02879Y05143*
X0288Y05142*
X02881Y05141*
X02882Y0514*
X02883Y0514*
X02884Y05139*
X02886Y05138*
X02887Y05138*
X02888Y05138*
X0289Y05137*
X02891Y05137*
X02893Y05137*
X02894*
X02895Y05137*
X02897Y05137*
X02898Y05138*
X02899Y05138*
X02901Y05138*
X02902Y05139*
X02903Y0514*
X02904Y0514*
X02906Y05141*
X02907Y05142*
X02908Y05143*
X02909Y05144*
X02909Y05145*
X0291Y05146*
X02911Y05148*
X02911Y05149*
X02912Y0515*
X02912Y05151*
X02913Y05153*
X02913Y05154*
X02913Y05156*
X02913Y05157*
G54D76*
X02905Y05157D02*
D01*
X02905Y05158*
X02905Y05159*
X02905Y05159*
X02905Y0516*
X02904Y05161*
X02904Y05162*
X02904Y05163*
X02903Y05163*
X02903Y05164*
X02902Y05165*
X02902Y05165*
X02901Y05166*
X02901Y05166*
X029Y05167*
X02899Y05167*
X02898Y05168*
X02898Y05168*
X02897Y05168*
X02896Y05169*
X02895Y05169*
X02894Y05169*
X02894Y05169*
X02893*
X02892Y05169*
X02891Y05169*
X0289Y05169*
X02889Y05168*
X02889Y05168*
X02888Y05168*
X02887Y05167*
X02886Y05167*
X02886Y05166*
X02885Y05166*
X02885Y05165*
X02884Y05165*
X02883Y05164*
X02883Y05163*
X02883Y05163*
X02882Y05162*
X02882Y05161*
X02882Y0516*
X02881Y05159*
X02881Y05159*
X02881Y05158*
X02881Y05157*
X02881Y05156*
X02881Y05155*
X02881Y05154*
X02882Y05154*
X02882Y05153*
X02882Y05152*
X02883Y05151*
X02883Y05151*
X02883Y0515*
X02884Y05149*
X02885Y05149*
X02885Y05148*
X02886Y05148*
X02886Y05147*
X02887Y05147*
X02888Y05146*
X02889Y05146*
X02889Y05146*
X0289Y05145*
X02891Y05145*
X02892Y05145*
X02893Y05145*
X02894*
X02894Y05145*
X02895Y05145*
X02896Y05145*
X02897Y05146*
X02898Y05146*
X02898Y05146*
X02899Y05147*
X029Y05147*
X02901Y05148*
X02901Y05148*
X02902Y05149*
X02902Y05149*
X02903Y0515*
X02903Y05151*
X02904Y05151*
X02904Y05152*
X02904Y05153*
X02905Y05154*
X02905Y05154*
X02905Y05155*
X02905Y05156*
X02905Y05157*
M02*