%FSTAX23Y23*%
%MOIN*%
%SFA1B1*%

%IPPOS*%
%ADD50C,0.003937*%
%ADD51C,0.001969*%
%LNkeyboardmain_mechanical_15-1*%
%LPD*%
G54D50*
X02322Y00649D02*
Y00688D01*
X02303Y00669D02*
X02342D01*
X02834Y04783D02*
Y04822D01*
X02814Y04803D02*
X02854D01*
X02834Y06161D02*
Y062D01*
X02814Y06181D02*
X02854D01*
X02834Y07145D02*
Y07185D01*
X02814Y07165D02*
X02854D01*
X02834Y08011D02*
Y08051D01*
X02814Y08031D02*
X02854D01*
G54D51*
X0023Y0307D02*
D01*
X0023Y03071*
X0023Y03072*
X0023Y03073*
X00229Y03074*
X00229Y03075*
X00229Y03076*
X00228Y03077*
X00228Y03078*
X00227Y03078*
X00227Y03079*
X00226Y0308*
X00225Y03081*
X00225Y03081*
X00224Y03082*
X00223Y03082*
X00222Y03083*
X00221Y03083*
X0022Y03083*
X00219Y03084*
X00218Y03084*
X00217Y03084*
X00217Y03084*
X00216*
X00215Y03084*
X00214Y03084*
X00213Y03084*
X00212Y03083*
X00211Y03083*
X0021Y03083*
X00209Y03082*
X00208Y03082*
X00208Y03081*
X00207Y03081*
X00206Y0308*
X00205Y03079*
X00205Y03078*
X00204Y03078*
X00204Y03077*
X00203Y03076*
X00203Y03075*
X00203Y03074*
X00203Y03073*
X00202Y03072*
X00202Y03071*
X00202Y0307*
X00202Y03069*
X00202Y03068*
X00203Y03068*
X00203Y03067*
X00203Y03066*
X00203Y03065*
X00204Y03064*
X00204Y03063*
X00205Y03062*
X00205Y03062*
X00206Y03061*
X00207Y0306*
X00208Y0306*
X00208Y03059*
X00209Y03058*
X0021Y03058*
X00211Y03058*
X00212Y03057*
X00213Y03057*
X00214Y03057*
X00215Y03057*
X00216Y03057*
X00217*
X00217Y03057*
X00218Y03057*
X00219Y03057*
X0022Y03057*
X00221Y03058*
X00222Y03058*
X00223Y03058*
X00224Y03059*
X00225Y0306*
X00225Y0306*
X00226Y03061*
X00227Y03062*
X00227Y03062*
X00228Y03063*
X00228Y03064*
X00229Y03065*
X00229Y03066*
X00229Y03067*
X0023Y03068*
X0023Y03068*
X0023Y03069*
X0023Y0307*
X00624Y02539D02*
D01*
X00623Y0254*
X00623Y02541*
X00623Y02542*
X00623Y02543*
X00623Y02544*
X00622Y02544*
X00622Y02545*
X00621Y02546*
X00621Y02547*
X0062Y02548*
X0062Y02548*
X00619Y02549*
X00618Y0255*
X00617Y0255*
X00617Y02551*
X00616Y02551*
X00615Y02552*
X00614Y02552*
X00613Y02552*
X00612Y02552*
X00611Y02553*
X0061Y02553*
X00609*
X00608Y02553*
X00607Y02552*
X00606Y02552*
X00605Y02552*
X00605Y02552*
X00604Y02551*
X00603Y02551*
X00602Y0255*
X00601Y0255*
X00601Y02549*
X006Y02548*
X00599Y02548*
X00599Y02547*
X00598Y02546*
X00598Y02545*
X00597Y02544*
X00597Y02544*
X00596Y02543*
X00596Y02542*
X00596Y02541*
X00596Y0254*
X00596Y02539*
X00596Y02538*
X00596Y02537*
X00596Y02536*
X00596Y02535*
X00597Y02534*
X00597Y02533*
X00598Y02532*
X00598Y02532*
X00599Y02531*
X00599Y0253*
X006Y02529*
X00601Y02529*
X00601Y02528*
X00602Y02527*
X00603Y02527*
X00604Y02526*
X00605Y02526*
X00605Y02526*
X00606Y02525*
X00607Y02525*
X00608Y02525*
X00609Y02525*
X0061*
X00611Y02525*
X00612Y02525*
X00613Y02525*
X00614Y02526*
X00615Y02526*
X00616Y02526*
X00617Y02527*
X00617Y02527*
X00618Y02528*
X00619Y02529*
X0062Y02529*
X0062Y0253*
X00621Y02531*
X00621Y02532*
X00622Y02532*
X00622Y02533*
X00623Y02534*
X00623Y02535*
X00623Y02536*
X00623Y02537*
X00623Y02538*
X00624Y02539*
X05446Y01771D02*
D01*
X05446Y01772*
X05446Y01773*
X05446Y01774*
X05446Y01775*
X05446Y01776*
X05445Y01777*
X05445Y01778*
X05444Y01778*
X05444Y01779*
X05443Y0178*
X05442Y01781*
X05442Y01781*
X05441Y01782*
X0544Y01783*
X05439Y01783*
X05439Y01784*
X05438Y01784*
X05437Y01784*
X05436Y01785*
X05435Y01785*
X05434Y01785*
X05433Y01785*
X05432*
X05431Y01785*
X0543Y01785*
X05429Y01785*
X05428Y01784*
X05427Y01784*
X05427Y01784*
X05426Y01783*
X05425Y01783*
X05424Y01782*
X05423Y01781*
X05423Y01781*
X05422Y0178*
X05421Y01779*
X05421Y01778*
X0542Y01778*
X0542Y01777*
X0542Y01776*
X05419Y01775*
X05419Y01774*
X05419Y01773*
X05419Y01772*
X05419Y01771*
X05419Y0177*
X05419Y01769*
X05419Y01768*
X05419Y01767*
X0542Y01766*
X0542Y01766*
X0542Y01765*
X05421Y01764*
X05421Y01763*
X05422Y01762*
X05423Y01762*
X05423Y01761*
X05424Y0176*
X05425Y0176*
X05426Y01759*
X05427Y01759*
X05427Y01758*
X05428Y01758*
X05429Y01758*
X0543Y01758*
X05431Y01757*
X05432Y01757*
X05433*
X05434Y01757*
X05435Y01758*
X05436Y01758*
X05437Y01758*
X05438Y01758*
X05439Y01759*
X05439Y01759*
X0544Y0176*
X05441Y0176*
X05442Y01761*
X05442Y01762*
X05443Y01762*
X05444Y01763*
X05444Y01764*
X05445Y01765*
X05445Y01766*
X05446Y01766*
X05446Y01767*
X05446Y01768*
X05446Y01769*
X05446Y0177*
X05446Y01771*
X04771Y01773D02*
D01*
X04771Y01774*
X04771Y01775*
X04771Y01776*
X04771Y01777*
X0477Y01778*
X0477Y01779*
X0477Y0178*
X04769Y0178*
X04769Y01781*
X04768Y01782*
X04767Y01783*
X04767Y01783*
X04766Y01784*
X04765Y01785*
X04764Y01785*
X04763Y01786*
X04763Y01786*
X04762Y01786*
X04761Y01786*
X0476Y01787*
X04759Y01787*
X04758Y01787*
X04757*
X04756Y01787*
X04755Y01787*
X04754Y01786*
X04753Y01786*
X04752Y01786*
X04751Y01786*
X0475Y01785*
X0475Y01785*
X04749Y01784*
X04748Y01783*
X04747Y01783*
X04747Y01782*
X04746Y01781*
X04746Y0178*
X04745Y0178*
X04745Y01779*
X04744Y01778*
X04744Y01777*
X04744Y01776*
X04744Y01775*
X04744Y01774*
X04744Y01773*
X04744Y01772*
X04744Y01771*
X04744Y0177*
X04744Y01769*
X04744Y01768*
X04745Y01768*
X04745Y01767*
X04746Y01766*
X04746Y01765*
X04747Y01764*
X04747Y01764*
X04748Y01763*
X04749Y01762*
X0475Y01762*
X0475Y01761*
X04751Y01761*
X04752Y0176*
X04753Y0176*
X04754Y0176*
X04755Y0176*
X04756Y01759*
X04757Y01759*
X04758*
X04759Y01759*
X0476Y0176*
X04761Y0176*
X04762Y0176*
X04763Y0176*
X04763Y01761*
X04764Y01761*
X04765Y01762*
X04766Y01762*
X04767Y01763*
X04767Y01764*
X04768Y01764*
X04769Y01765*
X04769Y01766*
X0477Y01767*
X0477Y01768*
X0477Y01768*
X04771Y01769*
X04771Y0177*
X04771Y01771*
X04771Y01772*
X04771Y01773*
X04102D02*
D01*
X04102Y01774*
X04102Y01775*
X04102Y01776*
X04101Y01777*
X04101Y01778*
X04101Y01779*
X041Y0178*
X041Y0178*
X04099Y01781*
X04099Y01782*
X04098Y01783*
X04097Y01783*
X04097Y01784*
X04096Y01785*
X04095Y01785*
X04094Y01786*
X04093Y01786*
X04092Y01786*
X04091Y01786*
X0409Y01787*
X0409Y01787*
X04089Y01787*
X04088*
X04087Y01787*
X04086Y01787*
X04085Y01786*
X04084Y01786*
X04083Y01786*
X04082Y01786*
X04081Y01785*
X0408Y01785*
X0408Y01784*
X04079Y01783*
X04078Y01783*
X04078Y01782*
X04077Y01781*
X04076Y0178*
X04076Y0178*
X04075Y01779*
X04075Y01778*
X04075Y01777*
X04075Y01776*
X04074Y01775*
X04074Y01774*
X04074Y01773*
X04074Y01772*
X04074Y01771*
X04075Y0177*
X04075Y01769*
X04075Y01768*
X04075Y01768*
X04076Y01767*
X04076Y01766*
X04077Y01765*
X04078Y01764*
X04078Y01764*
X04079Y01763*
X0408Y01762*
X0408Y01762*
X04081Y01761*
X04082Y01761*
X04083Y0176*
X04084Y0176*
X04085Y0176*
X04086Y0176*
X04087Y01759*
X04088Y01759*
X04089*
X0409Y01759*
X0409Y0176*
X04091Y0176*
X04092Y0176*
X04093Y0176*
X04094Y01761*
X04095Y01761*
X04096Y01762*
X04097Y01762*
X04097Y01763*
X04098Y01764*
X04099Y01764*
X04099Y01765*
X041Y01766*
X041Y01767*
X04101Y01768*
X04101Y01768*
X04101Y01769*
X04102Y0177*
X04102Y01771*
X04102Y01772*
X04102Y01773*
X03438Y01771D02*
D01*
X03438Y01772*
X03438Y01773*
X03438Y01774*
X03438Y01775*
X03438Y01776*
X03437Y01777*
X03437Y01778*
X03436Y01778*
X03436Y01779*
X03435Y0178*
X03435Y01781*
X03434Y01781*
X03433Y01782*
X03432Y01783*
X03432Y01783*
X03431Y01784*
X0343Y01784*
X03429Y01784*
X03428Y01785*
X03427Y01785*
X03426Y01785*
X03425Y01785*
X03424*
X03423Y01785*
X03422Y01785*
X03421Y01785*
X0342Y01784*
X0342Y01784*
X03419Y01784*
X03418Y01783*
X03417Y01783*
X03416Y01782*
X03415Y01781*
X03415Y01781*
X03414Y0178*
X03414Y01779*
X03413Y01778*
X03413Y01778*
X03412Y01777*
X03412Y01776*
X03411Y01775*
X03411Y01774*
X03411Y01773*
X03411Y01772*
X03411Y01771*
X03411Y0177*
X03411Y01769*
X03411Y01768*
X03411Y01767*
X03412Y01766*
X03412Y01766*
X03413Y01765*
X03413Y01764*
X03414Y01763*
X03414Y01762*
X03415Y01762*
X03415Y01761*
X03416Y0176*
X03417Y0176*
X03418Y01759*
X03419Y01759*
X0342Y01758*
X0342Y01758*
X03421Y01758*
X03422Y01758*
X03423Y01757*
X03424Y01757*
X03425*
X03426Y01757*
X03427Y01758*
X03428Y01758*
X03429Y01758*
X0343Y01758*
X03431Y01759*
X03432Y01759*
X03432Y0176*
X03433Y0176*
X03434Y01761*
X03435Y01762*
X03435Y01762*
X03436Y01763*
X03436Y01764*
X03437Y01765*
X03437Y01766*
X03438Y01766*
X03438Y01767*
X03438Y01768*
X03438Y01769*
X03438Y0177*
X03438Y01771*
X02139Y01181D02*
D01*
X02139Y01182*
X02139Y01183*
X02139Y01183*
X02139Y01184*
X02138Y01185*
X02138Y01186*
X02138Y01187*
X02137Y01188*
X02137Y01189*
X02136Y01189*
X02135Y0119*
X02135Y01191*
X02134Y01191*
X02133Y01192*
X02132Y01193*
X02132Y01193*
X02131Y01193*
X0213Y01194*
X02129Y01194*
X02128Y01194*
X02127Y01194*
X02126Y01194*
X02125*
X02124Y01194*
X02123Y01194*
X02122Y01194*
X02121Y01194*
X0212Y01193*
X02119Y01193*
X02119Y01193*
X02118Y01192*
X02117Y01191*
X02116Y01191*
X02116Y0119*
X02115Y01189*
X02114Y01189*
X02114Y01188*
X02113Y01187*
X02113Y01186*
X02113Y01185*
X02112Y01184*
X02112Y01183*
X02112Y01183*
X02112Y01182*
X02112Y01181*
X02112Y0118*
X02112Y01179*
X02112Y01178*
X02112Y01177*
X02113Y01176*
X02113Y01175*
X02113Y01174*
X02114Y01173*
X02114Y01173*
X02115Y01172*
X02116Y01171*
X02116Y0117*
X02117Y0117*
X02118Y01169*
X02119Y01169*
X02119Y01168*
X0212Y01168*
X02121Y01167*
X02122Y01167*
X02123Y01167*
X02124Y01167*
X02125Y01167*
X02126*
X02127Y01167*
X02128Y01167*
X02129Y01167*
X0213Y01167*
X02131Y01168*
X02132Y01168*
X02132Y01169*
X02133Y01169*
X02134Y0117*
X02135Y0117*
X02135Y01171*
X02136Y01172*
X02137Y01173*
X02137Y01173*
X02138Y01174*
X02138Y01175*
X02138Y01176*
X02139Y01177*
X02139Y01178*
X02139Y01179*
X02139Y0118*
X02139Y01181*
X05446Y02637D02*
D01*
X05446Y02638*
X05446Y02639*
X05446Y0264*
X05446Y02641*
X05446Y02642*
X05445Y02643*
X05445Y02644*
X05444Y02645*
X05444Y02645*
X05443Y02646*
X05442Y02647*
X05442Y02648*
X05441Y02648*
X0544Y02649*
X05439Y02649*
X05439Y0265*
X05438Y0265*
X05437Y0265*
X05436Y02651*
X05435Y02651*
X05434Y02651*
X05433Y02651*
X05432*
X05431Y02651*
X0543Y02651*
X05429Y02651*
X05428Y0265*
X05427Y0265*
X05427Y0265*
X05426Y02649*
X05425Y02649*
X05424Y02648*
X05423Y02648*
X05423Y02647*
X05422Y02646*
X05421Y02645*
X05421Y02645*
X0542Y02644*
X0542Y02643*
X0542Y02642*
X05419Y02641*
X05419Y0264*
X05419Y02639*
X05419Y02638*
X05419Y02637*
X05419Y02636*
X05419Y02635*
X05419Y02634*
X05419Y02633*
X0542Y02633*
X0542Y02632*
X0542Y02631*
X05421Y0263*
X05421Y02629*
X05422Y02628*
X05423Y02628*
X05423Y02627*
X05424Y02626*
X05425Y02626*
X05426Y02625*
X05427Y02625*
X05427Y02625*
X05428Y02624*
X05429Y02624*
X0543Y02624*
X05431Y02624*
X05432Y02624*
X05433*
X05434Y02624*
X05435Y02624*
X05436Y02624*
X05437Y02624*
X05438Y02625*
X05439Y02625*
X05439Y02625*
X0544Y02626*
X05441Y02626*
X05442Y02627*
X05442Y02628*
X05443Y02628*
X05444Y02629*
X05444Y0263*
X05445Y02631*
X05445Y02632*
X05446Y02633*
X05446Y02633*
X05446Y02634*
X05446Y02635*
X05446Y02636*
X05446Y02637*
X04771Y02639D02*
D01*
X04771Y0264*
X04771Y02641*
X04771Y02642*
X04771Y02643*
X0477Y02644*
X0477Y02645*
X0477Y02646*
X04769Y02647*
X04769Y02647*
X04768Y02648*
X04767Y02649*
X04767Y0265*
X04766Y0265*
X04765Y02651*
X04764Y02651*
X04763Y02652*
X04763Y02652*
X04762Y02652*
X04761Y02653*
X0476Y02653*
X04759Y02653*
X04758Y02653*
X04757*
X04756Y02653*
X04755Y02653*
X04754Y02653*
X04753Y02652*
X04752Y02652*
X04751Y02652*
X0475Y02651*
X0475Y02651*
X04749Y0265*
X04748Y0265*
X04747Y02649*
X04747Y02648*
X04746Y02647*
X04746Y02647*
X04745Y02646*
X04745Y02645*
X04744Y02644*
X04744Y02643*
X04744Y02642*
X04744Y02641*
X04744Y0264*
X04744Y02639*
X04744Y02638*
X04744Y02637*
X04744Y02636*
X04744Y02635*
X04744Y02635*
X04745Y02634*
X04745Y02633*
X04746Y02632*
X04746Y02631*
X04747Y0263*
X04747Y0263*
X04748Y02629*
X04749Y02628*
X0475Y02628*
X0475Y02627*
X04751Y02627*
X04752Y02626*
X04753Y02626*
X04754Y02626*
X04755Y02626*
X04756Y02626*
X04757Y02625*
X04758*
X04759Y02626*
X0476Y02626*
X04761Y02626*
X04762Y02626*
X04763Y02626*
X04763Y02627*
X04764Y02627*
X04765Y02628*
X04766Y02628*
X04767Y02629*
X04767Y0263*
X04768Y0263*
X04769Y02631*
X04769Y02632*
X0477Y02633*
X0477Y02634*
X0477Y02635*
X04771Y02635*
X04771Y02636*
X04771Y02637*
X04771Y02638*
X04771Y02639*
X04108Y02637D02*
D01*
X04108Y02638*
X04108Y02639*
X04107Y0264*
X04107Y02641*
X04107Y02642*
X04107Y02643*
X04106Y02644*
X04106Y02645*
X04105Y02645*
X04105Y02646*
X04104Y02647*
X04103Y02648*
X04102Y02648*
X04102Y02649*
X04101Y02649*
X041Y0265*
X04099Y0265*
X04098Y0265*
X04097Y02651*
X04096Y02651*
X04095Y02651*
X04094Y02651*
X04094*
X04093Y02651*
X04092Y02651*
X04091Y02651*
X0409Y0265*
X04089Y0265*
X04088Y0265*
X04087Y02649*
X04086Y02649*
X04086Y02648*
X04085Y02648*
X04084Y02647*
X04083Y02646*
X04083Y02645*
X04082Y02645*
X04082Y02644*
X04081Y02643*
X04081Y02642*
X04081Y02641*
X04081Y0264*
X0408Y02639*
X0408Y02638*
X0408Y02637*
X0408Y02636*
X0408Y02635*
X04081Y02634*
X04081Y02633*
X04081Y02633*
X04081Y02632*
X04082Y02631*
X04082Y0263*
X04083Y02629*
X04083Y02628*
X04084Y02628*
X04085Y02627*
X04086Y02626*
X04086Y02626*
X04087Y02625*
X04088Y02625*
X04089Y02625*
X0409Y02624*
X04091Y02624*
X04092Y02624*
X04093Y02624*
X04094Y02624*
X04094*
X04095Y02624*
X04096Y02624*
X04097Y02624*
X04098Y02624*
X04099Y02625*
X041Y02625*
X04101Y02625*
X04102Y02626*
X04102Y02626*
X04103Y02627*
X04104Y02628*
X04105Y02628*
X04105Y02629*
X04106Y0263*
X04106Y02631*
X04107Y02632*
X04107Y02633*
X04107Y02633*
X04107Y02634*
X04108Y02635*
X04108Y02636*
X04108Y02637*
X03438D02*
D01*
X03438Y02638*
X03438Y02639*
X03438Y0264*
X03438Y02641*
X03438Y02642*
X03437Y02643*
X03437Y02644*
X03436Y02645*
X03436Y02645*
X03435Y02646*
X03435Y02647*
X03434Y02648*
X03433Y02648*
X03432Y02649*
X03432Y02649*
X03431Y0265*
X0343Y0265*
X03429Y0265*
X03428Y02651*
X03427Y02651*
X03426Y02651*
X03425Y02651*
X03424*
X03423Y02651*
X03422Y02651*
X03421Y02651*
X0342Y0265*
X0342Y0265*
X03419Y0265*
X03418Y02649*
X03417Y02649*
X03416Y02648*
X03415Y02648*
X03415Y02647*
X03414Y02646*
X03414Y02645*
X03413Y02645*
X03413Y02644*
X03412Y02643*
X03412Y02642*
X03411Y02641*
X03411Y0264*
X03411Y02639*
X03411Y02638*
X03411Y02637*
X03411Y02636*
X03411Y02635*
X03411Y02634*
X03411Y02633*
X03412Y02633*
X03412Y02632*
X03413Y02631*
X03413Y0263*
X03414Y02629*
X03414Y02628*
X03415Y02628*
X03415Y02627*
X03416Y02626*
X03417Y02626*
X03418Y02625*
X03419Y02625*
X0342Y02625*
X0342Y02624*
X03421Y02624*
X03422Y02624*
X03423Y02624*
X03424Y02624*
X03425*
X03426Y02624*
X03427Y02624*
X03428Y02624*
X03429Y02624*
X0343Y02625*
X03431Y02625*
X03432Y02625*
X03432Y02626*
X03433Y02626*
X03434Y02627*
X03435Y02628*
X03435Y02628*
X03436Y02629*
X03436Y0263*
X03437Y02631*
X03437Y02632*
X03438Y02633*
X03438Y02633*
X03438Y02634*
X03438Y02635*
X03438Y02636*
X03438Y02637*
X02572Y02204D02*
D01*
X02572Y02205*
X02572Y02206*
X02572Y02207*
X02572Y02208*
X02572Y02209*
X02571Y0221*
X02571Y02211*
X0257Y02212*
X0257Y02212*
X02569Y02213*
X02568Y02214*
X02568Y02214*
X02567Y02215*
X02566Y02216*
X02565Y02216*
X02565Y02217*
X02564Y02217*
X02563Y02217*
X02562Y02218*
X02561Y02218*
X0256Y02218*
X02559Y02218*
X02558*
X02557Y02218*
X02556Y02218*
X02555Y02218*
X02554Y02217*
X02553Y02217*
X02553Y02217*
X02552Y02216*
X02551Y02216*
X0255Y02215*
X02549Y02214*
X02549Y02214*
X02548Y02213*
X02547Y02212*
X02547Y02212*
X02546Y02211*
X02546Y0221*
X02546Y02209*
X02545Y02208*
X02545Y02207*
X02545Y02206*
X02545Y02205*
X02545Y02204*
X02545Y02203*
X02545Y02202*
X02545Y02201*
X02545Y022*
X02546Y022*
X02546Y02199*
X02546Y02198*
X02547Y02197*
X02547Y02196*
X02548Y02195*
X02549Y02195*
X02549Y02194*
X0255Y02193*
X02551Y02193*
X02552Y02192*
X02553Y02192*
X02553Y02191*
X02554Y02191*
X02555Y02191*
X02556Y02191*
X02557Y02191*
X02558Y0219*
X02559*
X0256Y02191*
X02561Y02191*
X02562Y02191*
X02563Y02191*
X02564Y02191*
X02565Y02192*
X02565Y02192*
X02566Y02193*
X02567Y02193*
X02568Y02194*
X02568Y02195*
X02569Y02195*
X0257Y02196*
X0257Y02197*
X02571Y02198*
X02571Y02199*
X02572Y022*
X02572Y022*
X02572Y02201*
X02572Y02202*
X02572Y02203*
X02572Y02204*
X02139D02*
D01*
X02139Y02205*
X02139Y02206*
X02139Y02207*
X02139Y02208*
X02138Y02209*
X02138Y0221*
X02138Y02211*
X02137Y02212*
X02137Y02212*
X02136Y02213*
X02135Y02214*
X02135Y02214*
X02134Y02215*
X02133Y02216*
X02132Y02216*
X02132Y02217*
X02131Y02217*
X0213Y02217*
X02129Y02218*
X02128Y02218*
X02127Y02218*
X02126Y02218*
X02125*
X02124Y02218*
X02123Y02218*
X02122Y02218*
X02121Y02217*
X0212Y02217*
X02119Y02217*
X02119Y02216*
X02118Y02216*
X02117Y02215*
X02116Y02214*
X02116Y02214*
X02115Y02213*
X02114Y02212*
X02114Y02212*
X02113Y02211*
X02113Y0221*
X02113Y02209*
X02112Y02208*
X02112Y02207*
X02112Y02206*
X02112Y02205*
X02112Y02204*
X02112Y02203*
X02112Y02202*
X02112Y02201*
X02112Y022*
X02113Y022*
X02113Y02199*
X02113Y02198*
X02114Y02197*
X02114Y02196*
X02115Y02195*
X02116Y02195*
X02116Y02194*
X02117Y02193*
X02118Y02193*
X02119Y02192*
X02119Y02192*
X0212Y02191*
X02121Y02191*
X02122Y02191*
X02123Y02191*
X02124Y02191*
X02125Y0219*
X02126*
X02127Y02191*
X02128Y02191*
X02129Y02191*
X0213Y02191*
X02131Y02191*
X02132Y02192*
X02132Y02192*
X02133Y02193*
X02134Y02193*
X02135Y02194*
X02135Y02195*
X02136Y02195*
X02137Y02196*
X02137Y02197*
X02138Y02198*
X02138Y02199*
X02138Y022*
X02139Y022*
X02139Y02201*
X02139Y02202*
X02139Y02203*
X02139Y02204*
X01228Y02206D02*
D01*
X01228Y02207*
X01228Y02208*
X01228Y02209*
X01227Y0221*
X01227Y02211*
X01227Y02212*
X01226Y02213*
X01226Y02213*
X01225Y02214*
X01225Y02215*
X01224Y02216*
X01223Y02216*
X01223Y02217*
X01222Y02218*
X01221Y02218*
X0122Y02219*
X01219Y02219*
X01218Y02219*
X01217Y0222*
X01216Y0222*
X01216Y0222*
X01215Y0222*
X01214*
X01213Y0222*
X01212Y0222*
X01211Y0222*
X0121Y02219*
X01209Y02219*
X01208Y02219*
X01207Y02218*
X01206Y02218*
X01206Y02217*
X01205Y02216*
X01204Y02216*
X01204Y02215*
X01203Y02214*
X01202Y02213*
X01202Y02213*
X01201Y02212*
X01201Y02211*
X01201Y0221*
X01201Y02209*
X012Y02208*
X012Y02207*
X012Y02206*
X012Y02205*
X012Y02204*
X01201Y02203*
X01201Y02202*
X01201Y02201*
X01201Y02201*
X01202Y022*
X01202Y02199*
X01203Y02198*
X01204Y02197*
X01204Y02197*
X01205Y02196*
X01206Y02195*
X01206Y02195*
X01207Y02194*
X01208Y02194*
X01209Y02193*
X0121Y02193*
X01211Y02193*
X01212Y02193*
X01213Y02192*
X01214Y02192*
X01215*
X01216Y02192*
X01216Y02193*
X01217Y02193*
X01218Y02193*
X01219Y02193*
X0122Y02194*
X01221Y02194*
X01222Y02195*
X01223Y02195*
X01223Y02196*
X01224Y02197*
X01225Y02197*
X01225Y02198*
X01226Y02199*
X01226Y022*
X01227Y02201*
X01227Y02201*
X01227Y02202*
X01228Y02203*
X01228Y02204*
X01228Y02205*
X01228Y02206*
X05446Y03543D02*
D01*
X05446Y03544*
X05446Y03545*
X05446Y03546*
X05446Y03547*
X05446Y03548*
X05445Y03548*
X05445Y03549*
X05444Y0355*
X05444Y03551*
X05443Y03552*
X05442Y03552*
X05442Y03553*
X05441Y03554*
X0544Y03554*
X05439Y03555*
X05439Y03555*
X05438Y03556*
X05437Y03556*
X05436Y03556*
X05435Y03556*
X05434Y03557*
X05433Y03557*
X05432*
X05431Y03557*
X0543Y03556*
X05429Y03556*
X05428Y03556*
X05427Y03556*
X05427Y03555*
X05426Y03555*
X05425Y03554*
X05424Y03554*
X05423Y03553*
X05423Y03552*
X05422Y03552*
X05421Y03551*
X05421Y0355*
X0542Y03549*
X0542Y03548*
X0542Y03548*
X05419Y03547*
X05419Y03546*
X05419Y03545*
X05419Y03544*
X05419Y03543*
X05419Y03542*
X05419Y03541*
X05419Y0354*
X05419Y03539*
X0542Y03538*
X0542Y03537*
X0542Y03536*
X05421Y03536*
X05421Y03535*
X05422Y03534*
X05423Y03533*
X05423Y03533*
X05424Y03532*
X05425Y03531*
X05426Y03531*
X05427Y0353*
X05427Y0353*
X05428Y0353*
X05429Y03529*
X0543Y03529*
X05431Y03529*
X05432Y03529*
X05433*
X05434Y03529*
X05435Y03529*
X05436Y03529*
X05437Y0353*
X05438Y0353*
X05439Y0353*
X05439Y03531*
X0544Y03531*
X05441Y03532*
X05442Y03533*
X05442Y03533*
X05443Y03534*
X05444Y03535*
X05444Y03536*
X05445Y03536*
X05445Y03537*
X05446Y03538*
X05446Y03539*
X05446Y0354*
X05446Y03541*
X05446Y03542*
X05446Y03543*
X04771Y03545D02*
D01*
X04771Y03546*
X04771Y03547*
X04771Y03548*
X04771Y03549*
X0477Y03549*
X0477Y0355*
X0477Y03551*
X04769Y03552*
X04769Y03553*
X04768Y03554*
X04767Y03554*
X04767Y03555*
X04766Y03556*
X04765Y03556*
X04764Y03557*
X04763Y03557*
X04763Y03558*
X04762Y03558*
X04761Y03558*
X0476Y03558*
X04759Y03558*
X04758Y03559*
X04757*
X04756Y03558*
X04755Y03558*
X04754Y03558*
X04753Y03558*
X04752Y03558*
X04751Y03557*
X0475Y03557*
X0475Y03556*
X04749Y03556*
X04748Y03555*
X04747Y03554*
X04747Y03554*
X04746Y03553*
X04746Y03552*
X04745Y03551*
X04745Y0355*
X04744Y03549*
X04744Y03549*
X04744Y03548*
X04744Y03547*
X04744Y03546*
X04744Y03545*
X04744Y03544*
X04744Y03543*
X04744Y03542*
X04744Y03541*
X04744Y0354*
X04745Y03539*
X04745Y03538*
X04746Y03537*
X04746Y03537*
X04747Y03536*
X04747Y03535*
X04748Y03535*
X04749Y03534*
X0475Y03533*
X0475Y03533*
X04751Y03532*
X04752Y03532*
X04753Y03532*
X04754Y03531*
X04755Y03531*
X04756Y03531*
X04757Y03531*
X04758*
X04759Y03531*
X0476Y03531*
X04761Y03531*
X04762Y03532*
X04763Y03532*
X04763Y03532*
X04764Y03533*
X04765Y03533*
X04766Y03534*
X04767Y03535*
X04767Y03535*
X04768Y03536*
X04769Y03537*
X04769Y03537*
X0477Y03538*
X0477Y03539*
X0477Y0354*
X04771Y03541*
X04771Y03542*
X04771Y03543*
X04771Y03544*
X04771Y03545*
X04102Y03541D02*
D01*
X04102Y03542*
X04102Y03543*
X04102Y03544*
X04101Y03545*
X04101Y03546*
X04101Y03546*
X041Y03547*
X041Y03548*
X04099Y03549*
X04099Y0355*
X04098Y0355*
X04097Y03551*
X04097Y03552*
X04096Y03552*
X04095Y03553*
X04094Y03553*
X04093Y03554*
X04092Y03554*
X04091Y03554*
X0409Y03554*
X0409Y03555*
X04089Y03555*
X04088*
X04087Y03555*
X04086Y03554*
X04085Y03554*
X04084Y03554*
X04083Y03554*
X04082Y03553*
X04081Y03553*
X0408Y03552*
X0408Y03552*
X04079Y03551*
X04078Y0355*
X04078Y0355*
X04077Y03549*
X04076Y03548*
X04076Y03547*
X04075Y03546*
X04075Y03546*
X04075Y03545*
X04075Y03544*
X04074Y03543*
X04074Y03542*
X04074Y03541*
X04074Y0354*
X04074Y03539*
X04075Y03538*
X04075Y03537*
X04075Y03536*
X04075Y03535*
X04076Y03534*
X04076Y03534*
X04077Y03533*
X04078Y03532*
X04078Y03531*
X04079Y03531*
X0408Y0353*
X0408Y03529*
X04081Y03529*
X04082Y03528*
X04083Y03528*
X04084Y03528*
X04085Y03527*
X04086Y03527*
X04087Y03527*
X04088Y03527*
X04089*
X0409Y03527*
X0409Y03527*
X04091Y03527*
X04092Y03528*
X04093Y03528*
X04094Y03528*
X04095Y03529*
X04096Y03529*
X04097Y0353*
X04097Y03531*
X04098Y03531*
X04099Y03532*
X04099Y03533*
X041Y03534*
X041Y03534*
X04101Y03535*
X04101Y03536*
X04101Y03537*
X04102Y03538*
X04102Y03539*
X04102Y0354*
X04102Y03541*
X03438Y03543D02*
D01*
X03438Y03544*
X03438Y03545*
X03438Y03546*
X03438Y03547*
X03438Y03548*
X03437Y03548*
X03437Y03549*
X03436Y0355*
X03436Y03551*
X03435Y03552*
X03435Y03552*
X03434Y03553*
X03433Y03554*
X03432Y03554*
X03432Y03555*
X03431Y03555*
X0343Y03556*
X03429Y03556*
X03428Y03556*
X03427Y03556*
X03426Y03557*
X03425Y03557*
X03424*
X03423Y03557*
X03422Y03556*
X03421Y03556*
X0342Y03556*
X0342Y03556*
X03419Y03555*
X03418Y03555*
X03417Y03554*
X03416Y03554*
X03415Y03553*
X03415Y03552*
X03414Y03552*
X03414Y03551*
X03413Y0355*
X03413Y03549*
X03412Y03548*
X03412Y03548*
X03411Y03547*
X03411Y03546*
X03411Y03545*
X03411Y03544*
X03411Y03543*
X03411Y03542*
X03411Y03541*
X03411Y0354*
X03411Y03539*
X03412Y03538*
X03412Y03537*
X03413Y03536*
X03413Y03536*
X03414Y03535*
X03414Y03534*
X03415Y03533*
X03415Y03533*
X03416Y03532*
X03417Y03531*
X03418Y03531*
X03419Y0353*
X0342Y0353*
X0342Y0353*
X03421Y03529*
X03422Y03529*
X03423Y03529*
X03424Y03529*
X03425*
X03426Y03529*
X03427Y03529*
X03428Y03529*
X03429Y0353*
X0343Y0353*
X03431Y0353*
X03432Y03531*
X03432Y03531*
X03433Y03532*
X03434Y03533*
X03435Y03533*
X03435Y03534*
X03436Y03535*
X03436Y03536*
X03437Y03536*
X03437Y03537*
X03438Y03538*
X03438Y03539*
X03438Y0354*
X03438Y03541*
X03438Y03542*
X03438Y03543*
X01942Y02637D02*
D01*
X01942Y02638*
X01942Y02639*
X01942Y0264*
X01942Y02641*
X01942Y02642*
X01941Y02643*
X01941Y02644*
X0194Y02645*
X0194Y02645*
X01939Y02646*
X01939Y02647*
X01938Y02648*
X01937Y02648*
X01936Y02649*
X01936Y02649*
X01935Y0265*
X01934Y0265*
X01933Y0265*
X01932Y02651*
X01931Y02651*
X0193Y02651*
X01929Y02651*
X01928*
X01927Y02651*
X01926Y02651*
X01925Y02651*
X01924Y0265*
X01923Y0265*
X01923Y0265*
X01922Y02649*
X01921Y02649*
X0192Y02648*
X01919Y02648*
X01919Y02647*
X01918Y02646*
X01917Y02645*
X01917Y02645*
X01916Y02644*
X01916Y02643*
X01916Y02642*
X01915Y02641*
X01915Y0264*
X01915Y02639*
X01915Y02638*
X01915Y02637*
X01915Y02636*
X01915Y02635*
X01915Y02634*
X01915Y02633*
X01916Y02633*
X01916Y02632*
X01916Y02631*
X01917Y0263*
X01917Y02629*
X01918Y02628*
X01919Y02628*
X01919Y02627*
X0192Y02626*
X01921Y02626*
X01922Y02625*
X01923Y02625*
X01923Y02625*
X01924Y02624*
X01925Y02624*
X01926Y02624*
X01927Y02624*
X01928Y02624*
X01929*
X0193Y02624*
X01931Y02624*
X01932Y02624*
X01933Y02624*
X01934Y02625*
X01935Y02625*
X01936Y02625*
X01936Y02626*
X01937Y02626*
X01938Y02627*
X01939Y02628*
X01939Y02628*
X0194Y02629*
X0194Y0263*
X01941Y02631*
X01941Y02632*
X01942Y02633*
X01942Y02633*
X01942Y02634*
X01942Y02635*
X01942Y02636*
X01942Y02637*
X05446Y04409D02*
D01*
X05446Y0441*
X05446Y04411*
X05446Y04412*
X05446Y04413*
X05446Y04414*
X05445Y04415*
X05445Y04415*
X05444Y04416*
X05444Y04417*
X05443Y04418*
X05442Y04419*
X05442Y04419*
X05441Y0442*
X0544Y0442*
X05439Y04421*
X05439Y04421*
X05438Y04422*
X05437Y04422*
X05436Y04422*
X05435Y04423*
X05434Y04423*
X05433Y04423*
X05432*
X05431Y04423*
X0543Y04423*
X05429Y04422*
X05428Y04422*
X05427Y04422*
X05427Y04421*
X05426Y04421*
X05425Y0442*
X05424Y0442*
X05423Y04419*
X05423Y04419*
X05422Y04418*
X05421Y04417*
X05421Y04416*
X0542Y04415*
X0542Y04415*
X0542Y04414*
X05419Y04413*
X05419Y04412*
X05419Y04411*
X05419Y0441*
X05419Y04409*
X05419Y04408*
X05419Y04407*
X05419Y04406*
X05419Y04405*
X0542Y04404*
X0542Y04403*
X0542Y04402*
X05421Y04402*
X05421Y04401*
X05422Y044*
X05423Y04399*
X05423Y04399*
X05424Y04398*
X05425Y04398*
X05426Y04397*
X05427Y04397*
X05427Y04396*
X05428Y04396*
X05429Y04396*
X0543Y04395*
X05431Y04395*
X05432Y04395*
X05433*
X05434Y04395*
X05435Y04395*
X05436Y04396*
X05437Y04396*
X05438Y04396*
X05439Y04397*
X05439Y04397*
X0544Y04398*
X05441Y04398*
X05442Y04399*
X05442Y04399*
X05443Y044*
X05444Y04401*
X05444Y04402*
X05445Y04402*
X05445Y04403*
X05446Y04404*
X05446Y04405*
X05446Y04406*
X05446Y04407*
X05446Y04408*
X05446Y04409*
X04777D02*
D01*
X04777Y0441*
X04777Y04411*
X04777Y04412*
X04777Y04413*
X04776Y04414*
X04776Y04415*
X04775Y04415*
X04775Y04416*
X04774Y04417*
X04774Y04418*
X04773Y04419*
X04772Y04419*
X04772Y0442*
X04771Y0442*
X0477Y04421*
X04769Y04421*
X04768Y04422*
X04768Y04422*
X04767Y04422*
X04766Y04423*
X04765Y04423*
X04764Y04423*
X04763*
X04762Y04423*
X04761Y04423*
X0476Y04422*
X04759Y04422*
X04758Y04422*
X04757Y04421*
X04756Y04421*
X04756Y0442*
X04755Y0442*
X04754Y04419*
X04753Y04419*
X04753Y04418*
X04752Y04417*
X04752Y04416*
X04751Y04415*
X04751Y04415*
X0475Y04414*
X0475Y04413*
X0475Y04412*
X0475Y04411*
X0475Y0441*
X0475Y04409*
X0475Y04408*
X0475Y04407*
X0475Y04406*
X0475Y04405*
X0475Y04404*
X04751Y04403*
X04751Y04402*
X04752Y04402*
X04752Y04401*
X04753Y044*
X04753Y04399*
X04754Y04399*
X04755Y04398*
X04756Y04398*
X04756Y04397*
X04757Y04397*
X04758Y04396*
X04759Y04396*
X0476Y04396*
X04761Y04395*
X04762Y04395*
X04763Y04395*
X04764*
X04765Y04395*
X04766Y04395*
X04767Y04396*
X04768Y04396*
X04768Y04396*
X04769Y04397*
X0477Y04397*
X04771Y04398*
X04772Y04398*
X04772Y04399*
X04773Y04399*
X04774Y044*
X04774Y04401*
X04775Y04402*
X04775Y04402*
X04776Y04403*
X04776Y04404*
X04777Y04405*
X04777Y04406*
X04777Y04407*
X04777Y04408*
X04777Y04409*
X0399D02*
D01*
X0399Y0441*
X0399Y04411*
X03989Y04412*
X03989Y04413*
X03989Y04414*
X03988Y04415*
X03988Y04415*
X03988Y04416*
X03987Y04417*
X03986Y04418*
X03986Y04419*
X03985Y04419*
X03984Y0442*
X03984Y0442*
X03983Y04421*
X03982Y04421*
X03981Y04422*
X0398Y04422*
X03979Y04422*
X03978Y04423*
X03977Y04423*
X03976Y04423*
X03975*
X03974Y04423*
X03973Y04423*
X03973Y04422*
X03972Y04422*
X03971Y04422*
X0397Y04421*
X03969Y04421*
X03968Y0442*
X03967Y0442*
X03967Y04419*
X03966Y04419*
X03965Y04418*
X03965Y04417*
X03964Y04416*
X03964Y04415*
X03963Y04415*
X03963Y04414*
X03963Y04413*
X03962Y04412*
X03962Y04411*
X03962Y0441*
X03962Y04409*
X03962Y04408*
X03962Y04407*
X03962Y04406*
X03963Y04405*
X03963Y04404*
X03963Y04403*
X03964Y04402*
X03964Y04402*
X03965Y04401*
X03965Y044*
X03966Y04399*
X03967Y04399*
X03967Y04398*
X03968Y04398*
X03969Y04397*
X0397Y04397*
X03971Y04396*
X03972Y04396*
X03973Y04396*
X03973Y04395*
X03974Y04395*
X03975Y04395*
X03976*
X03977Y04395*
X03978Y04395*
X03979Y04396*
X0398Y04396*
X03981Y04396*
X03982Y04397*
X03983Y04397*
X03984Y04398*
X03984Y04398*
X03985Y04399*
X03986Y04399*
X03986Y044*
X03987Y04401*
X03988Y04402*
X03988Y04402*
X03988Y04403*
X03989Y04404*
X03989Y04405*
X03989Y04406*
X0399Y04407*
X0399Y04408*
X0399Y04409*
X03438D02*
D01*
X03438Y0441*
X03438Y04411*
X03438Y04412*
X03438Y04413*
X03438Y04414*
X03437Y04415*
X03437Y04415*
X03436Y04416*
X03436Y04417*
X03435Y04418*
X03435Y04419*
X03434Y04419*
X03433Y0442*
X03432Y0442*
X03432Y04421*
X03431Y04421*
X0343Y04422*
X03429Y04422*
X03428Y04422*
X03427Y04423*
X03426Y04423*
X03425Y04423*
X03424*
X03423Y04423*
X03422Y04423*
X03421Y04422*
X0342Y04422*
X0342Y04422*
X03419Y04421*
X03418Y04421*
X03417Y0442*
X03416Y0442*
X03415Y04419*
X03415Y04419*
X03414Y04418*
X03414Y04417*
X03413Y04416*
X03413Y04415*
X03412Y04415*
X03412Y04414*
X03411Y04413*
X03411Y04412*
X03411Y04411*
X03411Y0441*
X03411Y04409*
X03411Y04408*
X03411Y04407*
X03411Y04406*
X03411Y04405*
X03412Y04404*
X03412Y04403*
X03413Y04402*
X03413Y04402*
X03414Y04401*
X03414Y044*
X03415Y04399*
X03415Y04399*
X03416Y04398*
X03417Y04398*
X03418Y04397*
X03419Y04397*
X0342Y04396*
X0342Y04396*
X03421Y04396*
X03422Y04395*
X03423Y04395*
X03424Y04395*
X03425*
X03426Y04395*
X03427Y04395*
X03428Y04396*
X03429Y04396*
X0343Y04396*
X03431Y04397*
X03432Y04397*
X03432Y04398*
X03433Y04398*
X03434Y04399*
X03435Y04399*
X03435Y044*
X03436Y04401*
X03436Y04402*
X03437Y04402*
X03437Y04403*
X03438Y04404*
X03438Y04405*
X03438Y04406*
X03438Y04407*
X03438Y04408*
X03438Y04409*
X00604D02*
D01*
X00604Y0441*
X00604Y04411*
X00604Y04412*
X00603Y04413*
X00603Y04414*
X00603Y04415*
X00602Y04415*
X00602Y04416*
X00601Y04417*
X00601Y04418*
X006Y04419*
X00599Y04419*
X00599Y0442*
X00598Y0442*
X00597Y04421*
X00596Y04421*
X00595Y04422*
X00594Y04422*
X00593Y04422*
X00592Y04423*
X00591Y04423*
X00591Y04423*
X0059*
X00589Y04423*
X00588Y04423*
X00587Y04422*
X00586Y04422*
X00585Y04422*
X00584Y04421*
X00583Y04421*
X00582Y0442*
X00582Y0442*
X00581Y04419*
X0058Y04419*
X00579Y04418*
X00579Y04417*
X00578Y04416*
X00578Y04415*
X00577Y04415*
X00577Y04414*
X00577Y04413*
X00577Y04412*
X00576Y04411*
X00576Y0441*
X00576Y04409*
X00576Y04408*
X00576Y04407*
X00577Y04406*
X00577Y04405*
X00577Y04404*
X00577Y04403*
X00578Y04402*
X00578Y04402*
X00579Y04401*
X00579Y044*
X0058Y04399*
X00581Y04399*
X00582Y04398*
X00582Y04398*
X00583Y04397*
X00584Y04397*
X00585Y04396*
X00586Y04396*
X00587Y04396*
X00588Y04395*
X00589Y04395*
X0059Y04395*
X00591*
X00591Y04395*
X00592Y04395*
X00593Y04396*
X00594Y04396*
X00595Y04396*
X00596Y04397*
X00597Y04397*
X00598Y04398*
X00599Y04398*
X00599Y04399*
X006Y04399*
X00601Y044*
X00601Y04401*
X00602Y04402*
X00602Y04402*
X00603Y04403*
X00603Y04404*
X00603Y04405*
X00604Y04406*
X00604Y04407*
X00604Y04408*
X00604Y04409*
X07651Y05787D02*
D01*
X07651Y05788*
X07651Y05789*
X07651Y0579*
X07651Y05791*
X0765Y05792*
X0765Y05793*
X07649Y05793*
X07649Y05794*
X07648Y05795*
X07648Y05796*
X07647Y05796*
X07647Y05797*
X07646Y05798*
X07645Y05798*
X07644Y05799*
X07643Y05799*
X07642Y058*
X07642Y058*
X07641Y058*
X0764Y058*
X07639Y05801*
X07638Y05801*
X07637*
X07636Y05801*
X07635Y058*
X07634Y058*
X07633Y058*
X07632Y058*
X07631Y05799*
X0763Y05799*
X0763Y05798*
X07629Y05798*
X07628Y05797*
X07627Y05796*
X07627Y05796*
X07626Y05795*
X07626Y05794*
X07625Y05793*
X07625Y05793*
X07624Y05792*
X07624Y05791*
X07624Y0579*
X07624Y05789*
X07624Y05788*
X07624Y05787*
X07624Y05786*
X07624Y05785*
X07624Y05784*
X07624Y05783*
X07624Y05782*
X07625Y05781*
X07625Y0578*
X07626Y0578*
X07626Y05779*
X07627Y05778*
X07627Y05777*
X07628Y05777*
X07629Y05776*
X0763Y05775*
X0763Y05775*
X07631Y05775*
X07632Y05774*
X07633Y05774*
X07634Y05774*
X07635Y05773*
X07636Y05773*
X07637Y05773*
X07638*
X07639Y05773*
X0764Y05773*
X07641Y05774*
X07642Y05774*
X07642Y05774*
X07643Y05775*
X07644Y05775*
X07645Y05775*
X07646Y05776*
X07647Y05777*
X07647Y05777*
X07648Y05778*
X07648Y05779*
X07649Y0578*
X07649Y0578*
X0765Y05781*
X0765Y05782*
X07651Y05783*
X07651Y05784*
X07651Y05785*
X07651Y05786*
X07651Y05787*
X06982D02*
D01*
X06982Y05788*
X06982Y05789*
X06981Y0579*
X06981Y05791*
X06981Y05792*
X06981Y05793*
X0698Y05793*
X0698Y05794*
X06979Y05795*
X06979Y05796*
X06978Y05796*
X06977Y05797*
X06976Y05798*
X06976Y05798*
X06975Y05799*
X06974Y05799*
X06973Y058*
X06972Y058*
X06971Y058*
X0697Y058*
X06969Y05801*
X06968Y05801*
X06968*
X06967Y05801*
X06966Y058*
X06965Y058*
X06964Y058*
X06963Y058*
X06962Y05799*
X06961Y05799*
X0696Y05798*
X0696Y05798*
X06959Y05797*
X06958Y05796*
X06957Y05796*
X06957Y05795*
X06956Y05794*
X06956Y05793*
X06955Y05793*
X06955Y05792*
X06955Y05791*
X06955Y0579*
X06954Y05789*
X06954Y05788*
X06954Y05787*
X06954Y05786*
X06954Y05785*
X06955Y05784*
X06955Y05783*
X06955Y05782*
X06955Y05781*
X06956Y0578*
X06956Y0578*
X06957Y05779*
X06957Y05778*
X06958Y05777*
X06959Y05777*
X0696Y05776*
X0696Y05775*
X06961Y05775*
X06962Y05775*
X06963Y05774*
X06964Y05774*
X06965Y05774*
X06966Y05773*
X06967Y05773*
X06968Y05773*
X06968*
X06969Y05773*
X0697Y05773*
X06971Y05774*
X06972Y05774*
X06973Y05774*
X06974Y05775*
X06975Y05775*
X06976Y05775*
X06976Y05776*
X06977Y05777*
X06978Y05777*
X06979Y05778*
X06979Y05779*
X0698Y0578*
X0698Y0578*
X06981Y05781*
X06981Y05782*
X06981Y05783*
X06981Y05784*
X06982Y05785*
X06982Y05786*
X06982Y05787*
X06312D02*
D01*
X06312Y05788*
X06312Y05789*
X06312Y0579*
X06312Y05791*
X06312Y05792*
X06311Y05793*
X06311Y05793*
X0631Y05794*
X0631Y05795*
X06309Y05796*
X06309Y05796*
X06308Y05797*
X06307Y05798*
X06306Y05798*
X06306Y05799*
X06305Y05799*
X06304Y058*
X06303Y058*
X06302Y058*
X06301Y058*
X063Y05801*
X06299Y05801*
X06298*
X06297Y05801*
X06296Y058*
X06295Y058*
X06294Y058*
X06294Y058*
X06293Y05799*
X06292Y05799*
X06291Y05798*
X0629Y05798*
X06289Y05797*
X06289Y05796*
X06288Y05796*
X06288Y05795*
X06287Y05794*
X06287Y05793*
X06286Y05793*
X06286Y05792*
X06285Y05791*
X06285Y0579*
X06285Y05789*
X06285Y05788*
X06285Y05787*
X06285Y05786*
X06285Y05785*
X06285Y05784*
X06285Y05783*
X06286Y05782*
X06286Y05781*
X06287Y0578*
X06287Y0578*
X06288Y05779*
X06288Y05778*
X06289Y05777*
X06289Y05777*
X0629Y05776*
X06291Y05775*
X06292Y05775*
X06293Y05775*
X06294Y05774*
X06294Y05774*
X06295Y05774*
X06296Y05773*
X06297Y05773*
X06298Y05773*
X06299*
X063Y05773*
X06301Y05773*
X06302Y05774*
X06303Y05774*
X06304Y05774*
X06305Y05775*
X06306Y05775*
X06306Y05775*
X06307Y05776*
X06308Y05777*
X06309Y05777*
X06309Y05778*
X0631Y05779*
X0631Y0578*
X06311Y0578*
X06311Y05781*
X06312Y05782*
X06312Y05783*
X06312Y05784*
X06312Y05785*
X06312Y05786*
X06312Y05787*
X05446D02*
D01*
X05446Y05788*
X05446Y05789*
X05446Y0579*
X05446Y05791*
X05446Y05792*
X05445Y05793*
X05445Y05793*
X05444Y05794*
X05444Y05795*
X05443Y05796*
X05442Y05796*
X05442Y05797*
X05441Y05798*
X0544Y05798*
X05439Y05799*
X05439Y05799*
X05438Y058*
X05437Y058*
X05436Y058*
X05435Y058*
X05434Y05801*
X05433Y05801*
X05432*
X05431Y05801*
X0543Y058*
X05429Y058*
X05428Y058*
X05427Y058*
X05427Y05799*
X05426Y05799*
X05425Y05798*
X05424Y05798*
X05423Y05797*
X05423Y05796*
X05422Y05796*
X05421Y05795*
X05421Y05794*
X0542Y05793*
X0542Y05793*
X0542Y05792*
X05419Y05791*
X05419Y0579*
X05419Y05789*
X05419Y05788*
X05419Y05787*
X05419Y05786*
X05419Y05785*
X05419Y05784*
X05419Y05783*
X0542Y05782*
X0542Y05781*
X0542Y0578*
X05421Y0578*
X05421Y05779*
X05422Y05778*
X05423Y05777*
X05423Y05777*
X05424Y05776*
X05425Y05775*
X05426Y05775*
X05427Y05775*
X05427Y05774*
X05428Y05774*
X05429Y05774*
X0543Y05773*
X05431Y05773*
X05432Y05773*
X05433*
X05434Y05773*
X05435Y05773*
X05436Y05774*
X05437Y05774*
X05438Y05774*
X05439Y05775*
X05439Y05775*
X0544Y05775*
X05441Y05776*
X05442Y05777*
X05442Y05777*
X05443Y05778*
X05444Y05779*
X05444Y0578*
X05445Y0578*
X05445Y05781*
X05446Y05782*
X05446Y05783*
X05446Y05784*
X05446Y05785*
X05446Y05786*
X05446Y05787*
X04771Y05789D02*
D01*
X04771Y0579*
X04771Y05791*
X04771Y05792*
X04771Y05793*
X0477Y05794*
X0477Y05794*
X0477Y05795*
X04769Y05796*
X04769Y05797*
X04768Y05798*
X04767Y05798*
X04767Y05799*
X04766Y058*
X04765Y058*
X04764Y05801*
X04763Y05801*
X04763Y05802*
X04762Y05802*
X04761Y05802*
X0476Y05802*
X04759Y05803*
X04758Y05803*
X04757*
X04756Y05803*
X04755Y05802*
X04754Y05802*
X04753Y05802*
X04752Y05802*
X04751Y05801*
X0475Y05801*
X0475Y058*
X04749Y058*
X04748Y05799*
X04747Y05798*
X04747Y05798*
X04746Y05797*
X04746Y05796*
X04745Y05795*
X04745Y05794*
X04744Y05794*
X04744Y05793*
X04744Y05792*
X04744Y05791*
X04744Y0579*
X04744Y05789*
X04744Y05788*
X04744Y05787*
X04744Y05786*
X04744Y05785*
X04744Y05784*
X04745Y05783*
X04745Y05782*
X04746Y05782*
X04746Y05781*
X04747Y0578*
X04747Y05779*
X04748Y05779*
X04749Y05778*
X0475Y05777*
X0475Y05777*
X04751Y05776*
X04752Y05776*
X04753Y05776*
X04754Y05775*
X04755Y05775*
X04756Y05775*
X04757Y05775*
X04758*
X04759Y05775*
X0476Y05775*
X04761Y05775*
X04762Y05776*
X04763Y05776*
X04763Y05776*
X04764Y05777*
X04765Y05777*
X04766Y05778*
X04767Y05779*
X04767Y05779*
X04768Y0578*
X04769Y05781*
X04769Y05782*
X0477Y05782*
X0477Y05783*
X0477Y05784*
X04771Y05785*
X04771Y05786*
X04771Y05787*
X04771Y05788*
X04771Y05789*
X04147Y05787D02*
D01*
X04147Y05788*
X04147Y05789*
X04147Y0579*
X04147Y05791*
X04146Y05792*
X04146Y05793*
X04146Y05793*
X04145Y05794*
X04145Y05795*
X04144Y05796*
X04143Y05796*
X04143Y05797*
X04142Y05798*
X04141Y05798*
X0414Y05799*
X04139Y05799*
X04139Y058*
X04138Y058*
X04137Y058*
X04136Y058*
X04135Y05801*
X04134Y05801*
X04133*
X04132Y05801*
X04131Y058*
X0413Y058*
X04129Y058*
X04128Y058*
X04127Y05799*
X04126Y05799*
X04126Y05798*
X04125Y05798*
X04124Y05797*
X04123Y05796*
X04123Y05796*
X04122Y05795*
X04122Y05794*
X04121Y05793*
X04121Y05793*
X0412Y05792*
X0412Y05791*
X0412Y0579*
X0412Y05789*
X0412Y05788*
X0412Y05787*
X0412Y05786*
X0412Y05785*
X0412Y05784*
X0412Y05783*
X0412Y05782*
X04121Y05781*
X04121Y0578*
X04122Y0578*
X04122Y05779*
X04123Y05778*
X04123Y05777*
X04124Y05777*
X04125Y05776*
X04126Y05775*
X04126Y05775*
X04127Y05775*
X04128Y05774*
X04129Y05774*
X0413Y05774*
X04131Y05773*
X04132Y05773*
X04133Y05773*
X04134*
X04135Y05773*
X04136Y05773*
X04137Y05774*
X04138Y05774*
X04139Y05774*
X04139Y05775*
X0414Y05775*
X04141Y05775*
X04142Y05776*
X04143Y05777*
X04143Y05777*
X04144Y05778*
X04145Y05779*
X04145Y0578*
X04146Y0578*
X04146Y05781*
X04146Y05782*
X04147Y05783*
X04147Y05784*
X04147Y05785*
X04147Y05786*
X04147Y05787*
X03438D02*
D01*
X03438Y05788*
X03438Y05789*
X03438Y0579*
X03438Y05791*
X03438Y05792*
X03437Y05793*
X03437Y05793*
X03436Y05794*
X03436Y05795*
X03435Y05796*
X03435Y05796*
X03434Y05797*
X03433Y05798*
X03432Y05798*
X03432Y05799*
X03431Y05799*
X0343Y058*
X03429Y058*
X03428Y058*
X03427Y058*
X03426Y05801*
X03425Y05801*
X03424*
X03423Y05801*
X03422Y058*
X03421Y058*
X0342Y058*
X0342Y058*
X03419Y05799*
X03418Y05799*
X03417Y05798*
X03416Y05798*
X03415Y05797*
X03415Y05796*
X03414Y05796*
X03414Y05795*
X03413Y05794*
X03413Y05793*
X03412Y05793*
X03412Y05792*
X03411Y05791*
X03411Y0579*
X03411Y05789*
X03411Y05788*
X03411Y05787*
X03411Y05786*
X03411Y05785*
X03411Y05784*
X03411Y05783*
X03412Y05782*
X03412Y05781*
X03413Y0578*
X03413Y0578*
X03414Y05779*
X03414Y05778*
X03415Y05777*
X03415Y05777*
X03416Y05776*
X03417Y05775*
X03418Y05775*
X03419Y05775*
X0342Y05774*
X0342Y05774*
X03421Y05774*
X03422Y05773*
X03423Y05773*
X03424Y05773*
X03425*
X03426Y05773*
X03427Y05773*
X03428Y05774*
X03429Y05774*
X0343Y05774*
X03431Y05775*
X03432Y05775*
X03432Y05775*
X03433Y05776*
X03434Y05777*
X03435Y05777*
X03435Y05778*
X03436Y05779*
X03436Y0578*
X03437Y0578*
X03437Y05781*
X03438Y05782*
X03438Y05783*
X03438Y05784*
X03438Y05785*
X03438Y05786*
X03438Y05787*
X02572D02*
D01*
X02572Y05788*
X02572Y05789*
X02572Y0579*
X02572Y05791*
X02572Y05792*
X02571Y05793*
X02571Y05793*
X0257Y05794*
X0257Y05795*
X02569Y05796*
X02568Y05796*
X02568Y05797*
X02567Y05798*
X02566Y05798*
X02565Y05799*
X02565Y05799*
X02564Y058*
X02563Y058*
X02562Y058*
X02561Y058*
X0256Y05801*
X02559Y05801*
X02558*
X02557Y05801*
X02556Y058*
X02555Y058*
X02554Y058*
X02553Y058*
X02553Y05799*
X02552Y05799*
X02551Y05798*
X0255Y05798*
X02549Y05797*
X02549Y05796*
X02548Y05796*
X02547Y05795*
X02547Y05794*
X02546Y05793*
X02546Y05793*
X02546Y05792*
X02545Y05791*
X02545Y0579*
X02545Y05789*
X02545Y05788*
X02545Y05787*
X02545Y05786*
X02545Y05785*
X02545Y05784*
X02545Y05783*
X02546Y05782*
X02546Y05781*
X02546Y0578*
X02547Y0578*
X02547Y05779*
X02548Y05778*
X02549Y05777*
X02549Y05777*
X0255Y05776*
X02551Y05775*
X02552Y05775*
X02553Y05775*
X02553Y05774*
X02554Y05774*
X02555Y05774*
X02556Y05773*
X02557Y05773*
X02558Y05773*
X02559*
X0256Y05773*
X02561Y05773*
X02562Y05774*
X02563Y05774*
X02564Y05774*
X02565Y05775*
X02565Y05775*
X02566Y05775*
X02567Y05776*
X02568Y05777*
X02568Y05777*
X02569Y05778*
X0257Y05779*
X0257Y0578*
X02571Y0578*
X02571Y05781*
X02572Y05782*
X02572Y05783*
X02572Y05784*
X02572Y05785*
X02572Y05786*
X02572Y05787*
X01897Y05789D02*
D01*
X01897Y0579*
X01897Y05791*
X01897Y05792*
X01897Y05793*
X01896Y05794*
X01896Y05794*
X01896Y05795*
X01895Y05796*
X01895Y05797*
X01894Y05798*
X01893Y05798*
X01893Y05799*
X01892Y058*
X01891Y058*
X0189Y05801*
X01889Y05801*
X01889Y05802*
X01888Y05802*
X01887Y05802*
X01886Y05802*
X01885Y05803*
X01884Y05803*
X01883*
X01882Y05803*
X01881Y05802*
X0188Y05802*
X01879Y05802*
X01878Y05802*
X01877Y05801*
X01876Y05801*
X01876Y058*
X01875Y058*
X01874Y05799*
X01873Y05798*
X01873Y05798*
X01872Y05797*
X01872Y05796*
X01871Y05795*
X01871Y05794*
X0187Y05794*
X0187Y05793*
X0187Y05792*
X0187Y05791*
X0187Y0579*
X0187Y05789*
X0187Y05788*
X0187Y05787*
X0187Y05786*
X0187Y05785*
X0187Y05784*
X01871Y05783*
X01871Y05782*
X01872Y05782*
X01872Y05781*
X01873Y0578*
X01873Y05779*
X01874Y05779*
X01875Y05778*
X01876Y05777*
X01876Y05777*
X01877Y05776*
X01878Y05776*
X01879Y05776*
X0188Y05775*
X01881Y05775*
X01882Y05775*
X01883Y05775*
X01884*
X01885Y05775*
X01886Y05775*
X01887Y05775*
X01888Y05776*
X01889Y05776*
X01889Y05776*
X0189Y05777*
X01891Y05777*
X01892Y05778*
X01893Y05779*
X01893Y05779*
X01894Y0578*
X01895Y05781*
X01895Y05782*
X01896Y05782*
X01896Y05783*
X01896Y05784*
X01897Y05785*
X01897Y05786*
X01897Y05787*
X01897Y05788*
X01897Y05789*
X01273Y05787D02*
D01*
X01273Y05788*
X01273Y05789*
X01273Y0579*
X01273Y05791*
X01272Y05792*
X01272Y05793*
X01272Y05793*
X01271Y05794*
X0127Y05795*
X0127Y05796*
X01269Y05796*
X01269Y05797*
X01268Y05798*
X01267Y05798*
X01266Y05799*
X01265Y05799*
X01265Y058*
X01264Y058*
X01263Y058*
X01262Y058*
X01261Y05801*
X0126Y05801*
X01259*
X01258Y05801*
X01257Y058*
X01256Y058*
X01255Y058*
X01254Y058*
X01253Y05799*
X01252Y05799*
X01252Y05798*
X01251Y05798*
X0125Y05797*
X01249Y05796*
X01249Y05796*
X01248Y05795*
X01248Y05794*
X01247Y05793*
X01247Y05793*
X01246Y05792*
X01246Y05791*
X01246Y0579*
X01246Y05789*
X01246Y05788*
X01246Y05787*
X01246Y05786*
X01246Y05785*
X01246Y05784*
X01246Y05783*
X01246Y05782*
X01247Y05781*
X01247Y0578*
X01248Y0578*
X01248Y05779*
X01249Y05778*
X01249Y05777*
X0125Y05777*
X01251Y05776*
X01252Y05775*
X01252Y05775*
X01253Y05775*
X01254Y05774*
X01255Y05774*
X01256Y05774*
X01257Y05773*
X01258Y05773*
X01259Y05773*
X0126*
X01261Y05773*
X01262Y05773*
X01263Y05774*
X01264Y05774*
X01265Y05774*
X01265Y05775*
X01266Y05775*
X01267Y05775*
X01268Y05776*
X01269Y05777*
X01269Y05777*
X0127Y05778*
X0127Y05779*
X01271Y0578*
X01272Y0578*
X01272Y05781*
X01272Y05782*
X01273Y05783*
X01273Y05784*
X01273Y05785*
X01273Y05786*
X01273Y05787*
X00564D02*
D01*
X00564Y05788*
X00564Y05789*
X00564Y0579*
X00564Y05791*
X00564Y05792*
X00563Y05793*
X00563Y05793*
X00562Y05794*
X00562Y05795*
X00561Y05796*
X00561Y05796*
X0056Y05797*
X00559Y05798*
X00558Y05798*
X00558Y05799*
X00557Y05799*
X00556Y058*
X00555Y058*
X00554Y058*
X00553Y058*
X00552Y05801*
X00551Y05801*
X0055*
X00549Y05801*
X00548Y058*
X00547Y058*
X00546Y058*
X00546Y058*
X00545Y05799*
X00544Y05799*
X00543Y05798*
X00542Y05798*
X00541Y05797*
X00541Y05796*
X0054Y05796*
X0054Y05795*
X00539Y05794*
X00539Y05793*
X00538Y05793*
X00538Y05792*
X00537Y05791*
X00537Y0579*
X00537Y05789*
X00537Y05788*
X00537Y05787*
X00537Y05786*
X00537Y05785*
X00537Y05784*
X00537Y05783*
X00538Y05782*
X00538Y05781*
X00539Y0578*
X00539Y0578*
X0054Y05779*
X0054Y05778*
X00541Y05777*
X00541Y05777*
X00542Y05776*
X00543Y05775*
X00544Y05775*
X00545Y05775*
X00546Y05774*
X00546Y05774*
X00547Y05774*
X00548Y05773*
X00549Y05773*
X0055Y05773*
X00551*
X00552Y05773*
X00553Y05773*
X00554Y05774*
X00555Y05774*
X00556Y05774*
X00557Y05775*
X00558Y05775*
X00558Y05775*
X00559Y05776*
X0056Y05777*
X00561Y05777*
X00561Y05778*
X00562Y05779*
X00562Y0578*
X00563Y0578*
X00563Y05781*
X00564Y05782*
X00564Y05783*
X00564Y05784*
X00564Y05785*
X00564Y05786*
X00564Y05787*
X07651Y06653D02*
D01*
X07651Y06654*
X07651Y06655*
X07651Y06656*
X07651Y06657*
X0765Y06658*
X0765Y06659*
X07649Y0666*
X07649Y0666*
X07648Y06661*
X07648Y06662*
X07647Y06663*
X07647Y06663*
X07646Y06664*
X07645Y06664*
X07644Y06665*
X07643Y06665*
X07642Y06666*
X07642Y06666*
X07641Y06666*
X0764Y06667*
X07639Y06667*
X07638Y06667*
X07637*
X07636Y06667*
X07635Y06667*
X07634Y06666*
X07633Y06666*
X07632Y06666*
X07631Y06665*
X0763Y06665*
X0763Y06664*
X07629Y06664*
X07628Y06663*
X07627Y06663*
X07627Y06662*
X07626Y06661*
X07626Y0666*
X07625Y0666*
X07625Y06659*
X07624Y06658*
X07624Y06657*
X07624Y06656*
X07624Y06655*
X07624Y06654*
X07624Y06653*
X07624Y06652*
X07624Y06651*
X07624Y0665*
X07624Y06649*
X07624Y06648*
X07625Y06647*
X07625Y06647*
X07626Y06646*
X07626Y06645*
X07627Y06644*
X07627Y06643*
X07628Y06643*
X07629Y06642*
X0763Y06642*
X0763Y06641*
X07631Y06641*
X07632Y0664*
X07633Y0664*
X07634Y0664*
X07635Y06639*
X07636Y06639*
X07637Y06639*
X07638*
X07639Y06639*
X0764Y06639*
X07641Y0664*
X07642Y0664*
X07642Y0664*
X07643Y06641*
X07644Y06641*
X07645Y06642*
X07646Y06642*
X07647Y06643*
X07647Y06643*
X07648Y06644*
X07648Y06645*
X07649Y06646*
X07649Y06647*
X0765Y06647*
X0765Y06648*
X07651Y06649*
X07651Y0665*
X07651Y06651*
X07651Y06652*
X07651Y06653*
X06982D02*
D01*
X06982Y06654*
X06982Y06655*
X06981Y06656*
X06981Y06657*
X06981Y06658*
X06981Y06659*
X0698Y0666*
X0698Y0666*
X06979Y06661*
X06979Y06662*
X06978Y06663*
X06977Y06663*
X06976Y06664*
X06976Y06664*
X06975Y06665*
X06974Y06665*
X06973Y06666*
X06972Y06666*
X06971Y06666*
X0697Y06667*
X06969Y06667*
X06968Y06667*
X06968*
X06967Y06667*
X06966Y06667*
X06965Y06666*
X06964Y06666*
X06963Y06666*
X06962Y06665*
X06961Y06665*
X0696Y06664*
X0696Y06664*
X06959Y06663*
X06958Y06663*
X06957Y06662*
X06957Y06661*
X06956Y0666*
X06956Y0666*
X06955Y06659*
X06955Y06658*
X06955Y06657*
X06955Y06656*
X06954Y06655*
X06954Y06654*
X06954Y06653*
X06954Y06652*
X06954Y06651*
X06955Y0665*
X06955Y06649*
X06955Y06648*
X06955Y06647*
X06956Y06647*
X06956Y06646*
X06957Y06645*
X06957Y06644*
X06958Y06643*
X06959Y06643*
X0696Y06642*
X0696Y06642*
X06961Y06641*
X06962Y06641*
X06963Y0664*
X06964Y0664*
X06965Y0664*
X06966Y06639*
X06967Y06639*
X06968Y06639*
X06968*
X06969Y06639*
X0697Y06639*
X06971Y0664*
X06972Y0664*
X06973Y0664*
X06974Y06641*
X06975Y06641*
X06976Y06642*
X06976Y06642*
X06977Y06643*
X06978Y06643*
X06979Y06644*
X06979Y06645*
X0698Y06646*
X0698Y06647*
X06981Y06647*
X06981Y06648*
X06981Y06649*
X06981Y0665*
X06982Y06651*
X06982Y06652*
X06982Y06653*
X06312D02*
D01*
X06312Y06654*
X06312Y06655*
X06312Y06656*
X06312Y06657*
X06312Y06658*
X06311Y06659*
X06311Y0666*
X0631Y0666*
X0631Y06661*
X06309Y06662*
X06309Y06663*
X06308Y06663*
X06307Y06664*
X06306Y06664*
X06306Y06665*
X06305Y06665*
X06304Y06666*
X06303Y06666*
X06302Y06666*
X06301Y06667*
X063Y06667*
X06299Y06667*
X06298*
X06297Y06667*
X06296Y06667*
X06295Y06666*
X06294Y06666*
X06294Y06666*
X06293Y06665*
X06292Y06665*
X06291Y06664*
X0629Y06664*
X06289Y06663*
X06289Y06663*
X06288Y06662*
X06288Y06661*
X06287Y0666*
X06287Y0666*
X06286Y06659*
X06286Y06658*
X06285Y06657*
X06285Y06656*
X06285Y06655*
X06285Y06654*
X06285Y06653*
X06285Y06652*
X06285Y06651*
X06285Y0665*
X06285Y06649*
X06286Y06648*
X06286Y06647*
X06287Y06647*
X06287Y06646*
X06288Y06645*
X06288Y06644*
X06289Y06643*
X06289Y06643*
X0629Y06642*
X06291Y06642*
X06292Y06641*
X06293Y06641*
X06294Y0664*
X06294Y0664*
X06295Y0664*
X06296Y06639*
X06297Y06639*
X06298Y06639*
X06299*
X063Y06639*
X06301Y06639*
X06302Y0664*
X06303Y0664*
X06304Y0664*
X06305Y06641*
X06306Y06641*
X06306Y06642*
X06307Y06642*
X06308Y06643*
X06309Y06643*
X06309Y06644*
X0631Y06645*
X0631Y06646*
X06311Y06647*
X06311Y06647*
X06312Y06648*
X06312Y06649*
X06312Y0665*
X06312Y06651*
X06312Y06652*
X06312Y06653*
X05446D02*
D01*
X05446Y06654*
X05446Y06655*
X05446Y06656*
X05446Y06657*
X05446Y06658*
X05445Y06659*
X05445Y0666*
X05444Y0666*
X05444Y06661*
X05443Y06662*
X05442Y06663*
X05442Y06663*
X05441Y06664*
X0544Y06664*
X05439Y06665*
X05439Y06665*
X05438Y06666*
X05437Y06666*
X05436Y06666*
X05435Y06667*
X05434Y06667*
X05433Y06667*
X05432*
X05431Y06667*
X0543Y06667*
X05429Y06666*
X05428Y06666*
X05427Y06666*
X05427Y06665*
X05426Y06665*
X05425Y06664*
X05424Y06664*
X05423Y06663*
X05423Y06663*
X05422Y06662*
X05421Y06661*
X05421Y0666*
X0542Y0666*
X0542Y06659*
X0542Y06658*
X05419Y06657*
X05419Y06656*
X05419Y06655*
X05419Y06654*
X05419Y06653*
X05419Y06652*
X05419Y06651*
X05419Y0665*
X05419Y06649*
X0542Y06648*
X0542Y06647*
X0542Y06647*
X05421Y06646*
X05421Y06645*
X05422Y06644*
X05423Y06643*
X05423Y06643*
X05424Y06642*
X05425Y06642*
X05426Y06641*
X05427Y06641*
X05427Y0664*
X05428Y0664*
X05429Y0664*
X0543Y06639*
X05431Y06639*
X05432Y06639*
X05433*
X05434Y06639*
X05435Y06639*
X05436Y0664*
X05437Y0664*
X05438Y0664*
X05439Y06641*
X05439Y06641*
X0544Y06642*
X05441Y06642*
X05442Y06643*
X05442Y06643*
X05443Y06644*
X05444Y06645*
X05444Y06646*
X05445Y06647*
X05445Y06647*
X05446Y06648*
X05446Y06649*
X05446Y0665*
X05446Y06651*
X05446Y06652*
X05446Y06653*
X04777D02*
D01*
X04777Y06654*
X04777Y06655*
X04777Y06656*
X04777Y06657*
X04776Y06658*
X04776Y06659*
X04775Y0666*
X04775Y0666*
X04774Y06661*
X04774Y06662*
X04773Y06663*
X04772Y06663*
X04772Y06664*
X04771Y06664*
X0477Y06665*
X04769Y06665*
X04768Y06666*
X04768Y06666*
X04767Y06666*
X04766Y06667*
X04765Y06667*
X04764Y06667*
X04763*
X04762Y06667*
X04761Y06667*
X0476Y06666*
X04759Y06666*
X04758Y06666*
X04757Y06665*
X04756Y06665*
X04756Y06664*
X04755Y06664*
X04754Y06663*
X04753Y06663*
X04753Y06662*
X04752Y06661*
X04752Y0666*
X04751Y0666*
X04751Y06659*
X0475Y06658*
X0475Y06657*
X0475Y06656*
X0475Y06655*
X0475Y06654*
X0475Y06653*
X0475Y06652*
X0475Y06651*
X0475Y0665*
X0475Y06649*
X0475Y06648*
X04751Y06647*
X04751Y06647*
X04752Y06646*
X04752Y06645*
X04753Y06644*
X04753Y06643*
X04754Y06643*
X04755Y06642*
X04756Y06642*
X04756Y06641*
X04757Y06641*
X04758Y0664*
X04759Y0664*
X0476Y0664*
X04761Y06639*
X04762Y06639*
X04763Y06639*
X04764*
X04765Y06639*
X04766Y06639*
X04767Y0664*
X04768Y0664*
X04768Y0664*
X04769Y06641*
X0477Y06641*
X04771Y06642*
X04772Y06642*
X04772Y06643*
X04773Y06643*
X04774Y06644*
X04774Y06645*
X04775Y06646*
X04775Y06647*
X04776Y06647*
X04776Y06648*
X04777Y06649*
X04777Y0665*
X04777Y06651*
X04777Y06652*
X04777Y06653*
X04102Y06655D02*
D01*
X04102Y06656*
X04102Y06657*
X04102Y06658*
X04101Y06659*
X04101Y0666*
X04101Y06661*
X041Y06661*
X041Y06662*
X04099Y06663*
X04099Y06664*
X04098Y06665*
X04097Y06665*
X04097Y06666*
X04096Y06666*
X04095Y06667*
X04094Y06667*
X04093Y06668*
X04092Y06668*
X04091Y06668*
X0409Y06669*
X0409Y06669*
X04089Y06669*
X04088*
X04087Y06669*
X04086Y06669*
X04085Y06668*
X04084Y06668*
X04083Y06668*
X04082Y06667*
X04081Y06667*
X0408Y06666*
X0408Y06666*
X04079Y06665*
X04078Y06665*
X04078Y06664*
X04077Y06663*
X04076Y06662*
X04076Y06661*
X04075Y06661*
X04075Y0666*
X04075Y06659*
X04075Y06658*
X04074Y06657*
X04074Y06656*
X04074Y06655*
X04074Y06654*
X04074Y06653*
X04075Y06652*
X04075Y06651*
X04075Y0665*
X04075Y06649*
X04076Y06649*
X04076Y06648*
X04077Y06647*
X04078Y06646*
X04078Y06645*
X04079Y06645*
X0408Y06644*
X0408Y06644*
X04081Y06643*
X04082Y06643*
X04083Y06642*
X04084Y06642*
X04085Y06642*
X04086Y06641*
X04087Y06641*
X04088Y06641*
X04089*
X0409Y06641*
X0409Y06641*
X04091Y06642*
X04092Y06642*
X04093Y06642*
X04094Y06643*
X04095Y06643*
X04096Y06644*
X04097Y06644*
X04097Y06645*
X04098Y06645*
X04099Y06646*
X04099Y06647*
X041Y06648*
X041Y06649*
X04101Y06649*
X04101Y0665*
X04101Y06651*
X04102Y06652*
X04102Y06653*
X04102Y06654*
X04102Y06655*
X03438Y06653D02*
D01*
X03438Y06654*
X03438Y06655*
X03438Y06656*
X03438Y06657*
X03438Y06658*
X03437Y06659*
X03437Y0666*
X03436Y0666*
X03436Y06661*
X03435Y06662*
X03435Y06663*
X03434Y06663*
X03433Y06664*
X03432Y06664*
X03432Y06665*
X03431Y06665*
X0343Y06666*
X03429Y06666*
X03428Y06666*
X03427Y06667*
X03426Y06667*
X03425Y06667*
X03424*
X03423Y06667*
X03422Y06667*
X03421Y06666*
X0342Y06666*
X0342Y06666*
X03419Y06665*
X03418Y06665*
X03417Y06664*
X03416Y06664*
X03415Y06663*
X03415Y06663*
X03414Y06662*
X03414Y06661*
X03413Y0666*
X03413Y0666*
X03412Y06659*
X03412Y06658*
X03411Y06657*
X03411Y06656*
X03411Y06655*
X03411Y06654*
X03411Y06653*
X03411Y06652*
X03411Y06651*
X03411Y0665*
X03411Y06649*
X03412Y06648*
X03412Y06647*
X03413Y06647*
X03413Y06646*
X03414Y06645*
X03414Y06644*
X03415Y06643*
X03415Y06643*
X03416Y06642*
X03417Y06642*
X03418Y06641*
X03419Y06641*
X0342Y0664*
X0342Y0664*
X03421Y0664*
X03422Y06639*
X03423Y06639*
X03424Y06639*
X03425*
X03426Y06639*
X03427Y06639*
X03428Y0664*
X03429Y0664*
X0343Y0664*
X03431Y06641*
X03432Y06641*
X03432Y06642*
X03433Y06642*
X03434Y06643*
X03435Y06643*
X03435Y06644*
X03436Y06645*
X03436Y06646*
X03437Y06647*
X03437Y06647*
X03438Y06648*
X03438Y06649*
X03438Y0665*
X03438Y06651*
X03438Y06652*
X03438Y06653*
X02454D02*
D01*
X02454Y06654*
X02454Y06655*
X02454Y06656*
X02454Y06657*
X02453Y06658*
X02453Y06659*
X02453Y0666*
X02452Y0666*
X02452Y06661*
X02451Y06662*
X0245Y06663*
X0245Y06663*
X02449Y06664*
X02448Y06664*
X02447Y06665*
X02446Y06665*
X02446Y06666*
X02445Y06666*
X02444Y06666*
X02443Y06667*
X02442Y06667*
X02441Y06667*
X0244*
X02439Y06667*
X02438Y06667*
X02437Y06666*
X02436Y06666*
X02435Y06666*
X02434Y06665*
X02434Y06665*
X02433Y06664*
X02432Y06664*
X02431Y06663*
X02431Y06663*
X0243Y06662*
X02429Y06661*
X02429Y0666*
X02428Y0666*
X02428Y06659*
X02427Y06658*
X02427Y06657*
X02427Y06656*
X02427Y06655*
X02427Y06654*
X02427Y06653*
X02427Y06652*
X02427Y06651*
X02427Y0665*
X02427Y06649*
X02427Y06648*
X02428Y06647*
X02428Y06647*
X02429Y06646*
X02429Y06645*
X0243Y06644*
X02431Y06643*
X02431Y06643*
X02432Y06642*
X02433Y06642*
X02434Y06641*
X02434Y06641*
X02435Y0664*
X02436Y0664*
X02437Y0664*
X02438Y06639*
X02439Y06639*
X0244Y06639*
X02441*
X02442Y06639*
X02443Y06639*
X02444Y0664*
X02445Y0664*
X02446Y0664*
X02446Y06641*
X02447Y06641*
X02448Y06642*
X02449Y06642*
X0245Y06643*
X0245Y06643*
X02451Y06644*
X02452Y06645*
X02452Y06646*
X02453Y06647*
X02453Y06647*
X02453Y06648*
X02454Y06649*
X02454Y0665*
X02454Y06651*
X02454Y06652*
X02454Y06653*
X01785D02*
D01*
X01785Y06654*
X01785Y06655*
X01785Y06656*
X01784Y06657*
X01784Y06658*
X01784Y06659*
X01783Y0666*
X01783Y0666*
X01782Y06661*
X01782Y06662*
X01781Y06663*
X0178Y06663*
X0178Y06664*
X01779Y06664*
X01778Y06665*
X01777Y06665*
X01776Y06666*
X01775Y06666*
X01774Y06666*
X01774Y06667*
X01773Y06667*
X01772Y06667*
X01771*
X0177Y06667*
X01769Y06667*
X01768Y06666*
X01767Y06666*
X01766Y06666*
X01765Y06665*
X01764Y06665*
X01763Y06664*
X01763Y06664*
X01762Y06663*
X01761Y06663*
X01761Y06662*
X0176Y06661*
X01759Y0666*
X01759Y0666*
X01759Y06659*
X01758Y06658*
X01758Y06657*
X01758Y06656*
X01758Y06655*
X01757Y06654*
X01757Y06653*
X01757Y06652*
X01758Y06651*
X01758Y0665*
X01758Y06649*
X01758Y06648*
X01759Y06647*
X01759Y06647*
X01759Y06646*
X0176Y06645*
X01761Y06644*
X01761Y06643*
X01762Y06643*
X01763Y06642*
X01763Y06642*
X01764Y06641*
X01765Y06641*
X01766Y0664*
X01767Y0664*
X01768Y0664*
X01769Y06639*
X0177Y06639*
X01771Y06639*
X01772*
X01773Y06639*
X01774Y06639*
X01774Y0664*
X01775Y0664*
X01776Y0664*
X01777Y06641*
X01778Y06641*
X01779Y06642*
X0178Y06642*
X0178Y06643*
X01781Y06643*
X01782Y06644*
X01782Y06645*
X01783Y06646*
X01783Y06647*
X01784Y06647*
X01784Y06648*
X01784Y06649*
X01785Y0665*
X01785Y06651*
X01785Y06652*
X01785Y06653*
X01116D02*
D01*
X01116Y06654*
X01116Y06655*
X01115Y06656*
X01115Y06657*
X01115Y06658*
X01114Y06659*
X01114Y0666*
X01114Y0666*
X01113Y06661*
X01112Y06662*
X01112Y06663*
X01111Y06663*
X0111Y06664*
X0111Y06664*
X01109Y06665*
X01108Y06665*
X01107Y06666*
X01106Y06666*
X01105Y06666*
X01104Y06667*
X01103Y06667*
X01102Y06667*
X01101*
X011Y06667*
X01099Y06667*
X01099Y06666*
X01098Y06666*
X01097Y06666*
X01096Y06665*
X01095Y06665*
X01094Y06664*
X01093Y06664*
X01093Y06663*
X01092Y06663*
X01091Y06662*
X01091Y06661*
X0109Y0666*
X0109Y0666*
X01089Y06659*
X01089Y06658*
X01089Y06657*
X01088Y06656*
X01088Y06655*
X01088Y06654*
X01088Y06653*
X01088Y06652*
X01088Y06651*
X01088Y0665*
X01089Y06649*
X01089Y06648*
X01089Y06647*
X0109Y06647*
X0109Y06646*
X01091Y06645*
X01091Y06644*
X01092Y06643*
X01093Y06643*
X01093Y06642*
X01094Y06642*
X01095Y06641*
X01096Y06641*
X01097Y0664*
X01098Y0664*
X01099Y0664*
X01099Y06639*
X011Y06639*
X01101Y06639*
X01102*
X01103Y06639*
X01104Y06639*
X01105Y0664*
X01106Y0664*
X01107Y0664*
X01108Y06641*
X01109Y06641*
X0111Y06642*
X0111Y06642*
X01111Y06643*
X01112Y06643*
X01112Y06644*
X01113Y06645*
X01114Y06646*
X01114Y06647*
X01114Y06647*
X01115Y06648*
X01115Y06649*
X01115Y0665*
X01116Y06651*
X01116Y06652*
X01116Y06653*
X00446D02*
D01*
X00446Y06654*
X00446Y06655*
X00446Y06656*
X00446Y06657*
X00446Y06658*
X00445Y06659*
X00445Y0666*
X00444Y0666*
X00444Y06661*
X00443Y06662*
X00442Y06663*
X00442Y06663*
X00441Y06664*
X0044Y06664*
X00439Y06665*
X00439Y06665*
X00438Y06666*
X00437Y06666*
X00436Y06666*
X00435Y06667*
X00434Y06667*
X00433Y06667*
X00432*
X00431Y06667*
X0043Y06667*
X00429Y06666*
X00428Y06666*
X00427Y06666*
X00427Y06665*
X00426Y06665*
X00425Y06664*
X00424Y06664*
X00423Y06663*
X00423Y06663*
X00422Y06662*
X00421Y06661*
X00421Y0666*
X0042Y0666*
X0042Y06659*
X0042Y06658*
X00419Y06657*
X00419Y06656*
X00419Y06655*
X00419Y06654*
X00419Y06653*
X00419Y06652*
X00419Y06651*
X00419Y0665*
X00419Y06649*
X0042Y06648*
X0042Y06647*
X0042Y06647*
X00421Y06646*
X00421Y06645*
X00422Y06644*
X00423Y06643*
X00423Y06643*
X00424Y06642*
X00425Y06642*
X00426Y06641*
X00427Y06641*
X00427Y0664*
X00428Y0664*
X00429Y0664*
X0043Y06639*
X00431Y06639*
X00432Y06639*
X00433*
X00434Y06639*
X00435Y06639*
X00436Y0664*
X00437Y0664*
X00438Y0664*
X00439Y06641*
X00439Y06641*
X0044Y06642*
X00441Y06642*
X00442Y06643*
X00442Y06643*
X00443Y06644*
X00444Y06645*
X00444Y06646*
X00445Y06647*
X00445Y06647*
X00446Y06648*
X00446Y06649*
X00446Y0665*
X00446Y06651*
X00446Y06652*
X00446Y06653*
X07533Y07559D02*
D01*
X07533Y0756*
X07533Y0756*
X07533Y07561*
X07532Y07562*
X07532Y07563*
X07532Y07564*
X07531Y07565*
X07531Y07566*
X0753Y07567*
X0753Y07567*
X07529Y07568*
X07528Y07569*
X07528Y07569*
X07527Y0757*
X07526Y0757*
X07525Y07571*
X07524Y07571*
X07523Y07572*
X07523Y07572*
X07522Y07572*
X07521Y07572*
X0752Y07572*
X07519*
X07518Y07572*
X07517Y07572*
X07516Y07572*
X07515Y07572*
X07514Y07571*
X07513Y07571*
X07512Y0757*
X07511Y0757*
X07511Y07569*
X0751Y07569*
X07509Y07568*
X07509Y07567*
X07508Y07567*
X07507Y07566*
X07507Y07565*
X07507Y07564*
X07506Y07563*
X07506Y07562*
X07506Y07561*
X07506Y0756*
X07505Y0756*
X07505Y07559*
X07505Y07558*
X07506Y07557*
X07506Y07556*
X07506Y07555*
X07506Y07554*
X07507Y07553*
X07507Y07552*
X07507Y07551*
X07508Y0755*
X07509Y0755*
X07509Y07549*
X0751Y07548*
X07511Y07548*
X07511Y07547*
X07512Y07547*
X07513Y07546*
X07514Y07546*
X07515Y07545*
X07516Y07545*
X07517Y07545*
X07518Y07545*
X07519Y07545*
X0752*
X07521Y07545*
X07522Y07545*
X07523Y07545*
X07523Y07545*
X07524Y07546*
X07525Y07546*
X07526Y07547*
X07527Y07547*
X07528Y07548*
X07528Y07548*
X07529Y07549*
X0753Y0755*
X0753Y0755*
X07531Y07551*
X07531Y07552*
X07532Y07553*
X07532Y07554*
X07532Y07555*
X07533Y07556*
X07533Y07557*
X07533Y07558*
X07533Y07559*
X06909D02*
D01*
X06909Y0756*
X06909Y0756*
X06909Y07561*
X06908Y07562*
X06908Y07563*
X06908Y07564*
X06907Y07565*
X06907Y07566*
X06906Y07567*
X06906Y07567*
X06905Y07568*
X06904Y07569*
X06904Y07569*
X06903Y0757*
X06902Y0757*
X06901Y07571*
X069Y07571*
X06899Y07572*
X06899Y07572*
X06898Y07572*
X06897Y07572*
X06896Y07572*
X06895*
X06894Y07572*
X06893Y07572*
X06892Y07572*
X06891Y07572*
X0689Y07571*
X06889Y07571*
X06888Y0757*
X06887Y0757*
X06887Y07569*
X06886Y07569*
X06885Y07568*
X06885Y07567*
X06884Y07567*
X06883Y07566*
X06883Y07565*
X06883Y07564*
X06882Y07563*
X06882Y07562*
X06882Y07561*
X06882Y0756*
X06881Y0756*
X06881Y07559*
X06881Y07558*
X06882Y07557*
X06882Y07556*
X06882Y07555*
X06882Y07554*
X06883Y07553*
X06883Y07552*
X06883Y07551*
X06884Y0755*
X06885Y0755*
X06885Y07549*
X06886Y07548*
X06887Y07548*
X06887Y07547*
X06888Y07547*
X06889Y07546*
X0689Y07546*
X06891Y07545*
X06892Y07545*
X06893Y07545*
X06894Y07545*
X06895Y07545*
X06896*
X06897Y07545*
X06898Y07545*
X06899Y07545*
X06899Y07545*
X069Y07546*
X06901Y07546*
X06902Y07547*
X06903Y07547*
X06904Y07548*
X06904Y07548*
X06905Y07549*
X06906Y0755*
X06906Y0755*
X06907Y07551*
X06907Y07552*
X06908Y07553*
X06908Y07554*
X06908Y07555*
X06909Y07556*
X06909Y07557*
X06909Y07558*
X06909Y07559*
X06194D02*
D01*
X06194Y0756*
X06194Y0756*
X06194Y07561*
X06194Y07562*
X06194Y07563*
X06193Y07564*
X06193Y07565*
X06192Y07566*
X06192Y07567*
X06191Y07567*
X06191Y07568*
X0619Y07569*
X06189Y07569*
X06188Y0757*
X06187Y0757*
X06187Y07571*
X06186Y07571*
X06185Y07572*
X06184Y07572*
X06183Y07572*
X06182Y07572*
X06181Y07572*
X0618*
X06179Y07572*
X06178Y07572*
X06177Y07572*
X06176Y07572*
X06175Y07571*
X06175Y07571*
X06174Y0757*
X06173Y0757*
X06172Y07569*
X06171Y07569*
X06171Y07568*
X0617Y07567*
X06169Y07567*
X06169Y07566*
X06168Y07565*
X06168Y07564*
X06168Y07563*
X06167Y07562*
X06167Y07561*
X06167Y0756*
X06167Y0756*
X06167Y07559*
X06167Y07558*
X06167Y07557*
X06167Y07556*
X06167Y07555*
X06168Y07554*
X06168Y07553*
X06168Y07552*
X06169Y07551*
X06169Y0755*
X0617Y0755*
X06171Y07549*
X06171Y07548*
X06172Y07548*
X06173Y07547*
X06174Y07547*
X06175Y07546*
X06175Y07546*
X06176Y07545*
X06177Y07545*
X06178Y07545*
X06179Y07545*
X0618Y07545*
X06181*
X06182Y07545*
X06183Y07545*
X06184Y07545*
X06185Y07545*
X06186Y07546*
X06187Y07546*
X06187Y07547*
X06188Y07547*
X06189Y07548*
X0619Y07548*
X06191Y07549*
X06191Y0755*
X06192Y0755*
X06192Y07551*
X06193Y07552*
X06193Y07553*
X06194Y07554*
X06194Y07555*
X06194Y07556*
X06194Y07557*
X06194Y07558*
X06194Y07559*
X05328D02*
D01*
X05328Y0756*
X05328Y0756*
X05328Y07561*
X05328Y07562*
X05327Y07563*
X05327Y07564*
X05327Y07565*
X05326Y07566*
X05326Y07567*
X05325Y07567*
X05324Y07568*
X05324Y07569*
X05323Y07569*
X05322Y0757*
X05321Y0757*
X05321Y07571*
X0532Y07571*
X05319Y07572*
X05318Y07572*
X05317Y07572*
X05316Y07572*
X05315Y07572*
X05314*
X05313Y07572*
X05312Y07572*
X05311Y07572*
X0531Y07572*
X05309Y07571*
X05308Y07571*
X05308Y0757*
X05307Y0757*
X05306Y07569*
X05305Y07569*
X05305Y07568*
X05304Y07567*
X05303Y07567*
X05303Y07566*
X05302Y07565*
X05302Y07564*
X05302Y07563*
X05301Y07562*
X05301Y07561*
X05301Y0756*
X05301Y0756*
X05301Y07559*
X05301Y07558*
X05301Y07557*
X05301Y07556*
X05301Y07555*
X05302Y07554*
X05302Y07553*
X05302Y07552*
X05303Y07551*
X05303Y0755*
X05304Y0755*
X05305Y07549*
X05305Y07548*
X05306Y07548*
X05307Y07547*
X05308Y07547*
X05308Y07546*
X05309Y07546*
X0531Y07545*
X05311Y07545*
X05312Y07545*
X05313Y07545*
X05314Y07545*
X05315*
X05316Y07545*
X05317Y07545*
X05318Y07545*
X05319Y07545*
X0532Y07546*
X05321Y07546*
X05321Y07547*
X05322Y07547*
X05323Y07548*
X05324Y07548*
X05324Y07549*
X05325Y0755*
X05326Y0755*
X05326Y07551*
X05327Y07552*
X05327Y07553*
X05327Y07554*
X05328Y07555*
X05328Y07556*
X05328Y07557*
X05328Y07558*
X05328Y07559*
X04822D02*
D01*
X04822Y0756*
X04822Y0756*
X04822Y07561*
X04822Y07562*
X04822Y07563*
X04821Y07564*
X04821Y07565*
X0482Y07566*
X0482Y07567*
X04819Y07567*
X04818Y07568*
X04818Y07569*
X04817Y07569*
X04816Y0757*
X04815Y0757*
X04815Y07571*
X04814Y07571*
X04813Y07572*
X04812Y07572*
X04811Y07572*
X0481Y07572*
X04809Y07572*
X04808*
X04807Y07572*
X04806Y07572*
X04805Y07572*
X04804Y07572*
X04803Y07571*
X04803Y07571*
X04802Y0757*
X04801Y0757*
X048Y07569*
X04799Y07569*
X04799Y07568*
X04798Y07567*
X04797Y07567*
X04797Y07566*
X04796Y07565*
X04796Y07564*
X04796Y07563*
X04795Y07562*
X04795Y07561*
X04795Y0756*
X04795Y0756*
X04795Y07559*
X04795Y07558*
X04795Y07557*
X04795Y07556*
X04795Y07555*
X04796Y07554*
X04796Y07553*
X04796Y07552*
X04797Y07551*
X04797Y0755*
X04798Y0755*
X04799Y07549*
X04799Y07548*
X048Y07548*
X04801Y07547*
X04802Y07547*
X04803Y07546*
X04803Y07546*
X04804Y07545*
X04805Y07545*
X04806Y07545*
X04807Y07545*
X04808Y07545*
X04809*
X0481Y07545*
X04811Y07545*
X04812Y07545*
X04813Y07545*
X04814Y07546*
X04815Y07546*
X04815Y07547*
X04816Y07547*
X04817Y07548*
X04818Y07548*
X04818Y07549*
X04819Y0755*
X0482Y0755*
X0482Y07551*
X04821Y07552*
X04821Y07553*
X04822Y07554*
X04822Y07555*
X04822Y07556*
X04822Y07557*
X04822Y07558*
X04822Y07559*
X04153D02*
D01*
X04153Y0756*
X04153Y0756*
X04153Y07561*
X04153Y07562*
X04152Y07563*
X04152Y07564*
X04151Y07565*
X04151Y07566*
X0415Y07567*
X0415Y07567*
X04149Y07568*
X04148Y07569*
X04148Y07569*
X04147Y0757*
X04146Y0757*
X04145Y07571*
X04144Y07571*
X04144Y07572*
X04143Y07572*
X04142Y07572*
X04141Y07572*
X0414Y07572*
X04139*
X04138Y07572*
X04137Y07572*
X04136Y07572*
X04135Y07572*
X04134Y07571*
X04133Y07571*
X04132Y0757*
X04132Y0757*
X04131Y07569*
X0413Y07569*
X04129Y07568*
X04129Y07567*
X04128Y07567*
X04128Y07566*
X04127Y07565*
X04127Y07564*
X04126Y07563*
X04126Y07562*
X04126Y07561*
X04126Y0756*
X04126Y0756*
X04125Y07559*
X04126Y07558*
X04126Y07557*
X04126Y07556*
X04126Y07555*
X04126Y07554*
X04127Y07553*
X04127Y07552*
X04128Y07551*
X04128Y0755*
X04129Y0755*
X04129Y07549*
X0413Y07548*
X04131Y07548*
X04132Y07547*
X04132Y07547*
X04133Y07546*
X04134Y07546*
X04135Y07545*
X04136Y07545*
X04137Y07545*
X04138Y07545*
X04139Y07545*
X0414*
X04141Y07545*
X04142Y07545*
X04143Y07545*
X04144Y07545*
X04144Y07546*
X04145Y07546*
X04146Y07547*
X04147Y07547*
X04148Y07548*
X04148Y07548*
X04149Y07549*
X0415Y0755*
X0415Y0755*
X04151Y07551*
X04151Y07552*
X04152Y07553*
X04152Y07554*
X04153Y07555*
X04153Y07556*
X04153Y07557*
X04153Y07558*
X04153Y07559*
X03517D02*
D01*
X03517Y0756*
X03517Y0756*
X03517Y07561*
X03517Y07562*
X03516Y07563*
X03516Y07564*
X03516Y07565*
X03515Y07566*
X03515Y07567*
X03514Y07567*
X03513Y07568*
X03513Y07569*
X03512Y07569*
X03511Y0757*
X0351Y0757*
X03509Y07571*
X03509Y07571*
X03508Y07572*
X03507Y07572*
X03506Y07572*
X03505Y07572*
X03504Y07572*
X03503*
X03502Y07572*
X03501Y07572*
X035Y07572*
X03499Y07572*
X03498Y07571*
X03497Y07571*
X03497Y0757*
X03496Y0757*
X03495Y07569*
X03494Y07569*
X03494Y07568*
X03493Y07567*
X03492Y07567*
X03492Y07566*
X03491Y07565*
X03491Y07564*
X0349Y07563*
X0349Y07562*
X0349Y07561*
X0349Y0756*
X0349Y0756*
X0349Y07559*
X0349Y07558*
X0349Y07557*
X0349Y07556*
X0349Y07555*
X0349Y07554*
X03491Y07553*
X03491Y07552*
X03492Y07551*
X03492Y0755*
X03493Y0755*
X03494Y07549*
X03494Y07548*
X03495Y07548*
X03496Y07547*
X03497Y07547*
X03497Y07546*
X03498Y07546*
X03499Y07545*
X035Y07545*
X03501Y07545*
X03502Y07545*
X03503Y07545*
X03504*
X03505Y07545*
X03506Y07545*
X03507Y07545*
X03508Y07545*
X03509Y07546*
X03509Y07546*
X0351Y07547*
X03511Y07547*
X03512Y07548*
X03513Y07548*
X03513Y07549*
X03514Y0755*
X03515Y0755*
X03515Y07551*
X03516Y07552*
X03516Y07553*
X03516Y07554*
X03517Y07555*
X03517Y07556*
X03517Y07557*
X03517Y07558*
X03517Y07559*
X02415D02*
D01*
X02415Y0756*
X02415Y0756*
X02415Y07561*
X02414Y07562*
X02414Y07563*
X02414Y07564*
X02413Y07565*
X02413Y07566*
X02412Y07567*
X02412Y07567*
X02411Y07568*
X0241Y07569*
X0241Y07569*
X02409Y0757*
X02408Y0757*
X02407Y07571*
X02406Y07571*
X02405Y07572*
X02404Y07572*
X02403Y07572*
X02403Y07572*
X02402Y07572*
X02401*
X024Y07572*
X02399Y07572*
X02398Y07572*
X02397Y07572*
X02396Y07571*
X02395Y07571*
X02394Y0757*
X02393Y0757*
X02393Y07569*
X02392Y07569*
X02391Y07568*
X02391Y07567*
X0239Y07567*
X02389Y07566*
X02389Y07565*
X02388Y07564*
X02388Y07563*
X02388Y07562*
X02388Y07561*
X02387Y0756*
X02387Y0756*
X02387Y07559*
X02387Y07558*
X02387Y07557*
X02388Y07556*
X02388Y07555*
X02388Y07554*
X02388Y07553*
X02389Y07552*
X02389Y07551*
X0239Y0755*
X02391Y0755*
X02391Y07549*
X02392Y07548*
X02393Y07548*
X02393Y07547*
X02394Y07547*
X02395Y07546*
X02396Y07546*
X02397Y07545*
X02398Y07545*
X02399Y07545*
X024Y07545*
X02401Y07545*
X02402*
X02403Y07545*
X02403Y07545*
X02404Y07545*
X02405Y07545*
X02406Y07546*
X02407Y07546*
X02408Y07547*
X02409Y07547*
X0241Y07548*
X0241Y07548*
X02411Y07549*
X02412Y0755*
X02412Y0755*
X02413Y07551*
X02413Y07552*
X02414Y07553*
X02414Y07554*
X02414Y07555*
X02415Y07556*
X02415Y07557*
X02415Y07558*
X02415Y07559*
X01746D02*
D01*
X01746Y0756*
X01745Y0756*
X01745Y07561*
X01745Y07562*
X01745Y07563*
X01744Y07564*
X01744Y07565*
X01743Y07566*
X01743Y07567*
X01742Y07567*
X01742Y07568*
X01741Y07569*
X0174Y07569*
X01739Y0757*
X01739Y0757*
X01738Y07571*
X01737Y07571*
X01736Y07572*
X01735Y07572*
X01734Y07572*
X01733Y07572*
X01732Y07572*
X01731*
X0173Y07572*
X01729Y07572*
X01728Y07572*
X01728Y07572*
X01727Y07571*
X01726Y07571*
X01725Y0757*
X01724Y0757*
X01723Y07569*
X01723Y07569*
X01722Y07568*
X01721Y07567*
X01721Y07567*
X0172Y07566*
X0172Y07565*
X01719Y07564*
X01719Y07563*
X01719Y07562*
X01718Y07561*
X01718Y0756*
X01718Y0756*
X01718Y07559*
X01718Y07558*
X01718Y07557*
X01718Y07556*
X01719Y07555*
X01719Y07554*
X01719Y07553*
X0172Y07552*
X0172Y07551*
X01721Y0755*
X01721Y0755*
X01722Y07549*
X01723Y07548*
X01723Y07548*
X01724Y07547*
X01725Y07547*
X01726Y07546*
X01727Y07546*
X01728Y07545*
X01728Y07545*
X01729Y07545*
X0173Y07545*
X01731Y07545*
X01732*
X01733Y07545*
X01734Y07545*
X01735Y07545*
X01736Y07545*
X01737Y07546*
X01738Y07546*
X01739Y07547*
X01739Y07547*
X0174Y07548*
X01741Y07548*
X01742Y07549*
X01742Y0755*
X01743Y0755*
X01743Y07551*
X01744Y07552*
X01744Y07553*
X01745Y07554*
X01745Y07555*
X01745Y07556*
X01745Y07557*
X01746Y07558*
X01746Y07559*
X01122D02*
D01*
X01122Y0756*
X01121Y0756*
X01121Y07561*
X01121Y07562*
X01121Y07563*
X0112Y07564*
X0112Y07565*
X01119Y07566*
X01119Y07567*
X01118Y07567*
X01118Y07568*
X01117Y07569*
X01116Y07569*
X01115Y0757*
X01115Y0757*
X01114Y07571*
X01113Y07571*
X01112Y07572*
X01111Y07572*
X0111Y07572*
X01109Y07572*
X01108Y07572*
X01107*
X01106Y07572*
X01105Y07572*
X01104Y07572*
X01104Y07572*
X01103Y07571*
X01102Y07571*
X01101Y0757*
X011Y0757*
X01099Y07569*
X01099Y07569*
X01098Y07568*
X01097Y07567*
X01097Y07567*
X01096Y07566*
X01096Y07565*
X01095Y07564*
X01095Y07563*
X01095Y07562*
X01094Y07561*
X01094Y0756*
X01094Y0756*
X01094Y07559*
X01094Y07558*
X01094Y07557*
X01094Y07556*
X01095Y07555*
X01095Y07554*
X01095Y07553*
X01096Y07552*
X01096Y07551*
X01097Y0755*
X01097Y0755*
X01098Y07549*
X01099Y07548*
X01099Y07548*
X011Y07547*
X01101Y07547*
X01102Y07546*
X01103Y07546*
X01104Y07545*
X01104Y07545*
X01105Y07545*
X01106Y07545*
X01107Y07545*
X01108*
X01109Y07545*
X0111Y07545*
X01111Y07545*
X01112Y07545*
X01113Y07546*
X01114Y07546*
X01115Y07547*
X01115Y07547*
X01116Y07548*
X01117Y07548*
X01118Y07549*
X01118Y0755*
X01119Y0755*
X01119Y07551*
X0112Y07552*
X0112Y07553*
X01121Y07554*
X01121Y07555*
X01121Y07556*
X01121Y07557*
X01122Y07558*
X01122Y07559*
X00407D02*
D01*
X00407Y0756*
X00407Y0756*
X00407Y07561*
X00406Y07562*
X00406Y07563*
X00406Y07564*
X00405Y07565*
X00405Y07566*
X00404Y07567*
X00404Y07567*
X00403Y07568*
X00402Y07569*
X00402Y07569*
X00401Y0757*
X004Y0757*
X00399Y07571*
X00398Y07571*
X00397Y07572*
X00397Y07572*
X00396Y07572*
X00395Y07572*
X00394Y07572*
X00393*
X00392Y07572*
X00391Y07572*
X0039Y07572*
X00389Y07572*
X00388Y07571*
X00387Y07571*
X00386Y0757*
X00385Y0757*
X00385Y07569*
X00384Y07569*
X00383Y07568*
X00383Y07567*
X00382Y07567*
X00382Y07566*
X00381Y07565*
X00381Y07564*
X0038Y07563*
X0038Y07562*
X0038Y07561*
X0038Y0756*
X00379Y0756*
X00379Y07559*
X00379Y07558*
X0038Y07557*
X0038Y07556*
X0038Y07555*
X0038Y07554*
X00381Y07553*
X00381Y07552*
X00382Y07551*
X00382Y0755*
X00383Y0755*
X00383Y07549*
X00384Y07548*
X00385Y07548*
X00385Y07547*
X00386Y07547*
X00387Y07546*
X00388Y07546*
X00389Y07545*
X0039Y07545*
X00391Y07545*
X00392Y07545*
X00393Y07545*
X00394*
X00395Y07545*
X00396Y07545*
X00397Y07545*
X00397Y07545*
X00398Y07546*
X00399Y07546*
X004Y07547*
X00401Y07547*
X00402Y07548*
X00402Y07548*
X00403Y07549*
X00404Y0755*
X00404Y0755*
X00405Y07551*
X00405Y07552*
X00406Y07553*
X00406Y07554*
X00406Y07555*
X00407Y07556*
X00407Y07557*
X00407Y07558*
X00407Y07559*
X07533Y08425D02*
D01*
X07533Y08426*
X07533Y08427*
X07533Y08428*
X07532Y08428*
X07532Y08429*
X07532Y0843*
X07531Y08431*
X07531Y08432*
X0753Y08433*
X0753Y08434*
X07529Y08434*
X07528Y08435*
X07528Y08436*
X07527Y08436*
X07526Y08437*
X07525Y08437*
X07524Y08437*
X07523Y08438*
X07523Y08438*
X07522Y08438*
X07521Y08438*
X0752Y08438*
X07519*
X07518Y08438*
X07517Y08438*
X07516Y08438*
X07515Y08438*
X07514Y08437*
X07513Y08437*
X07512Y08437*
X07511Y08436*
X07511Y08436*
X0751Y08435*
X07509Y08434*
X07509Y08434*
X07508Y08433*
X07507Y08432*
X07507Y08431*
X07507Y0843*
X07506Y08429*
X07506Y08428*
X07506Y08428*
X07506Y08427*
X07505Y08426*
X07505Y08425*
X07505Y08424*
X07506Y08423*
X07506Y08422*
X07506Y08421*
X07506Y0842*
X07507Y08419*
X07507Y08418*
X07507Y08417*
X07508Y08417*
X07509Y08416*
X07509Y08415*
X0751Y08414*
X07511Y08414*
X07511Y08413*
X07512Y08413*
X07513Y08412*
X07514Y08412*
X07515Y08412*
X07516Y08411*
X07517Y08411*
X07518Y08411*
X07519Y08411*
X0752*
X07521Y08411*
X07522Y08411*
X07523Y08411*
X07523Y08412*
X07524Y08412*
X07525Y08412*
X07526Y08413*
X07527Y08413*
X07528Y08414*
X07528Y08414*
X07529Y08415*
X0753Y08416*
X0753Y08417*
X07531Y08417*
X07531Y08418*
X07532Y08419*
X07532Y0842*
X07532Y08421*
X07533Y08422*
X07533Y08423*
X07533Y08424*
X07533Y08425*
X06864D02*
D01*
X06864Y08426*
X06864Y08427*
X06863Y08428*
X06863Y08428*
X06863Y08429*
X06862Y0843*
X06862Y08431*
X06862Y08432*
X06861Y08433*
X0686Y08434*
X0686Y08434*
X06859Y08435*
X06858Y08436*
X06858Y08436*
X06857Y08437*
X06856Y08437*
X06855Y08437*
X06854Y08438*
X06853Y08438*
X06852Y08438*
X06851Y08438*
X0685Y08438*
X06849*
X06848Y08438*
X06848Y08438*
X06847Y08438*
X06846Y08438*
X06845Y08437*
X06844Y08437*
X06843Y08437*
X06842Y08436*
X06841Y08436*
X06841Y08435*
X0684Y08434*
X06839Y08434*
X06839Y08433*
X06838Y08432*
X06838Y08431*
X06837Y0843*
X06837Y08429*
X06837Y08428*
X06836Y08428*
X06836Y08427*
X06836Y08426*
X06836Y08425*
X06836Y08424*
X06836Y08423*
X06836Y08422*
X06837Y08421*
X06837Y0842*
X06837Y08419*
X06838Y08418*
X06838Y08417*
X06839Y08417*
X06839Y08416*
X0684Y08415*
X06841Y08414*
X06841Y08414*
X06842Y08413*
X06843Y08413*
X06844Y08412*
X06845Y08412*
X06846Y08412*
X06847Y08411*
X06848Y08411*
X06848Y08411*
X06849Y08411*
X0685*
X06851Y08411*
X06852Y08411*
X06853Y08411*
X06854Y08412*
X06855Y08412*
X06856Y08412*
X06857Y08413*
X06858Y08413*
X06858Y08414*
X06859Y08414*
X0686Y08415*
X0686Y08416*
X06861Y08417*
X06862Y08417*
X06862Y08418*
X06862Y08419*
X06863Y0842*
X06863Y08421*
X06863Y08422*
X06864Y08423*
X06864Y08424*
X06864Y08425*
X06352D02*
D01*
X06352Y08426*
X06352Y08427*
X06352Y08428*
X06351Y08428*
X06351Y08429*
X06351Y0843*
X0635Y08431*
X0635Y08432*
X06349Y08433*
X06349Y08434*
X06348Y08434*
X06347Y08435*
X06347Y08436*
X06346Y08436*
X06345Y08437*
X06344Y08437*
X06343Y08437*
X06342Y08438*
X06341Y08438*
X0634Y08438*
X0634Y08438*
X06339Y08438*
X06338*
X06337Y08438*
X06336Y08438*
X06335Y08438*
X06334Y08438*
X06333Y08437*
X06332Y08437*
X06331Y08437*
X0633Y08436*
X0633Y08436*
X06329Y08435*
X06328Y08434*
X06328Y08434*
X06327Y08433*
X06326Y08432*
X06326Y08431*
X06325Y0843*
X06325Y08429*
X06325Y08428*
X06325Y08428*
X06324Y08427*
X06324Y08426*
X06324Y08425*
X06324Y08424*
X06324Y08423*
X06325Y08422*
X06325Y08421*
X06325Y0842*
X06325Y08419*
X06326Y08418*
X06326Y08417*
X06327Y08417*
X06328Y08416*
X06328Y08415*
X06329Y08414*
X0633Y08414*
X0633Y08413*
X06331Y08413*
X06332Y08412*
X06333Y08412*
X06334Y08412*
X06335Y08411*
X06336Y08411*
X06337Y08411*
X06338Y08411*
X06339*
X0634Y08411*
X0634Y08411*
X06341Y08411*
X06342Y08412*
X06343Y08412*
X06344Y08412*
X06345Y08413*
X06346Y08413*
X06347Y08414*
X06347Y08414*
X06348Y08415*
X06349Y08416*
X06349Y08417*
X0635Y08417*
X0635Y08418*
X06351Y08419*
X06351Y0842*
X06351Y08421*
X06352Y08422*
X06352Y08423*
X06352Y08424*
X06352Y08425*
X05295D02*
D01*
X05295Y08426*
X05295Y08427*
X05294Y08428*
X05294Y08428*
X05294Y08429*
X05294Y0843*
X05293Y08431*
X05293Y08432*
X05292Y08433*
X05292Y08434*
X05291Y08434*
X0529Y08435*
X05289Y08436*
X05289Y08436*
X05288Y08437*
X05287Y08437*
X05286Y08437*
X05285Y08438*
X05284Y08438*
X05283Y08438*
X05282Y08438*
X05281Y08438*
X05281*
X0528Y08438*
X05279Y08438*
X05278Y08438*
X05277Y08438*
X05276Y08437*
X05275Y08437*
X05274Y08437*
X05273Y08436*
X05273Y08436*
X05272Y08435*
X05271Y08434*
X0527Y08434*
X0527Y08433*
X05269Y08432*
X05269Y08431*
X05268Y0843*
X05268Y08429*
X05268Y08428*
X05268Y08428*
X05267Y08427*
X05267Y08426*
X05267Y08425*
X05267Y08424*
X05267Y08423*
X05268Y08422*
X05268Y08421*
X05268Y0842*
X05268Y08419*
X05269Y08418*
X05269Y08417*
X0527Y08417*
X0527Y08416*
X05271Y08415*
X05272Y08414*
X05273Y08414*
X05273Y08413*
X05274Y08413*
X05275Y08412*
X05276Y08412*
X05277Y08412*
X05278Y08411*
X05279Y08411*
X0528Y08411*
X05281Y08411*
X05281*
X05282Y08411*
X05283Y08411*
X05284Y08411*
X05285Y08412*
X05286Y08412*
X05287Y08412*
X05288Y08413*
X05289Y08413*
X05289Y08414*
X0529Y08414*
X05291Y08415*
X05292Y08416*
X05292Y08417*
X05293Y08417*
X05293Y08418*
X05294Y08419*
X05294Y0842*
X05294Y08421*
X05294Y08422*
X05295Y08423*
X05295Y08424*
X05295Y08425*
X04816D02*
D01*
X04816Y08426*
X04816Y08427*
X04816Y08428*
X04816Y08428*
X04816Y08429*
X04815Y0843*
X04815Y08431*
X04814Y08432*
X04814Y08433*
X04813Y08434*
X04813Y08434*
X04812Y08435*
X04811Y08436*
X0481Y08436*
X0481Y08437*
X04809Y08437*
X04808Y08437*
X04807Y08438*
X04806Y08438*
X04805Y08438*
X04804Y08438*
X04803Y08438*
X04802*
X04801Y08438*
X048Y08438*
X04799Y08438*
X04798Y08438*
X04797Y08437*
X04797Y08437*
X04796Y08437*
X04795Y08436*
X04794Y08436*
X04793Y08435*
X04793Y08434*
X04792Y08434*
X04792Y08433*
X04791Y08432*
X0479Y08431*
X0479Y0843*
X0479Y08429*
X04789Y08428*
X04789Y08428*
X04789Y08427*
X04789Y08426*
X04789Y08425*
X04789Y08424*
X04789Y08423*
X04789Y08422*
X04789Y08421*
X0479Y0842*
X0479Y08419*
X0479Y08418*
X04791Y08417*
X04792Y08417*
X04792Y08416*
X04793Y08415*
X04793Y08414*
X04794Y08414*
X04795Y08413*
X04796Y08413*
X04797Y08412*
X04797Y08412*
X04798Y08412*
X04799Y08411*
X048Y08411*
X04801Y08411*
X04802Y08411*
X04803*
X04804Y08411*
X04805Y08411*
X04806Y08411*
X04807Y08412*
X04808Y08412*
X04809Y08412*
X0481Y08413*
X0481Y08413*
X04811Y08414*
X04812Y08414*
X04813Y08415*
X04813Y08416*
X04814Y08417*
X04814Y08417*
X04815Y08418*
X04815Y08419*
X04816Y0842*
X04816Y08421*
X04816Y08422*
X04816Y08423*
X04816Y08424*
X04816Y08425*
X04147D02*
D01*
X04147Y08426*
X04147Y08427*
X04147Y08428*
X04147Y08428*
X04146Y08429*
X04146Y0843*
X04146Y08431*
X04145Y08432*
X04145Y08433*
X04144Y08434*
X04143Y08434*
X04143Y08435*
X04142Y08436*
X04141Y08436*
X0414Y08437*
X04139Y08437*
X04139Y08437*
X04138Y08438*
X04137Y08438*
X04136Y08438*
X04135Y08438*
X04134Y08438*
X04133*
X04132Y08438*
X04131Y08438*
X0413Y08438*
X04129Y08438*
X04128Y08437*
X04127Y08437*
X04126Y08437*
X04126Y08436*
X04125Y08436*
X04124Y08435*
X04123Y08434*
X04123Y08434*
X04122Y08433*
X04122Y08432*
X04121Y08431*
X04121Y0843*
X0412Y08429*
X0412Y08428*
X0412Y08428*
X0412Y08427*
X0412Y08426*
X0412Y08425*
X0412Y08424*
X0412Y08423*
X0412Y08422*
X0412Y08421*
X0412Y0842*
X04121Y08419*
X04121Y08418*
X04122Y08417*
X04122Y08417*
X04123Y08416*
X04123Y08415*
X04124Y08414*
X04125Y08414*
X04126Y08413*
X04126Y08413*
X04127Y08412*
X04128Y08412*
X04129Y08412*
X0413Y08411*
X04131Y08411*
X04132Y08411*
X04133Y08411*
X04134*
X04135Y08411*
X04136Y08411*
X04137Y08411*
X04138Y08412*
X04139Y08412*
X04139Y08412*
X0414Y08413*
X04141Y08413*
X04142Y08414*
X04143Y08414*
X04143Y08415*
X04144Y08416*
X04145Y08417*
X04145Y08417*
X04146Y08418*
X04146Y08419*
X04146Y0842*
X04147Y08421*
X04147Y08422*
X04147Y08423*
X04147Y08424*
X04147Y08425*
X03478D02*
D01*
X03478Y08426*
X03478Y08427*
X03478Y08428*
X03477Y08428*
X03477Y08429*
X03477Y0843*
X03476Y08431*
X03476Y08432*
X03475Y08433*
X03475Y08434*
X03474Y08434*
X03473Y08435*
X03473Y08436*
X03472Y08436*
X03471Y08437*
X0347Y08437*
X03469Y08437*
X03468Y08438*
X03467Y08438*
X03466Y08438*
X03466Y08438*
X03465Y08438*
X03464*
X03463Y08438*
X03462Y08438*
X03461Y08438*
X0346Y08438*
X03459Y08437*
X03458Y08437*
X03457Y08437*
X03456Y08436*
X03456Y08436*
X03455Y08435*
X03454Y08434*
X03454Y08434*
X03453Y08433*
X03452Y08432*
X03452Y08431*
X03451Y0843*
X03451Y08429*
X03451Y08428*
X03451Y08428*
X0345Y08427*
X0345Y08426*
X0345Y08425*
X0345Y08424*
X0345Y08423*
X03451Y08422*
X03451Y08421*
X03451Y0842*
X03451Y08419*
X03452Y08418*
X03452Y08417*
X03453Y08417*
X03454Y08416*
X03454Y08415*
X03455Y08414*
X03456Y08414*
X03456Y08413*
X03457Y08413*
X03458Y08412*
X03459Y08412*
X0346Y08412*
X03461Y08411*
X03462Y08411*
X03463Y08411*
X03464Y08411*
X03465*
X03466Y08411*
X03466Y08411*
X03467Y08411*
X03468Y08412*
X03469Y08412*
X0347Y08412*
X03471Y08413*
X03472Y08413*
X03473Y08414*
X03473Y08414*
X03474Y08415*
X03475Y08416*
X03475Y08417*
X03476Y08417*
X03476Y08418*
X03477Y08419*
X03477Y0842*
X03477Y08421*
X03478Y08422*
X03478Y08423*
X03478Y08424*
X03478Y08425*
X02421D02*
D01*
X02421Y08426*
X02421Y08427*
X0242Y08428*
X0242Y08428*
X0242Y08429*
X0242Y0843*
X02419Y08431*
X02419Y08432*
X02418Y08433*
X02418Y08434*
X02417Y08434*
X02416Y08435*
X02415Y08436*
X02415Y08436*
X02414Y08437*
X02413Y08437*
X02412Y08437*
X02411Y08438*
X0241Y08438*
X02409Y08438*
X02408Y08438*
X02407Y08438*
X02406*
X02406Y08438*
X02405Y08438*
X02404Y08438*
X02403Y08438*
X02402Y08437*
X02401Y08437*
X024Y08437*
X02399Y08436*
X02398Y08436*
X02398Y08435*
X02397Y08434*
X02396Y08434*
X02396Y08433*
X02395Y08432*
X02395Y08431*
X02394Y0843*
X02394Y08429*
X02394Y08428*
X02394Y08428*
X02393Y08427*
X02393Y08426*
X02393Y08425*
X02393Y08424*
X02393Y08423*
X02394Y08422*
X02394Y08421*
X02394Y0842*
X02394Y08419*
X02395Y08418*
X02395Y08417*
X02396Y08417*
X02396Y08416*
X02397Y08415*
X02398Y08414*
X02398Y08414*
X02399Y08413*
X024Y08413*
X02401Y08412*
X02402Y08412*
X02403Y08412*
X02404Y08411*
X02405Y08411*
X02406Y08411*
X02406Y08411*
X02407*
X02408Y08411*
X02409Y08411*
X0241Y08411*
X02411Y08412*
X02412Y08412*
X02413Y08412*
X02414Y08413*
X02415Y08413*
X02415Y08414*
X02416Y08414*
X02417Y08415*
X02418Y08416*
X02418Y08417*
X02419Y08417*
X02419Y08418*
X0242Y08419*
X0242Y0842*
X0242Y08421*
X0242Y08422*
X02421Y08423*
X02421Y08424*
X02421Y08425*
X01791D02*
D01*
X01791Y08426*
X01791Y08427*
X01791Y08428*
X0179Y08428*
X0179Y08429*
X0179Y0843*
X01789Y08431*
X01789Y08432*
X01788Y08433*
X01788Y08434*
X01787Y08434*
X01786Y08435*
X01786Y08436*
X01785Y08436*
X01784Y08437*
X01783Y08437*
X01782Y08437*
X01781Y08438*
X0178Y08438*
X01779Y08438*
X01778Y08438*
X01778Y08438*
X01777*
X01776Y08438*
X01775Y08438*
X01774Y08438*
X01773Y08438*
X01772Y08437*
X01771Y08437*
X0177Y08437*
X01769Y08436*
X01769Y08436*
X01768Y08435*
X01767Y08434*
X01767Y08434*
X01766Y08433*
X01765Y08432*
X01765Y08431*
X01764Y0843*
X01764Y08429*
X01764Y08428*
X01764Y08428*
X01763Y08427*
X01763Y08426*
X01763Y08425*
X01763Y08424*
X01763Y08423*
X01764Y08422*
X01764Y08421*
X01764Y0842*
X01764Y08419*
X01765Y08418*
X01765Y08417*
X01766Y08417*
X01767Y08416*
X01767Y08415*
X01768Y08414*
X01769Y08414*
X01769Y08413*
X0177Y08413*
X01771Y08412*
X01772Y08412*
X01773Y08412*
X01774Y08411*
X01775Y08411*
X01776Y08411*
X01777Y08411*
X01778*
X01778Y08411*
X01779Y08411*
X0178Y08411*
X01781Y08412*
X01782Y08412*
X01783Y08412*
X01784Y08413*
X01785Y08413*
X01786Y08414*
X01786Y08414*
X01787Y08415*
X01788Y08416*
X01788Y08417*
X01789Y08417*
X01789Y08418*
X0179Y08419*
X0179Y0842*
X0179Y08421*
X01791Y08422*
X01791Y08423*
X01791Y08424*
X01791Y08425*
X01116D02*
D01*
X01116Y08426*
X01116Y08427*
X01115Y08428*
X01115Y08428*
X01115Y08429*
X01114Y0843*
X01114Y08431*
X01114Y08432*
X01113Y08433*
X01112Y08434*
X01112Y08434*
X01111Y08435*
X0111Y08436*
X0111Y08436*
X01109Y08437*
X01108Y08437*
X01107Y08437*
X01106Y08438*
X01105Y08438*
X01104Y08438*
X01103Y08438*
X01102Y08438*
X01101*
X011Y08438*
X01099Y08438*
X01099Y08438*
X01098Y08438*
X01097Y08437*
X01096Y08437*
X01095Y08437*
X01094Y08436*
X01093Y08436*
X01093Y08435*
X01092Y08434*
X01091Y08434*
X01091Y08433*
X0109Y08432*
X0109Y08431*
X01089Y0843*
X01089Y08429*
X01089Y08428*
X01088Y08428*
X01088Y08427*
X01088Y08426*
X01088Y08425*
X01088Y08424*
X01088Y08423*
X01088Y08422*
X01089Y08421*
X01089Y0842*
X01089Y08419*
X0109Y08418*
X0109Y08417*
X01091Y08417*
X01091Y08416*
X01092Y08415*
X01093Y08414*
X01093Y08414*
X01094Y08413*
X01095Y08413*
X01096Y08412*
X01097Y08412*
X01098Y08412*
X01099Y08411*
X01099Y08411*
X011Y08411*
X01101Y08411*
X01102*
X01103Y08411*
X01104Y08411*
X01105Y08411*
X01106Y08412*
X01107Y08412*
X01108Y08412*
X01109Y08413*
X0111Y08413*
X0111Y08414*
X01111Y08414*
X01112Y08415*
X01112Y08416*
X01113Y08417*
X01114Y08417*
X01114Y08418*
X01114Y08419*
X01115Y0842*
X01115Y08421*
X01115Y08422*
X01116Y08423*
X01116Y08424*
X01116Y08425*
X00407D02*
D01*
X00407Y08426*
X00407Y08427*
X00407Y08428*
X00406Y08428*
X00406Y08429*
X00406Y0843*
X00405Y08431*
X00405Y08432*
X00404Y08433*
X00404Y08434*
X00403Y08434*
X00402Y08435*
X00402Y08436*
X00401Y08436*
X004Y08437*
X00399Y08437*
X00398Y08437*
X00397Y08438*
X00397Y08438*
X00396Y08438*
X00395Y08438*
X00394Y08438*
X00393*
X00392Y08438*
X00391Y08438*
X0039Y08438*
X00389Y08438*
X00388Y08437*
X00387Y08437*
X00386Y08437*
X00385Y08436*
X00385Y08436*
X00384Y08435*
X00383Y08434*
X00383Y08434*
X00382Y08433*
X00382Y08432*
X00381Y08431*
X00381Y0843*
X0038Y08429*
X0038Y08428*
X0038Y08428*
X0038Y08427*
X00379Y08426*
X00379Y08425*
X00379Y08424*
X0038Y08423*
X0038Y08422*
X0038Y08421*
X0038Y0842*
X00381Y08419*
X00381Y08418*
X00382Y08417*
X00382Y08417*
X00383Y08416*
X00383Y08415*
X00384Y08414*
X00385Y08414*
X00385Y08413*
X00386Y08413*
X00387Y08412*
X00388Y08412*
X00389Y08412*
X0039Y08411*
X00391Y08411*
X00392Y08411*
X00393Y08411*
X00394*
X00395Y08411*
X00396Y08411*
X00397Y08411*
X00397Y08412*
X00398Y08412*
X00399Y08412*
X004Y08413*
X00401Y08413*
X00402Y08414*
X00402Y08414*
X00403Y08415*
X00404Y08416*
X00404Y08417*
X00405Y08417*
X00405Y08418*
X00406Y08419*
X00406Y0842*
X00406Y08421*
X00407Y08422*
X00407Y08423*
X00407Y08424*
X00407Y08425*
X00196Y0307D02*
X00236D01*
X00216Y03051D02*
Y0309D01*
X00139Y03001D02*
Y03139D01*
X00293*
Y03001D02*
Y03139D01*
X00139Y03001D02*
X00293D01*
X0061Y02519D02*
Y02559D01*
X0059Y02539D02*
X00629D01*
X00541Y02462D02*
X00679D01*
X00541D02*
Y02616D01*
X00679*
Y02462D02*
Y02616D01*
X01476Y0424D02*
Y04263D01*
X01464Y04251D02*
X01488D01*
X01407Y04289D02*
X01545D01*
X01407Y04214D02*
X01545D01*
X01407D02*
Y04289D01*
X01545Y04214D02*
Y04289D01*
X0233Y03838D02*
X02354D01*
X02342Y03826D02*
Y0385D01*
X02305Y03769D02*
Y03907D01*
X02379Y03769D02*
Y03907D01*
X02305Y03769D02*
X02379D01*
X02305Y03907D02*
X02379D01*
X0233Y03188D02*
X02354D01*
X02342Y03177D02*
Y032D01*
X02379Y0312D02*
Y03257D01*
X02305Y0312D02*
Y03257D01*
X02379*
X02305Y0312D02*
X02379D01*
X02177Y00559D02*
X02468D01*
X02177Y00779D02*
X02468D01*
Y00559D02*
Y00779D01*
X02177Y00559D02*
Y00779D01*
X02688Y04692D02*
X0298D01*
X02688Y04913D02*
X0298D01*
Y04692D02*
Y04913D01*
X02688Y04692D02*
Y04913D01*
Y0607D02*
X0298D01*
X02688Y06291D02*
X0298D01*
Y0607D02*
Y06291D01*
X02688Y0607D02*
Y06291D01*
Y07055D02*
X0298D01*
X02688Y07275D02*
X0298D01*
Y07055D02*
Y07275D01*
X02688Y07055D02*
Y07275D01*
Y07921D02*
X0298D01*
X02688Y08141D02*
X0298D01*
Y07921D02*
Y08141D01*
X02688Y07921D02*
Y08141D01*
X02547Y00708D02*
X0257D01*
X02559Y00696D02*
Y0072D01*
X02596Y00639D02*
Y00777D01*
X02521Y00639D02*
Y00777D01*
X02596*
X02521Y00639D02*
X02596D01*
X02901Y05787D02*
X02925D01*
X02913Y05775D02*
Y05799D01*
X0295Y05718D02*
Y05856D01*
X02875Y05718D02*
Y05856D01*
X0295*
X02875Y05718D02*
X0295D01*
X02901Y06653D02*
X02925D01*
X02913Y06641D02*
Y06665D01*
X0295Y06584D02*
Y06722D01*
X02875Y06584D02*
Y06722D01*
X0295*
X02875Y06584D02*
X0295D01*
X02822Y07559D02*
X02846D01*
X02834Y07547D02*
Y0757D01*
X02872Y0749D02*
Y07627D01*
X02797Y0749D02*
Y07627D01*
X02872*
X02797Y0749D02*
X02872D01*
X0298Y08425D02*
X03003D01*
X02992Y08413D02*
Y08437D01*
X03029Y08356D02*
Y08494D01*
X02954Y08356D02*
Y08494D01*
X03029*
X02954Y08356D02*
X03029D01*
X03216Y05D02*
X0324D01*
X03228Y04988D02*
Y05011D01*
X0319Y04931D02*
Y05068D01*
X03265Y04931D02*
Y05068D01*
X0319Y04931D02*
X03265D01*
X0319Y05068D02*
X03265D01*
X05413Y01771D02*
X05452D01*
X05433Y01751D02*
Y01791D01*
X05509Y01702D02*
Y0184D01*
X05356Y01702D02*
X05509D01*
X05356D02*
Y0184D01*
X05509*
X04738Y01773D02*
X04777D01*
X04757Y01753D02*
Y01793D01*
X04834Y01704D02*
Y01842D01*
X04681Y01704D02*
X04834D01*
X04681D02*
Y01842D01*
X04834*
X04068Y01773D02*
X04108D01*
X04088Y01753D02*
Y01793D01*
X04165Y01704D02*
Y01842D01*
X04011Y01704D02*
X04165D01*
X04011D02*
Y01842D01*
X04165*
X03405Y01771D02*
X03444D01*
X03425Y01751D02*
Y01791D01*
X03501Y01702D02*
Y0184D01*
X03348Y01702D02*
X03501D01*
X03348D02*
Y0184D01*
X03501*
X02106Y01181D02*
X02145D01*
X02125Y01161D02*
Y012D01*
X02049Y01112D02*
Y0125D01*
X02202*
Y01112D02*
Y0125D01*
X02049Y01112D02*
X02202D01*
X05413Y02637D02*
X05452D01*
X05433Y02618D02*
Y02657D01*
X05509Y02568D02*
Y02706D01*
X05356Y02568D02*
X05509D01*
X05356D02*
Y02706D01*
X05509*
X04738Y02639D02*
X04777D01*
X04757Y0262D02*
Y02659D01*
X04834Y0257D02*
Y02708D01*
X04681Y0257D02*
X04834D01*
X04681D02*
Y02708D01*
X04834*
X04074Y02637D02*
X04114D01*
X04094Y02618D02*
Y02657D01*
X04171Y02568D02*
Y02706D01*
X04017Y02568D02*
X04171D01*
X04017D02*
Y02706D01*
X04171*
X03405Y02637D02*
X03444D01*
X03425Y02618D02*
Y02657D01*
X03501Y02568D02*
Y02706D01*
X03348Y02568D02*
X03501D01*
X03348D02*
Y02706D01*
X03501*
X02539Y02204D02*
X02578D01*
X02559Y02185D02*
Y02224D01*
X02635Y02135D02*
Y02273D01*
X02482Y02135D02*
X02635D01*
X02482D02*
Y02273D01*
X02635*
X02106Y02204D02*
X02145D01*
X02125Y02185D02*
Y02224D01*
X02202Y02135D02*
Y02273D01*
X02049Y02135D02*
X02202D01*
X02049D02*
Y02273D01*
X02202*
X01194Y02206D02*
X01234D01*
X01214Y02187D02*
Y02226D01*
X01291Y02137D02*
Y02275D01*
X01137Y02137D02*
X01291D01*
X01137D02*
Y02275D01*
X01291*
X05413Y03543D02*
X05452D01*
X05433Y03523D02*
Y03562D01*
X05509Y03474D02*
Y03612D01*
X05356Y03474D02*
X05509D01*
X05356D02*
Y03612D01*
X05509*
X04738Y03545D02*
X04777D01*
X04757Y03525D02*
Y03564D01*
X04834Y03476D02*
Y03614D01*
X04681Y03476D02*
X04834D01*
X04681D02*
Y03614D01*
X04834*
X04068Y03541D02*
X04108D01*
X04088Y03521D02*
Y03561D01*
X04165Y03472D02*
Y0361D01*
X04011Y03472D02*
X04165D01*
X04011D02*
Y0361D01*
X04165*
X03405Y03543D02*
X03444D01*
X03425Y03523D02*
Y03562D01*
X03501Y03474D02*
Y03612D01*
X03348Y03474D02*
X03501D01*
X03348D02*
Y03612D01*
X03501*
X01909Y02637D02*
X01948D01*
X01929Y02618D02*
Y02657D01*
X02005Y02568D02*
Y02706D01*
X01852Y02568D02*
X02005D01*
X01852D02*
Y02706D01*
X02005*
X05413Y04409D02*
X05452D01*
X05433Y04389D02*
Y04429D01*
X05509Y0434D02*
Y04478D01*
X05356Y0434D02*
X05509D01*
X05356D02*
Y04478D01*
X05509*
X04744Y04409D02*
X04783D01*
X04763Y04389D02*
Y04429D01*
X0484Y0434D02*
Y04478D01*
X04687Y0434D02*
X0484D01*
X04687D02*
Y04478D01*
X0484*
X03956Y04409D02*
X03996D01*
X03976Y04389D02*
Y04429D01*
X04053Y0434D02*
Y04478D01*
X03899Y0434D02*
X04053D01*
X03899D02*
Y04478D01*
X04053*
X03405Y04409D02*
X03444D01*
X03425Y04389D02*
Y04429D01*
X03501Y0434D02*
Y04478D01*
X03348Y0434D02*
X03501D01*
X03348D02*
Y04478D01*
X03501*
X0057Y04409D02*
X0061D01*
X0059Y04389D02*
Y04429D01*
X00667Y0434D02*
Y04478D01*
X00513Y0434D02*
X00667D01*
X00513D02*
Y04478D01*
X00667*
X07618Y05787D02*
X07657D01*
X07637Y05767D02*
Y05807D01*
X07714Y05718D02*
Y05856D01*
X07561Y05718D02*
X07714D01*
X07561D02*
Y05856D01*
X07714*
X06948Y05787D02*
X06988D01*
X06968Y05767D02*
Y05807D01*
X07045Y05718D02*
Y05856D01*
X06891Y05718D02*
X07045D01*
X06891D02*
Y05856D01*
X07045*
X06279Y05787D02*
X06318D01*
X06299Y05767D02*
Y05807D01*
X06375Y05718D02*
Y05856D01*
X06222Y05718D02*
X06375D01*
X06222D02*
Y05856D01*
X06375*
X05413Y05787D02*
X05452D01*
X05433Y05767D02*
Y05807D01*
X05509Y05718D02*
Y05856D01*
X05356Y05718D02*
X05509D01*
X05356D02*
Y05856D01*
X05509*
X04738Y05789D02*
X04777D01*
X04757Y05769D02*
Y05809D01*
X04834Y0572D02*
Y05858D01*
X04681Y0572D02*
X04834D01*
X04681D02*
Y05858D01*
X04834*
X04114Y05787D02*
X04153D01*
X04133Y05767D02*
Y05807D01*
X0421Y05718D02*
Y05856D01*
X04057Y05718D02*
X0421D01*
X04057D02*
Y05856D01*
X0421*
X03405Y05787D02*
X03444D01*
X03425Y05767D02*
Y05807D01*
X03501Y05718D02*
Y05856D01*
X03348Y05718D02*
X03501D01*
X03348D02*
Y05856D01*
X03501*
X02539Y05787D02*
X02578D01*
X02559Y05767D02*
Y05807D01*
X02635Y05718D02*
Y05856D01*
X02482Y05718D02*
X02635D01*
X02482D02*
Y05856D01*
X02635*
X01864Y05789D02*
X01903D01*
X01883Y05769D02*
Y05809D01*
X0196Y0572D02*
Y05858D01*
X01807Y0572D02*
X0196D01*
X01807D02*
Y05858D01*
X0196*
X0124Y05787D02*
X01279D01*
X01259Y05767D02*
Y05807D01*
X01336Y05718D02*
Y05856D01*
X01183Y05718D02*
X01336D01*
X01183D02*
Y05856D01*
X01336*
X00531Y05787D02*
X0057D01*
X00551Y05767D02*
Y05807D01*
X00627Y05718D02*
Y05856D01*
X00474Y05718D02*
X00627D01*
X00474D02*
Y05856D01*
X00627*
X07618Y06653D02*
X07657D01*
X07637Y06633D02*
Y06673D01*
X07714Y06584D02*
Y06722D01*
X07561Y06584D02*
X07714D01*
X07561D02*
Y06722D01*
X07714*
X06948Y06653D02*
X06988D01*
X06968Y06633D02*
Y06673D01*
X07045Y06584D02*
Y06722D01*
X06891Y06584D02*
X07045D01*
X06891D02*
Y06722D01*
X07045*
X06279Y06653D02*
X06318D01*
X06299Y06633D02*
Y06673D01*
X06375Y06584D02*
Y06722D01*
X06222Y06584D02*
X06375D01*
X06222D02*
Y06722D01*
X06375*
X05413Y06653D02*
X05452D01*
X05433Y06633D02*
Y06673D01*
X05509Y06584D02*
Y06722D01*
X05356Y06584D02*
X05509D01*
X05356D02*
Y06722D01*
X05509*
X04744Y06653D02*
X04783D01*
X04763Y06633D02*
Y06673D01*
X0484Y06584D02*
Y06722D01*
X04687Y06584D02*
X0484D01*
X04687D02*
Y06722D01*
X0484*
X04068Y06655D02*
X04108D01*
X04088Y06635D02*
Y06675D01*
X04165Y06586D02*
Y06724D01*
X04011Y06586D02*
X04165D01*
X04011D02*
Y06724D01*
X04165*
X03405Y06653D02*
X03444D01*
X03425Y06633D02*
Y06673D01*
X03501Y06584D02*
Y06722D01*
X03348Y06584D02*
X03501D01*
X03348D02*
Y06722D01*
X03501*
X02421Y06653D02*
X0246D01*
X0244Y06633D02*
Y06673D01*
X02517Y06584D02*
Y06722D01*
X02364Y06584D02*
X02517D01*
X02364D02*
Y06722D01*
X02517*
X01751Y06653D02*
X01791D01*
X01771Y06633D02*
Y06673D01*
X01848Y06584D02*
Y06722D01*
X01694Y06584D02*
X01848D01*
X01694D02*
Y06722D01*
X01848*
X01082Y06653D02*
X01122D01*
X01102Y06633D02*
Y06673D01*
X01179Y06584D02*
Y06722D01*
X01025Y06584D02*
X01179D01*
X01025D02*
Y06722D01*
X01179*
X00413Y06653D02*
X00452D01*
X00433Y06633D02*
Y06673D01*
X00509Y06584D02*
Y06722D01*
X00356Y06584D02*
X00509D01*
X00356D02*
Y06722D01*
X00509*
X075Y07559D02*
X07539D01*
X07519Y07539D02*
Y07578D01*
X07596Y0749D02*
Y07627D01*
X07442Y0749D02*
X07596D01*
X07442D02*
Y07627D01*
X07596*
X06875Y07559D02*
X06915D01*
X06895Y07539D02*
Y07578D01*
X06972Y0749D02*
Y07627D01*
X06818Y0749D02*
X06972D01*
X06818D02*
Y07627D01*
X06972*
X06161Y07559D02*
X062D01*
X06181Y07539D02*
Y07578D01*
X06257Y0749D02*
Y07627D01*
X06104Y0749D02*
X06257D01*
X06104D02*
Y07627D01*
X06257*
X05295Y07559D02*
X05334D01*
X05314Y07539D02*
Y07578D01*
X05391Y0749D02*
Y07627D01*
X05238Y0749D02*
X05391D01*
X05238D02*
Y07627D01*
X05391*
X04789Y07559D02*
X04828D01*
X04809Y07539D02*
Y07578D01*
X04885Y0749D02*
Y07627D01*
X04732Y0749D02*
X04885D01*
X04732D02*
Y07627D01*
X04885*
X0412Y07559D02*
X04159D01*
X04139Y07539D02*
Y07578D01*
X04216Y0749D02*
Y07627D01*
X04062Y0749D02*
X04216D01*
X04062D02*
Y07627D01*
X04216*
X03484Y07559D02*
X03523D01*
X03503Y07539D02*
Y07578D01*
X0358Y0749D02*
Y07627D01*
X03427Y0749D02*
X0358D01*
X03427D02*
Y07627D01*
X0358*
X02381Y07559D02*
X02421D01*
X02401Y07539D02*
Y07578D01*
X02478Y0749D02*
Y07627D01*
X02324Y0749D02*
X02478D01*
X02324D02*
Y07627D01*
X02478*
X01712Y07559D02*
X01751D01*
X01732Y07539D02*
Y07578D01*
X01809Y0749D02*
Y07627D01*
X01655Y0749D02*
X01809D01*
X01655D02*
Y07627D01*
X01809*
X01088Y07559D02*
X01127D01*
X01108Y07539D02*
Y07578D01*
X01185Y0749D02*
Y07627D01*
X01031Y0749D02*
X01185D01*
X01031D02*
Y07627D01*
X01185*
X00374Y07559D02*
X00413D01*
X00393Y07539D02*
Y07578D01*
X0047Y0749D02*
Y07627D01*
X00316Y0749D02*
X0047D01*
X00316D02*
Y07627D01*
X0047*
X075Y08425D02*
X07539D01*
X07519Y08405D02*
Y08444D01*
X07596Y08356D02*
Y08494D01*
X07442Y08356D02*
X07596D01*
X07442D02*
Y08494D01*
X07596*
X0683Y08425D02*
X0687D01*
X0685Y08405D02*
Y08444D01*
X06927Y08356D02*
Y08494D01*
X06773Y08356D02*
X06927D01*
X06773D02*
Y08494D01*
X06927*
X06318Y08425D02*
X06358D01*
X06338Y08405D02*
Y08444D01*
X06415Y08356D02*
Y08494D01*
X06261Y08356D02*
X06415D01*
X06261D02*
Y08494D01*
X06415*
X05261Y08425D02*
X05301D01*
X05281Y08405D02*
Y08444D01*
X05358Y08356D02*
Y08494D01*
X05204Y08356D02*
X05358D01*
X05204D02*
Y08494D01*
X05358*
X04783Y08425D02*
X04822D01*
X04803Y08405D02*
Y08444D01*
X04879Y08356D02*
Y08494D01*
X04726Y08356D02*
X04879D01*
X04726D02*
Y08494D01*
X04879*
X04114Y08425D02*
X04153D01*
X04133Y08405D02*
Y08444D01*
X0421Y08356D02*
Y08494D01*
X04057Y08356D02*
X0421D01*
X04057D02*
Y08494D01*
X0421*
X03444Y08425D02*
X03484D01*
X03464Y08405D02*
Y08444D01*
X03541Y08356D02*
Y08494D01*
X03387Y08356D02*
X03541D01*
X03387D02*
Y08494D01*
X03541*
X02387Y08425D02*
X02427D01*
X02407Y08405D02*
Y08444D01*
X02484Y08356D02*
Y08494D01*
X0233Y08356D02*
X02484D01*
X0233D02*
Y08494D01*
X02484*
X01757Y08425D02*
X01797D01*
X01777Y08405D02*
Y08444D01*
X01854Y08356D02*
Y08494D01*
X017Y08356D02*
X01854D01*
X017D02*
Y08494D01*
X01854*
X01082Y08425D02*
X01122D01*
X01102Y08405D02*
Y08444D01*
X01179Y08356D02*
Y08494D01*
X01025Y08356D02*
X01179D01*
X01025D02*
Y08494D01*
X01179*
X00374Y08425D02*
X00413D01*
X00393Y08405D02*
Y08444D01*
X0047Y08356D02*
Y08494D01*
X00316Y08356D02*
X0047D01*
X00316D02*
Y08494D01*
X0047*
M02*