%FSTAX23Y23*%
%MOIN*%
%SFA1B1*%

%IPPOS*%
%ADD10R,0.041339X0.025591*%
%ADD11R,0.025591X0.041339*%
%ADD12R,0.037401X0.055118*%
%ADD13R,0.055118X0.037401*%
%ADD14O,0.057087X0.023622*%
%ADD15C,0.023622*%
%ADD16C,0.015748*%
%ADD17C,0.019685*%
%ADD18C,0.039370*%
%ADD19C,0.059055*%
%ADD20C,0.011811*%
%ADD21C,0.098425*%
%ADD22C,0.059055*%
%ADD23R,0.059055X0.059055*%
%ADD24C,0.060000*%
%ADD25R,0.059055X0.059055*%
%ADD26C,0.078740*%
%ADD27C,0.275590*%
%ADD28C,0.031496*%
%ADD29C,0.059055*%
%LNkeyboardmain_copper_signal_top-1*%
%LPD*%
G36*
X08413Y00012D02*
X05051D01*
Y00393*
X0505Y00398*
X05047Y00402*
X05043Y00404*
X05039Y00405*
X01771*
X01767Y00404*
X01763Y00402*
X0176Y00398*
X01759Y00393*
Y00012*
X00012*
Y09161*
X08413*
Y00012*
G37*
%LNkeyboardmain_copper_signal_top-2*%
%LPC*%
G36*
X08228Y09126D02*
X08204Y09124D01*
X08181Y09119*
X0816Y0911*
X0814Y09097*
X08122Y09082*
X08106Y09064*
X08094Y09044*
X08085Y09022*
X0808Y08999*
X08078Y08976*
X0808Y08952*
X08085Y0893*
X08094Y08908*
X08106Y08888*
X08122Y0887*
X0814Y08854*
X0816Y08842*
X08181Y08833*
X08204Y08828*
X08228Y08826*
X08251Y08828*
X08274Y08833*
X08296Y08842*
X08316Y08854*
X08334Y0887*
X08349Y08888*
X08362Y08908*
X08371Y0893*
X08376Y08952*
X08378Y08976*
X08376Y08999*
X08371Y09022*
X08362Y09044*
X08349Y09064*
X08334Y09082*
X08316Y09097*
X08296Y0911*
X08274Y09119*
X08251Y09124*
X08228Y09126*
G37*
G36*
X04291D02*
X04267Y09124D01*
X04244Y09119*
X04223Y0911*
X04203Y09097*
X04185Y09082*
X04169Y09064*
X04157Y09044*
X04148Y09022*
X04143Y08999*
X04141Y08976*
X04143Y08952*
X04148Y0893*
X04157Y08908*
X04169Y08888*
X04185Y0887*
X04203Y08854*
X04223Y08842*
X04244Y08833*
X04267Y08828*
X04291Y08826*
X04314Y08828*
X04337Y08833*
X04359Y08842*
X04379Y08854*
X04397Y0887*
X04412Y08888*
X04425Y08908*
X04434Y0893*
X04439Y08952*
X04441Y08976*
X04439Y08999*
X04434Y09022*
X04425Y09044*
X04412Y09064*
X04397Y09082*
X04379Y09097*
X04359Y0911*
X04337Y09119*
X04314Y09124*
X04291Y09126*
G37*
G36*
X00354D02*
X0033Y09124D01*
X00307Y09119*
X00286Y0911*
X00266Y09097*
X00248Y09082*
X00232Y09064*
X0022Y09044*
X00211Y09022*
X00206Y08999*
X00204Y08976*
X00206Y08952*
X00211Y0893*
X0022Y08908*
X00232Y08888*
X00248Y0887*
X00266Y08854*
X00286Y08842*
X00307Y08833*
X0033Y08828*
X00354Y08826*
X00377Y08828*
X004Y08833*
X00422Y08842*
X00442Y08854*
X0046Y0887*
X00475Y08888*
X00488Y08908*
X00497Y0893*
X00502Y08952*
X00504Y08976*
X00502Y08999*
X00497Y09022*
X00488Y09044*
X00475Y09064*
X0046Y09082*
X00442Y09097*
X00422Y0911*
X004Y09119*
X00377Y09124*
X00354Y09126*
G37*
G36*
X05826Y08614D02*
X05087D01*
X04656*
X03987*
X03987*
X03406*
X03398Y08613*
X0339Y0861*
X03383Y08605*
X03376Y08597*
X03368Y08605*
X03362Y0861*
X03354Y08613*
X03346Y08614*
X0311*
X03102Y08613*
X03094Y0861*
X03087Y08605*
X02977Y08495*
X02952*
Y08445*
X02945*
X02942Y08447*
X02933Y08449*
X02485*
Y08487*
X0242*
Y08449*
X02394*
Y08449*
X02329*
Y08449*
X01855*
Y08487*
X0179*
Y08449*
X01764*
Y08449*
X01699*
Y08449*
X0118*
Y08487*
X01115*
Y08449*
X01089*
Y08449*
X01024*
Y08449*
X00471*
Y08487*
X00406*
Y08449*
X0038*
Y08449*
X00315*
Y084*
X0038*
Y08401*
X00406*
Y08363*
X00414*
Y08181*
X00341Y08108*
X0033Y08111*
X00318Y08112*
X00306Y08111*
X00295Y08107*
X00284Y08102*
X00275Y08094*
X00267Y08085*
X00262Y08074*
X00258Y08063*
X00257Y08051*
X00258Y08039*
X00262Y08027*
X00267Y08017*
X00275Y08007*
X00284Y08*
X00295Y07994*
X00306Y07991*
X00318Y07989*
X0033Y07991*
X00342Y07994*
X00352Y08*
X00362Y08007*
X00369Y08017*
X00375Y08027*
X00379Y08039*
X0038Y08051*
X00379Y08063*
X00375Y08073*
X00456Y08154*
X00461Y08162*
X00463Y08171*
Y08363*
X00471*
Y08401*
X01024*
Y084*
X01089*
Y08401*
X01115*
Y08389*
X00971Y08245*
X00965Y08237*
X00964Y08228*
Y08107*
X00954Y08102*
X00944Y08094*
X00937Y08085*
X00931Y08074*
X00928Y08063*
X00926Y08051*
X00928Y08039*
X00931Y08027*
X00937Y08017*
X00944Y08007*
X00954Y08*
X00964Y07994*
X00976Y07991*
X00988Y07989*
X01Y07991*
X01011Y07994*
X01022Y08*
X01031Y08007*
X01039Y08017*
X01044Y08027*
X01048Y08039*
X01049Y08051*
X01048Y08063*
X01044Y08074*
X01039Y08085*
X01031Y08094*
X01022Y08102*
X01012Y08107*
Y08218*
X01157Y08363*
X0118*
Y08401*
X01699*
Y084*
X01764*
Y08401*
X0179*
Y08389*
X0164Y08239*
X01635Y08231*
X01633Y08222*
Y08107*
X01623Y08102*
X01614Y08094*
X01606Y08085*
X016Y08074*
X01597Y08063*
X01596Y08051*
X01597Y08039*
X016Y08027*
X01606Y08017*
X01614Y08007*
X01623Y08*
X01634Y07994*
X01645Y07991*
X01657Y07989*
X01669Y07991*
X0168Y07994*
X01691Y08*
X017Y08007*
X01708Y08017*
X01714Y08027*
X01717Y08039*
X01718Y08051*
X01717Y08063*
X01714Y08074*
X01708Y08085*
X017Y08094*
X01691Y08102*
X01681Y08107*
Y08212*
X01832Y08363*
X01855*
Y08401*
X02329*
Y084*
X02394*
Y08401*
X0242*
Y08389*
X02309Y08278*
X02304Y08271*
X02302Y08261*
Y08107*
X02292Y08102*
X02283Y08094*
X02275Y08085*
X0227Y08074*
X02266Y08063*
X02265Y08051*
X02266Y08039*
X0227Y08027*
X02275Y08017*
X02283Y08007*
X02292Y08*
X02303Y07994*
X02314Y07991*
X02326Y07989*
X02338Y07991*
X0235Y07994*
X0236Y08*
X0237Y08007*
X02377Y08017*
X02383Y08027*
X02386Y08039*
X02388Y08051*
X02386Y08063*
X02383Y08074*
X02377Y08085*
X0237Y08094*
X0236Y08102*
X0235Y08107*
Y08251*
X02462Y08363*
X02485*
Y08401*
X02933*
X02942Y08402*
X02945Y08405*
X02952*
Y08355*
X0296*
Y0823*
X02935Y08206*
X0293Y08198*
X02928Y08188*
Y0813*
X02925*
X02915Y08128*
X02908Y08123*
X02902Y08115*
X02901Y08106*
X02902Y08097*
X02908Y08089*
X02915Y08084*
X02916Y08084*
Y08078*
X02915Y08078*
X02908Y08073*
X02902Y08065*
X02901Y08056*
X02902Y08047*
X02908Y08039*
X02915Y08034*
X02916Y08034*
Y08028*
X02915Y08028*
X02908Y08023*
X02902Y08015*
X02901Y08006*
X02902Y07997*
X02908Y07989*
X02915Y07984*
X02916Y07984*
Y07978*
X02915Y07978*
X02908Y07973*
X02902Y07965*
X02901Y07956*
X02902Y0795*
X02817Y07866*
X02812Y07858*
X0281Y07849*
Y07628*
X02795*
Y07579*
X02788*
X02784Y07581*
X02775Y07583*
X02479*
Y07621*
X02414*
Y07583*
X02388*
Y07583*
X02323*
Y07583*
X0181*
Y07621*
X01745*
Y07583*
X01719*
Y07583*
X01654*
Y07583*
X01186*
Y07621*
X01121*
Y07583*
X01095*
Y07583*
X0103*
Y07583*
X00471*
Y07621*
X00406*
Y07583*
X0038*
Y07583*
X00315*
Y07534*
X0038*
Y07534*
X00406*
Y07497*
X00414*
Y07295*
X00341Y07222*
X0033Y07225*
X00318Y07226*
X00306Y07225*
X00295Y07222*
X00284Y07216*
X00275Y07208*
X00267Y07199*
X00262Y07188*
X00258Y07177*
X00257Y07165*
X00258Y07153*
X00262Y07141*
X00267Y07131*
X00275Y07121*
X00284Y07114*
X00295Y07108*
X00306Y07105*
X00318Y07104*
X0033Y07105*
X00342Y07108*
X00352Y07114*
X00362Y07121*
X00369Y07131*
X00375Y07141*
X00379Y07153*
X0038Y07165*
X00379Y07177*
X00375Y07188*
X00456Y07268*
X00461Y07276*
X00463Y07285*
Y07497*
X00471*
Y07534*
X0103*
Y07534*
X01095*
Y07534*
X01121*
Y07497*
X01129*
Y0734*
X0101Y07222*
X01Y07225*
X00988Y07226*
X00976Y07225*
X00964Y07222*
X00954Y07216*
X00944Y07208*
X00937Y07199*
X00931Y07188*
X00928Y07177*
X00926Y07165*
X00928Y07153*
X00931Y07141*
X00937Y07131*
X00944Y07121*
X00954Y07114*
X00964Y07108*
X00976Y07105*
X00988Y07104*
X01Y07105*
X01011Y07108*
X01022Y07114*
X01031Y07121*
X01039Y07131*
X01044Y07141*
X01048Y07153*
X01049Y07165*
X01048Y07177*
X01045Y07188*
X0117Y07313*
X01175Y07321*
X01177Y0733*
Y07497*
X01186*
Y07534*
X01654*
Y07534*
X01719*
Y07534*
X01745*
Y07497*
X01753*
Y07295*
X0168Y07222*
X01669Y07225*
X01657Y07226*
X01645Y07225*
X01634Y07222*
X01623Y07216*
X01614Y07208*
X01606Y07199*
X016Y07188*
X01597Y07177*
X01596Y07165*
X01597Y07153*
X016Y07141*
X01606Y07131*
X01614Y07121*
X01623Y07114*
X01634Y07108*
X01645Y07105*
X01657Y07104*
X01669Y07105*
X0168Y07108*
X01691Y07114*
X017Y07121*
X01708Y07131*
X01714Y07141*
X01717Y07153*
X01718Y07165*
X01717Y07177*
X01714Y07188*
X01794Y07268*
X01799Y07276*
X01801Y07285*
Y07497*
X0181*
Y07534*
X02323*
Y07534*
X02388*
Y07534*
X02414*
Y07523*
X02309Y07418*
X02304Y0741*
X02302Y07401*
Y07221*
X02292Y07216*
X02283Y07208*
X02275Y07199*
X0227Y07188*
X02266Y07177*
X02265Y07165*
X02266Y07153*
X0227Y07141*
X02275Y07131*
X02283Y07121*
X02292Y07114*
X02303Y07108*
X02314Y07105*
X02326Y07104*
X02338Y07105*
X0235Y07108*
X0236Y07114*
X0237Y07121*
X02377Y07131*
X02383Y07141*
X02386Y07153*
X02388Y07165*
X02386Y07177*
X02383Y07188*
X02377Y07199*
X0237Y07208*
X0236Y07216*
X0235Y07221*
Y07391*
X02456Y07497*
X02479*
Y07534*
X02775*
X02784Y07536*
X02788Y07538*
X02795*
Y07489*
X02831*
X02865Y07454*
Y07255*
Y07214*
X0286Y07213*
X02858Y07218*
X02854Y07224*
X02848Y07228*
X02841Y07231*
X02834Y07232*
X02827Y07231*
X0282Y07228*
X02814Y07224*
X0281Y07218*
X02808Y07214*
X02756*
X02755Y07219*
X02761Y07223*
X02766Y07231*
X02768Y0724*
X02766Y07249*
X02761Y07257*
X02753Y07262*
X02749Y07263*
Y07363*
X02759Y07374*
X02763Y07374*
X02769Y07377*
X02775Y07381*
X02779Y07387*
X02782Y07394*
X02783Y07401*
X02782Y07408*
X02779Y07415*
X02775Y07421*
X02769Y07425*
X02763Y07428*
X02755Y07429*
X02748Y07428*
X02742Y07425*
X02736Y07421*
X02731Y07415*
X02729Y07408*
X02728Y07405*
X02711Y07388*
X02706Y07381*
X02705Y07373*
Y07263*
X02701Y07262*
X02693Y07257*
X02688Y07249*
X02686Y0724*
X02688Y07231*
X02693Y07223*
X02701Y07218*
X02702Y07217*
Y07212*
X02701Y07212*
X02693Y07207*
X02688Y07199*
X02686Y0719*
X02688Y07181*
X02693Y07173*
X02701Y07168*
X02702Y07167*
Y07162*
X02701Y07162*
X02693Y07157*
X02688Y07149*
X02686Y0714*
X02688Y07131*
X02693Y07123*
X02693Y07123*
X02692Y07118*
X02677*
X02668Y07117*
X02661Y07114*
X02654Y07109*
X02649Y07102*
X02646Y07094*
X02645Y07086*
X02646Y07078*
X02649Y0707*
X02654Y07064*
X02661Y07059*
X02668Y07055*
X02677Y07054*
X02723*
X02731Y07055*
X02739Y07059*
X02746Y07064*
X02749Y07067*
X02751Y07069*
X02752Y07069*
X02759Y07074*
X02764Y07081*
X02765Y07085*
X02727*
Y07095*
X02765*
X02764Y07098*
X02759Y07106*
X02752Y0711*
X02752Y07115*
X02753Y07116*
X02805*
X02806Y07114*
X02811Y07108*
X02816Y07103*
X02823Y07101*
X0283Y071*
X02837Y07101*
X02844Y07103*
X0285Y07108*
X02854Y07114*
X02857Y0712*
X02858Y07128*
X02857Y07135*
X02854Y07141*
X0285Y07147*
X02844Y07152*
X02837Y07154*
X02835Y07155*
X02833Y07157*
X02825Y07162*
X02825Y07164*
X02826Y07167*
X02829Y07168*
X02837Y07173*
X02841Y07177*
X02848Y0718*
X02854Y07185*
X02858Y0719*
X0286Y07195*
X02865Y07194*
Y0714*
X02867Y07131*
X02872Y07123*
X0288Y07118*
X02889Y07116*
X02912*
X02913Y07111*
X02908Y07107*
X02902Y07099*
X02901Y0709*
X02902Y07081*
X02908Y07073*
X02915Y07068*
X02917Y07067*
Y06731*
X02909Y06723*
X02874*
Y06673*
X02847*
X02843Y06675*
X02834Y06677*
X02518*
Y06715*
X02453*
Y06677*
X02428*
Y06678*
X02363*
Y06677*
X01849*
Y06715*
X01784*
Y06677*
X01758*
Y06678*
X01693*
Y06677*
X0118*
Y06715*
X01115*
Y06677*
X01089*
Y06678*
X01024*
Y06677*
X0051*
Y06715*
X00445*
Y06677*
X0042*
Y06678*
X00355*
Y06628*
X0042*
Y06629*
X00445*
Y06617*
X00301Y06473*
X00296Y06465*
X00294Y06456*
Y06335*
X00284Y0633*
X00275Y06322*
X00267Y06313*
X00262Y06302*
X00258Y06291*
X00257Y06279*
X00258Y06267*
X00262Y06256*
X00267Y06245*
X00275Y06236*
X00284Y06228*
X00295Y06222*
X00306Y06219*
X00318Y06218*
X0033Y06219*
X00342Y06222*
X00352Y06228*
X00362Y06236*
X00369Y06245*
X00375Y06256*
X00379Y06267*
X0038Y06279*
X00379Y06291*
X00375Y06302*
X00369Y06313*
X00362Y06322*
X00352Y0633*
X00342Y06335*
Y06446*
X00487Y06591*
X0051*
Y06629*
X01024*
Y06628*
X01089*
Y06629*
X01115*
Y06617*
X00971Y06473*
X00965Y06465*
X00964Y06456*
Y06335*
X00954Y0633*
X00944Y06322*
X00937Y06313*
X00931Y06302*
X00928Y06291*
X00926Y06279*
X00928Y06267*
X00931Y06256*
X00937Y06245*
X00944Y06236*
X00954Y06228*
X00964Y06222*
X00976Y06219*
X00988Y06218*
X01Y06219*
X01011Y06222*
X01022Y06228*
X01031Y06236*
X01039Y06245*
X01044Y06256*
X01048Y06267*
X01049Y06279*
X01048Y06291*
X01044Y06302*
X01039Y06313*
X01031Y06322*
X01022Y0633*
X01012Y06335*
Y06446*
X01157Y06591*
X0118*
Y06629*
X01693*
Y06628*
X01758*
Y06629*
X01784*
Y06617*
X0164Y06473*
X01635Y06465*
X01633Y06456*
Y06335*
X01623Y0633*
X01614Y06322*
X01606Y06313*
X016Y06302*
X01597Y06291*
X01596Y06279*
X01597Y06267*
X016Y06256*
X01606Y06245*
X01614Y06236*
X01623Y06228*
X01634Y06222*
X01645Y06219*
X01657Y06218*
X01669Y06219*
X0168Y06222*
X01691Y06228*
X017Y06236*
X01708Y06245*
X01714Y06256*
X01717Y06267*
X01718Y06279*
X01717Y06291*
X01714Y06302*
X01708Y06313*
X017Y06322*
X01691Y0633*
X01681Y06335*
Y06446*
X01826Y06591*
X01849*
Y06629*
X02363*
Y06628*
X02428*
Y06629*
X02453*
Y06617*
X02309Y06473*
X02304Y06465*
X02302Y06456*
Y06335*
X02292Y0633*
X02283Y06322*
X02275Y06313*
X0227Y06302*
X02266Y06291*
X02265Y06279*
X02266Y06267*
X0227Y06256*
X02275Y06245*
X02283Y06236*
X02292Y06228*
X02303Y06222*
X02314Y06219*
X02326Y06218*
X02338Y06219*
X0235Y06222*
X0236Y06228*
X0237Y06236*
X02377Y06245*
X02383Y06256*
X02386Y06267*
X02388Y06279*
X02386Y06291*
X02383Y06302*
X02377Y06313*
X0237Y06322*
X0236Y0633*
X0235Y06335*
Y06446*
X02495Y06591*
X02518*
Y06629*
X02834*
X02843Y06631*
X02847Y06633*
X02874*
Y06583*
X02889*
Y06417*
X02891Y06408*
X02896Y064*
X03003Y06292*
X03003Y0629*
X02998Y06287*
X02998Y06287*
X02991Y06288*
X02983Y06287*
X02977Y06284*
X02971Y0628*
X02971Y0628*
X02925*
X02915Y06278*
X02908Y06273*
X02902Y06265*
X02901Y06256*
X02902Y06246*
X02908Y06239*
X02915Y06233*
X02916Y06233*
Y06228*
X02915Y06228*
X02908Y06223*
X02902Y06215*
X02901Y06206*
X02902Y06196*
X02908Y06189*
X02915Y06183*
X02916Y06183*
Y06178*
X02915Y06178*
X02908Y06173*
X02902Y06165*
X02901Y06156*
X02902Y06146*
X02908Y06139*
X02915Y06133*
X02916Y06133*
Y06128*
X02915Y06128*
X02908Y06123*
X02902Y06115*
X02901Y06106*
X02902Y061*
X02896Y06094*
X02891Y06086*
X02889Y06077*
Y05857*
X02874*
Y05811*
X02636*
Y05849*
X02571*
Y05811*
X02546*
Y05812*
X02481*
Y05811*
X01964*
X01961Y05812*
Y05851*
X01896*
Y05812*
X01893Y05811*
X01871*
Y05813*
X01806*
Y05811*
X01337*
Y05849*
X01272*
Y05811*
X01247*
Y05812*
X01182*
Y05811*
X00628*
Y05849*
X00563*
Y05811*
X00538*
Y05812*
X00473*
Y05762*
X00538*
Y05763*
X00563*
Y05751*
X00301Y05489*
X00296Y05481*
X00294Y05472*
Y0545*
X00284Y05444*
X00275Y05437*
X00267Y05427*
X00262Y05417*
X00258Y05405*
X00257Y05393*
X00258Y05381*
X00262Y0537*
X00267Y05359*
X00275Y0535*
X00284Y05342*
X00295Y05337*
X00306Y05333*
X00318Y05332*
X0033Y05333*
X00342Y05337*
X00352Y05342*
X00362Y0535*
X00369Y05359*
X00375Y0537*
X00379Y05381*
X0038Y05393*
X00379Y05405*
X00375Y05417*
X00369Y05427*
X00362Y05437*
X00352Y05444*
X00342Y0545*
Y05462*
X00605Y05725*
X00628*
Y05763*
X01182*
Y05762*
X01247*
Y05763*
X01272*
Y05751*
X00974Y05453*
X00964Y0545*
X00954Y05444*
X00944Y05437*
X00937Y05427*
X00931Y05417*
X00928Y05405*
X00926Y05393*
X00928Y05381*
X00931Y0537*
X00937Y05359*
X00944Y0535*
X00954Y05342*
X00964Y05337*
X00976Y05333*
X00988Y05332*
X01Y05333*
X01011Y05337*
X01022Y05342*
X01031Y0535*
X01039Y05359*
X01044Y0537*
X01048Y05381*
X01049Y05393*
X01048Y05405*
X01044Y05417*
X01039Y05427*
X01031Y05437*
X01031Y05437*
X01031Y05442*
X01314Y05725*
X01337*
Y05763*
X01896*
Y05749*
X0164Y05493*
X01635Y05485*
X01633Y05476*
Y0545*
X01623Y05444*
X01614Y05437*
X01606Y05427*
X016Y05417*
X01597Y05405*
X01596Y05393*
X01597Y05381*
X016Y0537*
X01606Y05359*
X01614Y0535*
X01623Y05342*
X01634Y05337*
X01645Y05333*
X01657Y05332*
X01669Y05333*
X0168Y05337*
X01691Y05342*
X017Y0535*
X01708Y05359*
X01714Y0537*
X01717Y05381*
X01718Y05393*
X01717Y05405*
X01714Y05417*
X01708Y05427*
X017Y05437*
X01691Y05444*
X01681Y0545*
Y05466*
X01942Y05727*
X01961*
Y05763*
X02481*
Y05762*
X02546*
Y05763*
X02571*
Y05751*
X02309Y05489*
X02304Y05481*
X02302Y05472*
Y0545*
X02292Y05444*
X02283Y05437*
X02275Y05427*
X0227Y05417*
X02266Y05405*
X02265Y05393*
X02266Y05381*
X0227Y0537*
X02275Y05359*
X02283Y0535*
X02292Y05342*
X02303Y05337*
X02314Y05333*
X02326Y05332*
X02338Y05333*
X0235Y05337*
X0236Y05342*
X0237Y0535*
X02377Y05359*
X02383Y0537*
X02386Y05381*
X02388Y05393*
X02386Y05405*
X02383Y05417*
X02377Y05427*
X0237Y05437*
X0236Y05444*
X0235Y0545*
Y05462*
X02613Y05725*
X02636*
Y05763*
X02874*
Y05742*
X02817Y05686*
X02812Y05678*
X0281Y05669*
Y05118*
X02812Y05108*
X02817Y05101*
X03004Y04914*
X03003Y04912*
X03Y04909*
X02998Y04908*
X02992Y04909*
X02984Y04908*
X02978Y04905*
X02973Y04902*
X02925*
X02915Y049*
X02908Y04895*
X02902Y04887*
X02901Y04878*
X02902Y04868*
X02908Y04861*
X02915Y04855*
X02916Y04855*
Y0485*
X02915Y0485*
X02908Y04845*
X02902Y04837*
X02901Y04828*
X02902Y04818*
X02908Y04811*
X02915Y04805*
X02916Y04805*
Y048*
X02915Y048*
X02908Y04795*
X02902Y04787*
X02901Y04778*
X02902Y04768*
X02908Y04761*
X02915Y04755*
X02916Y04755*
Y0475*
X02915Y0475*
X02908Y04745*
X02902Y04737*
X02901Y04728*
X02902Y04718*
X02908Y04711*
X02915Y04705*
X02925Y04704*
X02928*
Y04659*
X02925Y04652*
X02924Y04645*
X02925Y04639*
X02925Y04637*
X02922Y04633*
X0292Y04633*
X02858Y04695*
Y04744*
X02856Y04753*
X02851Y04761*
X02817Y04795*
X02809Y048*
X028Y04802*
X02756*
X02755Y04807*
X02761Y04811*
X02766Y04818*
X02768Y04828*
X02766Y04837*
X02761Y04845*
X02753Y0485*
X02752Y0485*
Y04855*
X02753Y04855*
X02761Y04861*
X02766Y04868*
X02768Y04878*
X02766Y04887*
X02761Y04895*
X02753Y049*
X02744Y04902*
X00743*
X00734Y049*
X00726Y04895*
X00501Y04669*
X00413*
X00404Y04667*
X00396Y04662*
X00341Y04608*
X00302*
Y04525*
X00385*
Y04583*
X00423Y04621*
X00511*
X0052Y04623*
X00528Y04628*
X00753Y04854*
X01823*
X01824Y04849*
X01818Y04845*
X01665Y04691*
X0166Y04683*
X01658Y04674*
Y04608*
X0164*
Y04525*
X01723*
Y04608*
X01706*
Y04664*
X01845Y04804*
X02697*
X02699Y04799*
X02693Y04795*
X02688Y04787*
X02686Y04778*
X02688Y04768*
X02693Y04761*
X02693Y0476*
X02692Y04756*
X02677*
X02668Y04755*
X02661Y04751*
X02654Y04746*
X02649Y0474*
X02646Y04732*
X02645Y04724*
X02646Y04716*
X02649Y04708*
X02654Y04701*
X02661Y04696*
X02668Y04693*
X02677Y04692*
X02723*
X02731Y04693*
X02739Y04696*
X02746Y04701*
X02749Y04705*
X02751Y04707*
X02752Y04707*
X02759Y04712*
X02764Y04719*
X02765Y04723*
X02727*
Y04733*
X02765*
X02764Y04736*
X02759Y04743*
X02752Y04748*
X02752Y04753*
X02753Y04754*
X0279*
X0281Y04734*
Y04685*
X02812Y04675*
X02817Y04668*
X02896Y04589*
X02904Y04584*
X02904Y04584*
X02903Y04579*
X01822*
X01818Y04587*
X01811Y04596*
X01803Y04603*
X01793Y04607*
X01782Y04608*
X01771Y04607*
X01761Y04603*
X01752Y04596*
X01746Y04587*
X01742Y04577*
X0174Y04566*
X01742Y04556*
X01746Y04546*
X0175Y0454*
X01722Y04512*
X01584*
X01513Y04583*
X01505Y04589*
X01496Y04591*
X00477*
X00473Y04596*
X00464Y04603*
X00454Y04607*
X00443Y04608*
X00432Y04607*
X00422Y04603*
X00414Y04596*
X00407Y04587*
X00403Y04577*
X00402Y04566*
X00403Y04556*
X00407Y04546*
X00411Y0454*
X00383Y04512*
X00285*
X00181Y04616*
Y05698*
X00364Y05881*
X00659*
X00691Y05849*
X00699Y05843*
X00708Y05842*
X01034*
X01043Y05843*
X01051Y05849*
X01106Y05904*
X01112Y05903*
X01123Y05904*
X01133Y05908*
X01142Y05915*
X01149Y05924*
X01153Y05934*
X01154Y05944*
X01153Y05955*
X01149Y05965*
X01142Y05974*
X01133Y0598*
X01123Y05985*
X01112Y05986*
X01102Y05985*
X01092Y0598*
X01083Y05974*
X01076Y05965*
X01072Y05955*
X01071Y05944*
X01072Y05938*
X01058Y05924*
X01054Y05926*
Y05957*
X01095Y05999*
X0246*
X02469Y06001*
X02477Y06006*
X02653Y06182*
X02697*
X02699Y06177*
X02693Y06173*
X02688Y06165*
X02686Y06156*
X02688Y06146*
X02693Y06139*
X02693Y06138*
X02692Y06134*
X02677*
X02668Y06133*
X02661Y06129*
X02654Y06124*
X02649Y06118*
X02646Y0611*
X02645Y06102*
X02646Y06094*
X02649Y06086*
X02654Y06079*
X02661Y06074*
X02668Y06071*
X02677Y0607*
X02723*
X02731Y06071*
X02739Y06074*
X02746Y06079*
X02749Y06083*
X02751Y06085*
X02752Y06085*
X02759Y0609*
X02764Y06097*
X02765Y06101*
X02727*
Y06111*
X02765*
X02764Y06114*
X02764Y06114*
X02769Y06116*
X02832Y06053*
Y06*
X0283Y05998*
X02827Y05991*
X02826Y05984*
X02827Y05977*
X0283Y0597*
X02834Y05964*
X0284Y0596*
X02847Y05957*
X02854Y05956*
X02861Y05957*
X02868Y0596*
X02873Y05964*
X02878Y0597*
X02881Y05977*
X02882Y05984*
X02881Y05991*
X02878Y05998*
X02876Y06*
Y06062*
X02874Y06071*
X02869Y06078*
X02776Y06171*
X02769Y06176*
X02761Y06178*
X02753*
X02753Y06178*
X02752Y06178*
Y06183*
X02753Y06183*
X02761Y06189*
X02766Y06196*
X02768Y06206*
X02766Y06215*
X02761Y06223*
X02755Y06227*
X02756Y06232*
X02823*
X02825Y06231*
X02832Y0623*
X02839Y06231*
X02846Y06233*
X02852Y06238*
X02856Y06244*
X02859Y0625*
X0286Y06257*
X02859Y06265*
X02856Y06271*
X02852Y06277*
X02846Y06282*
X02839Y06284*
X02832Y06285*
X02825Y06284*
X02818Y06282*
X02816Y0628*
X0271*
X02701Y06278*
X02693Y06273*
X02688Y06265*
X02686Y06256*
X02688Y06246*
X02693Y06239*
X02699Y06235*
X02697Y0623*
X02643*
X02633Y06228*
X02626Y06223*
X0245Y06047*
X01091*
X01082Y06045*
X01074Y0604*
X01069Y06032*
X01068Y06028*
X01025Y05986*
X00971*
Y05903*
X01031*
X01032Y05898*
X01024Y0589*
X00718*
X00686Y05922*
X00678Y05927*
X00669Y05929*
X00354*
X00345Y05927*
X00337Y05922*
X0014Y05725*
X00135Y05717*
X00133Y05708*
Y04606*
X00135Y04597*
X0014Y04589*
X00258Y04471*
X00266Y04465*
X00275Y04464*
X00393*
X00402Y04465*
X0041Y04471*
X00482Y04542*
X01486*
X01557Y04471*
X01565Y04465*
X01574Y04464*
X01732*
X01741Y04465*
X01749Y04471*
X01797Y04518*
X01802Y04516*
X01811Y04515*
X03759Y04515*
X04101*
X0415Y04465*
X04157Y0446*
X04165Y04457*
X04173Y04456*
X04251*
X0426Y04457*
X04267Y0446*
X04274Y04465*
X04333Y04524*
X04336Y04528*
X04342Y0453*
X04351Y04537*
X04357Y04546*
X04361Y04556*
X04363Y04566*
X04361Y04577*
X04357Y04587*
X04351Y04596*
X04342Y04603*
X04332Y04607*
X04321Y04608*
X0431Y04607*
X043Y04603*
X04292Y04596*
X04285Y04587*
X04281Y04577*
X04279Y04566*
X0428Y04561*
X04267Y04548*
X04262Y0455*
Y04608*
X0418*
Y046*
X04175Y04598*
X04091Y04682*
X04084Y04687*
X04074Y04689*
X03267*
X03258Y04687*
X0325Y04682*
X03198Y0463*
X02981*
X02978Y04635*
X02979Y04638*
X0298Y04645*
X02979Y04652*
X02976Y04659*
Y04712*
X0298Y04718*
X02982Y04728*
X0298Y04737*
X02975Y04745*
X02969Y04749*
X02971Y04754*
X03006*
X03015Y04755*
X03023Y04761*
X03048Y04786*
X03053Y04793*
X03055Y04803*
Y04921*
X03053Y0493*
X03048Y04938*
X02868Y05118*
X02871Y05122*
X02872Y05121*
X02882Y05117*
X02893Y05115*
X02935*
X03088Y04963*
Y04881*
Y04881*
X03089Y04871*
X03093Y04861*
X031Y04852*
X03139Y04813*
X03148Y04806*
X03158Y04802*
X03169Y048*
X03169*
X03917*
X03928Y04802*
X03938Y04806*
X03946Y04813*
Y04813*
X04131Y04997*
X04372*
X04498Y04872*
Y04872*
X04848Y04521*
X04854Y04517*
X04852Y04512*
X04557*
X04406Y04662*
X04398Y04667*
X04389Y04669*
X04222*
X04131Y04761*
X04123Y04766*
X04114Y04768*
X03129*
X0312Y04766*
X03112Y04761*
X03103Y04751*
X03096Y04748*
X0309Y04744*
X03086Y04738*
X03083Y04731*
X03082Y04724*
X03083Y04717*
X03086Y0471*
X0309Y04704*
X03096Y047*
X03103Y04697*
X0311Y04696*
X03117Y04697*
X03124Y047*
X03129Y04704*
X03134Y0471*
X03137Y04717*
X03139Y0472*
X04104*
X04195Y04628*
X04203Y04623*
X04212Y04621*
X04379*
X0453Y04471*
X04538Y04465*
X04547Y04464*
X04776*
Y04433*
X0475*
Y04434*
X04686*
Y04433*
X04054*
Y04471*
X03989*
Y04433*
X03963*
Y04434*
X03898*
Y04433*
X03502*
Y04471*
X03437*
Y04433*
X03412*
Y04434*
X03347*
Y04433*
X03281*
X03274Y04436*
X03267Y04437*
X0326Y04436*
X03253Y04433*
X00668*
Y04471*
X00603*
Y04433*
X00577*
Y04434*
X00512*
Y04433*
X00472*
X00463Y04431*
X00455Y04426*
X00179Y0415*
X00174Y04143*
X00172Y04133*
Y03582*
X00174Y03573*
X00179Y03565*
X00237Y03507*
Y03095*
X00229*
Y03046*
X00294*
Y03095*
X00285*
Y03517*
X00284Y03526*
X00278Y03534*
X0022Y03592*
Y04123*
X00482Y04385*
X00512*
Y04384*
X00577*
Y04385*
X00603*
Y04353*
X00341Y04092*
X0033Y04095*
X00318Y04096*
X00306Y04095*
X00295Y04092*
X00284Y04086*
X00275Y04078*
X00267Y04069*
X00262Y04058*
X00258Y04047*
X00257Y04035*
X00258Y04023*
X00262Y04011*
X00267Y04001*
X00275Y03992*
X00284Y03984*
X00295Y03978*
X00306Y03975*
X00318Y03974*
X0033Y03975*
X00342Y03978*
X00352Y03984*
X00362Y03992*
X00369Y04001*
X00375Y04011*
X00379Y04023*
X0038Y04035*
X00379Y04047*
X00375Y04058*
X00652Y04335*
X00658Y04343*
X00658Y04347*
X00668*
Y04385*
X03253*
X0326Y04382*
X03267Y04381*
X03274Y04382*
X03281Y04385*
X03347*
Y04384*
X03412*
Y04385*
X03437*
Y04373*
X03175Y04111*
X0317Y04103*
X03168Y04094*
Y04091*
X03158Y04086*
X03149Y04078*
X03141Y04069*
X03136Y04058*
X03132Y04047*
X03131Y04035*
X03132Y04023*
X03136Y04011*
X03141Y04001*
X03149Y03992*
X03158Y03984*
X03169Y03978*
X0318Y03975*
X03192Y03974*
X03204Y03975*
X03216Y03978*
X03226Y03984*
X03236Y03992*
X03243Y04001*
X03249Y04011*
X03253Y04023*
X03254Y04035*
X03253Y04047*
X03249Y04058*
X03243Y04069*
X03236Y04078*
X03226Y04086*
X03225Y04087*
X03224Y04092*
X03479Y04347*
X03502*
Y04385*
X03898*
Y04384*
X03963*
Y04385*
X03989*
Y04347*
X03997*
Y04263*
X03845Y04111*
X03839Y04103*
X03838Y04094*
Y04091*
X03828Y04086*
X03818Y04078*
X03811Y04069*
X03805Y04058*
X03802Y04047*
X038Y04035*
X03802Y04023*
X03805Y04011*
X03811Y04001*
X03818Y03992*
X03828Y03984*
X03838Y03978*
X0385Y03975*
X03862Y03974*
X03874Y03975*
X03885Y03978*
X03896Y03984*
X03905Y03992*
X03913Y04001*
X03918Y04011*
X03922Y04023*
X03923Y04035*
X03922Y04047*
X03918Y04058*
X03913Y04069*
X03905Y04078*
X03896Y04086*
X03894Y04087*
X03893Y04092*
X04038Y04236*
X04043Y04244*
X04045Y04253*
Y04347*
X04054*
Y04385*
X04686*
Y04384*
X0475*
Y04385*
X04776*
Y04373*
X04514Y04111*
X04509Y04103*
X04507Y04094*
Y04091*
X04497Y04086*
X04488Y04078*
X0448Y04069*
X04474Y04058*
X04471Y04047*
X0447Y04035*
X04471Y04023*
X04474Y04011*
X0448Y04001*
X04488Y03992*
X04497Y03984*
X04508Y03978*
X04519Y03975*
X04531Y03974*
X04543Y03975*
X04554Y03978*
X04565Y03984*
X04574Y03992*
X04582Y04001*
X04588Y04011*
X04591Y04023*
X04592Y04035*
X04591Y04047*
X04588Y04058*
X04582Y04069*
X04574Y04078*
X04565Y04086*
X04564Y04087*
X04563Y04092*
X04818Y04347*
X04841*
Y04385*
X05355*
Y04384*
X0542*
Y04385*
X05445*
Y04373*
X05183Y04111*
X05178Y04103*
X05176Y04094*
Y04091*
X05166Y04086*
X05157Y04078*
X05149Y04069*
X05144Y04058*
X0514Y04047*
X05139Y04035*
X0514Y04023*
X05144Y04011*
X05149Y04001*
X05157Y03992*
X05166Y03984*
X05177Y03978*
X05188Y03975*
X052Y03974*
X05212Y03975*
X05224Y03978*
X05234Y03984*
X05244Y03992*
X05251Y04001*
X05257Y04011*
X0526Y04023*
X05262Y04035*
X0526Y04047*
X05257Y04058*
X05251Y04069*
X05244Y04078*
X05234Y04086*
X05233Y04087*
X05232Y04092*
X05487Y04347*
X0551*
Y04369*
X05515Y04371*
X05802Y04084*
Y02716*
X05804Y02707*
X05809Y02699*
X05967Y02542*
X05975Y02536*
X05984Y02534*
X07657*
X07666Y02536*
X07674Y02542*
X08009Y02876*
X08014Y02884*
X08016Y02893*
Y05688*
X08014Y05698*
X08009Y05706*
X07999Y05715*
X07996Y05722*
X07992Y05728*
X07986Y05732*
X07979Y05735*
X07972Y05736*
X07965Y05735*
X07958Y05732*
X07952Y05728*
X07948Y05722*
X07945Y05715*
X07944Y05708*
X07945Y05701*
X07948Y05694*
X07952Y05689*
X07958Y05684*
X07965Y05681*
X07968Y05679*
Y02903*
X07647Y02583*
X05994*
X0585Y02726*
Y04094*
X05849Y04103*
X05843Y04111*
X05528Y04426*
X05521Y04431*
X05511Y04433*
X0551*
Y04464*
X06016*
X06017Y04459*
X06015Y04457*
X06012Y04453*
X06011Y04448*
Y02637*
X06012Y02633*
X06015Y02629*
X06019Y02626*
X06023Y02625*
X07598*
X07603Y02626*
X07606Y02629*
X07609Y02633*
X0761Y02637*
Y04448*
X07609Y04453*
X07606Y04457*
X07604Y04459*
X07605Y04464*
X07893*
X07902Y04465*
X0791Y04471*
X0795Y0451*
X07955Y04518*
X07957Y04527*
Y04685*
X07955Y04694*
X0795Y04702*
X07942Y04707*
X07938Y04708*
X07927Y04718*
X07921Y04723*
X07913Y04724*
X07899*
X07897Y04729*
X07897Y0473*
X07902Y0474*
X07903Y04751*
X07902Y04762*
X07897Y04772*
X07891Y04781*
X07882Y04787*
X07872Y04791*
X07861Y04793*
X0785Y04791*
X0784Y04787*
X07831Y04781*
X07824Y04772*
X0782Y04762*
X07819Y04751*
X0782Y0474*
X07824Y0473*
X07825Y04729*
X07823Y04724*
X07816*
X07801Y04739*
X07802Y0474*
X07803Y04751*
X07802Y04762*
X07797Y04772*
X07793Y04778*
X07795Y04783*
X07813*
X07821Y04784*
X07827Y04788*
X07849Y0481*
X0785Y0481*
X07861Y04809*
X07872Y0481*
X07882Y04814*
X07891Y04821*
X07897Y0483*
X07902Y0484*
X07903Y04851*
X07902Y04862*
X07897Y04872*
X07891Y04881*
X07882Y04887*
X07872Y04891*
X07861Y04893*
X0785Y04891*
X0784Y04887*
X07831Y04881*
X07824Y04872*
X0782Y04862*
X07819Y04851*
X0782Y0484*
X07821Y04839*
X07805Y04823*
X07798*
X07796Y04827*
X07797Y0483*
X07802Y0484*
X07803Y04851*
X07802Y04862*
X07797Y04872*
X07791Y04881*
X07782Y04887*
X07772Y04891*
X07761Y04893*
X0775Y04891*
X0774Y04887*
X07738Y04886*
X07608*
X07576Y04918*
X0757Y04922*
X07572Y04927*
X07727*
X07731Y04921*
X0774Y04914*
X0775Y0491*
X07761Y04909*
X07772Y0491*
X07782Y04914*
X07791Y04921*
X07797Y0493*
X07802Y0494*
X07803Y04951*
X07802Y04962*
X07797Y04972*
X07795Y04975*
X07797Y04979*
X07804*
X07821Y04963*
X0782Y04962*
X07819Y04951*
X0782Y0494*
X07824Y0493*
X07831Y04921*
X0784Y04914*
X0785Y0491*
X07861Y04909*
X07872Y0491*
X07882Y04914*
X07891Y04921*
X07897Y0493*
X07902Y0494*
X07903Y04951*
X07902Y04962*
X07897Y04972*
X07891Y04981*
X07882Y04987*
X07872Y04991*
X07861Y04993*
X0785Y04991*
X07849Y04991*
X07826Y05014*
X0782Y05018*
X07812Y0502*
X07796*
X07794Y05025*
X07797Y0503*
X07802Y0504*
X07803Y05051*
X07802Y05062*
X07797Y05072*
X07791Y05081*
X07782Y05087*
X07772Y05091*
X07761Y05093*
X0775Y05091*
X0774Y05087*
X07731Y05081*
X07724Y05072*
X0772Y05062*
X07719Y05051*
X0772Y0504*
X07724Y0503*
X07728Y05025*
X07726Y0502*
X07689*
X07686Y05022*
X07677Y05024*
X07289*
X06942Y0537*
X06945Y05381*
X06947Y05393*
X06945Y05405*
X06942Y05417*
X06936Y05427*
X06929Y05437*
X06919Y05444*
X06909Y0545*
X06897Y05453*
X06885Y05455*
X06873Y05453*
X06862Y0545*
X06851Y05444*
X06842Y05437*
X06834Y05427*
X06829Y05417*
X06825Y05405*
X06824Y05393*
X06825Y05381*
X06828Y0537*
X06679Y0522*
X06155*
X06148Y05223*
X06141Y05224*
X06134Y05223*
X06127Y0522*
X06122Y05216*
X06117Y0521*
X06114Y05204*
X06113Y05196*
X06114Y05189*
X06117Y05182*
X06122Y05177*
X06127Y05172*
X06134Y0517*
X06141Y05169*
X06148Y0517*
X06155Y05172*
X06688*
X06698Y05174*
X06706Y05179*
X06863Y05336*
X06873Y05333*
X06885Y05332*
X06897Y05333*
X06908Y05336*
X07262Y04982*
X07266Y0498*
X07265Y04975*
X0622*
X06087Y05108*
Y0523*
X06135Y05278*
X06193Y05336*
X06204Y05333*
X06216Y05332*
X06228Y05333*
X0624Y05337*
X0625Y05342*
X06259Y0535*
X06267Y05359*
X06273Y0537*
X06276Y05381*
X06277Y05393*
X06276Y05405*
X06273Y05417*
X06267Y05427*
X06259Y05437*
X0625Y05444*
X0624Y0545*
X06228Y05453*
X06216Y05455*
X06204Y05453*
X06193Y0545*
X06182Y05444*
X06173Y05437*
X06165Y05427*
X06159Y05417*
X06156Y05405*
X06155Y05393*
X06156Y05381*
X06159Y0537*
X06101Y05312*
X06045Y05257*
X0604Y05249*
X06038Y0524*
Y05098*
X0604Y05089*
X06045Y05081*
X06193Y04934*
X06198Y0493*
X06196Y04925*
X05905*
X05899Y04924*
X05897Y04929*
X05897Y0493*
X05902Y0494*
X05903Y04951*
X05902Y04962*
X05897Y04972*
X05891Y04981*
X05882Y04987*
X05872Y04991*
X05861Y04993*
X0585Y04991*
X0584Y04987*
X05831Y04981*
X05824Y04972*
X0582Y04962*
X05819Y04951*
X0582Y0494*
X05824Y0493*
X05827Y04926*
X05825Y04921*
X05797*
X05794Y04926*
X05797Y0493*
X05802Y0494*
X05803Y04951*
X05802Y04962*
X05797Y04972*
X05791Y04981*
X05782Y04987*
X05772Y04991*
X05761Y04993*
X0575Y04991*
X0574Y04987*
X05731Y04981*
X05724Y04972*
X0572Y04962*
X05719Y04951*
X0572Y0494*
X05724Y0493*
X05727Y04926*
X05725Y04921*
X0572Y0492*
X05714Y04915*
X05655Y04856*
X0565Y0485*
X05649Y04842*
Y04841*
X05645Y04836*
X05642Y0483*
X05641Y04822*
X05642Y04815*
X05645Y04808*
X05649Y04803*
X05655Y04798*
X05662Y04795*
X05669Y04795*
X05676Y04795*
X05683Y04798*
X05688Y04803*
X05693Y04808*
X05696Y04815*
X05697Y04822*
X05696Y0483*
X05693Y04836*
X05692Y04837*
X05715Y0486*
X0572Y04857*
X05719Y04851*
X0572Y0484*
X05724Y0483*
X0573Y04823*
X05729Y04817*
X05729Y04816*
X05726Y04815*
X05697Y04785*
X05696Y04783*
X05649*
X05643Y04787*
X05637Y0479*
X05629Y04791*
X05622Y0479*
X05616Y04787*
X0561Y04783*
X05605Y04777*
X05603Y0477*
X05602Y04763*
X05603Y04756*
X05605Y04749*
X0561Y04744*
X05616Y04739*
X05622Y04736*
X05629Y04735*
X05637Y04736*
X05643Y04739*
X05649Y04743*
X0571*
X05715Y04744*
X0572Y04741*
X0572Y0474*
X05723Y04732*
X05721Y04727*
X05719Y04726*
X05711Y04721*
X05639Y0465*
X04911*
X04462Y05099*
X04464Y05103*
X05538*
X05547Y05105*
X05555Y0511*
X05725Y0528*
X05729Y05277*
X05724Y05272*
X0572Y05262*
X05719Y05251*
X0572Y0524*
X05724Y0523*
X05731Y05221*
X0574Y05214*
X0575Y0521*
X05761Y05209*
X05772Y0521*
X05782Y05214*
X05791Y05221*
X05797Y0523*
X05802Y0524*
X05803Y05251*
X05802Y05262*
X05797Y05272*
X05791Y05281*
X05782Y05287*
X05772Y05291*
X05761Y05293*
X0575Y05291*
X0574Y05287*
X05734Y05283*
X05731Y05287*
X05754Y05309*
X05761Y05309*
X05772Y0531*
X05782Y05314*
X05791Y05321*
X05797Y0533*
X05802Y0534*
X05803Y05351*
X05802Y05362*
X05797Y05372*
X05791Y05381*
X05782Y05387*
X05772Y05391*
X05761Y05393*
X0575Y05391*
X0574Y05387*
X05731Y05381*
X05724Y05372*
X0572Y05362*
X05719Y05351*
X0572Y05344*
X05528Y05152*
X05401*
X05399Y05157*
X05404Y0516*
X05725Y0548*
X05729Y05477*
X05724Y05472*
X0572Y05462*
X05719Y05451*
X0572Y0544*
X05724Y0543*
X05731Y05421*
X0574Y05414*
X0575Y0541*
X05761Y05409*
X05772Y0541*
X05782Y05414*
X05791Y05421*
X05797Y0543*
X05802Y0544*
X05803Y05451*
X05802Y05462*
X05797Y05472*
X05791Y05481*
X05782Y05487*
X05772Y05491*
X05761Y05493*
X0575Y05491*
X0574Y05487*
X05734Y05483*
X05731Y05487*
X05754Y05509*
X05761Y05509*
X05772Y0551*
X05782Y05514*
X05791Y05521*
X05797Y0553*
X05802Y0554*
X05803Y05551*
X05802Y05562*
X05797Y05572*
X05792Y05579*
X05793Y05584*
X05793Y05585*
X05796Y05587*
X05797Y05588*
X05797Y05587*
X05807Y05586*
X05816Y05587*
X05824Y05593*
X05844Y05613*
X0585Y0561*
X05861Y05609*
X05872Y0561*
X05882Y05614*
X05891Y05621*
X05897Y0563*
X05902Y0564*
X05903Y05651*
X05902Y05662*
X05897Y05672*
X05891Y05681*
X05882Y05687*
X05872Y05691*
X05861Y05693*
X0585Y05691*
X0584Y05687*
X05831Y05681*
X05824Y05672*
X0582Y05662*
X0582Y05657*
X05807Y05645*
X05803Y05647*
X05803Y05651*
X05802Y05662*
X05797Y05672*
X05791Y05681*
X05782Y05687*
X05772Y05691*
X05761Y05693*
X0575Y05691*
X0574Y05687*
X05731Y05681*
X05726Y05674*
X0572Y05673*
X05712Y05668*
X0541Y05365*
X05406Y05368*
X05407Y0537*
X0541Y05381*
X05411Y05393*
X0541Y05405*
X05407Y05417*
X05401Y05427*
X05393Y05437*
X05384Y05444*
X05373Y0545*
X05362Y05453*
X0535Y05455*
X05338Y05453*
X05326Y0545*
X05316Y05444*
X05307Y05437*
X05299Y05427*
X05293Y05417*
X0529Y05405*
X05289Y05393*
X0529Y05381*
X05293Y0537*
X05299Y05359*
X05307Y0535*
X05316Y05342*
X05326Y05337*
X05338Y05333*
X0535Y05332*
X05362Y05333*
X05373Y05337*
X05375Y05337*
X05378Y05333*
X05364Y05319*
X04789*
X04737Y0537*
X04741Y05381*
X04742Y05393*
X04741Y05405*
X04737Y05417*
X04732Y05427*
X04724Y05437*
X04715Y05444*
X04704Y0545*
X04693Y05453*
X04681Y05455*
X04669Y05453*
X04657Y0545*
X04647Y05444*
X04637Y05437*
X0463Y05427*
X04624Y05417*
X0462Y05405*
X04619Y05393*
X0462Y05381*
X04624Y0537*
X0463Y05359*
X04637Y0535*
X04647Y05342*
X04657Y05337*
X04669Y05333*
X04681Y05332*
X04693Y05333*
X04703Y05336*
X04762Y05278*
X0477Y05273*
X04779Y05271*
X05359*
X05361Y05266*
X05355Y0526*
X04179*
X04068Y0537*
X04071Y05381*
X04073Y05393*
X04071Y05405*
X04068Y05417*
X04062Y05427*
X04055Y05437*
X04045Y05444*
X04035Y0545*
X04023Y05453*
X04011Y05455*
X03999Y05453*
X03988Y0545*
X03977Y05444*
X03968Y05437*
X0396Y05427*
X03955Y05417*
X03951Y05405*
X0395Y05393*
X03951Y05381*
X03955Y0537*
X0396Y05359*
X03968Y0535*
X03977Y05342*
X03988Y05337*
X03999Y05333*
X04011Y05332*
X04023Y05333*
X04034Y05336*
X04152Y05219*
X0416Y05213*
X04169Y05212*
X05365*
X05374Y05213*
X05382Y05219*
X05714Y05551*
X05719Y05549*
X0572Y05544*
X05377Y05201*
X04025*
X03934Y05292*
X03926Y05297*
X03917Y05299*
X0347*
X03399Y0537*
X03402Y05381*
X03403Y05393*
X03402Y05405*
X03399Y05417*
X03393Y05427*
X03385Y05437*
X03376Y05444*
X03365Y0545*
X03354Y05453*
X03342Y05455*
X0333Y05453*
X03319Y0545*
X03308Y05444*
X03299Y05437*
X03291Y05427*
X03285Y05417*
X03282Y05405*
X03281Y05393*
X03282Y05381*
X03285Y0537*
X03291Y05359*
X03299Y0535*
X03308Y05342*
X03319Y05337*
X0333Y05333*
X03342Y05332*
X03354Y05333*
X03365Y05336*
X03443Y05258*
X03451Y05253*
X0346Y05251*
X03907*
X03998Y0516*
X04003Y05157*
X04001Y05152*
X03937*
X03914Y05174*
X03906Y05179*
X03897Y05181*
X03258*
X03166Y05272*
X03028Y0541*
X03021Y05415*
X03011Y05417*
X02946*
X0294Y0542*
X02933Y05421*
X02925Y0542*
X02922Y05419*
X02917Y05422*
Y05541*
X03078Y05701*
X03084Y05704*
X0309Y05708*
X03094Y05714*
X03097Y05721*
X03098Y05728*
X03097Y05735*
X03094Y05742*
X0309Y05748*
X03084Y05752*
X03078Y05755*
X0307Y05756*
X03063Y05755*
X03056Y05752*
X03051Y05748*
X03046Y05742*
X03044Y05735*
X02876Y05568*
X02871Y0556*
X02869Y05551*
Y05374*
X02871Y05364*
X02876Y05356*
X03188Y05044*
Y05008*
X03267*
Y05069*
X03231*
X02939Y05362*
X02941Y05367*
X02946Y05369*
X03001*
X03132Y05238*
X03231Y0514*
X03238Y05135*
X03248Y05133*
X03887*
X03899Y05121*
X03897Y05116*
X03438*
X03429Y05114*
X03421Y05109*
X03297Y04984*
X03267*
Y04991*
X03188*
Y0493*
X03267*
Y04936*
X03307*
X03316Y04938*
X03324Y04943*
X03448Y05068*
X04077*
X04079Y05063*
X039Y04884*
X03186*
X03171Y04899*
Y0498*
X0317Y04991*
X03166Y05001*
X03159Y05009*
X03159*
X02982Y05186*
X02973Y05193*
X02963Y05197*
X02952Y05199*
X02893*
X02882Y05197*
X02872Y05193*
X02864Y05186*
X02863Y05185*
X02858Y05187*
Y05659*
X02916Y05717*
X02952*
Y05763*
X03347*
Y05762*
X03412*
Y05763*
X03437*
Y05725*
X03446*
Y05681*
X03215Y0545*
X03204Y05453*
X03192Y05455*
X0318Y05453*
X03169Y0545*
X03158Y05444*
X03149Y05437*
X03141Y05427*
X03136Y05417*
X03132Y05405*
X03131Y05393*
X03132Y05381*
X03136Y0537*
X03141Y05359*
X03149Y0535*
X03158Y05342*
X03169Y05337*
X0318Y05333*
X03192Y05332*
X03204Y05333*
X03216Y05337*
X03226Y05342*
X03236Y0535*
X03243Y05359*
X03249Y0537*
X03253Y05381*
X03254Y05393*
X03253Y05405*
X03249Y05416*
X03487Y05654*
X03492Y05662*
X03494Y05671*
Y05725*
X03502*
Y05763*
X04056*
Y05762*
X04121*
Y05763*
X04146*
Y05725*
X04154*
X04154Y0572*
X03884Y0545*
X03874Y05453*
X03862Y05455*
X0385Y05453*
X03838Y0545*
X03828Y05444*
X03818Y05437*
X03811Y05427*
X03805Y05417*
X03802Y05405*
X038Y05393*
X03802Y05381*
X03805Y0537*
X03811Y05359*
X03818Y0535*
X03828Y05342*
X03838Y05337*
X0385Y05333*
X03862Y05332*
X03874Y05333*
X03885Y05337*
X03896Y05342*
X03905Y0535*
X03913Y05359*
X03918Y0537*
X03922Y05381*
X03923Y05393*
X03922Y05405*
X03919Y05416*
X04196Y05693*
X04201Y05701*
X04203Y0571*
Y05725*
X04211*
Y05763*
X0477*
Y05753*
X04514Y05497*
X04509Y05489*
X04507Y0548*
Y0545*
X04497Y05444*
X04488Y05437*
X0448Y05427*
X04474Y05417*
X04471Y05405*
X0447Y05393*
X04471Y05381*
X04474Y0537*
X0448Y05359*
X04488Y0535*
X04497Y05342*
X04508Y05337*
X04519Y05333*
X04531Y05332*
X04543Y05333*
X04554Y05337*
X04565Y05342*
X04574Y0535*
X04582Y05359*
X04588Y0537*
X04591Y05381*
X04592Y05393*
X04591Y05405*
X04588Y05417*
X04582Y05427*
X04574Y05437*
X04565Y05444*
X04555Y0545*
Y0547*
X04812Y05727*
X04835*
Y05763*
X05355*
Y05762*
X0542*
Y05763*
X05445*
Y05725*
X05454*
Y05681*
X05223Y0545*
X05212Y05453*
X052Y05455*
X05188Y05453*
X05177Y0545*
X05166Y05444*
X05157Y05437*
X05149Y05427*
X05144Y05417*
X0514Y05405*
X05139Y05393*
X0514Y05381*
X05144Y0537*
X05149Y05359*
X05157Y0535*
X05166Y05342*
X05177Y05337*
X05188Y05333*
X052Y05332*
X05212Y05333*
X05224Y05337*
X05234Y05342*
X05244Y0535*
X05251Y05359*
X05257Y0537*
X0526Y05381*
X05262Y05393*
X0526Y05405*
X05257Y05416*
X05495Y05654*
X055Y05662*
X05502Y05671*
Y05725*
X0551*
Y05763*
X05708*
X05716Y05764*
X05718Y05763*
X05719Y05762*
X0572Y0576*
X05719Y05751*
X0572Y0574*
X05724Y0573*
X05731Y05721*
X0574Y05714*
X0575Y0571*
X05761Y05709*
X05772Y0571*
X05782Y05714*
X05791Y05721*
X05797Y0573*
X05802Y0574*
X05803Y05751*
X05802Y05762*
X058Y05765*
X05803Y05769*
X05819*
X05821Y05765*
X0582Y05762*
X05819Y05751*
X0582Y0574*
X05824Y0573*
X05831Y05721*
X0584Y05714*
X0585Y0571*
X05861Y05709*
X05872Y0571*
X05882Y05714*
X05891Y05721*
X05897Y0573*
X05902Y0574*
X05903Y05751*
X05902Y05758*
X05903Y0576*
X05906Y05763*
X06221*
Y05762*
X06286*
Y05763*
X06312*
Y05725*
X0632*
Y05681*
X06089Y0545*
X06078Y05453*
X06066Y05455*
X06054Y05453*
X06043Y0545*
X06032Y05444*
X06023Y05437*
X06015Y05427*
X0601Y05417*
X06006Y05405*
X06005Y05393*
X06006Y05381*
X0601Y0537*
X06015Y05359*
X06023Y0535*
X06032Y05342*
X06043Y05337*
X06054Y05333*
X06066Y05332*
X06078Y05333*
X0609Y05337*
X061Y05342*
X0611Y0535*
X06117Y05359*
X06123Y0537*
X06127Y05381*
X06128Y05393*
X06127Y05405*
X06123Y05416*
X06361Y05654*
X06366Y05662*
X06368Y05671*
Y05725*
X06376*
Y05763*
X0689*
Y05762*
X06955*
Y05763*
X06981*
Y05725*
X06989*
Y05681*
X06759Y0545*
X06748Y05453*
X06736Y05455*
X06724Y05453*
X06712Y0545*
X06702Y05444*
X06692Y05437*
X06685Y05427*
X06679Y05417*
X06676Y05405*
X06674Y05393*
X06676Y05381*
X06679Y0537*
X06685Y05359*
X06692Y0535*
X06702Y05342*
X06712Y05337*
X06724Y05333*
X06736Y05332*
X06748Y05333*
X06759Y05337*
X0677Y05342*
X06779Y0535*
X06787Y05359*
X06792Y0537*
X06796Y05381*
X06797Y05393*
X06796Y05405*
X06793Y05416*
X0703Y05654*
X07036Y05662*
X07037Y05671*
Y05725*
X07046*
Y05747*
X0705Y05749*
X07148Y05652*
X07156Y05647*
X07165Y05645*
X07362*
X07371Y05647*
X07379Y05652*
X07391Y05664*
X07457*
X07467Y05666*
X07474Y05671*
X07565Y05762*
X07625*
Y05812*
X07616*
Y0585*
X07664Y05898*
X07671Y05901*
X07677Y05905*
X07681Y05911*
X07684Y05918*
X07685Y05925*
X07684Y05932*
X07681Y05939*
X07677Y05944*
X07671Y05949*
X07664Y05952*
X07657Y05952*
X0765Y05952*
X07643Y05949*
X07637Y05944*
X07633Y05939*
X0763Y05932*
X07575Y05877*
X0757Y05869*
X07568Y0586*
Y05812*
X0756*
Y05811*
X07556*
X07547Y05809*
X07539Y05804*
X07447Y05713*
X07381*
X07372Y05711*
X07364Y05706*
X07352Y05693*
X07175*
X07064Y05804*
X07056Y05809*
X07047Y05811*
X07046*
Y05849*
X06981*
Y05811*
X06955*
Y05812*
X0689*
Y05811*
X06376*
Y05849*
X06312*
Y05811*
X06286*
Y05812*
X06221*
Y05811*
X05905*
X05896Y05809*
X05896Y05809*
X05893Y05811*
X0589Y05814*
X05889Y0582*
X05891Y05821*
X05897Y0583*
X05902Y0584*
X05903Y05851*
X05902Y05862*
X05897Y05872*
X05892Y05879*
X05893Y05884*
X05893Y05884*
X05893Y05885*
X05916*
X05916Y05885*
X05925Y05883*
X06003*
X06012Y05885*
X06019Y05889*
X06032Y05903*
X07047*
X07152Y05797*
Y05746*
X07235*
Y05828*
X07183*
X07071Y0594*
X07064Y05945*
X07056Y05947*
X06023*
X06015Y05945*
X06008Y0594*
X05994Y05927*
X05925*
X05916Y05925*
X05916Y05925*
X059*
X05899Y05926*
X05898Y0593*
X05902Y0594*
X05903Y05951*
X05902Y05962*
X05897Y05972*
X05891Y05981*
X05882Y05987*
X05872Y05991*
X05861Y05993*
X0585Y05991*
X0584Y05987*
X05831Y05981*
X05824Y05972*
X0582Y05962*
X05819Y05951*
X0582Y0594*
X05824Y0593*
X05823Y05926*
X05822Y05925*
X058*
X05799Y05926*
X05798Y0593*
X05802Y0594*
X05803Y05951*
X05802Y05962*
X05797Y05972*
X05791Y05981*
X05782Y05987*
X05772Y05991*
X05761Y05993*
X0575Y05991*
X0574Y05987*
X05731Y05981*
X05724Y05972*
X0572Y05962*
X05719Y05951*
X0572Y0594*
X05724Y05931*
X05722Y05926*
X05719Y05925*
X05712Y05921*
X05679Y05888*
X0308*
X0298Y05988*
X02979Y05991*
X02976Y05998*
X02972Y06003*
X02966Y06008*
X02959Y06011*
X02952Y06012*
X02945Y06011*
X02942Y06009*
X02937Y06013*
Y06067*
X02951Y06082*
X02958*
X02967Y06083*
X02975Y06089*
X0298Y06096*
X02982Y06106*
X0298Y06115*
X02975Y06123*
X02967Y06128*
X02966Y06128*
Y06133*
X02967Y06133*
X02975Y06139*
X0298Y06146*
X02981Y06148*
X02982Y06148*
X0299Y06153*
X03011Y06174*
X03016Y06182*
X03018Y06191*
Y06198*
X03048Y06228*
X03053Y06236*
X03055Y06245*
Y06299*
X03053Y06308*
X03048Y06316*
X02937Y06427*
Y06583*
X02952*
Y06633*
X02979*
X02982Y06631*
X02992Y06629*
X03347*
Y06628*
X03412*
Y06629*
X03437*
Y06617*
X03175Y06355*
X0317Y06347*
X03168Y06338*
Y06335*
X03158Y0633*
X03149Y06322*
X03141Y06313*
X03136Y06302*
X03132Y06291*
X03131Y06279*
X03132Y06267*
X03136Y06256*
X03141Y06245*
X03149Y06236*
X03158Y06228*
X03169Y06222*
X0318Y06219*
X03192Y06218*
X03204Y06219*
X03216Y06222*
X03226Y06228*
X03236Y06236*
X03243Y06245*
X03249Y06256*
X03253Y06267*
X03254Y06279*
X03253Y06291*
X03249Y06302*
X03243Y06313*
X03236Y06322*
X03226Y0633*
X03225Y06331*
X03224Y06336*
X03479Y06591*
X03502*
Y06629*
X04101*
Y06619*
X03845Y06363*
X03839Y06355*
X03838Y06346*
Y06335*
X03828Y0633*
X03818Y06322*
X03811Y06313*
X03805Y06302*
X03802Y06291*
X038Y06279*
X03802Y06267*
X03805Y06256*
X03811Y06245*
X03818Y06236*
X03828Y06228*
X03838Y06222*
X0385Y06219*
X03862Y06218*
X03874Y06219*
X03885Y06222*
X03896Y06228*
X03905Y06236*
X03913Y06245*
X03918Y06256*
X03922Y06267*
X03923Y06279*
X03922Y06291*
X03918Y06302*
X03913Y06313*
X03905Y06322*
X03896Y0633*
X0389Y06333*
X03889Y06339*
X04143Y06593*
X04166*
Y06629*
X04686*
Y06628*
X0475*
Y06629*
X04776*
Y06591*
X04784*
Y06567*
X04554Y06336*
X04543Y06339*
X04531Y0634*
X04519Y06339*
X04508Y06336*
X04497Y0633*
X04488Y06322*
X0448Y06313*
X04474Y06302*
X04471Y06291*
X0447Y06279*
X04471Y06267*
X04474Y06256*
X0448Y06245*
X04488Y06236*
X04497Y06228*
X04508Y06222*
X04519Y06219*
X04531Y06218*
X04543Y06219*
X04554Y06222*
X04565Y06228*
X04574Y06236*
X04582Y06245*
X04588Y06256*
X04591Y06267*
X04592Y06279*
X04591Y06291*
X04588Y06302*
X04826Y0654*
X04831Y06547*
X04833Y06557*
Y06591*
X04841*
Y06629*
X05355*
Y06628*
X0542*
Y06629*
X05445*
Y06591*
X05454*
Y06567*
X05223Y06336*
X05212Y06339*
X052Y0634*
X05188Y06339*
X05177Y06336*
X05166Y0633*
X05157Y06322*
X05149Y06313*
X05144Y06302*
X0514Y06291*
X05139Y06279*
X0514Y06267*
X05144Y06256*
X05149Y06245*
X05157Y06236*
X05166Y06228*
X05177Y06222*
X05188Y06219*
X052Y06218*
X05212Y06219*
X05224Y06222*
X05234Y06228*
X05244Y06236*
X05251Y06245*
X05257Y06256*
X0526Y06267*
X05262Y06279*
X0526Y06291*
X05257Y06302*
X05495Y0654*
X055Y06547*
X05502Y06557*
Y06591*
X0551*
Y06629*
X05669*
X05678Y06631*
X05686Y06636*
X05717Y06667*
X05721Y06665*
X0572Y06662*
X05719Y06651*
X0572Y0664*
X05724Y0663*
X05731Y06621*
X0574Y06614*
X0575Y0661*
X05761Y06609*
X05772Y0661*
X05782Y06614*
X05791Y06621*
X05797Y0663*
X05802Y0664*
X05803Y06651*
X05802Y06662*
X05798Y06669*
X05801Y06674*
X0582*
X05823Y06669*
X0582Y06662*
X05819Y06651*
X0582Y0664*
X05824Y0663*
X05831Y06621*
X0584Y06614*
X0585Y0661*
X05861Y06609*
X05872Y0661*
X05882Y06614*
X05891Y06621*
X05897Y0663*
X05902Y0664*
X05903Y06651*
X05902Y06662*
X05901Y06663*
X05904Y06668*
X06204*
X06221Y06651*
Y06628*
X06286*
Y06629*
X06312*
Y06591*
X0632*
Y06567*
X06089Y06336*
X06078Y06339*
X06066Y0634*
X06054Y06339*
X06043Y06336*
X06032Y0633*
X06023Y06322*
X06015Y06313*
X0601Y06302*
X06006Y06291*
X06005Y06279*
X06006Y06267*
X0601Y06256*
X06015Y06245*
X06023Y06236*
X06032Y06228*
X06043Y06222*
X06054Y06219*
X06066Y06218*
X06078Y06219*
X0609Y06222*
X061Y06228*
X0611Y06236*
X06117Y06245*
X06123Y06256*
X06127Y06267*
X06128Y06279*
X06127Y06291*
X06123Y06302*
X06361Y0654*
X06366Y06547*
X06368Y06557*
Y06591*
X06376*
Y06629*
X0689*
Y06628*
X06955*
Y06629*
X06981*
Y06617*
X06719Y06355*
X06713Y06347*
X06712Y06338*
Y06335*
X06702Y0633*
X06692Y06322*
X06685Y06313*
X06679Y06302*
X06676Y06291*
X06674Y06279*
X06676Y06267*
X06679Y06256*
X06685Y06245*
X06692Y06236*
X06702Y06228*
X06712Y06222*
X06724Y06219*
X06736Y06218*
X06748Y06219*
X06759Y06222*
X0677Y06228*
X06779Y06236*
X06787Y06245*
X06792Y06256*
X06796Y06267*
X06797Y06279*
X06796Y06291*
X06792Y06302*
X06787Y06313*
X06779Y06322*
X0677Y0633*
X06768Y06331*
X06767Y06336*
X07023Y06591*
X07046*
Y06629*
X0756*
Y06628*
X07585*
X07585Y06628*
X07594Y06627*
X0765*
Y06591*
X07658*
Y06567*
X07428Y06336*
X07417Y06339*
X07405Y0634*
X07393Y06339*
X07382Y06336*
X07371Y0633*
X07362Y06322*
X07354Y06313*
X07348Y06302*
X07345Y06291*
X07344Y06279*
X07345Y06267*
X07348Y06256*
X07354Y06245*
X07362Y06236*
X07371Y06228*
X07382Y06222*
X07393Y06219*
X07405Y06218*
X07417Y06219*
X07428Y06222*
X07439Y06228*
X07448Y06236*
X07456Y06245*
X07462Y06256*
X07465Y06267*
X07466Y06279*
X07465Y06291*
X07462Y06302*
X077Y0654*
X07705Y06547*
X07707Y06557*
Y06591*
X07715*
Y06627*
X07727*
X07731Y06621*
X0774Y06614*
X0775Y0661*
X07761Y06609*
X07772Y0661*
X07782Y06614*
X07791Y06621*
X07797Y0663*
X07802Y0664*
X07803Y06651*
X07802Y06662*
X07797Y06672*
X07791Y06681*
X07782Y06687*
X07772Y06691*
X07761Y06693*
X0775Y06691*
X0774Y06687*
X07731Y06681*
X07727Y06675*
X0772*
X07715Y06676*
Y06715*
X0765*
Y06676*
X07645Y06675*
X07625*
Y06678*
X0756*
Y06677*
X07046*
Y06715*
X06981*
Y06677*
X06955*
Y06678*
X0689*
Y06677*
X06376*
Y06715*
X06312*
Y06677*
X06286*
Y06678*
X06263*
X06231Y06709*
X06223Y06715*
X06214Y06716*
X05901*
X05895Y06715*
X05893Y06716*
X05892Y06717*
X05892Y06722*
X05897Y0673*
X05902Y0674*
X05903Y06751*
X05902Y06762*
X05897Y06772*
X05891Y06781*
X05882Y06787*
X05872Y06791*
X05861Y06793*
X0585Y06791*
X0584Y06787*
X05831Y06781*
X05824Y06772*
X0582Y06762*
X05819Y06751*
X0582Y0674*
X05824Y0673*
X05831Y06721*
X05833Y0672*
X05832Y06714*
X05828Y06711*
X05828Y0671*
X05794*
X05794Y06711*
X0579Y06714*
X05789Y0672*
X05791Y06721*
X05797Y0673*
X05802Y0674*
X05803Y06751*
X05802Y06762*
X05797Y06772*
X05791Y06781*
X05782Y06787*
X05772Y06791*
X05761Y06793*
X0575Y06791*
X0574Y06787*
X05731Y06781*
X05724Y06772*
X0572Y06762*
X05719Y06751*
X0572Y0674*
X05724Y0673*
X05731Y06721*
X05733Y0672*
X05732Y06714*
X05728Y06711*
X05728Y0671*
X05724*
X05717Y06715*
X05708Y06716*
X05699Y06715*
X05691Y06709*
X05659Y06677*
X0551*
Y06715*
X05445*
Y06677*
X0542*
Y06678*
X05355*
Y06677*
X04841*
Y06715*
X04776*
Y06677*
X0475*
Y06678*
X04686*
Y06677*
X04169*
X04166Y06678*
Y06717*
X04101*
Y06678*
X04098Y06677*
X04075*
Y0668*
X0401*
Y06677*
X03502*
Y06715*
X03437*
Y06677*
X03412*
Y06678*
X03347*
Y06677*
X02992*
X02982Y06675*
X02979Y06673*
X02952*
Y06698*
X02958Y06704*
X02964Y06712*
X02966Y06721*
Y07067*
X02967Y07068*
X02975Y07073*
X0298Y07081*
X02982Y0709*
X0298Y07099*
X02975Y07107*
X02967Y07112*
X02966Y07112*
Y07117*
X02967Y07118*
X02975Y07123*
X0298Y07131*
X02982Y0714*
X0298Y07149*
X02975Y07157*
X02967Y07162*
X02966Y07162*
Y07167*
X02967Y07168*
X02975Y07173*
X0298Y07181*
X02982Y0719*
X0298Y07199*
X02975Y07207*
X02969Y07211*
X02971Y07216*
X02988*
X02989Y07216*
X02992Y07216*
X02999Y07217*
X03006Y0722*
X03011Y07224*
X03016Y0723*
X03018Y07236*
X03019Y07244*
X03018Y07251*
X03016Y07257*
X03011Y07263*
X03006Y07268*
X02999Y0727*
X02992Y07271*
X02984Y0727*
X02978Y07268*
X02973Y07264*
X02925*
X02918Y07263*
X02913Y07266*
Y07464*
X02912Y07473*
X02906Y07481*
X02874Y07514*
Y07538*
X02879*
X03014Y07404*
X03022Y07399*
X03031Y07397*
X03384*
X03386Y07392*
X03215Y07222*
X03204Y07225*
X03192Y07226*
X0318Y07225*
X03169Y07222*
X03158Y07216*
X03149Y07208*
X03141Y07199*
X03136Y07188*
X03132Y07177*
X03131Y07165*
X03132Y07153*
X03136Y07141*
X03141Y07131*
X03149Y07121*
X03158Y07114*
X03169Y07108*
X0318Y07105*
X03192Y07104*
X03204Y07105*
X03216Y07108*
X03226Y07114*
X03236Y07121*
X03243Y07131*
X03249Y07141*
X03253Y07153*
X03254Y07165*
X03253Y07177*
X03249Y07188*
X03557Y07495*
X03558Y07497*
X03581*
Y0752*
X03586Y07522*
X03685Y07423*
X03693Y07418*
X03702Y07416*
X04031*
X0404Y07418*
X04041Y07419*
X04045Y07415*
X03855Y07225*
X0385Y07225*
X03838Y07222*
X03828Y07216*
X03818Y07208*
X03811Y07199*
X03805Y07188*
X03802Y07177*
X038Y07165*
X03802Y07153*
X03805Y07141*
X03811Y07131*
X03818Y07121*
X03828Y07114*
X03838Y07108*
X0385Y07105*
X03862Y07104*
X03874Y07105*
X03885Y07108*
X03896Y07114*
X03905Y07121*
X03913Y07131*
X03918Y07141*
X03922Y07153*
X03923Y07165*
X03922Y07177*
X03918Y07188*
X03913Y07199*
X03905Y07208*
X04194Y07497*
X04217*
Y07534*
X04243*
X04315Y07463*
X04322Y07458*
X04332Y07456*
X04645*
X04654Y07458*
X04662Y07463*
X04681Y07482*
X04687Y07483*
X04695Y07488*
X04726Y0752*
X04731Y07527*
X04732Y07533*
X04733Y07534*
X04777*
X04779Y07529*
X0451Y07261*
X04505Y07253*
X04503Y07244*
X04505Y07234*
X04507Y07231*
Y07221*
X04497Y07216*
X04488Y07208*
X0448Y07199*
X04474Y07188*
X04471Y07177*
X0447Y07165*
X04471Y07153*
X04474Y07141*
X0448Y07131*
X04488Y07121*
X04497Y07114*
X04508Y07108*
X04519Y07105*
X04531Y07104*
X04543Y07105*
X04554Y07108*
X04565Y07114*
X04574Y07121*
X04582Y07131*
X04588Y07141*
X04591Y07153*
X04592Y07165*
X04591Y07177*
X04588Y07188*
X04582Y07199*
X04574Y07208*
X04565Y07216*
X04555Y07221*
Y07238*
X04815Y07497*
X04821*
Y07497*
X04886*
Y07534*
X05237*
Y07534*
X05302*
Y07534*
X05327*
Y07523*
X05183Y07379*
X05178Y07371*
X05176Y07362*
Y07221*
X05166Y07216*
X05157Y07208*
X05149Y07199*
X05144Y07188*
X0514Y07177*
X05139Y07165*
X0514Y07153*
X05144Y07141*
X05149Y07131*
X05157Y07121*
X05166Y07114*
X05177Y07108*
X05188Y07105*
X052Y07104*
X05212Y07105*
X05224Y07108*
X05234Y07114*
X05244Y07121*
X05251Y07131*
X05257Y07141*
X0526Y07153*
X05262Y07165*
X0526Y07177*
X05257Y07188*
X05251Y07199*
X05244Y07208*
X05234Y07216*
X05224Y07221*
Y07352*
X05369Y07497*
X05392*
Y07534*
X06103*
Y07534*
X06168*
Y07534*
X06193*
Y07497*
X06202*
Y07334*
X06089Y07222*
X06078Y07225*
X06066Y07226*
X06054Y07225*
X06043Y07222*
X06032Y07216*
X06023Y07208*
X06015Y07199*
X0601Y07188*
X06006Y07177*
X06005Y07165*
X06006Y07153*
X0601Y07141*
X06015Y07131*
X06023Y07121*
X06032Y07114*
X06043Y07108*
X06054Y07105*
X06066Y07104*
X06078Y07105*
X0609Y07108*
X061Y07114*
X0611Y07121*
X06117Y07131*
X06123Y07141*
X06127Y07153*
X06128Y07165*
X06127Y07177*
X06123Y07188*
X06243Y07307*
X06248Y07315*
X0625Y07324*
Y07497*
X06258*
Y07534*
X06817*
Y07534*
X06882*
Y07534*
X06908*
Y07523*
X06719Y07333*
X06713Y07326*
X06712Y07316*
Y07221*
X06702Y07216*
X06692Y07208*
X06685Y07199*
X06679Y07188*
X06676Y07177*
X06674Y07165*
X06676Y07153*
X06679Y07141*
X06685Y07131*
X06692Y07121*
X06702Y07114*
X06712Y07108*
X06724Y07105*
X06736Y07104*
X06748Y07105*
X06759Y07108*
X0677Y07114*
X06779Y07121*
X06787Y07131*
X06792Y07141*
X06796Y07153*
X06797Y07165*
X06796Y07177*
X06792Y07188*
X06787Y07199*
X06779Y07208*
X0677Y07216*
X0676Y07221*
Y07306*
X0695Y07497*
X06973*
Y07534*
X07441*
Y07534*
X07506*
Y07534*
X07532*
Y07523*
X07388Y07379*
X07383Y07371*
X07381Y07362*
Y07221*
X07371Y07216*
X07362Y07208*
X07354Y07199*
X07348Y07188*
X07345Y07177*
X07344Y07165*
X07345Y07153*
X07348Y07141*
X07354Y07131*
X07362Y07121*
X07371Y07114*
X07382Y07108*
X07393Y07105*
X07405Y07104*
X07417Y07105*
X07428Y07108*
X07439Y07114*
X07448Y07121*
X07456Y07131*
X07462Y07141*
X07465Y07153*
X07466Y07165*
X07465Y07177*
X07462Y07188*
X07456Y07199*
X07448Y07208*
X07439Y07216*
X07429Y07221*
Y07352*
X07574Y07497*
X07597*
Y07534*
X07667*
X07908Y07293*
Y06781*
X07902Y06775*
X07895*
X07891Y06781*
X07882Y06787*
X07872Y06791*
X07861Y06793*
X0785Y06791*
X0784Y06787*
X07831Y06781*
X07824Y06772*
X0782Y06762*
X07819Y06751*
X0782Y0674*
X07824Y0673*
X07831Y06721*
X0784Y06714*
X0785Y0671*
X07861Y06709*
X07872Y0671*
X07882Y06714*
X07891Y06721*
X07895Y06727*
X07912*
X07921Y06728*
X07929Y06734*
X0795Y06754*
X07955Y06762*
X07957Y06771*
Y07303*
X07955Y07312*
X0795Y0732*
X07694Y07576*
X07686Y07581*
X07677Y07583*
X07597*
Y07621*
X07532*
Y07583*
X07506*
Y07583*
X07441*
Y07583*
X06973*
Y07621*
X06908*
Y07583*
X06882*
Y07583*
X06817*
Y07583*
X06258*
Y07621*
X06193*
Y07583*
X06168*
Y07583*
X06103*
Y07583*
X05392*
Y07621*
X05327*
Y07583*
X05302*
Y07583*
X05237*
Y07583*
X04886*
Y07621*
X04821*
Y07583*
X04796*
Y07583*
X04731*
Y07583*
X04724*
X04715Y07581*
X04707Y07576*
X04701Y07569*
X04695Y07571*
X04692Y07579*
X04685Y07588*
X0468Y07592*
Y07646*
X04678Y07656*
X04673Y07663*
X04622Y07714*
X04615Y07719*
X04605Y07721*
X03908*
X0386Y07768*
X03852Y07774*
X03843Y07776*
X0341*
X03401Y07774*
X03393Y07768*
X033Y07676*
X03295Y07668*
X03293Y07659*
Y07592*
X03288Y07588*
X03281Y07579*
X03277Y07569*
X03276Y07559*
X03277Y07548*
X03281Y07538*
X03288Y07529*
X03289Y07528*
X03287Y07524*
X03259*
Y076*
X0321*
X03077Y07733*
X03069Y07738*
X0306Y0774*
X02946*
X0294Y07743*
X02933Y07744*
X02925Y07743*
X02919Y0774*
X02913Y07736*
X02908Y0773*
X02906Y07723*
X02905Y07716*
X02906Y07709*
X02908Y07702*
X02913Y07696*
X02919Y07692*
X02925Y07689*
X02927Y07689*
Y07684*
X02925Y07684*
X02919Y07681*
X02913Y07677*
X02908Y07671*
X02906Y07664*
X02905Y07657*
X02906Y0765*
X02908Y07643*
X02913Y07637*
X02919Y07633*
X02925Y0763*
X02927Y0763*
Y07625*
X02925Y07625*
X02919Y07622*
X02913Y07618*
X02908Y07612*
X02906Y07605*
X02905Y07598*
X02906Y07591*
X02908Y07584*
X0291Y07581*
X02907Y07578*
X02902Y07581*
X02893Y07583*
X02884Y07581*
X02881Y07579*
X02874*
Y07628*
X02858*
Y07839*
X02951Y07932*
X02958*
X02967Y07934*
X02975Y07939*
X0298Y07947*
X02982Y07956*
X0298Y07965*
X02975Y07973*
X02967Y07978*
X02966Y07978*
Y07984*
X02967Y07984*
X02973Y07987*
X03037*
X03043Y07984*
X03051Y07984*
X03058Y07984*
X03065Y07987*
X0307Y07992*
X03075Y07997*
X03078Y08004*
X03078Y08011*
X03078Y08019*
X03075Y08025*
X0307Y08031*
X03065Y08035*
X03058Y08038*
X03051Y08039*
X03043Y08038*
X03037Y08035*
X02978*
X02976Y0804*
X0298Y08047*
X02982Y08056*
X0298Y08065*
X02975Y08073*
X02967Y08078*
X02966Y08078*
Y08084*
X02967Y08084*
X02975Y08089*
X0298Y08097*
X02982Y08106*
X0298Y08115*
X02976Y08121*
Y08179*
X02994Y08196*
X03Y08197*
X03008Y082*
X03014Y08205*
X03019Y08212*
X03022Y0822*
X03023Y08228*
Y08355*
X03031*
Y08395*
X03036Y08397*
X03099Y08335*
X03106Y0833*
X03116Y08328*
X03346*
X03355Y0833*
X03363Y08335*
X03428Y084*
X03451*
Y08401*
X03477*
Y08369*
X03215Y08108*
X03204Y08111*
X03192Y08112*
X0318Y08111*
X03169Y08107*
X03158Y08102*
X03149Y08094*
X03141Y08085*
X03136Y08074*
X03132Y08063*
X03131Y08051*
X03132Y08039*
X03136Y08027*
X03141Y08017*
X03149Y08007*
X03158Y08*
X03169Y07994*
X0318Y07991*
X03192Y07989*
X03204Y07991*
X03216Y07994*
X03226Y08*
X03236Y08007*
X03243Y08017*
X03249Y08027*
X03253Y08039*
X03254Y08051*
X03253Y08063*
X03249Y08073*
X03526Y08351*
X03532Y08358*
X03532Y08363*
X03542*
Y08401*
X03703*
X03769Y08335*
X03777Y0833*
X03786Y08328*
X04014*
X04023Y0833*
X04031Y08335*
X04088Y08392*
X04093Y084*
X04121*
Y08401*
X04146*
Y08369*
X03884Y08108*
X03874Y08111*
X03862Y08112*
X0385Y08111*
X03838Y08107*
X03828Y08102*
X03818Y08094*
X03811Y08085*
X03805Y08074*
X03802Y08063*
X038Y08051*
X03802Y08039*
X03805Y08027*
X03811Y08017*
X03818Y08007*
X03828Y08*
X03838Y07994*
X0385Y07991*
X03862Y07989*
X03874Y07991*
X03885Y07994*
X03896Y08*
X03905Y08007*
X03913Y08017*
X03918Y08027*
X03922Y08039*
X03923Y08051*
X03922Y08063*
X03919Y08073*
X04196Y08351*
X04201Y08358*
X04202Y08363*
X04211*
Y08401*
X04241*
X04307Y08335*
X04315Y0833*
X04324Y08328*
X04683*
X04692Y0833*
X047Y08335*
X04757Y08392*
X04763Y084*
X0479*
Y08401*
X04815*
Y08369*
X04554Y08108*
X04543Y08111*
X04531Y08112*
X04519Y08111*
X04508Y08107*
X04497Y08102*
X04488Y08094*
X0448Y08085*
X04474Y08074*
X04471Y08063*
X0447Y08051*
X04471Y08039*
X04474Y08027*
X0448Y08017*
X04488Y08007*
X04497Y08*
X04508Y07994*
X04519Y07991*
X04531Y07989*
X04543Y07991*
X04554Y07994*
X04565Y08*
X04574Y08007*
X04582Y08017*
X04588Y08027*
X04591Y08039*
X04592Y08051*
X04591Y08063*
X04588Y08073*
X04865Y08351*
X0487Y08358*
X04871Y08363*
X0488*
Y08401*
X052*
X05205Y084*
X05236*
X05238Y084*
X05268*
X05273Y084*
X05276Y084*
X05294*
Y08363*
X05302*
Y08187*
X05223Y08108*
X05212Y08111*
X052Y08112*
X05188Y08111*
X05177Y08107*
X05166Y08102*
X05157Y08094*
X05149Y08085*
X05144Y08074*
X0514Y08063*
X05139Y08051*
X0514Y08039*
X05144Y08027*
X05149Y08017*
X05157Y08007*
X05166Y08*
X05177Y07994*
X05188Y07991*
X052Y07989*
X05212Y07991*
X05224Y07994*
X05234Y08*
X05244Y08007*
X05251Y08017*
X05257Y08027*
X0526Y08039*
X05262Y08051*
X0526Y08063*
X05257Y08073*
X05343Y0816*
X05349Y08167*
X0535Y08177*
Y08363*
X05359*
Y084*
X05384*
X05455Y08329*
X05463Y08324*
X05472Y08322*
X06214*
X06223Y08324*
X06231Y08329*
X06302Y084*
X06325*
Y08401*
X06351*
Y08369*
X06089Y08108*
X06078Y08111*
X06066Y08112*
X06054Y08111*
X06043Y08107*
X06032Y08102*
X06023Y08094*
X06015Y08085*
X0601Y08074*
X06006Y08063*
X06005Y08051*
X06006Y08039*
X0601Y08027*
X06015Y08017*
X06023Y08007*
X06032Y08*
X06043Y07994*
X06054Y07991*
X06066Y07989*
X06078Y07991*
X0609Y07994*
X061Y08*
X0611Y08007*
X06117Y08017*
X06123Y08027*
X06127Y08039*
X06128Y08051*
X06127Y08063*
X06123Y08073*
X064Y08351*
X06406Y08358*
X06406Y08363*
X06416*
Y08401*
X06482*
X06488Y08398*
X06496Y08397*
X06503Y08398*
X06509Y08401*
X06772*
Y084*
X06837*
Y08401*
X06863*
Y08389*
X06719Y08245*
X06713Y08237*
X06712Y08228*
Y08107*
X06702Y08102*
X06692Y08094*
X06685Y08085*
X06679Y08074*
X06676Y08063*
X06674Y08051*
X06676Y08039*
X06679Y08027*
X06685Y08017*
X06692Y08007*
X06702Y08*
X06712Y07994*
X06724Y07991*
X06736Y07989*
X06748Y07991*
X06759Y07994*
X0677Y08*
X06779Y08007*
X06787Y08017*
X06792Y08027*
X06796Y08039*
X06797Y08051*
X06796Y08063*
X06792Y08074*
X06787Y08085*
X06779Y08094*
X0677Y08102*
X0676Y08107*
Y08218*
X06905Y08363*
X06928*
Y08401*
X07441*
Y084*
X07506*
Y08449*
X07441*
Y08449*
X06928*
Y08487*
X06863*
Y08449*
X06837*
Y08449*
X06772*
Y08449*
X06509*
X06503Y08452*
X06496Y08452*
X06488Y08452*
X06482Y08449*
X06416*
Y08487*
X06351*
Y08449*
X06325*
Y08449*
X0626*
Y08426*
X06204Y0837*
X05482*
X05411Y08441*
X05403Y08446*
X05394Y08448*
X05359*
Y08487*
X05294*
Y08448*
X0528*
X05275Y08449*
X05268*
Y08449*
X05203*
Y08449*
X0488*
Y08487*
X04815*
Y08449*
X0479*
Y08449*
X04747*
X04745Y08454*
X04792Y08501*
X05758*
X05814Y08445*
Y08403*
X05896*
Y08461*
X05901Y08463*
X05914Y0845*
X05913Y08444*
X05915Y08434*
X05919Y08424*
X05926Y08415*
X05934Y08408*
X05944Y08404*
X05955Y08403*
X05966Y08404*
X05976Y08408*
X05984Y08415*
X05991Y08424*
X05995Y08434*
X05997Y08444*
X05995Y08455*
X05991Y08465*
X05984Y08474*
X05976Y0848*
X05971Y08483*
X05849Y08605*
X05842Y0861*
X05834Y08613*
X05826Y08614*
G37*
G36*
X07597Y08487D02*
X07532D01*
Y08437*
X07597*
Y08487*
G37*
G36*
Y08412D02*
X07532D01*
Y08363*
X0754*
Y0822*
X07428Y08108*
X07417Y08111*
X07405Y08112*
X07393Y08111*
X07382Y08107*
X07371Y08102*
X07362Y08094*
X07354Y08085*
X07348Y08074*
X07345Y08063*
X07344Y08051*
X07345Y08039*
X07348Y08027*
X07354Y08017*
X07362Y08007*
X07371Y08*
X07382Y07994*
X07393Y07991*
X07405Y07989*
X07417Y07991*
X07428Y07994*
X07439Y08*
X07448Y08007*
X07456Y08017*
X07462Y08027*
X07465Y08039*
X07466Y08051*
X07465Y08063*
X07462Y08073*
X07581Y08193*
X07587Y08201*
X07589Y0821*
Y08363*
X07597*
Y08412*
G37*
G36*
X07555Y08112D02*
X07543Y08111D01*
X07531Y08107*
X07521Y08102*
X07511Y08094*
X07504Y08085*
X07498Y08074*
X07494Y08063*
X07493Y08051*
X07494Y08039*
X07498Y08027*
X07504Y08017*
X07511Y08007*
X07521Y08*
X07531Y07994*
X07543Y07991*
X07555Y07989*
X07567Y07991*
X07578Y07994*
X07589Y08*
X07598Y08007*
X07606Y08017*
X07611Y08027*
X07615Y08039*
X07616Y08051*
X07615Y08063*
X07611Y08074*
X07606Y08085*
X07598Y08094*
X07589Y08102*
X07578Y08107*
X07567Y08111*
X07555Y08112*
G37*
G36*
X06885D02*
X06873Y08111D01*
X06862Y08107*
X06851Y08102*
X06842Y08094*
X06834Y08085*
X06829Y08074*
X06825Y08063*
X06824Y08051*
X06825Y08039*
X06829Y08027*
X06834Y08017*
X06842Y08007*
X06851Y08*
X06862Y07994*
X06873Y07991*
X06885Y07989*
X06897Y07991*
X06909Y07994*
X06919Y08*
X06929Y08007*
X06936Y08017*
X06942Y08027*
X06945Y08039*
X06947Y08051*
X06945Y08063*
X06942Y08074*
X06936Y08085*
X06929Y08094*
X06919Y08102*
X06909Y08107*
X06897Y08111*
X06885Y08112*
G37*
G36*
X06216D02*
X06204Y08111D01*
X06193Y08107*
X06182Y08102*
X06173Y08094*
X06165Y08085*
X06159Y08074*
X06156Y08063*
X06155Y08051*
X06156Y08039*
X06159Y08027*
X06165Y08017*
X06173Y08007*
X06182Y08*
X06193Y07994*
X06204Y07991*
X06216Y07989*
X06228Y07991*
X0624Y07994*
X0625Y08*
X06259Y08007*
X06267Y08017*
X06273Y08027*
X06276Y08039*
X06277Y08051*
X06276Y08063*
X06273Y08074*
X06267Y08085*
X06259Y08094*
X0625Y08102*
X0624Y08107*
X06228Y08111*
X06216Y08112*
G37*
G36*
X0535D02*
X05338Y08111D01*
X05326Y08107*
X05316Y08102*
X05307Y08094*
X05299Y08085*
X05293Y08074*
X0529Y08063*
X05289Y08051*
X0529Y08039*
X05293Y08027*
X05299Y08017*
X05307Y08007*
X05316Y08*
X05326Y07994*
X05338Y07991*
X0535Y07989*
X05362Y07991*
X05373Y07994*
X05384Y08*
X05393Y08007*
X05401Y08017*
X05407Y08027*
X0541Y08039*
X05411Y08051*
X0541Y08063*
X05407Y08074*
X05401Y08085*
X05393Y08094*
X05384Y08102*
X05373Y08107*
X05362Y08111*
X0535Y08112*
G37*
G36*
X04681D02*
X04669Y08111D01*
X04657Y08107*
X04647Y08102*
X04637Y08094*
X0463Y08085*
X04624Y08074*
X0462Y08063*
X04619Y08051*
X0462Y08039*
X04624Y08027*
X0463Y08017*
X04637Y08007*
X04647Y08*
X04657Y07994*
X04669Y07991*
X04681Y07989*
X04693Y07991*
X04704Y07994*
X04715Y08*
X04724Y08007*
X04732Y08017*
X04737Y08027*
X04741Y08039*
X04742Y08051*
X04741Y08063*
X04737Y08074*
X04732Y08085*
X04724Y08094*
X04715Y08102*
X04704Y08107*
X04693Y08111*
X04681Y08112*
G37*
G36*
X04011D02*
X03999Y08111D01*
X03988Y08107*
X03977Y08102*
X03968Y08094*
X0396Y08085*
X03955Y08074*
X03951Y08063*
X0395Y08051*
X03951Y08039*
X03955Y08027*
X0396Y08017*
X03968Y08007*
X03977Y08*
X03988Y07994*
X03999Y07991*
X04011Y07989*
X04023Y07991*
X04035Y07994*
X04045Y08*
X04055Y08007*
X04062Y08017*
X04068Y08027*
X04071Y08039*
X04073Y08051*
X04071Y08063*
X04068Y08074*
X04062Y08085*
X04055Y08094*
X04045Y08102*
X04035Y08107*
X04023Y08111*
X04011Y08112*
G37*
G36*
X03342D02*
X0333Y08111D01*
X03319Y08107*
X03308Y08102*
X03299Y08094*
X03291Y08085*
X03285Y08074*
X03282Y08063*
X03281Y08051*
X03282Y08039*
X03285Y08027*
X03291Y08017*
X03299Y08007*
X03308Y08*
X03319Y07994*
X0333Y07991*
X03342Y07989*
X03354Y07991*
X03365Y07994*
X03376Y08*
X03385Y08007*
X03393Y08017*
X03399Y08027*
X03402Y08039*
X03403Y08051*
X03402Y08063*
X03399Y08074*
X03393Y08085*
X03385Y08094*
X03376Y08102*
X03365Y08107*
X03354Y08111*
X03342Y08112*
G37*
G36*
X02476D02*
X02464Y08111D01*
X02452Y08107*
X02442Y08102*
X02433Y08094*
X02425Y08085*
X02419Y08074*
X02416Y08063*
X02415Y08051*
X02416Y08039*
X02419Y08027*
X02425Y08017*
X02433Y08007*
X02442Y08*
X02452Y07994*
X02464Y07991*
X02476Y07989*
X02488Y07991*
X02499Y07994*
X0251Y08*
X02519Y08007*
X02527Y08017*
X02533Y08027*
X02536Y08039*
X02537Y08051*
X02536Y08063*
X02533Y08074*
X02527Y08085*
X02519Y08094*
X0251Y08102*
X02499Y08107*
X02488Y08111*
X02476Y08112*
G37*
G36*
X01807D02*
X01795Y08111D01*
X01783Y08107*
X01773Y08102*
X01763Y08094*
X01756Y08085*
X0175Y08074*
X01746Y08063*
X01745Y08051*
X01746Y08039*
X0175Y08027*
X01756Y08017*
X01763Y08007*
X01773Y08*
X01783Y07994*
X01795Y07991*
X01807Y07989*
X01819Y07991*
X0183Y07994*
X01841Y08*
X0185Y08007*
X01858Y08017*
X01863Y08027*
X01867Y08039*
X01868Y08051*
X01867Y08063*
X01863Y08074*
X01858Y08085*
X0185Y08094*
X01841Y08102*
X0183Y08107*
X01819Y08111*
X01807Y08112*
G37*
G36*
X01137D02*
X01125Y08111D01*
X01114Y08107*
X01103Y08102*
X01094Y08094*
X01086Y08085*
X01081Y08074*
X01077Y08063*
X01076Y08051*
X01077Y08039*
X01081Y08027*
X01086Y08017*
X01094Y08007*
X01103Y08*
X01114Y07994*
X01125Y07991*
X01137Y07989*
X01149Y07991*
X01161Y07994*
X01171Y08*
X01181Y08007*
X01188Y08017*
X01194Y08027*
X01197Y08039*
X01199Y08051*
X01197Y08063*
X01194Y08074*
X01188Y08085*
X01181Y08094*
X01171Y08102*
X01161Y08107*
X01149Y08111*
X01137Y08112*
G37*
G36*
X00468D02*
X00456Y08111D01*
X00445Y08107*
X00434Y08102*
X00425Y08094*
X00417Y08085*
X00411Y08074*
X00408Y08063*
X00407Y08051*
X00408Y08039*
X00411Y08027*
X00417Y08017*
X00425Y08007*
X00434Y08*
X00445Y07994*
X00456Y07991*
X00468Y07989*
X0048Y07991*
X00491Y07994*
X00502Y08*
X00511Y08007*
X00519Y08017*
X00525Y08027*
X00528Y08039*
X00529Y08051*
X00528Y08063*
X00525Y08074*
X00519Y08085*
X00511Y08094*
X00502Y08102*
X00491Y08107*
X0048Y08111*
X00468Y08112*
G37*
G36*
X02803Y08325D02*
X02795Y08324D01*
X02789Y08321*
X02783Y08317*
X02779Y08311*
X02776Y08304*
X02775Y083*
X02773Y08296*
X02771Y08287*
Y08238*
X0271Y08177*
X02705Y08169*
X02703Y0816*
Y08129*
X02701Y08128*
X02693Y08123*
X02688Y08115*
X02686Y08106*
X02688Y08097*
X02693Y08089*
X02701Y08084*
X02702Y08084*
Y08078*
X02701Y08078*
X02693Y08073*
X02688Y08065*
X02686Y08056*
X02688Y08047*
X02693Y08039*
X02701Y08034*
X02702Y08034*
Y08028*
X02701Y08028*
X02693Y08023*
X02688Y08015*
X02686Y08006*
X02688Y07997*
X02693Y07989*
X02701Y07984*
X02702Y07978*
X02702Y07977*
X02694Y07972*
X0269Y07965*
X02689Y07963*
X02674Y07948*
X02669Y07941*
X02666Y07934*
X02665Y07925*
Y07893*
X02666Y07885*
X02669Y07877*
X02674Y07871*
X0268Y07866*
X02688Y07863*
X02696Y07861*
X02705Y07863*
X02712Y07866*
X02719Y07871*
X02724Y07877*
X02727Y07885*
X02728Y07893*
Y07912*
X02749Y07934*
X02751Y07935*
X02752Y07935*
X02759Y0794*
X02764Y07947*
X02765Y07951*
X02727*
Y07961*
X02765*
X02764Y07965*
X02759Y07972*
X02752Y07977*
X02752Y07982*
X02753Y07982*
X02809*
X02818Y07984*
X02826Y07989*
X02855Y08018*
X0286Y08026*
X02862Y08035*
Y0811*
X02891Y08138*
X02896Y08146*
X02898Y08155*
Y08214*
X029Y08221*
X02901Y08228*
X029Y08235*
X02898Y08242*
X02893Y08248*
X02887Y08252*
X02881Y08255*
X02874Y08256*
X02866Y08255*
X02864Y08254*
X0286Y08257*
X02861Y0826*
X02862Y08267*
X02861Y08274*
X02858Y08281*
X02854Y08287*
X02848Y08291*
X02841Y08294*
X02834Y08295*
X02833Y08295*
X0283Y08297*
X02829Y08304*
X02827Y08311*
X02822Y08317*
X02817Y08321*
X0281Y08324*
X02803Y08325*
G37*
G36*
X07555Y07226D02*
X07543Y07225D01*
X07531Y07222*
X07521Y07216*
X07511Y07208*
X07504Y07199*
X07498Y07188*
X07494Y07177*
X07493Y07165*
X07494Y07153*
X07498Y07141*
X07504Y07131*
X07511Y07121*
X07521Y07114*
X07531Y07108*
X07543Y07105*
X07555Y07104*
X07567Y07105*
X07578Y07108*
X07589Y07114*
X07598Y07121*
X07606Y07131*
X07611Y07141*
X07615Y07153*
X07616Y07165*
X07615Y07177*
X07611Y07188*
X07606Y07199*
X07598Y07208*
X07589Y07216*
X07578Y07222*
X07567Y07225*
X07555Y07226*
G37*
G36*
X06885D02*
X06873Y07225D01*
X06862Y07222*
X06851Y07216*
X06842Y07208*
X06834Y07199*
X06829Y07188*
X06825Y07177*
X06824Y07165*
X06825Y07153*
X06829Y07141*
X06834Y07131*
X06842Y07121*
X06851Y07114*
X06862Y07108*
X06873Y07105*
X06885Y07104*
X06897Y07105*
X06909Y07108*
X06919Y07114*
X06929Y07121*
X06936Y07131*
X06942Y07141*
X06945Y07153*
X06947Y07165*
X06945Y07177*
X06942Y07188*
X06936Y07199*
X06929Y07208*
X06919Y07216*
X06909Y07222*
X06897Y07225*
X06885Y07226*
G37*
G36*
X06216D02*
X06204Y07225D01*
X06193Y07222*
X06182Y07216*
X06173Y07208*
X06165Y07199*
X06159Y07188*
X06156Y07177*
X06155Y07165*
X06156Y07153*
X06159Y07141*
X06165Y07131*
X06173Y07121*
X06182Y07114*
X06193Y07108*
X06204Y07105*
X06216Y07104*
X06228Y07105*
X0624Y07108*
X0625Y07114*
X06259Y07121*
X06267Y07131*
X06273Y07141*
X06276Y07153*
X06277Y07165*
X06276Y07177*
X06273Y07188*
X06267Y07199*
X06259Y07208*
X0625Y07216*
X0624Y07222*
X06228Y07225*
X06216Y07226*
G37*
G36*
X0535D02*
X05338Y07225D01*
X05326Y07222*
X05316Y07216*
X05307Y07208*
X05299Y07199*
X05293Y07188*
X0529Y07177*
X05289Y07165*
X0529Y07153*
X05293Y07141*
X05299Y07131*
X05307Y07121*
X05316Y07114*
X05326Y07108*
X05338Y07105*
X0535Y07104*
X05362Y07105*
X05373Y07108*
X05384Y07114*
X05393Y07121*
X05401Y07131*
X05407Y07141*
X0541Y07153*
X05411Y07165*
X0541Y07177*
X05407Y07188*
X05401Y07199*
X05393Y07208*
X05384Y07216*
X05373Y07222*
X05362Y07225*
X0535Y07226*
G37*
G36*
X04681D02*
X04669Y07225D01*
X04657Y07222*
X04647Y07216*
X04637Y07208*
X0463Y07199*
X04624Y07188*
X0462Y07177*
X04619Y07165*
X0462Y07153*
X04624Y07141*
X0463Y07131*
X04637Y07121*
X04647Y07114*
X04657Y07108*
X04669Y07105*
X04681Y07104*
X04693Y07105*
X04704Y07108*
X04715Y07114*
X04724Y07121*
X04732Y07131*
X04737Y07141*
X04741Y07153*
X04742Y07165*
X04741Y07177*
X04737Y07188*
X04732Y07199*
X04724Y07208*
X04715Y07216*
X04704Y07222*
X04693Y07225*
X04681Y07226*
G37*
G36*
X04011D02*
X03999Y07225D01*
X03988Y07222*
X03977Y07216*
X03968Y07208*
X0396Y07199*
X03955Y07188*
X03951Y07177*
X0395Y07165*
X03951Y07153*
X03955Y07141*
X0396Y07131*
X03968Y07121*
X03977Y07114*
X03988Y07108*
X03999Y07105*
X04011Y07104*
X04023Y07105*
X04035Y07108*
X04045Y07114*
X04055Y07121*
X04062Y07131*
X04068Y07141*
X04071Y07153*
X04073Y07165*
X04071Y07177*
X04068Y07188*
X04062Y07199*
X04055Y07208*
X04045Y07216*
X04035Y07222*
X04023Y07225*
X04011Y07226*
G37*
G36*
X03342D02*
X0333Y07225D01*
X03319Y07222*
X03308Y07216*
X03299Y07208*
X03291Y07199*
X03285Y07188*
X03282Y07177*
X03281Y07165*
X03282Y07153*
X03285Y07141*
X03291Y07131*
X03299Y07121*
X03308Y07114*
X03319Y07108*
X0333Y07105*
X03342Y07104*
X03354Y07105*
X03365Y07108*
X03376Y07114*
X03385Y07121*
X03393Y07131*
X03399Y07141*
X03402Y07153*
X03403Y07165*
X03402Y07177*
X03399Y07188*
X03393Y07199*
X03385Y07208*
X03376Y07216*
X03365Y07222*
X03354Y07225*
X03342Y07226*
G37*
G36*
X02476D02*
X02464Y07225D01*
X02452Y07222*
X02442Y07216*
X02433Y07208*
X02425Y07199*
X02419Y07188*
X02416Y07177*
X02415Y07165*
X02416Y07153*
X02419Y07141*
X02425Y07131*
X02433Y07121*
X02442Y07114*
X02452Y07108*
X02464Y07105*
X02476Y07104*
X02488Y07105*
X02499Y07108*
X0251Y07114*
X02519Y07121*
X02527Y07131*
X02533Y07141*
X02536Y07153*
X02537Y07165*
X02536Y07177*
X02533Y07188*
X02527Y07199*
X02519Y07208*
X0251Y07216*
X02499Y07222*
X02488Y07225*
X02476Y07226*
G37*
G36*
X01807D02*
X01795Y07225D01*
X01783Y07222*
X01773Y07216*
X01763Y07208*
X01756Y07199*
X0175Y07188*
X01746Y07177*
X01745Y07165*
X01746Y07153*
X0175Y07141*
X01756Y07131*
X01763Y07121*
X01773Y07114*
X01783Y07108*
X01795Y07105*
X01807Y07104*
X01819Y07105*
X0183Y07108*
X01841Y07114*
X0185Y07121*
X01858Y07131*
X01863Y07141*
X01867Y07153*
X01868Y07165*
X01867Y07177*
X01863Y07188*
X01858Y07199*
X0185Y07208*
X01841Y07216*
X0183Y07222*
X01819Y07225*
X01807Y07226*
G37*
G36*
X01137D02*
X01125Y07225D01*
X01114Y07222*
X01103Y07216*
X01094Y07208*
X01086Y07199*
X01081Y07188*
X01077Y07177*
X01076Y07165*
X01077Y07153*
X01081Y07141*
X01086Y07131*
X01094Y07121*
X01103Y07114*
X01114Y07108*
X01125Y07105*
X01137Y07104*
X01149Y07105*
X01161Y07108*
X01171Y07114*
X01181Y07121*
X01188Y07131*
X01194Y07141*
X01197Y07153*
X01199Y07165*
X01197Y07177*
X01194Y07188*
X01188Y07199*
X01181Y07208*
X01171Y07216*
X01161Y07222*
X01149Y07225*
X01137Y07226*
G37*
G36*
X00468D02*
X00456Y07225D01*
X00445Y07222*
X00434Y07216*
X00425Y07208*
X00417Y07199*
X00411Y07188*
X00408Y07177*
X00407Y07165*
X00408Y07153*
X00411Y07141*
X00417Y07131*
X00425Y07121*
X00434Y07114*
X00445Y07108*
X00456Y07105*
X00468Y07104*
X0048Y07105*
X00491Y07108*
X00502Y07114*
X00511Y07121*
X00519Y07131*
X00525Y07141*
X00528Y07153*
X00529Y07165*
X00528Y07177*
X00525Y07188*
X00519Y07199*
X00511Y07208*
X00502Y07216*
X00491Y07222*
X0048Y07225*
X00468Y07226*
G37*
G36*
X07861Y06993D02*
X0785Y06991D01*
X0784Y06987*
X07831Y06981*
X07824Y06972*
X0782Y06962*
X07819Y06951*
X0782Y0694*
X07824Y0693*
X07831Y06921*
X0784Y06914*
X0785Y0691*
X07861Y06909*
X07872Y0691*
X07882Y06914*
X07891Y06921*
X07897Y0693*
X07902Y0694*
X07903Y06951*
X07902Y06962*
X07897Y06972*
X07891Y06981*
X07882Y06987*
X07872Y06991*
X07861Y06993*
G37*
G36*
X07761D02*
X0775Y06991D01*
X0774Y06987*
X07731Y06981*
X07724Y06972*
X0772Y06962*
X07719Y06951*
X0772Y0694*
X07724Y0693*
X07731Y06921*
X0774Y06914*
X0775Y0691*
X07761Y06909*
X07772Y0691*
X07782Y06914*
X07791Y06921*
X07797Y0693*
X07802Y0694*
X07803Y06951*
X07802Y06962*
X07797Y06972*
X07791Y06981*
X07782Y06987*
X07772Y06991*
X07761Y06993*
G37*
G36*
X05861D02*
X0585Y06991D01*
X0584Y06987*
X05831Y06981*
X05824Y06972*
X0582Y06962*
X05819Y06951*
X0582Y0694*
X05824Y0693*
X05831Y06921*
X0584Y06914*
X0585Y0691*
X05861Y06909*
X05872Y0691*
X05882Y06914*
X05891Y06921*
X05897Y0693*
X05902Y0694*
X05903Y06951*
X05902Y06962*
X05897Y06972*
X05891Y06981*
X05882Y06987*
X05872Y06991*
X05861Y06993*
G37*
G36*
X05761D02*
X0575Y06991D01*
X0574Y06987*
X05731Y06981*
X05724Y06972*
X0572Y06962*
X05719Y06951*
X0572Y0694*
X05724Y0693*
X05731Y06921*
X0574Y06914*
X0575Y0691*
X05761Y06909*
X05772Y0691*
X05782Y06914*
X05791Y06921*
X05797Y0693*
X05802Y0694*
X05803Y06951*
X05802Y06962*
X05797Y06972*
X05791Y06981*
X05782Y06987*
X05772Y06991*
X05761Y06993*
G37*
G36*
X07861Y06893D02*
X0785Y06891D01*
X0784Y06887*
X07831Y06881*
X07824Y06872*
X0782Y06862*
X07819Y06851*
X0782Y0684*
X07824Y0683*
X07831Y06821*
X0784Y06814*
X0785Y0681*
X07861Y06809*
X07872Y0681*
X07882Y06814*
X07891Y06821*
X07897Y0683*
X07902Y0684*
X07903Y06851*
X07902Y06862*
X07897Y06872*
X07891Y06881*
X07882Y06887*
X07872Y06891*
X07861Y06893*
G37*
G36*
X07761D02*
X0775Y06891D01*
X0774Y06887*
X07731Y06881*
X07724Y06872*
X0772Y06862*
X07719Y06851*
X0772Y0684*
X07724Y0683*
X07731Y06821*
X0774Y06814*
X0775Y0681*
X07761Y06809*
X07772Y0681*
X07782Y06814*
X07791Y06821*
X07797Y0683*
X07802Y0684*
X07803Y06851*
X07802Y06862*
X07797Y06872*
X07791Y06881*
X07782Y06887*
X07772Y06891*
X07761Y06893*
G37*
G36*
X05861D02*
X0585Y06891D01*
X0584Y06887*
X05831Y06881*
X05824Y06872*
X0582Y06862*
X05819Y06851*
X0582Y0684*
X05824Y0683*
X05831Y06821*
X0584Y06814*
X0585Y0681*
X05861Y06809*
X05872Y0681*
X05882Y06814*
X05891Y06821*
X05897Y0683*
X05902Y0684*
X05903Y06851*
X05902Y06862*
X05897Y06872*
X05891Y06881*
X05882Y06887*
X05872Y06891*
X05861Y06893*
G37*
G36*
X05761D02*
X0575Y06891D01*
X0574Y06887*
X05731Y06881*
X05724Y06872*
X0572Y06862*
X05719Y06851*
X0572Y0684*
X05724Y0683*
X05731Y06821*
X0574Y06814*
X0575Y0681*
X05761Y06809*
X05772Y0681*
X05782Y06814*
X05791Y06821*
X05797Y0683*
X05802Y0684*
X05803Y06851*
X05802Y06862*
X05797Y06872*
X05791Y06881*
X05782Y06887*
X05772Y06891*
X05761Y06893*
G37*
G36*
X07761Y06793D02*
X0775Y06791D01*
X0774Y06787*
X07731Y06781*
X07727Y06775*
X0655*
X06549Y06776*
X06542Y06778*
X06535Y06779*
X06528Y06778*
X06521Y06776*
X06515Y06771*
X06511Y06765*
X06508Y06759*
X06507Y06751*
X06508Y06744*
X06511Y06738*
X06515Y06732*
X06521Y06727*
X06528Y06725*
X06535Y06724*
X06542Y06725*
X06547Y06727*
X07727*
X07731Y06721*
X0774Y06714*
X0775Y0671*
X07761Y06709*
X07772Y0671*
X07782Y06714*
X07791Y06721*
X07797Y0673*
X07802Y0674*
X07803Y06751*
X07802Y06762*
X07797Y06772*
X07791Y06781*
X07782Y06787*
X07772Y06791*
X07761Y06793*
G37*
G36*
X07861Y06693D02*
X0785Y06691D01*
X0784Y06687*
X07831Y06681*
X07824Y06672*
X0782Y06662*
X07819Y06651*
X0782Y0664*
X07824Y0663*
X07831Y06621*
X0784Y06614*
X0785Y0661*
X07861Y06609*
X07872Y0661*
X07882Y06614*
X07891Y06621*
X07897Y0663*
X07902Y0664*
X07903Y06651*
X07902Y06662*
X07897Y06672*
X07891Y06681*
X07882Y06687*
X07872Y06691*
X07861Y06693*
G37*
G36*
Y06593D02*
X0785Y06591D01*
X0784Y06587*
X07831Y06581*
X07824Y06572*
X0782Y06562*
X07819Y06551*
X0782Y0654*
X07824Y0653*
X07831Y06521*
X0784Y06514*
X0785Y0651*
X07861Y06509*
X07872Y0651*
X07882Y06514*
X07891Y06521*
X07897Y0653*
X07902Y0654*
X07903Y06551*
X07902Y06562*
X07897Y06572*
X07891Y06581*
X07882Y06587*
X07872Y06591*
X07861Y06593*
G37*
G36*
X07761D02*
X0775Y06591D01*
X0774Y06587*
X07731Y06581*
X07724Y06572*
X0772Y06562*
X07719Y06551*
X0772Y0654*
X07724Y0653*
X07731Y06521*
X0774Y06514*
X0775Y0651*
X07761Y06509*
X07772Y0651*
X07782Y06514*
X07791Y06521*
X07797Y0653*
X07802Y0654*
X07803Y06551*
X07802Y06562*
X07797Y06572*
X07791Y06581*
X07782Y06587*
X07772Y06591*
X07761Y06593*
G37*
G36*
X05861D02*
X0585Y06591D01*
X0584Y06587*
X05831Y06581*
X05824Y06572*
X0582Y06562*
X05819Y06551*
X0582Y0654*
X05824Y0653*
X05831Y06521*
X0584Y06514*
X0585Y0651*
X05861Y06509*
X05872Y0651*
X05882Y06514*
X05891Y06521*
X05897Y0653*
X05902Y0654*
X05903Y06551*
X05902Y06562*
X05897Y06572*
X05891Y06581*
X05882Y06587*
X05872Y06591*
X05861Y06593*
G37*
G36*
X05761D02*
X0575Y06591D01*
X0574Y06587*
X05731Y06581*
X05724Y06572*
X0572Y06562*
X05719Y06551*
X0572Y0654*
X05724Y0653*
X05731Y06521*
X0574Y06514*
X0575Y0651*
X05761Y06509*
X05772Y0651*
X05782Y06514*
X05791Y06521*
X05797Y0653*
X05802Y0654*
X05803Y06551*
X05802Y06562*
X05797Y06572*
X05791Y06581*
X05782Y06587*
X05772Y06591*
X05761Y06593*
G37*
G36*
X07861Y06493D02*
X0785Y06491D01*
X0784Y06487*
X07831Y06481*
X07824Y06472*
X0782Y06462*
X07819Y06451*
X0782Y0644*
X07824Y0643*
X07831Y06421*
X0784Y06414*
X0785Y0641*
X07861Y06409*
X07872Y0641*
X07882Y06414*
X07891Y06421*
X07897Y0643*
X07902Y0644*
X07903Y06451*
X07902Y06462*
X07897Y06472*
X07891Y06481*
X07882Y06487*
X07872Y06491*
X07861Y06493*
G37*
G36*
X07761D02*
X0775Y06491D01*
X0774Y06487*
X07731Y06481*
X07724Y06472*
X0772Y06462*
X07719Y06451*
X0772Y0644*
X07724Y0643*
X07731Y06421*
X0774Y06414*
X0775Y0641*
X07761Y06409*
X07772Y0641*
X07782Y06414*
X07791Y06421*
X07797Y0643*
X07802Y0644*
X07803Y06451*
X07802Y06462*
X07797Y06472*
X07791Y06481*
X07782Y06487*
X07772Y06491*
X07761Y06493*
G37*
G36*
X05861D02*
X0585Y06491D01*
X0584Y06487*
X05831Y06481*
X05824Y06472*
X0582Y06462*
X05819Y06451*
X0582Y0644*
X05824Y0643*
X05831Y06421*
X0584Y06414*
X0585Y0641*
X05861Y06409*
X05872Y0641*
X05882Y06414*
X05891Y06421*
X05897Y0643*
X05902Y0644*
X05903Y06451*
X05902Y06462*
X05897Y06472*
X05891Y06481*
X05882Y06487*
X05872Y06491*
X05861Y06493*
G37*
G36*
X05761D02*
X0575Y06491D01*
X0574Y06487*
X05731Y06481*
X05724Y06472*
X0572Y06462*
X05719Y06451*
X0572Y0644*
X05724Y0643*
X05731Y06421*
X0574Y06414*
X0575Y0641*
X05761Y06409*
X05772Y0641*
X05782Y06414*
X05791Y06421*
X05797Y0643*
X05802Y0644*
X05803Y06451*
X05802Y06462*
X05797Y06472*
X05791Y06481*
X05782Y06487*
X05772Y06491*
X05761Y06493*
G37*
G36*
X07861Y06393D02*
X0785Y06391D01*
X0784Y06387*
X07831Y06381*
X07824Y06372*
X0782Y06362*
X07819Y06351*
X0782Y0634*
X07824Y0633*
X07831Y06321*
X0784Y06314*
X0785Y0631*
X07861Y06309*
X07872Y0631*
X07882Y06314*
X07891Y06321*
X07897Y0633*
X07902Y0634*
X07903Y06351*
X07902Y06362*
X07897Y06372*
X07891Y06381*
X07882Y06387*
X07872Y06391*
X07861Y06393*
G37*
G36*
X07761D02*
X0775Y06391D01*
X0774Y06387*
X07731Y06381*
X07724Y06372*
X0772Y06362*
X07719Y06351*
X0772Y0634*
X07724Y0633*
X07731Y06321*
X0774Y06314*
X0775Y0631*
X07761Y06309*
X07772Y0631*
X07782Y06314*
X07791Y06321*
X07797Y0633*
X07802Y0634*
X07803Y06351*
X07802Y06362*
X07797Y06372*
X07791Y06381*
X07782Y06387*
X07772Y06391*
X07761Y06393*
G37*
G36*
X05861D02*
X0585Y06391D01*
X0584Y06387*
X05831Y06381*
X05824Y06372*
X0582Y06362*
X05819Y06351*
X0582Y0634*
X05824Y0633*
X05831Y06321*
X0584Y06314*
X0585Y0631*
X05861Y06309*
X05872Y0631*
X05882Y06314*
X05891Y06321*
X05897Y0633*
X05902Y0634*
X05903Y06351*
X05902Y06362*
X05897Y06372*
X05891Y06381*
X05882Y06387*
X05872Y06391*
X05861Y06393*
G37*
G36*
X05761D02*
X0575Y06391D01*
X0574Y06387*
X05731Y06381*
X05724Y06372*
X0572Y06362*
X05719Y06351*
X0572Y0634*
X05724Y0633*
X05731Y06321*
X0574Y06314*
X0575Y0631*
X05761Y06309*
X05772Y0631*
X05782Y06314*
X05791Y06321*
X05797Y0633*
X05802Y0634*
X05803Y06351*
X05802Y06362*
X05797Y06372*
X05791Y06381*
X05782Y06387*
X05772Y06391*
X05761Y06393*
G37*
G36*
X07555Y0634D02*
X07543Y06339D01*
X07531Y06336*
X07521Y0633*
X07511Y06322*
X07504Y06313*
X07498Y06302*
X07494Y06291*
X07493Y06279*
X07494Y06267*
X07498Y06256*
X07504Y06245*
X07511Y06236*
X07521Y06228*
X07531Y06222*
X07543Y06219*
X07555Y06218*
X07567Y06219*
X07578Y06222*
X07589Y06228*
X07598Y06236*
X07606Y06245*
X07611Y06256*
X07615Y06267*
X07616Y06279*
X07615Y06291*
X07611Y06302*
X07606Y06313*
X07598Y06322*
X07589Y0633*
X07578Y06336*
X07567Y06339*
X07555Y0634*
G37*
G36*
X06885D02*
X06873Y06339D01*
X06862Y06336*
X06851Y0633*
X06842Y06322*
X06834Y06313*
X06829Y06302*
X06825Y06291*
X06824Y06279*
X06825Y06267*
X06829Y06256*
X06834Y06245*
X06842Y06236*
X06851Y06228*
X06862Y06222*
X06873Y06219*
X06885Y06218*
X06897Y06219*
X06909Y06222*
X06919Y06228*
X06929Y06236*
X06936Y06245*
X06942Y06256*
X06945Y06267*
X06947Y06279*
X06945Y06291*
X06942Y06302*
X06936Y06313*
X06929Y06322*
X06919Y0633*
X06909Y06336*
X06897Y06339*
X06885Y0634*
G37*
G36*
X06216D02*
X06204Y06339D01*
X06193Y06336*
X06182Y0633*
X06173Y06322*
X06165Y06313*
X06159Y06302*
X06156Y06291*
X06155Y06279*
X06156Y06267*
X06159Y06256*
X06165Y06245*
X06173Y06236*
X06182Y06228*
X06193Y06222*
X06204Y06219*
X06216Y06218*
X06228Y06219*
X0624Y06222*
X0625Y06228*
X06259Y06236*
X06267Y06245*
X06273Y06256*
X06276Y06267*
X06277Y06279*
X06276Y06291*
X06273Y06302*
X06267Y06313*
X06259Y06322*
X0625Y0633*
X0624Y06336*
X06228Y06339*
X06216Y0634*
G37*
G36*
X0535D02*
X05338Y06339D01*
X05326Y06336*
X05316Y0633*
X05307Y06322*
X05299Y06313*
X05293Y06302*
X0529Y06291*
X05289Y06279*
X0529Y06267*
X05293Y06256*
X05299Y06245*
X05307Y06236*
X05316Y06228*
X05326Y06222*
X05338Y06219*
X0535Y06218*
X05362Y06219*
X05373Y06222*
X05384Y06228*
X05393Y06236*
X05401Y06245*
X05407Y06256*
X0541Y06267*
X05411Y06279*
X0541Y06291*
X05407Y06302*
X05401Y06313*
X05393Y06322*
X05384Y0633*
X05373Y06336*
X05362Y06339*
X0535Y0634*
G37*
G36*
X04681D02*
X04669Y06339D01*
X04657Y06336*
X04647Y0633*
X04637Y06322*
X0463Y06313*
X04624Y06302*
X0462Y06291*
X04619Y06279*
X0462Y06267*
X04624Y06256*
X0463Y06245*
X04637Y06236*
X04647Y06228*
X04657Y06222*
X04669Y06219*
X04681Y06218*
X04693Y06219*
X04704Y06222*
X04715Y06228*
X04724Y06236*
X04732Y06245*
X04737Y06256*
X04741Y06267*
X04742Y06279*
X04741Y06291*
X04737Y06302*
X04732Y06313*
X04724Y06322*
X04715Y0633*
X04704Y06336*
X04693Y06339*
X04681Y0634*
G37*
G36*
X04011D02*
X03999Y06339D01*
X03988Y06336*
X03977Y0633*
X03968Y06322*
X0396Y06313*
X03955Y06302*
X03951Y06291*
X0395Y06279*
X03951Y06267*
X03955Y06256*
X0396Y06245*
X03968Y06236*
X03977Y06228*
X03988Y06222*
X03999Y06219*
X04011Y06218*
X04023Y06219*
X04035Y06222*
X04045Y06228*
X04055Y06236*
X04062Y06245*
X04068Y06256*
X04071Y06267*
X04073Y06279*
X04071Y06291*
X04068Y06302*
X04062Y06313*
X04055Y06322*
X04045Y0633*
X04035Y06336*
X04023Y06339*
X04011Y0634*
G37*
G36*
X03342D02*
X0333Y06339D01*
X03319Y06336*
X03308Y0633*
X03299Y06322*
X03291Y06313*
X03285Y06302*
X03282Y06291*
X03281Y06279*
X03282Y06267*
X03285Y06256*
X03291Y06245*
X03299Y06236*
X03308Y06228*
X03319Y06222*
X0333Y06219*
X03342Y06218*
X03354Y06219*
X03365Y06222*
X03376Y06228*
X03385Y06236*
X03393Y06245*
X03399Y06256*
X03402Y06267*
X03403Y06279*
X03402Y06291*
X03399Y06302*
X03393Y06313*
X03385Y06322*
X03376Y0633*
X03365Y06336*
X03354Y06339*
X03342Y0634*
G37*
G36*
X02476D02*
X02464Y06339D01*
X02452Y06336*
X02442Y0633*
X02433Y06322*
X02425Y06313*
X02419Y06302*
X02416Y06291*
X02415Y06279*
X02416Y06267*
X02419Y06256*
X02425Y06245*
X02433Y06236*
X02442Y06228*
X02452Y06222*
X02464Y06219*
X02476Y06218*
X02488Y06219*
X02499Y06222*
X0251Y06228*
X02519Y06236*
X02527Y06245*
X02533Y06256*
X02536Y06267*
X02537Y06279*
X02536Y06291*
X02533Y06302*
X02527Y06313*
X02519Y06322*
X0251Y0633*
X02499Y06336*
X02488Y06339*
X02476Y0634*
G37*
G36*
X01807D02*
X01795Y06339D01*
X01783Y06336*
X01773Y0633*
X01763Y06322*
X01756Y06313*
X0175Y06302*
X01746Y06291*
X01745Y06279*
X01746Y06267*
X0175Y06256*
X01756Y06245*
X01763Y06236*
X01773Y06228*
X01783Y06222*
X01795Y06219*
X01807Y06218*
X01819Y06219*
X0183Y06222*
X01841Y06228*
X0185Y06236*
X01858Y06245*
X01863Y06256*
X01867Y06267*
X01868Y06279*
X01867Y06291*
X01863Y06302*
X01858Y06313*
X0185Y06322*
X01841Y0633*
X0183Y06336*
X01819Y06339*
X01807Y0634*
G37*
G36*
X01137D02*
X01125Y06339D01*
X01114Y06336*
X01103Y0633*
X01094Y06322*
X01086Y06313*
X01081Y06302*
X01077Y06291*
X01076Y06279*
X01077Y06267*
X01081Y06256*
X01086Y06245*
X01094Y06236*
X01103Y06228*
X01114Y06222*
X01125Y06219*
X01137Y06218*
X01149Y06219*
X01161Y06222*
X01171Y06228*
X01181Y06236*
X01188Y06245*
X01194Y06256*
X01197Y06267*
X01199Y06279*
X01197Y06291*
X01194Y06302*
X01188Y06313*
X01181Y06322*
X01171Y0633*
X01161Y06336*
X01149Y06339*
X01137Y0634*
G37*
G36*
X00468D02*
X00456Y06339D01*
X00445Y06336*
X00434Y0633*
X00425Y06322*
X00417Y06313*
X00411Y06302*
X00408Y06291*
X00407Y06279*
X00408Y06267*
X00411Y06256*
X00417Y06245*
X00425Y06236*
X00434Y06228*
X00445Y06222*
X00456Y06219*
X00468Y06218*
X0048Y06219*
X00491Y06222*
X00502Y06228*
X00511Y06236*
X00519Y06245*
X00525Y06256*
X00528Y06267*
X00529Y06279*
X00528Y06291*
X00525Y06302*
X00519Y06313*
X00511Y06322*
X00502Y0633*
X00491Y06336*
X0048Y06339*
X00468Y0634*
G37*
G36*
X07861Y06293D02*
X0785Y06291D01*
X0784Y06287*
X07831Y06281*
X07824Y06272*
X0782Y06262*
X07819Y06251*
X0782Y0624*
X07824Y0623*
X07831Y06221*
X0784Y06214*
X0785Y0621*
X07861Y06209*
X07872Y0621*
X07882Y06214*
X07891Y06221*
X07897Y0623*
X07902Y0624*
X07903Y06251*
X07902Y06262*
X07897Y06272*
X07891Y06281*
X07882Y06287*
X07872Y06291*
X07861Y06293*
G37*
G36*
X07761D02*
X0775Y06291D01*
X0774Y06287*
X07731Y06281*
X07724Y06272*
X0772Y06262*
X07719Y06251*
X0772Y0624*
X07724Y0623*
X07731Y06221*
X0774Y06214*
X0775Y0621*
X07761Y06209*
X07772Y0621*
X07782Y06214*
X07791Y06221*
X07797Y0623*
X07802Y0624*
X07803Y06251*
X07802Y06262*
X07797Y06272*
X07791Y06281*
X07782Y06287*
X07772Y06291*
X07761Y06293*
G37*
G36*
X05861D02*
X0585Y06291D01*
X0584Y06287*
X05831Y06281*
X05824Y06272*
X0582Y06262*
X05819Y06251*
X0582Y0624*
X05824Y0623*
X05831Y06221*
X0584Y06214*
X0585Y0621*
X05861Y06209*
X05872Y0621*
X05882Y06214*
X05891Y06221*
X05897Y0623*
X05902Y0624*
X05903Y06251*
X05902Y06262*
X05897Y06272*
X05891Y06281*
X05882Y06287*
X05872Y06291*
X05861Y06293*
G37*
G36*
X05761D02*
X0575Y06291D01*
X0574Y06287*
X05731Y06281*
X05724Y06272*
X0572Y06262*
X05719Y06251*
X0572Y0624*
X05724Y0623*
X05731Y06221*
X0574Y06214*
X0575Y0621*
X05761Y06209*
X05772Y0621*
X05782Y06214*
X05791Y06221*
X05797Y0623*
X05802Y0624*
X05803Y06251*
X05802Y06262*
X05797Y06272*
X05791Y06281*
X05782Y06287*
X05772Y06291*
X05761Y06293*
G37*
G36*
X07861Y06193D02*
X0785Y06191D01*
X0784Y06187*
X07831Y06181*
X07824Y06172*
X0782Y06162*
X07819Y06151*
X0782Y0614*
X07824Y0613*
X07831Y06121*
X0784Y06114*
X0785Y0611*
X07861Y06109*
X07872Y0611*
X07882Y06114*
X07891Y06121*
X07897Y0613*
X07902Y0614*
X07903Y06151*
X07902Y06162*
X07897Y06172*
X07891Y06181*
X07882Y06187*
X07872Y06191*
X07861Y06193*
G37*
G36*
X07761D02*
X0775Y06191D01*
X0774Y06187*
X07731Y06181*
X07724Y06172*
X0772Y06162*
X07719Y06151*
X0772Y0614*
X07724Y0613*
X07731Y06121*
X0774Y06114*
X0775Y0611*
X07761Y06109*
X07772Y0611*
X07782Y06114*
X07791Y06121*
X07797Y0613*
X07802Y0614*
X07803Y06151*
X07802Y06162*
X07797Y06172*
X07791Y06181*
X07782Y06187*
X07772Y06191*
X07761Y06193*
G37*
G36*
X05861D02*
X0585Y06191D01*
X0584Y06187*
X05831Y06181*
X05824Y06172*
X0582Y06162*
X05819Y06151*
X0582Y0614*
X05824Y0613*
X05831Y06121*
X0584Y06114*
X0585Y0611*
X05861Y06109*
X05872Y0611*
X05882Y06114*
X05891Y06121*
X05897Y0613*
X05902Y0614*
X05903Y06151*
X05902Y06162*
X05897Y06172*
X05891Y06181*
X05882Y06187*
X05872Y06191*
X05861Y06193*
G37*
G36*
X05761D02*
X0575Y06191D01*
X0574Y06187*
X05731Y06181*
X05724Y06172*
X0572Y06162*
X05719Y06151*
X0572Y0614*
X05724Y0613*
X05731Y06121*
X0574Y06114*
X0575Y0611*
X05761Y06109*
X05772Y0611*
X05782Y06114*
X05791Y06121*
X05797Y0613*
X05802Y0614*
X05803Y06151*
X05802Y06162*
X05797Y06172*
X05791Y06181*
X05782Y06187*
X05772Y06191*
X05761Y06193*
G37*
G36*
X07861Y06093D02*
X0785Y06091D01*
X0784Y06087*
X07831Y06081*
X07824Y06072*
X0782Y06062*
X07819Y06051*
X0782Y0604*
X07824Y0603*
X07831Y06021*
X0784Y06014*
X0785Y0601*
X07861Y06009*
X07872Y0601*
X07882Y06014*
X07891Y06021*
X07897Y0603*
X07902Y0604*
X07903Y06051*
X07902Y06062*
X07897Y06072*
X07891Y06081*
X07882Y06087*
X07872Y06091*
X07861Y06093*
G37*
G36*
X07761D02*
X0775Y06091D01*
X0774Y06087*
X07731Y06081*
X07724Y06072*
X0772Y06062*
X07719Y06051*
X0772Y0604*
X07724Y0603*
X07731Y06021*
X0774Y06014*
X0775Y0601*
X07761Y06009*
X07772Y0601*
X07782Y06014*
X07791Y06021*
X07797Y0603*
X07802Y0604*
X07803Y06051*
X07802Y06062*
X07797Y06072*
X07791Y06081*
X07782Y06087*
X07772Y06091*
X07761Y06093*
G37*
G36*
X05861D02*
X0585Y06091D01*
X0584Y06087*
X05831Y06081*
X05824Y06072*
X0582Y06062*
X05819Y06051*
X0582Y0604*
X05824Y0603*
X05831Y06021*
X0584Y06014*
X0585Y0601*
X05861Y06009*
X05872Y0601*
X05882Y06014*
X05891Y06021*
X05897Y0603*
X05902Y0604*
X05903Y06051*
X05902Y06062*
X05897Y06072*
X05891Y06081*
X05882Y06087*
X05872Y06091*
X05861Y06093*
G37*
G36*
X05761D02*
X0575Y06091D01*
X0574Y06087*
X05731Y06081*
X05724Y06072*
X0572Y06062*
X05719Y06051*
X0572Y0604*
X05724Y0603*
X05731Y06021*
X0574Y06014*
X0575Y0601*
X05761Y06009*
X05772Y0601*
X05782Y06014*
X05791Y06021*
X05797Y0603*
X05802Y0604*
X05803Y06051*
X05802Y06062*
X05797Y06072*
X05791Y06081*
X05782Y06087*
X05772Y06091*
X05761Y06093*
G37*
G36*
X07861Y05993D02*
X0785Y05991D01*
X0784Y05987*
X07831Y05981*
X07824Y05972*
X0782Y05962*
X07819Y05951*
X0782Y0594*
X07824Y0593*
X07831Y05921*
X0784Y05914*
X0785Y0591*
X07861Y05909*
X07872Y0591*
X07882Y05914*
X07891Y05921*
X07897Y0593*
X07902Y0594*
X07903Y05951*
X07902Y05962*
X07897Y05972*
X07891Y05981*
X07882Y05987*
X07872Y05991*
X07861Y05993*
G37*
G36*
X07761D02*
X0775Y05991D01*
X0774Y05987*
X07731Y05981*
X07724Y05972*
X0772Y05962*
X07719Y05951*
X0772Y0594*
X07724Y0593*
X07731Y05921*
X0774Y05914*
X0775Y0591*
X07761Y05909*
X07772Y0591*
X07782Y05914*
X07791Y05921*
X07797Y0593*
X07802Y0594*
X07803Y05951*
X07802Y05962*
X07797Y05972*
X07791Y05981*
X07782Y05987*
X07772Y05991*
X07761Y05993*
G37*
G36*
X07861Y05893D02*
X0785Y05891D01*
X0784Y05887*
X07831Y05881*
X07824Y05872*
X0782Y05862*
X07819Y05851*
X0782Y0584*
X07824Y0583*
X07831Y05821*
X0784Y05814*
X0785Y0581*
X07861Y05809*
X07872Y0581*
X07882Y05814*
X07891Y05821*
X07897Y0583*
X07902Y0584*
X07903Y05851*
X07902Y05862*
X07897Y05872*
X07891Y05881*
X07882Y05887*
X07872Y05891*
X07861Y05893*
G37*
G36*
X07761D02*
X0775Y05891D01*
X0774Y05887*
X07731Y05881*
X07724Y05872*
X0772Y05862*
X07719Y05852*
X07716Y0585*
X07714Y05849*
X0765*
Y058*
X07715*
Y0584*
X0772Y05841*
X0772Y0584*
X07724Y0583*
X07731Y05821*
X0774Y05814*
X0775Y0581*
X07761Y05809*
X07772Y0581*
X07782Y05814*
X07791Y05821*
X07797Y0583*
X07802Y0584*
X07803Y05851*
X07802Y05862*
X07797Y05872*
X07791Y05881*
X07782Y05887*
X07772Y05891*
X07761Y05893*
G37*
G36*
Y05793D02*
X0775Y05791D01*
X0774Y05787*
X07731Y05781*
X07724Y05772*
X0772Y05762*
X0772Y05761*
X07715Y05761*
Y05774*
X0765*
Y05725*
X07652*
X07654Y0572*
X07549Y05614*
X07519*
X0751Y05612*
X07502Y05607*
X07388Y05493*
X07383Y05485*
X07381Y05476*
Y0545*
X07371Y05444*
X07362Y05437*
X07354Y05427*
X07348Y05417*
X07345Y05405*
X07344Y05393*
X07345Y05381*
X07348Y0537*
X07354Y05359*
X07362Y0535*
X07371Y05342*
X07382Y05337*
X07393Y05333*
X07405Y05332*
X07417Y05333*
X07428Y05337*
X07439Y05342*
X07448Y0535*
X07456Y05359*
X07462Y0537*
X07465Y05381*
X07466Y05393*
X07465Y05405*
X07462Y05417*
X07456Y05427*
X07448Y05437*
X07439Y05444*
X07429Y0545*
Y05466*
X07529Y05566*
X07559*
X07568Y05568*
X07576Y05573*
X077Y05697*
X07705Y05705*
X07707Y05714*
Y05725*
X07715*
Y0574*
X0772Y05741*
X0772Y0574*
X07724Y0573*
X07731Y05721*
X0774Y05714*
X0775Y0571*
X07761Y05709*
X07772Y0571*
X07782Y05714*
X07791Y05721*
X07797Y0573*
X07802Y0574*
X07803Y05751*
X07802Y05762*
X07797Y05772*
X07791Y05781*
X07782Y05787*
X07772Y05791*
X07761Y05793*
G37*
G36*
X07294Y05829D02*
X07283Y05827D01*
X07273Y05823*
X07264Y05816*
X07257Y05808*
X07253Y05798*
X07252Y05787*
X07253Y05776*
X07257Y05766*
X07264Y05757*
X07273Y05751*
X07283Y05747*
X07294Y05745*
X07304Y05747*
X07314Y05751*
X07323Y05757*
X0733Y05766*
X07334Y05776*
X07335Y05787*
X07334Y05798*
X0733Y05808*
X07323Y05816*
X07314Y05823*
X07304Y05827*
X07294Y05829*
G37*
G36*
X07861Y05793D02*
X0785Y05791D01*
X0784Y05787*
X07831Y05781*
X07824Y05772*
X0782Y05762*
X07819Y05751*
X0782Y0574*
X07824Y0573*
X07831Y05721*
X0784Y05714*
X0785Y0571*
X07861Y05709*
X07872Y0571*
X07882Y05714*
X07891Y05721*
X07897Y0573*
X07902Y0574*
X07903Y05751*
X07902Y05762*
X07897Y05772*
X07891Y05781*
X07882Y05787*
X07872Y05791*
X07861Y05793*
G37*
G36*
Y05693D02*
X0785Y05691D01*
X0784Y05687*
X07831Y05681*
X07824Y05672*
X0782Y05662*
X07819Y05651*
X0782Y0564*
X07824Y0563*
X07831Y05621*
X0784Y05614*
X0785Y0561*
X07861Y05609*
X07872Y0561*
X07882Y05614*
X07891Y05621*
X07897Y0563*
X07902Y0564*
X07903Y05651*
X07902Y05662*
X07897Y05672*
X07891Y05681*
X07882Y05687*
X07872Y05691*
X07861Y05693*
G37*
G36*
X07761D02*
X0775Y05691D01*
X0774Y05687*
X07731Y05681*
X07724Y05672*
X0772Y05662*
X07719Y05651*
X0772Y0564*
X07724Y0563*
X07731Y05621*
X0774Y05614*
X0775Y0561*
X07761Y05609*
X07772Y0561*
X07782Y05614*
X07791Y05621*
X07797Y0563*
X07802Y0564*
X07803Y05651*
X07802Y05662*
X07797Y05672*
X07791Y05681*
X07782Y05687*
X07772Y05691*
X07761Y05693*
G37*
G36*
X07861Y05593D02*
X0785Y05591D01*
X0784Y05587*
X07831Y05581*
X07824Y05572*
X0782Y05562*
X07819Y05551*
X0782Y0554*
X07824Y0553*
X07831Y05521*
X0784Y05514*
X0785Y0551*
X07861Y05509*
X07872Y0551*
X07882Y05514*
X07891Y05521*
X07897Y0553*
X07902Y0554*
X07903Y05551*
X07902Y05562*
X07897Y05572*
X07891Y05581*
X07882Y05587*
X07872Y05591*
X07861Y05593*
G37*
G36*
X07761D02*
X0775Y05591D01*
X0774Y05587*
X07731Y05581*
X07724Y05572*
X0772Y05562*
X07719Y05551*
X0772Y0554*
X07724Y0553*
X07731Y05521*
X0774Y05514*
X0775Y0551*
X07761Y05509*
X07772Y0551*
X07782Y05514*
X07791Y05521*
X07797Y0553*
X07802Y0554*
X07803Y05551*
X07802Y05562*
X07797Y05572*
X07791Y05581*
X07782Y05587*
X07772Y05591*
X07761Y05593*
G37*
G36*
X05861D02*
X0585Y05591D01*
X0584Y05587*
X05831Y05581*
X05824Y05572*
X0582Y05562*
X05819Y05551*
X0582Y0554*
X05824Y0553*
X05831Y05521*
X0584Y05514*
X0585Y0551*
X05861Y05509*
X05872Y0551*
X05882Y05514*
X05891Y05521*
X05897Y0553*
X05902Y0554*
X05903Y05551*
X05902Y05562*
X05897Y05572*
X05891Y05581*
X05882Y05587*
X05872Y05591*
X05861Y05593*
G37*
G36*
X07861Y05493D02*
X0785Y05491D01*
X0784Y05487*
X07831Y05481*
X07824Y05472*
X0782Y05462*
X07819Y05451*
X0782Y0544*
X07824Y0543*
X07831Y05421*
X0784Y05414*
X0785Y0541*
X07861Y05409*
X07872Y0541*
X07882Y05414*
X07891Y05421*
X07897Y0543*
X07902Y0544*
X07903Y05451*
X07902Y05462*
X07897Y05472*
X07891Y05481*
X07882Y05487*
X07872Y05491*
X07861Y05493*
G37*
G36*
X07761D02*
X0775Y05491D01*
X0774Y05487*
X07731Y05481*
X07724Y05472*
X0772Y05462*
X07719Y05451*
X0772Y0544*
X07724Y0543*
X07731Y05421*
X0774Y05414*
X0775Y0541*
X07761Y05409*
X07772Y0541*
X07782Y05414*
X07791Y05421*
X07797Y0543*
X07802Y0544*
X07803Y05451*
X07802Y05462*
X07797Y05472*
X07791Y05481*
X07782Y05487*
X07772Y05491*
X07761Y05493*
G37*
G36*
X05861D02*
X0585Y05491D01*
X0584Y05487*
X05831Y05481*
X05824Y05472*
X0582Y05462*
X05819Y05451*
X0582Y0544*
X05824Y0543*
X05831Y05421*
X0584Y05414*
X0585Y0541*
X05861Y05409*
X05872Y0541*
X05882Y05414*
X05891Y05421*
X05897Y0543*
X05902Y0544*
X05903Y05451*
X05902Y05462*
X05897Y05472*
X05891Y05481*
X05882Y05487*
X05872Y05491*
X05861Y05493*
G37*
G36*
X07555Y05455D02*
X07543Y05453D01*
X07531Y0545*
X07521Y05444*
X07511Y05437*
X07504Y05427*
X07498Y05417*
X07494Y05405*
X07493Y05393*
X07494Y05381*
X07498Y0537*
X07504Y05359*
X07511Y0535*
X07521Y05342*
X07531Y05337*
X07543Y05333*
X07555Y05332*
X07567Y05333*
X07578Y05337*
X07589Y05342*
X07598Y0535*
X07606Y05359*
X07611Y0537*
X07615Y05381*
X07616Y05393*
X07615Y05405*
X07611Y05417*
X07606Y05427*
X07598Y05437*
X07589Y05444*
X07578Y0545*
X07567Y05453*
X07555Y05455*
G37*
G36*
X02476D02*
X02464Y05453D01*
X02452Y0545*
X02442Y05444*
X02433Y05437*
X02425Y05427*
X02419Y05417*
X02416Y05405*
X02415Y05393*
X02416Y05381*
X02419Y0537*
X02425Y05359*
X02433Y0535*
X02442Y05342*
X02452Y05337*
X02464Y05333*
X02476Y05332*
X02488Y05333*
X02499Y05337*
X0251Y05342*
X02519Y0535*
X02527Y05359*
X02533Y0537*
X02536Y05381*
X02537Y05393*
X02536Y05405*
X02533Y05417*
X02527Y05427*
X02519Y05437*
X0251Y05444*
X02499Y0545*
X02488Y05453*
X02476Y05455*
G37*
G36*
X01807D02*
X01795Y05453D01*
X01783Y0545*
X01773Y05444*
X01763Y05437*
X01756Y05427*
X0175Y05417*
X01746Y05405*
X01745Y05393*
X01746Y05381*
X0175Y0537*
X01756Y05359*
X01763Y0535*
X01773Y05342*
X01783Y05337*
X01795Y05333*
X01807Y05332*
X01819Y05333*
X0183Y05337*
X01841Y05342*
X0185Y0535*
X01858Y05359*
X01863Y0537*
X01867Y05381*
X01868Y05393*
X01867Y05405*
X01863Y05417*
X01858Y05427*
X0185Y05437*
X01841Y05444*
X0183Y0545*
X01819Y05453*
X01807Y05455*
G37*
G36*
X01137D02*
X01125Y05453D01*
X01114Y0545*
X01103Y05444*
X01094Y05437*
X01086Y05427*
X01081Y05417*
X01077Y05405*
X01076Y05393*
X01077Y05381*
X01081Y0537*
X01086Y05359*
X01094Y0535*
X01103Y05342*
X01114Y05337*
X01125Y05333*
X01137Y05332*
X01149Y05333*
X01161Y05337*
X01171Y05342*
X01181Y0535*
X01188Y05359*
X01194Y0537*
X01197Y05381*
X01199Y05393*
X01197Y05405*
X01194Y05417*
X01188Y05427*
X01181Y05437*
X01171Y05444*
X01161Y0545*
X01149Y05453*
X01137Y05455*
G37*
G36*
X07861Y05393D02*
X0785Y05391D01*
X0784Y05387*
X07831Y05381*
X07824Y05372*
X0782Y05362*
X07819Y05351*
X0782Y0534*
X07824Y0533*
X07831Y05321*
X0784Y05314*
X0785Y0531*
X07861Y05309*
X07872Y0531*
X07882Y05314*
X07891Y05321*
X07897Y0533*
X07902Y0534*
X07903Y05351*
X07902Y05362*
X07897Y05372*
X07891Y05381*
X07882Y05387*
X07872Y05391*
X07861Y05393*
G37*
G36*
X07761D02*
X0775Y05391D01*
X0774Y05387*
X07731Y05381*
X07724Y05372*
X0772Y05362*
X07719Y05351*
X0772Y0534*
X07724Y0533*
X07731Y05321*
X0774Y05314*
X0775Y0531*
X07761Y05309*
X07772Y0531*
X07782Y05314*
X07791Y05321*
X07797Y0533*
X07802Y0534*
X07803Y05351*
X07802Y05362*
X07797Y05372*
X07791Y05381*
X07782Y05387*
X07772Y05391*
X07761Y05393*
G37*
G36*
X05861D02*
X0585Y05391D01*
X0584Y05387*
X05831Y05381*
X05824Y05372*
X0582Y05362*
X05819Y05351*
X0582Y0534*
X05824Y0533*
X05831Y05321*
X0584Y05314*
X0585Y0531*
X05861Y05309*
X05872Y0531*
X05882Y05314*
X05891Y05321*
X05897Y0533*
X05902Y0534*
X05903Y05351*
X05902Y05362*
X05897Y05372*
X05891Y05381*
X05882Y05387*
X05872Y05391*
X05861Y05393*
G37*
G36*
X00468Y05455D02*
X00456Y05453D01*
X00445Y0545*
X00434Y05444*
X00425Y05437*
X00417Y05427*
X00411Y05417*
X00408Y05405*
X00407Y05393*
X00408Y05381*
X00411Y0537*
X00417Y05359*
X00425Y0535*
X00434Y05342*
X00445Y05337*
X00456Y05333*
X00468Y05332*
X00478Y05333*
X00573Y05238*
X00581Y05233*
X0059Y05231*
X02742*
X02748Y05229*
X02755Y05228*
X02763Y05229*
X02769Y05231*
X02775Y05236*
X02779Y05242*
X02782Y05248*
X02783Y05255*
X02782Y05263*
X02779Y05269*
X02775Y05275*
X02769Y05279*
X02763Y05282*
X02755Y05283*
X02748Y05282*
X02742Y05279*
X006*
X00519Y0536*
X00525Y0537*
X00528Y05381*
X00529Y05393*
X00528Y05405*
X00525Y05417*
X00519Y05427*
X00511Y05437*
X00502Y05444*
X00491Y0545*
X0048Y05453*
X00468Y05455*
G37*
G36*
X07861Y05293D02*
X0785Y05291D01*
X0784Y05287*
X07831Y05281*
X07824Y05272*
X0782Y05262*
X07819Y05251*
X0782Y0524*
X07824Y0523*
X07831Y05221*
X0784Y05214*
X0785Y0521*
X07861Y05209*
X07872Y0521*
X07882Y05214*
X07891Y05221*
X07897Y0523*
X07902Y0524*
X07903Y05251*
X07902Y05262*
X07897Y05272*
X07891Y05281*
X07882Y05287*
X07872Y05291*
X07861Y05293*
G37*
G36*
X07761D02*
X0775Y05291D01*
X0774Y05287*
X07731Y05281*
X07724Y05272*
X0772Y05262*
X07719Y05251*
X0772Y0524*
X07724Y0523*
X07731Y05221*
X0774Y05214*
X0775Y0521*
X07761Y05209*
X07772Y0521*
X07782Y05214*
X07791Y05221*
X07797Y0523*
X07802Y0524*
X07803Y05251*
X07802Y05262*
X07797Y05272*
X07791Y05281*
X07782Y05287*
X07772Y05291*
X07761Y05293*
G37*
G36*
X05861D02*
X0585Y05291D01*
X0584Y05287*
X05831Y05281*
X05824Y05272*
X0582Y05262*
X05819Y05251*
X0582Y0524*
X05824Y0523*
X05831Y05221*
X0584Y05214*
X0585Y0521*
X05861Y05209*
X05872Y0521*
X05882Y05214*
X05891Y05221*
X05897Y0523*
X05902Y0524*
X05903Y05251*
X05902Y05262*
X05897Y05272*
X05891Y05281*
X05882Y05287*
X05872Y05291*
X05861Y05293*
G37*
G36*
X07861Y05193D02*
X0785Y05191D01*
X0784Y05187*
X07831Y05181*
X07824Y05172*
X0782Y05162*
X07819Y05151*
X0782Y0514*
X07824Y0513*
X07831Y05121*
X0784Y05114*
X0785Y0511*
X07861Y05109*
X07872Y0511*
X07882Y05114*
X07891Y05121*
X07897Y0513*
X07902Y0514*
X07903Y05151*
X07902Y05162*
X07897Y05172*
X07891Y05181*
X07882Y05187*
X07872Y05191*
X07861Y05193*
G37*
G36*
X07761D02*
X0775Y05191D01*
X0774Y05187*
X07731Y05181*
X07724Y05172*
X0772Y05162*
X07719Y05151*
X0772Y0514*
X07724Y0513*
X07731Y05121*
X0774Y05114*
X0775Y0511*
X07761Y05109*
X07772Y0511*
X07782Y05114*
X07791Y05121*
X07797Y0513*
X07802Y0514*
X07803Y05151*
X07802Y05162*
X07797Y05172*
X07791Y05181*
X07782Y05187*
X07772Y05191*
X07761Y05193*
G37*
G36*
X05861D02*
X0585Y05191D01*
X0584Y05187*
X05831Y05181*
X05824Y05172*
X0582Y05162*
X05819Y05151*
X0582Y0514*
X05824Y0513*
X05831Y05121*
X0584Y05114*
X0585Y0511*
X05861Y05109*
X05872Y0511*
X05882Y05114*
X05891Y05121*
X05897Y0513*
X05902Y0514*
X05903Y05151*
X05902Y05162*
X05897Y05172*
X05891Y05181*
X05882Y05187*
X05872Y05191*
X05861Y05193*
G37*
G36*
X05761D02*
X0575Y05191D01*
X0574Y05187*
X05731Y05181*
X05724Y05172*
X0572Y05162*
X05719Y05151*
X0572Y0514*
X05724Y0513*
X05731Y05121*
X0574Y05114*
X0575Y0511*
X05761Y05109*
X05772Y0511*
X05782Y05114*
X05791Y05121*
X05797Y0513*
X05802Y0514*
X05803Y05151*
X05802Y05162*
X05797Y05172*
X05791Y05181*
X05782Y05187*
X05772Y05191*
X05761Y05193*
G37*
G36*
X07861Y05093D02*
X0785Y05091D01*
X0784Y05087*
X07831Y05081*
X07824Y05072*
X0782Y05062*
X07819Y05051*
X0782Y0504*
X07824Y0503*
X07831Y05021*
X0784Y05014*
X0785Y0501*
X07861Y05009*
X07872Y0501*
X07882Y05014*
X07891Y05021*
X07897Y0503*
X07902Y0504*
X07903Y05051*
X07902Y05062*
X07897Y05072*
X07891Y05081*
X07882Y05087*
X07872Y05091*
X07861Y05093*
G37*
G36*
X05861D02*
X0585Y05091D01*
X0584Y05087*
X05831Y05081*
X05824Y05072*
X0582Y05062*
X05819Y05051*
X0582Y0504*
X05824Y0503*
X05831Y05021*
X0584Y05014*
X0585Y0501*
X05861Y05009*
X05872Y0501*
X05882Y05014*
X05891Y05021*
X05897Y0503*
X05902Y0504*
X05903Y05051*
X05902Y05062*
X05897Y05072*
X05891Y05081*
X05882Y05087*
X05872Y05091*
X05861Y05093*
G37*
G36*
X05761D02*
X0575Y05091D01*
X0574Y05087*
X05731Y05081*
X05724Y05072*
X0572Y05062*
X05719Y05051*
X0572Y0504*
X05724Y0503*
X05731Y05021*
X0574Y05014*
X0575Y0501*
X05761Y05009*
X05772Y0501*
X05782Y05014*
X05791Y05021*
X05797Y0503*
X05802Y0504*
X05803Y05051*
X05802Y05062*
X05797Y05072*
X05791Y05081*
X05782Y05087*
X05772Y05091*
X05761Y05093*
G37*
G36*
X08051Y05756D02*
X08043Y05755D01*
X08037Y05752*
X08031Y05748*
X08027Y05742*
X08024Y05735*
X08023Y05728*
X08024Y05721*
X08027Y05714*
X08031Y05708*
X08037Y05704*
X08043Y05701*
X08046Y05698*
Y04921*
X08044Y04918*
X08042Y04909*
Y04775*
X08044Y04766*
X08046Y04763*
Y02864*
X07647Y02465*
X05935*
X05713Y02687*
Y03366*
X05711Y03375*
X05706Y03383*
X05528Y0356*
X05521Y03565*
X05511Y03567*
X0551*
Y03605*
X05445*
Y03567*
X0542*
Y03567*
X05355*
Y03567*
X04838*
X04835Y03567*
Y03607*
X0477*
Y03567*
X04767Y03567*
X04745*
Y03569*
X0468*
Y03567*
X04166*
Y03603*
X04101*
Y03567*
X03502*
Y03605*
X03437*
Y03567*
X03412*
Y03567*
X03347*
Y03567*
X03202*
X03196Y0357*
X03188Y03571*
X03181Y0357*
X03175Y03567*
X03169Y03562*
X03164Y03557*
X03162Y0355*
X0247Y02858*
X02007*
X01998Y02856*
X0199Y02851*
X01866Y02727*
X01861Y02719*
X01859Y0271*
Y02662*
X01851*
Y02661*
X00669*
X0066Y0266*
X00652Y02654*
X00614Y02617*
X00585*
Y02552*
X00634*
Y02569*
X00679Y02613*
X01851*
Y02613*
X01883*
X01886Y02608*
X01885Y02602*
X0122*
X01211Y026*
X01203Y02595*
X00953Y02345*
X0025*
X00246Y0235*
X00237Y02357*
X00227Y02361*
X00216Y02362*
X00205Y02361*
X00195Y02357*
X00187Y0235*
X0018Y02342*
X00176Y02332*
X00174Y02321*
X00176Y0231*
X0018Y023*
X00187Y02291*
X00195Y02285*
X00205Y0228*
X00216Y02279*
X00227Y0228*
X00237Y02285*
X00246Y02291*
X0025Y02297*
X00962*
X00972Y02299*
X0098Y02304*
X0123Y02554*
X01909*
X01918Y02556*
X01926Y02561*
X01931Y02569*
X01933Y02578*
Y02586*
X01937Y0259*
X01941Y02588*
Y02575*
X01944*
Y0245*
X01764Y0227*
X01755Y02275*
X01744Y02278*
X01732Y02279*
X0172Y02278*
X01708Y02275*
X01698Y02269*
X01688Y02261*
X01681Y02252*
X01675Y02241*
X01672Y0223*
X0167Y02218*
X01672Y02206*
X01675Y02195*
X01681Y02184*
X01688Y02175*
X01698Y02167*
X01708Y02161*
X0172Y02158*
X01732Y02157*
X01744Y02158*
X01755Y02161*
X01766Y02167*
X01775Y02175*
X01783Y02184*
X01788Y02195*
X01792Y02206*
X01793Y02218*
X01792Y0223*
X01792Y0223*
X01985Y02423*
X0199Y02431*
X01992Y0244*
Y02575*
X02006*
Y02611*
X02015Y02613*
X02022Y02618*
X02116Y02712*
X02696*
X02706Y02713*
X02713Y02719*
X03058Y03063*
X03065Y03066*
X0307Y0307*
X03075Y03076*
X03078Y03083*
X03078Y0309*
X03078Y03097*
X03075Y03104*
X0307Y0311*
X03065Y03114*
X03058Y03117*
X03051Y03118*
X03043Y03117*
X03037Y03114*
X03031Y0311*
X03027Y03104*
X03024Y03097*
X02686Y0276*
X02106*
X02097Y02758*
X02089Y02753*
X02011Y02675*
X02006Y02677*
Y02699*
X01941*
Y0266*
X01928*
X01921Y02659*
X01916Y02662*
X01907*
Y027*
X02017Y0281*
X0248*
X02489Y02812*
X02497Y02817*
X03196Y03516*
X03202Y03519*
X03347*
Y03518*
X03412*
Y03519*
X03437*
Y03507*
X03175Y03245*
X0317Y03237*
X03168Y03228*
Y03205*
X03158Y032*
X03149Y03192*
X03141Y03183*
X03136Y03173*
X03132Y03161*
X03131Y03149*
X03132Y03137*
X03136Y03126*
X03141Y03115*
X03149Y03106*
X03158Y03098*
X03169Y03092*
X0318Y03089*
X03192Y03088*
X03204Y03089*
X03216Y03092*
X03226Y03098*
X03236Y03106*
X03243Y03115*
X03249Y03126*
X03253Y03137*
X03254Y03149*
X03253Y03161*
X03249Y03173*
X03243Y03183*
X03236Y03192*
X03226Y032*
X03216Y03205*
Y03218*
X03479Y03481*
X03502*
Y03519*
X0401*
Y03516*
X04075*
Y03519*
X04098*
X04101Y03518*
Y03479*
X04109*
Y03431*
X03884Y03206*
X03874Y03209*
X03862Y0321*
X0385Y03209*
X03838Y03206*
X03828Y032*
X03818Y03192*
X03811Y03183*
X03805Y03173*
X03802Y03161*
X038Y03149*
X03802Y03137*
X03805Y03126*
X03811Y03115*
X03818Y03106*
X03828Y03098*
X03838Y03092*
X0385Y03089*
X03862Y03088*
X03874Y03089*
X03885Y03092*
X03896Y03098*
X03905Y03106*
X03913Y03115*
X03918Y03126*
X03922Y03137*
X03923Y03149*
X03922Y03161*
X03919Y03172*
X0415Y03404*
X04156Y03412*
X04157Y03421*
Y03479*
X04166*
Y03518*
X04169Y03519*
X0477*
Y03483*
X04779*
Y03431*
X04554Y03206*
X04543Y03209*
X04531Y0321*
X04519Y03209*
X04508Y03206*
X04497Y032*
X04488Y03192*
X0448Y03183*
X04474Y03173*
X04471Y03161*
X0447Y03149*
X04471Y03137*
X04474Y03126*
X0448Y03115*
X04488Y03106*
X04497Y03098*
X04508Y03092*
X04519Y03089*
X04531Y03088*
X04543Y03089*
X04554Y03092*
X04565Y03098*
X04574Y03106*
X04582Y03115*
X04588Y03126*
X04591Y03137*
X04592Y03149*
X04591Y03161*
X04588Y03172*
X0482Y03404*
X04825Y03412*
X04827Y03421*
Y03483*
X04835*
Y03519*
X05355*
Y03518*
X0542*
Y03519*
X05445*
Y03481*
X05454*
Y03437*
X05223Y03206*
X05212Y03209*
X052Y0321*
X05188Y03209*
X05177Y03206*
X05166Y032*
X05157Y03192*
X05149Y03183*
X05144Y03173*
X0514Y03161*
X05139Y03149*
X0514Y03137*
X05144Y03126*
X05149Y03115*
X05157Y03106*
X05166Y03098*
X05177Y03092*
X05188Y03089*
X052Y03088*
X05212Y03089*
X05224Y03092*
X05234Y03098*
X05244Y03106*
X05251Y03115*
X05257Y03126*
X0526Y03137*
X05262Y03149*
X0526Y03161*
X05257Y03172*
X05495Y0341*
X055Y03417*
X05502Y03427*
Y03481*
X0551*
Y03503*
X05515Y03505*
X05664Y03356*
Y02677*
X05666Y02667*
X05671Y0266*
X05908Y02423*
X05915Y02418*
X05925Y02416*
X07657*
X07666Y02418*
X07674Y02423*
X08087Y02837*
X08093Y02845*
X08094Y02854*
Y04764*
X08099Y04765*
X08106Y04754*
X08122Y04736*
X0814Y04721*
X0816Y04708*
X08181Y04699*
X08204Y04694*
X08228Y04692*
X08251Y04694*
X08274Y04699*
X08296Y04708*
X08316Y04721*
X08334Y04736*
X08349Y04754*
X08362Y04774*
X08371Y04796*
X08376Y04819*
X08378Y04842*
X08376Y04865*
X08371Y04888*
X08362Y0491*
X08349Y0493*
X08334Y04948*
X08316Y04963*
X08296Y04976*
X08274Y04985*
X08251Y0499*
X08228Y04992*
X08204Y0499*
X08181Y04985*
X0816Y04976*
X0814Y04963*
X08122Y04948*
X08106Y0493*
X08099Y04919*
X08094Y0492*
Y05708*
X08093Y05717*
X08087Y05725*
X08078Y05735*
X08075Y05742*
X0807Y05748*
X08065Y05752*
X08058Y05755*
X08051Y05756*
G37*
G36*
X04291Y04992D02*
X04267Y0499D01*
X04244Y04985*
X04223Y04976*
X04203Y04963*
X04185Y04948*
X04169Y0493*
X04157Y0491*
X04148Y04888*
X04143Y04865*
X04141Y04842*
X04143Y04819*
X04148Y04796*
X04157Y04774*
X04169Y04754*
X04185Y04736*
X04203Y04721*
X04223Y04708*
X04244Y04699*
X04267Y04694*
X04291Y04692*
X04314Y04694*
X04337Y04699*
X04359Y04708*
X04379Y04721*
X04397Y04736*
X04412Y04754*
X04425Y04774*
X04434Y04796*
X04439Y04819*
X04441Y04842*
X04439Y04865*
X04434Y04888*
X04425Y0491*
X04412Y0493*
X04397Y04948*
X04379Y04963*
X04359Y04976*
X04337Y04985*
X04314Y0499*
X04291Y04992*
G37*
G36*
X00354D02*
X0033Y0499D01*
X00307Y04985*
X00286Y04976*
X00266Y04963*
X00248Y04948*
X00232Y0493*
X0022Y0491*
X00211Y04888*
X00206Y04865*
X00204Y04842*
X00206Y04819*
X00211Y04796*
X0022Y04774*
X00232Y04754*
X00248Y04736*
X00266Y04721*
X00286Y04708*
X00307Y04699*
X0033Y04694*
X00354Y04692*
X00377Y04694*
X004Y04699*
X00422Y04708*
X00442Y04721*
X0046Y04736*
X00475Y04754*
X00488Y04774*
X00497Y04796*
X00502Y04819*
X00504Y04842*
X00502Y04865*
X00497Y04888*
X00488Y0491*
X00475Y0493*
X0046Y04948*
X00442Y04963*
X00422Y04976*
X004Y04985*
X00377Y0499*
X00354Y04992*
G37*
G36*
X02125Y04136D02*
X02112Y04134D01*
X021Y04129*
X02089Y04121*
X02081Y0411*
X02076Y04098*
X02074Y04084*
X02076Y04071*
X02081Y04058*
X02089Y04048*
X021Y04039*
X02112Y04034*
X02125Y04033*
X02139Y04034*
X02151Y04039*
X02162Y04048*
X0217Y04058*
X02175Y04071*
X02177Y04084*
X02175Y04098*
X0217Y0411*
X02162Y04121*
X02151Y04129*
X02139Y04134*
X02125Y04136*
G37*
G36*
X01467Y04291D02*
X01406D01*
Y04255*
X01321Y0417*
X01316Y04162*
X01314Y04153*
Y0413*
X01312Y04129*
X01302Y04121*
X01293Y0411*
X01288Y04098*
X01286Y04084*
X01288Y04071*
X01293Y04058*
X01302Y04048*
X01312Y04039*
X01325Y04034*
X01338Y04033*
X01351Y04034*
X01364Y04039*
X01375Y04048*
X01383Y04058*
X01388Y04071*
X0139Y04084*
X01388Y04098*
X01383Y0411*
X01375Y04121*
X01364Y04129*
X01362Y0413*
Y04143*
X01431Y04212*
X01467*
Y04291*
G37*
G36*
X0535Y04096D02*
X05338Y04095D01*
X05326Y04092*
X05316Y04086*
X05307Y04078*
X05299Y04069*
X05293Y04058*
X0529Y04047*
X05289Y04035*
X0529Y04023*
X05293Y04011*
X05299Y04001*
X05307Y03992*
X05316Y03984*
X05326Y03978*
X05338Y03975*
X0535Y03974*
X05362Y03975*
X05373Y03978*
X05384Y03984*
X05393Y03992*
X05401Y04001*
X05407Y04011*
X0541Y04023*
X05411Y04035*
X0541Y04047*
X05407Y04058*
X05401Y04069*
X05393Y04078*
X05384Y04086*
X05373Y04092*
X05362Y04095*
X0535Y04096*
G37*
G36*
X04681D02*
X04669Y04095D01*
X04657Y04092*
X04647Y04086*
X04637Y04078*
X0463Y04069*
X04624Y04058*
X0462Y04047*
X04619Y04035*
X0462Y04023*
X04624Y04011*
X0463Y04001*
X04637Y03992*
X04647Y03984*
X04657Y03978*
X04669Y03975*
X04681Y03974*
X04693Y03975*
X04704Y03978*
X04715Y03984*
X04724Y03992*
X04732Y04001*
X04737Y04011*
X04741Y04023*
X04742Y04035*
X04741Y04047*
X04737Y04058*
X04732Y04069*
X04724Y04078*
X04715Y04086*
X04704Y04092*
X04693Y04095*
X04681Y04096*
G37*
G36*
X04011D02*
X03999Y04095D01*
X03988Y04092*
X03977Y04086*
X03968Y04078*
X0396Y04069*
X03955Y04058*
X03951Y04047*
X0395Y04035*
X03951Y04023*
X03955Y04011*
X0396Y04001*
X03968Y03992*
X03977Y03984*
X03988Y03978*
X03999Y03975*
X04011Y03974*
X04023Y03975*
X04035Y03978*
X04045Y03984*
X04055Y03992*
X04062Y04001*
X04068Y04011*
X04071Y04023*
X04073Y04035*
X04071Y04047*
X04068Y04058*
X04062Y04069*
X04055Y04078*
X04045Y04086*
X04035Y04092*
X04023Y04095*
X04011Y04096*
G37*
G36*
X03342D02*
X0333Y04095D01*
X03319Y04092*
X03308Y04086*
X03299Y04078*
X03291Y04069*
X03285Y04058*
X03282Y04047*
X03281Y04035*
X03282Y04023*
X03285Y04011*
X03291Y04001*
X03299Y03992*
X03308Y03984*
X03319Y03978*
X0333Y03975*
X03342Y03974*
X03354Y03975*
X03365Y03978*
X03376Y03984*
X03385Y03992*
X03393Y04001*
X03399Y04011*
X03402Y04023*
X03403Y04035*
X03402Y04047*
X03399Y04058*
X03393Y04069*
X03385Y04078*
X03376Y04086*
X03365Y04092*
X03354Y04095*
X03342Y04096*
G37*
G36*
X00468D02*
X00456Y04095D01*
X00445Y04092*
X00434Y04086*
X00425Y04078*
X00417Y04069*
X00411Y04058*
X00408Y04047*
X00407Y04035*
X00408Y04023*
X00411Y04011*
X00417Y04001*
X00425Y03992*
X00434Y03984*
X00445Y03978*
X00456Y03975*
X00468Y03974*
X0048Y03975*
X00491Y03978*
X00502Y03984*
X00511Y03992*
X00519Y04001*
X00525Y04011*
X00528Y04023*
X00529Y04035*
X00528Y04047*
X00525Y04058*
X00519Y04069*
X00511Y04078*
X00502Y04086*
X00491Y04092*
X0048Y04095*
X00468Y04096*
G37*
G36*
X01546Y04291D02*
X01485D01*
Y04212*
X01491*
Y04045*
X01493Y04036*
X01498Y04028*
X01525Y04001*
X01524Y03999*
X01523Y03986*
X01524Y03972*
X01525Y03971*
X0138Y03826*
X01375Y03818*
X01373Y03809*
Y03385*
X01375Y03376*
X0138Y03368*
X01528Y0322*
X01524Y03212*
X01523Y03198*
X01524Y03185*
X0153Y03173*
X01538Y03162*
X01548Y03154*
X01561Y03148*
X01574Y03147*
X01588Y03148*
X016Y03154*
X01611Y03162*
X01619Y03173*
X01624Y03185*
X01626Y03198*
X01624Y03212*
X01619Y03224*
X01611Y03235*
X016Y03243*
X01588Y03248*
X01574Y0325*
X01567Y03249*
X01421Y03395*
Y03799*
X01559Y03937*
X01561Y03936*
X01574Y03934*
X01588Y03936*
X016Y03941*
X01611Y03949*
X01619Y0396*
X01624Y03972*
X01626Y03986*
X01624Y03999*
X01619Y04012*
X01611Y04022*
X016Y0403*
X01588Y04036*
X01574Y04037*
X01561Y04036*
X01559Y04035*
X01539Y04055*
Y04212*
X01546*
Y04291*
G37*
G36*
X01732Y04071D02*
X01717Y04069D01*
X01703Y04065*
X0169Y04058*
X01679Y04049*
X01669Y04037*
X01662Y04024*
X01658Y0401*
X01657Y03996*
X01658Y03981*
X01662Y03967*
X01669Y03954*
X01679Y03942*
X0169Y03933*
X01703Y03926*
X01717Y03922*
X01732Y0392*
X01746Y03922*
X01761Y03926*
X01774Y03933*
X01785Y03942*
X01794Y03954*
X01801Y03967*
X01806Y03981*
X01807Y03996*
X01806Y0401*
X01801Y04024*
X01794Y04037*
X01785Y04049*
X01774Y04058*
X01761Y04065*
X01746Y04069*
X01732Y04071*
G37*
G36*
X05649Y04122D02*
X05642Y04121D01*
X05635Y04118*
X05629Y04114*
X05625Y04108*
X05622Y04101*
X05442Y03921*
X03799*
X03789Y03919*
X03782Y03914*
X03769Y03902*
X02381*
Y03908*
X02303*
Y03902*
X02008*
X01938Y03971*
X01939Y03972*
X01941Y03986*
X01939Y03999*
X01934Y04012*
X01926Y04022*
X01915Y0403*
X01903Y04036*
X01889Y04037*
X01876Y04036*
X01863Y0403*
X01853Y04022*
X01845Y04012*
X01839Y03999*
X01838Y03986*
X01839Y03972*
X01845Y0396*
X01853Y03949*
X01863Y03941*
X01876Y03936*
X01889Y03934*
X01903Y03936*
X01904Y03937*
X01981Y0386*
X01988Y03855*
X01998Y03853*
X02303*
Y03847*
X02381*
Y03853*
X03779*
X03788Y03855*
X03796Y0386*
X03809Y03873*
X05452*
X05461Y03875*
X05469Y0388*
X05656Y04067*
X05663Y0407*
X05669Y04074*
X05673Y0408*
X05676Y04087*
X05677Y04094*
X05676Y04101*
X05673Y04108*
X05669Y04114*
X05663Y04118*
X05656Y04121*
X05649Y04122*
G37*
G36*
X0238Y03827D02*
X02347D01*
Y03804*
X0238*
Y03827*
G37*
G36*
X02337D02*
X02304D01*
Y03804*
X02337*
Y03827*
G37*
G36*
X01732Y0388D02*
X017Y03878D01*
X01668Y03873*
X01637Y03864*
X01607Y03851*
X01579Y03836*
X01552Y03817*
X01528Y03796*
X01507Y03771*
X01488Y03745*
X01472Y03717*
X0146Y03687*
X01451Y03656*
X01446Y03624*
X01444Y03592*
X01446Y0356*
X01451Y03528*
X0146Y03497*
X01472Y03467*
X01488Y03439*
X01507Y03413*
X01528Y03388*
X01552Y03367*
X01579Y03348*
X01607Y03333*
X01637Y0332*
X01668Y03311*
X017Y03306*
X01732Y03304*
X01764Y03306*
X01796Y03311*
X01827Y0332*
X01857Y03333*
X01885Y03348*
X01911Y03367*
X01935Y03388*
X01957Y03413*
X01976Y03439*
X01991Y03467*
X02003Y03497*
X02012Y03528*
X02018Y0356*
X0202Y03592*
X02018Y03624*
X02012Y03656*
X02003Y03687*
X01991Y03717*
X01976Y03745*
X01957Y03771*
X01935Y03796*
X01911Y03817*
X01885Y03836*
X01857Y03851*
X01827Y03864*
X01796Y03873*
X01764Y03878*
X01732Y0388*
G37*
G36*
X05688Y04004D02*
X05681Y04003D01*
X05675Y04*
X05669Y03996*
X05664Y0399*
X05662Y03983*
X05661Y03976*
X05662Y03969*
X05664Y03962*
Y03927*
X0556Y03823*
X02913*
X02904Y03821*
X02896Y03816*
X02338Y03258*
X02303*
Y03252*
X02165*
X02156Y0325*
X02148Y03245*
X02125Y03222*
X01935*
X01934Y03224*
X01926Y03235*
X01915Y03243*
X01903Y03248*
X01889Y0325*
X01887Y0325*
X01885Y03254*
X02356Y03725*
X02361Y03732*
X02362Y0374*
Y0377*
X0238*
Y03794*
X02342*
X02304*
Y0377*
X02322*
Y03748*
X01815Y03241*
X01811Y03235*
X0181Y03227*
Y03207*
X01805Y03206*
X01801Y03217*
X01794Y0323*
X01785Y03242*
X01774Y03251*
X01761Y03258*
X01746Y03262*
X01732Y03264*
X01717Y03262*
X01703Y03258*
X0169Y03251*
X01679Y03242*
X01669Y0323*
X01662Y03217*
X01658Y03203*
X01657Y03188*
X01658Y03174*
X01662Y0316*
X01669Y03147*
X01679Y03135*
X0169Y03126*
X01703Y03119*
X01717Y03115*
X01732Y03113*
X01746Y03115*
X01761Y03119*
X01774Y03126*
X01785Y03135*
X01794Y03147*
X01801Y0316*
X01805Y03171*
X0181Y0317*
Y0315*
X01811Y03142*
X01815Y03136*
X01865Y03086*
X01872Y03081*
X01879Y0308*
X0208*
X02082Y03075*
X0209Y03065*
X02101Y03057*
X02113Y03052*
X0212Y03051*
Y031*
Y03149*
X02113Y03148*
X02101Y03143*
X0209Y03135*
X02082Y03125*
X0208Y0312*
X01888*
X01853Y03154*
X01853Y03155*
X01859Y03157*
X01863Y03154*
X01876Y03148*
X01889Y03147*
X01903Y03148*
X01915Y03154*
X01926Y03162*
X01934Y03173*
X01935Y03174*
X02135*
X02145Y03176*
X02152Y03181*
X02175Y03204*
X02303*
Y03197*
X02381*
Y03233*
X02923Y03775*
X0557*
X0558Y03776*
X05587Y03782*
X05706Y039*
X05711Y03908*
X05713Y03917*
Y03962*
X05715Y03969*
X05716Y03976*
X05715Y03983*
X05713Y0399*
X05708Y03996*
X05702Y04*
X05696Y04003*
X05688Y04004*
G37*
G36*
X02696Y0321D02*
X02686Y03209D01*
X02676Y03205*
X02667Y03198*
X02659Y03191*
X02342*
X02331Y03189*
X02321Y03185*
X02313Y03179*
Y03179*
X02312Y03178*
X02304*
Y03171*
X02276Y03142*
X02152*
X0215Y03143*
X02138Y03148*
X0213Y03149*
Y031*
Y03051*
X02138Y03052*
X0215Y03057*
X02152Y03058*
X02293*
X02293*
X02304Y0306*
X02314Y03064*
X02322Y0307*
X02359Y03107*
X02677*
X02677*
X02687Y03109*
X02698Y03113*
X02706Y0312*
X02726Y03139*
X02732Y03148*
X02737Y03158*
X02738Y03169*
X02737Y0318*
X02732Y0319*
X02726Y03198*
X02717Y03205*
X02707Y03209*
X02696Y0321*
G37*
G36*
X0535Y0321D02*
X05338Y03209D01*
X05326Y03206*
X05316Y032*
X05307Y03192*
X05299Y03183*
X05293Y03173*
X0529Y03161*
X05289Y03149*
X0529Y03137*
X05293Y03126*
X05299Y03115*
X05307Y03106*
X05316Y03098*
X05326Y03092*
X05338Y03089*
X0535Y03088*
X05362Y03089*
X05373Y03092*
X05384Y03098*
X05393Y03106*
X05401Y03115*
X05407Y03126*
X0541Y03137*
X05411Y03149*
X0541Y03161*
X05407Y03173*
X05401Y03183*
X05393Y03192*
X05384Y032*
X05373Y03206*
X05362Y03209*
X0535Y0321*
G37*
G36*
X04681D02*
X04669Y03209D01*
X04657Y03206*
X04647Y032*
X04637Y03192*
X0463Y03183*
X04624Y03173*
X0462Y03161*
X04619Y03149*
X0462Y03137*
X04624Y03126*
X0463Y03115*
X04637Y03106*
X04647Y03098*
X04657Y03092*
X04669Y03089*
X04681Y03088*
X04693Y03089*
X04704Y03092*
X04715Y03098*
X04724Y03106*
X04732Y03115*
X04737Y03126*
X04741Y03137*
X04742Y03149*
X04741Y03161*
X04737Y03173*
X04732Y03183*
X04724Y03192*
X04715Y032*
X04704Y03206*
X04693Y03209*
X04681Y0321*
G37*
G36*
X04011D02*
X03999Y03209D01*
X03988Y03206*
X03977Y032*
X03968Y03192*
X0396Y03183*
X03955Y03173*
X03951Y03161*
X0395Y03149*
X03951Y03137*
X03955Y03126*
X0396Y03115*
X03968Y03106*
X03977Y03098*
X03988Y03092*
X03999Y03089*
X04011Y03088*
X04023Y03089*
X04035Y03092*
X04045Y03098*
X04055Y03106*
X04062Y03115*
X04068Y03126*
X04071Y03137*
X04073Y03149*
X04071Y03161*
X04068Y03173*
X04062Y03183*
X04055Y03192*
X04045Y032*
X04035Y03206*
X04023Y03209*
X04011Y0321*
G37*
G36*
X03342D02*
X0333Y03209D01*
X03319Y03206*
X03308Y032*
X03299Y03192*
X03291Y03183*
X03285Y03173*
X03282Y03161*
X03281Y03149*
X03282Y03137*
X03285Y03126*
X03291Y03115*
X03299Y03106*
X03308Y03098*
X03319Y03092*
X0333Y03089*
X03342Y03088*
X03354Y03089*
X03365Y03092*
X03376Y03098*
X03385Y03106*
X03393Y03115*
X03399Y03126*
X03402Y03137*
X03403Y03149*
X03402Y03161*
X03399Y03173*
X03393Y03183*
X03385Y03192*
X03376Y032*
X03365Y03206*
X03354Y03209*
X03342Y0321*
G37*
G36*
X01338Y03152D02*
X01325Y0315D01*
X01312Y03145*
X01302Y03136*
X01293Y03126*
X01288Y03113*
X01286Y031*
X01288Y03087*
X01293Y03074*
X01302Y03063*
X01312Y03055*
X01325Y0305*
X01338Y03048*
X01351Y0305*
X01364Y03055*
X01375Y03063*
X01383Y03074*
X01388Y03087*
X0139Y031*
X01388Y03113*
X01383Y03126*
X01375Y03136*
X01364Y03145*
X01351Y0315*
X01338Y03152*
G37*
G36*
X00203Y03132D02*
X00138D01*
Y03125*
X00138Y03125*
X00081Y03068*
X00076Y0306*
X00074Y03051*
Y02519*
X00076Y0251*
X00081Y02502*
X00178Y02405*
X0018Y024*
X00187Y02391*
X00195Y02385*
X00205Y0238*
X00216Y02379*
X00227Y0238*
X00237Y02385*
X00246Y02391*
X00252Y024*
X00256Y0241*
X00258Y02421*
X00256Y02432*
X00252Y02442*
X00246Y0245*
X00237Y02457*
X00227Y02461*
X00216Y02462*
X00205Y02461*
X00195Y02457*
X00195Y02456*
X00122Y02529*
Y03041*
X00134Y03052*
X00138Y0305*
Y03008*
X00203*
Y03058*
X00145*
X00143Y03062*
X00164Y03083*
X00203*
Y03132*
G37*
G36*
X00257Y02762D02*
X00175D01*
Y02679*
X00257*
Y02762*
G37*
G36*
X00216Y02662D02*
X00205Y02661D01*
X00195Y02657*
X00187Y0265*
X0018Y02642*
X00176Y02632*
X00174Y02621*
X00176Y0261*
X0018Y026*
X00187Y02591*
X00195Y02585*
X00205Y0258*
X00216Y02579*
X00227Y0258*
X00237Y02585*
X00246Y02591*
X00252Y026*
X00256Y0261*
X00258Y02621*
X00256Y02632*
X00252Y02642*
X00246Y0265*
X00237Y02657*
X00227Y02661*
X00216Y02662*
G37*
G36*
X00672Y02526D02*
X00623D01*
Y02461*
X00672*
Y02526*
G37*
G36*
X00216Y02562D02*
X00205Y02561D01*
X00195Y02557*
X00187Y0255*
X0018Y02542*
X00176Y02532*
X00174Y02521*
X00176Y0251*
X0018Y025*
X00187Y02491*
X00195Y02485*
X00205Y0248*
X00216Y02479*
X00227Y0248*
X00237Y02485*
X00246Y02491*
X0025Y02497*
X00535*
X00548Y02484*
Y02461*
X00597*
Y02526*
X00574*
X00562Y02538*
X00554Y02543*
X00545Y02545*
X0025*
X00246Y0255*
X00237Y02557*
X00227Y02561*
X00216Y02562*
G37*
G36*
X08149Y04515D02*
X08142Y04515D01*
X08135Y04512*
X08129Y04507*
X08125Y04502*
X08122Y04495*
X08121Y04488*
X08122Y0448*
X08125Y04474*
X08129Y04468*
X08135Y04464*
X08142Y04461*
X08149Y0446*
X08156Y04461*
X0816Y04462*
X08164Y04458*
Y02824*
X07706Y02366*
X05856*
X05568Y02654*
X0556Y0266*
X05551Y02661*
X0551*
Y02699*
X05445*
Y02661*
X0542*
Y02662*
X05355*
Y02661*
X04838*
X04835Y02662*
Y02701*
X0477*
Y02662*
X04767Y02661*
X04745*
Y02664*
X0468*
Y02661*
X04172*
Y02699*
X04107*
Y02661*
X04081*
Y02662*
X04016*
Y02661*
X03557*
X0355Y02664*
X03543Y02665*
X03536Y02664*
X03529Y02661*
X03502*
Y02699*
X03437*
Y02661*
X03412*
Y02662*
X03347*
Y02661*
X02755*
X02746Y0266*
X02738Y02654*
X02496Y02412*
X02491Y02404*
X02489Y02395*
Y02229*
X02481*
Y02228*
X02203*
Y02266*
X02138*
Y02228*
X02113*
Y02229*
X02048*
Y02206*
X01952Y0211*
X01545*
X01432Y02223*
X01424Y02228*
X01415Y0223*
X01292*
Y02268*
X01227*
Y0223*
X01201*
Y02231*
X01136*
Y02182*
X01201*
Y02182*
X01227*
Y0217*
X01085Y02028*
X0108Y02021*
X01078Y02011*
Y01978*
X00981Y01881*
X00976Y01881*
X00964Y01877*
X00954Y01871*
X00944Y01864*
X00937Y01854*
X00931Y01844*
X00928Y01832*
X00926Y0182*
X00928Y01808*
X00931Y01797*
X00937Y01786*
X00944Y01777*
X00954Y01769*
X00964Y01764*
X00976Y0176*
X00988Y01759*
X01Y0176*
X01011Y01764*
X01022Y01769*
X01031Y01777*
X01039Y01786*
X01044Y01797*
X01048Y01808*
X01049Y0182*
X01048Y01832*
X01044Y01844*
X01039Y01854*
X01031Y01863*
X01119Y01951*
X01124Y01959*
X01126Y01968*
Y02001*
X01269Y02144*
X01292*
Y02182*
X01405*
X01518Y02069*
X01526Y02064*
X01535Y02062*
X01962*
X01971Y02064*
X01979Y02069*
X0209Y0218*
X02113*
Y0218*
X02126*
X02128Y02176*
X01755Y01802*
X01744Y01806*
X01732Y01807*
X0172Y01806*
X01708Y01802*
X01698Y01797*
X01688Y01789*
X01681Y0178*
X01675Y01769*
X01672Y01758*
X0167Y01746*
X01672Y01734*
X01675Y01722*
X01681Y01711*
X01688Y01702*
X01698Y01695*
X01708Y01689*
X0172Y01685*
X01732Y01684*
X01744Y01685*
X01755Y01689*
X01766Y01695*
X01775Y01702*
X01783Y01711*
X01788Y01722*
X01792Y01734*
X01793Y01746*
X01792Y01758*
X01789Y01768*
X02163Y02142*
X02203*
Y0218*
X02481*
Y0218*
X02546*
Y02229*
X02537*
Y02385*
X02765Y02613*
X03347*
Y02613*
X03359*
X03361Y02608*
X03175Y02422*
X0317Y02414*
X03168Y02405*
Y0232*
X03158Y02314*
X03149Y02307*
X03141Y02297*
X03136Y02287*
X03132Y02275*
X03131Y02263*
X03132Y02251*
X03136Y0224*
X03141Y02229*
X03149Y0222*
X03158Y02212*
X03169Y02207*
X0318Y02203*
X03192Y02202*
X03204Y02203*
X03216Y02207*
X03226Y02212*
X03236Y0222*
X03243Y02229*
X03249Y0224*
X03253Y02251*
X03254Y02263*
X03253Y02275*
X03249Y02287*
X03243Y02297*
X03236Y02307*
X03226Y02314*
X03216Y0232*
Y02395*
X03397Y02576*
X03437*
Y02575*
X03502*
Y02613*
X03529*
X03536Y0261*
X03543Y02609*
X0355Y0261*
X03557Y02613*
X04016*
Y02613*
X04029*
X04031Y02608*
X03845Y02422*
X03839Y02414*
X03838Y02405*
Y0232*
X03828Y02314*
X03818Y02307*
X03811Y02297*
X03805Y02287*
X03802Y02275*
X038Y02263*
X03802Y02251*
X03805Y0224*
X03811Y02229*
X03818Y0222*
X03828Y02212*
X03838Y02207*
X0385Y02203*
X03862Y02202*
X03874Y02203*
X03885Y02207*
X03896Y02212*
X03905Y0222*
X03913Y02229*
X03918Y0224*
X03922Y02251*
X03923Y02263*
X03922Y02275*
X03918Y02287*
X03913Y02297*
X03905Y02307*
X03896Y02314*
X03886Y0232*
Y02395*
X04067Y02576*
X04107*
Y02575*
X04172*
Y02613*
X0462*
X04622Y02609*
X04514Y02501*
X04509Y02493*
X04507Y02484*
Y0232*
X04497Y02314*
X04488Y02307*
X0448Y02297*
X04474Y02287*
X04471Y02275*
X0447Y02263*
X04471Y02251*
X04474Y0224*
X0448Y02229*
X04488Y0222*
X04497Y02212*
X04508Y02207*
X04519Y02203*
X04531Y02202*
X04543Y02203*
X04554Y02207*
X04565Y02212*
X04574Y0222*
X04582Y02229*
X04588Y0224*
X04591Y02251*
X04592Y02263*
X04591Y02275*
X04588Y02287*
X04582Y02297*
X04574Y02307*
X04565Y02314*
X04555Y0232*
Y02474*
X04659Y02578*
X0477*
Y02577*
X04835*
Y02613*
X05329*
X0533Y02609*
X05183Y02461*
X05178Y02454*
X05176Y02444*
Y0232*
X05166Y02314*
X05157Y02307*
X05149Y02297*
X05144Y02287*
X0514Y02275*
X05139Y02263*
X0514Y02251*
X05144Y0224*
X05149Y02229*
X05157Y0222*
X05166Y02212*
X05177Y02207*
X05188Y02203*
X052Y02202*
X05212Y02203*
X05224Y02207*
X05234Y02212*
X05244Y0222*
X05251Y02229*
X05257Y0224*
X0526Y02251*
X05262Y02263*
X0526Y02275*
X05257Y02287*
X05251Y02297*
X05244Y02307*
X05234Y02314*
X05224Y0232*
Y02434*
X05366Y02576*
X05445*
Y02575*
X0551*
Y02613*
X05541*
X05829Y02325*
X05837Y0232*
X05846Y02318*
X07716*
X07725Y0232*
X07733Y02325*
X08206Y02797*
X08211Y02805*
X08213Y02814*
Y04468*
X08211Y04477*
X08206Y04485*
X08186Y04505*
X08178Y0451*
X08169Y04512*
X08164Y04511*
X08163Y04512*
X08156Y04515*
X08149Y04515*
G37*
G36*
X01732Y02429D02*
X0172Y02428D01*
X01708Y02424*
X01698Y02419*
X01688Y02411*
X01681Y02402*
X01675Y02391*
X01672Y0238*
X0167Y02368*
X01672Y02356*
X01675Y02344*
X01681Y02334*
X01688Y02324*
X01698Y02317*
X01708Y02311*
X0172Y02307*
X01732Y02306*
X01744Y02307*
X01755Y02311*
X01766Y02317*
X01775Y02324*
X01783Y02334*
X01788Y02344*
X01792Y02356*
X01793Y02368*
X01792Y0238*
X01788Y02391*
X01783Y02402*
X01775Y02411*
X01766Y02419*
X01755Y02424*
X01744Y02428*
X01732Y02429*
G37*
G36*
X02636Y02266D02*
X02571D01*
Y02217*
X02636*
Y02266*
G37*
G36*
X0535Y02325D02*
X05338Y02323D01*
X05326Y0232*
X05316Y02314*
X05307Y02307*
X05299Y02297*
X05293Y02287*
X0529Y02275*
X05289Y02263*
X0529Y02251*
X05293Y0224*
X05299Y02229*
X05307Y0222*
X05316Y02212*
X05326Y02207*
X05338Y02203*
X0535Y02202*
X05362Y02203*
X05373Y02207*
X05384Y02212*
X05393Y0222*
X05401Y02229*
X05407Y0224*
X0541Y02251*
X05411Y02263*
X0541Y02275*
X05407Y02287*
X05401Y02297*
X05393Y02307*
X05384Y02314*
X05373Y0232*
X05362Y02323*
X0535Y02325*
G37*
G36*
X04681D02*
X04669Y02323D01*
X04657Y0232*
X04647Y02314*
X04637Y02307*
X0463Y02297*
X04624Y02287*
X0462Y02275*
X04619Y02263*
X0462Y02251*
X04624Y0224*
X0463Y02229*
X04637Y0222*
X04647Y02212*
X04657Y02207*
X04669Y02203*
X04681Y02202*
X04693Y02203*
X04704Y02207*
X04715Y02212*
X04724Y0222*
X04732Y02229*
X04737Y0224*
X04741Y02251*
X04742Y02263*
X04741Y02275*
X04737Y02287*
X04732Y02297*
X04724Y02307*
X04715Y02314*
X04704Y0232*
X04693Y02323*
X04681Y02325*
G37*
G36*
X04011D02*
X03999Y02323D01*
X03988Y0232*
X03977Y02314*
X03968Y02307*
X0396Y02297*
X03955Y02287*
X03951Y02275*
X0395Y02263*
X03951Y02251*
X03955Y0224*
X0396Y02229*
X03968Y0222*
X03977Y02212*
X03988Y02207*
X03999Y02203*
X04011Y02202*
X04023Y02203*
X04035Y02207*
X04045Y02212*
X04055Y0222*
X04062Y02229*
X04068Y0224*
X04071Y02251*
X04073Y02263*
X04071Y02275*
X04068Y02287*
X04062Y02297*
X04055Y02307*
X04045Y02314*
X04035Y0232*
X04023Y02323*
X04011Y02325*
G37*
G36*
X03342D02*
X0333Y02323D01*
X03319Y0232*
X03308Y02314*
X03299Y02307*
X03291Y02297*
X03285Y02287*
X03282Y02275*
X03281Y02263*
X03282Y02251*
X03285Y0224*
X03291Y02229*
X03299Y0222*
X03308Y02212*
X03319Y02207*
X0333Y02203*
X03342Y02202*
X03354Y02203*
X03365Y02207*
X03376Y02212*
X03385Y0222*
X03393Y02229*
X03399Y0224*
X03402Y02251*
X03403Y02263*
X03402Y02275*
X03399Y02287*
X03393Y02297*
X03385Y02307*
X03376Y02314*
X03365Y0232*
X03354Y02323*
X03342Y02325*
G37*
G36*
X00216Y02262D02*
X00205Y02261D01*
X00195Y02257*
X00187Y0225*
X0018Y02242*
X00176Y02232*
X00174Y02221*
X00176Y0221*
X0018Y022*
X00187Y02191*
X00195Y02185*
X00205Y0218*
X00216Y02179*
X00227Y0218*
X00237Y02185*
X00246Y02191*
X00252Y022*
X00256Y0221*
X00258Y02221*
X00256Y02232*
X00252Y02242*
X00246Y0225*
X00237Y02257*
X00227Y02261*
X00216Y02262*
G37*
G36*
Y02162D02*
X00205Y02161D01*
X00195Y02157*
X00187Y0215*
X0018Y02142*
X00176Y02132*
X00174Y02121*
X00176Y0211*
X0018Y021*
X00187Y02091*
X00195Y02085*
X00205Y0208*
X00216Y02079*
X00227Y0208*
X00237Y02085*
X00246Y02091*
X00252Y021*
X00256Y0211*
X00258Y02121*
X00256Y02132*
X00252Y02142*
X00246Y0215*
X00237Y02157*
X00227Y02161*
X00216Y02162*
G37*
G36*
Y02062D02*
X00205Y02061D01*
X00195Y02057*
X00187Y0205*
X0018Y02042*
X00176Y02032*
X00174Y02021*
X00176Y0201*
X0018Y02*
X00187Y01991*
X00195Y01985*
X00205Y0198*
X00216Y01979*
X00227Y0198*
X00237Y01985*
X00246Y01991*
X00252Y02*
X00256Y0201*
X00258Y02021*
X00256Y02032*
X00252Y02042*
X00246Y0205*
X00237Y02057*
X00227Y02061*
X00216Y02062*
G37*
G36*
X01732Y01956D02*
X0172Y01955D01*
X01708Y01952*
X01698Y01946*
X01688Y01939*
X01681Y01929*
X01675Y01919*
X01672Y01907*
X0167Y01895*
X01672Y01883*
X01675Y01872*
X01681Y01861*
X01688Y01852*
X01698Y01844*
X01708Y01839*
X0172Y01835*
X01732Y01834*
X01744Y01835*
X01755Y01839*
X01766Y01844*
X01775Y01852*
X01783Y01861*
X01788Y01872*
X01792Y01883*
X01793Y01895*
X01792Y01907*
X01788Y01919*
X01783Y01929*
X01775Y01939*
X01766Y01946*
X01755Y01952*
X01744Y01955*
X01732Y01956*
G37*
G36*
X02476Y01882D02*
X02464Y01881D01*
X02452Y01877*
X02442Y01871*
X02433Y01864*
X02425Y01854*
X02419Y01844*
X02416Y01832*
X02415Y0182*
X02416Y01808*
X02419Y01797*
X02425Y01786*
X02433Y01777*
X02442Y01769*
X02452Y01764*
X02464Y0176*
X02476Y01759*
X02488Y0176*
X02499Y01764*
X0251Y01769*
X02519Y01777*
X02527Y01786*
X02533Y01797*
X02536Y01808*
X02537Y0182*
X02536Y01832*
X02533Y01844*
X02527Y01854*
X02519Y01864*
X0251Y01871*
X02499Y01877*
X02488Y01881*
X02476Y01882*
G37*
G36*
X02636Y02191D02*
X02571D01*
Y02168*
X02309Y01906*
X02304Y01898*
X02302Y01889*
Y01877*
X02292Y01871*
X02283Y01864*
X02275Y01854*
X0227Y01844*
X02266Y01832*
X02265Y0182*
X02266Y01808*
X0227Y01797*
X02275Y01786*
X02283Y01777*
X02292Y01769*
X02303Y01764*
X02314Y0176*
X02326Y01759*
X02338Y0176*
X0235Y01764*
X0236Y01769*
X0237Y01777*
X02377Y01786*
X02383Y01797*
X02386Y01808*
X02388Y0182*
X02386Y01832*
X02383Y01844*
X02377Y01854*
X0237Y01864*
X0236Y01871*
X02353Y01875*
X02352Y01881*
X02613Y02142*
X02636*
Y02191*
G37*
G36*
X01137Y01882D02*
X01125Y01881D01*
X01114Y01877*
X01103Y01871*
X01094Y01864*
X01086Y01854*
X01081Y01844*
X01077Y01832*
X01076Y0182*
X01077Y01808*
X01081Y01797*
X01086Y01786*
X01094Y01777*
X01103Y01769*
X01114Y01764*
X01125Y0176*
X01137Y01759*
X01149Y0176*
X01161Y01764*
X01171Y01769*
X01181Y01777*
X01188Y01786*
X01194Y01797*
X01197Y01808*
X01199Y0182*
X01197Y01832*
X01194Y01844*
X01188Y01854*
X01181Y01864*
X01171Y01871*
X01161Y01877*
X01149Y01881*
X01137Y01882*
G37*
G36*
X01732Y01484D02*
X0172Y01483D01*
X01708Y01479*
X01698Y01474*
X01688Y01466*
X01681Y01457*
X01675Y01446*
X01672Y01435*
X0167Y01423*
X01672Y01411*
X01675Y01399*
X01681Y01389*
X01688Y01379*
X01698Y01372*
X01708Y01366*
X0172Y01363*
X01732Y01361*
X01744Y01363*
X01755Y01366*
X01766Y01372*
X01775Y01379*
X01783Y01389*
X01788Y01399*
X01792Y01411*
X01793Y01423*
X01792Y01435*
X01788Y01446*
X01783Y01457*
X01775Y01466*
X01766Y01474*
X01755Y01479*
X01744Y01483*
X01732Y01484*
G37*
G36*
X0535Y01439D02*
X05338Y01438D01*
X05326Y01434*
X05316Y01428*
X05307Y01421*
X05299Y01412*
X05293Y01401*
X0529Y01389*
X05289Y01377*
X0529Y01365*
X05293Y01354*
X05299Y01343*
X05307Y01334*
X05316Y01326*
X05326Y01321*
X05338Y01317*
X0535Y01316*
X05362Y01317*
X05373Y01321*
X05384Y01326*
X05393Y01334*
X05401Y01343*
X05407Y01354*
X0541Y01365*
X05411Y01377*
X0541Y01389*
X05407Y01401*
X05401Y01412*
X05393Y01421*
X05384Y01428*
X05373Y01434*
X05362Y01438*
X0535Y01439*
G37*
G36*
X08307Y04669D02*
X08188D01*
X08179Y04667*
X08171Y04662*
X08142Y04633*
X08135Y0463*
X08129Y04625*
X08125Y0462*
X08122Y04613*
X08121Y04606*
X08122Y04599*
X08125Y04592*
X08129Y04586*
X08135Y04582*
X08142Y04579*
X08149Y04578*
X08156Y04579*
X08163Y04582*
X08169Y04586*
X08173Y04592*
X08176Y04599*
X08198Y04621*
X08297*
X08322Y04596*
Y02529*
X06702Y00909*
X03759*
X0375Y00908*
X03747Y00905*
X03543*
X03535Y00904*
X03529Y009*
X03442Y00813*
X03437Y00806*
X03436Y00798*
Y00785*
X03431Y00782*
X03427Y00785*
X03417Y00789*
X03407Y00791*
X03396Y00789*
X03386Y00785*
X03377Y00779*
X0337Y0077*
X03366Y0076*
X03365Y00749*
X03366Y00738*
X0337Y00728*
X03374Y00723*
X03372Y00718*
X03341*
X03339Y00723*
X03343Y00728*
X03347Y00738*
X03348Y00749*
X03347Y0076*
X03343Y0077*
X03336Y00779*
X03327Y00785*
X03327Y00786*
Y01133*
X03537Y01344*
X03542Y0135*
X03543Y01358*
Y01747*
X04101*
Y01737*
X03845Y01481*
X03839Y01473*
X03838Y01464*
Y01434*
X03828Y01428*
X03818Y01421*
X03811Y01412*
X03805Y01401*
X03802Y01389*
X038Y01377*
X03802Y01365*
X03805Y01354*
X03811Y01343*
X03818Y01334*
X03828Y01326*
X03838Y01321*
X0385Y01317*
X03862Y01316*
X03874Y01317*
X03885Y01321*
X03896Y01326*
X03905Y01334*
X03913Y01343*
X03918Y01354*
X03922Y01365*
X03923Y01377*
X03922Y01389*
X03918Y01401*
X03913Y01412*
X03905Y01421*
X03896Y01428*
X03886Y01434*
Y01454*
X04143Y01711*
X04166*
Y01747*
X04738*
X0474Y01742*
X04514Y01517*
X04509Y01509*
X04507Y015*
Y01434*
X04497Y01428*
X04488Y01421*
X0448Y01412*
X04474Y01401*
X04471Y01389*
X0447Y01377*
X04471Y01365*
X04474Y01354*
X0448Y01343*
X04488Y01334*
X04497Y01326*
X04508Y01321*
X04519Y01317*
X04531Y01316*
X04543Y01317*
X04554Y01321*
X04565Y01326*
X04574Y01334*
X04582Y01343*
X04588Y01354*
X04591Y01365*
X04592Y01377*
X04591Y01389*
X04588Y01401*
X04582Y01412*
X04574Y01421*
X04565Y01428*
X04555Y01434*
Y0149*
X04777Y01711*
X04835*
Y01747*
X05355*
Y01747*
X05407*
X05409Y01742*
X05183Y01517*
X05178Y01509*
X05176Y015*
Y01434*
X05166Y01428*
X05157Y01421*
X05149Y01412*
X05144Y01401*
X0514Y01389*
X05139Y01377*
X0514Y01365*
X05144Y01354*
X05149Y01343*
X05157Y01334*
X05166Y01326*
X05177Y01321*
X05188Y01317*
X052Y01316*
X05212Y01317*
X05224Y01321*
X05234Y01326*
X05244Y01334*
X05251Y01343*
X05257Y01354*
X0526Y01365*
X05262Y01377*
X0526Y01389*
X05257Y01401*
X05251Y01412*
X05244Y01421*
X05234Y01428*
X05224Y01434*
Y0149*
X05441Y01707*
X05445Y01709*
X0551*
Y01747*
X07283*
X07292Y01749*
X073Y01754*
X08284Y02738*
X08289Y02746*
X08291Y02755*
Y04547*
X08289Y04556*
X08284Y04564*
X08274Y04574*
X08272Y0458*
X08267Y04586*
X08261Y04591*
X08255Y04593*
X08248Y04594*
X0824Y04593*
X08234Y04591*
X08228Y04586*
X08223Y0458*
X08221Y04574*
X0822Y04566*
X08221Y04559*
X08223Y04553*
X08228Y04547*
X08234Y04542*
X0824Y0454*
X08243Y04537*
Y02765*
X07273Y01795*
X0551*
Y01833*
X05445*
Y01795*
X0542*
Y01796*
X05355*
Y01795*
X04838*
X04835Y01796*
Y01835*
X0477*
Y01796*
X04767Y01795*
X04745*
Y01798*
X0468*
Y01795*
X04169*
X04166Y01796*
Y01835*
X04101*
Y01796*
X04098Y01795*
X04075*
Y01798*
X0401*
Y01795*
X03502*
Y01833*
X03437*
Y01795*
X03412*
Y01796*
X03347*
Y01795*
X02992*
X02982Y01793*
X02975Y01788*
X02391Y01205*
X02203*
Y01205*
X02138*
Y01156*
X02203*
Y01157*
X02401*
X0241Y01158*
X02418Y01164*
X03002Y01747*
X03347*
Y01747*
X03412*
Y01747*
X03437*
Y01735*
X03175Y01473*
X0317Y01465*
X03168Y01456*
Y01434*
X03158Y01428*
X03149Y01421*
X03141Y01412*
X03136Y01401*
X03132Y01389*
X03131Y01377*
X03132Y01365*
X03136Y01354*
X03141Y01343*
X03149Y01334*
X03158Y01326*
X03169Y01321*
X0318Y01317*
X03192Y01316*
X03204Y01317*
X03216Y01321*
X03226Y01326*
X03236Y01334*
X03243Y01343*
X03249Y01354*
X03253Y01365*
X03254Y01377*
X03253Y01389*
X03249Y01401*
X03243Y01412*
X03236Y01421*
X03226Y01428*
X03216Y01434*
Y01446*
X03479Y01709*
X03502*
X03503Y01704*
Y01366*
X03292Y01155*
X03288Y01149*
X03287Y01141*
Y00786*
X03286Y00785*
X03277Y00779*
X0327Y0077*
X03266Y0076*
X03265Y00749*
X03266Y00738*
X0327Y00728*
X03274Y00723*
X03272Y00718*
X03241*
X03239Y00723*
X03243Y00728*
X03247Y00738*
X03248Y00749*
X03247Y0076*
X03243Y0077*
X03236Y00779*
X03227Y00785*
X03217Y00789*
X03207Y00791*
X03196Y00789*
X03186Y00785*
X03177Y00779*
X0317Y0077*
X03166Y0076*
X03165Y00749*
X03166Y00738*
X0317Y00728*
X03174Y00723*
X03172Y00718*
X03141*
X03139Y00723*
X03143Y00728*
X03147Y00738*
X03148Y00749*
X03147Y0076*
X03143Y0077*
X03136Y00779*
X03127Y00785*
X03117Y00789*
X03107Y00791*
X03096Y00789*
X03086Y00785*
X03077Y00779*
X0307Y0077*
X03066Y0076*
X03065Y00749*
X03066Y00738*
X0307Y00728*
X03074Y00723*
X03072Y00718*
X03056*
X03048Y00717*
X03042Y00713*
X03018Y00689*
X03017Y00689*
X03007Y00691*
X02996Y00689*
X02986Y00685*
X02977Y00679*
X0297Y0067*
X02966Y0066*
X02965Y00649*
X02966Y00638*
X0297Y00628*
X02977Y0062*
X02986Y00613*
X02996Y00609*
X03007Y00607*
X03017Y00609*
X03027Y00613*
X03036Y0062*
X03043Y00628*
X03047Y00638*
X03048Y00649*
X03047Y0066*
X03047Y00661*
X03064Y00678*
X03073*
X03075Y00673*
X03072Y00669*
X03068Y00659*
X03067Y00654*
X03107*
X03146*
X03145Y00659*
X03141Y00669*
X03138Y00673*
X0314Y00678*
X03171*
X03173Y00674*
X0317Y0067*
X03166Y0066*
X03165Y00649*
X03166Y00638*
X0317Y00628*
X03177Y0062*
X03186Y00613*
X03196Y00609*
X03207Y00607*
X03217Y00609*
X03227Y00613*
X03236Y0062*
X03243Y00628*
X03247Y00638*
X03248Y00649*
X03247Y0066*
X03243Y0067*
X0324Y00674*
X03242Y00678*
X03271*
X03273Y00674*
X0327Y0067*
X03266Y0066*
X03265Y00649*
X03266Y00638*
X0327Y00628*
X03277Y0062*
X03286Y00613*
X03296Y00609*
X03307Y00607*
X03317Y00609*
X03327Y00613*
X03336Y0062*
X03343Y00628*
X03347Y00638*
X03348Y00649*
X03347Y0066*
X03343Y0067*
X0334Y00674*
X03342Y00678*
X03371*
X03373Y00674*
X0337Y0067*
X03366Y0066*
X03365Y00649*
X03366Y00638*
X0337Y00628*
X03377Y0062*
X03386Y00613*
X03396Y00609*
X03407Y00607*
X03417Y00609*
X03427Y00613*
X03436Y0062*
X03443Y00628*
X03447Y00638*
X03448Y00649*
X03447Y0066*
X03443Y0067*
X03437Y00677*
X03437Y00682*
X03438Y00684*
X03441Y00686*
X0347Y00715*
X03472Y00718*
X03474Y00718*
X03479Y00719*
X03486Y00713*
X03496Y00709*
X03507Y00707*
X03517Y00709*
X03527Y00713*
X03536Y0072*
X03543Y00728*
X03547Y00738*
X03548Y00749*
X03547Y0076*
X03543Y0077*
X03536Y00779*
X03527Y00785*
X03517Y00789*
X03507Y00791*
X03496Y00789*
X03486Y00785*
X03481Y00781*
X03476Y00784*
Y0079*
X03551Y00865*
X03747*
X0375Y00863*
X03759Y00861*
X06712*
X06721Y00863*
X06729Y00868*
X08363Y02502*
X08368Y0251*
X0837Y02519*
Y04606*
X08368Y04615*
X08363Y04623*
X08324Y04662*
X08316Y04667*
X08307Y04669*
G37*
G36*
X04681Y01439D02*
X04669Y01438D01*
X04657Y01434*
X04647Y01428*
X04637Y01421*
X0463Y01412*
X04624Y01401*
X0462Y01389*
X04619Y01377*
X0462Y01365*
X04624Y01354*
X0463Y01343*
X04637Y01334*
X04647Y01326*
X04657Y01321*
X04669Y01317*
X04681Y01316*
X04693Y01317*
X04704Y01321*
X04715Y01326*
X04724Y01334*
X04732Y01343*
X04737Y01354*
X04741Y01365*
X04742Y01377*
X04741Y01389*
X04737Y01401*
X04732Y01412*
X04724Y01421*
X04715Y01428*
X04704Y01434*
X04693Y01438*
X04681Y01439*
G37*
G36*
X04011D02*
X03999Y01438D01*
X03988Y01434*
X03977Y01428*
X03968Y01421*
X0396Y01412*
X03955Y01401*
X03951Y01389*
X0395Y01377*
X03951Y01365*
X03955Y01354*
X0396Y01343*
X03968Y01334*
X03977Y01326*
X03988Y01321*
X03999Y01317*
X04011Y01316*
X04023Y01317*
X04035Y01321*
X04045Y01326*
X04055Y01334*
X04062Y01343*
X04068Y01354*
X04071Y01365*
X04073Y01377*
X04071Y01389*
X04068Y01401*
X04062Y01412*
X04055Y01421*
X04045Y01428*
X04035Y01434*
X04023Y01438*
X04011Y01439*
G37*
G36*
X03342D02*
X0333Y01438D01*
X03319Y01434*
X03308Y01428*
X03299Y01421*
X03291Y01412*
X03285Y01401*
X03282Y01389*
X03281Y01377*
X03282Y01365*
X03285Y01354*
X03291Y01343*
X03299Y01334*
X03308Y01326*
X03319Y01321*
X0333Y01317*
X03342Y01316*
X03354Y01317*
X03365Y01321*
X03376Y01326*
X03385Y01334*
X03393Y01343*
X03399Y01354*
X03402Y01365*
X03403Y01377*
X03402Y01389*
X03399Y01401*
X03393Y01412*
X03385Y01421*
X03376Y01428*
X03365Y01434*
X03354Y01438*
X03342Y01439*
G37*
G36*
X01732Y01334D02*
X0172Y01333D01*
X01708Y0133*
X01698Y01324*
X01688Y01316*
X01681Y01307*
X01675Y01297*
X01672Y01285*
X0167Y01273*
X01672Y01261*
X01675Y0125*
X01681Y01239*
X01688Y0123*
X01698Y01222*
X01708Y01216*
X0172Y01213*
X01732Y01212*
X01744Y01213*
X01755Y01216*
X0177Y01201*
X01778Y01196*
X01787Y01194*
X02048*
Y01193*
X02113*
Y01243*
X02048*
Y01242*
X01797*
X01789Y0125*
X01792Y01261*
X01793Y01273*
X01792Y01285*
X01788Y01297*
X01783Y01307*
X01775Y01316*
X01766Y01324*
X01755Y0133*
X01744Y01333*
X01732Y01334*
G37*
G36*
X02113Y01168D02*
X02048D01*
Y01119*
X02113*
Y01168*
G37*
G36*
X02559Y00933D02*
X02551Y00932D01*
X02545Y00929*
X02539Y00925*
X02534Y00919*
X02532Y00912*
X02531Y00905*
X02532Y00898*
X02534Y00891*
Y00778*
X02519*
Y00717*
X02598*
Y00778*
X02583*
Y00891*
X02585Y00898*
X02586Y00905*
X02585Y00912*
X02583Y00919*
X02578Y00925*
X02572Y00929*
X02566Y00932*
X02559Y00933*
G37*
G36*
X03007Y00791D02*
X02996Y00789D01*
X02986Y00785*
X02977Y00779*
X0297Y0077*
X02966Y0076*
X02965Y00749*
X02966Y00738*
X0297Y00728*
X02977Y0072*
X02986Y00713*
X02996Y00709*
X03007Y00707*
X03017Y00709*
X03027Y00713*
X03036Y0072*
X03043Y00728*
X03047Y00738*
X03048Y00749*
X03047Y0076*
X03043Y0077*
X03036Y00779*
X03027Y00785*
X03017Y00789*
X03007Y00791*
G37*
G36*
X03102Y00644D02*
X03067D01*
X03068Y00639*
X03072Y00629*
X03078Y00621*
X03087Y00615*
X03096Y00611*
X03102Y0061*
Y00644*
G37*
G36*
X03146D02*
X03112D01*
Y0061*
X03117Y00611*
X03127Y00615*
X03135Y00621*
X03141Y00629*
X03145Y00639*
X03146Y00644*
G37*
G36*
X03507Y00691D02*
X03496Y00689D01*
X03486Y00685*
X03477Y00679*
X0347Y0067*
X03466Y0066*
X03465Y00649*
X03466Y00638*
X0347Y00628*
X03477Y0062*
X03486Y00613*
X03496Y00609*
X03507Y00607*
X03517Y00609*
X03527Y00613*
X03536Y0062*
X03543Y00628*
X03547Y00638*
X03548Y00649*
X03547Y0066*
X03543Y0067*
X03536Y00679*
X03527Y00685*
X03517Y00689*
X03507Y00691*
G37*
G36*
X0244Y00854D02*
X02433Y00853D01*
X02427Y0085*
X02421Y00846*
X02416Y0084*
X02414Y00833*
X02413Y00826*
X02414Y00819*
X02416Y00812*
Y00768*
X02413*
X02404Y00766*
X02396Y00761*
X02391Y00753*
X02389Y00744*
X02391Y00735*
X02396Y00727*
X02404Y00722*
X02405Y00721*
Y00716*
X02404Y00716*
X02396Y00711*
X02391Y00703*
X02389Y00694*
X02391Y00685*
X02396Y00677*
X02404Y00672*
X02405Y00671*
Y00666*
X02404Y00666*
X02396Y00661*
X02391Y00653*
X02389Y00644*
X02391Y00635*
X02396Y00627*
X02404Y00622*
X02405Y00621*
Y00616*
X02404Y00616*
X02396Y00611*
X02391Y00603*
X0239Y00599*
X02385Y00598*
X02382Y006*
Y00669*
X0238Y00676*
X02376Y00683*
X02301Y00758*
X02294Y00762*
X02287Y00764*
X02244*
X02241Y00766*
X02232Y00768*
X02198*
X02189Y00766*
X02181Y00761*
X02176Y00753*
X02174Y00744*
X02176Y00735*
X02181Y00727*
X02189Y00722*
X0219Y00721*
Y00716*
X02189Y00716*
X02181Y00711*
X02176Y00703*
X02174Y00694*
X02176Y00685*
X02181Y00677*
X02189Y00672*
X0219Y00671*
Y00666*
X02189Y00666*
X02181Y00661*
X02176Y00653*
X02174Y00644*
X02176Y00635*
X02181Y00627*
X02182Y00627*
X0218Y00622*
X02086*
X02078Y00621*
X0207Y00618*
X02064Y00613*
X02059Y00606*
X02055Y00598*
X02054Y0059*
X02055Y00582*
X02059Y00574*
X02064Y00568*
X0207Y00563*
X02078Y00559*
X02086Y00558*
X02224*
X02232Y00559*
X0224Y00563*
X02246Y00568*
X02251Y00574*
X02255Y00582*
X02256Y0059*
X02255Y00598*
X02251Y00606*
X02246Y00613*
X02241Y00616*
X02241Y00619*
X02241Y00621*
X02242Y00622*
X02249Y00627*
X02254Y00635*
X02255Y00641*
X02261Y00643*
X02302Y00601*
Y00531*
X02304Y00523*
X02308Y00517*
X02348Y00477*
X02354Y00473*
X02362Y00472*
X03818*
X03826Y00473*
X03833Y00477*
X03911Y00556*
X03916Y00563*
X03917Y0057*
Y00728*
X03916Y00736*
X03911Y00742*
X03813Y0084*
X03806Y00845*
X03799Y00846*
X03714*
X03706Y00845*
X037Y0084*
X03672Y00813*
X03672*
X03643Y00784*
X03641Y0078*
X0364Y0078*
X03635Y0078*
X03627Y00785*
X03617Y00789*
X03607Y00791*
X03596Y00789*
X03586Y00785*
X03577Y00779*
X0357Y0077*
X03566Y0076*
X03565Y00749*
X03566Y00738*
X0357Y00728*
X03577Y0072*
X03586Y00713*
X03596Y00709*
X03607Y00707*
X03617Y00709*
X03627Y00713*
X03635Y00719*
X0364Y00718*
X0364Y00718*
X03641Y00718*
Y00712*
X03618Y00689*
X03617Y00689*
X03607Y00691*
X03596Y00689*
X03586Y00685*
X03577Y00679*
X0357Y0067*
X03566Y0066*
X03565Y00649*
X03566Y00638*
X0357Y00628*
X03577Y0062*
X03586Y00613*
X03596Y00609*
X03607Y00607*
X03617Y00609*
X03627Y00613*
X03636Y0062*
X03643Y00628*
X03647Y00638*
X03648Y00649*
X03647Y0066*
X03647Y00661*
X03661Y00675*
X03665Y00673*
Y00608*
X03748*
Y0069*
X03681*
X03679Y00695*
X03679Y00696*
X03681Y00703*
Y00711*
X03685Y00713*
X03686Y00713*
X03696Y00709*
X03707Y00707*
X03717Y00709*
X03727Y00713*
X03736Y0072*
X03743Y00728*
X03747Y00738*
X03748Y00747*
X03771*
X03818Y007*
Y00638*
X03731Y00551*
X02429*
X02415Y00565*
X02418Y0057*
X02446*
X02456Y00572*
X02463Y00577*
X02469Y00585*
X0247Y00594*
X02469Y00603*
X02463Y00611*
X02458Y00615*
X02459Y0062*
X02534*
X02543Y00622*
X02551Y00627*
X02562Y00638*
X02598*
Y00699*
X02519*
Y00668*
X02459*
X02458Y00673*
X02463Y00677*
X02469Y00685*
X0247Y00694*
X02469Y00703*
X02463Y00711*
X02456Y00716*
X02455Y00716*
Y00721*
X02456Y00722*
X02463Y00727*
X02469Y00735*
X0247Y00744*
X02469Y00753*
X02465Y00759*
Y00812*
X02467Y00819*
X02468Y00826*
X02467Y00833*
X02465Y0084*
X0246Y00846*
X02454Y0085*
X02448Y00853*
X0244Y00854*
G37*
G36*
X04291Y0074D02*
X04267Y00738D01*
X04244Y00733*
X04223Y00724*
X04203Y00711*
X04185Y00696*
X04169Y00678*
X04157Y00658*
X04148Y00636*
X04143Y00614*
X04141Y0059*
X04143Y00567*
X04148Y00544*
X04157Y00522*
X04169Y00502*
X04185Y00484*
X04203Y00469*
X04223Y00456*
X04244Y00447*
X04267Y00442*
X04291Y0044*
X04314Y00442*
X04337Y00447*
X04359Y00456*
X04379Y00469*
X04397Y00484*
X04412Y00502*
X04425Y00522*
X04434Y00544*
X04439Y00567*
X04441Y0059*
X04439Y00614*
X04434Y00636*
X04425Y00658*
X04412Y00678*
X04397Y00696*
X04379Y00711*
X04359Y00724*
X04337Y00733*
X04314Y00738*
X04291Y0074*
G37*
G36*
X08228Y00346D02*
X08204Y00345D01*
X08181Y00339*
X0816Y0033*
X0814Y00318*
X08122Y00302*
X08106Y00285*
X08094Y00264*
X08085Y00243*
X0808Y0022*
X08078Y00196*
X0808Y00173*
X08085Y0015*
X08094Y00128*
X08106Y00108*
X08122Y0009*
X0814Y00075*
X0816Y00063*
X08181Y00054*
X08204Y00048*
X08228Y00046*
X08251Y00048*
X08274Y00054*
X08296Y00063*
X08316Y00075*
X08334Y0009*
X08349Y00108*
X08362Y00128*
X08371Y0015*
X08376Y00173*
X08378Y00196*
X08376Y0022*
X08371Y00243*
X08362Y00264*
X08349Y00285*
X08334Y00302*
X08316Y00318*
X08296Y0033*
X08274Y00339*
X08251Y00345*
X08228Y00346*
G37*
G36*
X00354D02*
X0033Y00345D01*
X00307Y00339*
X00286Y0033*
X00266Y00318*
X00248Y00302*
X00232Y00285*
X0022Y00264*
X00211Y00243*
X00206Y0022*
X00204Y00196*
X00206Y00173*
X00211Y0015*
X0022Y00128*
X00232Y00108*
X00248Y0009*
X00266Y00075*
X00286Y00063*
X00307Y00054*
X0033Y00048*
X00354Y00046*
X00377Y00048*
X004Y00054*
X00422Y00063*
X00442Y00075*
X0046Y0009*
X00475Y00108*
X00488Y00128*
X00497Y0015*
X00502Y00173*
X00504Y00196*
X00502Y0022*
X00497Y00243*
X00488Y00264*
X00475Y00285*
X0046Y00302*
X00442Y00318*
X00422Y0033*
X004Y00339*
X00377Y00345*
X00354Y00346*
G37*
%LNkeyboardmain_copper_signal_top-3*%
%LPD*%
G54D10*
X00171Y03108D03*
Y03033D03*
X00261Y0307D03*
X05478Y01734D03*
Y01809D03*
X05387Y01771D03*
X04803Y01736D03*
Y01811D03*
X04712Y01773D03*
X04133Y01736D03*
Y01811D03*
X04043Y01773D03*
X0347Y01734D03*
Y01809D03*
X03379Y01771D03*
X0208Y01218D03*
Y01143D03*
X02171Y01181D03*
X05478Y026D03*
Y02675D03*
X05387Y02637D03*
X04803Y02602D03*
Y02677D03*
X04712Y02639D03*
X04139Y026D03*
Y02675D03*
X04049Y02637D03*
X0347Y026D03*
Y02675D03*
X03379Y02637D03*
X02604Y02167D03*
Y02242D03*
X02513Y02204D03*
X02171Y02167D03*
Y02242D03*
X0208Y02204D03*
X01259Y02169D03*
Y02244D03*
X01169Y02206D03*
X05478Y03505D03*
Y0358D03*
X05387Y03543D03*
X04803Y03507D03*
Y03582D03*
X04712Y03545D03*
X04133Y03503D03*
Y03578D03*
X04043Y03541D03*
X0347Y03505D03*
Y0358D03*
X03379Y03543D03*
X01974Y026D03*
Y02675D03*
X01883Y02637D03*
X05478Y04372D03*
Y04446D03*
X05387Y04409D03*
X04809Y04372D03*
Y04446D03*
X04718Y04409D03*
X04021Y04372D03*
Y04446D03*
X03931Y04409D03*
X0347Y04372D03*
Y04446D03*
X03379Y04409D03*
X00635Y04372D03*
Y04446D03*
X00545Y04409D03*
X07683Y0575D03*
Y05824D03*
X07592Y05787D03*
X07013Y0575D03*
Y05824D03*
X06923Y05787D03*
X06344Y0575D03*
Y05824D03*
X06253Y05787D03*
X05478Y0575D03*
Y05824D03*
X05387Y05787D03*
X04803Y05751D03*
Y05826D03*
X04712Y05789D03*
X04179Y0575D03*
Y05824D03*
X04088Y05787D03*
X0347Y0575D03*
Y05824D03*
X03379Y05787D03*
X02604Y0575D03*
Y05824D03*
X02513Y05787D03*
X01929Y05751D03*
Y05826D03*
X01838Y05789D03*
X01305Y0575D03*
Y05824D03*
X01214Y05787D03*
X00596Y0575D03*
Y05824D03*
X00505Y05787D03*
X07683Y06616D03*
Y0669D03*
X07592Y06653D03*
X07013Y06616D03*
Y0669D03*
X06923Y06653D03*
X06344Y06616D03*
Y0669D03*
X06253Y06653D03*
X05478Y06616D03*
Y0669D03*
X05387Y06653D03*
X04809Y06616D03*
Y0669D03*
X04718Y06653D03*
X04133Y06618D03*
Y06692D03*
X04043Y06655D03*
X0347Y06616D03*
Y0669D03*
X03379Y06653D03*
X02486Y06616D03*
Y0669D03*
X02395Y06653D03*
X01816Y06616D03*
Y0669D03*
X01726Y06653D03*
X01147Y06616D03*
Y0669D03*
X01057Y06653D03*
X00478Y06616D03*
Y0669D03*
X00387Y06653D03*
X07564Y07521D03*
Y07596D03*
X07474Y07559D03*
X0694Y07521D03*
Y07596D03*
X0685Y07559D03*
X06226Y07521D03*
Y07596D03*
X06135Y07559D03*
X0536Y07521D03*
Y07596D03*
X05269Y07559D03*
X04854Y07521D03*
Y07596D03*
X04763Y07559D03*
X04185Y07521D03*
Y07596D03*
X04094Y07559D03*
X03549Y07521D03*
Y07596D03*
X03458Y07559D03*
X02446Y07521D03*
Y07596D03*
X02356Y07559D03*
X01777Y07521D03*
Y07596D03*
X01687Y07559D03*
X01153Y07521D03*
Y07596D03*
X01062Y07559D03*
X00438Y07521D03*
Y07596D03*
X00348Y07559D03*
X07564Y08387D03*
Y08462D03*
X07474Y08425D03*
X06895Y08387D03*
Y08462D03*
X06805Y08425D03*
X06383Y08387D03*
Y08462D03*
X06293Y08425D03*
X05326Y08387D03*
Y08462D03*
X05236Y08425D03*
X04848Y08387D03*
Y08462D03*
X04757Y08425D03*
X04179Y08387D03*
Y08462D03*
X04088Y08425D03*
X03509Y08387D03*
Y08462D03*
X03419Y08425D03*
X02452Y08387D03*
Y08462D03*
X02362Y08425D03*
X01822Y08387D03*
Y08462D03*
X01732Y08425D03*
X01147Y08387D03*
Y08462D03*
X01057Y08425D03*
X00438Y08387D03*
Y08462D03*
X00348Y08425D03*
G54D11*
X00572Y02494D03*
X00647D03*
X0061Y02584D03*
G54D12*
X01437Y04251D03*
X01515D03*
G54D13*
X02342Y03799D03*
Y03877D03*
Y03228D03*
Y03149D03*
X02559Y00748D03*
Y00669D03*
X02913Y05826D03*
Y05748D03*
Y06692D03*
Y06614D03*
X02834Y07598D03*
Y07519D03*
X02992Y08464D03*
Y08385D03*
X03228Y0496D03*
Y05039D03*
G54D14*
X0243Y00594D03*
Y00644D03*
Y00694D03*
Y00744D03*
X02215Y00594D03*
Y00644D03*
Y00694D03*
Y00744D03*
X02941Y04728D03*
Y04778D03*
Y04828D03*
Y04878D03*
X02727Y04728D03*
Y04778D03*
Y04828D03*
Y04878D03*
X02941Y06106D03*
Y06156D03*
Y06206D03*
Y06256D03*
X02727Y06106D03*
Y06156D03*
Y06206D03*
Y06256D03*
X02941Y0709D03*
Y0714D03*
Y0719D03*
Y0724D03*
X02727Y0709D03*
Y0714D03*
Y0719D03*
Y0724D03*
X02941Y07956D03*
Y08006D03*
Y08056D03*
Y08106D03*
X02727Y07956D03*
Y08006D03*
Y08056D03*
Y08106D03*
G54D15*
X04901Y04625D02*
X05649D01*
X05728Y04704*
X04435Y05092D02*
X04901Y04625D01*
X03438Y05092D02*
X04435D01*
X06496Y08425D02*
X06805D01*
X06293D02*
X06496D01*
X06535Y06751D02*
X07761D01*
X05205Y08424D02*
X05236D01*
X05269Y07559D02*
X06135D01*
X0685*
X04763D02*
X05269D01*
X07677D02*
X07933Y07303D01*
X07912Y06751D02*
X07933Y06771D01*
Y07303*
X05472Y08346D02*
X06214D01*
X07592Y0586D02*
X07657Y05925D01*
X07592Y05787D02*
Y0586D01*
X01214Y05787D02*
X01897D01*
X04088D02*
X04771D01*
X02834Y05118D02*
X03031Y04921D01*
X02834Y05669D02*
X02913Y05748D01*
X02834Y05118D02*
Y05669D01*
X02893Y05374D02*
Y05551D01*
Y05374D02*
X03228Y05039D01*
X0059Y05255D02*
X02755D01*
X05374Y05295D02*
X05729Y05651D01*
X04681Y05393D02*
X04779Y05295D01*
X05374*
X06062Y05098D02*
Y0524D01*
X06118Y05295*
X06216Y05393*
X0621Y04951D02*
X07761D01*
X06062Y05098D02*
X0621Y04951D01*
X06141Y05196D02*
X06688D01*
X00393Y04488D02*
X00472Y04566D01*
X05276Y08424D02*
X05394D01*
X05472Y08346*
X04757Y08425D02*
X05204D01*
X0475D02*
X04757D01*
X06214Y08346D02*
X06293Y08425D01*
X07457Y05688D02*
X07556Y05787D01*
X07381Y05688D02*
X07457D01*
X07362Y05669D02*
X07381Y05688D01*
X07165Y05669D02*
X07362D01*
X07047Y05787D02*
X07165Y05669D01*
X06923Y05787D02*
X07047D01*
X05275Y08425D02*
X05276Y08424D01*
X05236Y08425D02*
X05275D01*
X0474Y08416D02*
X0475Y08425D01*
X04683Y08352D02*
X0474Y08409D01*
X04251Y08425D02*
X04324Y08352D01*
X0474Y08409D02*
Y08416D01*
X04324Y08352D02*
X04683D01*
X04071Y08409D02*
Y08416D01*
X04014Y08352D02*
X04071Y08409D01*
Y08416D02*
X0408Y08425D01*
X03786Y08352D02*
X04014D01*
X03713Y08425D02*
X03786Y08352D01*
X01112Y05944D02*
X01113Y05945D01*
X01034Y05866D02*
X01112Y05944D01*
X03116Y08352D02*
X03346D01*
X03419Y08425*
X03031D02*
X03043D01*
X03116Y08352*
X03419Y08425D02*
D01*
X02992Y07657D02*
X03149Y075D01*
X02933Y07657D02*
X02992D01*
X0307Y0746D02*
X03381D01*
X02933Y07598D02*
X0307Y0746D01*
X03149Y075D02*
X0337D01*
Y07662*
X03031Y07421D02*
X03392D01*
X02893Y07559D02*
X03031Y07421D01*
X02933Y07716D02*
Y07716D01*
X0306D02*
X03217Y07559D01*
X02933Y07716D02*
X0306D01*
X02834Y07849D02*
X02941Y07956D01*
X02834Y07596D02*
Y07849D01*
Y07519D02*
X02889Y07464D01*
Y07255D02*
Y07464D01*
X02356Y07559D02*
X02775D01*
X03898Y07697D02*
X03976Y07618D01*
X03843Y07751D02*
X03898Y07697D01*
X04656Y07559D02*
Y07646D01*
X04605Y07697D02*
X04656Y07646D01*
X03898Y07697D02*
X04605D01*
X02832Y06257D02*
X02834Y06259D01*
X0283Y06256D02*
X02832Y06257D01*
X04556Y07559D02*
Y07608D01*
X04253Y07559D02*
X04332Y0748D01*
X04645*
X04671Y07505*
X04709Y07544D02*
X04724Y07559D01*
X04678Y07505D02*
X04709Y07537D01*
Y07544*
X04671Y07505D02*
X04678D01*
X03887Y07559D02*
Y07608D01*
X03976Y07569D02*
X03987Y07559D01*
X03976Y07569D02*
Y07618D01*
X0404Y075D02*
Y07583D01*
X04094Y07637*
X04526*
X03702Y0744D02*
X04031D01*
X04094Y07504*
X03799Y075D02*
X0404D01*
X04094Y07504D02*
Y07559D01*
X04253*
X03661Y07637D02*
X03799Y075D01*
X03584Y07559D02*
X03702Y0744D01*
X03317Y07559D02*
Y07659D01*
X0341Y07751*
X03458Y07487D02*
Y07558D01*
X0354Y0752D02*
X03543D01*
X03406Y07485D02*
Y07618D01*
X03392Y07421D02*
X03458Y07487D01*
X03451Y07558D02*
X03458D01*
X03192Y07165D02*
X0354Y07512D01*
X0345Y07559D02*
X03451Y07558D01*
X0354Y07512D02*
Y0752D01*
X03381Y0746D02*
X03406Y07485D01*
X0345Y07559D02*
X03584D01*
X01113Y04409D02*
X02297D01*
X02326Y05393D02*
Y05472D01*
X02604Y0575D02*
D01*
X02326Y05472D02*
X02604Y0575D01*
X01657Y05393D02*
Y05476D01*
X01929Y05748D02*
Y05751D01*
X01657Y05476D02*
X01929Y05748D01*
X00988Y05393D02*
Y05433D01*
X01305Y0575*
X00318Y05393D02*
Y05472D01*
X00596Y0575*
X01091Y06023D02*
X0246D01*
X02643Y06206*
X00505Y05787D02*
X01214D01*
X00669Y05905D02*
X00708Y05866D01*
X01034*
X03129Y04744D02*
X04114D01*
X04212Y04645D02*
X04389D01*
X04114Y04744D02*
X04212Y04645D01*
X04051Y04409D02*
X04415D01*
X04173Y04566D02*
X04221D01*
X04389Y04645D02*
X04547Y04488D01*
X03307Y0496D02*
X03438Y05092D01*
X03897Y05157D02*
X03927Y05127D01*
X05538*
X05761Y05351*
X01782Y04538D02*
Y04566D01*
X01732Y04488D02*
X01782Y04538D01*
X01574Y04488D02*
X01732D01*
X01496Y04566D02*
X01574Y04488D01*
X01682Y04566D02*
Y04674D01*
X01836Y04828*
X00275Y04488D02*
X00393D01*
X00157Y04606D02*
Y05708D01*
Y04606D02*
X00275Y04488D01*
X00472Y04566D02*
X01496D01*
X00354Y04586D02*
X00413Y04645D01*
X00511*
X0346Y05275D02*
X03917D01*
X04015Y05177D02*
X05387D01*
X03917Y05275D02*
X04015Y05177D01*
X04547Y04488D02*
X07893D01*
X00511Y04645D02*
X00743Y04878D01*
X04043Y01771D02*
X04102D01*
X03523D02*
X04043D01*
X04712D02*
X04771D01*
X04165D02*
X04712D01*
X08267Y02755D02*
Y04547D01*
X07283Y01771D02*
X08267Y02755D01*
X08248Y04566D02*
X08267Y04547D01*
X0775Y04862D02*
X07761Y04851D01*
X07598Y04862D02*
X0775D01*
X07559Y04901D02*
X07598Y04862D01*
X05905Y04901D02*
X07559D01*
X05688Y03917D02*
Y03976D01*
X0557Y03799D02*
X05688Y03917D01*
X02913Y03799D02*
X0557D01*
X02342Y03228D02*
X02913Y03799D01*
X05452Y03897D02*
X05649Y04094D01*
X03799Y03897D02*
X05452D01*
X03779Y03877D02*
X03799Y03897D01*
X02342Y03877D02*
X03779D01*
X08149Y04606D02*
X08188Y04645D01*
X08307*
X08346Y04606*
Y02519D02*
Y04606D01*
X06712Y00885D02*
X08346Y02519D01*
X03759Y00885D02*
X06712D01*
X04834Y01771D02*
X05387D01*
X07283*
X0122Y02578D02*
X01909D01*
Y02601*
X01928Y02636D02*
X02004D01*
X01914Y02601D02*
X01928Y02615D01*
X01909Y02601D02*
X01914D01*
X01928Y02615D02*
Y02636D01*
X04043Y03543D02*
X04102D01*
X03379D02*
X04043D01*
X0061Y02578D02*
X00669Y02637D01*
X04712Y03543D02*
X04771D01*
X00669Y02637D02*
X01883D01*
X04165Y03543D02*
X04712D01*
X0061Y02578D02*
D01*
X00098Y02519D02*
Y03051D01*
X00155Y03108D02*
X00171D01*
X00098Y03051D02*
X00155Y03108D01*
X00098Y02519D02*
X00196Y02421D01*
X03267Y04409D02*
X03379D01*
X02297D02*
X03267D01*
X00196Y03582D02*
X00261Y03517D01*
X00196Y04133D02*
X00472Y04409D01*
X00196Y03582D02*
Y04133D01*
X00261Y0307D02*
Y03517D01*
X00196Y02421D02*
X00216D01*
Y02321D02*
X00962D01*
X00545Y02521D02*
X00572Y02494D01*
X00216Y02521D02*
X00545D01*
X02696Y02736D02*
X03051Y0309D01*
X02106Y02736D02*
X02696D01*
X02005Y02635D02*
X02106Y02736D01*
X02004Y02636D02*
X02005Y02635D01*
X00962Y02321D02*
X0122Y02578D01*
X0311Y04724D02*
X03129Y04744D01*
X03006Y04778D02*
X03031Y04803D01*
X02941Y04778D02*
X03006D01*
X04074Y04665D02*
X04173Y04566D01*
X03267Y04665D02*
X04074D01*
X07893Y04488D02*
X07933Y04527D01*
Y04685*
X08066Y04775D02*
Y04909D01*
X07657Y0244D02*
X0807Y02854D01*
X07657Y02559D02*
X07992Y02893D01*
X08066Y04775D02*
X0807Y04771D01*
Y02854D02*
Y04771D01*
X07992Y02893D02*
Y05688D01*
X07972Y05708D02*
X07992Y05688D01*
X08066Y04909D02*
X0807Y04913D01*
Y05708*
X08051Y05728D02*
X0807Y05708D01*
X03248Y05157D02*
X03897D01*
X03149Y05255D02*
X03248Y05157D01*
X03342Y05393D02*
X0346Y05275D01*
X03011Y05393D02*
X03149Y05255D01*
X05826Y02716D02*
Y04094D01*
X05511Y04409D02*
X05826Y04094D01*
Y02716D02*
X05984Y02559D01*
X05387Y04409D02*
X05511D01*
X04718D02*
X05387D01*
X03931D02*
X04051D01*
X00472D02*
X00545D01*
X06885Y05393D02*
X07279Y05D01*
X07677*
X06736Y05393D02*
X07013Y05671D01*
Y0575*
X06688Y05196D02*
X06885Y05393D01*
X03379Y01771D02*
X03523D01*
X02165Y03228D02*
X02342D01*
X02135Y03198D02*
X02165Y03228D01*
X01889Y03198D02*
X02135D01*
X01998Y03877D02*
X02342D01*
X01889Y03986D02*
X01998Y03877D01*
X01397Y03809D02*
X01574Y03986D01*
X01397Y03385D02*
Y03809D01*
Y03385D02*
X01574Y03208D01*
Y03198D02*
Y03208D01*
X01515Y04045D02*
X01574Y03986D01*
X01515Y04045D02*
Y04251D01*
X01338Y04153D02*
X01437Y04251D01*
X01338Y04084D02*
Y04153D01*
X05365Y05236D02*
X0573Y05601D01*
X04011Y05393D02*
X04169Y05236D01*
X05365*
X02933Y05393D02*
X03011D01*
X02893Y05551D02*
X0307Y05728D01*
X00468Y05377D02*
X0059Y05255D01*
X00468Y05377D02*
Y05393D01*
X05387Y05177D02*
X05761Y05551D01*
X05729Y05651D02*
X05761D01*
X05807Y0561D02*
X05848Y05651D01*
X05861*
X02947Y08011D02*
X03051D01*
X02941Y08006D02*
X02947Y08011D01*
X02362Y08425D02*
X02933D01*
X03228Y0496D02*
X03307D01*
X03031Y04803D02*
Y04921D01*
X03192Y05393D02*
X0347Y05671D01*
Y0575*
X03379Y05787D02*
X04088D01*
X02513D02*
X03379D01*
X0196D02*
X02513D01*
X04415Y04409D02*
X04718D01*
X05984Y02559D02*
X07657D01*
X05511Y03543D02*
X05688Y03366D01*
Y02677D02*
X05925Y0244D01*
X05688Y02677D02*
Y03366D01*
X05387Y03543D02*
X05511D01*
X05551Y02637D02*
X05846Y02342D01*
X07716*
X05387Y02637D02*
X05551D01*
X04049D02*
X04771D01*
X07716Y02342D02*
X08188Y02814D01*
Y04468*
X05925Y0244D02*
X07657D01*
X03379Y04409D02*
X03931D01*
X08169Y04488D02*
X08188Y04468D01*
X06344Y05671D02*
Y0575D01*
X06066Y05393D02*
X06344Y05671D01*
X06253Y05787D02*
X06923D01*
X07556D02*
X07592D01*
X07474Y07559D02*
X07677D01*
X07861Y06751D02*
X07912D01*
X07714Y06651D02*
X07761D01*
X07594D02*
X07651D01*
X07652Y06652D02*
X07713D01*
X07714Y06651*
X07651D02*
X07652Y06652D01*
X07592Y06653D02*
X07594Y06651D01*
X02727Y0714D02*
X02816D01*
X02828Y07128*
X0283*
X00743Y04878D02*
X02727D01*
X01836Y04828D02*
X02727D01*
X00545Y04409D02*
X01113D01*
X02727Y04778D02*
X028D01*
X02834Y04744*
Y04685D02*
Y04744D01*
Y04685D02*
X02913Y04606D01*
X03208*
X03267Y04665*
X04021Y04253D02*
Y04372D01*
X02727Y06256D02*
X0283D01*
X02643Y06206D02*
X02727D01*
X02913Y05826D02*
Y06077D01*
X02941Y06106*
X00354Y05905D02*
X00669D01*
X05387Y05787D02*
X05708D01*
X04834D02*
X05387D01*
X04772Y05788D02*
X04833D01*
X04834Y05787*
X03419Y08425D02*
X03713D01*
X04089Y08425D02*
X04251D01*
X0408Y08425D02*
X04088D01*
X02727Y0719D02*
X0282D01*
X02834Y07204*
X03406Y07618D02*
X03425Y07637D01*
X0337Y07662D02*
X03425Y07716D01*
Y07637D02*
X03661D01*
X04526D02*
X04556Y07608D01*
X0341Y07751D02*
X03843D01*
X03425Y07716D02*
X03779D01*
Y07715D02*
Y07716D01*
Y07715D02*
X03887Y07608D01*
X02994Y06208D02*
X03031Y06245D01*
X02988Y0626D02*
X02991D01*
X02941Y06156D02*
X02956Y0617D01*
X02973D02*
X02994Y06191D01*
X02956Y0617D02*
X02973D01*
X02941Y06256D02*
X02984D01*
X02988Y0626*
X02994Y06191D02*
Y06208D01*
X03031Y06245D02*
Y06299D01*
X02913Y06417D02*
X03031Y06299D01*
X02913Y06417D02*
Y06614D01*
Y06692D02*
X02941Y06721D01*
Y0709*
X02992Y06653D02*
X03379D01*
X02395D02*
X02834D01*
X02889Y0714D02*
Y07255D01*
Y0714D02*
X02941D01*
X02988Y0724D02*
X02992Y07244D01*
X02941Y0724D02*
X02988D01*
Y04878D02*
X02992Y04881D01*
X02941Y04878D02*
X02988D01*
X0243Y00744D02*
X0244Y00755D01*
Y00826*
X02534Y00644D02*
X02559Y00669D01*
X0243Y00644D02*
X02534D01*
X02559Y00748D02*
Y00905D01*
X02952Y04645D02*
Y04717D01*
X02941Y04728D02*
X02952Y04717D01*
X02795Y08228D02*
Y08287D01*
X02803Y08295*
Y08297*
X02834Y08212D02*
Y08267D01*
X0278Y08056D02*
X02803Y08078D01*
X02809Y08006D02*
X02838Y08035D01*
X02803Y08078D02*
Y0818D01*
X02874Y08155D02*
Y08228D01*
X02838Y0812D02*
X02874Y08155D01*
X02803Y0818D02*
X02834Y08212D01*
X02838Y08035D02*
Y0812D01*
X02727Y08056D02*
X0278D01*
X02727Y08006D02*
X02809D01*
X02727Y08106D02*
Y0816D01*
X02795Y08228*
X02941Y08106D02*
X02952Y08117D01*
Y08188*
X02992Y08228*
X05905Y05787D02*
X06253D01*
X05901Y06692D02*
X06214D01*
X05387Y06653D02*
X05669D01*
X05708Y06692*
X03379Y06653D02*
X04102D01*
X06214Y06692D02*
X06253Y06653D01*
X06383Y08368D02*
Y08387D01*
X06066Y08051D02*
X06383Y08368D01*
X03509D02*
Y08387D01*
X03192Y08051D02*
X03509Y08368D01*
X00157Y05708D02*
X00354Y05905D01*
X05326Y08177D02*
Y08387D01*
X04848Y08368D02*
Y08387D01*
X04531Y08051D02*
X04848Y08368D01*
X04179D02*
Y08387D01*
X03862Y08051D02*
X04179Y08368D01*
X04771Y05787D02*
X04772Y05788D01*
X01897Y05787D02*
X01898Y05788D01*
X01959*
X0196Y05787*
X05478Y05671D02*
Y0575D01*
X052Y05393D02*
X05478Y05671D01*
X04531Y0548D02*
X04803Y05751D01*
X04531Y05393D02*
Y0548D01*
X04179Y0571D02*
Y0575D01*
X03862Y05393D02*
X04179Y0571D01*
X06923Y06653D02*
X07592D01*
X06253D02*
X06923D01*
X04718D02*
X05387D01*
X04165D02*
X04718D01*
X01726D02*
X02395D01*
X01057D02*
X01726D01*
X00387D02*
X01057D01*
X04103Y06654D02*
X04164D01*
X04165Y06653*
X04102D02*
X04103Y06654D01*
X07683Y06557D02*
Y06616D01*
X07405Y06279D02*
X07683Y06557D01*
X06736Y06338D02*
X07013Y06616D01*
X06736Y06279D02*
Y06338D01*
X06344Y06557D02*
Y06616D01*
X06066Y06279D02*
X06344Y06557D01*
X05478D02*
Y06616D01*
X052Y06279D02*
X05478Y06557D01*
X04809D02*
Y06616D01*
X04531Y06279D02*
X04809Y06557D01*
X03862Y06346D02*
X04133Y06618D01*
X03862Y06279D02*
Y06346D01*
X03192Y06338D02*
X0347Y06616D01*
X03192Y06279D02*
Y06338D01*
X02326Y06456D02*
X02486Y06616D01*
X02326Y06279D02*
Y06456D01*
X01657D02*
X01816Y06616D01*
X01657Y06279D02*
Y06456D01*
X00988D02*
X01147Y06616D01*
X00988Y06279D02*
Y06456D01*
X00318D02*
X00478Y06616D01*
X00318Y06279D02*
Y06456D01*
X07683Y05714D02*
Y0575D01*
X07559Y0559D02*
X07683Y05714D01*
X07519Y0559D02*
X07559D01*
X07405Y05476D02*
X07519Y0559D01*
X07405Y05393D02*
Y05476D01*
X00988Y08051D02*
Y08228D01*
X01147Y08387*
X07405Y07362D02*
X07564Y07521D01*
X07405Y07165D02*
Y07362D01*
X0685Y07559D02*
X07448D01*
X06736Y07165D02*
Y07316D01*
X0694Y07521*
X06066Y07165D02*
X06226Y07324D01*
Y07521*
X052Y07165D02*
Y07362D01*
X0536Y07521*
X04531Y07165D02*
Y0724D01*
X04527Y07244D02*
X04531Y0724D01*
X04527Y07244D02*
X04805Y07521D01*
X04854*
X03862Y07165D02*
Y07198D01*
X04185Y07521*
X04724Y07559D02*
X04763D01*
X02326Y07401D02*
X02446Y07521D01*
X02326Y07165D02*
Y07401D01*
X01777Y07285D02*
Y07521D01*
X01657Y07165D02*
X01777Y07285D01*
X01062Y07559D02*
X01687D01*
X01153Y0733D02*
Y07521D01*
X00988Y07165D02*
X01153Y0733D01*
X00438Y07285D02*
Y07521D01*
X00318Y07165D02*
X00438Y07285D01*
X03192Y04035D02*
Y04094D01*
X0347Y04372*
X03862Y04035D02*
Y04094D01*
X04021Y04253*
X04531Y04035D02*
Y04094D01*
X04809Y04372*
X052Y04035D02*
Y04094D01*
X05478Y04372*
X00635Y04352D02*
Y04372D01*
X00318Y04035D02*
X00635Y04352D01*
X05478Y03427D02*
Y03505D01*
X052Y03149D02*
X05478Y03427D01*
X04803Y03421D02*
Y03507D01*
X04531Y03149D02*
X04803Y03421D01*
X04133D02*
Y03503D01*
X03862Y03149D02*
X04133Y03421D01*
X03192Y03228D02*
X0347Y03505D01*
X03192Y03149D02*
Y03228D01*
X0248Y02834D02*
X03188Y03543D01*
X03379*
X02007Y02834D02*
X0248D01*
X04164Y03542D02*
X04165Y03543D01*
X04102D02*
X04103Y03542D01*
X04771Y03543D02*
X04772Y03544D01*
X04833*
X04834Y03543*
X05387*
X04103Y03542D02*
X04164D01*
X01883Y0271D02*
X02007Y02834D01*
X01883Y02637D02*
Y0271D01*
X05356Y026D02*
X05478D01*
X052Y02444D02*
X05356Y026D01*
X052Y02263D02*
Y02444D01*
X04649Y02602D02*
X04803D01*
X04531Y02484D02*
X04649Y02602D01*
X04531Y02263D02*
Y02484D01*
X04057Y026D02*
X04139D01*
X03862Y02405D02*
X04057Y026D01*
X03862Y02263D02*
Y02405D01*
X03387Y026D02*
X0347D01*
X03192Y02405D02*
X03387Y026D01*
X03192Y02263D02*
Y02405D01*
X02326Y01889D02*
X02604Y02167D01*
X02326Y0182D02*
Y01889D01*
X05435Y01734D02*
X05478D01*
X052Y015D02*
X05435Y01734D01*
X052Y01377D02*
Y015D01*
X04767Y01736D02*
X04803D01*
X04531Y015D02*
X04767Y01736D01*
X04531Y01377D02*
Y015D01*
X03862Y01464D02*
X04133Y01736D01*
X03862Y01377D02*
Y01464D01*
X03192Y01456D02*
X0347Y01734D01*
X03192Y01377D02*
Y01456D01*
X02171Y01181D02*
X02401D01*
X02992Y01771*
X03379*
X04771D02*
X04772Y01772D01*
X04103D02*
X04164D01*
X04165Y01771*
X04833Y01772D02*
X04834Y01771D01*
X04772Y01772D02*
X04833D01*
X04102Y01771D02*
X04103Y01772D01*
X03379Y02637D02*
X04049D01*
X02755D02*
X03379D01*
X04834D02*
X05387D01*
X04771D02*
X04772Y02638D01*
X04833*
X04834Y02637*
X02513Y02395D02*
X02755Y02637D01*
X02513Y02204D02*
Y02395D01*
X0208Y02204D02*
X02513D01*
X01962Y02086D02*
X0208Y02204D01*
X01535Y02086D02*
X01962D01*
X01415Y02206D02*
X01535Y02086D01*
X01169Y02206D02*
X01415D01*
X01102Y02011D02*
X01259Y02169D01*
X01102Y01968D02*
Y02011D01*
X00988Y01854D02*
X01102Y01968D01*
X00988Y0182D02*
Y01854D01*
X01787Y01218D02*
X0208D01*
X01732Y01273D02*
X01787Y01218D01*
X02153Y02167D02*
X02171D01*
X01732Y01746D02*
X02153Y02167D01*
X01968Y02594D02*
X01974Y026D01*
X01968Y0244D02*
Y02594D01*
X01746Y02218D02*
X01968Y0244D01*
X01732Y02218D02*
X01746D01*
X00318Y08051D02*
X00438Y08171D01*
Y08387*
X01657Y08051D02*
Y08222D01*
X01822Y08387*
X02326Y08051D02*
Y08261D01*
X02452Y08387*
X052Y08051D02*
X05326Y08177D01*
X06736Y08051D02*
Y08228D01*
X06895Y08387*
X07405Y08051D02*
X07564Y0821D01*
Y08387*
X06805Y08425D02*
X07474D01*
X01732D02*
X02362D01*
X01057D02*
X01732D01*
X01687Y07559D02*
X02356D01*
X00348D02*
X01062D01*
X00348Y08425D02*
X01057D01*
X05204D02*
X05205Y08424D01*
G54D16*
X05728Y04704D02*
X05737D01*
X05728Y05905D02*
X05736D01*
X02775Y07559D02*
X02893D01*
X01012Y05944D02*
X01091Y06023D01*
X05747Y048D02*
X05748Y04801D01*
X0571Y04763D02*
X05711Y04765D01*
Y04771D02*
X0574Y048D01*
X05747*
X05711Y04765D02*
Y04771D01*
X05629Y04763D02*
X0571D01*
X07775Y04801D02*
Y04803D01*
X07739D02*
X0774Y04801D01*
X05748D02*
X05781D01*
X05783Y04803D02*
X05839D01*
X05883D02*
X07739D01*
X0584Y04801D02*
X05881D01*
X05839Y04803D02*
X0584Y04801D01*
X05781D02*
X05783Y04803D01*
X0774Y04801D02*
X07775D01*
X05881D02*
X05883Y04803D01*
X05669Y04822D02*
Y04842D01*
X07775Y04803D02*
X07813D01*
X07861Y04851*
X0574Y04901D02*
X0574Y04901D01*
X0584D02*
X05881D01*
X05882Y04901D02*
X05905D01*
X05728D02*
X0574D01*
X0584D02*
X0584Y04901D01*
X05781D02*
X05782Y04901D01*
X05881Y04901D02*
X05882Y04901D01*
X05782D02*
X0584D01*
X0574Y04901D02*
X05781D01*
X05669Y04842D02*
X05728Y04901D01*
X01879Y031D02*
X02125D01*
X0183Y0315D02*
Y03227D01*
Y0315D02*
X01879Y031D01*
X0183Y03227D02*
X02342Y0374D01*
Y03799*
X03661Y00703D02*
Y00725D01*
X03657Y00729D02*
X03661Y00725D01*
Y00773D02*
X03686Y00798D01*
X03607Y00649D02*
X03661Y00703D01*
X03657Y00769D02*
X03661Y00773D01*
X03657Y00729D02*
Y00769D01*
X03714Y00826D02*
X03799D01*
X03686Y00798D02*
X03714Y00826D01*
X03686Y00798D02*
X03686D01*
X03056Y00698D02*
X03127D01*
X03046Y00688D02*
X03056Y00698D01*
X03127D02*
X03186D01*
X03227D02*
X03286D01*
X03327D02*
X03386D01*
X03456Y00798D02*
X03543Y00885D01*
X03759*
X03456Y00729D02*
Y00798D01*
X03427Y007D02*
X03456Y00729D01*
X03415Y00698D02*
X03416Y007D01*
X03427*
X03286Y00698D02*
X03327D01*
X03186D02*
X03227D01*
X03386D02*
X03415D01*
X03007Y00649D02*
X03046Y00688D01*
X07913Y04704D02*
X07933Y04685D01*
X07807Y04704D02*
X07837D01*
X07885D02*
X07913D01*
X0784Y04701D02*
X07881D01*
X07837Y04704D02*
X0784Y04701D01*
X07881D02*
X07885Y04704D01*
X07761Y04751D02*
X07807Y04704D01*
X07775Y05D02*
Y05D01*
X07677Y05D02*
X07739D01*
X0774Y05D02*
X07775D01*
X07739Y05D02*
X0774Y05D01*
X07775Y05D02*
X07812D01*
X07861Y04951*
X03799Y00826D02*
X03897Y00728D01*
Y0057D02*
Y00728D01*
X03818Y00492D02*
X03897Y0057D01*
X02362Y00492D02*
X03818D01*
X02322Y00531D02*
X02362Y00492D01*
X02322Y00531D02*
Y0061D01*
X02362Y0059D02*
Y00669D01*
Y0059D02*
X02421Y00531D01*
X02287Y00744D02*
X02362Y00669D01*
X02238Y00694D02*
X02322Y0061D01*
X02215Y00694D02*
X02238D01*
X03707Y00749D02*
X03725Y00767D01*
X03779*
X03838Y00708*
Y00629D02*
Y00708D01*
X0374Y00531D02*
X03838Y00629D01*
X02421Y00531D02*
X0374D01*
X02215Y00744D02*
X02287D01*
X03523Y01358D02*
Y01771D01*
X03307Y01141D02*
X03523Y01358D01*
X03307Y00749D02*
Y01141D01*
X0573Y05601D02*
X05781D01*
X0579Y0561D02*
X05807D01*
X05781Y05601D02*
X0579Y0561D01*
X02933Y08425D02*
X03031D01*
X05785Y04704D02*
X05807D01*
X05781Y04701D02*
X05785Y04704D01*
X0574Y04701D02*
X05781D01*
X05737Y04704D02*
X0574Y04701D01*
X05807Y04704D02*
X0586Y04651D01*
X05861*
X05881Y05901D02*
X05886Y05905D01*
X05781Y05901D02*
X05786Y05905D01*
X05886D02*
X05925D01*
X0584Y05901D02*
X05881D01*
X05836Y05905D02*
X0584Y05901D01*
X0574D02*
X05781D01*
X05736Y05905D02*
X0574Y05901D01*
X05786Y05905D02*
X05836D01*
X02834Y06653D02*
X02992D01*
G54D17*
X0307Y05866D02*
X05688D01*
X05728Y05905*
X02952Y05984D02*
D01*
X0307Y05866*
X05767Y08523D02*
X05846Y08444D01*
X04783Y08523D02*
X05767D01*
X07056Y05925D02*
X07194Y05787D01*
X04677Y08393D02*
X04707Y08423D01*
Y08447D02*
X04783Y08523D01*
X04707Y08423D02*
Y08447D01*
X04653Y08393D02*
X04677D01*
X04645Y08385D02*
X04653Y08393D01*
X04468Y08385D02*
X04645D01*
X0433Y08523D02*
X04468Y08385D01*
X04038Y08423D02*
Y08431D01*
X0406Y08459D02*
X04124Y08523D01*
X04046Y08439D02*
Y08446D01*
X04038Y08431D02*
X04046Y08439D01*
X04058Y08459D02*
X0406D01*
X04046Y08446D02*
X04058Y08459D01*
X0372Y08503D02*
X03838Y08385D01*
X03405Y08503D02*
X0372D01*
X04Y08385D02*
X04038Y08423D01*
X03838Y08385D02*
X04D01*
X03129D02*
Y08484D01*
X03331Y08385D02*
X03368Y08423D01*
X03129Y08385D02*
X03331D01*
X03368Y08466D02*
X03405Y08503D01*
X03368Y08423D02*
Y08466D01*
X03368Y08466D02*
X03368Y08466D01*
X02854Y05984D02*
Y06062D01*
X02761Y06156D02*
X02854Y06062D01*
X02727Y06156D02*
X02761D01*
X05925Y05905D02*
X06003D01*
X06023Y05925*
X07056*
X04124Y08523D02*
X0433D01*
X02727Y07373D02*
X02755Y07401D01*
X02727Y0724D02*
Y07373D01*
Y0724D02*
X02731Y07244D01*
G54D18*
X05826Y08582D02*
X05964Y08444D01*
X05087Y08582D02*
X05826D01*
X05078D02*
X05087D01*
X05089Y0858*
X05087Y08582D02*
D01*
X04656D02*
X05078D01*
X05087*
X03987D02*
X04656D01*
Y08444D02*
Y08582D01*
X03987D02*
D01*
Y08444D02*
Y08582D01*
X03406D02*
X03987D01*
X02992Y08464D02*
X0311Y08582D01*
X03346D02*
X03376Y08552D01*
X0311Y08582D02*
X03346D01*
X03317Y08444D02*
Y08494D01*
X04251Y04488D02*
X04311Y04547D01*
X04173Y04488D02*
X04251D01*
X02086Y0059D02*
X02224D01*
X03759Y04547D02*
X04114D01*
X01811D02*
X03759D01*
X04114D02*
X04173Y04488D01*
X02723Y07086D02*
X02727Y0709D01*
X02677Y07086D02*
X02723D01*
Y06102D02*
X02727Y06106D01*
X02677Y06102D02*
X02723D01*
Y04724D02*
X02727Y04728D01*
X02677Y04724D02*
X02723D01*
X02696Y07893D02*
Y07925D01*
X02727Y07956*
X03376Y08552D02*
X03406Y08582D01*
X03317Y08494D02*
X03376Y08552D01*
X02992Y08228D02*
Y08385D01*
G54D19*
X04877Y04551D02*
X05761D01*
X04527Y04901D02*
X04877Y04551D01*
X04114Y05039D02*
X04389D01*
X04527Y04901*
X03917Y04842D02*
X04114Y05039D01*
X03169Y04842D02*
X03917D01*
X05761Y04551D02*
X05861D01*
X02677Y03149D02*
X02696Y03169D01*
X02342Y03149D02*
X02677D01*
X05861Y04551D02*
X07761D01*
X07861*
X02293Y031D02*
X02342Y03149D01*
X02125Y031D02*
X02293D01*
X02893Y05157D02*
X02952D01*
X03129Y0498*
Y04881D02*
Y0498D01*
Y04881D02*
X03169Y04842D01*
G54D20*
X05792Y05787D02*
X0583D01*
X05708D02*
X0573D01*
X0583D02*
X05841Y05798D01*
X0573Y05787D02*
X05741Y05798D01*
X05781*
X05892Y05787D02*
X05905D01*
X05781Y05798D02*
X05792Y05787D01*
X05841Y05798D02*
X05881D01*
X05892Y05787*
X05887Y06692D02*
X05901D01*
X05708D02*
X05735D01*
X05741Y06698D02*
X05781D01*
X05787Y06692*
X05835*
X05735D02*
X05741Y06698D01*
X05841D02*
X05881D01*
X05835Y06692D02*
X05841Y06698D01*
X05881D02*
X05887Y06692D01*
G54D21*
X06066Y08051D03*
X06216D03*
X07405Y05393D03*
X07555D03*
X01732Y01746D03*
Y01895D03*
X07405Y06279D03*
X07555D03*
X07405Y07165D03*
X07555D03*
X07405Y08051D03*
X07555D03*
X06736Y05393D03*
X06885D03*
X06736Y06279D03*
X06885D03*
X06736Y07165D03*
X06885D03*
X06736Y08051D03*
X06885D03*
X06066Y05393D03*
X06216D03*
X06066Y06279D03*
X06216D03*
X06066Y07165D03*
X06216D03*
X052Y05393D03*
X0535D03*
X04531D03*
X04681D03*
X03862D03*
X04011D03*
X03192D03*
X03342D03*
X052Y06279D03*
X0535D03*
X04531D03*
X04681D03*
X03862D03*
X04011D03*
X03192D03*
X03342D03*
X052Y07165D03*
X0535D03*
X04531D03*
X04681D03*
X03862D03*
X04011D03*
X03192D03*
X03342D03*
X052Y08051D03*
X0535D03*
X04531D03*
X04681D03*
X03862D03*
X04011D03*
X03192D03*
X03342D03*
X052Y04035D03*
X0535D03*
X052Y03149D03*
X0535D03*
X052Y02263D03*
X0535D03*
X052Y01377D03*
X0535D03*
X04531D03*
X04681D03*
X03862D03*
X04011D03*
X04531Y04035D03*
X04681D03*
X03862D03*
X04011D03*
X03192D03*
X03342D03*
X04531Y03149D03*
X04681D03*
X03862D03*
X04011D03*
X03192D03*
X03342D03*
X04531Y02263D03*
X04681D03*
X03862D03*
X04011D03*
X03192D03*
X03342D03*
X03192Y01377D03*
X03342D03*
X01732Y01273D03*
Y01423D03*
Y02218D03*
Y02368D03*
X02326Y0182D03*
X02476D03*
X00988D03*
X01137D03*
X00318Y04035D03*
X00468D03*
X02326Y05393D03*
X02476D03*
X01657D03*
X01807D03*
X00988D03*
X01137D03*
X00318D03*
X00468D03*
X02326Y06279D03*
X02476D03*
X01657D03*
X01807D03*
X00988D03*
X01137D03*
X00318D03*
X00468D03*
X02326Y07165D03*
X02476D03*
X01657D03*
X01807D03*
X00988D03*
X01137D03*
X00318D03*
X00468D03*
X02326Y08051D03*
X02476D03*
X01657D03*
X01807D03*
X00988D03*
X01137D03*
X00318D03*
X00468D03*
G54D22*
X01112Y05944D03*
X03707Y00749D03*
X03607Y00649D03*
Y00749D03*
X03507Y00649D03*
Y00749D03*
X03407Y00649D03*
Y00749D03*
X03307Y00649D03*
Y00749D03*
X03207Y00649D03*
Y00749D03*
X03107Y00649D03*
Y00749D03*
X03007Y00649D03*
Y00749D03*
X00216Y02621D03*
Y02521D03*
Y02421D03*
Y02321D03*
Y02221D03*
Y02121D03*
Y02021D03*
X04321Y04566D03*
X01782D03*
X00443D03*
X07294Y05787D03*
X04656Y07559D03*
X03987D03*
X03317D03*
X05955Y08444D03*
X04656D03*
X03987D03*
X03317D03*
G54D23*
X01012Y05944D03*
X03707Y00649D03*
X04221Y04566D03*
X01682D03*
X00343D03*
X07194Y05787D03*
X04556Y07559D03*
X03887D03*
X03217D03*
X05855Y08444D03*
X04556D03*
X03887D03*
X03217D03*
G54D24*
X07861Y06951D03*
X07761D03*
X07861Y06851D03*
X07761D03*
X07861Y06751D03*
X07761D03*
X07861Y06651D03*
X07761D03*
X07861Y06551D03*
X07761D03*
X07861Y06451D03*
X07761D03*
X07861Y06351D03*
X07761D03*
X07861Y06251D03*
X07761D03*
X07861Y06151D03*
X07761D03*
X07861Y06051D03*
X07761D03*
X07861Y05951D03*
X07761D03*
X07861Y05851D03*
X07761D03*
X07861Y05751D03*
X07761D03*
X07861Y05651D03*
X07761D03*
X07861Y05551D03*
X07761D03*
X07861Y05451D03*
X07761D03*
X07861Y05351D03*
X07761D03*
X07861Y05251D03*
X07761D03*
X07861Y05151D03*
X07761D03*
X07861Y05051D03*
X07761D03*
X07861Y04951D03*
X07761D03*
X07861Y04851D03*
X07761D03*
X07861Y04751D03*
X07761D03*
X07861Y04651D03*
X07761D03*
X07861Y04551D03*
X07761D03*
X05861Y06951D03*
X05761D03*
X05861Y06851D03*
X05761D03*
X05861Y06751D03*
X05761D03*
X05861Y06651D03*
X05761D03*
X05861Y06551D03*
X05761D03*
X05861Y06451D03*
X05761D03*
X05861Y06351D03*
X05761D03*
X05861Y06251D03*
X05761D03*
X05861Y06151D03*
X05761D03*
X05861Y06051D03*
X05761D03*
X05861Y05951D03*
X05761D03*
X05861Y05851D03*
X05761D03*
X05861Y05751D03*
X05761D03*
X05861Y05651D03*
X05761D03*
X05861Y05551D03*
X05761D03*
X05861Y05451D03*
X05761D03*
X05861Y05351D03*
X05761D03*
X05861Y05251D03*
X05761D03*
X05861Y05151D03*
X05761D03*
X05861Y05051D03*
X05761D03*
X05861Y04951D03*
X05761D03*
X05861Y04851D03*
X05761D03*
X05861Y04751D03*
X05761D03*
X05861Y04651D03*
X05761D03*
X05861Y04551D03*
X05761D03*
G54D25*
X00216Y02721D03*
G54D26*
X01889Y03198D03*
X01574D03*
X01889Y03986D03*
X01574D03*
X01732Y03188D03*
Y03996D03*
X02125Y04084D03*
X01338D03*
X02125Y031D03*
X01338D03*
G54D27*
X00354Y08976D03*
Y04842D03*
Y00196D03*
X04291Y08976D03*
Y04842D03*
Y0059D03*
X08228Y00196D03*
Y04842D03*
Y08976D03*
G54D28*
X07657Y05925D03*
X06496Y08425D03*
X06535Y06751D03*
X02755Y05255D03*
X06141Y05196D03*
X05078Y08582D03*
X03129Y08484D03*
X02933Y07716D03*
X02933Y07657D03*
Y07598D03*
X05669Y04822D03*
X05629Y04763D03*
X05688Y03976D03*
X05649Y04094D03*
X02696Y03169D03*
X08149Y04606D03*
X03051Y0309D03*
X0311Y04724D03*
X08051Y05728D03*
X03543Y02637D03*
X03759Y04547D03*
X03188Y03543D03*
X03267Y04409D03*
X02933Y05393D03*
X03051Y08011D03*
X0307Y05728D03*
X07972Y05708D03*
X08248Y04566D03*
X08149Y04488D03*
X02677Y07086D03*
Y06102D03*
Y04724D03*
X02086Y0059D03*
X02696Y07893D03*
X02832Y06257D03*
X02952Y05984D03*
X02854D03*
X02755Y07401D03*
X0283Y07128D03*
X02834Y07204D03*
X02991Y0626D03*
X02992Y07244D03*
Y04881D03*
X0244Y00826D03*
X02992Y08228D03*
X02559Y00905D03*
X02952Y04645D03*
X02803Y08297D03*
X02834Y08267D03*
X02874Y08228D03*
G54D29*
X02893Y05157D03*
M02*